<svg width="18" height="18" viewBox="0 0 18 18" fill="none" xmlns="http://www.w3.org/2000/svg">
<path d="M16.3708 6.25401L15.8715 5.75474L16.292 5.30803C16.4672 5.13285 16.5547 4.93577 16.5547 4.71679C16.5547 4.49781 16.4672 4.30073 16.292 4.12555L13.8745 1.70803C13.6993 1.53285 13.5022 1.44526 13.2832 1.44526C13.0642 1.44526 12.8672 1.53285 12.692 1.70803L12.2453 2.12847L11.7197 1.60292L12.2453 1.05109C12.5255 0.770803 12.8672 0.635037 13.2701 0.643796C13.673 0.652555 14.0146 0.79708 14.2949 1.07737L16.9226 3.70511C17.2029 3.9854 17.3431 4.32263 17.3431 4.71679C17.3431 5.11095 17.2029 5.44818 16.9226 5.72847L16.3708 6.25401ZM5.72847 16.9226C5.44818 17.2029 5.11095 17.3431 4.71679 17.3431C4.32263 17.3431 3.9854 17.2029 3.70511 16.9226L1.18248 14.4C0.884672 14.1022 0.735766 13.7299 0.735766 13.2832C0.735766 12.8365 0.884672 12.4642 1.18248 12.1664L1.60292 11.746L2.12847 12.2715L1.70803 12.692C1.53285 12.8672 1.44526 13.0642 1.44526 13.2832C1.44526 13.5022 1.53285 13.6993 1.70803 13.8745L4.12555 16.292C4.30073 16.4672 4.49781 16.5547 4.71679 16.5547C4.93577 16.5547 5.13285 16.4672 5.30803 16.292L5.72847 15.8715L6.25401 16.3971L5.72847 16.9226ZM15.8978 10.2745L17.0015 9.1708C17.1766 8.99562 17.2642 8.79416 17.2642 8.56642C17.2642 8.33869 17.1766 8.13723 17.0015 7.96204L10.038 0.99854C9.86277 0.823358 9.66131 0.735766 9.43358 0.735766C9.20584 0.735766 9.00438 0.823358 8.8292 0.99854L7.72555 2.10219C7.55037 2.27737 7.46277 2.47445 7.46277 2.69343C7.46277 2.91241 7.55037 3.10949 7.72555 3.28467L14.7153 10.2745C14.8905 10.4496 15.0876 10.5372 15.3066 10.5372C15.5255 10.5372 15.7226 10.4496 15.8978 10.2745ZM9.14453 17.0277L10.2482 15.9241C10.4234 15.7489 10.5109 15.5518 10.5109 15.3328C10.5109 15.1139 10.4234 14.9168 10.2482 14.7416L3.25839 7.75182C3.08321 7.57664 2.88613 7.48905 2.66715 7.48905C2.44818 7.48905 2.25109 7.57664 2.07591 7.75182L0.972263 8.85547C0.79708 9.03066 0.709489 9.23212 0.709489 9.45985C0.709489 9.68759 0.79708 9.88905 0.972263 10.0642L7.93577 17.0277C8.11095 17.2029 8.31241 17.2905 8.54015 17.2905C8.76788 17.2905 8.96934 17.2029 9.14453 17.0277ZM8.22482 11.6672L11.6409 8.2511L9.74891 6.35912L6.33285 9.77518L8.22482 11.6672ZM9.6438 17.5533C9.34599 17.8511 8.9781 18 8.54015 18C8.10219 18 7.73431 17.8511 7.4365 17.5533L0.446715 10.5635C0.148905 10.2657 0 9.89781 0 9.45985C0 9.0219 0.148905 8.65401 0.446715 8.3562L1.55036 7.22628C1.84818 6.92847 2.22044 6.77956 2.66715 6.77956C3.11387 6.77956 3.48613 6.92847 3.78394 7.22628L5.8073 9.24964L9.22336 5.83358L7.2 3.81022C6.90219 3.51241 6.75328 3.14015 6.75328 2.69343C6.75328 2.24672 6.90219 1.87445 7.2 1.57664L8.32993 0.446715C8.62774 0.148905 9 0 9.44672 0C9.89343 0 10.2657 0.148905 10.5635 0.446715L17.5533 7.4365C17.8511 7.73431 18 8.10657 18 8.55328C18 9 17.8511 9.37226 17.5533 9.67007L16.4234 10.8C16.1255 11.0978 15.7533 11.2467 15.3066 11.2467C14.8599 11.2467 14.4876 11.0978 14.1898 10.8L12.1664 8.77664L8.75037 12.1927L10.7737 14.2161C11.0715 14.5139 11.2204 14.8861 11.2204 15.3328C11.2204 15.7796 11.0715 16.1518 10.7737 16.4496L9.6438 17.5533Z" fill="#83B59F"/>
</svg>
