<svg width="16" height="18" viewBox="0 0 16 18" fill="none" xmlns="http://www.w3.org/2000/svg">
<path d="M0.449438 15.5972L0 15.1351L4.1573 10.8609C4.59176 10.4142 4.8764 9.89051 5.01124 9.2898C5.14607 8.6891 5.21348 7.77264 5.21348 6.54043C5.21348 5.73949 5.38577 4.95396 5.73034 4.18383C6.07491 3.41369 6.5618 2.70517 7.19101 2.05826C8.31461 0.903064 9.53558 0.233049 10.8539 0.048217C12.1723 -0.136615 13.2584 0.209945 14.1124 1.0879C14.9663 1.96585 15.3034 3.08254 15.1236 4.43797C14.9438 5.7934 14.2921 7.04872 13.1685 8.20392C12.5393 8.85083 11.8539 9.34371 11.1124 9.68257C10.3708 10.0214 9.603 10.1909 8.80899 10.1909C7.65543 10.1909 6.77903 10.264 6.17978 10.4103C5.58052 10.5567 5.05618 10.8609 4.60674 11.323L0.449438 15.5972ZM6.65169 8.7122C7.35581 9.43613 8.30712 9.69797 9.50562 9.49774C10.7041 9.2975 11.7753 8.7122 12.7191 7.74184C13.6779 6.75607 14.2472 5.65093 14.427 4.42642C14.6067 3.20191 14.3521 2.24309 13.6629 1.54997C12.9588 0.841453 12.0225 0.583459 10.8539 0.775992C9.68539 0.968525 8.61423 1.54997 7.64045 2.52034C6.69663 3.49071 6.11985 4.5843 5.91011 5.8011C5.70037 7.01791 5.94757 7.98828 6.65169 8.7122ZM11.8539 17.2722C11.382 16.787 11.1461 16.1979 11.1461 15.5048C11.1461 14.8117 11.382 14.2225 11.8539 13.7373C12.3258 13.2521 12.8989 13.0095 13.573 13.0095C14.2472 13.0095 14.8202 13.2521 15.2921 13.7373C15.764 14.2225 16 14.8117 16 15.5048C16 16.1979 15.764 16.787 15.2921 17.2722C14.8202 17.7574 14.2472 18 13.573 18C12.8989 18 12.3258 17.7574 11.8539 17.2722ZM14.8427 16.8101C15.1948 16.4482 15.3708 16.0131 15.3708 15.5048C15.3708 14.9965 15.1948 14.5614 14.8427 14.1994C14.4906 13.8374 14.0674 13.6565 13.573 13.6565C13.0787 13.6565 12.6554 13.8374 12.3034 14.1994C11.9513 14.5614 11.7753 14.9965 11.7753 15.5048C11.7753 16.0131 11.9513 16.4482 12.3034 16.8101C12.6554 17.1721 13.0787 17.3531 13.573 17.3531C14.0674 17.3531 14.4906 17.1721 14.8427 16.8101Z" fill="#83B59F"/>
</svg>
