<svg width="37" height="18" viewBox="0 0 37 18" fill="none" xmlns="http://www.w3.org/2000/svg">
<path d="M10.4897 18C9.21821 18 7.97058 17.7686 6.74678 17.3059C5.52298 16.8431 4.45017 16.1809 3.52835 15.3191C2.32045 14.1383 1.43041 12.7101 0.858247 11.0346C0.286082 9.35904 0 7.64362 0 5.8883C0 4.16489 0.397337 2.75266 1.19201 1.6516C1.98668 0.550532 3.14691 0 4.67268 0C4.92698 0 5.18922 0.0239362 5.45941 0.0718085C5.7296 0.119681 5.99184 0.191489 6.24613 0.287234L18.5 4.93085L30.7539 0.287234C31.0082 0.191489 31.2704 0.119681 31.5406 0.0718085C31.8108 0.0239362 32.073 0 32.3273 0C33.8531 0 35.0133 0.550532 35.808 1.6516C36.6027 2.75266 37 4.16489 37 5.8883C37 7.64362 36.7139 9.35904 36.1418 11.0346C35.5696 12.7101 34.6796 14.1383 33.4716 15.3191C32.5498 16.1809 31.477 16.8431 30.2532 17.3059C29.0294 17.7686 27.7818 18 26.5103 18C24.8574 18 23.3396 17.5213 21.9568 16.5638L19.8827 15.1277H17.1173L15.0432 16.5638C13.6604 17.5213 12.1426 18 10.4897 18ZM10.4897 16.6596C11.6658 16.6596 12.7625 16.3803 13.7796 15.8218C14.7968 15.2633 15.7345 14.5851 16.5928 13.7872H20.4072C21.2655 14.5851 22.2032 15.2633 23.2204 15.8218C24.2375 16.3803 25.3342 16.6596 26.5103 16.6596C27.6546 16.6596 28.7592 16.4601 29.8241 16.0612C30.889 15.6622 31.8346 15.0479 32.6611 14.2181C33.7418 13.133 34.5127 11.8564 34.9736 10.3883C35.4345 8.92021 35.6649 7.42021 35.6649 5.8883C35.6649 4.57979 35.3948 3.4867 34.8544 2.60904C34.314 1.73138 33.4558 1.30851 32.2796 1.34043C32.1843 1.34043 31.8346 1.40426 31.2307 1.53191L18.5 6.31915L5.76933 1.53191C5.6104 1.46809 5.44351 1.42021 5.26869 1.3883C5.09386 1.35638 4.91108 1.34043 4.72036 1.34043C3.54424 1.34043 2.686 1.77128 2.14562 2.63298C1.60524 3.49468 1.33505 4.57979 1.33505 5.8883C1.33505 7.45213 1.56551 8.96809 2.02642 10.4362C2.48733 11.9043 3.27405 13.1809 4.3866 14.266C5.21306 15.0638 6.15077 15.6622 7.19974 16.0612C8.24871 16.4601 9.34536 16.6596 10.4897 16.6596ZM12.826 13.0213C13.7479 13.0213 14.471 12.8298 14.9955 12.4468C15.52 12.0638 15.7981 11.5213 15.8299 10.8191C15.7663 9.44681 14.7968 8.13032 12.9214 6.86968C11.046 5.60904 9.07517 4.97872 7.00902 4.97872C6.0872 4.97872 5.36405 5.17021 4.83956 5.55319C4.31508 5.93617 4.03694 6.47872 4.00515 7.18085C4.06873 8.55319 5.03823 9.86968 6.91366 11.1303C8.78909 12.391 10.7599 13.0213 12.826 13.0213ZM12.826 11.6809C11.1095 11.6809 9.45661 11.1941 7.86727 10.2207C6.27792 9.24734 5.43557 8.23404 5.34021 7.18085C5.37199 6.92553 5.53093 6.71809 5.81701 6.55851C6.10309 6.39894 6.50043 6.31915 7.00902 6.31915C8.72552 6.31915 10.3784 6.80585 11.9678 7.77926C13.5571 8.75266 14.3995 9.76596 14.4948 10.8191C14.4631 11.0745 14.3041 11.2819 14.018 11.4415C13.732 11.6011 13.3346 11.6809 12.826 11.6809ZM24.174 13.0691C26.2401 13.0691 28.2109 12.4309 30.0863 11.1543C31.9618 9.87766 32.9313 8.55319 32.9948 7.18085C32.9631 6.51064 32.6849 5.96809 32.1604 5.55319C31.636 5.1383 30.9128 4.93085 29.991 4.93085C27.9566 4.99468 25.9938 5.65692 24.1024 6.91755C22.2111 8.17819 21.2337 9.47872 21.1701 10.8191C21.2019 11.4894 21.48 12.0319 22.0045 12.4468C22.529 12.8617 23.2521 13.0691 24.174 13.0691ZM24.174 11.7287C23.6972 11.6968 23.3078 11.6011 23.0058 11.4415C22.7038 11.2819 22.5369 11.0745 22.5052 10.8191C22.6005 9.79787 23.4429 8.80053 25.0322 7.82713C26.6216 6.85372 28.2745 6.33511 29.991 6.27128C30.4678 6.30319 30.8572 6.39894 31.1591 6.55851C31.4611 6.71809 31.628 6.92553 31.6598 7.18085C31.5644 8.23404 30.7221 9.25532 29.1327 10.2447C27.5434 11.234 25.8905 11.7287 24.174 11.7287Z" fill="#83B59F"/>
</svg>
