<svg width="21" height="18" viewBox="0 0 21 18" fill="none" xmlns="http://www.w3.org/2000/svg">
<path d="M0.46875 17.7727L0 17.3182L3.28125 14.1364L2.10938 11.1364C2.03125 10.9545 2.01953 10.7348 2.07422 10.4773C2.12891 10.2197 2.25 10 2.4375 9.81818L5.53125 6.81818C5.65625 6.69697 5.78906 6.60606 5.92969 6.54545C6.07031 6.48485 6.23438 6.45455 6.42188 6.45455C6.60938 6.45455 6.77344 6.48485 6.91406 6.54545C7.05469 6.60606 7.1875 6.69697 7.3125 6.81818L9.23438 8.59091C9.67187 9 10.1719 9.32576 10.7344 9.56818C11.2969 9.81061 11.9062 9.9697 12.5625 10.0455V10.6818C11.8281 10.6061 11.1328 10.428 10.4766 10.1477C9.82031 9.86742 9.28125 9.5303 8.85938 9.13636L7.78125 8.13636L4.73438 11.0909L6.9375 13.2727V18H6.28125V13.5455L3.84375 11.3636V14.5L0.46875 17.7727ZM13.7812 18V12.5L15.8438 10.5909L14.9062 5.86364C14.3594 6.51515 13.7891 7.10227 13.1953 7.625C12.6016 8.14773 11.9219 8.50758 11.1562 8.70455C11.0156 8.67424 10.8711 8.625 10.7227 8.55682C10.5742 8.48864 10.4375 8.40152 10.3125 8.29545C11.0469 8.18939 11.7695 7.87879 12.4805 7.36364C13.1914 6.84849 13.7031 6.33333 14.0156 5.81818L14.9062 4.36364C15.0938 4.06061 15.3477 3.86742 15.668 3.78409C15.9883 3.70076 16.3125 3.72727 16.6406 3.86364L21 5.63636V8.90909H20.3438V6.04545L17.25 4.81818L19.9219 18H19.1719L17.4141 10.7955L14.4375 12.9091V18H13.7812ZM8.21484 6.21591C7.92578 5.93561 7.78125 5.59091 7.78125 5.18182C7.78125 4.77273 7.92578 4.42803 8.21484 4.14773C8.50391 3.86742 8.85938 3.72727 9.28125 3.72727C9.70312 3.72727 10.0586 3.86742 10.3477 4.14773C10.6367 4.42803 10.7812 4.77273 10.7812 5.18182C10.7812 5.59091 10.6367 5.93561 10.3477 6.21591C10.0586 6.49621 9.70312 6.63636 9.28125 6.63636C8.85938 6.63636 8.50391 6.49621 8.21484 6.21591ZM13.9336 2.48864C13.6445 2.20833 13.5 1.86364 13.5 1.45455C13.5 1.04545 13.6445 0.700758 13.9336 0.420455C14.2227 0.140152 14.5781 0 15 0C15.4219 0 15.7773 0.140152 16.0664 0.420455C16.3555 0.700758 16.5 1.04545 16.5 1.45455C16.5 1.86364 16.3555 2.20833 16.0664 2.48864C15.7773 2.76894 15.4219 2.90909 15 2.90909C14.5781 2.90909 14.2227 2.76894 13.9336 2.48864Z" fill="#83B59F"/>
</svg>
