<svg width="24" height="18" viewBox="0 0 24 18" fill="none" xmlns="http://www.w3.org/2000/svg">
<path d="M21.6525 13.2954L16.0714 12.0375L4.16036 0.125469C4.11939 0.0845155 4.07054 0.0522925 4.01677 0.0307467C3.96299 0.00920098 3.90541 -0.00122 3.8475 0.00011359C3.78967 0.00144762 3.7327 0.0144761 3.68004 0.0384138C3.62737 0.0623515 3.5801 0.0967027 3.54107 0.139398C1.25786 2.63581 0 5.78578 0 9.00004V16.7143C0 17.0553 0.135459 17.3823 0.376577 17.6234C0.617695 17.8645 0.944721 18 1.28571 18H4.71428C5.05528 18 5.3823 17.8645 5.62342 17.6234C5.86454 17.3823 6 17.0553 6 16.7143V10.7529C8.70011 12.1133 10.816 14.4058 11.9561 17.206C12.0528 17.4423 12.2181 17.6443 12.4306 17.7858C12.6432 17.9273 12.8932 18.0019 13.1486 18H22.7143C23.0553 18 23.3823 17.8645 23.6234 17.6234C23.8645 17.3823 24 17.0553 24 16.7143V16.2075C24.0015 15.5266 23.7691 14.8659 23.3418 14.3358C22.9145 13.8058 22.3182 13.4385 21.6525 13.2954ZM5.14286 16.7143C5.14286 16.8279 5.0977 16.9369 5.01733 17.0173C4.93696 17.0977 4.82795 17.1428 4.71428 17.1428H1.28571C1.17205 17.1428 1.06304 17.0977 0.982668 17.0173C0.902296 16.9369 0.857143 16.8279 0.857143 16.7143V9.43718C2.32947 9.48613 3.78105 9.79895 5.14286 10.3607V16.7143ZM23.1429 16.7143C23.1429 16.8279 23.0977 16.9369 23.0173 17.0173C22.937 17.0977 22.8279 17.1428 22.7143 17.1428H13.1486C13.0641 17.1436 12.9814 17.1194 12.9107 17.0732C12.8399 17.0271 12.7844 16.9611 12.7511 16.8835C11.7686 14.4641 10.0969 12.3866 7.94357 10.9093C5.85702 9.46817 3.39924 8.65908 0.864643 8.57897C0.964285 5.86507 2.02179 3.22187 3.87643 1.05439L15.555 12.7329C15.6139 12.791 15.6883 12.8308 15.7693 12.8475L21.4714 14.1332C21.9459 14.236 22.3707 14.4985 22.6749 14.8768C22.9791 15.2551 23.1443 15.7263 23.1429 16.2118V16.7143Z" fill="#83B59F"/>
</svg>
