<svg width="12" height="18" viewBox="0 0 12 18" fill="none" xmlns="http://www.w3.org/2000/svg">
<path d="M12 9C11.9997 7.98355 11.7675 6.98212 11.3229 6.08046C10.8784 5.17881 10.2346 4.40345 9.44611 3.82L8.93139 0.82C8.89147 0.589744 8.7763 0.381565 8.60593 0.231725C8.43556 0.0818861 8.2208 -0.000116923 7.99904 1.25128e-07H4.00124C3.77926 -4.59256e-05 3.56431 0.0821934 3.39391 0.232365C3.22351 0.382537 3.10848 0.591104 3.06889 0.821667L2.55417 3.82167C1.76537 4.40484 1.12138 5.18013 0.676765 6.08184C0.232146 6.98356 0 7.98512 0 9.00167C0 10.0182 0.232146 11.0198 0.676765 11.9215C1.12138 12.8232 1.76537 13.5985 2.55417 14.1817L3.06889 17.1817C3.10913 17.4116 3.22445 17.6194 3.39479 17.7689C3.56512 17.9184 3.77971 18.0002 4.00124 18H7.99904C8.22102 18 8.43597 17.9178 8.60637 17.7676C8.77677 17.6175 8.8918 17.4089 8.93139 17.1783L9.44611 14.1783C10.2344 13.595 10.878 12.82 11.3225 11.9186C11.7671 11.0173 11.9994 10.0162 12 9ZM3.69019 0.940834C3.70334 0.863881 3.7417 0.794258 3.79856 0.744139C3.85542 0.694021 3.92716 0.666598 4.00124 0.666667H7.99904C8.07312 0.666598 8.14486 0.694021 8.20172 0.744139C8.25858 0.794258 8.29694 0.863881 8.31008 0.940834L8.72534 3.3575C7.88235 2.90181 6.94882 2.66417 6.00172 2.66417C5.05462 2.66417 4.12109 2.90181 3.2781 3.3575L3.69019 0.940834ZM8.31008 17.0592C8.29694 17.1361 8.25858 17.2057 8.20172 17.2559C8.14486 17.306 8.07312 17.3334 7.99904 17.3333H4.00124C3.92716 17.3334 3.85542 17.306 3.79856 17.2559C3.7417 17.2057 3.70334 17.1361 3.69019 17.0592L3.27494 14.6425C4.11793 15.0982 5.05146 15.3358 5.99856 15.3358C6.94566 15.3358 7.87919 15.0982 8.72218 14.6425L8.31008 17.0592ZM6.00014 14.6667C4.93839 14.6667 3.90048 14.3343 3.01767 13.7117C2.13486 13.089 1.44679 12.204 1.04048 11.1685C0.634165 10.1331 0.527855 8.99371 0.734992 7.89449C0.942129 6.79526 1.45341 5.78556 2.20418 4.99306C2.95495 4.20056 3.91149 3.66087 4.95284 3.44222C5.99418 3.22357 7.07357 3.33579 8.0545 3.76468C9.03543 4.19358 9.87384 4.91989 10.4637 5.85177C11.0536 6.78365 11.3684 7.87924 11.3684 9C11.367 10.5024 10.8009 11.9429 9.79448 13.0052C8.78805 14.0676 7.42345 14.6651 6.00014 14.6667ZM9.47374 9C9.47374 9.08841 9.44047 9.17319 9.38125 9.2357C9.32203 9.29821 9.24171 9.33333 9.15796 9.33333H6.00014C5.91639 9.33333 5.83607 9.29821 5.77685 9.2357C5.71763 9.17319 5.68436 9.08841 5.68436 9V5.66667C5.68436 5.57826 5.71763 5.49348 5.77685 5.43096C5.83607 5.36845 5.91639 5.33333 6.00014 5.33333C6.08389 5.33333 6.16421 5.36845 6.22343 5.43096C6.28265 5.49348 6.31592 5.57826 6.31592 5.66667V8.66667H9.15796C9.24171 8.66667 9.32203 8.70179 9.38125 8.7643C9.44047 8.82681 9.47374 8.91159 9.47374 9Z" fill="#83B59F"/>
</svg>
