<svg width="13" height="18" viewBox="0 0 13 18" fill="none" xmlns="http://www.w3.org/2000/svg">
<path d="M12.0714 0H5.26208C5.01582 0 4.77964 0.101592 4.6055 0.282428C4.43136 0.463263 4.33353 0.708529 4.33353 0.964269V7.25934L1.24456 10.4671C0.447681 11.2947 0 12.417 0 13.5874C0 14.7577 0.447681 15.88 1.24456 16.7076C2.04144 17.5351 3.12223 18 4.24919 18C5.37615 18 6.45694 17.5351 7.25382 16.7076L12.5466 11.2104C12.6908 11.0616 12.8051 10.8846 12.883 10.6895C12.9608 10.4945 13.0006 10.2853 13 10.0742V0.964269C13 0.708529 12.9022 0.463263 12.728 0.282428C12.5539 0.101592 12.3177 0 12.0714 0ZM5.26208 0.642846H12.0714C12.1535 0.642846 12.2323 0.67671 12.2903 0.736989C12.3484 0.797267 12.381 0.879022 12.381 0.964269V2.57138H4.95257V0.964269C4.95257 0.879022 4.98518 0.797267 5.04322 0.736989C5.10127 0.67671 5.17999 0.642846 5.26208 0.642846ZM6.81585 16.2528C6.47938 16.6055 6.0791 16.8858 5.63802 17.0775C5.19694 17.2691 4.72373 17.3684 4.2456 17.3696C3.76746 17.3708 3.2938 17.2738 2.85184 17.0844C2.40988 16.8949 2.00832 16.6166 1.67022 16.2655C1.33213 15.9144 1.06416 15.4974 0.881713 15.0385C0.699265 14.5795 0.605932 14.0876 0.607075 13.5911C0.608218 13.0946 0.703814 12.6031 0.888373 12.1451C1.07293 11.687 1.34282 11.2714 1.68252 10.922L4.86203 7.62014C4.89077 7.59026 4.91355 7.5548 4.92908 7.51579C4.94462 7.47677 4.9526 7.43495 4.95257 7.39273V3.21423H12.381V7.08497C11.3709 7.16683 10.4277 7.64097 9.73932 8.41287C9.05094 9.18477 8.66797 10.1977 8.66676 11.2498C8.66312 12.0899 8.90604 12.9111 9.36317 13.6042L6.81585 16.2528ZM12.1086 10.7564L9.81352 13.1406C9.46682 12.5758 9.28364 11.9195 9.2858 11.2498C9.287 10.3682 9.60492 9.5187 10.1774 8.86761C10.7498 8.21652 11.5356 7.81066 12.381 7.72942V10.0742C12.3813 10.201 12.3574 10.3266 12.3106 10.4437C12.2639 10.5608 12.1952 10.6671 12.1086 10.7564Z" fill="#83B59F"/>
</svg>
