<svg width="16" height="18" viewBox="0 0 16 18" fill="none" xmlns="http://www.w3.org/2000/svg">
<path d="M1.55844 18C1.12554 18 0.757576 17.8465 0.454545 17.5395C0.151515 17.2325 0 16.8596 0 16.4211V5.47368C0 5.03509 0.151515 4.66228 0.454545 4.35526C0.757576 4.04825 1.12554 3.89474 1.55844 3.89474H4.15584C4.15584 2.80702 4.52814 1.88596 5.27273 1.13158C6.01732 0.377193 6.92641 0 8 0C9.07359 0 9.98268 0.377193 10.7273 1.13158C11.4719 1.88596 11.8442 2.80702 11.8442 3.89474H14.4416C14.8745 3.89474 15.2424 4.04825 15.5455 4.35526C15.8485 4.66228 16 5.03509 16 5.47368V16.4211C16 16.8596 15.8485 17.2325 15.5455 17.5395C15.2424 17.8465 14.8745 18 14.4416 18H1.55844ZM1.55844 17.2632H14.4416C14.6494 17.2632 14.8398 17.1754 15.013 17C15.1861 16.8246 15.2727 16.6316 15.2727 16.4211V5.47368C15.2727 5.26316 15.1861 5.07018 15.013 4.89474C14.8398 4.7193 14.6494 4.63158 14.4416 4.63158H1.55844C1.35065 4.63158 1.16017 4.7193 0.987013 4.89474C0.813853 5.07018 0.727273 5.26316 0.727273 5.47368V16.4211C0.727273 16.6316 0.813853 16.8246 0.987013 17C1.16017 17.1754 1.35065 17.2632 1.55844 17.2632ZM10.7273 8.44737C11.4719 7.69298 11.8442 6.77193 11.8442 5.68421H11.1169C11.1169 6.5614 10.8139 7.30702 10.2078 7.92105C9.60173 8.53509 8.8658 8.84211 8 8.84211C7.1342 8.84211 6.39827 8.53509 5.79221 7.92105C5.18615 7.30702 4.88312 6.5614 4.88312 5.68421H4.15584C4.15584 6.77193 4.52814 7.69298 5.27273 8.44737C6.01732 9.20175 6.92641 9.57895 8 9.57895C9.07359 9.57895 9.98268 9.20175 10.7273 8.44737ZM4.88312 3.89474H11.1169C11.1169 3.01754 10.8139 2.27193 10.2078 1.65789C9.60173 1.04386 8.8658 0.736842 8 0.736842C7.1342 0.736842 6.39827 1.04386 5.79221 1.65789C5.18615 2.27193 4.88312 3.01754 4.88312 3.89474Z" fill="#83B59F"/>
</svg>
