<svg width="5" height="18" viewBox="0 0 5 18" fill="none" xmlns="http://www.w3.org/2000/svg">
<path d="M1.52778 18V12.6048H0V6.44562C0 5.98408 0.150463 5.59814 0.451389 5.2878C0.752315 4.97745 1.12654 4.82228 1.57407 4.82228C2.0216 4.82228 2.39583 4.97745 2.69676 5.2878C2.99769 5.59814 3.14815 5.98408 3.14815 6.44562C3.7037 6.57294 4.15123 6.87533 4.49074 7.35279C4.83025 7.83024 5 8.37135 5 8.97613V12.6048H2.5V18H1.52778ZM0.520833 2.61406C0.23534 2.31963 0.0925926 1.95756 0.0925926 1.52785C0.0925926 1.09814 0.23534 0.736074 0.520833 0.441645C0.806327 0.147215 1.15741 0 1.57407 0C1.99074 0 2.34182 0.147215 2.62731 0.441645C2.91281 0.736074 3.05556 1.09814 3.05556 1.52785C3.05556 1.95756 2.91281 2.31963 2.62731 2.61406C2.34182 2.90849 1.99074 3.0557 1.57407 3.0557C1.15741 3.0557 0.806327 2.90849 0.520833 2.61406Z" fill="#83B59F"/>
</svg>
