<svg width="18" height="18" viewBox="0 0 18 18" fill="none" xmlns="http://www.w3.org/2000/svg">
<path d="M18 0V5.7551H17.1429V1.5L10.4388 8.14286C10.8469 8.73469 11.1888 9.35867 11.4643 10.0148C11.7398 10.6709 11.8776 11.3531 11.8776 12.0612C11.8776 13.7169 11.3019 15.1206 10.1507 16.2722C8.99949 17.4241 7.59643 18 5.94153 18C4.28663 18 2.88265 17.4244 1.72959 16.2732C0.576531 15.1219 0 13.7189 0 12.064C0 10.4091 0.575918 9.0051 1.72776 7.85204C2.87939 6.69898 4.28306 6.12245 5.93878 6.12245C6.65306 6.12245 7.33163 6.2602 7.97449 6.53571C8.61735 6.81122 9.23469 7.15306 9.82653 7.56122L16.5306 0.857143H12.2449V0H18ZM2.34184 8.46918C1.35204 9.46225 0.857143 10.6612 0.857143 12.0661C0.857143 13.471 1.35367 14.6684 2.34673 15.6582C3.3398 16.648 4.53878 17.1429 5.94367 17.1429C7.34857 17.1429 8.54592 16.6463 9.53571 15.6533C10.5255 14.6602 11.0204 13.4612 11.0204 12.0563C11.0204 10.6514 10.5239 9.45408 9.53082 8.46429C8.53776 7.47449 7.33878 6.97959 5.93388 6.97959C4.52898 6.97959 3.33163 7.47612 2.34184 8.46918Z" fill="#83B59F"/>
</svg>
