<svg width="18" height="18" viewBox="0 0 18 18" fill="none" xmlns="http://www.w3.org/2000/svg">
<path d="M10.7086 17.9572C10.6283 18.0048 10.5441 18.0127 10.4559 17.981C10.3676 17.9493 10.2995 17.8938 10.2513 17.8145L8.56684 14.4847C8.51872 14.4054 8.51069 14.3221 8.54278 14.2349C8.57487 14.1477 8.63102 14.0803 8.71123 14.0328C8.79144 13.9852 8.87968 13.9812 8.97594 14.0209C9.07219 14.0605 9.14438 14.12 9.19251 14.1993L10.877 17.5053C10.9251 17.5846 10.9291 17.6678 10.889 17.755C10.8489 17.8422 10.7888 17.9096 10.7086 17.9572ZM16.508 17.9572C16.4278 18.0048 16.3436 18.0127 16.2553 17.981C16.1671 17.9493 16.0989 17.8938 16.0508 17.8145L14.3663 14.4847C14.3182 14.4054 14.3102 14.3221 14.3422 14.2349C14.3743 14.1477 14.4305 14.0803 14.5107 14.0328C14.5909 13.9852 14.6791 13.9812 14.7754 14.0209C14.8717 14.0605 14.9438 14.12 14.992 14.1993L16.6765 17.5053C16.7246 17.5846 16.7286 17.6678 16.6885 17.755C16.6484 17.8422 16.5882 17.9096 16.508 17.9572ZM4.93315 17.9572C4.85294 18.0048 4.76471 18.0127 4.66845 17.981C4.57219 17.9493 4.5 17.8938 4.45187 17.8145L2.76738 14.4847C2.71925 14.4054 2.71524 14.3221 2.75535 14.2349C2.79545 14.1477 2.85561 14.0803 2.93583 14.0328C3.01604 13.9852 3.10027 13.9812 3.1885 14.0209C3.27674 14.0605 3.34492 14.12 3.39305 14.1993L5.07754 17.5053C5.12567 17.5846 5.13369 17.6678 5.1016 17.755C5.06952 17.8422 5.01337 17.9096 4.93315 17.9572ZM4.66845 12.0825C3.36898 12.0825 2.26604 11.6345 1.35963 10.7386C0.453209 9.84276 0 8.75264 0 7.46829C0 6.26321 0.413102 5.22463 1.2393 4.35254C2.06551 3.48044 3.10428 2.98097 4.35561 2.85412C4.82086 1.96617 5.45856 1.2685 6.26872 0.761099C7.07888 0.2537 7.9893 0 9 0C10.3636 0 11.5307 0.451903 12.5013 1.35571C13.4719 2.25951 14.0294 3.38531 14.1738 4.73309C15.377 4.79651 16.3155 5.18895 16.9893 5.91041C17.6631 6.63187 18 7.46829 18 8.41966C18 9.43446 17.639 10.2986 16.9171 11.0122C16.1952 11.7257 15.3209 12.0825 14.2941 12.0825H4.66845ZM4.66845 11.4165H14.2941C15.1283 11.4165 15.8422 11.1232 16.4358 10.5365C17.0294 9.94979 17.3262 9.24419 17.3262 8.41966C17.3262 7.59514 17.0294 6.88954 16.4358 6.30285C15.8422 5.71617 15.1283 5.42283 14.2941 5.42283H13.4759V5.08985C13.4759 3.86892 13.0388 2.82637 12.1644 1.96221C11.2901 1.09804 10.2353 0.665962 9 0.665962C8.1016 0.665962 7.28342 0.90777 6.54545 1.39138C5.80749 1.875 5.25401 2.52114 4.88503 3.32981L4.81283 3.52008H4.62032C3.52941 3.5518 2.59893 3.9482 1.82888 4.7093C1.05882 5.4704 0.673797 6.39006 0.673797 7.46829C0.673797 8.56237 1.06283 9.49392 1.84091 10.2629C2.61898 11.032 3.5615 11.4165 4.66845 11.4165Z" fill="#83B59F"/>
</svg>
