<svg width="29" height="18" viewBox="0 0 29 18" fill="none" xmlns="http://www.w3.org/2000/svg">
<path d="M14.5 18C13.0854 18 11.6838 17.9402 10.2954 17.8206C8.90696 17.7009 7.51852 17.5348 6.13008 17.3222C5.52755 17.2158 5.01671 16.9434 4.59756 16.5047C4.17841 16.0661 3.96883 15.5411 3.96883 14.9297V14.0525C2.78997 13.7601 1.83379 13.1354 1.10027 12.1785C0.366757 11.2215 0 10.1316 0 8.90886C0 7.71266 0.366757 6.63608 1.10027 5.67911C1.83379 4.72215 2.78997 4.08418 3.96883 3.76519V2.40949C3.96883 1.71835 4.2308 1.13354 4.75474 0.655063C5.27868 0.176582 5.88121 -0.036076 6.56233 0.0170886C7.08627 0.0702532 7.61021 0.136709 8.13415 0.216456C8.65809 0.296203 9.18202 0.349367 9.70596 0.375949C10.4919 0.429114 11.2843 0.468987 12.0833 0.49557C12.8823 0.522152 13.6879 0.535443 14.5 0.535443C15.1549 0.535443 15.8098 0.528797 16.4648 0.515506C17.1197 0.502215 17.7746 0.468987 18.4295 0.415823C19.1107 0.362658 19.7721 0.302848 20.414 0.236392C21.0558 0.169937 21.7173 0.0968354 22.3984 0.0170886C23.0795 -0.0626582 23.6886 0.136709 24.2256 0.61519C24.7626 1.09367 25.0312 1.69177 25.0312 2.40949V3.76519C26.21 4.08418 27.1662 4.72215 27.8997 5.67911C28.6332 6.63608 29 7.71266 29 8.90886C29 10.1316 28.6332 11.2215 27.8997 12.1785C27.1662 13.1354 26.21 13.7601 25.0312 14.0525V14.9297C25.0312 15.5411 24.815 16.0661 24.3828 16.5047C23.9505 16.9434 23.4332 17.2158 22.8306 17.3222C21.4422 17.5348 20.0603 17.7009 18.685 17.8206C17.3096 17.9402 15.9146 18 14.5 18ZM14.5 16.8835C15.8884 16.8835 17.2638 16.8237 18.626 16.7041C19.9883 16.5845 21.3636 16.4184 22.752 16.2057C23.0926 16.1525 23.3742 16.0063 23.5969 15.7671C23.8196 15.5278 23.9309 15.2487 23.9309 14.9297V2.32975C23.9309 1.95759 23.7934 1.63861 23.5183 1.37278C23.2432 1.10696 22.9223 1.00063 22.5556 1.0538C21.2195 1.26646 19.8769 1.4193 18.5278 1.51234C17.1786 1.60538 15.836 1.6519 14.5 1.6519C13.1378 1.6519 11.7821 1.60538 10.4329 1.51234C9.08379 1.4193 7.74119 1.26646 6.40515 1.0538C6.03839 1.00063 5.72403 1.10696 5.46206 1.37278C5.20009 1.63861 5.06911 1.95759 5.06911 2.32975V14.9297C5.06911 15.2487 5.17389 15.5278 5.38347 15.7671C5.59304 16.0063 5.86811 16.1525 6.20867 16.2057C7.59711 16.4184 8.97245 16.5845 10.3347 16.7041C11.6969 16.8237 13.0854 16.8835 14.5 16.8835ZM14.5 13.4544C15.6003 13.4544 16.6809 13.3946 17.7419 13.275C18.8028 13.1554 19.8704 12.9361 20.9444 12.6171C21.0754 12.5639 21.1802 12.4775 21.2588 12.3579C21.3374 12.2383 21.3505 12.0987 21.2981 11.9392C21.2457 11.8063 21.154 11.7 21.023 11.6203C20.8921 11.5405 20.7611 11.5272 20.6301 11.5804C19.6346 11.8728 18.6195 12.0722 17.5847 12.1785C16.5499 12.2848 15.5217 12.338 14.5 12.338C13.4521 12.338 12.4173 12.2782 11.3957 12.1585C10.374 12.0389 9.3654 11.8329 8.36992 11.5405C8.21274 11.4873 8.0752 11.5073 7.95732 11.6003C7.83943 11.6934 7.75429 11.8063 7.7019 11.9392C7.6495 12.0987 7.6626 12.2383 7.74119 12.3579C7.81978 12.4775 7.93767 12.5639 8.09485 12.6171C9.11653 12.9361 10.1644 13.1554 11.2385 13.275C12.3126 13.3946 13.3997 13.4544 14.5 13.4544ZM3.96883 12.8962V4.92152C3.10434 5.21392 2.41012 5.72563 1.88618 6.45665C1.36224 7.18766 1.10027 8.00506 1.10027 8.90886C1.10027 9.83924 1.36224 10.6633 1.88618 11.381C2.41012 12.0987 3.10434 12.6038 3.96883 12.8962ZM25.0312 12.8962C25.8695 12.6038 26.5571 12.0987 27.0942 11.381C27.6312 10.6633 27.8997 9.83924 27.8997 8.90886C27.8997 8.00506 27.6312 7.18766 27.0942 6.45665C26.5571 5.72563 25.8695 5.21392 25.0312 4.92152V12.8962ZM14.5 7.07468C15.6003 7.07468 16.6809 7.01487 17.7419 6.89525C18.8028 6.77563 19.8704 6.55633 20.9444 6.23734C21.0754 6.18418 21.1802 6.09778 21.2588 5.97816C21.3374 5.85854 21.3505 5.71899 21.2981 5.55949C21.2457 5.42658 21.154 5.32025 21.023 5.24051C20.8921 5.16076 20.7611 5.14747 20.6301 5.20063C19.6346 5.49304 18.6195 5.69241 17.5847 5.79873C16.5499 5.90506 15.5217 5.95823 14.5 5.95823C13.4521 5.95823 12.4173 5.89842 11.3957 5.7788C10.374 5.65918 9.3654 5.45316 8.36992 5.16076C8.21274 5.13418 8.0752 5.16076 7.95732 5.24051C7.83943 5.32025 7.75429 5.42658 7.7019 5.55949C7.6495 5.71899 7.65605 5.85854 7.72154 5.97816C7.78704 6.09778 7.89837 6.18418 8.05556 6.23734C9.10343 6.55633 10.1644 6.77563 11.2385 6.89525C12.3126 7.01487 13.3997 7.07468 14.5 7.07468Z" fill="#83B59F"/>
</svg>
