<svg width="16" height="18" viewBox="0 0 16 18" fill="none" xmlns="http://www.w3.org/2000/svg">
<path d="M2.43085 18C2.0288 18 1.63309 17.9235 1.24372 17.7704C0.854199 17.6173 0.507664 17.3878 0.204117 17.0816V17.0587C0.111337 16.9821 0.0494829 16.8788 0.0185561 16.7487C-0.0123707 16.6186 -0.00463902 16.4923 0.0417512 16.3699L4.40244 5.41837C4.49522 5.17347 4.64985 4.99362 4.86634 4.87883C5.08283 4.76403 5.32251 4.72959 5.58539 4.77551L6.67556 4.98214C7.03122 5.05867 7.38688 5.03571 7.74253 4.91327C8.09819 4.79082 8.392 4.60714 8.62395 4.36224C8.94868 4.05612 9.15357 3.71939 9.23862 3.35204C9.32367 2.98469 9.30434 2.625 9.18063 2.27296L9.11105 2.06633C9.04919 1.88265 9.04146 1.69898 9.08785 1.51531C9.13424 1.33163 9.22702 1.17092 9.36619 1.03316L10.062 0.321429C10.2785 0.107143 10.5298 0 10.8159 0C11.102 0 11.3532 0.107143 11.5697 0.321429L15.6985 4.47704C15.8995 4.67602 16 4.91709 16 5.20026C16 5.48342 15.8995 5.72449 15.6985 5.92347L15.1882 6.42857L15.6057 6.84184C15.6366 6.87245 15.6675 6.91018 15.6985 6.95503C15.7294 7.00003 15.7449 7.04648 15.7449 7.09439C15.7449 7.125 15.7333 7.16327 15.7101 7.20918C15.6869 7.2551 15.6598 7.29337 15.6289 7.32398C15.5516 7.3852 15.4704 7.41964 15.3853 7.4273C15.3003 7.43495 15.2191 7.40816 15.1418 7.34694L14.7243 6.91071L13.2166 8.42602L13.6341 8.81633C13.7114 8.89286 13.7501 8.96939 13.7501 9.04592C13.7501 9.12245 13.7191 9.19133 13.6573 9.25255C13.58 9.32908 13.4988 9.37117 13.4137 9.37883C13.3287 9.38648 13.2475 9.35204 13.1702 9.27551L12.7759 8.8852L9.3198 12.352L9.71412 12.7194C9.77597 12.7806 9.8069 12.8533 9.8069 12.9375C9.8069 13.0217 9.77597 13.0944 9.71412 13.1556C9.6368 13.2168 9.55562 13.2513 9.47057 13.2589C9.38552 13.2666 9.30434 13.2398 9.22702 13.1786L8.8791 12.8112L7.37141 14.3036L7.71934 14.648C7.79666 14.7245 7.83531 14.801 7.83531 14.8776C7.83531 14.9541 7.80439 15.023 7.74253 15.0842C7.66522 15.1607 7.58403 15.2028 7.49898 15.2105C7.41394 15.2181 7.33275 15.1837 7.25544 15.1071L6.90751 14.7628L5.42302 16.2781L5.74775 16.5995C5.82507 16.6607 5.86373 16.7334 5.86373 16.8176C5.86373 16.9018 5.83048 16.9758 5.76399 17.0396C5.69131 17.0982 5.61245 17.1314 5.5274 17.139C5.44235 17.1467 5.36117 17.1122 5.28385 17.0357L4.95912 16.7372L4.5648 17.1505C4.25553 17.426 3.92292 17.6365 3.56695 17.7819C3.21082 17.9273 2.83213 18 2.43085 18ZM1.7118 12.2143C1.7469 12.1361 1.77505 12.0668 1.79623 12.0065L1.82778 11.9158L1.59582 12.5128L1.63271 12.4221C1.65729 12.3618 1.68366 12.2925 1.7118 12.2143ZM2.61641 9.91837C2.65151 9.84015 2.67966 9.77089 2.70084 9.71059L2.73239 9.6199L2.50043 10.2168L2.53732 10.1261C2.5619 10.0658 2.58827 9.99658 2.61641 9.91837ZM3.51661 7.62429C3.55048 7.54653 3.57901 7.47704 3.6022 7.41582L3.637 7.32398L3.40504 7.92092L3.44053 7.83092C3.46419 7.77077 3.48955 7.70189 3.51661 7.62429ZM2.43085 17.3342C2.77104 17.3342 3.09191 17.2768 3.39345 17.162C3.69498 17.0472 3.96173 16.8673 4.19368 16.6224L15.5129 5.21173L10.8275 0.482143L9.69092 1.6301C9.87649 2.25765 9.94994 2.82015 9.91128 3.3176C9.87262 3.81505 9.60588 4.30867 9.11105 4.79847C8.78631 5.1352 8.40359 5.3801 7.96289 5.53316C7.52218 5.68622 7.06988 5.71684 6.60597 5.625L5.14468 5.32653L4.28646 7.48469L4.95912 7.73724C5.04015 7.77122 5.09906 7.82564 5.13587 7.90048C5.17267 7.97533 5.17561 8.04934 5.14468 8.1225C5.11375 8.2024 5.05576 8.26531 4.97072 8.31122C4.88567 8.35714 4.80448 8.3648 4.72717 8.33418L4.05451 8.08163L3.38185 9.78061L3.98492 10.0102C4.06224 10.0408 4.12409 10.0982 4.17048 10.1824C4.21687 10.2666 4.22461 10.3489 4.19368 10.4294C4.16275 10.5173 4.1009 10.5765 4.00812 10.6071C3.91534 10.6378 3.83029 10.6378 3.75297 10.6071L3.1499 10.3776L2.47724 12.0765L3.01073 12.2832C3.09176 12.3185 3.15067 12.3732 3.18747 12.4473C3.22428 12.5216 3.22722 12.5989 3.19629 12.6794C3.16536 12.7673 3.10737 12.8304 3.02233 12.8686C2.93728 12.9069 2.85609 12.9107 2.77878 12.8801L2.22209 12.6735L0.644825 16.6454L1.03914 16.898C1.25563 17.0357 1.47598 17.1429 1.7002 17.2194C1.92442 17.2959 2.16797 17.3342 2.43085 17.3342Z" fill="#83B59F"/>
</svg>
