<svg width="21" height="18" viewBox="0 0 21 18" fill="none" xmlns="http://www.w3.org/2000/svg">
<path d="M10.5 0C7.71624 0.00324776 5.04747 1.08176 3.07906 2.99897C1.11065 4.91617 0.0033345 7.51553 4.04266e-09 10.2269V15.9539C-2.40811e-05 16.332 0.107572 16.7028 0.310837 17.0249C0.514103 17.3471 0.80508 17.6081 1.15145 17.7789C1.49781 17.9497 1.88601 18.0236 2.27292 17.9925C2.65983 17.9613 3.03031 17.8263 3.3432 17.6025C4.6683 16.6698 6.98564 15.5448 10.5 15.5448C14.0143 15.5448 16.3317 16.6637 17.6568 17.6025C17.9716 17.828 18.3448 17.9634 18.7343 17.9936C19.1239 18.0237 19.5143 17.9474 19.8618 17.7733C20.2058 17.6023 20.4943 17.3417 20.6953 17.0205C20.8963 16.6993 21.0017 16.3301 21 15.9539V10.2269C20.9966 7.51553 19.8893 4.91617 17.9209 2.99897C15.9525 1.08176 13.2837 0.00324776 10.5 0ZM20.16 10.2269V11.8867C18.5991 10.8501 16.8721 10.0735 15.0496 9.58871C14.7407 6.40517 13.4957 3.37595 11.4639 0.86417C13.8461 1.09962 16.054 2.18732 17.6604 3.91682C19.2668 5.64632 20.1574 7.89468 20.16 10.2269ZM14.1855 9.38213C11.7564 8.87216 9.2436 8.87216 6.81449 9.38213C7.31219 5.00401 9.65999 1.97481 10.5 1.02269C11.34 1.97583 13.6878 5.00401 14.1855 9.38315V9.38213ZM9.53609 0.865193C7.50424 3.37697 6.25924 6.40619 5.95034 9.58973C4.1279 10.0746 2.4009 10.8511 0.839999 11.8877V10.2269C0.842842 7.89486 1.7336 5.64675 3.33994 3.91746C4.94628 2.18818 7.15403 1.10062 9.53609 0.865193ZM19.4754 17.0451C19.2672 17.1513 19.0325 17.198 18.7982 17.1799C18.564 17.1618 18.3397 17.0796 18.1513 16.9429C16.7254 15.9314 14.2401 14.7267 10.5 14.7267C6.75989 14.7267 4.27455 15.9304 2.84865 16.9408C2.66025 17.0776 2.43601 17.1598 2.20176 17.1779C1.96751 17.1959 1.73278 17.1492 1.5246 17.0431C1.31692 16.9425 1.14254 16.787 1.02145 16.5944C0.900366 16.4018 0.837477 16.1798 0.839999 15.9539V12.8859C3.6445 10.8911 7.02732 9.81617 10.5 9.81617C13.9727 9.81617 17.3555 10.8911 20.16 12.8859V15.9539C20.1629 16.1801 20.1002 16.4025 19.9791 16.5956C19.858 16.7886 19.6834 16.9444 19.4754 17.0451Z" fill="#83B59F"/>
</svg>
