<svg width="21" height="18" viewBox="0 0 21 18" fill="none" xmlns="http://www.w3.org/2000/svg">
<path d="M0 17.9461V17.1377C0.542781 17.0479 0.987299 16.8638 1.33356 16.5853C1.67981 16.3069 2.26471 16.1677 3.08824 16.1677C3.91176 16.1677 4.53877 16.3473 4.96925 16.7066C5.39973 17.0659 6.00802 17.2455 6.79412 17.2455C7.58021 17.2455 8.1885 17.0659 8.61898 16.7066C9.04947 16.3473 9.67647 16.1677 10.5 16.1677C11.3235 16.1677 11.9599 16.3473 12.4091 16.7066C12.8583 17.0659 13.4759 17.2455 14.262 17.2455C15.0481 17.2455 15.6471 17.0659 16.0588 16.7066C16.4706 16.3473 17.0882 16.1677 17.9118 16.1677C18.7353 16.1677 19.3202 16.3069 19.6664 16.5853C20.0127 16.8638 20.4572 17.0479 21 17.1377V17.9461C20.4572 17.8383 19.9846 17.6407 19.5822 17.3533C19.1798 17.0659 18.623 16.9222 17.9118 16.9222C17.2005 16.9222 16.639 17.1018 16.2273 17.4611C15.8155 17.8204 15.1604 18 14.262 18C13.3636 18 12.6898 17.8204 12.2406 17.4611C11.7914 17.1018 11.2112 16.9222 10.5 16.9222C9.78877 16.9222 9.21791 17.1018 8.78743 17.4611C8.35695 17.8204 7.69251 18 6.79412 18C5.89572 18 5.23128 17.8204 4.8008 17.4611C4.37032 17.1018 3.79947 16.9222 3.08824 16.9222C2.37701 16.9222 1.82019 17.0659 1.41778 17.3533C1.01537 17.6407 0.542781 17.8383 0 17.9461ZM0 13.0958V12.2874C0.542781 12.1976 0.987299 12.0135 1.33356 11.735C1.67981 11.4566 2.26471 11.3174 3.08824 11.3174C3.91176 11.3174 4.53877 11.497 4.96925 11.8563C5.39973 12.2156 6.00802 12.3952 6.79412 12.3952C7.58021 12.3952 8.1885 12.2156 8.61898 11.8563C9.04947 11.497 9.67647 11.3174 10.5 11.3174C11.3235 11.3174 11.9505 11.497 12.381 11.8563C12.8115 12.2156 13.4198 12.3952 14.2059 12.3952C14.992 12.3952 15.6003 12.2156 16.0307 11.8563C16.4612 11.497 17.0882 11.3174 17.9118 11.3174C18.7353 11.3174 19.3202 11.4566 19.6664 11.735C20.0127 12.0135 20.4572 12.1976 21 12.2874V13.0958C20.4572 12.988 19.9846 12.7904 19.5822 12.503C19.1798 12.2156 18.623 12.0719 17.9118 12.0719C17.2005 12.0719 16.639 12.2515 16.2273 12.6108C15.8155 12.9701 15.1604 13.1497 14.262 13.1497C13.3636 13.1497 12.6898 12.9701 12.2406 12.6108C11.7914 12.2515 11.2112 12.0719 10.5 12.0719C9.78877 12.0719 9.21791 12.2515 8.78743 12.6108C8.35695 12.9701 7.69251 13.1497 6.79412 13.1497C5.89572 13.1497 5.23128 12.9701 4.8008 12.6108C4.37032 12.2515 3.79947 12.0719 3.08824 12.0719C2.37701 12.0719 1.82019 12.2156 1.41778 12.503C1.01537 12.7904 0.542781 12.988 0 13.0958ZM6.06417 8.02994L9.65775 4.58084L7.74866 2.7485C7.14973 2.17365 6.5508 1.77395 5.95187 1.5494C5.35294 1.32485 4.58556 1.18563 3.64973 1.13174V0C4.75401 0.0538922 5.67112 0.215569 6.40107 0.48503C7.13102 0.754491 7.86096 1.23952 8.59091 1.94012L14.9358 8.02994C14.8422 8.11976 14.7393 8.18713 14.627 8.23204C14.5147 8.27695 14.3837 8.2994 14.234 8.2994C13.7848 8.2994 13.3028 8.11976 12.7881 7.76048C12.2734 7.4012 11.5107 7.22156 10.5 7.22156C9.4893 7.22156 8.7266 7.4012 8.2119 7.76048C7.69719 8.11976 7.21524 8.2994 6.76604 8.2994C6.61631 8.2994 6.48529 8.27695 6.37299 8.23204C6.2607 8.18713 6.15775 8.11976 6.06417 8.02994ZM16.9713 0.902695C17.4111 1.32485 17.631 1.83234 17.631 2.42515C17.631 3.01796 17.4111 3.52545 16.9713 3.9476C16.5314 4.36976 16.0027 4.58084 15.385 4.58084C14.7674 4.58084 14.2386 4.36976 13.7988 3.9476C13.359 3.52545 13.139 3.01796 13.139 2.42515C13.139 1.83234 13.359 1.32485 13.7988 0.902695C14.2386 0.480539 14.7674 0.269461 15.385 0.269461C16.0027 0.269461 16.5314 0.480539 16.9713 0.902695Z" fill="#83B59F"/>
</svg>
