<svg width="20" height="18" viewBox="0 0 20 18" fill="none" xmlns="http://www.w3.org/2000/svg">
<path d="M4.63218 5.23052L2.31945 6.54545C2.11007 6.66234 1.9102 6.69643 1.71985 6.64773C1.5295 6.59903 1.37723 6.46753 1.26302 6.25325L0.120927 4.20779C0.00671817 3.99351 -0.0265928 3.78409 0.0209943 3.57955C0.0685813 3.375 0.197066 3.21429 0.406449 3.0974L5.48875 0H6.68794C6.91636 0 7.09719 0.0681818 7.23043 0.204545C7.36368 0.340909 7.4303 0.525974 7.4303 0.75974V0.876623C7.4303 1.57792 7.68727 2.19156 8.20121 2.71753C8.71515 3.24351 9.31475 3.50649 10 3.50649C10.6853 3.50649 11.2849 3.24351 11.7988 2.71753C12.3127 2.19156 12.5697 1.57792 12.5697 0.876623V0.75974C12.5697 0.525974 12.6363 0.340909 12.7696 0.204545C12.9028 0.0681818 13.0836 0 13.3121 0H14.5113L19.5936 3.0974C19.8029 3.21429 19.9314 3.375 19.979 3.57955C20.0266 3.78409 19.9933 3.99351 19.8791 4.20779L18.737 6.25325C18.6228 6.46753 18.4705 6.59903 18.2801 6.64773C18.0898 6.69643 17.8899 6.66234 17.6806 6.54545L15.3678 5.23052V17.1818C15.3678 17.4156 15.2917 17.6104 15.1394 17.7662C14.9871 17.9221 14.7968 18 14.5684 18H5.43164C5.20322 18 5.01288 17.9221 4.8606 17.7662C4.70832 17.6104 4.63218 17.4156 4.63218 17.1818V5.23052ZM5.43164 3.85714V17.1818H14.5684V3.85714L18.0517 5.81493L19.1938 3.7987L14.3114 0.818182H13.3692C13.3692 1.79221 13.0456 2.62013 12.3984 3.30195C11.7512 3.98377 10.9517 4.32468 10 4.32468C9.04826 4.32468 8.2488 3.98377 7.60161 3.30195C6.95443 2.62013 6.63084 1.79221 6.63084 0.818182H5.68861L0.806181 3.7987L1.94827 5.81493L5.43164 3.85714Z" fill="#83B59F"/>
</svg>
