<svg width="16" height="18" viewBox="0 0 16 18" fill="none" xmlns="http://www.w3.org/2000/svg">
<path d="M14.8571 1.5H12.7295L11.3171 0.109688C11.2817 0.0748747 11.2397 0.0472694 11.1935 0.0284489C11.1472 0.00962834 11.0977 -3.86197e-05 11.0476 1.1595e-07H4.95238C4.90234 -3.86197e-05 4.85278 0.00962834 4.80653 0.0284489C4.76029 0.0472694 4.71826 0.0748747 4.68286 0.109688L3.27048 1.5H1.14286C0.839753 1.5 0.549062 1.61853 0.334735 1.8295C0.120408 2.04048 0 2.32663 0 2.625V16.875C0 17.1734 0.120408 17.4595 0.334735 17.6705C0.549062 17.8815 0.839753 18 1.14286 18H14.8571C15.1602 18 15.4509 17.8815 15.6653 17.6705C15.8796 17.4595 16 17.1734 16 16.875V2.625C16 2.32663 15.8796 2.04048 15.6653 1.8295C15.4509 1.61853 15.1602 1.5 14.8571 1.5ZM8 4.19906L5.66381 0.75H10.3362L8 4.19906ZM11.1067 0.96375L12.1905 2.03063V7.125C12.1906 7.19636 12.1701 7.26629 12.1313 7.32657C12.0925 7.38685 12.0371 7.43498 11.9714 7.46531C11.9069 7.49592 11.8349 7.50769 11.7638 7.49921C11.6928 7.49074 11.6257 7.46238 11.5705 7.4175L8.50381 4.80938L11.1067 0.96375ZM3.80952 2.03063L4.89333 0.96375L7.49619 4.8075L4.43238 7.41375C4.37668 7.45882 4.30912 7.48741 4.23757 7.49618C4.16601 7.50496 4.0934 7.49356 4.02816 7.46332C3.96293 7.43308 3.90775 7.38523 3.86905 7.32534C3.83035 7.26545 3.8097 7.19598 3.80952 7.125V2.03063ZM0.761905 16.875V2.625C0.761905 2.52554 0.802041 2.43016 0.873483 2.35984C0.944926 2.28951 1.04182 2.25 1.14286 2.25H3.04762V7.125C3.04628 7.33914 3.10764 7.54913 3.22434 7.72985C3.34105 7.91057 3.50817 8.05437 3.70571 8.14406C3.85754 8.21369 4.02298 8.24984 4.19048 8.25C4.45717 8.24976 4.71521 8.15679 4.91905 7.9875H4.92476L7.61905 5.69437V17.25H1.14286C1.04182 17.25 0.944926 17.2105 0.873483 17.1402C0.802041 17.0698 0.761905 16.9745 0.761905 16.875ZM15.2381 16.875C15.2381 16.9745 15.198 17.0698 15.1265 17.1402C15.0551 17.2105 14.9582 17.25 14.8571 17.25H8.38095V5.69437L11.0781 7.9875C11.2828 8.15727 11.5419 8.25026 11.8095 8.25C11.9781 8.24967 12.1446 8.21286 12.2971 8.14219C12.4939 8.05222 12.6602 7.90853 12.7763 7.72821C12.8925 7.54789 12.9536 7.33852 12.9524 7.125V2.25H14.8571C14.9582 2.25 15.0551 2.28951 15.1265 2.35984C15.198 2.43016 15.2381 2.52554 15.2381 2.625V16.875Z" fill="#83B59F"/>
</svg>
