<svg width="20" height="18" viewBox="0 0 20 18" fill="none" xmlns="http://www.w3.org/2000/svg">
<path d="M18.8505 7.76048V16.3832C18.8505 16.8503 18.7004 17.2365 18.4001 17.5419C18.0998 17.8473 17.7199 18 17.2606 18H2.73937C2.28006 18 1.90025 17.8473 1.59993 17.5419C1.29961 17.2365 1.14945 16.8503 1.14945 16.3832V7.70659C0.690142 7.38323 0.358909 6.95659 0.155753 6.42665C-0.0474031 5.89671 -0.0518196 5.33533 0.142504 4.74251L1.14945 1.34731C1.29078 0.916168 1.5116 0.583832 1.81192 0.350299C2.11224 0.116766 2.49205 0 2.95136 0H16.9956C17.455 0 17.8348 0.107784 18.1351 0.323353C18.4354 0.538922 18.6562 0.862275 18.7976 1.29341L19.8575 4.74251C20.0518 5.33533 20.0474 5.90569 19.8442 6.45359C19.6411 7.0015 19.3099 7.43713 18.8505 7.76048ZM12.3319 7.54491C13.0738 7.54491 13.6259 7.34281 13.988 6.93862C14.3502 6.53443 14.5048 6.12575 14.4518 5.71257L13.7098 0.754491H10.371V5.44311C10.371 6.01796 10.5653 6.51198 10.954 6.92515C11.3426 7.33832 11.8019 7.54491 12.3319 7.54491ZM7.56212 7.54491C8.18043 7.54491 8.67948 7.33832 9.0593 6.92515C9.43911 6.51198 9.62902 6.01796 9.62902 5.44311V0.754491H6.29019L5.54823 5.82036C5.5129 6.12575 5.67189 6.48952 6.0252 6.91168C6.37852 7.33383 6.89083 7.54491 7.56212 7.54491ZM2.84537 7.54491C3.35767 7.54491 3.79048 7.36976 4.1438 7.01946C4.49711 6.66916 4.71794 6.23353 4.80627 5.71257L5.49523 0.754491H2.95136C2.65104 0.754491 2.41255 0.821856 2.2359 0.956587C2.05924 1.09132 1.92675 1.29341 1.83842 1.56287L0.884466 4.90419C0.690142 5.53293 0.769638 6.13024 1.12295 6.69611C1.47627 7.26198 2.05041 7.54491 2.84537 7.54491ZM17.1546 7.54491C17.8259 7.54491 18.3736 7.27994 18.7976 6.75C19.2215 6.22006 19.3275 5.60479 19.1155 4.90419L18.1086 1.50898C18.0203 1.23952 17.8878 1.04641 17.7111 0.929641C17.5344 0.812874 17.296 0.754491 16.9956 0.754491H14.5048L15.1937 5.71257C15.2821 6.23353 15.5029 6.66916 15.8562 7.01946C16.2095 7.36976 16.6423 7.54491 17.1546 7.54491ZM2.73937 17.2455H17.2606C17.508 17.2455 17.7111 17.1647 17.8701 17.003C18.0291 16.8413 18.1086 16.6347 18.1086 16.3832V8.13772C17.9496 8.19162 17.7906 8.23204 17.6316 8.25898C17.4726 8.28593 17.3136 8.2994 17.1546 8.2994C16.6777 8.2994 16.2581 8.2006 15.8959 8.00299C15.5338 7.80539 15.1937 7.49102 14.8758 7.05988C14.6108 7.41916 14.2751 7.71557 13.8688 7.9491C13.4625 8.18263 12.9502 8.2994 12.3319 8.2994C11.9256 8.2994 11.5369 8.19611 11.1659 7.98952C10.795 7.78293 10.4063 7.47305 10 7.05988C9.62902 7.47305 9.22271 7.78293 8.78106 7.98952C8.33942 8.19611 7.93311 8.2994 7.56212 8.2994C7.13815 8.2994 6.71417 8.21407 6.29019 8.04341C5.86621 7.87275 5.49523 7.54491 5.17725 7.05988C4.61194 7.63473 4.13055 7.98503 3.73307 8.11078C3.33559 8.23653 3.03969 8.2994 2.84537 8.2994C2.68637 8.2994 2.52738 8.28593 2.36839 8.25898C2.2094 8.23204 2.05041 8.19162 1.89141 8.13772V16.3832C1.89141 16.6347 1.97091 16.8413 2.1299 17.003C2.28889 17.1647 2.49205 17.2455 2.73937 17.2455Z" fill="#83B59F"/>
</svg>
