<svg width="12" height="20" viewBox="0 0 12 20" fill="none" xmlns="http://www.w3.org/2000/svg">
<path d="M5.56701 19.4227V16.9485H3.09278V16.0825H5.56701V12C4 11.8557 2.68041 11.2113 1.60825 10.067C0.536082 8.92268 0 7.56701 0 6C0 4.33031 0.582474 2.91289 1.74742 1.74773C2.91237 0.582578 4.3299 0 6 0C7.6701 0 9.08763 0.582578 10.2526 1.74773C11.4175 2.91289 12 4.33031 12 6C12 7.56701 11.4639 8.92268 10.3918 10.067C9.31959 11.2113 8 11.8557 6.43299 12V16.0825H8.90722V16.9485H6.43299V19.4227H5.56701ZM9.63402 9.62907C10.634 8.62577 11.134 7.41443 11.134 5.99505C11.134 4.57567 10.6324 3.36598 9.62907 2.36598C8.62577 1.36598 7.41443 0.865979 5.99505 0.865979C4.57567 0.865979 3.36598 1.36763 2.36598 2.37093C1.36598 3.37423 0.865979 4.58557 0.865979 6.00495C0.865979 7.42433 1.36763 8.63402 2.37093 9.63402C3.37423 10.634 4.58557 11.134 6.00495 11.134C7.42433 11.134 8.63402 10.6324 9.63402 9.62907Z" fill="#83B59F"/>
</svg>
