<svg width="17" height="18" viewBox="0 0 17 18" fill="none" xmlns="http://www.w3.org/2000/svg">
<path d="M16.9914 16.7859L14.9589 0.9459C14.9253 0.684683 14.795 0.4444 14.5924 0.270215C14.3897 0.0960294 14.1288 -6.27869e-05 13.8585 3.07795e-08H3.14147C2.87123 -6.27869e-05 2.61027 0.0960294 2.40765 0.270215C2.20502 0.4444 2.07468 0.684683 2.04112 0.9459L0.00857958 16.7859C-0.0109439 16.9379 0.00294302 17.0922 0.0493181 17.2385C0.0956932 17.3849 0.173496 17.52 0.277561 17.6348C0.381626 17.7496 0.509573 17.8416 0.652909 17.9045C0.796245 17.9675 0.95169 18 1.10893 18H4.86821C5.11507 18.0001 5.3549 17.92 5.5497 17.7723C5.74451 17.6246 5.88313 17.4177 5.94361 17.1846L8.5 7.56L11.0564 17.1846C11.1169 17.4177 11.2555 17.6246 11.4503 17.7723C11.6451 17.92 11.8849 18.0001 12.1318 18H15.8911C16.0483 18 16.2038 17.9675 16.3471 17.9045C16.4904 17.8416 16.6184 17.7496 16.7224 17.6348C16.8265 17.52 16.9043 17.3849 16.9507 17.2385C16.9971 17.0922 17.0109 16.9379 16.9914 16.7859ZM14.9228 6.471C14.1464 6.41865 13.4133 6.10267 12.8513 5.57808C12.2893 5.05348 11.934 4.3535 11.8472 3.6H14.5542L14.9228 6.471ZM3.14147 0.72H13.8585C13.949 0.719309 14.0367 0.750999 14.1048 0.809061C14.1729 0.867123 14.2168 0.947519 14.2281 1.035L14.4618 2.88H2.53817L2.77192 1.035C2.78323 0.947519 2.8271 0.867123 2.89522 0.809061C2.96334 0.750999 3.05096 0.719309 3.14147 0.72ZM2.44579 3.6H5.15277C5.06598 4.3535 4.71066 5.05348 4.14868 5.57808C3.5867 6.10267 2.85365 6.41865 2.07716 6.471L2.44579 3.6ZM5.22668 17.01C5.20617 17.0874 5.15981 17.1559 5.09491 17.2048C5.03 17.2537 4.95025 17.2801 4.86821 17.28H1.10893C1.05625 17.2804 1.0041 17.2698 0.95596 17.249C0.907822 17.2282 0.864814 17.1975 0.829818 17.1592C0.794822 17.1208 0.768647 17.0756 0.753048 17.0266C0.737449 16.9776 0.732786 16.9259 0.739372 16.875L1.98384 7.2C2.97395 7.16657 3.91754 6.78247 4.63768 6.11971C5.35783 5.45695 5.80508 4.56105 5.89557 3.6H8.13045V6.0741L5.22668 17.01ZM16.1682 17.1585C16.1335 17.1967 16.0909 17.2273 16.0431 17.2483C15.9953 17.2692 15.9435 17.28 15.8911 17.28H12.1318C12.0488 17.28 11.9683 17.2529 11.9031 17.2029C11.8379 17.153 11.7919 17.0831 11.7724 17.0046L8.86955 6.0741V3.6H11.1044C11.1949 4.56105 11.6422 5.45695 12.3623 6.11971C13.0825 6.78247 14.0261 7.16657 15.0162 7.2L16.2606 16.875C16.2669 16.9259 16.2618 16.9776 16.2459 17.0265C16.23 17.0754 16.2035 17.1204 16.1682 17.1585Z" fill="#83B59F"/>
</svg>
