<svg width="17" height="18" viewBox="0 0 17 18" fill="none" xmlns="http://www.w3.org/2000/svg">
<path d="M0.66948 0.671105V6.83089V6.80692V16.0107V0.671105ZM1.4346 16.6818C1.02016 16.6818 0.67745 16.5459 0.40647 16.2743C0.13549 16.0027 0 15.6591 0 15.2437V1.43808C0 1.02264 0.13549 0.679095 0.40647 0.407457C0.67745 0.135819 1.02016 0 1.4346 0H8.94233L12.8158 3.88282V6.92676C12.7042 6.89481 12.5926 6.87483 12.481 6.86684C12.3694 6.85885 12.2579 6.84687 12.1463 6.83089V4.21838H8.60759V0.671105H1.4346C1.24332 0.671105 1.06798 0.750999 0.908579 0.910786C0.74918 1.07057 0.66948 1.24634 0.66948 1.43808V15.2437C0.66948 15.4354 0.74918 15.6112 0.908579 15.771C1.06798 15.9308 1.24332 16.0107 1.4346 16.0107H6.88608C6.96578 16.1385 7.05345 16.2543 7.14909 16.3582C7.24473 16.4621 7.34037 16.5699 7.43601 16.6818H1.4346ZM13.6406 14.6325C14.1746 14.0972 14.4416 13.4381 14.4416 12.6551C14.4416 11.8722 14.1746 11.213 13.6406 10.6778C13.1067 10.1425 12.4491 9.87483 11.6681 9.87483C10.887 9.87483 10.2295 10.1425 9.6955 10.6778C9.16151 11.213 8.89451 11.8722 8.89451 12.6551C8.89451 13.4381 9.16151 14.0972 9.6955 14.6325C10.2295 15.1678 10.887 15.4354 11.6681 15.4354C12.4491 15.4354 13.1067 15.1678 13.6406 14.6325ZM16.5457 18L13.8678 15.3156C13.5649 15.5712 13.2262 15.767 12.8516 15.9028C12.477 16.0386 12.0825 16.1065 11.6681 16.1065C10.7117 16.1065 9.89873 15.771 9.22925 15.0999C8.55977 14.4288 8.22504 13.6138 8.22504 12.6551C8.22504 11.6964 8.55977 10.8815 9.22925 10.2104C9.89873 9.53928 10.7117 9.20373 11.6681 9.20373C12.6245 9.20373 13.4374 9.53928 14.1069 10.2104C14.7764 10.8815 15.1111 11.6964 15.1111 12.6551C15.1111 13.0706 15.0434 13.466 14.9079 13.8415C14.7724 14.217 14.5771 14.5566 14.3221 14.8602L17 17.5446L16.5457 18Z" fill="#83B59F"/>
</svg>
