<svg width="20" height="18" viewBox="0 0 20 18" fill="none" xmlns="http://www.w3.org/2000/svg">
<path d="M9.62677 17.2738C9.78121 17.2738 9.93994 17.2392 10.103 17.17C10.266 17.1009 10.399 17.0144 10.5019 16.9107L18.4041 8.94813C18.6787 8.67147 18.8932 8.39481 19.0476 8.11816C19.2021 7.8415 19.2793 7.53026 19.2793 7.18444C19.2793 6.83862 19.2021 6.50144 19.0476 6.17291C18.8932 5.84438 18.6787 5.54179 18.4041 5.26513L14.6976 1.53026C14.423 1.2536 14.1484 1.05043 13.8739 0.920749C13.5993 0.791066 13.2904 0.726225 12.9472 0.726225C12.604 0.726225 12.2909 0.791066 12.0077 0.920749C11.7246 1.05043 11.4543 1.2536 11.1969 1.53026L10.1158 2.6196L12.0206 4.5389C12.2094 4.72911 12.3509 4.94525 12.4453 5.18732C12.5397 5.42939 12.5869 5.67147 12.5869 5.91354C12.5869 6.39769 12.4324 6.79539 12.1236 7.10663C11.8147 7.41787 11.42 7.57349 10.9395 7.57349C10.6993 7.57349 10.4633 7.53891 10.2317 7.46974C10 7.40058 9.78979 7.27089 9.60103 7.08069L7.61905 5.08357L3.19176 9.54467C3.07164 9.66571 2.98155 9.80403 2.92149 9.95965C2.86143 10.1153 2.8314 10.2709 2.8314 10.4265C2.8314 10.7032 2.9172 10.928 3.0888 11.1009C3.2604 11.2738 3.48348 11.3602 3.75804 11.3602C3.91248 11.3602 4.07121 11.3256 4.23423 11.2565C4.39725 11.1873 4.53024 11.1009 4.6332 10.9971L7.82497 7.78098L8.33977 8.29971L5.14801 11.5159C5.02788 11.6369 4.93779 11.7752 4.87773 11.9308C4.81767 12.0865 4.78764 12.2421 4.78764 12.3977C4.78764 12.6571 4.87773 12.8775 5.05792 13.0591C5.2381 13.2406 5.45689 13.3314 5.71429 13.3314C5.86873 13.3314 6.02746 13.2968 6.19048 13.2277C6.3535 13.1585 6.48649 13.072 6.58945 12.9683L10.0901 9.44092L10.6049 9.95965L7.10425 13.487C7.00129 13.5908 6.91549 13.7248 6.84685 13.889C6.77821 14.0533 6.74389 14.2133 6.74389 14.3689C6.74389 14.6282 6.83398 14.8487 7.01416 15.0303C7.19434 15.2118 7.41313 15.3026 7.67053 15.3026C7.82497 15.3026 7.97941 15.2723 8.13385 15.2118C8.28829 15.1513 8.42557 15.0605 8.54569 14.9395L12.0463 11.4121L12.5611 11.9308L9.06049 15.4582C8.94037 15.5793 8.85028 15.7262 8.79022 15.8991C8.73016 16.072 8.70013 16.2277 8.70013 16.366C8.70013 16.6427 8.79451 16.8631 8.98327 17.0274C9.17203 17.1916 9.38653 17.2738 9.62677 17.2738ZM9.62677 18C9.12913 18 8.70871 17.8098 8.36551 17.4294C8.02231 17.049 7.89361 16.5821 7.97941 16.0288C7.39597 16.0634 6.9112 15.9078 6.5251 15.562C6.139 15.2161 5.97169 14.7147 6.02317 14.0576C5.37109 14.0922 4.86486 13.928 4.5045 13.5648C4.14414 13.2017 3.99828 12.7089 4.06692 12.0865C3.5178 12.121 3.05448 11.9957 2.67696 11.7104C2.29944 11.4251 2.11068 10.9971 2.11068 10.4265C2.11068 10.1844 2.15787 9.93804 2.25225 9.68732C2.34663 9.4366 2.4882 9.21614 2.67696 9.02594L7.61905 4.04611L10.0643 6.51009C10.1673 6.61383 10.2917 6.70029 10.4376 6.76945C10.5834 6.83862 10.7508 6.8732 10.9395 6.8732C11.1798 6.8732 11.3943 6.78674 11.583 6.61383C11.7718 6.44092 11.8662 6.21614 11.8662 5.93948C11.8662 5.74928 11.8318 5.58069 11.7632 5.43372C11.6946 5.28674 11.6088 5.16138 11.5058 5.05764L8.00515 1.53026C7.73059 1.2536 7.45174 1.05043 7.1686 0.920749C6.88546 0.791066 6.57229 0.726225 6.22909 0.726225C5.88589 0.726225 5.5813 0.791066 5.31532 0.920749C5.04934 1.05043 4.77906 1.2536 4.5045 1.53026L1.51866 4.5389C1.27842 4.78098 1.08537 5.07061 0.939511 5.40778C0.793651 5.74496 0.720721 6.0951 0.720721 6.45821C0.720721 6.70029 0.746461 6.92939 0.797941 7.14553C0.849421 7.36167 0.926641 7.56484 1.0296 7.75504L0.46332 8.32565C0.32604 8.08357 0.2145 7.79827 0.1287 7.46974C0.0429 7.14121 0 6.80403 0 6.45821C0 5.99135 0.0858001 5.54611 0.2574 5.12248C0.429 4.69885 0.677821 4.32277 1.00386 3.99424L3.96396 1.01153C4.30716 0.665706 4.66323 0.410663 5.03217 0.246398C5.40112 0.0821326 5.80867 0 6.25483 0C6.70099 0 7.10425 0.0821326 7.46461 0.246398C7.82497 0.410663 8.17675 0.665706 8.51995 1.01153L9.60103 2.10086L10.6821 1.01153C11.0253 0.665706 11.3771 0.410663 11.7375 0.246398C12.0978 0.0821326 12.5011 0 12.9472 0C13.3934 0 13.8009 0.0821326 14.1699 0.246398C14.5388 0.410663 14.8949 0.665706 15.2381 1.01153L18.9189 4.72046C19.2621 5.06628 19.5281 5.45101 19.7169 5.87464C19.9056 6.29827 20 6.73487 20 7.18444C20 7.63401 19.9056 8.04035 19.7169 8.40346C19.5281 8.76657 19.2621 9.12104 18.9189 9.46686L11.0167 17.4294C10.8108 17.6369 10.592 17.7839 10.3604 17.8703C10.1287 17.9568 9.88417 18 9.62677 18Z" fill="#83B59F"/>
</svg>
