<svg width="25" height="18" viewBox="0 0 25 18" fill="none" xmlns="http://www.w3.org/2000/svg">
<path d="M0 18L3.53464 11.1425C3.70545 10.8112 3.94205 10.5504 4.24444 10.3601C4.54662 10.1698 4.88562 10.0746 5.26144 10.0746C5.6536 10.0746 6.01416 10.1795 6.34314 10.3893C6.67211 10.5993 6.91068 10.8974 7.05882 11.2836L7.67974 12.7612C7.87582 13.1866 8.23595 13.3817 8.76013 13.3465C9.28453 13.3114 9.62157 13.0827 9.77124 12.6604L12.4837 3.89552C12.7451 3.06716 13.2244 2.41231 13.9216 1.93097C14.6187 1.44963 15.3854 1.20896 16.2216 1.20896C17.0412 1.20896 17.7996 1.44403 18.4967 1.91418C19.1939 2.38433 19.6732 3.02239 19.9346 3.82836L25 18H24.0523L19.0523 4.1306C18.8562 3.50373 18.4913 3.01679 17.9575 2.66978C17.4237 2.32276 16.841 2.14925 16.2092 2.14925C15.5773 2.14925 14.9946 2.32836 14.4608 2.68657C13.927 3.04478 13.5621 3.53731 13.366 4.16418L10.6536 12.9291C10.5011 13.3545 10.2505 13.6959 9.90196 13.9534C9.55338 14.2108 9.15697 14.3396 8.71275 14.3396C8.31296 14.3396 7.94281 14.2332 7.60229 14.0205C7.26177 13.8078 7.00436 13.5112 6.83007 13.1306L6.14379 11.4515C5.9695 11.0709 5.66993 10.875 5.2451 10.8638C4.82026 10.8526 4.5098 11.0373 4.31373 11.4179L0.980392 18H0ZM5.45556 6.1791C4.62898 6.1791 3.91612 5.87519 3.31699 5.26735C2.71787 4.65974 2.4183 3.93649 2.4183 3.09761C2.4183 2.24149 2.71787 1.51119 3.31699 0.906716C3.91612 0.302239 4.62898 0 5.45556 0C6.28214 0 6.98475 0.301343 7.5634 0.904029C8.14205 1.50694 8.43137 2.23892 8.43137 3.09996C8.43137 3.94377 8.14205 4.66791 7.5634 5.27239C6.98475 5.87687 6.28214 6.1791 5.45556 6.1791ZM5.45229 5.23881C6.03704 5.23881 6.52723 5.02612 6.92288 4.60075C7.31852 4.17537 7.51634 3.66604 7.51634 3.07276C7.51634 2.47948 7.31852 1.97575 6.92288 1.56157C6.52723 1.14739 6.03704 0.940299 5.45229 0.940299C4.86754 0.940299 4.36819 1.14627 3.95425 1.55821C3.54031 1.97015 3.33333 2.4806 3.33333 3.08955C3.33333 3.67164 3.54031 4.17537 3.95425 4.60075C4.36819 5.02612 4.86754 5.23881 5.45229 5.23881Z" fill="#83B59F"/>
</svg>
