<svg width="16" height="18" viewBox="0 0 16 18" fill="none" xmlns="http://www.w3.org/2000/svg">
<path d="M2.07792 18C1.50078 18 1.01013 17.8039 0.605974 17.4116C0.201991 17.0194 0 16.5431 0 15.9828V2.06897C0 1.49431 0.201991 1.00578 0.605974 0.603363C1.01013 0.201121 1.50078 0 2.07792 0H12.6753V14.6897H2.07792C1.71429 14.6897 1.39827 14.8131 1.12987 15.06C0.861472 15.3071 0.727273 15.6131 0.727273 15.9781C0.727273 16.3433 0.861472 16.6509 1.12987 16.9009C1.39827 17.1509 1.71429 17.2759 2.07792 17.2759H15.2727V2.06897H16V18H2.07792ZM4.05195 13.9655H11.9481V0.724138H4.05195V13.9655ZM3.32468 13.9655V0.724138H2.07792C1.69524 0.724138 1.37446 0.857759 1.11558 1.125C0.85671 1.39224 0.727273 1.7069 0.727273 2.06897V14.4569C0.917749 14.319 1.12537 14.2026 1.35013 14.1078C1.57506 14.0129 1.81766 13.9655 2.07792 13.9655H3.32468Z" fill="#83B59F"/>
</svg>
