<svg width="18" height="18" viewBox="0 0 18 18" fill="none" xmlns="http://www.w3.org/2000/svg">
<path d="M11.7931 14.8966V17.2759C11.7931 17.4655 11.7198 17.6336 11.5733 17.7802C11.4267 17.9267 11.2586 18 11.069 18H0.724138C0.534483 18 0.366379 17.9267 0.219828 17.7802C0.0732759 17.6336 0 17.4655 0 17.2759V11.069C0 10.8793 0.0732759 10.7112 0.219828 10.5647C0.366379 10.4181 0.534483 10.3448 0.724138 10.3448H4.13793V4.86207C4.13793 3.51724 4.61207 2.37069 5.56035 1.42241C6.50862 0.474138 7.65517 0 9 0H13.1379C14.4828 0 15.6293 0.474138 16.5776 1.42241C17.5259 2.37069 18 3.51724 18 4.86207V18H17.2759V14.8966H11.7931ZM11.7931 14.1724H17.2759V4.86207C17.2759 3.72414 16.8707 2.75 16.0603 1.93966C15.25 1.12931 14.2759 0.724138 13.1379 0.724138H9C7.86207 0.724138 6.88793 1.12931 6.07759 1.93966C5.26724 2.75 4.86207 3.72414 4.86207 4.86207V10.3448H11.069C11.2586 10.3448 11.4267 10.4181 11.5733 10.5647C11.7198 10.7112 11.7931 10.8793 11.7931 11.069V14.1724ZM7.60345 6.25862V5.53448H14.5345V6.25862H7.60345ZM5.89655 14.0172L11.069 11.069H0.724138L5.89655 14.0172ZM5.89655 14.8448L0.724138 11.8966V17.2759H11.069V11.8966L5.89655 14.8448Z" fill="#83B59F"/>
</svg>
