<svg width="19" height="18" viewBox="0 0 19 18" fill="none" xmlns="http://www.w3.org/2000/svg">
<path d="M14.2799 4.56164V0.863014H4.72013V4.56164H3.88365V0H15.1164V4.56164H14.2799ZM16.0723 8.50685C16.4109 8.50685 16.6947 8.3887 16.9237 8.1524C17.1528 7.9161 17.2673 7.62329 17.2673 7.27397C17.2673 6.92466 17.1528 6.63185 16.9237 6.39555C16.6947 6.15925 16.4109 6.0411 16.0723 6.0411C15.7338 6.0411 15.4499 6.15925 15.2209 6.39555C14.9919 6.63185 14.8774 6.92466 14.8774 7.27397C14.8774 7.62329 14.9919 7.9161 15.2209 8.1524C15.4499 8.3887 15.7338 8.50685 16.0723 8.50685ZM14.2799 17.137V11.3425H4.72013V17.137H14.2799ZM15.1164 18H3.88365V13.0685H0V6.65753C0 6.0637 0.194182 5.56592 0.582547 5.16421C0.970912 4.7625 1.45388 4.56164 2.03145 4.56164H16.9686C17.5441 4.56164 18.0266 4.7625 18.416 5.16421C18.8053 5.56592 19 6.0637 19 6.65753V13.0685H15.1164V18ZM18.1635 12.2055V6.65753C18.1635 6.30822 18.049 6.01541 17.82 5.77911C17.5909 5.54281 17.3071 5.42466 16.9686 5.42466H2.03145C1.69287 5.42466 1.40907 5.54281 1.18003 5.77911C0.950996 6.01541 0.836478 6.30822 0.836478 6.65753V12.2055H3.88365V10.4795H15.1164V12.2055H18.1635Z" fill="#83B59F"/>
</svg>
