<svg width="21" height="18" viewBox="0 0 21 18" fill="none" xmlns="http://www.w3.org/2000/svg">
<path d="M0 18V12C0 11.383 0.214623 10.867 0.643868 10.4521C1.07311 10.0372 1.60692 9.82979 2.24528 9.82979H4.29245V0H16.7075V9.82979H18.7547C19.3931 9.82979 19.9269 10.0372 20.3561 10.4521C20.7854 10.867 21 11.383 21 12V18H0ZM5.21698 9.82979H15.783V0.893617H5.21698V9.82979ZM0.924528 17.1064H20.0755V12C20.0755 11.6383 19.9489 11.3351 19.6958 11.0904C19.4426 10.8457 19.1289 10.7234 18.7547 10.7234H2.24528C1.87107 10.7234 1.55739 10.8457 1.30425 11.0904C1.0511 11.3351 0.924528 11.6383 0.924528 12V17.1064ZM17.7642 13.9149C18.1384 13.9149 18.452 13.7926 18.7052 13.5479C18.9583 13.3032 19.0849 13 19.0849 12.6383C19.0849 12.2766 18.9583 11.9734 18.7052 11.7287C18.452 11.484 18.1384 11.3617 17.7642 11.3617C17.3899 11.3617 17.0763 11.484 16.8231 11.7287C16.57 11.9734 16.4434 12.2766 16.4434 12.6383C16.4434 13 16.57 13.3032 16.8231 13.5479C17.0763 13.7926 17.3899 13.9149 17.7642 13.9149Z" fill="#83B59F"/>
</svg>
