<svg width="22" height="18" viewBox="0 0 22 18" fill="none" xmlns="http://www.w3.org/2000/svg">
<path d="M20.1034 9.34737H1.89655C1.375 9.34737 0.928573 9.16179 0.55727 8.79063C0.185757 8.41968 0 7.97368 0 7.45263V1.89474C0 1.37368 0.185757 0.927579 0.55727 0.556421C0.928573 0.185474 1.375 0 1.89655 0H20.1034C20.625 0 21.0715 0.185474 21.443 0.556421C21.8143 0.927579 22 1.37368 22 1.89474V7.45263C22 7.97368 21.8143 8.41968 21.443 8.79063C21.0715 9.16179 20.625 9.34737 20.1034 9.34737ZM1.7069 16.6737V15.7579C2.73946 15.7579 3.61925 15.3986 4.34626 14.6801C5.07328 13.9618 5.43678 13.0895 5.43678 12.0632H6.35345C6.35345 13.3474 5.90038 14.4368 4.99425 15.3316C4.08833 16.2263 2.99255 16.6737 1.7069 16.6737ZM20.2931 16.6737C19.0077 16.6737 17.9171 16.2241 17.0216 15.3249C16.126 14.426 15.6782 13.3387 15.6782 12.0632H16.5948C16.5948 13.0947 16.9544 13.9684 17.6737 14.6842C18.3927 15.4 19.2658 15.7579 20.2931 15.7579V16.6737ZM10.5575 18V12.0632H11.4425V18H10.5575ZM20.1034 8.46316H21.1149H0.885057H20.1034ZM4.55172 8.46316V6.12632C4.55172 5.60526 4.73748 5.15916 5.10899 4.788C5.4803 4.41705 5.92672 4.23158 6.44828 4.23158H15.5833C16.1049 4.23158 16.5514 4.41705 16.9229 4.788C17.2942 5.15916 17.4799 5.60526 17.4799 6.12632V8.46316H16.5948V6.12632C16.5948 5.83158 16.5 5.58947 16.3103 5.4C16.1207 5.21053 15.8784 5.11579 15.5833 5.11579H6.44828C6.15326 5.11579 5.91092 5.21053 5.72126 5.4C5.53161 5.58947 5.43678 5.83158 5.43678 6.12632V8.46316H4.55172ZM1.89655 8.46316H20.1034C20.3985 8.46316 20.6408 8.36842 20.8305 8.17895C21.0201 7.98947 21.1149 7.74737 21.1149 7.45263V1.89474C21.1149 1.6 21.0201 1.35789 20.8305 1.16842C20.6408 0.978947 20.3985 0.884211 20.1034 0.884211H1.89655C1.60153 0.884211 1.3592 0.978947 1.16954 1.16842C0.979885 1.35789 0.885057 1.6 0.885057 1.89474V7.45263C0.885057 7.74737 0.979885 7.98947 1.16954 8.17895C1.3592 8.36842 1.60153 8.46316 1.89655 8.46316Z" fill="#83B59F"/>
</svg>
