<svg width="19" height="18" viewBox="0 0 19 18" fill="none" xmlns="http://www.w3.org/2000/svg">
<path d="M9.41568 18C7.9354 18 6.66593 17.5015 5.60725 16.5046C4.54857 15.5077 3.99112 14.2892 3.93491 12.8492C2.79191 12.5908 1.85035 12.0185 1.11021 11.1323C0.370069 10.2462 0 9.22154 0 8.05846C0 6.76615 0.440335 5.65385 1.32101 4.72154C2.20168 3.78923 3.28846 3.32308 4.58136 3.32308H7.70118C8.0572 3.32308 8.36169 3.19846 8.61464 2.94923C8.8676 2.7 8.99408 2.4 8.99408 2.04923C8.99408 1.69846 8.8676 1.39846 8.61464 1.14923C8.36169 0.9 8.0572 0.775385 7.70118 0.775385H6.01479C5.9033 0.775385 5.8098 0.738093 5.73429 0.663508C5.65896 0.589108 5.6213 0.496801 5.6213 0.386585C5.6213 0.276554 5.65896 0.184615 5.73429 0.110769C5.8098 0.0369231 5.9033 0 6.01479 0H7.70118C8.28355 0 8.77579 0.197908 9.1779 0.593723C9.58001 0.989723 9.78107 1.47434 9.78107 2.04757C9.78107 2.62098 9.58001 3.10615 9.1779 3.50308C8.77579 3.9 8.28355 4.09846 7.70118 4.09846H4.58136C3.51331 4.09846 2.61391 4.48615 1.88314 5.26154C1.15237 6.03692 0.786982 6.96923 0.786982 8.05846C0.786982 9 1.0821 9.83077 1.67234 10.5508C2.26257 11.2708 3.02613 11.76 3.96302 12.0185C4.11292 10.6338 4.68442 9.48 5.67751 8.55692C6.67061 7.63385 7.84509 7.17231 9.20095 7.17231C9.51274 7.17231 9.85133 7.20508 10.2167 7.27061C10.5821 7.33597 10.9241 7.4232 11.2426 7.53231C11.3738 7.47692 11.5096 7.42154 11.6501 7.36615C11.7907 7.31077 11.9359 7.26923 12.0858 7.24154C12.2357 7.21385 12.3887 7.19077 12.5448 7.17231C12.7011 7.15385 12.8572 7.14462 13.0133 7.14462C14.083 7.14462 15.0063 7.49077 15.7832 8.18308C16.5599 8.87538 16.9482 9.74769 16.9482 10.8V11.2985C16.9482 11.4831 16.9295 11.7046 16.892 11.9631L18.0725 13.0154C18.3886 13.2899 18.6222 13.6091 18.7732 13.973C18.9244 14.3369 19 14.7179 19 15.1161C19 15.9126 18.7168 16.5923 18.1503 17.1554C17.5839 17.7185 16.9021 18 16.105 18H9.41568ZM9.41568 17.2246H16.105C16.7046 17.2246 17.2059 17.0215 17.6087 16.6154C18.0116 16.2092 18.213 15.7128 18.213 15.1261C18.213 14.8082 18.1568 14.52 18.0444 14.2615C17.932 14.0031 17.7633 13.7723 17.5385 13.5692L15.9926 12.1846C16.0488 12 16.091 11.8117 16.1191 11.6197C16.1472 11.4277 16.1612 11.2283 16.1612 11.0215C16.1612 10.1538 15.8569 9.42 15.2483 8.82C14.6397 8.22 13.8947 7.92 13.0133 7.92C12.1162 7.92 11.3578 8.21982 10.7384 8.81945C10.1189 9.41908 9.80917 10.1531 9.80917 11.0215C9.80917 11.3354 9.85133 11.6446 9.93565 11.9492C10.02 12.2538 10.1558 12.5354 10.3432 12.7938L9.78107 13.3477C9.51874 13.0154 9.32668 12.6499 9.20488 12.2514C9.08309 11.8528 9.02219 11.4428 9.02219 11.0215C9.02219 10.4492 9.14398 9.90923 9.38757 9.40154C9.63116 8.89385 9.96844 8.45538 10.3994 8.08615C10.1933 8.04923 9.99655 8.01692 9.80917 7.98923C9.62179 7.96154 9.41568 7.94769 9.19083 7.94769C7.95414 7.94769 6.90015 8.4 6.02885 9.30462C5.15754 10.2092 4.72189 11.3044 4.72189 12.59C4.72189 13.2428 4.84238 13.8522 5.08334 14.4183C5.32431 14.9841 5.6569 15.4734 6.08112 15.886C6.50534 16.2984 7.00405 16.6246 7.57723 16.8646C8.15061 17.1046 8.76342 17.2246 9.41568 17.2246ZM14.8402 15.5631C14.6341 15.5631 14.4514 15.4846 14.2922 15.3277C14.1329 15.1708 14.0533 14.9908 14.0533 14.7877C14.0533 14.5846 14.1329 14.4046 14.2922 14.2477C14.4514 14.0908 14.6341 14.0123 14.8402 14.0123C15.0464 14.0123 15.229 14.0908 15.3883 14.2477C15.5476 14.4046 15.6272 14.5846 15.6272 14.7877C15.6272 14.9908 15.5476 15.1708 15.3883 15.3277C15.229 15.4846 15.0464 15.5631 14.8402 15.5631Z" fill="#83B59F"/>
</svg>
