<svg width="26" height="18" viewBox="0 0 26 18" fill="none" xmlns="http://www.w3.org/2000/svg">
<path d="M5.31057 17.0765C4.69631 16.4608 4.38918 15.7164 4.38918 14.8433H1.50773L1.70876 13.903H4.5232C4.72423 13.2537 5.09837 12.722 5.64562 12.3078C6.19287 11.8937 6.82388 11.6866 7.53866 11.6866C8.25344 11.6866 8.88445 11.8937 9.4317 12.3078C9.97895 12.722 10.3531 13.2537 10.5541 13.903H16.9201L19.9021 0.940299H5.2268C5.27148 0.671642 5.39991 0.447761 5.61211 0.268657C5.82431 0.0895522 6.0756 0 6.36598 0H21.0747L20.0361 4.5H22.482L26 9.20149L24.8943 14.8433H23.6881C23.6881 15.7164 23.381 16.4608 22.7668 17.0765C22.1525 17.6922 21.4098 18 20.5387 18C19.6675 18 18.9248 17.6922 18.3106 17.0765C17.6963 16.4608 17.3892 15.7164 17.3892 14.8433H10.6881C10.6881 15.7164 10.381 16.4608 9.76675 17.0765C9.15249 17.6922 8.40979 18 7.53866 18C6.66753 18 5.92483 17.6922 5.31057 17.0765ZM18.5619 10.7799H24.7268L24.9948 9.43657L22.0129 5.4403H19.8015L18.5619 10.7799ZM19.5 2.6194L19.9021 0.940299L16.9201 13.903L17.3222 12.2239L18.3608 7.58955L19.5 2.6194ZM0 10.209L0.234536 9.26866H5.8299L5.59536 10.209H0ZM2.68041 5.57463L2.91495 4.63433H9.85051L9.61598 5.57463H2.68041ZM7.53866 17.0597C8.14175 17.0597 8.66108 16.8414 9.09665 16.4049C9.53222 15.9683 9.75 15.4478 9.75 14.8433C9.75 14.2388 9.53222 13.7183 9.09665 13.2817C8.66108 12.8451 8.14175 12.6269 7.53866 12.6269C6.93557 12.6269 6.41624 12.8451 5.98067 13.2817C5.5451 13.7183 5.32732 14.2388 5.32732 14.8433C5.32732 15.4478 5.5451 15.9683 5.98067 16.4049C6.41624 16.8414 6.93557 17.0597 7.53866 17.0597ZM20.5387 17.0597C21.1418 17.0597 21.6611 16.8414 22.0966 16.4049C22.5322 15.9683 22.75 15.4478 22.75 14.8433C22.75 14.2388 22.5322 13.7183 22.0966 13.2817C21.6611 12.8451 21.1418 12.6269 20.5387 12.6269C19.9356 12.6269 19.4162 12.8451 18.9807 13.2817C18.5451 13.7183 18.3273 14.2388 18.3273 14.8433C18.3273 15.4478 18.5451 15.9683 18.9807 16.4049C19.4162 16.8414 19.9356 17.0597 20.5387 17.0597Z" fill="#83B59F"/>
</svg>
