<svg width="20" height="18" viewBox="0 0 20 18" fill="none" xmlns="http://www.w3.org/2000/svg">
<path d="M9.25065 18V17.2779H20V18H9.25065ZM10.2842 15.7307C10.2842 14.596 10.6675 13.616 11.4341 12.7908C12.2007 11.9656 13.1438 11.51 14.2636 11.4241V11.063C14.2636 10.9771 14.298 10.8954 14.3669 10.8181C14.4358 10.7407 14.522 10.702 14.6253 10.702C14.7115 10.702 14.7933 10.7407 14.8708 10.8181C14.9483 10.8954 14.9871 10.9771 14.9871 11.063V11.4241C16.1068 11.51 17.05 11.9656 17.8165 12.7908C18.5831 13.616 18.9664 14.596 18.9664 15.7307H10.2842ZM11.0853 15.0086H18.1395C17.9673 14.1662 17.5581 13.4699 16.9121 12.9198C16.2661 12.3696 15.5039 12.0946 14.6253 12.0946C13.7468 12.0946 12.9802 12.3696 12.3256 12.9198C11.671 13.4699 11.2575 14.1662 11.0853 15.0086ZM0 8.61318V1.08309H3.51421V2.37249L11.5762 0L18.5013 2.16619V2.47564C18.5013 2.9914 18.2817 3.4384 17.8424 3.81662C17.4031 4.19484 16.882 4.38395 16.2791 4.38395H13.4884V4.84814C13.4884 5.17479 13.3678 5.47564 13.1266 5.75072C12.8854 6.02579 12.6098 6.2235 12.2997 6.34384L6.09819 8.61318H0ZM0.723514 7.89112H2.7907V1.80516H0.723514V7.89112ZM3.51421 7.89112H5.99483L12.2481 5.59599C12.4031 5.54441 12.528 5.45415 12.6227 5.32522C12.7175 5.19628 12.7649 5.04585 12.7649 4.87393V4.38395H10.7235L7.70026 5.38968L7.44186 4.69341L10.646 3.66189H16.2791C16.5375 3.66189 16.826 3.58453 17.1447 3.4298C17.4634 3.27507 17.6572 3.02579 17.7261 2.68195L11.5245 0.773639L3.51421 3.14613V7.89112Z" fill="#83B59F"/>
</svg>
