<svg width="21" height="18" viewBox="0 0 21 18" fill="none" xmlns="http://www.w3.org/2000/svg">
<path d="M2.71154 18C1.96154 18 1.32212 17.7373 0.793269 17.2118C0.264423 16.6863 0 16.051 0 15.3057C0 14.8662 0.100962 14.4554 0.302885 14.0732C0.504808 13.6911 0.788462 13.3662 1.15385 13.0987V8.02548H3.89423V1.89172H10.2692L15.1731 13.2707C15.2692 13.5 15.351 13.7341 15.4183 13.9729C15.4856 14.2118 15.5192 14.465 15.5192 14.7325C15.5192 15.6497 15.2019 16.4236 14.5673 17.0541C13.9327 17.6847 13.1538 18 12.2308 18C11.5 18 10.8462 17.7898 10.2692 17.3694C9.69231 16.949 9.29808 16.3949 9.08654 15.707H5.39423C5.29808 16.3758 4.99519 16.9252 4.48558 17.3551C3.97596 17.785 3.38462 18 2.71154 18ZM16.6731 16.8535V0H17.4808V16.051H21V16.8535H16.6731ZM4.05288 16.6385C4.42788 16.2659 4.61538 15.8217 4.61538 15.3057C4.61538 14.7898 4.42788 14.3455 4.05288 13.9729C3.67788 13.6003 3.23077 13.414 2.71154 13.414C2.19231 13.414 1.74519 13.6003 1.37019 13.9729C0.995192 14.3455 0.807692 14.7898 0.807692 15.3057C0.807692 15.8217 0.995192 16.2659 1.37019 16.6385C1.74519 17.0111 2.19231 17.1975 2.71154 17.1975C3.23077 17.1975 3.67788 17.0111 4.05288 16.6385ZM13.976 16.4666C14.4663 15.9793 14.7115 15.4013 14.7115 14.7325C14.7115 14.0637 14.4663 13.4857 13.976 12.9984C13.4856 12.5111 12.9038 12.2675 12.2308 12.2675C11.5577 12.2675 10.976 12.5111 10.4856 12.9984C9.99519 13.4857 9.75 14.0637 9.75 14.7325C9.75 15.4013 9.99519 15.9793 10.4856 16.4666C10.976 16.9538 11.5577 17.1975 12.2308 17.1975C12.9038 17.1975 13.4856 16.9538 13.976 16.4666ZM5.39423 14.9045H8.94231C8.90385 14.4076 8.98558 13.9252 9.1875 13.457C9.38942 12.9889 9.68269 12.5924 10.0673 12.2675H7.73077L4.35577 8.82803H1.96154V12.7261C2.07692 12.6879 2.19712 12.6592 2.32212 12.6401C2.44712 12.621 2.57692 12.6115 2.71154 12.6115C3.38462 12.6115 3.97596 12.8264 4.48558 13.2564C4.99519 13.6863 5.29808 14.2357 5.39423 14.9045ZM8.07692 11.465H12.2308C12.4808 11.465 12.726 11.4936 12.9663 11.551C13.2067 11.6083 13.4423 11.6943 13.6731 11.8089L9.75 2.69427H4.70192V8.02548L8.07692 11.465ZM7.73077 12.2675L7.19712 11.7229C6.84135 11.3599 6.45673 10.9634 6.04327 10.5334C5.62981 10.1035 5.24519 9.71178 4.88942 9.35828L4.35577 8.82803L7.73077 12.2675Z" fill="#83B59F"/>
</svg>
