<svg width="18" height="18" viewBox="0 0 18 18" fill="none" xmlns="http://www.w3.org/2000/svg">
<path d="M6.84507 11.1549V6.84507H11.1549V11.1549H6.84507ZM7.73239 10.2676H10.2676V7.73239H7.73239V10.2676ZM6.02113 18V16.2254H3.67606C3.12676 16.2254 2.67254 16.0458 2.31338 15.6866C1.95423 15.3275 1.77465 14.8732 1.77465 14.3239V11.9789H0V11.0915H1.77465V6.90845H0V6.02113H1.77465V3.67606C1.77465 3.12676 1.95423 2.67254 2.31338 2.31338C2.67254 1.95423 3.12676 1.77465 3.67606 1.77465H6.02113V0H6.90845V1.77465H11.0915V0H11.9789V1.77465H14.3239C14.8732 1.77465 15.3275 1.95423 15.6866 2.31338C16.0458 2.67254 16.2254 3.12676 16.2254 3.67606V6.02113H18V6.90845H16.2254V11.0915H18V11.9789H16.2254V14.3239C16.2254 14.8732 16.0458 15.3275 15.6866 15.6866C15.3275 16.0458 14.8732 16.2254 14.3239 16.2254H11.9789V18H11.0915V16.2254H6.90845V18H6.02113ZM14.3239 15.338C14.5775 15.338 14.8099 15.2324 15.0211 15.0211C15.2324 14.8099 15.338 14.5775 15.338 14.3239V3.67606C15.338 3.42254 15.2324 3.19014 15.0211 2.97887C14.8099 2.76761 14.5775 2.66197 14.3239 2.66197H3.67606C3.42254 2.66197 3.19014 2.76761 2.97887 2.97887C2.76761 3.19014 2.66197 3.42254 2.66197 3.67606V14.3239C2.66197 14.5775 2.76761 14.8099 2.97887 15.0211C3.19014 15.2324 3.42254 15.338 3.67606 15.338H14.3239Z" fill="#83B59F"/>
</svg>
