<svg width="6" height="18" viewBox="0 0 6 18" fill="none" xmlns="http://www.w3.org/2000/svg">
<path d="M1.10924 4.30435L2.26891 1.90062V1.11801H0.756303V0H5.29412C5.47899 0 5.64286 0.0791926 5.78571 0.237578C5.92857 0.395963 6 0.57764 6 0.782609V1.45342L5.14286 3.35404H3.52941V2.18012L1.71429 4.30435H1.10924ZM0 18V11.8509C0 11.7578 0.0168067 11.646 0.0504202 11.5155C0.0840336 11.3851 0.117647 11.2733 0.151261 11.1801L3.52941 4.13665H5.14286C5.2605 4.26708 5.34034 4.39752 5.38235 4.52795C5.42437 4.65839 5.44538 4.81677 5.44538 5.00311V18H0ZM0.705882 17.2174H4.7395V4.91925H3.95798L0.705882 11.7112V17.2174Z" fill="#83B59F"/>
</svg>
