<svg width="15" height="18" viewBox="0 0 15 18" fill="none" xmlns="http://www.w3.org/2000/svg">
<path d="M13.628 14.2887H5.03049C4.63415 14.2887 4.3064 14.1572 4.04726 13.8943C3.78811 13.6314 3.65854 13.299 3.65854 12.8969V1.39175C3.65854 0.989691 3.78811 0.657216 4.04726 0.39433C4.3064 0.131443 4.63415 0 5.03049 0H11.2957L15 3.75773V12.8969C15 13.299 14.8704 13.6314 14.6113 13.8943C14.3521 14.1572 14.0244 14.2887 13.628 14.2887ZM10.9756 4.08247V0.649485H5.03049C4.84756 0.649485 4.67988 0.726804 4.52744 0.881443C4.375 1.03608 4.29878 1.20619 4.29878 1.39175V12.8969C4.29878 13.0825 4.375 13.2526 4.52744 13.4072C4.67988 13.5619 4.84756 13.6392 5.03049 13.6392H13.628C13.811 13.6392 13.9787 13.5619 14.1311 13.4072C14.2835 13.2526 14.3598 13.0825 14.3598 12.8969V4.08247H10.9756ZM1.37195 18C0.97561 18 0.647866 17.8686 0.38872 17.6057C0.129573 17.3428 0 17.0103 0 16.6082V5.56701H0.640244V16.6082C0.640244 16.7938 0.716463 16.9639 0.868902 17.1186C1.02134 17.2732 1.18902 17.3505 1.37195 17.3505H9.5122V18H1.37195Z" fill="#83B59F"/>
</svg>
