<svg width="18" height="18" viewBox="0 0 18 18" fill="none" xmlns="http://www.w3.org/2000/svg">
<path d="M5.06897 10.8621C5.15517 10.569 5.21983 10.2629 5.26293 9.94397C5.30603 9.625 5.32759 9.31035 5.32759 9C5.32759 8.68966 5.30603 8.375 5.26293 8.05603C5.21983 7.73707 5.15517 7.43103 5.06897 7.13793L4.39655 7.44828C4.44828 7.68966 4.49569 7.94397 4.53879 8.21121C4.5819 8.47845 4.60345 8.74138 4.60345 9C4.60345 9.25862 4.5819 9.52155 4.53879 9.78879C4.49569 10.056 4.44828 10.3103 4.39655 10.5517L5.06897 10.8621ZM8.43103 12.2586C8.61431 11.7429 8.74629 11.2136 8.82698 10.6707C8.90785 10.1279 8.94828 9.57155 8.94828 9.00155C8.94828 8.43155 8.90785 7.87474 8.82698 7.33112C8.74629 6.78767 8.61431 6.25776 8.43103 5.74138L7.75862 6C7.91379 6.46552 8.03017 6.95259 8.10776 7.46121C8.18535 7.96983 8.22414 8.48276 8.22414 9C8.22414 9.51724 8.18535 10.0302 8.10776 10.5388C8.03017 11.0474 7.91379 11.5345 7.75862 12L8.43103 12.2586ZM11.7931 13.6552C12.0517 12.9248 12.2457 12.169 12.375 11.3876C12.5043 10.6062 12.569 9.81035 12.569 9C12.569 8.18966 12.5043 7.39379 12.375 6.61241C12.2457 5.83103 12.0517 5.07517 11.7931 4.34483L11.1207 4.65517C11.3621 5.32259 11.5431 6.02181 11.6638 6.75284C11.7845 7.48388 11.8448 8.23086 11.8448 8.99379C11.8448 9.75655 11.7845 10.5049 11.6638 11.2389C11.5431 11.9727 11.3621 12.6747 11.1207 13.3448L11.7931 13.6552ZM9.0044 18C7.76009 18 6.59 17.7639 5.49414 17.2916C4.39828 16.8194 3.44509 16.1784 2.63457 15.3688C1.82388 14.5591 1.18216 13.6072 0.709396 12.5128C0.236465 11.4184 0 10.2489 0 9.0044C0 7.76009 0.236121 6.59 0.708362 5.49414C1.1806 4.39828 1.82155 3.44509 2.63121 2.63457C3.44086 1.82388 4.39285 1.18216 5.48716 0.709396C6.58164 0.236465 7.75112 0 8.9956 0C10.2399 0 11.41 0.236121 12.5059 0.708362C13.6017 1.1806 14.5549 1.82155 15.3654 2.63121C16.1761 3.44086 16.8178 4.39284 17.2906 5.48715C17.7635 6.58164 18 7.75112 18 8.9956C18 10.2399 17.7639 11.41 17.2916 12.5059C16.8194 13.6017 16.1784 14.5549 15.3688 15.3654C14.5591 16.1761 13.6072 16.8178 12.5128 17.2906C11.4184 17.7635 10.2489 18 9.0044 18ZM9 17.2759C11.3103 17.2759 13.2672 16.4741 14.8707 14.8707C16.4741 13.2672 17.2759 11.3103 17.2759 9C17.2759 6.68966 16.4741 4.73276 14.8707 3.12931C13.2672 1.52586 11.3103 0.724138 9 0.724138C6.68966 0.724138 4.73276 1.52586 3.12931 3.12931C1.52586 4.73276 0.724138 6.68966 0.724138 9C0.724138 11.3103 1.52586 13.2672 3.12931 14.8707C4.73276 16.4741 6.68966 17.2759 9 17.2759Z" fill="#83B59F"/>
</svg>
