<svg width="23" height="18" viewBox="0 0 23 18" fill="none" xmlns="http://www.w3.org/2000/svg">
<path d="M2.89037 18C2.08742 18 1.40501 17.7303 0.843128 17.1909C0.281043 16.6517 0 15.9968 0 15.2262V6.96393C0 6.19338 0.281043 5.53849 0.843128 4.99928C1.40501 4.45987 2.08742 4.19016 2.89037 4.19016C3.38235 4.19016 3.83333 4.29836 4.24332 4.51475C4.6533 4.73115 5.00178 5.01639 5.28877 5.37049H7.37968V0H18.0802V5.37049H20.1096C20.9126 5.37049 21.595 5.6402 22.1569 6.17961C22.719 6.71882 23 7.3737 23 8.14426V16.8197H5.28877C5.00178 17.1738 4.6533 17.459 4.24332 17.6754C3.83333 17.8918 3.38235 18 2.89037 18ZM2.89037 17.1738C3.44385 17.1738 3.92045 16.982 4.32019 16.5984C4.71992 16.2148 4.91979 15.7574 4.91979 15.2262V6.96393C4.91979 6.43279 4.71992 5.97541 4.32019 5.5918C3.92045 5.2082 3.44385 5.01639 2.89037 5.01639C2.3369 5.01639 1.86029 5.2082 1.46056 5.5918C1.06083 5.97541 0.860963 6.43279 0.860963 6.96393V15.2262C0.860963 15.7574 1.06083 16.2148 1.46056 16.5984C1.86029 16.982 2.3369 17.1738 2.89037 17.1738ZM8.24064 5.37049H17.2193V0.826229H8.24064V5.37049ZM5.78075 15.9934H22.139V8.14426C22.139 7.61311 21.9392 7.15574 21.5394 6.77213C21.1397 6.38852 20.6631 6.19672 20.1096 6.19672H5.78075V15.9934ZM16.0662 10.1656C16.3019 9.93934 16.4198 9.65902 16.4198 9.32459C16.4198 8.99016 16.3019 8.70984 16.0662 8.48361C15.8304 8.25738 15.5383 8.14426 15.1898 8.14426C14.8414 8.14426 14.5492 8.25738 14.3135 8.48361C14.0778 8.70984 13.9599 8.99016 13.9599 9.32459C13.9599 9.65902 14.0778 9.93934 14.3135 10.1656C14.5492 10.3918 14.8414 10.5049 15.1898 10.5049C15.5383 10.5049 15.8304 10.3918 16.0662 10.1656ZM19.756 10.1656C19.9918 9.93934 20.1096 9.65902 20.1096 9.32459C20.1096 8.99016 19.9918 8.70984 19.756 8.48361C19.5203 8.25738 19.2282 8.14426 18.8797 8.14426C18.5312 8.14426 18.2391 8.25738 18.0033 8.48361C17.7676 8.70984 17.6497 8.99016 17.6497 9.32459C17.6497 9.65902 17.7676 9.93934 18.0033 10.1656C18.2391 10.3918 18.5312 10.5049 18.8797 10.5049C19.2282 10.5049 19.5203 10.3918 19.756 10.1656ZM16.0662 13.7066C16.3019 13.4803 16.4198 13.2 16.4198 12.8656C16.4198 12.5311 16.3019 12.2508 16.0662 12.0246C15.8304 11.7984 15.5383 11.6852 15.1898 11.6852C14.8414 11.6852 14.5492 11.7984 14.3135 12.0246C14.0778 12.2508 13.9599 12.5311 13.9599 12.8656C13.9599 13.2 14.0778 13.4803 14.3135 13.7066C14.5492 13.9328 14.8414 14.0459 15.1898 14.0459C15.5383 14.0459 15.8304 13.9328 16.0662 13.7066ZM19.756 13.7066C19.9918 13.4803 20.1096 13.2 20.1096 12.8656C20.1096 12.5311 19.9918 12.2508 19.756 12.0246C19.5203 11.7984 19.2282 11.6852 18.8797 11.6852C18.5312 11.6852 18.2391 11.7984 18.0033 12.0246C17.7676 12.2508 17.6497 12.5311 17.6497 12.8656C17.6497 13.2 17.7676 13.4803 18.0033 13.7066C18.2391 13.9328 18.5312 14.0459 18.8797 14.0459C19.2282 14.0459 19.5203 13.9328 19.756 13.7066ZM7.81016 14.0459H12.7299V8.14426H7.81016V14.0459Z" fill="#83B59F"/>
</svg>
