<svg width="19" height="18" viewBox="0 0 19 18" fill="none" xmlns="http://www.w3.org/2000/svg">
<path d="M16.0313 11.7278L14.8108 11.0196L17.8125 8.79402L19 9.50218L16.0313 11.7278ZM11.0174 10.1429L15.6354 6.73701L5.44271 1.03808C5.20081 0.90319 4.94242 0.869468 4.66753 0.936911C4.39265 1.00435 4.17824 1.16172 4.02431 1.40901L2.47396 4.07301C2.32002 4.34278 2.28154 4.6238 2.35851 4.91605C2.43547 5.2083 2.6059 5.43311 2.86979 5.59048L11.0174 10.1429ZM0 18V17.0558H5.21181C5.51968 17.0558 5.77257 16.9546 5.97049 16.7523C6.1684 16.55 6.26736 16.2914 6.26736 15.9767V8.55797L2.44097 6.3998C1.93519 6.13003 1.61082 5.71975 1.46788 5.16896C1.32494 4.61818 1.39641 4.09549 1.68229 3.60091L3.19965 1.00435C3.46354 0.532253 3.85388 0.223139 4.37066 0.0770127C4.88744 -0.0691139 5.37674 -0.00729113 5.83854 0.262481L17.3177 6.66957L11.0833 11.2557L7.15799 9.0638V15.9767C7.15799 16.5387 6.96557 17.0165 6.58073 17.4099C6.19589 17.8033 5.72859 18 5.17882 18H0Z" fill="#83B59F"/>
</svg>
