<svg width="20" height="18" viewBox="0 0 20 18" fill="none" xmlns="http://www.w3.org/2000/svg">
<path d="M20 9.62069H15.2835C15.232 9.48276 15.1804 9.35776 15.1289 9.24569C15.0773 9.13362 15.0172 9.01724 14.9485 8.89655H19.2784C19.2612 8.55172 19.1881 8.27155 19.0593 8.05603C18.9304 7.84052 18.7199 7.66379 18.4278 7.52586C17.878 7.23276 17.3024 7.01724 16.701 6.87931C16.0997 6.74138 15.4725 6.67241 14.8196 6.67241C14.5275 6.67241 14.2354 6.68535 13.9433 6.71121C13.6512 6.73707 13.3591 6.78448 13.067 6.85345C12.9337 6.74914 12.7887 6.65836 12.632 6.58112C12.4753 6.50405 12.311 6.43103 12.1392 6.36207C12.5687 6.22414 13.0052 6.12069 13.4487 6.05172C13.892 5.98276 14.349 5.94828 14.8196 5.94828C15.5241 5.94828 16.2113 6.02586 16.8814 6.18103C17.5515 6.33621 18.1873 6.56897 18.7887 6.87931C19.2182 7.10345 19.5275 7.375 19.7165 7.69397C19.9055 8.01293 20 8.42241 20 8.92241V9.62069ZM14.8211 4.65517C14.1844 4.65517 13.6426 4.42888 13.1959 3.97629C12.7491 3.52371 12.5258 2.97414 12.5258 2.32759C12.5258 1.68103 12.7486 1.13147 13.1943 0.678879C13.64 0.226293 14.1813 0 14.818 0C15.4548 0 15.9966 0.226293 16.4433 0.678879C16.89 1.13147 17.1134 1.68103 17.1134 2.32759C17.1134 2.97414 16.8905 3.52371 16.4448 3.97629C15.9991 4.42888 15.4579 4.65517 14.8211 4.65517ZM14.8209 3.93103C15.2668 3.93103 15.64 3.77802 15.9407 3.47198C16.2414 3.16578 16.3918 2.78647 16.3918 2.33405C16.3918 1.88147 16.241 1.5 15.9394 1.18966C15.6377 0.87931 15.264 0.724138 14.8183 0.724138C14.3724 0.724138 13.9991 0.877155 13.6985 1.18319C13.3978 1.4894 13.2474 1.86871 13.2474 2.32112C13.2474 2.77371 13.3982 3.15517 13.6997 3.46552C14.0015 3.77586 14.3752 3.93103 14.8209 3.93103ZM0 9.62069V8.92241C0 8.42241 0.0945017 8.01293 0.283505 7.69397C0.472509 7.375 0.781787 7.10345 1.21134 6.87931C1.81271 6.56897 2.44845 6.33621 3.11856 6.18103C3.78866 6.02586 4.47594 5.94828 5.18041 5.94828C5.65103 5.94828 6.10799 5.98276 6.55129 6.05172C6.99476 6.12069 7.43127 6.22414 7.86082 6.36207C7.689 6.43103 7.52474 6.50405 7.36804 6.58112C7.21134 6.65836 7.06632 6.74914 6.93299 6.85345C6.64089 6.78448 6.3488 6.73707 6.0567 6.71121C5.7646 6.68535 5.47251 6.67241 5.18041 6.67241C4.52749 6.67241 3.90034 6.74138 3.29897 6.87931C2.69759 7.01724 2.12199 7.23276 1.57216 7.52586C1.28007 7.66379 1.06959 7.84052 0.940722 8.05603C0.811856 8.27155 0.738832 8.55172 0.721649 8.89655H5.05155C4.98282 9.01724 4.92268 9.13362 4.87113 9.24569C4.81959 9.35776 4.76804 9.48276 4.71649 9.62069H0ZM5.18196 4.65517C4.54519 4.65517 4.00344 4.42888 3.5567 3.97629C3.10997 3.52371 2.8866 2.97414 2.8866 2.32759C2.8866 1.68103 3.10945 1.13147 3.55515 0.678879C4.00086 0.226293 4.5421 0 5.17887 0C5.81564 0 6.35739 0.226293 6.80412 0.678879C7.25086 1.13147 7.47423 1.68103 7.47423 2.32759C7.47423 2.97414 7.25137 3.52371 6.80567 3.97629C6.35997 4.42888 5.81873 4.65517 5.18196 4.65517ZM5.1817 3.93103C5.62758 3.93103 6.00086 3.77802 6.30155 3.47198C6.60223 3.16578 6.75258 2.78647 6.75258 2.33405C6.75258 1.88147 6.6018 1.5 6.30026 1.18966C5.99854 0.87931 5.62483 0.724138 5.17912 0.724138C4.73325 0.724138 4.35997 0.877155 4.05928 1.18319C3.75859 1.4894 3.60825 1.86871 3.60825 2.32112C3.60825 2.77371 3.75902 3.15517 4.06057 3.46552C4.36229 3.77586 4.736 3.93103 5.1817 3.93103ZM10 13.0603C9.62199 13.0603 9.30842 12.931 9.05928 12.6724C8.81014 12.4138 8.68557 12.0948 8.68557 11.7155V8.76724C8.68557 8.38793 8.81014 8.06897 9.05928 7.81035C9.30842 7.55172 9.62199 7.42241 10 7.42241C10.378 7.42241 10.6916 7.55172 10.9407 7.81035C11.1899 8.06897 11.3144 8.38793 11.3144 8.76724V11.7155C11.3144 12.0948 11.1899 12.4138 10.9407 12.6724C10.6916 12.931 10.378 13.0603 10 13.0603ZM9.63918 18V16.0086C8.5567 15.9224 7.64605 15.4698 6.90722 14.6509C6.16838 13.8319 5.79897 12.8534 5.79897 11.7155H6.49485C6.49485 12.7155 6.83419 13.5647 7.51289 14.2629C8.19158 14.9612 9.02062 15.3103 10 15.3103C10.9794 15.3103 11.8084 14.9594 12.4871 14.2575C13.1658 13.5558 13.5052 12.7084 13.5052 11.7155H14.2268C14.2268 12.8534 13.8531 13.8319 13.1057 14.6509C12.3582 15.4698 11.4433 15.9224 10.3608 16.0086V18H9.63918Z" fill="#83B59F"/>
</svg>
