<svg width="19" height="18" viewBox="0 0 19 18" fill="none" xmlns="http://www.w3.org/2000/svg">
<path d="M11.9684 11.3705C11.5325 10.933 11.3146 10.4018 11.3146 9.77679C11.3146 9.15179 11.5325 8.62054 11.9684 8.18304C12.4043 7.74554 12.9335 7.52679 13.5562 7.52679C14.1788 7.52679 14.7081 7.74554 15.144 8.18304C15.5798 8.62054 15.7978 9.15179 15.7978 9.77679C15.7978 10.4018 15.5798 10.933 15.144 11.3705C14.7081 11.808 14.1788 12.0268 13.5562 12.0268C12.9335 12.0268 12.4043 11.808 11.9684 11.3705ZM14.6103 10.8348C14.9038 10.5402 15.0506 10.1875 15.0506 9.77679C15.0506 9.36607 14.9038 9.01339 14.6103 8.71875C14.3167 8.42411 13.9654 8.27679 13.5562 8.27679C13.147 8.27679 12.7956 8.42411 12.5021 8.71875C12.2086 9.01339 12.0618 9.36607 12.0618 9.77679C12.0618 10.1875 12.2086 10.5402 12.5021 10.8348C12.7956 11.1295 13.147 11.2768 13.5562 11.2768C13.9654 11.2768 14.3167 11.1295 14.6103 10.8348ZM8.11236 18V15.8571C8.11236 15.6505 8.16155 15.4563 8.25993 15.2746C8.35813 15.0926 8.49574 14.9475 8.67275 14.8393C9.14437 14.5543 9.64188 14.318 10.1653 14.1305C10.6885 13.943 11.2228 13.8043 11.7683 13.7143L13.5562 16.0982L15.3174 13.7143C15.8714 13.8043 16.4104 13.943 16.9345 14.1305C17.4587 14.318 17.9603 14.5543 18.4396 14.8393C18.6175 14.9464 18.7509 15.0893 18.8399 15.2679C18.9288 15.4464 18.9822 15.6339 19 15.8304V18H8.11236ZM8.83286 17.25H13.4761L11.4747 14.5714C11.0067 14.6777 10.5517 14.8159 10.1098 14.9861C9.66767 15.1561 9.24204 15.3571 8.83286 15.5893V17.25ZM13.6362 17.25H18.2528V15.5893C17.8436 15.3571 17.418 15.1607 16.9759 15C16.534 14.8393 16.079 14.7054 15.611 14.5982L13.6362 17.25ZM1.61393 16.5C1.16064 16.5 0.778324 16.3426 0.466994 16.0278C0.155665 15.7131 0 15.3348 0 14.8929V1.60714C0 1.16518 0.156821 0.786786 0.470464 0.471964C0.783928 0.157321 1.16081 0 1.60112 0H14.8371C15.2774 0 15.6544 0.157321 15.968 0.471964C16.2815 0.786786 16.4382 1.16518 16.4382 1.60714V5.14286C16.3137 5.05357 16.1936 4.97768 16.0779 4.91518C15.9623 4.85268 15.8333 4.79464 15.691 4.74107V1.60714C15.691 1.35714 15.611 1.15179 15.4508 0.991071C15.2907 0.830357 15.0861 0.75 14.8371 0.75H1.60112C1.35206 0.75 1.14747 0.830357 0.98736 0.991071C0.827247 1.15179 0.747191 1.35714 0.747191 1.60714V14.8929C0.747191 15.1429 0.827247 15.3482 0.98736 15.5089C1.14747 15.6696 1.35206 15.75 1.60112 15.75H4.91011V16.5H1.61393ZM3.57584 4.66071H11.6348C11.8305 4.57143 12.0307 4.50893 12.2353 4.47321C12.4398 4.4375 12.6489 4.40179 12.8624 4.36607V3.91071H3.57584V4.66071ZM3.57584 8.625H8.24579C8.28137 8.48214 8.31695 8.35268 8.35253 8.23661C8.38811 8.12054 8.42369 8 8.45927 7.875H3.57584V8.625ZM3.57584 12.5893H6.35112C6.52903 12.4464 6.71138 12.308 6.89817 12.1741C7.08497 12.0402 7.27622 11.9286 7.47191 11.8393H3.57584V12.5893ZM0.747191 15.75V0.75V4.74107V4.3125V15.75Z" fill="#83B59F"/>
</svg>
