<svg width="18" height="18" viewBox="0 0 18 18" fill="none" xmlns="http://www.w3.org/2000/svg">
<path d="M12.0812 10.7702L12.8921 7.81014L10.3547 6.05508L9.5438 9.01511L12.0812 10.7702ZM1.56535 16.6641L1.25144 16.5331C0.693384 16.2886 0.318441 15.8869 0.126609 15.3281C-0.0652228 14.7693 -0.0390639 14.2279 0.205086 13.704L1.56535 10.7964V16.6641ZM6.27394 18C5.69845 18 5.20579 17.7948 4.79597 17.3844C4.38614 16.974 4.18123 16.4807 4.18123 15.9044V11.3465L6.35242 17.3189C6.40474 17.4586 6.45706 17.5809 6.50937 17.6857C6.56169 17.7904 6.63145 17.8952 6.71864 18H6.27394ZM10.5902 16.7164C10.1716 16.8736 9.77051 16.8649 9.38685 16.6902C9.00319 16.5156 8.73288 16.2187 8.57592 15.7996L4.44282 4.45718C4.28587 4.03806 4.29895 3.6364 4.48206 3.25221C4.66517 2.86802 4.966 2.59734 5.38454 2.44017L11.7411 0.10881C12.1597 -0.04836 12.5608 -0.0352625 12.9445 0.148103C13.3281 0.331468 13.5984 0.63271 13.7554 1.05183L17.8885 12.3943C18.0454 12.8134 18.0367 13.215 17.8623 13.5992C17.6879 13.9834 17.3915 14.2541 16.9729 14.4113L10.5902 16.7164ZM10.3547 15.983L16.6852 13.6778C16.9119 13.5905 17.0732 13.4464 17.1691 13.2456C17.265 13.0448 17.2694 12.8309 17.1822 12.6038L13.1014 1.33998C13.0142 1.11295 12.8703 0.951416 12.6698 0.855368C12.4692 0.759319 12.2556 0.754954 12.0289 0.84227L5.69845 3.14743C5.47174 3.23475 5.31042 3.37882 5.21451 3.57965C5.11859 3.78048 5.11423 3.9944 5.20143 4.22143L9.28221 15.4853C9.36941 15.7123 9.51328 15.8738 9.71383 15.9699C9.91439 16.0659 10.128 16.0703 10.3547 15.983Z" fill="#83B59F"/>
</svg>
