<svg width="18" height="18" viewBox="0 0 18 18" fill="none" xmlns="http://www.w3.org/2000/svg">
<path d="M9 18C7.75862 18 6.59052 17.7629 5.49569 17.2888C4.40086 16.8147 3.44828 16.1724 2.63793 15.3621C1.82759 14.5517 1.18534 13.5991 0.711207 12.5043C0.237069 11.4095 0 10.2414 0 9C0 7.75862 0.237069 6.59052 0.711207 5.49569C1.18534 4.40086 1.82759 3.44828 2.63793 2.63793C3.44828 1.82759 4.40086 1.18534 5.49569 0.711207C6.59052 0.237069 7.75862 0 9 0C10.2414 0 11.4095 0.237069 12.5043 0.711207C13.5991 1.18534 14.5517 1.82759 15.3621 2.63793C16.1724 3.44828 16.8147 4.40086 17.2888 5.49569C17.7629 6.59052 18 7.75862 18 9C18 10.2414 17.7629 11.4095 17.2888 12.5043C16.8147 13.5991 16.1724 14.5517 15.3621 15.3621C14.5517 16.1724 13.5991 16.8147 12.5043 17.2888C11.4095 17.7629 10.2414 18 9 18ZM13.7069 7.18966L15.6207 6.56897L16.1379 4.7069C15.5862 3.7931 14.8793 3.01724 14.0172 2.37931C13.1552 1.74138 12.1897 1.27586 11.1207 0.982759L9.36207 2.22414V4.13793L13.7069 7.18966ZM4.2931 7.18966L8.63793 4.13793V2.22414L6.87931 0.982759C5.81035 1.27586 4.85345 1.74138 4.00862 2.37931C3.16379 3.01724 2.46552 3.7931 1.91379 4.7069L2.43103 6.56897L4.2931 7.18966ZM2.84483 14.5862L4.60345 14.431L5.68966 12.6724L4.13793 7.96552L2.17241 7.2931L0.724138 8.32759C0.724138 9.56897 0.87069 10.681 1.16379 11.6638C1.4569 12.6466 2.01724 13.6207 2.84483 14.5862ZM10.3707 17.1595C10.8362 17.0819 11.3276 16.9655 11.8448 16.8103L12.7759 14.7931L11.7931 13.1897H6.2069L5.27586 14.7931L6.2069 16.8103C6.67241 16.9655 7.14224 17.0819 7.61638 17.1595C8.09052 17.2371 8.55172 17.2759 9 17.2759C9.44828 17.2759 9.90517 17.2371 10.3707 17.1595ZM6.41379 12.4655H11.6379L13.1897 7.7069L9 4.75862L4.81034 7.7069L6.41379 12.4655ZM15.1552 14.5862C15.9828 13.6207 16.5431 12.6466 16.8362 11.6638C17.1293 10.681 17.2759 9.56897 17.2759 8.32759L15.8793 7.34483L13.8621 7.91379L12.3103 12.6724L13.3966 14.431L15.1552 14.5862Z" fill="#83B59F"/>
</svg>
