<svg width="26" height="18" viewBox="0 0 26 18" fill="none" xmlns="http://www.w3.org/2000/svg">
<path d="M3.81333 18C2.74182 18 1.83838 17.6429 1.10303 16.9286C0.367677 16.2143 0 15.3367 0 14.2959C0 14.1327 0.00525252 13.9796 0.0157576 13.8367C0.0262626 13.6939 0.0525253 13.5408 0.0945455 13.3776L2.74182 3.09184C2.99394 2.17347 3.49818 1.42857 4.25455 0.857143C5.01091 0.285714 5.87232 0 6.83879 0H19.1297C20.0962 0 20.9576 0.285714 21.7139 0.857143C22.4703 1.42857 22.9745 2.17347 23.2267 3.09184L25.8739 13.3776C25.916 13.5408 25.9475 13.699 25.9685 13.852C25.9895 14.0051 26 14.1633 26 14.3265C26 15.3673 25.6271 16.2398 24.8812 16.9439C24.1354 17.648 23.2267 18 22.1552 18C21.4198 18 20.7475 17.8112 20.1382 17.4337C19.5289 17.0561 19.0562 16.551 18.72 15.9184L17.8061 14.1122C17.638 13.7653 17.3859 13.5102 17.0497 13.3469C16.7135 13.1837 16.3564 13.102 15.9782 13.102H9.9903C9.61212 13.102 9.25495 13.1837 8.91879 13.3469C8.58263 13.5102 8.3305 13.7653 8.16242 14.1122L7.24848 15.9184C6.93333 16.5714 6.46586 17.0816 5.84606 17.449C5.22626 17.8163 4.54869 18 3.81333 18ZM3.90788 17.1429C4.45414 17.1429 4.95838 17 5.42061 16.7143C5.88283 16.4286 6.22949 16.051 6.46061 15.5816L7.34303 13.8061C7.59515 13.3163 7.96283 12.9337 8.44606 12.6582C8.92929 12.3827 9.44404 12.2449 9.9903 12.2449H15.9782C16.5455 12.2449 17.0655 12.3929 17.5382 12.6888C18.0109 12.9847 18.3838 13.3673 18.657 13.8367L19.5394 15.5816C19.7705 16.051 20.1172 16.4286 20.5794 16.7143C21.0416 17 21.5459 17.1429 22.0921 17.1429C22.9115 17.1429 23.6154 16.8724 24.2036 16.3316C24.7919 15.7908 25.0861 15.1327 25.0861 14.3571C25.0861 14.2959 25.0545 14.0408 24.9915 13.5918L22.3442 3.33673C22.1552 2.62245 21.7612 2.03061 21.1624 1.56122C20.5636 1.09184 19.8861 0.857143 19.1297 0.857143H6.83879C6.06141 0.857143 5.37333 1.09184 4.77455 1.56122C4.17576 2.03061 3.79232 2.62245 3.62424 3.33673L0.97697 13.5918C0.95596 13.6735 0.924444 13.9184 0.882424 14.3265C0.882424 15.1224 1.18182 15.7908 1.78061 16.3316C2.37939 16.8724 3.08848 17.1429 3.90788 17.1429ZM15.4897 7.14796C15.6683 6.97449 15.7576 6.77551 15.7576 6.55102C15.7576 6.32653 15.6683 6.12755 15.4897 5.95408C15.3111 5.78061 15.1063 5.69388 14.8752 5.69388C14.644 5.69388 14.4392 5.78061 14.2606 5.95408C14.082 6.12755 13.9927 6.32653 13.9927 6.55102C13.9927 6.77551 14.082 6.97449 14.2606 7.14796C14.4392 7.32143 14.644 7.40816 14.8752 7.40816C15.1063 7.40816 15.3111 7.32143 15.4897 7.14796ZM18.0109 4.69898C18.1895 4.52551 18.2788 4.32653 18.2788 4.10204C18.2788 3.87755 18.1895 3.67857 18.0109 3.5051C17.8323 3.33163 17.6275 3.2449 17.3964 3.2449C17.1653 3.2449 16.9604 3.33163 16.7818 3.5051C16.6032 3.67857 16.5139 3.87755 16.5139 4.10204C16.5139 4.32653 16.6032 4.52551 16.7818 4.69898C16.9604 4.87245 17.1653 4.95918 17.3964 4.95918C17.6275 4.95918 17.8323 4.87245 18.0109 4.69898ZM18.0109 9.59694C18.1895 9.42347 18.2788 9.22449 18.2788 9C18.2788 8.77551 18.1895 8.57653 18.0109 8.40306C17.8323 8.22959 17.6275 8.14286 17.3964 8.14286C17.1653 8.14286 16.9604 8.22959 16.7818 8.40306C16.6032 8.57653 16.5139 8.77551 16.5139 9C16.5139 9.22449 16.6032 9.42347 16.7818 9.59694C16.9604 9.77041 17.1653 9.85714 17.3964 9.85714C17.6275 9.85714 17.8323 9.77041 18.0109 9.59694ZM20.5321 7.14796C20.7107 6.97449 20.8 6.77551 20.8 6.55102C20.8 6.32653 20.7107 6.12755 20.5321 5.95408C20.3535 5.78061 20.1487 5.69388 19.9176 5.69388C19.6865 5.69388 19.4816 5.78061 19.303 5.95408C19.1244 6.12755 19.0352 6.32653 19.0352 6.55102C19.0352 6.77551 19.1244 6.97449 19.303 7.14796C19.4816 7.32143 19.6865 7.40816 19.9176 7.40816C20.1487 7.40816 20.3535 7.32143 20.5321 7.14796ZM8.88727 9C8.97131 8.91837 9.01333 8.81633 9.01333 8.69388V6.97959H10.7782C10.9042 6.97959 11.0093 6.93878 11.0933 6.85714C11.1774 6.77551 11.2194 6.67347 11.2194 6.55102C11.2194 6.42857 11.1774 6.32653 11.0933 6.2449C11.0093 6.16327 10.9042 6.12245 10.7782 6.12245H9.01333V4.40816C9.01333 4.28571 8.97131 4.18367 8.88727 4.10204C8.80323 4.02041 8.69818 3.97959 8.57212 3.97959C8.44606 3.97959 8.34101 4.02041 8.25697 4.10204C8.17293 4.18367 8.13091 4.28571 8.13091 4.40816V6.12245H6.36606C6.24 6.12245 6.13495 6.16327 6.05091 6.2449C5.96687 6.32653 5.92485 6.42857 5.92485 6.55102C5.92485 6.67347 5.96687 6.77551 6.05091 6.85714C6.13495 6.93878 6.24 6.97959 6.36606 6.97959H8.13091V8.69388C8.13091 8.81633 8.17293 8.91837 8.25697 9C8.34101 9.08163 8.44606 9.12245 8.57212 9.12245C8.69818 9.12245 8.80323 9.08163 8.88727 9Z" fill="#83B59F"/>
</svg>
