<svg width="14" height="18" viewBox="0 0 14 18" fill="none" xmlns="http://www.w3.org/2000/svg">
<path d="M1.52744 18V14.8866C1.52744 14.5883 1.60426 14.3192 1.75791 14.0792C1.91156 13.8392 2.12395 13.6504 2.39509 13.5129L7.38412 11.063V8.04585L3.15429 10.1347C3.00968 10.2206 2.85342 10.2765 2.68549 10.3023C2.51774 10.3281 2.3499 10.341 2.18198 10.341C1.78177 10.341 1.40416 10.2405 1.04914 10.0395C0.693944 9.83871 0.419548 9.54997 0.225952 9.1733C0.0451904 8.83427 -0.0271143 8.47564 0.00903809 8.09742C0.0451904 7.7192 0.171724 7.37536 0.388638 7.0659L3.61524 2.29513L2.04261 0H6.81472C8.82118 0 10.5203 0.686991 11.9122 2.06097C13.3041 3.43496 14 5.11186 14 7.09169V18H1.52744ZM2.31375 17.2779H13.2408V7.09169C13.2408 5.32229 12.6161 3.81834 11.3667 2.57983C10.1171 1.34132 8.59974 0.722063 6.81472 0.722063H3.47966L4.53712 2.29513L1.01227 7.47851C0.867657 7.68481 0.790833 7.90779 0.781795 8.14745C0.772757 8.38711 0.822466 8.61971 0.930923 8.84527C1.07553 9.13754 1.26461 9.33954 1.49815 9.45129C1.7317 9.56304 1.95837 9.61891 2.17818 9.61891C2.21433 9.61891 2.42221 9.57593 2.80181 9.48997L8.17043 6.8596V11.5014L2.77469 14.1576C2.63008 14.2264 2.51711 14.3252 2.43577 14.4542C2.35442 14.5831 2.31375 14.7249 2.31375 14.8797V17.2779Z" fill="#83B59F"/>
</svg>
