<svg width="18" height="18" viewBox="0 0 18 18" fill="none" xmlns="http://www.w3.org/2000/svg">
<path d="M9 0C7.21997 0 5.47991 0.527841 3.99987 1.51677C2.51983 2.50571 1.36628 3.91131 0.685088 5.55585C0.00389942 7.20038 -0.17433 9.00998 0.172937 10.7558C0.520203 12.5016 1.37737 14.1053 2.63604 15.364C3.89471 16.6226 5.49836 17.4798 7.24419 17.8271C8.99002 18.1743 10.7996 17.9961 12.4442 17.3149C14.0887 16.6337 15.4943 15.4802 16.4832 14.0001C17.4722 12.5201 18 10.78 18 9C17.9974 6.61385 17.0483 4.32619 15.3611 2.63893C13.6738 0.951673 11.3861 0.00262044 9 0ZM17.2728 8.6796C14.2407 10.9035 12.0033 10.0701 9.7182 8.9496C11.8368 7.5222 13.8447 5.8941 13.6188 2.1267C14.7008 2.85415 15.5957 3.82682 16.2306 4.96552C16.8656 6.10423 17.2227 7.37679 17.2728 8.6796ZM12.8574 1.6749C13.266 5.4117 11.43 6.93 9.3195 8.3547C9.1395 5.8059 8.7372 3.2526 5.3595 1.5642C6.52946 0.990623 7.81842 0.701674 9.12127 0.720911C10.4241 0.740149 11.704 1.06703 12.8565 1.6749H12.8574ZM4.59 1.9962C8.0298 3.5109 8.4267 5.8662 8.6022 8.4006C6.3072 7.2792 3.8925 6.3531 0.741604 8.4348C0.831507 7.13455 1.22686 5.87385 1.89554 4.75511C2.56422 3.63636 3.48737 2.69113 4.59 1.9962ZM0.729004 9.3204C3.7611 7.0965 5.9985 7.9299 8.2836 9.0459C6.165 10.4733 4.1571 12.1059 4.383 15.8688C3.3013 15.142 2.40644 14.1701 1.77119 13.0322C1.13594 11.8944 0.778245 10.6226 0.727204 9.3204H0.729004ZM5.1444 16.3251C4.734 12.5883 6.57 11.07 8.6805 9.6453C8.8605 12.1941 9.2628 14.7474 12.6405 16.4358C11.4705 17.0094 10.1816 17.2983 8.87873 17.2791C7.57588 17.2598 6.29602 16.933 5.1435 16.3251H5.1444ZM13.41 16.0038C9.9702 14.4891 9.5733 12.1338 9.3978 9.5994C10.6965 10.2339 12.0339 10.8063 13.5207 10.8063C14.661 10.8063 15.8904 10.4697 17.2584 9.5661C17.1684 10.8662 16.773 12.1268 16.1044 13.2453C15.4357 14.3639 14.5126 15.309 13.41 16.0038Z" fill="#83B59F"/>
</svg>
