<svg width="18" height="18" viewBox="0 0 18 18" fill="none" xmlns="http://www.w3.org/2000/svg">
<path d="M5.24513 14.0114C5.41071 13.8458 5.49351 13.6364 5.49351 13.3831C5.49351 13.1299 5.41071 12.9205 5.24513 12.7549C5.07955 12.5893 4.87013 12.5065 4.61688 12.5065C4.36364 12.5065 4.15422 12.5893 3.98864 12.7549C3.82305 12.9205 3.74026 13.1299 3.74026 13.3831C3.74026 13.6364 3.82305 13.8458 3.98864 14.0114C4.15422 14.1769 4.36364 14.2597 4.61688 14.2597C4.87013 14.2597 5.07955 14.1769 5.24513 14.0114ZM5.24513 5.24513C5.41071 5.07955 5.49351 4.87013 5.49351 4.61688C5.49351 4.36364 5.41071 4.15422 5.24513 3.98864C5.07955 3.82305 4.87013 3.74026 4.61688 3.74026C4.36364 3.74026 4.15422 3.82305 3.98864 3.98864C3.82305 4.15422 3.74026 4.36364 3.74026 4.61688C3.74026 4.87013 3.82305 5.07955 3.98864 5.24513C4.15422 5.41071 4.36364 5.49351 4.61688 5.49351C4.87013 5.49351 5.07955 5.41071 5.24513 5.24513ZM9.62825 9.62825C9.79383 9.46266 9.87662 9.25325 9.87662 9C9.87662 8.74675 9.79383 8.53734 9.62825 8.37175C9.46266 8.20617 9.25325 8.12338 9 8.12338C8.74675 8.12338 8.53734 8.20617 8.37175 8.37175C8.20617 8.53734 8.12338 8.74675 8.12338 9C8.12338 9.25325 8.20617 9.46266 8.37175 9.62825C8.53734 9.79383 8.74675 9.87662 9 9.87662C9.25325 9.87662 9.46266 9.79383 9.62825 9.62825ZM14.0114 14.0114C14.1769 13.8458 14.2597 13.6364 14.2597 13.3831C14.2597 13.1299 14.1769 12.9205 14.0114 12.7549C13.8458 12.5893 13.6364 12.5065 13.3831 12.5065C13.1299 12.5065 12.9205 12.5893 12.7549 12.7549C12.5893 12.9205 12.5065 13.1299 12.5065 13.3831C12.5065 13.6364 12.5893 13.8458 12.7549 14.0114C12.9205 14.1769 13.1299 14.2597 13.3831 14.2597C13.6364 14.2597 13.8458 14.1769 14.0114 14.0114ZM14.0114 5.24513C14.1769 5.07955 14.2597 4.87013 14.2597 4.61688C14.2597 4.36364 14.1769 4.15422 14.0114 3.98864C13.8458 3.82305 13.6364 3.74026 13.3831 3.74026C13.1299 3.74026 12.9205 3.82305 12.7549 3.98864C12.5893 4.15422 12.5065 4.36364 12.5065 4.61688C12.5065 4.87013 12.5893 5.07955 12.7549 5.24513C12.9205 5.41071 13.1299 5.49351 13.3831 5.49351C13.6364 5.49351 13.8458 5.41071 14.0114 5.24513ZM1.75325 18C1.24675 18 0.827922 17.8344 0.496753 17.5032C0.165584 17.1721 0 16.7532 0 16.2468V1.75325C0 1.24675 0.165584 0.827922 0.496753 0.496753C0.827922 0.165584 1.24675 0 1.75325 0H16.2468C16.7532 0 17.1721 0.165584 17.5032 0.496753C17.8344 0.827922 18 1.24675 18 1.75325V16.2468C18 16.7532 17.8344 17.1721 17.5032 17.5032C17.1721 17.8344 16.7532 18 16.2468 18H1.75325ZM1.75325 17.1818H16.2468C16.4805 17.1818 16.6948 17.0844 16.8896 16.8896C17.0844 16.6948 17.1818 16.4805 17.1818 16.2468V1.75325C17.1818 1.51948 17.0844 1.30519 16.8896 1.11039C16.6948 0.915584 16.4805 0.818182 16.2468 0.818182H1.75325C1.51948 0.818182 1.30519 0.915584 1.11039 1.11039C0.915584 1.30519 0.818182 1.51948 0.818182 1.75325V16.2468C0.818182 16.4805 0.915584 16.6948 1.11039 16.8896C1.30519 17.0844 1.51948 17.1818 1.75325 17.1818Z" fill="#83B59F"/>
</svg>
