<svg width="18" height="18" viewBox="0 0 18 18" fill="none" xmlns="http://www.w3.org/2000/svg">
<path d="M9 18C7.75862 18 6.59052 17.7629 5.49569 17.2888C4.40086 16.8147 3.44828 16.1724 2.63793 15.3621C1.82759 14.5517 1.18534 13.5991 0.711207 12.5043C0.237069 11.4095 0 10.2414 0 9C0 7.75862 0.237069 6.59052 0.711207 5.49569C1.18534 4.40086 1.82759 3.44828 2.63793 2.63793C3.44828 1.82759 4.40086 1.18534 5.49569 0.711207C6.59052 0.237069 7.75862 0 9 0C10.2414 0 11.4095 0.237069 12.5043 0.711207C13.5991 1.18534 14.5517 1.82759 15.3621 2.63793C16.1724 3.44828 16.8147 4.40086 17.2888 5.49569C17.7629 6.59052 18 7.75862 18 9C18 10.2414 17.7629 11.4095 17.2888 12.5043C16.8147 13.5991 16.1724 14.5517 15.3621 15.3621C14.5517 16.1724 13.5991 16.8147 12.5043 17.2888C11.4095 17.7629 10.2414 18 9 18ZM8.63793 17.2759V15.1034C7.91379 15.069 7.24138 14.9181 6.62069 14.6509C6 14.3836 5.43966 14.0259 4.93966 13.5776L3.38793 15.1034C4.09483 15.7414 4.89224 16.2543 5.78017 16.6422C6.6681 17.0302 7.62069 17.2414 8.63793 17.2759ZM9.36207 17.2759C10.3793 17.2414 11.3276 17.0302 12.2069 16.6422C13.0862 16.2543 13.8793 15.7414 14.5862 15.1034L13.0603 13.5776C12.5603 14.0259 12 14.3836 11.3793 14.6509C10.7586 14.9181 10.0862 15.069 9.36207 15.1034V17.2759ZM9 14.4052C10.5 14.4052 11.7759 13.8793 12.8276 12.8276C13.8793 11.7759 14.4052 10.5 14.4052 9C14.4052 7.5 13.8793 6.22414 12.8276 5.17241C11.7759 4.12069 10.5 3.59483 9 3.59483C7.5 3.59483 6.22414 4.12069 5.17241 5.17241C4.12069 6.22414 3.59483 7.5 3.59483 9C3.59483 10.5 4.12069 11.7759 5.17241 12.8276C6.22414 13.8793 7.5 14.4052 9 14.4052ZM15.1034 14.6121C15.7414 13.9052 16.2543 13.1078 16.6422 12.2198C17.0302 11.3319 17.2414 10.3793 17.2759 9.36207H15.1034C15.069 10.0862 14.9181 10.7586 14.6509 11.3793C14.3836 12 14.0259 12.5603 13.5776 13.0603L15.1034 14.6121ZM2.89655 14.6121L4.42241 13.0603C3.97414 12.5603 3.61638 12 3.34914 11.3793C3.0819 10.7586 2.93103 10.0862 2.89655 9.36207H0.724138C0.758621 10.3793 0.969828 11.3319 1.35776 12.2198C1.74569 13.1078 2.25862 13.9052 2.89655 14.6121ZM9 12.3621L6.46552 9L9 5.63793L11.5086 9L9 12.3621ZM0.724138 8.63793H2.89655C2.93103 7.91379 3.0819 7.24138 3.34914 6.62069C3.61638 6 3.97414 5.43966 4.42241 4.93966L2.89655 3.41379C2.25862 4.12069 1.74569 4.91379 1.35776 5.7931C0.969828 6.67241 0.758621 7.62069 0.724138 8.63793ZM15.1034 8.63793H17.2759C17.2414 7.62069 17.0302 6.67241 16.6422 5.7931C16.2543 4.91379 15.7414 4.12069 15.1034 3.41379L13.5776 4.93966C14.0259 5.43966 14.3836 6 14.6509 6.62069C14.9181 7.24138 15.069 7.91379 15.1034 8.63793ZM4.93966 4.42241C5.43966 3.97414 6 3.61638 6.62069 3.34914C7.24138 3.0819 7.91379 2.93103 8.63793 2.89655V0.724138C7.62069 0.758621 6.6681 0.969828 5.78017 1.35776C4.89224 1.74569 4.09483 2.25862 3.38793 2.89655L4.93966 4.42241ZM13.0603 4.42241L14.5862 2.89655C13.8793 2.25862 13.0862 1.74569 12.2069 1.35776C11.3276 0.969828 10.3793 0.758621 9.36207 0.724138V2.89655C10.0862 2.93103 10.7586 3.0819 11.3793 3.34914C12 3.61638 12.5603 3.97414 13.0603 4.42241Z" fill="#83B59F"/>
</svg>
