<svg width="19" height="18" viewBox="0 0 19 18" fill="none" xmlns="http://www.w3.org/2000/svg">
<path d="M9.83689 9.20261L11.8456 8.05229L13.8544 9.20261L13.304 7.03268L15.0926 5.56863L12.7537 5.38562L11.8456 3.34641L10.9376 5.38562L8.59864 5.56863L10.3872 7.03268L9.83689 9.20261ZM16.1383 15.6863H16.4134C16.4501 15.878 16.3997 16.0479 16.2621 16.1961C16.1245 16.3442 15.9548 16.4357 15.753 16.4706L3.17782 17.9869C2.71921 18.0392 2.31104 17.9346 1.95332 17.6732C1.5956 17.4118 1.38923 17.0632 1.33419 16.6275L0.0133866 6.84967C-0.0416471 6.41394 0.0730064 6.01743 0.357347 5.66013C0.641688 5.30283 1.01316 5.10675 1.47178 5.0719L2.4899 5.01961V5.75163L1.60936 5.80392C1.35254 5.82135 1.15075 5.92157 1.00399 6.10458C0.857236 6.28758 0.802202 6.50109 0.838891 6.7451L2.10467 16.5229C2.14135 16.7669 2.25142 16.9586 2.43487 17.098C2.61831 17.2375 2.83845 17.2898 3.09527 17.2549L16.1383 15.6863ZM6.34226 13.5948C5.8653 13.5948 5.47089 13.4466 5.15903 13.1503C4.84718 12.854 4.69125 12.4793 4.69125 12.0261V1.56863C4.69125 1.11547 4.84718 0.740741 5.15903 0.444444C5.47089 0.148148 5.8653 0 6.34226 0H17.349C17.8259 0 18.2204 0.148148 18.5322 0.444444C18.8441 0.740741 19 1.11547 19 1.56863V12.0261C19 12.4793 18.8441 12.854 18.5322 13.1503C18.2204 13.4466 17.8259 13.5948 17.349 13.5948H6.34226ZM6.34226 12.8627H17.349C17.6058 12.8627 17.8168 12.7843 17.9819 12.6275C18.147 12.4706 18.2295 12.2702 18.2295 12.0261V1.56863C18.2295 1.32462 18.147 1.12418 17.9819 0.96732C17.8168 0.810458 17.6058 0.732026 17.349 0.732026H6.34226C6.08543 0.732026 5.87447 0.810458 5.70937 0.96732C5.54427 1.12418 5.46172 1.32462 5.46172 1.56863V12.0261C5.46172 12.2702 5.54427 12.4706 5.70937 12.6275C5.87447 12.7843 6.08543 12.8627 6.34226 12.8627Z" fill="#83B59F"/>
</svg>
