<svg width="16" height="18" viewBox="0 0 16 18" fill="none" xmlns="http://www.w3.org/2000/svg">
<path d="M0.835821 17.1831H15.1642V15.8703C15.1642 15.5981 15.0746 15.3744 14.8955 15.1994C14.7164 15.0243 14.4876 14.9368 14.209 14.9368H1.79104C1.51244 14.9368 1.28358 15.0243 1.10448 15.1994C0.925373 15.3744 0.835821 15.5981 0.835821 15.8703V17.1831ZM3.8209 14.1199H12.1791L11.3134 8.25608H4.68657L3.8209 14.1199ZM0 18V15.8703C0 15.389 0.175423 14.9769 0.526269 14.634C0.876916 14.2913 1.29851 14.1199 1.79104 14.1199H2.98507L3.85075 8.25608H1.19403V7.43922H14.806V8.25608H12.1493L13.0149 14.1199H14.2018C14.7041 14.1199 15.1294 14.2913 15.4776 14.634C15.8259 14.9769 16 15.389 16 15.8703V18H0ZM3.8209 7.43922L2.14925 0.0291734C2.68657 0.340357 3.16975 0.559157 3.59881 0.685575C4.02806 0.811993 4.5001 0.875203 5.01493 0.875203C5.63184 0.875203 6.18905 0.797407 6.68657 0.641815C7.18408 0.486224 7.62189 0.272285 8 0C8.37811 0.272285 8.81642 0.486224 9.31492 0.641815C9.81323 0.797407 10.36 0.875203 10.9552 0.875203C11.4129 0.875203 11.8458 0.816856 12.2537 0.700162C12.6617 0.583468 13.204 0.359805 13.8806 0.0291734L12.1791 7.43922H11.3134L12.7164 1.37115C12.4179 1.4684 12.1144 1.54619 11.806 1.60454C11.4975 1.66288 11.1741 1.69206 10.8358 1.69206C10.3309 1.69206 9.83652 1.63371 9.35254 1.51702C8.86876 1.40032 8.41791 1.22528 8 0.991896C7.58209 1.22528 7.12806 1.40032 6.63791 1.51702C6.14776 1.63371 5.64657 1.69206 5.13433 1.69206C4.81592 1.69206 4.50746 1.67261 4.20896 1.63371C3.91045 1.59481 3.61194 1.52674 3.31343 1.4295L4.68657 7.43922H3.8209Z" fill="#83B59F"/>
</svg>
