<svg width="16" height="18" viewBox="0 0 16 18" fill="none" xmlns="http://www.w3.org/2000/svg">
<path d="M0 18V0L1.24675 0.857143L2.5974 0L3.94805 0.857143L5.2987 0L6.64935 0.857143L8 0L9.35065 0.857143L10.7013 0L12.0519 0.857143L13.4026 0L14.7532 0.857143L16 0V18L14.7532 17.1429L13.4026 18L12.0519 17.1429L10.7013 18L9.35065 17.1429L8 18L6.64935 17.1429L5.2987 18L3.94805 17.1429L2.5974 18L1.24675 17.1429L0 18ZM2.44156 12.8036H13.5584V12.0536H2.44156V12.8036ZM2.44156 9.375H13.5584V8.625H2.44156V9.375ZM2.44156 5.94643H13.5584V5.19643H2.44156V5.94643ZM0.727273 16.6071H15.2727V1.39286H0.727273V16.6071Z" fill="#83B59F"/>
</svg>
