<svg width="17" height="18" viewBox="0 0 17 18" fill="none" xmlns="http://www.w3.org/2000/svg">
<path d="M0 18V17.3152H17V18H0ZM1.95402 16.0435V11.837C1.3841 10.6467 0.956657 9.52582 0.671695 8.47418C0.386734 7.42255 0.244253 6.44837 0.244253 5.55163C0.244253 4.85054 0.333812 4.10462 0.512931 3.31386C0.69205 2.5231 0.993295 1.55707 1.41667 0.415761C1.44923 0.30163 1.50623 0.203804 1.58764 0.122283C1.66906 0.0407609 1.7749 0 1.90517 0C2.03544 0 2.14128 0.0611413 2.2227 0.183424C2.30412 0.305707 2.33669 0.440217 2.3204 0.586957L2.07615 2.54348C1.97845 3.42391 2.09243 4.2962 2.4181 5.16033C2.74377 6.02446 3.21193 6.79891 3.82256 7.4837C4.43319 8.16848 5.14559 8.72283 5.95977 9.14674C6.77395 9.57065 7.62069 9.78261 8.5 9.78261C9.52586 9.78261 10.4296 9.84375 11.2112 9.96603C11.9928 10.0883 12.6523 10.2717 13.1897 10.5163C13.7759 10.7935 14.2318 11.1522 14.5575 11.5924C14.8831 12.0326 15.046 12.587 15.046 13.2554V16.0435H1.95402ZM2.63793 15.3587H14.3621V13.2554C14.3621 12.7826 14.2399 12.3709 13.9957 12.0204C13.7514 11.6698 13.3851 11.3804 12.8966 11.1522C12.408 10.9239 11.7974 10.7527 11.0647 10.6386C10.3319 10.5245 9.47701 10.4674 8.5 10.4674C7.52299 10.4674 6.58261 10.231 5.67888 9.75815C4.77514 9.28533 3.98539 8.66984 3.30963 7.91168C2.63386 7.15353 2.12093 6.29755 1.77083 5.34375C1.42074 4.38995 1.30268 3.42391 1.41667 2.44565C1.25383 2.93478 1.13578 3.44022 1.0625 3.96196C0.989224 4.4837 0.952586 5.01359 0.952586 5.55163C0.952586 6.35054 1.091 7.24321 1.36782 8.22962C1.64464 9.21603 2.06801 10.3533 2.63793 11.6413V15.3587ZM6.63147 7.44701C6.11853 6.93342 5.86207 6.30978 5.86207 5.57609C5.86207 4.84239 6.11853 4.21875 6.63147 3.70516C7.1444 3.19158 7.76724 2.93478 8.5 2.93478C9.23276 2.93478 9.8556 3.19158 10.3685 3.70516C10.8815 4.21875 11.1379 4.84239 11.1379 5.57609C11.1379 6.30978 10.8815 6.93342 10.3685 7.44701C9.8556 7.9606 9.23276 8.21739 8.5 8.21739C7.76724 8.21739 7.1444 7.9606 6.63147 7.44701ZM9.88003 6.95788C10.2627 6.57473 10.454 6.11413 10.454 5.57609C10.454 5.03804 10.2627 4.57745 9.88003 4.19429C9.49737 3.81114 9.03736 3.61957 8.5 3.61957C7.96264 3.61957 7.50263 3.81114 7.11997 4.19429C6.73731 4.57745 6.54598 5.03804 6.54598 5.57609C6.54598 6.11413 6.73731 6.57473 7.11997 6.95788C7.50263 7.34103 7.96264 7.53261 8.5 7.53261C9.03736 7.53261 9.49737 7.34103 9.88003 6.95788ZM5.27586 16.0435V15.7989C5.27586 14.9348 5.58118 14.2052 6.19181 13.6101C6.80244 13.0149 7.53927 12.7174 8.4023 12.7174H11.5287V13.4022H8.4023C7.71839 13.4022 7.14033 13.6345 6.6681 14.0992C6.19588 14.5639 5.95977 15.1304 5.95977 15.7989V16.0435H5.27586Z" fill="#83B59F"/>
</svg>
