<svg width="18" height="18" viewBox="0 0 18 18" fill="none" xmlns="http://www.w3.org/2000/svg">
<path d="M8.94828 18C7.72414 18 6.56897 17.7629 5.48276 17.2888C4.39655 16.8147 3.44828 16.1724 2.63793 15.3621C1.82759 14.5517 1.18534 13.5991 0.711207 12.5043C0.237069 11.4095 0 10.2414 0 9C0 7.74138 0.241379 6.56466 0.724138 5.46983C1.2069 4.375 1.86638 3.42241 2.70259 2.61207C3.53879 1.80172 4.52155 1.16379 5.65086 0.698276C6.78017 0.232759 7.98276 0 9.25862 0C10.4138 0 11.5172 0.193966 12.569 0.581897C13.6207 0.969828 14.5474 1.50862 15.3491 2.19828C16.1509 2.88793 16.7931 3.71121 17.2759 4.6681C17.7586 5.625 18 6.67241 18 7.81035C18 9.2931 17.5819 10.5 16.7457 11.431C15.9095 12.3621 14.7069 12.8276 13.1379 12.8276H11.3276C10.8103 12.8276 10.3707 13.0086 10.0086 13.3707C9.64655 13.7328 9.46552 14.1724 9.46552 14.6897C9.46552 15.1897 9.59483 15.5776 9.85345 15.8534C10.1121 16.1293 10.2414 16.4483 10.2414 16.8103C10.2414 17.2069 10.1293 17.5043 9.90517 17.7026C9.68103 17.9009 9.36207 18 8.94828 18ZM3.93103 9.10345C4.10345 8.93103 4.18966 8.72414 4.18966 8.48276C4.18966 8.24138 4.10345 8.03448 3.93103 7.86207C3.75862 7.68966 3.55172 7.60345 3.31034 7.60345C3.06897 7.60345 2.86207 7.68966 2.68966 7.86207C2.51724 8.03448 2.43103 8.24138 2.43103 8.48276C2.43103 8.72414 2.51724 8.93103 2.68966 9.10345C2.86207 9.27586 3.06897 9.36207 3.31034 9.36207C3.55172 9.36207 3.75862 9.27586 3.93103 9.10345ZM7.03448 4.96552C7.2069 4.7931 7.2931 4.58621 7.2931 4.34483C7.2931 4.10345 7.2069 3.89655 7.03448 3.72414C6.86207 3.55172 6.65517 3.46552 6.41379 3.46552C6.17241 3.46552 5.96552 3.55172 5.7931 3.72414C5.62069 3.89655 5.53448 4.10345 5.53448 4.34483C5.53448 4.58621 5.62069 4.7931 5.7931 4.96552C5.96552 5.13793 6.17241 5.22414 6.41379 5.22414C6.65517 5.22414 6.86207 5.13793 7.03448 4.96552ZM12.2069 4.96552C12.3793 4.7931 12.4655 4.58621 12.4655 4.34483C12.4655 4.10345 12.3793 3.89655 12.2069 3.72414C12.0345 3.55172 11.8276 3.46552 11.5862 3.46552C11.3448 3.46552 11.1379 3.55172 10.9655 3.72414C10.7931 3.89655 10.7069 4.10345 10.7069 4.34483C10.7069 4.58621 10.7931 4.7931 10.9655 4.96552C11.1379 5.13793 11.3448 5.22414 11.5862 5.22414C11.8276 5.22414 12.0345 5.13793 12.2069 4.96552ZM15.3103 9.10345C15.4828 8.93103 15.569 8.72414 15.569 8.48276C15.569 8.24138 15.4828 8.03448 15.3103 7.86207C15.1379 7.68966 14.931 7.60345 14.6897 7.60345C14.4483 7.60345 14.2414 7.68966 14.069 7.86207C13.8966 8.03448 13.8103 8.24138 13.8103 8.48276C13.8103 8.72414 13.8966 8.93103 14.069 9.10345C14.2414 9.27586 14.4483 9.36207 14.6897 9.36207C14.931 9.36207 15.1379 9.27586 15.3103 9.10345ZM8.94828 17.2759C9.13793 17.2759 9.28017 17.2371 9.375 17.1595C9.46983 17.0819 9.51724 16.9655 9.51724 16.8103C9.51724 16.569 9.38793 16.319 9.12931 16.0603C8.87069 15.8017 8.74138 15.3621 8.74138 14.7414C8.74138 13.9828 8.99138 13.3534 9.49138 12.8534C9.99138 12.3534 10.6034 12.1034 11.3276 12.1034H13.1379C14.4828 12.1034 15.5086 11.7069 16.2155 10.9138C16.9224 10.1207 17.2759 9.08621 17.2759 7.81035C17.2759 5.7069 16.4655 4 14.8448 2.68966C13.2241 1.37931 11.3621 0.724138 9.25862 0.724138C6.86207 0.724138 4.84052 1.52586 3.19397 3.12931C1.54741 4.73276 0.724138 6.68966 0.724138 9C0.724138 11.2931 1.53017 13.2457 3.14224 14.8578C4.75431 16.4698 6.68966 17.2759 8.94828 17.2759Z" fill="#83B59F"/>
</svg>
