<svg width="17" height="18" viewBox="0 0 17 18" fill="none" xmlns="http://www.w3.org/2000/svg">
<path d="M6.21951 10.319H6.94512V6.72414H6.21951V10.319ZM2.35823 9.28448C1.66717 8.93966 1.10137 8.44828 0.660823 7.81035C0.220274 7.17241 0 6.46552 0 5.68966C0 4.68966 0.354167 3.83621 1.0625 3.12931C1.77083 2.42241 2.62602 2.06897 3.62805 2.06897C3.83122 2.06897 4.03854 2.08621 4.25 2.12069C4.46146 2.15517 4.66878 2.19828 4.87195 2.25L5.10518 2.30172L5.23476 2.09483C5.59756 1.49138 6.05971 0.991379 6.62119 0.594828C7.18267 0.198276 7.80894 0 8.5 0C9.19106 0 9.81733 0.198276 10.3788 0.594828C10.9403 0.991379 11.4111 1.49138 11.7912 2.09483L11.9207 2.30172L12.128 2.25C12.3228 2.19828 12.5174 2.15517 12.7119 2.12069C12.9066 2.08621 13.1093 2.06897 13.3201 2.06897C14.3394 2.06897 15.2076 2.42207 15.9245 3.12828C16.6415 3.83448 17 4.6969 17 5.71552C17 6.49138 16.784 7.19397 16.3521 7.82328C15.9202 8.45259 15.3501 8.93776 14.6418 9.27879V14.1724H2.35823V9.28448ZM10.0808 10.319H10.8064V6.72414H10.0808V10.319ZM3.08384 13.4483H13.9162V8.7931L14.6677 8.43103C15.1687 8.18966 15.5661 7.82759 15.8598 7.34483C16.1535 6.86207 16.3003 6.33388 16.3003 5.76026C16.3003 4.9294 16.0023 4.22716 15.4062 3.65354C14.8102 3.07991 14.0976 2.7931 13.2683 2.7931C13.0955 2.7931 12.9271 2.80603 12.763 2.8319C12.5988 2.85776 12.439 2.89655 12.2835 2.94828L11.5838 3.15517L11.1692 2.4569C10.8755 1.9569 10.4997 1.5431 10.0419 1.21552C9.5841 0.887931 9.07444 0.724138 8.51296 0.724138C7.95147 0.724138 7.44182 0.887931 6.98399 1.21552C6.52617 1.5431 6.15041 1.9569 5.85671 2.4569L5.44207 3.15517L4.71646 2.94828C4.56098 2.89655 4.40117 2.85776 4.23704 2.8319C4.07292 2.80603 3.90447 2.7931 3.73171 2.7931C2.90244 2.7931 2.19411 3.07802 1.60671 3.64784C1.01931 4.2175 0.72561 4.91491 0.72561 5.74009C0.72561 6.30991 0.871423 6.83457 1.16305 7.31405C1.4545 7.79353 1.8529 8.16586 2.35823 8.43103L3.08384 8.7931V13.4483ZM2.35823 14.1724H3.08384V17.2759H13.9162V14.1724H14.6418V18H2.35823V14.1724Z" fill="#83B59F"/>
</svg>
