<svg width="20" height="18" viewBox="0 0 20 18" fill="none" xmlns="http://www.w3.org/2000/svg">
<path d="M0.446429 17.7727L0 17.3182L3.125 14.1364L2.00893 11.1364C1.93452 10.9545 1.92336 10.7348 1.97545 10.4773C2.02753 10.2197 2.14286 10 2.32143 9.81818L5.26786 6.81818C5.3869 6.69697 5.51339 6.60606 5.64732 6.54545C5.78125 6.48485 5.9375 6.45455 6.11607 6.45455C6.29464 6.45455 6.45089 6.48485 6.58482 6.54545C6.71875 6.60606 6.84524 6.69697 6.96429 6.81818L8.79464 8.59091C9.21131 9 9.6875 9.32576 10.2232 9.56818C10.7589 9.81061 11.3393 9.9697 11.9643 10.0455V10.6818C11.2649 10.6061 10.6027 10.428 9.97768 10.1477C9.35268 9.86742 8.83929 9.5303 8.4375 9.13636L7.41071 8.13636L4.50893 11.0909L6.60714 13.2727V18H5.98214V13.5455L3.66071 11.3636V14.5L0.446429 17.7727ZM13.125 18V12.5L15.0893 10.5909L14.1964 5.86364C13.6756 6.51515 13.1324 7.10227 12.567 7.625C12.0015 8.14773 11.3542 8.50758 10.625 8.70455C10.4911 8.67424 10.3534 8.625 10.2121 8.55682C10.0707 8.48864 9.94048 8.40152 9.82143 8.29545C10.5208 8.18939 11.2091 7.87879 11.8862 7.36364C12.5632 6.84848 13.0506 6.33333 13.3482 5.81818L14.1964 4.36364C14.375 4.06061 14.6168 3.86742 14.9219 3.78409C15.2269 3.70076 15.5357 3.72727 15.8482 3.86364L20 5.63636V8.90909H19.375V6.04545L16.4286 4.81818L18.9732 18H18.2589L16.5848 10.7955L13.75 12.9091V18H13.125ZM7.82366 6.21591C7.54836 5.93561 7.41071 5.59091 7.41071 5.18182C7.41071 4.77273 7.54836 4.42803 7.82366 4.14773C8.09896 3.86742 8.4375 3.72727 8.83929 3.72727C9.24107 3.72727 9.57961 3.86742 9.85491 4.14773C10.1302 4.42803 10.2679 4.77273 10.2679 5.18182C10.2679 5.59091 10.1302 5.93561 9.85491 6.21591C9.57961 6.49621 9.24107 6.63636 8.83929 6.63636C8.4375 6.63636 8.09896 6.49621 7.82366 6.21591ZM13.2701 2.48864C12.9948 2.20833 12.8571 1.86364 12.8571 1.45455C12.8571 1.04545 12.9948 0.700758 13.2701 0.420455C13.5454 0.140152 13.8839 0 14.2857 0C14.6875 0 15.026 0.140152 15.3013 0.420455C15.5766 0.700758 15.7143 1.04545 15.7143 1.45455C15.7143 1.86364 15.5766 2.20833 15.3013 2.48864C15.026 2.76894 14.6875 2.90909 14.2857 2.90909C13.8839 2.90909 13.5454 2.76894 13.2701 2.48864Z" fill="#83B59F"/>
</svg>
