<svg width="21" height="18" viewBox="0 0 21 18" fill="none" xmlns="http://www.w3.org/2000/svg">
<path d="M0.954545 15.3134V17.5299C0.954545 17.6631 0.908864 17.7748 0.8175 17.865C0.725909 17.955 0.6125 18 0.477273 18C0.342045 18 0.228637 17.955 0.137046 17.865C0.045682 17.7748 0 17.6631 0 17.5299V7.92537L2.65909 0.470149C2.70455 0.313433 2.79773 0.195896 2.93864 0.117537C3.07955 0.0391791 3.23636 0 3.40909 0H17.7273C17.8661 0 17.9922 0.0430962 18.1053 0.12929C18.2185 0.215484 18.297 0.329105 18.3409 0.470149L21 7.92537V17.5299C21 17.6631 20.9542 17.7748 20.8626 17.865C20.7712 17.955 20.658 18 20.5227 18C20.3875 18 20.2742 17.955 20.1828 17.865C20.0913 17.7748 20.0455 17.6631 20.0455 17.5299V15.3134H0.954545ZM1.36364 6.98507H19.6364L17.4545 0.940299H3.54545L1.36364 6.98507ZM4.23545 12.4925C4.61636 12.4925 4.9375 12.3611 5.19886 12.0983C5.46023 11.8357 5.59091 11.5166 5.59091 11.1412C5.59091 10.766 5.4575 10.4496 5.19068 10.1922C4.92409 9.9347 4.60023 9.80597 4.21909 9.80597C3.83818 9.80597 3.51705 9.93739 3.25568 10.2002C2.99432 10.4628 2.86364 10.7819 2.86364 11.1573C2.86364 11.5325 2.99705 11.8489 3.26386 12.1063C3.53045 12.3638 3.85432 12.4925 4.23545 12.4925ZM16.7809 12.4925C17.1618 12.4925 17.483 12.3611 17.7443 12.0983C18.0057 11.8357 18.1364 11.5166 18.1364 11.1412C18.1364 10.766 18.003 10.4496 17.7361 10.1922C17.4695 9.9347 17.1457 9.80597 16.7645 9.80597C16.3836 9.80597 16.0625 9.93739 15.8011 10.2002C15.5398 10.4628 15.4091 10.7819 15.4091 11.1573C15.4091 11.5325 15.5425 11.8489 15.8093 12.1063C16.0759 12.3638 16.3998 12.4925 16.7809 12.4925ZM0.954545 14.3731H20.0455V7.92537H0.954545V14.3731Z" fill="#83B59F"/>
</svg>
