<svg width="16" height="18" viewBox="0 0 16 18" fill="none" xmlns="http://www.w3.org/2000/svg">
<path d="M0 18V9.87402L1.48503 5.59843C1.56487 5.33071 1.72112 5.11811 1.95377 4.96063C2.18643 4.80315 2.43497 4.72441 2.6994 4.72441C2.78403 4.72441 2.87425 4.73622 2.97006 4.75984C3.06587 4.78346 3.15369 4.81102 3.23353 4.84252L7.35329 6.61417H9.29341V7.27559H7.16168L4.07186 5.95276L2.58683 10.3937V18H0ZM5.7485 13.3228V12.6614H16V13.3228H5.7485ZM14.1854 11.7165C13.8941 11.7165 13.6447 11.6161 13.4371 11.4151C13.2295 11.214 13.1257 10.9699 13.1257 10.6828C13.1257 10.3956 13.2276 10.1496 13.4314 9.94488C13.6353 9.74016 13.8828 9.6378 14.1739 9.6378C14.4652 9.6378 14.7146 9.73827 14.9222 9.93921C15.1297 10.1403 15.2335 10.3844 15.2335 10.6715C15.2335 10.9587 15.1317 11.2047 14.9279 11.4094C14.724 11.6142 14.4765 11.7165 14.1854 11.7165ZM9.1018 11.7165C8.70659 11.7165 8.3683 11.5777 8.08695 11.3001C7.80543 11.0226 7.66467 10.689 7.66467 10.2992V8.88189H5.7485V8.22047H7.61677C7.82036 8.22047 7.99106 8.28835 8.12886 8.42409C8.26651 8.56 8.33533 8.72835 8.33533 8.92913V10.1102H11.497V8.22047H12.1677V10.2992C12.1677 10.689 12.027 11.0226 11.7456 11.3001C11.4641 11.5777 11.1257 11.7165 10.7305 11.7165H9.1018ZM3.92814 3.02362C3.50659 3.02362 3.14571 2.87559 2.84551 2.57953C2.54531 2.28346 2.39521 1.92756 2.39521 1.51181C2.39521 1.09606 2.54531 0.740157 2.84551 0.444094C3.14571 0.148031 3.50659 0 3.92814 0C4.3497 0 4.71058 0.148031 5.01078 0.444094C5.31098 0.740157 5.46108 1.09606 5.46108 1.51181C5.46108 1.92756 5.31098 2.28346 5.01078 2.57953C4.71058 2.87559 4.3497 3.02362 3.92814 3.02362Z" fill="#83B59F"/>
</svg>
