<svg width="13" height="18" viewBox="0 0 13 18" fill="none" xmlns="http://www.w3.org/2000/svg">
<path d="M1.69776 18C1.22886 18 0.828669 17.8468 0.497201 17.5403C0.165734 17.2339 0 16.8548 0 16.4032V3.65323C0 3.18548 0.165734 2.77823 0.497201 2.43145C0.828669 2.08468 1.22886 1.8629 1.69776 1.76613L9.89552 0V13.7419L1.47948 15.6048C1.26928 15.6532 1.08333 15.746 0.921642 15.8831C0.75995 16.0202 0.679104 16.1935 0.679104 16.4032C0.679104 16.6774 0.780162 16.8992 0.982276 17.0685C1.18439 17.2379 1.42289 17.3226 1.69776 17.3226H12.3209V3.09677H13V18H1.69776ZM2.81343 14.6371L9.21642 13.2097V0.846774L2.81343 2.22581V14.6371ZM2.13433 14.7823V2.37097L1.69776 2.46774C1.40672 2.53226 1.16418 2.67339 0.970149 2.89113C0.776119 3.10887 0.679104 3.3629 0.679104 3.65323V15.2661C0.808458 15.1855 0.937811 15.1169 1.06716 15.0605C1.19652 15.004 1.33396 14.9597 1.47948 14.9274L2.13433 14.7823Z" fill="#83B59F"/>
</svg>
