<svg width="18" height="18" viewBox="0 0 18 18" fill="none" xmlns="http://www.w3.org/2000/svg">
<path d="M1.75325 18C1.24675 18 0.827922 17.8344 0.496753 17.5032C0.165584 17.1721 0 16.7532 0 16.2468V1.75325C0 1.24675 0.165584 0.827922 0.496753 0.496753C0.827922 0.165584 1.24675 0 1.75325 0H16.2468C16.7532 0 17.1721 0.165584 17.5032 0.496753C17.8344 0.827922 18 1.24675 18 1.75325V16.2468C18 16.7532 17.8344 17.1721 17.5032 17.5032C17.1721 17.8344 16.7532 18 16.2468 18H1.75325ZM1.75325 17.1818H5.23052V11.4545H4.70455C4.43182 11.4545 4.20779 11.3669 4.03247 11.1916C3.85714 11.0162 3.76948 10.7922 3.76948 10.5195V0.818182H1.75325C1.48052 0.818182 1.25649 0.905844 1.08117 1.08117C0.905844 1.25649 0.818182 1.48052 0.818182 1.75325V16.2468C0.818182 16.5195 0.905844 16.7435 1.08117 16.9188C1.25649 17.0942 1.48052 17.1818 1.75325 17.1818ZM12.7695 17.1818H16.2468C16.5195 17.1818 16.7435 17.0942 16.9188 16.9188C17.0942 16.7435 17.1818 16.5195 17.1818 16.2468V1.75325C17.1818 1.48052 17.0942 1.25649 16.9188 1.08117C16.7435 0.905844 16.5195 0.818182 16.2468 0.818182H14.2305V10.5195C14.2305 10.7922 14.1429 11.0162 13.9675 11.1916C13.7922 11.3669 13.5682 11.4545 13.2955 11.4545H12.7695V17.1818ZM6.0487 17.1818H11.9513V11.4545H11.4253C11.1526 11.4545 10.9286 11.3669 10.7532 11.1916C10.5779 11.0162 10.4903 10.7922 10.4903 10.5195V0.818182H7.50974V10.5195C7.50974 10.7922 7.42208 11.0162 7.24675 11.1916C7.07143 11.3669 6.8474 11.4545 6.57468 11.4545H6.0487V17.1818Z" fill="#83B59F"/>
</svg>
