<svg width="19" height="18" viewBox="0 0 19 18" fill="none" xmlns="http://www.w3.org/2000/svg">
<path d="M0.966882 17.0487C0.322294 16.4144 0 15.6443 0 14.7383C0 13.8322 0.322294 13.0621 0.966882 12.4279C1.61147 11.7936 2.39418 11.4765 3.31502 11.4765C3.78568 11.4765 4.23586 11.5671 4.66559 11.7483C5.09532 11.9295 5.46365 12.2013 5.7706 12.5638V2.41611L19 0V12.3221C19 13.2282 18.6777 13.9983 18.0331 14.6326C17.3885 15.2668 16.6058 15.5839 15.685 15.5839C14.7641 15.5839 13.9814 15.2668 13.3368 14.6326C12.6922 13.9983 12.37 13.2282 12.37 12.3221C12.37 11.4161 12.6922 10.646 13.3368 10.0117C13.9814 9.37752 14.7641 9.0604 15.685 9.0604C16.1556 9.0604 16.6058 9.15101 17.0355 9.33221C17.4653 9.51342 17.8336 9.78523 18.1405 10.1477V4.5302L6.63005 6.6443V14.7383C6.63005 15.6443 6.30775 16.4144 5.66317 17.0487C5.01858 17.6829 4.23586 18 3.31502 18C2.39418 18 1.61147 17.6829 0.966882 17.0487Z" fill="#83B59F"/>
</svg>
