<svg width="17" height="18" viewBox="0 0 17 18" fill="none" xmlns="http://www.w3.org/2000/svg">
<path d="M8.01791 16.7C8.05174 16.8333 8.09826 16.9583 8.15746 17.075C8.21667 17.1917 8.28856 17.3 8.37313 17.4H1.52239C1.08259 17.4 0.718905 17.2583 0.431343 16.975C0.143781 16.6917 0 16.3333 0 15.9V1.5C0 1.06667 0.143781 0.708333 0.431343 0.425C0.718905 0.141667 1.08259 0 1.52239 0H12.0776C12.5174 0 12.8811 0.141667 13.1687 0.425C13.4562 0.708333 13.6 1.06667 13.6 1.5V8.625C13.4985 8.60833 13.3801 8.6 13.2448 8.6C13.1095 8.6 12.991 8.60833 12.8896 8.625V1.5C12.8896 1.3 12.805 1.11667 12.6358 0.95C12.4667 0.783333 12.2806 0.7 12.0776 0.7H7.15522V6.65L5.27761 5.55L3.4 6.65V0.7H1.52239C1.3194 0.7 1.13333 0.783333 0.964179 0.95C0.795025 1.11667 0.710448 1.3 0.710448 1.5V15.9C0.710448 16.1 0.795025 16.2833 0.964179 16.45C1.13333 16.6167 1.3194 16.7 1.52239 16.7H8.01791ZM10.5806 16.925C9.85323 16.2083 9.48955 15.3333 9.48955 14.3C9.48955 13.2667 9.85323 12.3917 10.5806 11.675C11.308 10.9583 12.196 10.6 13.2448 10.6C14.2935 10.6 15.1816 10.9583 15.909 11.675C16.6363 12.3917 17 13.2667 17 14.3C17 15.3333 16.6363 16.2083 15.909 16.925C15.1816 17.6417 14.2935 18 13.2448 18C12.196 18 11.308 17.6417 10.5806 16.925ZM12.4836 16L14.8687 14.25L12.4836 12.5V16ZM8.01791 0.7H0.710448H12.8896H7.4597H8.01791Z" fill="#83B59F"/>
</svg>
