<svg width="18" height="18" viewBox="0 0 18 18" fill="none" xmlns="http://www.w3.org/2000/svg">
<path d="M1.55172 18C1.10345 18 0.732759 17.8534 0.439655 17.5603C0.146552 17.2672 0 16.8966 0 16.4483V6.72414C0 6.27586 0.146552 5.90517 0.439655 5.61207C0.732759 5.31897 1.10345 5.17241 1.55172 5.17241H7.24138V0.724138C7.24138 0.517241 7.31035 0.344828 7.44828 0.206897C7.58621 0.0689655 7.75862 0 7.96552 0H10.0345C10.2414 0 10.4138 0.0689655 10.5517 0.206897C10.6897 0.344828 10.7586 0.517241 10.7586 0.724138V5.17241H16.4483C16.8966 5.17241 17.2672 5.31897 17.5603 5.61207C17.8534 5.90517 18 6.27586 18 6.72414V16.4483C18 16.8966 17.8534 17.2672 17.5603 17.5603C17.2672 17.8534 16.8966 18 16.4483 18H1.55172ZM1.55172 17.2759H16.4483C16.6897 17.2759 16.8879 17.1983 17.0431 17.0431C17.1983 16.8879 17.2759 16.6897 17.2759 16.4483V6.72414C17.2759 6.48276 17.1983 6.28448 17.0431 6.12931C16.8879 5.97414 16.6897 5.89655 16.4483 5.89655H10.7586V6.93103C10.7586 7.12069 10.6853 7.28879 10.5388 7.43535C10.3922 7.5819 10.2241 7.65517 10.0345 7.65517H7.96552C7.77586 7.65517 7.60776 7.5819 7.46121 7.43535C7.31466 7.28879 7.24138 7.12069 7.24138 6.93103V5.89655H1.55172C1.31034 5.89655 1.11207 5.97414 0.956897 6.12931C0.801724 6.28448 0.724138 6.48276 0.724138 6.72414V16.4483C0.724138 16.6897 0.801724 16.8879 0.956897 17.0431C1.11207 17.1983 1.31034 17.2759 1.55172 17.2759ZM3.2069 14.431H8.58621V14.3793C8.58621 14.1552 8.52586 13.9526 8.40517 13.7716C8.28448 13.5905 8.12069 13.4483 7.91379 13.3448C7.58621 13.2069 7.25431 13.1034 6.9181 13.0345C6.5819 12.9655 6.24138 12.931 5.89655 12.931C5.55172 12.931 5.21121 12.9655 4.875 13.0345C4.53879 13.1034 4.2069 13.2069 3.87931 13.3448C3.67241 13.4483 3.50862 13.5905 3.38793 13.7716C3.26724 13.9526 3.2069 14.1552 3.2069 14.3793V14.431ZM11.069 12.8276H15.2069V12.1034H11.069V12.8276ZM6.69828 11.7672C6.92241 11.5431 7.03448 11.2759 7.03448 10.9655C7.03448 10.6552 6.92241 10.3879 6.69828 10.1638C6.47414 9.93966 6.2069 9.82759 5.89655 9.82759C5.58621 9.82759 5.31897 9.93966 5.09483 10.1638C4.87069 10.3879 4.75862 10.6552 4.75862 10.9655C4.75862 11.2759 4.87069 11.5431 5.09483 11.7672C5.31897 11.9914 5.58621 12.1034 5.89655 12.1034C6.2069 12.1034 6.47414 11.9914 6.69828 11.7672ZM11.069 10.5517H15.2069V9.82759H11.069V10.5517ZM7.96552 6.93103H10.0345V0.724138H7.96552V6.93103Z" fill="#83B59F"/>
</svg>
