<svg width="12" height="18" viewBox="0 0 12 18" fill="none" xmlns="http://www.w3.org/2000/svg">
<path d="M0 18V17.2901H5.12821V13.9437H4.46154C3.22718 13.9437 2.17504 13.5135 1.30513 12.6532C0.435043 11.7931 0 10.7528 0 9.53239C0 8.6231 0.269231 7.79577 0.807692 7.05042C1.34615 6.30507 2.05128 5.76338 2.92308 5.42535C2.92308 4.69859 3.22222 4.14085 3.82051 3.75211C4.4188 3.36338 5.04274 3.31268 5.69231 3.6L4.97436 1.67324L5.94872 1.31831L5.58974 0.35493L6.5641 0L6.92308 0.96338L7.79487 0.659155L10.2564 7.30141L9.38462 7.65634L9.74359 8.61972L8.76923 8.97465L8.41026 8.01127L7.4359 8.4169L6.76923 6.49014C6.5812 6.79437 6.32906 7.03944 6.01282 7.22535C5.69658 7.41127 5.35043 7.50423 4.97436 7.50423C4.52991 7.50423 4.13248 7.37746 3.78205 7.12394C3.43162 6.87042 3.17949 6.54085 3.02564 6.13521C2.32479 6.42254 1.76496 6.87042 1.34615 7.47887C0.92735 8.08732 0.717949 8.77183 0.717949 9.53239C0.717949 10.5605 1.08188 11.4345 1.80974 12.1543C2.53778 12.874 3.42171 13.2338 4.46154 13.2338H12V13.9437H5.84615V17.2901H12V18H0ZM7.89744 7.45352L9.33333 6.89577L7.38462 1.57183L5.89744 2.07887L7.89744 7.45352ZM5.92308 6.41586C6.17949 6.16352 6.30769 5.85085 6.30769 5.47783C6.30769 5.10482 6.18009 4.79155 5.92487 4.53803C5.66966 4.28451 5.35342 4.15775 4.97615 4.15775C4.59889 4.15775 4.28205 4.28392 4.02564 4.53625C3.76923 4.78859 3.64103 5.10127 3.64103 5.47428C3.64103 5.8473 3.76863 6.16056 4.02385 6.41408C4.27906 6.66761 4.5953 6.79437 4.97256 6.79437C5.34983 6.79437 5.66667 6.6682 5.92308 6.41586Z" fill="#83B59F"/>
</svg>
