<svg width="20" height="18" viewBox="0 0 20 18" fill="none" xmlns="http://www.w3.org/2000/svg">
<path d="M0 17.9461V17.1377C0.516934 17.0479 0.940285 16.8638 1.27005 16.5853C1.59982 16.3069 2.15686 16.1677 2.94118 16.1677C3.72549 16.1677 4.32264 16.3473 4.73262 16.7066C5.1426 17.0659 5.72193 17.2455 6.47059 17.2455C7.21925 17.2455 7.79857 17.0659 8.20856 16.7066C8.61854 16.3473 9.21569 16.1677 10 16.1677C10.7843 16.1677 11.3904 16.3473 11.8182 16.7066C12.246 17.0659 12.8342 17.2455 13.5829 17.2455C14.3316 17.2455 14.902 17.0659 15.2941 16.7066C15.6863 16.3473 16.2745 16.1677 17.0588 16.1677C17.8431 16.1677 18.4002 16.3069 18.7299 16.5853C19.0597 16.8638 19.4831 17.0479 20 17.1377V17.9461C19.4831 17.8383 19.033 17.6407 18.6497 17.3533C18.2665 17.0659 17.7362 16.9222 17.0588 16.9222C16.3815 16.9222 15.8467 17.1018 15.4545 17.4611C15.0624 17.8204 14.4385 18 13.5829 18C12.7273 18 12.0856 17.8204 11.6578 17.4611C11.2299 17.1018 10.6774 16.9222 10 16.9222C9.32264 16.9222 8.77897 17.1018 8.36898 17.4611C7.959 17.8204 7.3262 18 6.47059 18C5.61497 18 4.98217 17.8204 4.57219 17.4611C4.16221 17.1018 3.61854 16.9222 2.94118 16.9222C2.26381 16.9222 1.73351 17.0659 1.35027 17.3533C0.967023 17.6407 0.516934 17.8383 0 17.9461ZM0 13.0958V12.2874C0.516934 12.1976 0.940285 12.0135 1.27005 11.735C1.59982 11.4566 2.15686 11.3174 2.94118 11.3174C3.72549 11.3174 4.32264 11.497 4.73262 11.8563C5.1426 12.2156 5.72193 12.3952 6.47059 12.3952C7.21925 12.3952 7.79857 12.2156 8.20856 11.8563C8.61854 11.497 9.21569 11.3174 10 11.3174C10.7843 11.3174 11.3815 11.497 11.7914 11.8563C12.2014 12.2156 12.7807 12.3952 13.5294 12.3952C14.2781 12.3952 14.8574 12.2156 15.2674 11.8563C15.6774 11.497 16.2745 11.3174 17.0588 11.3174C17.8431 11.3174 18.4002 11.4566 18.7299 11.735C19.0597 12.0135 19.4831 12.1976 20 12.2874V13.0958C19.4831 12.988 19.033 12.7904 18.6497 12.503C18.2665 12.2156 17.7362 12.0719 17.0588 12.0719C16.3815 12.0719 15.8467 12.2515 15.4545 12.6108C15.0624 12.9701 14.4385 13.1497 13.5829 13.1497C12.7273 13.1497 12.0856 12.9701 11.6578 12.6108C11.2299 12.2515 10.6774 12.0719 10 12.0719C9.32264 12.0719 8.77897 12.2515 8.36898 12.6108C7.959 12.9701 7.3262 13.1497 6.47059 13.1497C5.61497 13.1497 4.98217 12.9701 4.57219 12.6108C4.16221 12.2515 3.61854 12.0719 2.94118 12.0719C2.26381 12.0719 1.73351 12.2156 1.35027 12.503C0.967023 12.7904 0.516934 12.988 0 13.0958ZM5.7754 8.02994L9.19786 4.58084L7.37968 2.7485C6.80927 2.17365 6.23886 1.77395 5.66845 1.5494C5.09804 1.32485 4.3672 1.18563 3.47594 1.13174V0C4.52763 0.0538922 5.40107 0.215569 6.09626 0.48503C6.79144 0.754491 7.48663 1.23952 8.18182 1.94012L14.2246 8.02994C14.1355 8.11976 14.0374 8.18713 13.9305 8.23204C13.8235 8.27695 13.6988 8.2994 13.5561 8.2994C13.1283 8.2994 12.6693 8.11976 12.1791 7.76048C11.6889 7.4012 10.9626 7.22156 10 7.22156C9.03743 7.22156 8.31105 7.4012 7.82086 7.76048C7.33066 8.11976 6.87166 8.2994 6.44385 8.2994C6.30125 8.2994 6.17647 8.27695 6.06952 8.23204C5.96257 8.18713 5.86453 8.11976 5.7754 8.02994ZM16.1631 0.902695C16.582 1.32485 16.7914 1.83234 16.7914 2.42515C16.7914 3.01796 16.582 3.52545 16.1631 3.9476C15.7442 4.36976 15.2406 4.58084 14.6524 4.58084C14.0642 4.58084 13.5606 4.36976 13.1417 3.9476C12.7228 3.52545 12.5134 3.01796 12.5134 2.42515C12.5134 1.83234 12.7228 1.32485 13.1417 0.902695C13.5606 0.480539 14.0642 0.269461 14.6524 0.269461C15.2406 0.269461 15.7442 0.480539 16.1631 0.902695Z" fill="#83B59F"/>
</svg>
