<svg width="13" height="18" viewBox="0 0 13 18" fill="none" xmlns="http://www.w3.org/2000/svg">
<path d="M0 18V5.67655H4.09449V2.13477L6.5 0L8.90551 2.13477V9.55795H13V18H0ZM0.716535 17.3208H4.09449V14.1186H0.716535V17.3208ZM0.716535 13.4394H4.09449V10.2372H0.716535V13.4394ZM0.716535 9.55795H4.09449V6.3558H0.716535V9.55795ZM4.81102 17.3208H8.18898V14.1186H4.81102V17.3208ZM4.81102 13.4394H8.18898V10.2372H4.81102V13.4394ZM4.81102 9.55795H8.18898V6.3558H4.81102V9.55795ZM4.81102 5.67655H8.18898V2.47439H4.81102V5.67655ZM8.90551 17.3208H12.2835V14.1186H8.90551V17.3208ZM8.90551 13.4394H12.2835V10.2372H8.90551V13.4394Z" fill="#83B59F"/>
</svg>
