<svg width="19" height="18" viewBox="0 0 19 18" fill="none" xmlns="http://www.w3.org/2000/svg">
<path d="M14.4001 7.88872C14.5548 7.73323 14.6322 7.55488 14.6322 7.35366C14.6322 7.15244 14.5548 6.97409 14.4001 6.8186C14.2455 6.66311 14.068 6.58537 13.8678 6.58537C13.6676 6.58537 13.4902 6.66311 13.3355 6.8186C13.1808 6.97409 13.1034 7.15244 13.1034 7.35366C13.1034 7.55488 13.1808 7.73323 13.3355 7.88872C13.4902 8.04421 13.6676 8.12195 13.8678 8.12195C14.068 8.12195 14.2455 8.04421 14.4001 7.88872ZM5.13218 5.54268H10.592V4.77439H5.13218V5.54268ZM2.375 18C1.86542 16.1341 1.34219 14.2866 0.805316 12.4573C0.268439 10.628 0 8.7439 0 6.80488C0 5.52439 0.445881 4.43598 1.33764 3.53963C2.22941 2.64329 3.31226 2.19512 4.58621 2.19512H10.7557C11.2107 1.59146 11.7431 1.0747 12.3527 0.644817C12.9624 0.214939 13.6494 0 14.4138 0C14.4684 0 14.5184 0.0228659 14.5639 0.0685976C14.6094 0.114329 14.6322 0.164634 14.6322 0.219512C14.6322 0.237805 14.6276 0.256098 14.6185 0.27439C14.6094 0.292683 14.6049 0.310976 14.6049 0.329268C14.4593 0.695122 14.3455 1.07012 14.2636 1.45427C14.1818 1.83841 14.1044 2.22256 14.0316 2.60671L17.444 6.03659H19V11.2226L16.1882 12.1555L14.4411 18H10.9195V15.8049H5.89655V18H2.375ZM2.94828 17.2317H5.13218V15.0366H11.6839V17.2317H13.8678L15.5603 11.5793L18.2356 10.6738V6.80488H17.1437L13.3218 2.96341C13.3218 2.59756 13.3446 2.24543 13.3901 1.90701C13.4356 1.5686 13.522 1.23476 13.6494 0.905488C13.1216 1.05183 12.6667 1.3125 12.2845 1.6875C11.9023 2.0625 11.5838 2.4878 11.329 2.96341H4.58621C3.53065 2.96341 2.62979 3.33841 1.88362 4.08841C1.13745 4.83841 0.764368 5.7439 0.764368 6.80488C0.764368 8.59756 1.01006 10.3491 1.50144 12.0595C1.99282 13.7698 2.4751 15.4939 2.94828 17.2317Z" fill="#83B59F"/>
</svg>
