<svg width="24" height="18" viewBox="0 0 24 18" fill="none" xmlns="http://www.w3.org/2000/svg">
<path d="M15.0345 9.40299H20.2759V8.46269H15.0345V9.40299ZM15.0345 5.77612H20.2759V4.83582H15.0345V5.77612ZM3.72414 13.1642H12.2759V13.097C12.2759 12.3806 11.9023 11.8321 11.1552 11.4515C10.408 11.0709 9.35632 10.8806 8 10.8806C6.64368 10.8806 5.59195 11.0709 4.84483 11.4515C4.0977 11.8321 3.72414 12.3806 3.72414 13.097V13.1642ZM9.32759 7.94216C9.68391 7.59515 9.86207 7.16418 9.86207 6.64925C9.86207 6.13433 9.68391 5.70336 9.32759 5.35634C8.97126 5.00933 8.52874 4.83582 8 4.83582C7.47126 4.83582 7.02874 5.00933 6.67241 5.35634C6.31609 5.70336 6.13793 6.13433 6.13793 6.64925C6.13793 7.16418 6.31609 7.59515 6.67241 7.94216C7.02874 8.28918 7.47126 8.46269 8 8.46269C8.52874 8.46269 8.97126 8.28918 9.32759 7.94216ZM2.06897 18C1.47126 18 0.977011 17.8097 0.586207 17.4291C0.195402 17.0485 0 16.5672 0 15.9851V2.01493C0 1.43284 0.195402 0.951493 0.586207 0.570896C0.977011 0.190299 1.47126 0 2.06897 0H21.931C22.5287 0 23.023 0.190299 23.4138 0.570896C23.8046 0.951493 24 1.43284 24 2.01493V15.9851C24 16.5672 23.8046 17.0485 23.4138 17.4291C23.023 17.8097 22.5287 18 21.931 18H2.06897ZM2.06897 17.0597H21.931C22.2069 17.0597 22.4598 16.9478 22.6897 16.7239C22.9195 16.5 23.0345 16.2537 23.0345 15.9851V2.01493C23.0345 1.74627 22.9195 1.5 22.6897 1.27612C22.4598 1.05224 22.2069 0.940299 21.931 0.940299H2.06897C1.7931 0.940299 1.54023 1.05224 1.31034 1.27612C1.08046 1.5 0.965517 1.74627 0.965517 2.01493V15.9851C0.965517 16.2537 1.08046 16.5 1.31034 16.7239C1.54023 16.9478 1.7931 17.0597 2.06897 17.0597Z" fill="#83B59F"/>
</svg>
