<svg width="12" height="18" viewBox="0 0 12 18" fill="none" xmlns="http://www.w3.org/2000/svg">
<path d="M2.16495 18V17.1818H5.56701V11.7468C3.79381 11.4935 2.42268 10.7776 1.45361 9.59903C0.484536 8.42045 0 7.05195 0 5.49351V0H12V5.49351C12 7.05195 11.5155 8.42045 10.5464 9.59903C9.57732 10.7776 8.20619 11.4935 6.43299 11.7468V17.1818H9.83505V18H2.16495ZM9.49485 9.46753C10.4845 8.49351 11.0309 7.30519 11.134 5.9026H0.865979C0.969072 7.30519 1.51546 8.49351 2.50515 9.46753C3.49485 10.4416 4.65979 10.9286 6 10.9286C7.34021 10.9286 8.50515 10.4416 9.49485 9.46753ZM0.865979 5.08442H11.134V0.818182H0.865979V5.08442Z" fill="#83B59F"/>
</svg>
