<svg width="18" height="18" viewBox="0 0 18 18" fill="none" xmlns="http://www.w3.org/2000/svg">
<path d="M10.914 17.4767L11.8643 8.39826C11.086 8.2064 10.448 7.93169 9.95023 7.57413C9.45249 7.21657 8.98643 6.81977 8.55204 6.38372L7.9819 5.8343L4.39819 9.26163L7.00452 12.5581V17.4767H6.24434V12.8721L3.47511 10.2035L3.8552 13.2645L0.570136 17.2674L0 16.8227L2.95928 13.1599L1.68326 9.26163C1.59276 8.96512 1.57014 8.66424 1.61538 8.35901C1.66063 8.05378 1.8009 7.78779 2.0362 7.56105L5.40271 4.34302C5.54751 4.20349 5.71041 4.09884 5.8914 4.02907C6.0724 3.9593 6.25339 3.92442 6.43439 3.92442C6.74208 3.92442 6.9819 3.9811 7.15385 4.09448C7.32579 4.20785 7.43891 4.2907 7.49321 4.34302L9.09502 5.86046C9.65611 6.40116 10.2715 6.86773 10.9412 7.26017C11.6109 7.65262 12.4344 7.84884 13.4118 7.84884H15.448C15.6833 7.84884 15.8824 7.9186 16.0452 8.05814C16.2081 8.19767 16.3077 8.37209 16.3439 8.5814L17.1041 15.7238C17.3575 15.7936 17.5701 15.9288 17.7421 16.1294C17.914 16.3299 18 16.5698 18 16.8488C18 17.1628 17.8869 17.4331 17.6606 17.6599C17.4344 17.8866 17.1493 18 16.8054 18C16.4796 18 16.1946 17.8866 15.9502 17.6599C15.7059 17.4331 15.5837 17.1628 15.5837 16.8488C15.5837 16.6047 15.6516 16.3866 15.7873 16.1948C15.9231 16.0029 16.0905 15.8634 16.2896 15.7762L16.0452 13.5523H12.0814L11.6742 17.4767H10.914ZM10.4253 3.34884C9.95475 3.34884 9.54751 3.18314 9.20362 2.85174C8.85973 2.52035 8.68778 2.12791 8.68778 1.67442C8.68778 1.22093 8.85973 0.828488 9.20362 0.497093C9.54751 0.165698 9.95475 0 10.4253 0C10.8959 0 11.3032 0.165698 11.6471 0.497093C11.991 0.828488 12.1629 1.22093 12.1629 1.67442C12.1629 2.12791 11.991 2.52035 11.6471 2.85174C11.3032 3.18314 10.8959 3.34884 10.4253 3.34884ZM12.1629 12.8198H15.991L15.5294 8.5814H12.5973L12.1629 12.8198Z" fill="#83B59F"/>
</svg>
