<svg width="20" height="18" viewBox="0 0 20 18" fill="none" xmlns="http://www.w3.org/2000/svg">
<path d="M1.72414 18C1.22605 18 0.814176 17.8311 0.488506 17.4934C0.162835 17.1556 0 16.7285 0 16.2119V5.00662C0 4.49007 0.162835 4.06291 0.488506 3.72517C0.814176 3.38742 1.22605 3.21854 1.72414 3.21854H6.89655V1.78808C6.89655 1.27152 7.05939 0.844371 7.38506 0.506623C7.71073 0.168874 8.12261 0 8.62069 0H11.3793C11.8774 0 12.2893 0.168874 12.6149 0.506623C12.9406 0.844371 13.1034 1.27152 13.1034 1.78808V3.21854H18.2759C18.7739 3.21854 19.1858 3.38742 19.5115 3.72517C19.8372 4.06291 20 4.49007 20 5.00662V16.2119C20 16.7285 19.8372 17.1556 19.5115 17.4934C19.1858 17.8311 18.7739 18 18.2759 18H1.72414ZM1.72414 17.1656H18.2759C18.5057 17.1656 18.7165 17.0662 18.908 16.8675C19.0996 16.6689 19.1954 16.4503 19.1954 16.2119V5.00662C19.1954 4.76821 19.0996 4.54967 18.908 4.35099C18.7165 4.15232 18.5057 4.05298 18.2759 4.05298H1.72414C1.49425 4.05298 1.28352 4.15232 1.09195 4.35099C0.900383 4.54967 0.804598 4.76821 0.804598 5.00662V16.2119C0.804598 16.4503 0.900383 16.6689 1.09195 16.8675C1.28352 17.0662 1.49425 17.1656 1.72414 17.1656ZM7.70115 3.21854H12.2989V1.78808C12.2989 1.54967 12.2031 1.33113 12.0115 1.13245C11.8199 0.933775 11.6092 0.834437 11.3793 0.834437H8.62069C8.3908 0.834437 8.18008 0.933775 7.98851 1.13245C7.79693 1.33113 7.70115 1.54967 7.70115 1.78808V3.21854Z" fill="#83B59F"/>
</svg>
