<svg width="22" height="18" viewBox="0 0 22 18" fill="none" xmlns="http://www.w3.org/2000/svg">
<path d="M4.69096 13.1433C4.28041 13.1433 3.92789 13.0009 3.63342 12.7161C3.33895 12.4312 3.19171 12.0889 3.19171 11.689C3.19171 11.2683 3.33961 10.9207 3.63541 10.6463C3.93122 10.372 4.28677 10.2348 4.70207 10.2348C5.10959 10.2348 5.45849 10.372 5.74878 10.6463C6.03889 10.9207 6.18394 11.2637 6.18394 11.6753C6.18394 12.0869 6.03775 12.4345 5.74536 12.718C5.45298 13.0015 5.10151 13.1433 4.69096 13.1433ZM17.1728 13.1433C16.7623 13.1433 16.4098 13.0009 16.1153 12.7161C15.8208 12.4312 15.6736 12.0889 15.6736 11.689C15.6736 11.2683 15.8215 10.9207 16.1173 10.6463C16.4131 10.372 16.7686 10.2348 17.1839 10.2348C17.5915 10.2348 17.9403 10.372 18.2304 10.6463C18.5207 10.9207 18.6658 11.2637 18.6658 11.6753C18.6658 12.0869 18.5196 12.4345 18.2272 12.718C17.9348 13.0015 17.5834 13.1433 17.1728 13.1433ZM10.9858 12.1006C10.4253 12.1006 9.9456 11.9096 9.54663 11.5277C9.14767 11.1457 8.94819 10.6782 8.94819 10.125C8.94819 9.55793 9.14653 9.08689 9.54321 8.71189C9.9399 8.33689 10.4255 8.14939 11 8.14939C11.5509 8.14939 12.0307 8.33689 12.4391 8.71189C12.8476 9.08689 13.0518 9.55335 13.0518 10.1113C13.0518 10.6692 12.8476 11.1402 12.4391 11.5244C12.0307 11.9085 11.5462 12.1006 10.9858 12.1006ZM6.35492 18C6.6019 16.9756 7.15171 16.1296 8.00435 15.4619C8.85699 14.7942 9.8544 14.4604 10.9966 14.4604C12.1388 14.4604 13.1326 14.7942 13.978 15.4619C14.8234 16.1296 15.3696 16.9756 15.6166 18H6.35492ZM1.02591 18C1.02591 17.0122 1.38212 16.1753 2.09456 15.4893C2.80699 14.8034 3.67617 14.4604 4.70207 14.4604C5.03036 14.4604 5.33927 14.497 5.62881 14.5701C5.91853 14.6433 6.19857 14.753 6.46891 14.8994C6.05361 15.3126 5.70756 15.7863 5.43075 16.3205C5.15395 16.8548 4.95389 17.4146 4.8306 18H1.02591ZM17.1269 18C17.013 17.3963 16.8182 16.8293 16.5427 16.2988C16.2673 15.7683 15.9111 15.2927 15.4741 14.872C15.7401 14.7439 16.0125 14.6433 16.2914 14.5701C16.5703 14.497 16.8678 14.4604 17.1839 14.4604C18.2098 14.4604 19.079 14.8034 19.7915 15.4893C20.5039 16.1753 20.8601 17.0122 20.8601 18H17.1269ZM0.455959 8.67073L0 8.06707L11 0L15.5311 3.32012V1.09756H17.4404V4.71951L22 8.06707L21.5155 8.67073L11 0.960366L0.455959 8.67073Z" fill="#83B59F"/>
</svg>
