<svg width="14" height="18" viewBox="0 0 14 18" fill="none" xmlns="http://www.w3.org/2000/svg">
<path d="M3.34328 15.3103H10.6567V14.5862H3.34328V15.3103ZM7 12C8.25373 12 9.32898 11.556 10.2257 10.6681C11.1225 9.78017 11.5709 8.7069 11.5709 7.44828C11.5709 6.2069 11.1225 5.14224 10.2257 4.25431C9.32898 3.36638 8.25373 2.92241 7 2.92241C5.72886 2.92241 4.6449 3.36638 3.74813 4.25431C2.85137 5.14224 2.40299 6.2069 2.40299 7.44828C2.40299 8.7069 2.85137 9.78017 3.74813 10.6681C4.6449 11.556 5.72886 12 7 12ZM7 11.1724C6.66915 10.6897 6.40796 10.1638 6.21642 9.59483C6.02488 9.02586 5.91169 8.43103 5.87687 7.81035H8.09702C8.06219 8.43103 7.94901 9.02586 7.75746 9.59483C7.56592 10.1638 7.31343 10.6897 7 11.1724ZM6.03358 11.1724C5.26741 10.9655 4.62313 10.5603 4.10075 9.9569C3.57836 9.35345 3.25622 8.63793 3.13433 7.81035H5.14552C5.16294 8.32759 5.24129 8.86638 5.3806 9.42672C5.5199 9.98707 5.73756 10.569 6.03358 11.1724ZM7.78358 11.1724C8.09702 10.6207 8.3408 10.0603 8.51493 9.49138C8.68905 8.92241 8.79353 8.36207 8.82836 7.81035H10.8396C10.7002 8.63793 10.3563 9.35345 9.80784 9.9569C9.25933 10.5603 8.58458 10.9655 7.78358 11.1724ZM3.13433 7.08621C3.27363 6.2069 3.62624 5.4569 4.19216 4.83621C4.75808 4.21552 5.43284 3.82759 6.21642 3.67241C5.88557 4.12069 5.63308 4.63362 5.45896 5.21121C5.28483 5.78879 5.18035 6.41379 5.14552 7.08621H3.13433ZM5.87687 7.08621C5.91169 6.43103 6.02488 5.81466 6.21642 5.23707C6.40796 4.65948 6.66915 4.13793 7 3.67241C7.31343 4.13793 7.56592 4.65948 7.75746 5.23707C7.94901 5.81466 8.06219 6.43103 8.09702 7.08621H5.87687ZM8.82836 7.08621C8.81095 6.46552 8.71517 5.86638 8.54104 5.28879C8.36692 4.71121 8.10572 4.17241 7.75746 3.67241C8.59328 3.82759 9.29415 4.21983 9.86007 4.84914C10.426 5.47845 10.7525 6.22414 10.8396 7.08621H8.82836ZM0 18V0H12.4328C12.8682 0 13.2382 0.150862 13.5429 0.452586C13.8476 0.75431 14 1.12069 14 1.55172V16.4483C14 16.8793 13.8476 17.2457 13.5429 17.5474C13.2382 17.8491 12.8682 18 12.4328 18H0ZM0.731343 17.2759H12.4328C12.6418 17.2759 12.8333 17.1897 13.0075 17.0172C13.1816 16.8448 13.2687 16.6552 13.2687 16.4483V1.55172C13.2687 1.34483 13.1816 1.15517 13.0075 0.982759C12.8333 0.810345 12.6418 0.724138 12.4328 0.724138H0.731343V17.2759Z" fill="#83B59F"/>
</svg>
