<svg width="18" height="18" viewBox="0 0 18 18" fill="none" xmlns="http://www.w3.org/2000/svg">
<path d="M6.93103 12.4655H11.069C11.1716 12.4655 11.2575 12.4309 11.3268 12.3616C11.3963 12.2921 11.431 12.206 11.431 12.1034V10.7069H10.7069V11.7414H7.2931V6.25862H10.7069V7.2931H11.431V5.89552C11.431 5.79276 11.3963 5.7069 11.3268 5.63793C11.2575 5.56897 11.1716 5.53448 11.069 5.53448H6.93103C6.82845 5.53448 6.74241 5.56923 6.67293 5.63871C6.60362 5.70802 6.56897 5.79397 6.56897 5.89655V12.1034C6.56897 12.206 6.60362 12.2921 6.67293 12.3616C6.74241 12.4309 6.82845 12.4655 6.93103 12.4655ZM9.0044 18C7.76009 18 6.59 17.7639 5.49414 17.2916C4.39828 16.8194 3.44509 16.1784 2.63457 15.3688C1.82388 14.5591 1.18216 13.6072 0.709396 12.5128C0.236465 11.4184 0 10.2489 0 9.0044C0 7.76009 0.236121 6.59 0.708362 5.49414C1.1806 4.39828 1.82155 3.44509 2.63121 2.63457C3.44086 1.82388 4.39285 1.18216 5.48716 0.709396C6.58164 0.236465 7.75112 0 8.9956 0C10.2399 0 11.41 0.236121 12.5059 0.708362C13.6017 1.1806 14.5549 1.82155 15.3654 2.63121C16.1761 3.44086 16.8178 4.39284 17.2906 5.48715C17.7635 6.58164 18 7.75112 18 8.9956C18 10.2399 17.7639 11.41 17.2916 12.5059C16.8194 13.6017 16.1784 14.5549 15.3688 15.3654C14.5591 16.1761 13.6072 16.8178 12.5128 17.2906C11.4184 17.7635 10.2489 18 9.0044 18ZM9 17.2759C11.3103 17.2759 13.2672 16.4741 14.8707 14.8707C16.4741 13.2672 17.2759 11.3103 17.2759 9C17.2759 6.68966 16.4741 4.73276 14.8707 3.12931C13.2672 1.52586 11.3103 0.724138 9 0.724138C6.68966 0.724138 4.73276 1.52586 3.12931 3.12931C1.52586 4.73276 0.724138 6.68966 0.724138 9C0.724138 11.3103 1.52586 13.2672 3.12931 14.8707C4.73276 16.4741 6.68966 17.2759 9 17.2759Z" fill="#83B59F"/>
</svg>
