<svg width="18" height="18" viewBox="0 0 18 18" fill="none" xmlns="http://www.w3.org/2000/svg">
<path d="M9.02687 13.1373L4.6209 17.5433C4.31087 17.8478 3.93331 18 3.48824 18C3.04334 18 2.66866 17.8478 2.36418 17.5433L0.456716 15.6358C0.152239 15.3258 0 14.9482 0 14.5032C0 14.0583 0.152239 13.6836 0.456716 13.3791L4.88955 8.94627L0.537313 4.59403C0.232836 4.28955 0.0716418 3.91343 0.0537313 3.46567C0.0358209 3.01791 0.179104 2.64179 0.483582 2.33731L2.36418 0.456716C2.67421 0.152239 3.05176 0 3.49684 0C3.94173 0 4.31642 0.152239 4.6209 0.456716L9 4.83582L13.3791 0.456716C13.6891 0.152239 14.0667 0 14.5118 0C14.9567 0 15.3313 0.152239 15.6358 0.456716L17.5433 2.36418C17.8478 2.67421 18 3.05176 18 3.49684C18 3.94173 17.8478 4.31642 17.5433 4.6209L13.1373 9.02687L17.5164 13.406C17.8388 13.7207 18 14.1039 18 14.5556C18 15.0071 17.8478 15.3851 17.5433 15.6896L15.7433 17.4896C15.4209 17.8119 15.0313 17.9776 14.5746 17.9866C14.1179 17.9955 13.7284 17.8388 13.406 17.5164L9.02687 13.1373ZM9.60448 7.96084C9.75672 7.80555 9.83284 7.61302 9.83284 7.38322C9.83284 7.15361 9.7551 6.96269 9.59964 6.81045C9.44436 6.65821 9.25182 6.58209 9.02203 6.58209C8.79242 6.58209 8.60149 6.65982 8.44925 6.81528C8.29702 6.97057 8.2209 7.1631 8.2209 7.3929C8.2209 7.62251 8.29863 7.81343 8.45409 7.96567C8.60937 8.11791 8.80191 8.19403 9.0317 8.19403C9.26131 8.19403 9.45224 8.1163 9.60448 7.96084ZM5.4 8.43582L8.46269 5.37313L4.08358 0.99403C3.92239 0.832836 3.72537 0.752239 3.49254 0.752239C3.2597 0.752239 3.06269 0.832836 2.90149 0.99403L1.0209 2.87463C0.859702 3.03582 0.779104 3.23284 0.779104 3.46567C0.779104 3.69851 0.859702 3.89552 1.0209 4.05672L5.4 8.43582ZM7.41976 9.80597C7.64937 9.80597 7.8403 9.72824 7.99254 9.57278C8.14478 9.41749 8.2209 9.22496 8.2209 8.99516C8.2209 8.76555 8.14316 8.57463 7.9877 8.42239C7.83242 8.27015 7.63988 8.19403 7.41009 8.19403C7.18048 8.19403 6.98955 8.27176 6.83731 8.42722C6.68507 8.58251 6.60896 8.77504 6.60896 9.00484C6.60896 9.23445 6.68669 9.42537 6.84215 9.57761C6.99743 9.72985 7.18997 9.80597 7.41976 9.80597ZM9.60448 11.1847C9.75672 11.0294 9.83284 10.8369 9.83284 10.6071C9.83284 10.3775 9.7551 10.1866 9.59964 10.0343C9.44436 9.88209 9.25182 9.80597 9.02203 9.80597C8.79242 9.80597 8.60149 9.8837 8.44925 10.0392C8.29702 10.1944 8.2209 10.387 8.2209 10.6168C8.2209 10.8464 8.29863 11.0373 8.45409 11.1896C8.60937 11.3418 8.80191 11.4179 9.0317 11.4179C9.26131 11.4179 9.45224 11.3402 9.60448 11.1847ZM10.6436 9.80597C10.8733 9.80597 11.0642 9.72824 11.2164 9.57278C11.3687 9.41749 11.4448 9.22496 11.4448 8.99516C11.4448 8.76555 11.367 8.57463 11.2116 8.42239C11.0563 8.27015 10.8638 8.19403 10.634 8.19403C10.4044 8.19403 10.2134 8.27176 10.0612 8.42722C9.90896 8.58251 9.83284 8.77504 9.83284 9.00484C9.83284 9.23445 9.91057 9.42537 10.066 9.57761C10.2213 9.72985 10.4139 9.80597 10.6436 9.80597ZM9.56418 12.6L13.9701 17.006C14.1313 17.1672 14.3284 17.2478 14.5612 17.2478C14.794 17.2478 14.991 17.1672 15.1522 17.006L17.0328 15.1254C17.194 14.9642 17.2746 14.7672 17.2746 14.5343C17.2746 14.3015 17.194 14.1045 17.0328 13.9433L12.6269 9.53731L9.56418 12.6Z" fill="#83B59F"/>
</svg>
