<svg width="18" height="18" viewBox="0 0 18 18" fill="none" xmlns="http://www.w3.org/2000/svg">
<path d="M16.2881 11.52V4.656L10.5986 0.864L4.90909 4.656V7.584H4.2042V4.344L10.5986 0L16.993 4.344V11.52H16.2881ZM11.228 5.352H11.9832V4.632H11.228V5.352ZM9.21399 5.352H9.96923V4.632H9.21399V5.352ZM11.228 7.272H11.9832V6.552H11.228V7.272ZM9.21399 7.272H9.96923V6.552H9.21399V7.272ZM3.42378 15.072L11.228 17.28L17.2699 15.504C17.2699 15.168 17.1876 14.932 17.023 14.796C16.8585 14.66 16.6723 14.592 16.4643 14.592H11.7788C11.3612 14.592 10.9678 14.576 10.5986 14.544C10.2294 14.512 9.85175 14.432 9.46573 14.304L7.3007 13.632L7.57762 12.96L9.61678 13.68C9.95245 13.808 10.3301 13.88 10.7497 13.896C11.1692 13.912 11.7315 13.92 12.4364 13.92C12.4364 13.584 12.3776 13.32 12.2601 13.128C12.1427 12.936 11.9664 12.8 11.7315 12.72L5.96643 10.704C5.91608 10.688 5.86993 10.676 5.82797 10.668C5.78601 10.66 5.73986 10.656 5.68951 10.656H3.42378V15.072ZM0 16.992V9.984H5.6598C5.74674 9.984 5.8372 9.9936 5.93119 10.0128C6.02517 10.032 6.11245 10.0544 6.19301 10.08L11.9832 12.096C12.2853 12.208 12.5538 12.412 12.7888 12.708C13.0238 13.004 13.1413 13.408 13.1413 13.92H16.4643C17.0014 13.92 17.3916 14.076 17.635 14.388C17.8783 14.7 18 15.088 18 15.552V16.032L11.2783 18L3.42378 15.792V16.992H0ZM0.704895 16.32H2.71888V10.656H0.704895V16.32Z" fill="#83B59F"/>
</svg>
