<svg width="12" height="18" viewBox="0 0 12 18" fill="none" xmlns="http://www.w3.org/2000/svg">
<path d="M5.04382 2.68767C4.74104 2.37534 4.58964 2.00548 4.58964 1.57808C4.58964 1.15068 4.74104 0.780822 5.04382 0.468493C5.34661 0.156164 5.70518 0 6.11952 0C6.53386 0 6.89243 0.156164 7.19522 0.468493C7.49801 0.780822 7.6494 1.15068 7.6494 1.57808C7.6494 2.00548 7.49801 2.37534 7.19522 2.68767C6.89243 3 6.53386 3.15616 6.11952 3.15616C5.70518 3.15616 5.34661 3 5.04382 2.68767ZM11.1873 18V13.6603C11.1873 13.463 11.1315 13.3068 11.0199 13.1918C10.9084 13.0767 10.757 13.0192 10.5657 13.0192H6.16733C5.8008 13.0192 5.48606 12.8836 5.22311 12.6123C4.96016 12.3411 4.82869 12.0164 4.82869 11.6384V5.76986C4.82869 5.39178 4.95219 5.07534 5.1992 4.82055C5.44622 4.56575 5.75299 4.43836 6.11952 4.43836C6.29482 4.43836 6.48606 4.49589 6.69323 4.61096C6.9004 4.72603 7.15538 4.96438 7.45817 5.32603C8.3506 6.39452 9.11554 7.12603 9.75299 7.52055C10.3904 7.91507 11.1394 8.1863 12 8.33425V9.02466C11.0438 8.89315 10.2112 8.60959 9.50199 8.17397C8.79283 7.73836 8.03187 7.05205 7.21912 6.11507V12.0329H10.5179C10.8845 12.0329 11.1992 12.1685 11.4622 12.4397C11.7251 12.711 11.8566 13.0356 11.8566 13.4137V18H11.1873ZM4.20717 18C3.05976 18 2.07171 17.5726 1.24303 16.7178C0.414343 15.863 0 14.8438 0 13.6603C0 12.526 0.36255 11.5562 1.08765 10.7507C1.81275 9.94521 2.74104 9.47671 3.87251 9.34521V10.0356C2.96414 10.1342 2.20319 10.5205 1.58964 11.1945C0.976096 11.8685 0.669323 12.6904 0.669323 13.6603C0.669323 14.6795 1.01195 15.5425 1.69721 16.2493C2.38247 16.9562 3.21912 17.3096 4.20717 17.3096C5.14741 17.3096 5.94422 16.9932 6.59761 16.3603C7.251 15.7274 7.6255 14.9425 7.72112 14.0055H8.39044C8.29482 15.1397 7.84861 16.089 7.05179 16.8534C6.25498 17.6178 5.30677 18 4.20717 18Z" fill="#83B59F"/>
</svg>
