<svg width="24" height="18" viewBox="0 0 24 18" fill="none" xmlns="http://www.w3.org/2000/svg">
<path d="M3.61856 17.1182C3.02062 16.5304 2.72165 15.8108 2.72165 14.9595H1.85567C1.34021 14.9595 0.902062 14.7821 0.541237 14.4274C0.180412 14.0726 0 13.6419 0 13.1351V7.05405H13.6082V3.16216C13.6082 2.65541 13.7887 2.22466 14.1495 1.86993C14.5103 1.5152 14.9485 1.33784 15.4639 1.33784H17.7526V0.912162C17.7526 0.648649 17.8402 0.430743 18.0155 0.258446C18.1907 0.0861487 18.4124 0 18.6804 0H18.9278C19.1959 0 19.4175 0.0861487 19.5928 0.258446C19.768 0.430743 19.8557 0.648649 19.8557 0.912162V1.33784H20.6289C21.0412 1.33784 21.4072 1.44932 21.7268 1.6723C22.0464 1.89527 22.268 2.19932 22.3918 2.58446L23.9072 7.02365C23.9485 7.125 23.9742 7.22128 23.9845 7.3125C23.9948 7.40372 24 7.5 24 7.60135V14.9595H21.2784C21.2784 15.8108 20.9794 16.5304 20.3814 17.1182C19.7835 17.7061 19.0515 18 18.1856 18C17.3196 18 16.5876 17.7061 15.9897 17.1182C15.3918 16.5304 15.0928 15.8108 15.0928 14.9595H8.90722C8.90722 15.8108 8.60825 16.5304 8.01031 17.1182C7.41237 17.7061 6.68041 18 5.81443 18C4.94845 18 4.21649 17.7061 3.61856 17.1182ZM7.39175 16.5101C7.82474 16.0845 8.04124 15.5676 8.04124 14.9595C8.04124 14.3716 7.82474 13.8598 7.39175 13.424C6.95876 12.9882 6.43299 12.7703 5.81443 12.7703C5.19588 12.7703 4.6701 12.9882 4.23711 13.424C3.80412 13.8598 3.58763 14.3716 3.58763 14.9595C3.58763 15.5676 3.80412 16.0845 4.23711 16.5101C4.6701 16.9358 5.19588 17.1486 5.81443 17.1486C6.43299 17.1486 6.95876 16.9358 7.39175 16.5101ZM19.7629 16.5101C20.1959 16.0845 20.4124 15.5676 20.4124 14.9595C20.4124 14.3716 20.1959 13.8598 19.7629 13.424C19.3299 12.9882 18.8041 12.7703 18.1856 12.7703C17.567 12.7703 17.0412 12.9882 16.6082 13.424C16.1753 13.8598 15.9588 14.3716 15.9588 14.9595C15.9588 15.5676 16.1753 16.0845 16.6082 16.5101C17.0412 16.9358 17.567 17.1486 18.1856 17.1486C18.8041 17.1486 19.3299 16.9358 19.7629 16.5101ZM0.865979 7.90541V13.1351C0.865979 13.4189 0.958763 13.652 1.14433 13.8345C1.3299 14.0169 1.56701 14.1081 1.85567 14.1081H2.84536C3.03093 13.4595 3.39691 12.9324 3.9433 12.527C4.48969 12.1216 5.1134 11.9189 5.81443 11.9189C6.51546 11.9189 7.13918 12.1216 7.68557 12.527C8.23196 12.9324 8.59794 13.4595 8.78351 14.1081H13.6082V7.90541H0.865979ZM14.4742 14.1081H15.2165C15.4021 13.4595 15.768 12.9324 16.3144 12.527C16.8608 12.1216 17.4845 11.9189 18.1856 11.9189C18.8866 11.9189 19.5103 12.1216 20.0567 12.527C20.6031 12.9324 20.9691 13.4595 21.1546 14.1081H23.134V7.90541H14.4742V14.1081ZM14.4742 7.05405H23.0103L21.5876 2.85811C21.5258 2.65541 21.4072 2.49324 21.232 2.37162C21.0567 2.25 20.8557 2.18919 20.6289 2.18919H15.4639C15.1753 2.18919 14.9381 2.28041 14.7526 2.46284C14.567 2.64527 14.4742 2.87838 14.4742 3.16216V7.05405ZM0 5.83784V4.98649H1.23711V2.18919H0V1.33784H11.3814V2.18919H10.1443V4.98649H11.3814V5.83784H0ZM2.10309 4.98649H5.25773V2.18919H2.10309V4.98649ZM6.12371 4.98649H9.27835V2.18919H6.12371V4.98649Z" fill="#83B59F"/>
</svg>
