<svg width="19" height="18" viewBox="0 0 19 18" fill="none" xmlns="http://www.w3.org/2000/svg">
<path d="M18.1176 18L11.5588 11.4838L12.4412 10.6071L19 17.1234L18.1176 18ZM1.73529 18L0.852941 17.1234L9.05882 8.97078L5.11765 5.08442L4.52941 5.66883L3.52941 4.6461V6.66234L2.94118 7.24675L0 4.32468L0.588235 3.74026H2.61765L1.58824 2.74675L3.64706 0.701299C3.88235 0.467532 4.14216 0.292208 4.42647 0.175325C4.71078 0.0584416 5.01961 0 5.35294 0C5.68627 0 5.9951 0.0584416 6.27941 0.175325C6.56373 0.292208 6.82353 0.467532 7.05882 0.701299L5.35294 2.3961L6.58824 3.62338L6 4.20779L9.94118 8.09416L13.0588 4.99675C12.8431 4.72403 12.6961 4.44643 12.6176 4.16396C12.5392 3.88149 12.5 3.56493 12.5 3.21429C12.5 2.31818 12.8137 1.55844 13.4412 0.935065C14.0686 0.311688 14.8333 0 15.7353 0C15.9118 0 16.0833 0.00974026 16.25 0.0292208C16.4167 0.0487013 16.5784 0.0974026 16.7353 0.175325L14.4412 2.45455L16.5 4.5L18.7941 2.22078C18.8725 2.37662 18.9216 2.53734 18.9412 2.70292C18.9608 2.86851 18.9706 3.03896 18.9706 3.21429C18.9706 4.11039 18.6569 4.87013 18.0294 5.49351C17.402 6.11688 16.6373 6.42857 15.7353 6.42857C15.3824 6.42857 15.0637 6.38961 14.7794 6.31169C14.4951 6.23377 14.2157 6.08766 13.9412 5.87338L1.73529 18Z" fill="#83B59F"/>
</svg>
