<svg width="16" height="20" viewBox="0 0 16 20" fill="none" xmlns="http://www.w3.org/2000/svg">
<path d="M11.4249 18.7093C11.2716 18.8626 11.0969 18.9776 10.901 19.0543C10.705 19.131 10.5133 19.1693 10.3259 19.1693C10.1384 19.1693 9.95101 19.131 9.76358 19.0543C9.57614 18.9776 9.40575 18.8626 9.2524 18.7093L8.02556 17.508C7.8722 17.3546 7.76145 17.1842 7.69329 16.9968C7.62513 16.8094 7.59105 16.6219 7.59105 16.4345C7.59105 16.2471 7.62939 16.0596 7.70607 15.8722C7.78275 15.6848 7.88924 15.5144 8.02556 15.361L8.33227 15.0288L0 3.11821L3.11821 0L15.5399 12.4217C15.6933 12.5751 15.8083 12.7497 15.885 12.9457C15.9617 13.1416 16 13.3333 16 13.5208C16 13.7082 15.9617 13.8956 15.885 14.0831C15.8083 14.2705 15.6933 14.4409 15.5399 14.5942L11.4249 18.7093ZM8.81789 14.5176L12.754 10.6326L3.11821 0.996805L0.920128 3.19489L8.81789 14.5176ZM9.78914 18.1981C9.95953 18.3514 10.1555 18.4281 10.377 18.4281C10.5985 18.4281 10.7859 18.3514 10.9393 18.1981L15.0288 14.1086C15.1821 13.9553 15.2588 13.7678 15.2588 13.5463C15.2588 13.3248 15.1821 13.1289 15.0288 12.9585L13.2396 11.1182L8.53674 15.8211C8.36635 15.9915 8.28115 16.1917 8.28115 16.4217C8.28115 16.6518 8.36635 16.8435 8.53674 16.9968L9.78914 18.1981Z" fill="#83B59F"/>
</svg>
