<svg width="17" height="18" viewBox="0 0 17 18" fill="none" xmlns="http://www.w3.org/2000/svg">
<path d="M12.2596 18C12.1515 18 12.061 17.9641 11.988 17.8924C11.9148 17.8209 11.8782 17.7321 11.8782 17.6262C11.8782 17.5204 11.9148 17.432 11.988 17.3609C12.061 17.2899 12.1515 17.2544 12.2596 17.2544H15.1474V15.8698H12.2596C12.1515 15.8698 12.061 15.834 11.988 15.7622C11.9148 15.6907 11.8782 15.602 11.8782 15.496C11.8782 15.3902 11.9148 15.3018 11.988 15.2308C12.061 15.1598 12.1515 15.1243 12.2596 15.1243H15.1474V13.7396H12.2596C12.1515 13.7396 12.061 13.7038 11.988 13.6321C11.9148 13.5605 11.8782 13.4718 11.8782 13.3658C11.8782 13.26 11.9148 13.1716 11.988 13.1006C12.061 13.0296 12.1515 12.9941 12.2596 12.9941H15.1474V11.6095H12.2596C12.1515 11.6095 12.061 11.5736 11.988 11.5019C11.9148 11.4304 11.8782 11.3416 11.8782 11.2356C11.8782 11.1298 11.9148 11.0414 11.988 10.9704C12.061 10.8994 12.1515 10.8639 12.2596 10.8639H15.1474V9.47929H12.2596C12.1515 9.47929 12.061 9.44343 11.988 9.37172C11.9148 9.30018 11.8782 9.21142 11.8782 9.10544C11.8782 8.99964 11.9148 8.91124 11.988 8.84024C12.061 8.76923 12.1515 8.73373 12.2596 8.73373H15.1474V7.34911H12.2596C12.1515 7.34911 12.061 7.31325 11.988 7.24154C11.9148 7.17 11.8782 7.08124 11.8782 6.97527C11.8782 6.86947 11.9148 6.78106 11.988 6.71006C12.061 6.63905 12.1515 6.60355 12.2596 6.60355H15.5288C15.9466 6.60355 16.2962 6.7855 16.5777 7.14941C16.8592 7.51331 17 7.89941 17 8.30769V16.5621C17 16.9704 16.8592 17.3121 16.5777 17.5873C16.2962 17.8624 15.9466 18 15.5288 18H12.2596ZM8.20032 10.7308C9.05395 9.57692 9.48077 8.20118 9.48077 6.60355C9.48077 5.00592 9.05395 3.63018 8.20032 2.47633C7.34669 1.32249 6.32051 0.745562 5.12179 0.745562C3.92308 0.745562 2.8969 1.32249 2.04327 2.47633C1.18964 3.63018 0.762821 5.00592 0.762821 6.60355C0.762821 8.20118 1.18964 9.57692 2.04327 10.7308C2.8969 11.8846 3.92308 12.4615 5.12179 12.4615C6.32051 12.4615 7.34669 11.8846 8.20032 10.7308ZM5.12179 18C4.66774 18 4.31357 17.8314 4.05929 17.4941C3.80502 17.1568 3.69605 16.784 3.73237 16.3757L4.11378 13.074C2.93323 12.7722 1.95246 12.0222 1.17147 10.824C0.390491 9.62574 0 8.21893 0 6.60355C0 4.76929 0.497286 3.21009 1.49186 1.92595C2.48661 0.641983 3.69441 0 5.11526 0C6.53628 0 7.74626 0.641983 8.74519 1.92595C9.74412 3.21009 10.2436 4.76929 10.2436 6.60355C10.2436 8.21893 9.8531 9.62574 9.07212 10.824C8.29113 12.0222 7.31036 12.7722 6.12981 13.074L6.51122 16.3757C6.56571 16.784 6.45473 17.1568 6.1783 17.4941C5.90187 17.8314 5.5497 18 5.12179 18Z" fill="#83B59F"/>
</svg>
