<svg width="17" height="18" viewBox="0 0 17 18" fill="none" xmlns="http://www.w3.org/2000/svg">
<path d="M12.1497 8.68293L8.67832 5.29268C8.28205 4.90244 7.95315 4.46431 7.69161 3.97829C7.43007 3.49228 7.2993 2.96293 7.2993 2.39024C7.2993 1.72634 7.52581 1.16195 7.97882 0.697074C8.432 0.232358 8.98218 0 9.62937 0C10.1524 0 10.624 0.154472 11.0441 0.463415C11.4641 0.772358 11.8326 1.13821 12.1497 1.56098C12.4667 1.13821 12.8352 0.772358 13.2552 0.463415C13.6753 0.154472 14.1469 0 14.6699 0C15.3171 0 15.8673 0.232358 16.3205 0.697074C16.7735 1.16195 17 1.72634 17 2.39024C17 2.96293 16.8692 3.49228 16.6077 3.97829C16.3462 4.46431 16.0172 4.90244 15.621 5.29268L12.1497 8.68293ZM12.1497 7.7561L15.0741 4.90244C15.4228 4.56098 15.72 4.17886 15.9657 3.7561C16.2114 3.33333 16.3343 2.87805 16.3343 2.39024C16.3343 1.9187 16.1718 1.51626 15.8469 1.18293C15.5219 0.849593 15.1296 0.682927 14.6699 0.682927C14.242 0.682927 13.8615 0.821138 13.5287 1.09756C13.1958 1.37398 12.8946 1.69106 12.6252 2.04878L12.1497 2.68293L11.6741 2.04878C11.4047 1.69106 11.1035 1.37398 10.7706 1.09756C10.4378 0.821138 10.0573 0.682927 9.62937 0.682927C9.1697 0.682927 8.77739 0.849593 8.45245 1.18293C8.12751 1.51626 7.96504 1.9187 7.96504 2.39024C7.96504 2.87805 8.08788 3.33333 8.33357 3.7561C8.57925 4.17886 8.87646 4.56098 9.22517 4.90244L12.1497 7.7561ZM3.23357 15.0244L10.6042 17.2683L16.3105 15.4634C16.3105 15.122 16.2327 14.8821 16.0772 14.7439C15.9219 14.6057 15.746 14.5366 15.5497 14.5366H11.1244C10.7301 14.5366 10.3585 14.5203 10.0098 14.4878C9.66107 14.4553 9.30443 14.374 8.93986 14.2439L6.8951 13.561L7.15664 12.878L9.08252 13.6098C9.39953 13.7398 9.75618 13.813 10.1524 13.8293C10.5487 13.8455 11.0797 13.8537 11.7455 13.8537C11.7455 13.5122 11.69 13.2439 11.579 13.0488C11.4681 12.8537 11.3016 12.7154 11.0797 12.6341L5.63497 10.5854C5.58741 10.5691 5.54382 10.5569 5.5042 10.5488C5.46457 10.5407 5.42098 10.5366 5.37343 10.5366H3.23357V15.0244ZM0 16.9756V9.85366H5.34537C5.42748 9.85366 5.51291 9.86341 5.60168 9.88293C5.69044 9.90244 5.77287 9.9252 5.84895 9.95122L11.3175 12C11.6028 12.1138 11.8564 12.3211 12.0783 12.622C12.3002 12.9228 12.4112 13.3333 12.4112 13.8537H15.5497C16.0569 13.8537 16.4254 14.0122 16.6552 14.3293C16.8851 14.6463 17 15.0406 17 15.5122V16L10.6517 18L3.23357 15.7561V16.9756H0ZM0.665734 16.2927H2.56783V10.5366H0.665734V16.2927Z" fill="#83B59F"/>
</svg>
