<svg width="18" height="18" viewBox="0 0 18 18" fill="none" xmlns="http://www.w3.org/2000/svg">
<path d="M1.57434 18C1.11953 18 0.74344 17.8517 0.446064 17.5552C0.148688 17.2587 0 16.8837 0 16.4302V3.45349C0 3 0.148688 2.625 0.446064 2.32849C0.74344 2.03198 1.11953 1.88372 1.57434 1.88372H10.207L9.4723 2.61628H1.57434C1.36443 2.61628 1.17201 2.70349 0.997085 2.87791C0.822157 3.05233 0.734694 3.24419 0.734694 3.45349V16.4302C0.734694 16.6395 0.822157 16.8314 0.997085 17.0058C1.17201 17.1802 1.36443 17.2674 1.57434 17.2674H14.5889C14.7988 17.2674 14.9913 17.1802 15.1662 17.0058C15.3411 16.8314 15.4286 16.6395 15.4286 16.4302V8.42442L16.1633 7.69186V16.4302C16.1633 16.8837 16.0146 17.2587 15.7172 17.5552C15.4198 17.8517 15.0437 18 14.5889 18H1.57434ZM6.29738 11.7209V9.49709L15.6122 0.209302C15.6997 0.122093 15.7872 0.065407 15.8746 0.0392442C15.9621 0.0130814 16.0583 0 16.1633 0C16.2507 0 16.3382 0.0130814 16.4257 0.0392442C16.5131 0.065407 16.5918 0.113372 16.6618 0.18314L17.7376 1.20349C17.8251 1.2907 17.8907 1.38663 17.9344 1.49128C17.9781 1.59593 18 1.70058 18 1.80523C18 1.90988 17.9869 2.00581 17.9606 2.09302C17.9344 2.18023 17.8776 2.26744 17.7901 2.35465L8.3965 11.7209H6.29738ZM7.03207 10.9884H8.08163L15.3499 3.74128L14.8251 3.21802L14.2216 2.64244L7.03207 9.81105V10.9884Z" fill="#83B59F"/>
</svg>
