<svg width="18" height="18" viewBox="0 0 18 18" fill="none" xmlns="http://www.w3.org/2000/svg">
<path d="M7.92026 18C7.72629 18 7.53078 17.9612 7.33371 17.8836C7.13664 17.806 6.95931 17.6897 6.80172 17.5345L0.465517 11.1983C0.303621 11.0379 0.185517 10.8609 0.111207 10.6673C0.037069 10.4737 0 10.2767 0 10.0764C0 9.87603 0.037069 9.67733 0.111207 9.48026C0.185517 9.28319 0.303621 9.10586 0.465517 8.94828L8.94828 0.465517C9.09138 0.323276 9.26043 0.210086 9.45543 0.125948C9.6506 0.0419826 9.85224 0 10.0603 0H16.4224C16.8707 0 17.2457 0.154482 17.5474 0.463448C17.8491 0.772413 18 1.14379 18 1.57759V7.93966C18 8.15414 17.9612 8.35862 17.8836 8.5531C17.806 8.74759 17.6897 8.91379 17.5345 9.05172L9.02586 17.5345C8.87069 17.6897 8.69612 17.806 8.50216 17.8836C8.30819 17.9612 8.11422 18 7.92026 18ZM7.31897 17.0172C7.49138 17.1897 7.69397 17.2759 7.92672 17.2759C8.15948 17.2759 8.36207 17.1897 8.53448 17.0172L17.0431 8.53448C17.1293 8.44828 17.1897 8.35345 17.2241 8.25C17.2586 8.14655 17.2759 8.0431 17.2759 7.93966V1.57759C17.2759 1.33621 17.194 1.13793 17.0302 0.982759C16.8664 0.827586 16.6638 0.75 16.4224 0.75H9.72414L0.982759 9.46552C0.810345 9.63793 0.724138 9.84052 0.724138 10.0733C0.724138 10.306 0.810345 10.5086 0.982759 10.681L7.31897 17.0172ZM14.6121 4.26724C14.8634 4.26724 15.0772 4.18172 15.2532 4.01069C15.4292 3.83983 15.5172 3.63224 15.5172 3.38793C15.5172 3.13655 15.4303 2.92285 15.2563 2.74681C15.0823 2.57078 14.8711 2.48276 14.6227 2.48276C14.3742 2.48276 14.1638 2.56974 13.9914 2.74371C13.819 2.91767 13.7328 3.12888 13.7328 3.37733C13.7328 3.62578 13.8183 3.83621 13.9893 4.00862C14.1602 4.18103 14.3678 4.26724 14.6121 4.26724Z" fill="#83B59F"/>
</svg>
