<svg width="17" height="18" viewBox="0 0 17 18" fill="none" xmlns="http://www.w3.org/2000/svg">
<path d="M0.977011 18V7.50409H0V3.62943H5.00718C4.77921 3.44959 4.62045 3.23044 4.53089 2.97196C4.44133 2.71365 4.39655 2.44234 4.39655 2.15804C4.39655 1.55853 4.60555 1.04902 5.02355 0.629509C5.44138 0.209836 5.94886 0 6.54598 0C6.9205 0 7.26245 0.0940055 7.57184 0.282016C7.88123 0.470027 8.14176 0.711172 8.35345 1.00545C8.56513 0.711172 8.82567 0.470027 9.13506 0.282016C9.44444 0.0940055 9.7864 0 10.1609 0C10.758 0 11.2655 0.209836 11.6833 0.629509C12.1013 1.04902 12.3103 1.55853 12.3103 2.15804C12.3103 2.43597 12.2656 2.70572 12.176 2.9673C12.0864 3.22888 11.9277 3.44959 11.6997 3.62943H17V7.50409H16.023V18H0.977011ZM9.12284 1.10967C8.83788 1.39169 8.6954 1.74114 8.6954 2.15804C8.6954 2.57493 8.83585 2.92439 9.11674 3.2064C9.39763 3.48842 9.74569 3.62943 10.1609 3.62943C10.5761 3.62943 10.9242 3.48842 11.2051 3.2064C11.486 2.92439 11.6264 2.57493 11.6264 2.15804C11.6264 1.74114 11.484 1.39169 11.199 1.10967C10.914 0.827657 10.568 0.686649 10.1609 0.686649C9.75383 0.686649 9.40781 0.827657 9.12284 1.10967ZM5.08046 2.15804C5.08046 2.57493 5.22294 2.92439 5.5079 3.2064C5.79286 3.48842 6.13889 3.62943 6.54598 3.62943C6.95306 3.62943 7.29909 3.48842 7.58405 3.2064C7.86901 2.92439 8.01149 2.57493 8.01149 2.15804C8.01149 1.74114 7.87105 1.39169 7.59016 1.10967C7.30927 0.827657 6.96121 0.686649 6.54598 0.686649C6.13075 0.686649 5.78269 0.827657 5.5018 1.10967C5.22091 1.39169 5.08046 1.74114 5.08046 2.15804ZM0.683908 4.31608V6.81744H8.15805V4.31608H0.683908ZM8.15805 17.3134V7.50409H1.66092V17.3134H8.15805ZM8.84195 17.3134H15.3391V7.50409H8.84195V17.3134ZM16.3161 6.81744V4.31608H8.84195V6.81744H16.3161Z" fill="#83B59F"/>
</svg>
