<svg width="13" height="18" viewBox="0 0 13 18" fill="none" xmlns="http://www.w3.org/2000/svg">
<path d="M2.73391 18C2.51073 18 2.32475 17.9298 2.17597 17.7895C2.02718 17.6491 1.95279 17.4737 1.95279 17.2632V16.2105C1.95279 15.5439 2.13412 14.9079 2.49678 14.3026C2.85944 13.6974 3.40343 13.193 4.12876 12.7895L3.23605 7.36842H1.67382C1.19027 7.36842 0.790415 7.2193 0.474249 6.92105C0.158083 6.62281 0 6.24561 0 5.78947V2.31579C0 1.87719 0.162732 1.50439 0.488197 1.19737C0.813662 0.890351 1.20887 0.736842 1.67382 0.736842H5.24464V0H9.70815V0.736842H12.8047L10.824 12.7895C11.5494 13.193 12.0933 13.6974 12.456 14.3026C12.8187 14.9079 13 15.5439 13 16.2105V17.2632C13 17.4737 12.9256 17.6491 12.7768 17.7895C12.628 17.9298 12.4421 18 12.2189 18H2.73391ZM3.12446 6.63158L2.25966 1.47368H1.67382C1.45064 1.47368 1.24607 1.5614 1.06009 1.73684C0.874106 1.91228 0.781116 2.10526 0.781116 2.31579V5.78947C0.781116 6 0.874106 6.19298 1.06009 6.36842C1.24607 6.54386 1.45064 6.63158 1.67382 6.63158H3.12446ZM8.03434 15.6842C8.18312 15.5439 8.25751 15.3684 8.25751 15.1579C8.25751 14.9474 8.18312 14.7719 8.03434 14.6316C7.88555 14.4912 7.69957 14.4211 7.4764 14.4211C7.25322 14.4211 7.06724 14.4912 6.91846 14.6316C6.76967 14.7719 6.69528 14.9474 6.69528 15.1579C6.69528 15.3684 6.76967 15.5439 6.91846 15.6842C7.06724 15.8246 7.25322 15.8947 7.4764 15.8947C7.69957 15.8947 7.88555 15.8246 8.03434 15.6842ZM4.85408 12.3158H10.0987L11.8841 1.47368H3.06867L4.85408 12.3158ZM2.73391 17.2632H12.2189V16.2105C12.2189 15.3333 11.8934 14.5877 11.2425 13.9737C10.5916 13.3596 9.80114 13.0526 8.87124 13.0526H6.08155C5.15165 13.0526 4.36123 13.3596 3.7103 13.9737C3.05937 14.5877 2.73391 15.3333 2.73391 16.2105V17.2632Z" fill="#83B59F"/>
</svg>
