<svg width="18" height="18" viewBox="0 0 18 18" fill="none" xmlns="http://www.w3.org/2000/svg">
<path d="M2.58621 18C2.15517 18 1.78879 17.8491 1.48707 17.5474C1.18534 17.2457 1.03448 16.8793 1.03448 16.4483V4.99138C0.741379 4.88793 0.49569 4.70259 0.297414 4.43534C0.0991379 4.1681 0 3.86207 0 3.51724V1.55172C0 1.12069 0.150862 0.75431 0.452586 0.452586C0.75431 0.150862 1.12069 0 1.55172 0H16.4483C16.8793 0 17.2457 0.150862 17.5474 0.452586C17.8491 0.75431 18 1.12069 18 1.55172V3.51724C18 3.86207 17.9009 4.1681 17.7026 4.43534C17.5043 4.70259 17.2586 4.88793 16.9655 4.99138V16.4483C16.9655 16.8793 16.8147 17.2457 16.5129 17.5474C16.2112 17.8491 15.8448 18 15.4138 18H2.58621ZM1.75862 5.06897V16.319C1.75862 16.5948 1.85776 16.8233 2.05603 17.0043C2.25431 17.1853 2.5 17.2759 2.7931 17.2759H15.4138C15.6552 17.2759 15.8534 17.1983 16.0086 17.0431C16.1638 16.8879 16.2414 16.6897 16.2414 16.4483V5.06897H1.75862ZM1.55172 4.34483H16.4483C16.6897 4.34483 16.8879 4.26724 17.0431 4.11207C17.1983 3.9569 17.2759 3.75862 17.2759 3.51724V1.55172C17.2759 1.31034 17.1983 1.11207 17.0431 0.956897C16.8879 0.801724 16.6897 0.724138 16.4483 0.724138H1.55172C1.31034 0.724138 1.11207 0.801724 0.956897 0.956897C0.801724 1.11207 0.724138 1.31034 0.724138 1.55172V3.51724C0.724138 3.75862 0.801724 3.9569 0.956897 4.11207C1.11207 4.26724 1.31034 4.34483 1.55172 4.34483ZM6.41379 9.5431H11.5862V9H6.41379V9.5431Z" fill="#83B59F"/>
</svg>
