<svg width="23" height="18" viewBox="0 0 23 18" fill="none" xmlns="http://www.w3.org/2000/svg">
<path d="M4.38683 18C3.97846 18 3.60582 17.8834 3.26891 17.6503C2.93201 17.4172 2.71251 17.098 2.61042 16.6926L0.0376956 7.72297C-0.0439782 7.43919 0.00706792 7.17568 0.190834 6.93243C0.3746 6.68919 0.619621 6.56757 0.925898 6.56757H6.65327L10.7574 0.39527C10.8595 0.253378 10.9718 0.152027 11.0943 0.0912162C11.2168 0.0304054 11.3597 0 11.5231 0C11.6864 0 11.8293 0.035473 11.9519 0.106419C12.0744 0.177365 12.1867 0.283784 12.2888 0.425676L16.3316 6.56757H22.059C22.3653 6.56757 22.6154 6.68919 22.8094 6.93243C23.0033 7.17568 23.0493 7.43919 22.9472 7.72297L20.3132 16.6926C20.2111 17.098 19.9916 17.4172 19.6547 17.6503C19.3178 17.8834 18.9452 18 18.5368 18H4.38683ZM4.26431 17.1486H18.7206C18.9452 17.1486 19.1392 17.0828 19.3025 16.951C19.4658 16.8193 19.5782 16.6419 19.6394 16.4189L22.1509 7.41892H0.834015L3.34548 16.4189C3.40674 16.6419 3.51904 16.8193 3.68239 16.951C3.84574 17.0828 4.03971 17.1486 4.26431 17.1486ZM12.0897 12.8767C12.2632 12.7044 12.35 12.5068 12.35 12.2838C12.35 12.0608 12.2632 11.8632 12.0897 11.6909C11.9161 11.5186 11.717 11.4324 11.4924 11.4324C11.2678 11.4324 11.0688 11.5186 10.8952 11.6909C10.7216 11.8632 10.6349 12.0608 10.6349 12.2838C10.6349 12.5068 10.7216 12.7044 10.8952 12.8767C11.0688 13.049 11.2678 13.1351 11.4924 13.1351C11.717 13.1351 11.9161 13.049 12.0897 12.8767ZM7.69461 6.56757H15.2903L11.4924 0.790541L7.69461 6.56757Z" fill="#83B59F"/>
</svg>
