<svg width="18" height="18" viewBox="0 0 18 18" fill="none" xmlns="http://www.w3.org/2000/svg">
<path d="M9 12.3103C9.93103 12.3103 10.7155 11.9914 11.3534 11.3534C11.9914 10.7155 12.3103 9.93103 12.3103 9C12.3103 8.06897 11.9914 7.28448 11.3534 6.64655C10.7155 6.00862 9.93103 5.68966 9 5.68966C8.06897 5.68966 7.28448 6.00862 6.64655 6.64655C6.00862 7.28448 5.68966 8.06897 5.68966 9C5.68966 9.93103 6.00862 10.7155 6.64655 11.3534C7.28448 11.9914 8.06897 12.3103 9 12.3103ZM8.26293 9.73707C8.06466 9.53879 7.96552 9.2931 7.96552 9C7.96552 8.7069 8.06466 8.46121 8.26293 8.26293C8.46121 8.06466 8.7069 7.96552 9 7.96552C9.2931 7.96552 9.53879 8.06466 9.73707 8.26293C9.93535 8.46121 10.0345 8.7069 10.0345 9C10.0345 9.2931 9.93535 9.53879 9.73707 9.73707C9.53879 9.93535 9.2931 10.0345 9 10.0345C8.7069 10.0345 8.46121 9.93535 8.26293 9.73707ZM9.0044 18C7.76009 18 6.59 17.7639 5.49414 17.2916C4.39828 16.8194 3.44509 16.1784 2.63457 15.3688C1.82388 14.5591 1.18216 13.6072 0.709396 12.5128C0.236465 11.4184 0 10.2489 0 9.0044C0 7.76009 0.236121 6.59 0.708362 5.49414C1.1806 4.39828 1.82155 3.44509 2.63121 2.63457C3.44086 1.82388 4.39285 1.18216 5.48716 0.709396C6.58164 0.236465 7.75112 0 8.9956 0C10.2399 0 11.41 0.236121 12.5059 0.708362C13.6017 1.1806 14.5549 1.82155 15.3654 2.63121C16.1761 3.44086 16.8178 4.39284 17.2906 5.48715C17.7635 6.58164 18 7.75112 18 8.9956C18 10.2399 17.7639 11.41 17.2916 12.5059C16.8194 13.6017 16.1784 14.5549 15.3688 15.3654C14.5591 16.1761 13.6072 16.8178 12.5128 17.2906C11.4184 17.7635 10.2489 18 9.0044 18ZM9 17.2759C11.3103 17.2759 13.2672 16.4741 14.8707 14.8707C16.4741 13.2672 17.2759 11.3103 17.2759 9C17.2759 6.68966 16.4741 4.73276 14.8707 3.12931C13.2672 1.52586 11.3103 0.724138 9 0.724138C6.68966 0.724138 4.73276 1.52586 3.12931 3.12931C1.52586 4.73276 0.724138 6.68966 0.724138 9C0.724138 11.3103 1.52586 13.2672 3.12931 14.8707C4.73276 16.4741 6.68966 17.2759 9 17.2759Z" fill="#83B59F"/>
</svg>
