<svg width="21" height="18" viewBox="0 0 21 18" fill="none" xmlns="http://www.w3.org/2000/svg">
<path d="M4.86379 5.23052L2.43542 6.54545C2.21557 6.66234 2.00571 6.69643 1.80584 6.64773C1.60598 6.59903 1.44609 6.46753 1.32617 6.25325L0.126973 4.20779C0.00705407 3.99351 -0.0279224 3.78409 0.022044 3.57955C0.0720104 3.375 0.20692 3.21429 0.426772 3.0974L5.76318 0H7.02234C7.26218 0 7.45205 0.0681818 7.59195 0.204545C7.73186 0.340909 7.80181 0.525974 7.80181 0.75974V0.876623C7.80181 1.57792 8.07163 2.19156 8.61127 2.71753C9.15091 3.24351 9.78048 3.50649 10.5 3.50649C11.2195 3.50649 11.8491 3.24351 12.3887 2.71753C12.9284 2.19156 13.1982 1.57792 13.1982 0.876623V0.75974C13.1982 0.525974 13.2681 0.340909 13.408 0.204545C13.548 0.0681818 13.7378 0 13.9777 0H15.2368L20.5732 3.0974C20.7931 3.21429 20.928 3.375 20.978 3.57955C21.0279 3.78409 20.9929 3.99351 20.873 4.20779L19.6738 6.25325C19.5539 6.46753 19.394 6.59903 19.1942 6.64773C18.9943 6.69643 18.7844 6.66234 18.5646 6.54545L16.1362 5.23052V17.1818C16.1362 17.4156 16.0563 17.6104 15.8964 17.7662C15.7365 17.9221 15.5366 18 15.2968 18H5.70322C5.46339 18 5.26352 17.9221 5.10363 17.7662C4.94374 17.6104 4.86379 17.4156 4.86379 17.1818V5.23052ZM5.70322 3.85714V17.1818H15.2968V3.85714L18.9543 5.81493L20.1535 3.7987L15.027 0.818182H14.0376C14.0376 1.79221 13.6979 2.62013 13.0183 3.30195C12.3388 3.98377 11.4993 4.32468 10.5 4.32468C9.50067 4.32468 8.66124 3.98377 7.98169 3.30195C7.30215 2.62013 6.96238 1.79221 6.96238 0.818182H5.97304L0.84649 3.7987L2.04568 5.81493L5.70322 3.85714Z" fill="#83B59F"/>
</svg>
