<svg width="16" height="18" viewBox="0 0 16 18" fill="none" xmlns="http://www.w3.org/2000/svg">
<path d="M7.63636 17.1866V9.20991L0.727273 5.1691V12.6735C0.727273 12.8134 0.761905 12.9446 0.831169 13.0671C0.900433 13.1895 1.00433 13.2945 1.14286 13.3819L7.63636 17.1866ZM8.36364 17.1866L14.8571 13.3819C14.9957 13.2945 15.0996 13.1895 15.1688 13.0671C15.2381 12.9446 15.2727 12.8134 15.2727 12.6735V5.1691L8.36364 9.20991V17.1866ZM7.22078 17.7901L0.779221 14.0379C0.536797 13.898 0.34632 13.7055 0.207792 13.4606C0.0692641 13.2157 0 12.9534 0 12.6735V5.32653C0 5.04665 0.0692641 4.78426 0.207792 4.53936C0.34632 4.29446 0.536797 4.10204 0.779221 3.9621L7.22078 0.209913C7.4632 0.0699708 7.72294 0 8 0C8.27706 0 8.5368 0.0699708 8.77922 0.209913L15.2208 3.9621C15.4632 4.10204 15.6537 4.29446 15.7922 4.53936C15.9307 4.78426 16 5.04665 16 5.32653V12.6735C16 12.9534 15.9307 13.2157 15.7922 13.4606C15.6537 13.7055 15.4632 13.898 15.2208 14.0379L8.77922 17.7901C8.5368 17.93 8.27706 18 8 18C7.72294 18 7.4632 17.93 7.22078 17.7901ZM11.7662 6.37609L14.8312 4.59184L8.41558 0.83965C8.27706 0.752187 8.13853 0.708455 8 0.708455C7.86147 0.708455 7.72294 0.752187 7.58442 0.83965L4.96104 2.36152L11.7662 6.37609ZM8 8.58018L11.039 6.79592L4.20779 2.80758L1.16883 4.59184L8 8.58018Z" fill="#83B59F"/>
</svg>
