<svg width="18" height="18" viewBox="0 0 18 18" fill="none" xmlns="http://www.w3.org/2000/svg">
<path d="M2.49327 15.4781C1.70373 14.674 1.0908 13.758 0.654483 12.7301C0.218161 11.7021 0 10.6392 0 9.54152C0 8.43461 0.212967 7.3277 0.6389 6.22079C1.06483 5.11387 1.74529 4.0905 2.68026 3.15067C3.49057 2.33615 4.52424 1.70438 5.78126 1.25535C7.03828 0.806315 8.37322 0.487817 9.78607 0.299851C11.1989 0.111885 12.617 0.0126803 14.0402 0.00223769C15.4634 -0.00820487 16.7464 0.0179015 17.8892 0.0805569C17.9723 1.20835 18.0087 2.48757 17.9983 3.9182C17.9879 5.34883 17.8788 6.77424 17.671 8.19443C17.4633 9.61462 17.136 10.9565 16.6893 12.22C16.2426 13.4836 15.6245 14.5122 14.8349 15.3058C13.9207 16.2456 12.9286 16.9296 11.8586 17.3578C10.7886 17.7859 9.72104 18 8.656 18C7.53943 18 6.43055 17.7807 5.32936 17.3421C4.22816 16.9035 3.2828 16.2822 2.49327 15.4781ZM4.17622 15.7444C4.84109 16.2039 5.57349 16.5485 6.37341 16.7782C7.17334 17.008 7.9369 17.1228 8.6641 17.1228C9.63398 17.1228 10.5933 16.9349 11.542 16.5589C12.4906 16.183 13.3805 15.5564 14.2116 14.6793C14.5817 14.3033 14.9569 13.776 15.3373 13.0972C15.7178 12.4184 16.0468 11.5308 16.3244 10.4344C16.6019 9.33789 16.8126 8.01169 16.9564 6.45574C17.1004 4.8998 17.1412 3.04625 17.0789 0.895077C16.0608 0.853307 14.9025 0.848086 13.6039 0.879413C12.3053 0.910741 11.0067 1.02561 9.70816 1.22402C8.40958 1.42243 7.19411 1.72004 6.06175 2.11686C4.9294 2.51367 4.03078 3.04625 3.36591 3.71457C2.45171 4.63352 1.80762 5.59945 1.43363 6.61238C1.05964 7.62531 0.872643 8.55992 0.872643 9.41621C0.872643 10.5231 1.096 11.5778 1.54271 12.5803C1.98942 13.5828 2.57638 14.3869 3.30358 14.9925C3.71912 13.5724 4.42035 12.2096 5.40727 10.9043C6.39419 9.59896 7.87457 8.33018 9.8484 7.09796C8.43555 8.33018 7.26164 9.61462 6.32666 10.9513C5.39169 12.2879 4.67488 13.8856 4.17622 15.7444Z" fill="#83B59F"/>
</svg>
