<svg width="24" height="18" viewBox="0 0 24 18" fill="none" xmlns="http://www.w3.org/2000/svg">
<path d="M0.482066 18C0.345481 18 0.230933 17.9562 0.138422 17.8687C0.0461407 17.7812 0 17.6727 0 17.5433C0 17.4672 0.0172166 17.3945 0.0516499 17.3253C0.0860832 17.2562 0.137733 17.2012 0.2066 17.1604L11.5007 9.06716V6.64925C11.5007 6.51605 11.5478 6.40444 11.6419 6.31444C11.736 6.22422 11.8496 6.1791 11.9828 6.1791C12.7174 6.1791 13.3544 5.92142 13.8938 5.40604C14.4333 4.89045 14.703 4.27478 14.703 3.55903C14.703 2.84306 14.4419 2.22761 13.9197 1.71269C13.3974 1.19776 12.7633 0.940299 12.0172 0.940299C11.2826 0.940299 10.6456 1.19172 10.1062 1.69455C9.56671 2.19739 9.29699 2.80791 9.29699 3.52612H8.33286C8.33286 2.54104 8.68867 1.70709 9.40029 1.02425C10.1119 0.341418 10.9842 0 12.0172 0C13.0502 0 13.9168 0.341418 14.6169 1.02425C15.3171 1.70709 15.6671 2.55224 15.6671 3.5597C15.6671 4.47761 15.363 5.26679 14.7547 5.92724C14.1463 6.58769 13.3831 6.97388 12.4648 7.08582V9.06716L23.7934 17.1604C23.8623 17.1992 23.9139 17.2516 23.9484 17.3176C23.9828 17.3837 24 17.4555 24 17.5332C24 17.6653 23.9537 17.7761 23.8612 17.8657C23.769 17.9552 23.6545 18 23.5179 18H0.482066ZM1.99713 17.0597H22.0029L11.9828 9.90672L1.99713 17.0597Z" fill="#83B59F"/>
</svg>
