<svg width="19" height="18" viewBox="0 0 19 18" fill="none" xmlns="http://www.w3.org/2000/svg">
<path d="M1.63793 18C1.16475 18 0.773467 17.8431 0.46408 17.5292C0.154693 17.2154 0 16.8185 0 16.3385V4.81846C0 4.33846 0.154693 3.94154 0.46408 3.62769C0.773467 3.31385 1.16475 3.15692 1.63793 3.15692H6.38793L9.5 0L12.6121 3.15692H17.3621C17.8352 3.15692 18.2265 3.31385 18.5359 3.62769C18.8453 3.94154 19 4.33846 19 4.81846V16.3385C19 16.8185 18.8453 17.2154 18.5359 17.5292C18.2265 17.8431 17.8352 18 17.3621 18H1.63793ZM1.63793 17.2246H17.3621C17.5805 17.2246 17.7807 17.1323 17.9626 16.9477C18.1446 16.7631 18.2356 16.56 18.2356 16.3385V4.81846C18.2356 4.59692 18.1446 4.39385 17.9626 4.20923C17.7807 4.02462 17.5805 3.93231 17.3621 3.93231H1.63793C1.41954 3.93231 1.21935 4.02462 1.03736 4.20923C0.855364 4.39385 0.764368 4.59692 0.764368 4.81846V16.3385C0.764368 16.56 0.855364 16.7631 1.03736 16.9477C1.21935 17.1323 1.41954 17.2246 1.63793 17.2246ZM5.07759 14.2892H14.1408L11.3563 10.5231L8.62644 13.9569L6.87931 11.9077L5.07759 14.2892ZM15.4648 9.15231C15.6741 8.94 15.7787 8.67692 15.7787 8.36308C15.7787 8.04923 15.6741 7.78615 15.4648 7.57385C15.2555 7.36154 14.9962 7.25538 14.6868 7.25538C14.3774 7.25538 14.1181 7.36154 13.9088 7.57385C13.6995 7.78615 13.5948 8.04923 13.5948 8.36308C13.5948 8.67692 13.6995 8.94 13.9088 9.15231C14.1181 9.36462 14.3774 9.47077 14.6868 9.47077C14.9962 9.47077 15.2555 9.36462 15.4648 9.15231ZM7.47989 3.15692H11.5201L9.5 1.10769L7.47989 3.15692Z" fill="#83B59F"/>
</svg>
