<svg width="17" height="18" viewBox="0 0 17 18" fill="none" xmlns="http://www.w3.org/2000/svg">
<path d="M4.17652 17.6168C3.91575 17.3613 3.78537 17.044 3.78537 16.6648C3.78537 16.2857 3.91575 15.9684 4.17652 15.7129C4.43729 15.4574 4.76115 15.3297 5.1481 15.3297C5.53505 15.3297 5.8589 15.4574 6.11967 15.7129C6.38044 15.9684 6.51083 16.2857 6.51083 16.6648C6.51083 17.044 6.38044 17.3613 6.11967 17.6168C5.8589 17.8723 5.53505 18 5.1481 18C4.76115 18 4.43729 17.8723 4.17652 17.6168ZM13.4633 17.6168C13.2025 17.3613 13.0721 17.044 13.0721 16.6648C13.0721 16.2857 13.2025 15.9684 13.4633 15.7129C13.7241 15.4574 14.0479 15.3297 14.4349 15.3297C14.8218 15.3297 15.1457 15.4574 15.4064 15.7129C15.6672 15.9684 15.7976 16.2857 15.7976 16.6648C15.7976 17.044 15.6672 17.3613 15.4064 17.6168C15.1457 17.8723 14.8218 18 14.4349 18C14.0479 18 13.7241 17.8723 13.4633 17.6168ZM3.53301 2.67033L6.30894 8.40659H12.8955C13.0469 8.40659 13.1815 8.36951 13.2992 8.29533C13.417 8.22115 13.518 8.11813 13.6021 7.98626L16.2014 3.36264C16.3023 3.18132 16.3107 3.0206 16.2266 2.88049C16.1425 2.74038 15.9995 2.67033 15.7976 2.67033H3.53301ZM3.17971 1.97802H15.7976C16.2518 1.97802 16.5925 2.15522 16.8196 2.50962C17.0468 2.86401 17.0594 3.23077 16.8575 3.60989L14.1825 8.40659C14.0479 8.62088 13.8755 8.78984 13.6652 8.91346C13.4549 9.03709 13.2235 9.0989 12.9712 9.0989H5.8547L4.59291 11.3736C4.45832 11.5714 4.45411 11.7857 4.58029 12.0165C4.70647 12.2473 4.89574 12.3626 5.1481 12.3626H15.7976V13.0549H5.1481C4.60973 13.0549 4.21017 12.8365 3.9494 12.3997C3.68863 11.9629 3.68442 11.522 3.93678 11.0769L5.5014 8.35714L1.7665 0.692308H0V0H2.22075L3.17971 1.97802Z" fill="#83B59F"/>
</svg>
