<svg width="16" height="18" viewBox="0 0 16 18" fill="none" xmlns="http://www.w3.org/2000/svg">
<path d="M1.76623 18C1.26407 18 0.844156 17.8269 0.506494 17.4808C0.168831 17.1346 0 16.7041 0 16.1893V14.3787H3.11688V0L4.36364 0.745562L5.66234 0L6.96104 0.745562L8.25974 0L9.55844 0.745562L10.8571 0L12.1558 0.745562L13.4545 0L14.7532 0.745562L16 0V16.1893C16 16.7041 15.8312 17.1346 15.4935 17.4808C15.1558 17.8269 14.7359 18 14.2338 18H1.76623ZM14.2338 17.2544C14.5281 17.2544 14.7749 17.1524 14.974 16.9482C15.1732 16.7441 15.2727 16.4911 15.2727 16.1893V1.27811H3.84416V14.3787H13.1948V16.1893C13.1948 16.4911 13.2944 16.7441 13.4935 16.9482C13.6926 17.1524 13.9394 17.2544 14.2338 17.2544ZM5.4026 4.84615V4.10059H10.7532V4.84615H5.4026ZM5.4026 8.04142V7.29586H10.7532V8.04142H5.4026ZM13.039 5.21893C12.8485 5.21893 12.6797 5.14349 12.5325 4.9926C12.3853 4.84172 12.3117 4.66864 12.3117 4.47337C12.3117 4.27811 12.3853 4.10503 12.5325 3.95414C12.6797 3.80325 12.8485 3.72781 13.039 3.72781C13.2294 3.72781 13.3983 3.80325 13.5455 3.95414C13.6926 4.10503 13.7662 4.27811 13.7662 4.47337C13.7662 4.66864 13.6926 4.84172 13.5455 4.9926C13.3983 5.14349 13.2294 5.21893 13.039 5.21893ZM13.039 8.4142C12.8485 8.4142 12.6797 8.33876 12.5325 8.18787C12.3853 8.03698 12.3117 7.86391 12.3117 7.66864C12.3117 7.47337 12.3853 7.3003 12.5325 7.14941C12.6797 6.99852 12.8485 6.92308 13.039 6.92308C13.2294 6.92308 13.3983 6.99852 13.5455 7.14941C13.6926 7.3003 13.7662 7.47337 13.7662 7.66864C13.7662 7.86391 13.6926 8.03698 13.5455 8.18787C13.3983 8.33876 13.2294 8.4142 13.039 8.4142ZM1.76623 17.2544H12.4675V15.1243H0.727273V16.1893C0.727273 16.4911 0.82684 16.7441 1.02597 16.9482C1.22511 17.1524 1.47186 17.2544 1.76623 17.2544Z" fill="#83B59F"/>
</svg>
