<svg width="21" height="18" viewBox="0 0 21 18" fill="none" xmlns="http://www.w3.org/2000/svg">
<path d="M5.65785 18C5.47273 18 5.29917 17.9608 5.13719 17.8825C4.97521 17.8041 4.84793 17.6754 4.75537 17.4963L2.39504 13.3657H4.06116L5.31074 15.6493H7.98347V14.709H5.90083L4.65124 12.4254H1.83967L0.138843 9.50373C0.092562 9.41418 0.0578512 9.33022 0.0347107 9.25187C0.0115702 9.17351 0 9.08955 0 9C0 8.95522 0.046281 8.78731 0.138843 8.49627L1.83967 5.57463H4.65124L5.90083 3.29104H7.98347V2.35075H5.31074L4.06116 4.63433H2.39504L4.75537 0.503731C4.84793 0.324627 4.97521 0.195896 5.13719 0.117537C5.29917 0.0391791 5.47273 0 5.65785 0H8.78182C9.08264 0 9.3314 0.0951493 9.5281 0.285448C9.72479 0.475746 9.82314 0.716418 9.82314 1.00746V5.70896H7.70578L6.73388 6.64925H9.82314V10.209H7.18512L6.00496 7.95896H3.60992L2.63802 8.89925H5.41488L6.59504 11.1493H9.82314V16.9925C9.82314 17.2836 9.72479 17.5243 9.5281 17.7146C9.3314 17.9049 9.08264 18 8.78182 18H5.65785ZM11.7496 17.4795C11.3909 17.1325 11.2116 16.7015 11.2116 16.1866C11.2116 15.7612 11.3446 15.3918 11.6107 15.0784C11.8769 14.7649 12.2066 14.5522 12.6 14.4403V3.5597C12.2066 3.44776 11.8769 3.23507 11.6107 2.92164C11.3446 2.60821 11.2116 2.23881 11.2116 1.81343C11.2116 1.29851 11.3909 0.867537 11.7496 0.520522C12.1083 0.173507 12.5537 0 13.0859 0C13.6182 0 14.0636 0.173507 14.4223 0.520522C14.781 0.867537 14.9603 1.29851 14.9603 1.81343C14.9603 2.23881 14.8273 2.60821 14.5612 2.92164C14.295 3.23507 13.9653 3.44776 13.5719 3.5597V7.58955L17.3207 5.40672C17.1355 4.82463 17.2339 4.29851 17.6157 3.82836C17.9975 3.35821 18.5008 3.12313 19.1256 3.12313C19.6579 3.12313 20.1033 3.29664 20.462 3.64366C20.8207 3.99067 21 4.42164 21 4.93657C21 5.45149 20.8207 5.88246 20.462 6.22948C20.1033 6.57649 19.6579 6.75 19.1256 6.75C18.8711 6.75 18.6397 6.69963 18.4314 6.59888C18.2231 6.49813 18.0264 6.3694 17.8413 6.21269L13.9537 8.49627L18.0149 11.6194C18.1769 11.5075 18.3504 11.4235 18.5355 11.3675C18.7207 11.3116 18.9174 11.2836 19.1256 11.2836C19.6579 11.2836 20.1033 11.4571 20.462 11.8041C20.8207 12.1511 21 12.5821 21 13.097C21 13.6119 20.8207 14.0429 20.462 14.3899C20.1033 14.7369 19.6579 14.9104 19.1256 14.9104C18.4314 14.9104 17.905 14.6306 17.5463 14.0709C17.1876 13.5112 17.1355 12.9403 17.3901 12.3582L13.5719 9.40299V14.4739C13.9653 14.5858 14.2893 14.7929 14.5438 15.0952C14.7983 15.3974 14.9256 15.7612 14.9256 16.1866C14.9256 16.7015 14.7521 17.1325 14.405 17.4795C14.0579 17.8265 13.6182 18 13.0859 18C12.5537 18 12.1083 17.8265 11.7496 17.4795Z" fill="#83B59F"/>
</svg>
