<svg width="18" height="18" viewBox="0 0 18 18" fill="none" xmlns="http://www.w3.org/2000/svg">
<path d="M0.703911 6.83422H14.7821V3.65775C14.7821 3.46524 14.6983 3.28877 14.5307 3.12834C14.3631 2.96791 14.1788 2.8877 13.9777 2.8877H1.50838C1.30726 2.8877 1.12291 2.96791 0.955307 3.12834C0.78771 3.28877 0.703911 3.46524 0.703911 3.65775V6.83422ZM1.50838 17.0374C1.07263 17.0374 0.712291 16.9011 0.427374 16.6283C0.142458 16.3556 0 16.0107 0 15.5936V3.65775C0 3.24064 0.142458 2.89572 0.427374 2.62299C0.712291 2.35027 1.07263 2.2139 1.50838 2.2139H3.51955V0H4.32402V2.2139H11.2626V0H11.9665V2.2139H13.9777C14.4134 2.2139 14.7737 2.35027 15.0587 2.62299C15.3436 2.89572 15.486 3.24064 15.486 3.65775V8.59091C15.3687 8.55882 15.2514 8.53877 15.1341 8.53075C15.0168 8.52273 14.8994 8.51069 14.7821 8.49465V7.50802H0.703911V15.5936C0.703911 15.7861 0.78771 15.9626 0.955307 16.123C1.12291 16.2834 1.30726 16.3636 1.50838 16.3636H8.37151C8.40503 16.492 8.45112 16.6083 8.50978 16.7126C8.56844 16.8168 8.62291 16.9251 8.67318 17.0374H1.50838ZM11.6397 16.9652C10.919 16.2754 10.5587 15.4332 10.5587 14.4385C10.5587 13.4438 10.919 12.6016 11.6397 11.9118C12.3603 11.2219 13.2402 10.877 14.2793 10.877C15.3184 10.877 16.1983 11.2219 16.919 11.9118C17.6397 12.6016 18 13.4438 18 14.4385C18 15.4332 17.6397 16.2754 16.919 16.9652C16.1983 17.6551 15.3184 18 14.2793 18C13.2402 18 12.3603 17.6551 11.6397 16.9652ZM15.9385 16.508L16.4413 16.0267L14.6313 14.2941V11.6952H13.9274V14.5829L15.9385 16.508Z" fill="#83B59F"/>
</svg>
