<svg width="12" height="18" viewBox="0 0 12 18" fill="none" xmlns="http://www.w3.org/2000/svg">
<path d="M3.38028 18V15.6623H0V14.8442H2.25352V3.15584H0V2.33766H3.38028V0H4.16901V2.33766H6.70423V0H7.49296V2.33766C8.48826 2.33766 9.30047 2.66396 9.92958 3.31656C10.5587 3.96916 10.8732 4.82143 10.8732 5.87338C10.8732 6.51623 10.7512 7.08117 10.507 7.56818C10.2629 8.05519 9.95305 8.4448 9.57746 8.73701C10.3474 8.9513 10.9437 9.36526 11.3662 9.9789C11.7887 10.5925 12 11.3084 12 12.1266C12 13.1786 11.6854 14.0308 11.0563 14.6834C10.4272 15.336 9.60563 15.6623 8.59155 15.6623H7.49296V18H6.70423V15.6623H4.16901V18H3.38028ZM3.04225 8.59091H7.46479C8.23474 8.59091 8.86385 8.33766 9.35211 7.83117C9.84038 7.32468 10.0845 6.67208 10.0845 5.87338C10.0845 5.07468 9.84038 4.42208 9.35211 3.91558C8.86385 3.40909 8.23474 3.15584 7.46479 3.15584H3.04225V8.59091ZM3.04225 14.8442H8.59155C9.3615 14.8442 9.99061 14.5909 10.4789 14.0844C10.9671 13.5779 11.2113 12.9253 11.2113 12.1266C11.2113 11.3279 10.9671 10.6753 10.4789 10.1688C9.99061 9.66234 9.3615 9.40909 8.59155 9.40909H3.04225V14.8442Z" fill="#83B59F"/>
</svg>
