<svg width="18" height="18" viewBox="0 0 18 18" fill="none" xmlns="http://www.w3.org/2000/svg">
<path d="M4.5 12.0851H10.5309C11.0103 12.0851 11.4162 11.9149 11.7487 11.5747C12.0812 11.2345 12.2474 10.8247 12.2474 10.3454C12.2474 9.86598 12.0773 9.46005 11.7371 9.12758C11.3969 8.7951 10.9794 8.62887 10.4845 8.62887H10.1598V8.48969C10.1598 7.73196 9.87758 7.10567 9.31314 6.61082C8.74871 6.11598 8.07216 5.86856 7.28351 5.86856C6.7732 5.86856 6.30155 6.00773 5.86856 6.28608C5.43557 6.56443 5.11082 6.93557 4.89433 7.39948L4.73196 7.72423L4.38402 7.74742C3.79639 7.77835 3.30541 7.99871 2.91108 8.4085C2.51675 8.8183 2.31959 9.31701 2.31959 9.90464C2.31959 10.5077 2.53222 11.0219 2.95747 11.4472C3.38273 11.8724 3.89691 12.0851 4.5 12.0851ZM4.5 11.4356C4.08247 11.4356 3.72294 11.2848 3.42139 10.9832C3.11985 10.6817 2.96907 10.3222 2.96907 9.90464C2.96907 9.48711 3.11985 9.12758 3.42139 8.82603C3.72294 8.52448 4.08247 8.37371 4.5 8.37371H5.0799C5.17268 7.83247 5.42783 7.38789 5.84536 7.03995C6.26289 6.69201 6.74227 6.51804 7.28351 6.51804C7.90206 6.51804 8.42783 6.73454 8.86082 7.16753C9.29381 7.60052 9.51031 8.12629 9.51031 8.74485V9.30155H10.5309C10.8247 9.30155 11.076 9.40593 11.2848 9.61469C11.4936 9.82345 11.5979 10.0747 11.5979 10.3686C11.5979 10.6624 11.4936 10.9137 11.2848 11.1224C11.076 11.3312 10.8247 11.4356 10.5309 11.4356H4.5ZM5.24227 18V17.3505H6.54124V14.5206H1.39175C0.989691 14.5206 0.657216 14.3892 0.39433 14.1263C0.131443 13.8634 0 13.5309 0 13.1289V4.82474C0 4.42268 0.131443 4.09021 0.39433 3.82732C0.657216 3.56443 0.989691 3.43299 1.39175 3.43299H13.1753C13.5773 3.43299 13.9098 3.56443 14.1727 3.82732C14.4356 4.09021 14.567 4.42268 14.567 4.82474V13.1289C14.567 13.5309 14.4356 13.8634 14.1727 14.1263C13.9098 14.3892 13.5773 14.5206 13.1753 14.5206H8.02577V17.3505H9.32474V18H5.24227ZM17.3505 10.183V1.39175C17.3505 1.17526 17.2809 0.997423 17.1418 0.858247C17.0026 0.719072 16.8247 0.649485 16.6082 0.649485H3.47938V0H16.6082C17.0103 0 17.3428 0.131443 17.6057 0.39433C17.8686 0.657216 18 0.989691 18 1.39175V10.183H17.3505ZM1.39175 13.8943H13.1753C13.3918 13.8943 13.5696 13.8247 13.7088 13.6856C13.8479 13.5464 13.9175 13.3686 13.9175 13.1521V4.80155C13.9175 4.58505 13.8479 4.40722 13.7088 4.26804C13.5696 4.12887 13.3918 4.05928 13.1753 4.05928H1.39175C1.17526 4.05928 0.997423 4.12887 0.858247 4.26804C0.719072 4.40722 0.649485 4.58505 0.649485 4.80155V13.1521C0.649485 13.3686 0.719072 13.5464 0.858247 13.6856C0.997423 13.8247 1.17526 13.8943 1.39175 13.8943Z" fill="#83B59F"/>
</svg>
