<svg width="24" height="18" viewBox="0 0 24 18" fill="none" xmlns="http://www.w3.org/2000/svg">
<path d="M0.256684 17.7517V16.8828H4.36364C2.69519 15.4759 1.5508 14.1517 0.930481 12.9103C0.31016 11.669 0 10.3655 0 9C0 7.05517 0.561497 5.29655 1.68449 3.72414C2.80749 2.15172 4.25668 1.03448 6.03209 0.372414V1.30345C4.49198 1.94483 3.25134 2.96897 2.31016 4.37586C1.36898 5.78276 0.898396 7.32414 0.898396 9C0.898396 10.3034 1.18717 11.5034 1.76471 12.6C2.34225 13.6966 3.42246 14.9172 5.00535 16.2621V12.2897H5.90374V17.7517H0.256684ZM13.2834 18C12.4706 18 11.7647 17.7103 11.1658 17.131C10.5668 16.5517 10.2674 15.869 10.2674 15.0828C10.2674 14.2966 10.5401 13.6241 11.0856 13.0655C11.631 12.5069 12.3743 12.2069 13.3155 12.1655C13.615 11.4414 14.0909 10.8466 14.7433 10.381C15.3957 9.91552 16.1925 9.68276 17.1337 9.68276C18.1604 9.68276 19.0535 10.0138 19.8128 10.6759C20.5722 11.3379 21.0053 12.2483 21.1123 13.4069H21.6257C22.2888 13.4069 22.8503 13.6241 23.3102 14.0586C23.7701 14.4931 24 15.031 24 15.6724C24 16.3138 23.7701 16.8621 23.3102 17.3172C22.8503 17.7724 22.2888 18 21.6257 18H13.2834ZM17.8396 7.2C17.6043 6.22759 17.2246 5.33793 16.7005 4.53103C16.1765 3.72414 15.2299 2.72069 13.861 1.52069V5.46207H12.9626V0H18.6096V0.868966H14.5027C16 2.15172 17.0267 3.27931 17.5829 4.25172C18.139 5.22414 18.5241 6.2069 18.738 7.2H17.8396ZM13.2834 17.131H21.6257C22.0321 17.131 22.3797 16.9914 22.6684 16.7121C22.9572 16.4328 23.1016 16.0966 23.1016 15.7034C23.1016 15.3103 22.9572 14.9741 22.6684 14.6948C22.3797 14.4155 22.0321 14.2759 21.6257 14.2759H20.2139V13.531C20.2139 12.7034 19.9144 12 19.3155 11.4207C18.7166 10.8414 17.9893 10.5517 17.1337 10.5517C16.2781 10.5517 15.5668 10.7948 15 11.281C14.4332 11.7672 14.1283 12.3517 14.0856 13.0345H13.2834C12.7059 13.0345 12.2086 13.2362 11.7914 13.6397C11.3743 14.0431 11.1658 14.5241 11.1658 15.0828C11.1658 15.6414 11.3743 16.1224 11.7914 16.5259C12.2086 16.9293 12.7059 17.131 13.2834 17.131Z" fill="#83B59F"/>
</svg>
