<svg width="18" height="18" viewBox="0 0 18 18" fill="none" xmlns="http://www.w3.org/2000/svg">
<path d="M6.05172 15.2845C5 14.7845 4.12931 14.0733 3.43966 13.1509C2.75 12.2284 2.31897 11.1897 2.14655 10.0345H2.87069C3.02586 10.9828 3.38362 11.8448 3.94397 12.6207C4.50431 13.3966 5.2069 14.0172 6.05172 14.4828V15.2845ZM9.80172 18C9.47414 18 9.19828 17.8879 8.97414 17.6638C8.75 17.4397 8.63793 17.1638 8.63793 16.8362V11.7155C8.63793 11.3879 8.75 11.1121 8.97414 10.8879C9.19828 10.6638 9.47414 10.5517 9.80172 10.5517H11.4052C11.5948 10.5517 11.7802 10.5991 11.9612 10.694C12.1422 10.7888 12.2845 10.9224 12.3879 11.0948L12.9828 12H16.8362C17.1638 12 17.4397 12.1121 17.6638 12.3362C17.8879 12.5603 18 12.8362 18 13.1638V16.8362C18 17.1638 17.8879 17.4397 17.6638 17.6638C17.4397 17.8879 17.1638 18 16.8362 18H9.80172ZM1.16379 7.44828C0.836207 7.44828 0.560345 7.33621 0.336207 7.11207C0.112069 6.88793 0 6.61207 0 6.28448V1.16379C0 0.836207 0.112069 0.560345 0.336207 0.336207C0.560345 0.112069 0.836207 0 1.16379 0H2.76724C2.9569 0 3.14224 0.0474138 3.32328 0.142241C3.50431 0.237069 3.64655 0.37069 3.75 0.543103L4.34483 1.44828H8.19828C8.52586 1.44828 8.80172 1.56034 9.02586 1.78448C9.25 2.00862 9.36207 2.28448 9.36207 2.61207V6.28448C9.36207 6.61207 9.25 6.88793 9.02586 7.11207C8.80172 7.33621 8.52586 7.44828 8.19828 7.44828H1.16379ZM15.2069 9C15.2069 7.84483 14.9181 6.78017 14.3405 5.80603C13.7629 4.8319 12.9655 4.07759 11.9483 3.5431V2.76724C13.1897 3.30172 14.1638 4.13793 14.8707 5.27586C15.5776 6.41379 15.931 7.65517 15.931 9H15.2069ZM9.80172 17.2759H16.8362C16.9569 17.2759 17.0603 17.2328 17.1466 17.1466C17.2328 17.0603 17.2759 16.9569 17.2759 16.8362V13.1638C17.2759 13.0431 17.2371 12.9397 17.1595 12.8534C17.0819 12.7672 16.9741 12.7241 16.8362 12.7241H12.5948L11.819 11.5603C11.7672 11.4741 11.694 11.4052 11.5991 11.3534C11.5043 11.3017 11.4052 11.2759 11.3017 11.2759H9.80172C9.68103 11.2759 9.57759 11.319 9.49138 11.4052C9.40517 11.4914 9.36207 11.5948 9.36207 11.7155V16.8362C9.36207 16.9569 9.40517 17.0603 9.49138 17.1466C9.57759 17.2328 9.68103 17.2759 9.80172 17.2759ZM1.16379 6.72414H8.19828C8.31897 6.72414 8.42241 6.68103 8.50862 6.59483C8.59483 6.50862 8.63793 6.40517 8.63793 6.28448V2.61207C8.63793 2.49138 8.59914 2.38793 8.52155 2.30172C8.44397 2.21552 8.33621 2.17241 8.19828 2.17241H3.9569L3.18103 1.00862C3.12931 0.922414 3.05603 0.853448 2.96121 0.801724C2.86638 0.75 2.76724 0.724138 2.66379 0.724138H1.16379C1.0431 0.724138 0.939655 0.767241 0.853448 0.853448C0.767241 0.939655 0.724138 1.0431 0.724138 1.16379V6.28448C0.724138 6.40517 0.767241 6.50862 0.853448 6.59483C0.939655 6.68103 1.0431 6.72414 1.16379 6.72414Z" fill="#83B59F"/>
</svg>
