<svg width="18" height="18" viewBox="0 0 18 18" fill="none" xmlns="http://www.w3.org/2000/svg">
<path d="M13.5517 15.7949L16.2931 13.1282L15.7759 12.6154L13.5517 14.7949L12.569 13.7949L12.0517 14.3077L13.5517 15.7949ZM2.7931 4.46154H13.1379V3.74359H2.7931V4.46154ZM14.1724 18C13.1034 18 12.1983 17.6325 11.4569 16.8974C10.7155 16.1624 10.3448 15.265 10.3448 14.2051C10.3448 13.1453 10.7155 12.2479 11.4569 11.5128C12.1983 10.7778 13.1034 10.4103 14.1724 10.4103C15.2414 10.4103 16.1466 10.7778 16.8879 11.5128C17.6293 12.2479 18 13.1453 18 14.2051C18 15.265 17.6293 16.1624 16.8879 16.8974C16.1466 17.6325 15.2414 18 14.1724 18ZM0 16.5128V1.53846C0 1.11111 0.150862 0.747863 0.452586 0.448718C0.75431 0.149573 1.12069 0 1.55172 0H14.3793C14.8103 0 15.1767 0.149573 15.4784 0.448718C15.7802 0.747863 15.931 1.11111 15.931 1.53846V7.41026C15.8103 7.37607 15.694 7.34615 15.5819 7.32051C15.4698 7.29487 15.3448 7.2735 15.2069 7.25641V1.53846C15.2069 1.33333 15.1207 1.1453 14.9483 0.974359C14.7759 0.803419 14.5862 0.717949 14.3793 0.717949H1.55172C1.34483 0.717949 1.15517 0.803419 0.982759 0.974359C0.810345 1.1453 0.724138 1.33333 0.724138 1.53846V15.1282H7.37069C7.40517 15.3333 7.44397 15.5385 7.48707 15.7436C7.53017 15.9487 7.59483 16.1453 7.68103 16.3333L6.62069 15.6923L5.27586 16.5128L3.93103 15.6923L2.58621 16.5128L1.24138 15.6923L0 16.5128ZM2.7931 12.0513H7.55172C7.58621 11.9145 7.625 11.7906 7.6681 11.6795C7.71121 11.5684 7.75862 11.453 7.81035 11.3333H2.7931V12.0513ZM2.7931 8.25641H10.4224C10.6638 8.10256 10.9052 7.96581 11.1466 7.84615C11.3879 7.7265 11.6466 7.62393 11.9224 7.53846H2.7931V8.25641Z" fill="#83B59F"/>
</svg>
