<svg width="18" height="18" viewBox="0 0 18 18" fill="none" xmlns="http://www.w3.org/2000/svg">
<path d="M1.75325 18C1.24675 18 0.827922 17.8344 0.496753 17.5032C0.165584 17.1721 0 16.7532 0 16.2468V1.75325C0 1.24675 0.165584 0.827922 0.496753 0.496753C0.827922 0.165584 1.24675 0 1.75325 0H16.2468C16.7532 0 17.1721 0.165584 17.5032 0.496753C17.8344 0.827922 18 1.24675 18 1.75325V16.2468C18 16.7532 17.8344 17.1721 17.5032 17.5032C17.1721 17.8344 16.7532 18 16.2468 18H1.75325ZM8.59091 11.6006H0.818182V16.2468C0.818182 16.5195 0.905844 16.7435 1.08117 16.9188C1.25649 17.0942 1.48052 17.1818 1.75325 17.1818H8.59091V11.6006ZM9.40909 11.6006V17.1818H16.2468C16.5195 17.1818 16.7435 17.0942 16.9188 16.9188C17.0942 16.7435 17.1818 16.5195 17.1818 16.2468V11.6006H9.40909ZM8.59091 10.7825V5.14286H0.818182V10.7825H8.59091ZM9.40909 10.7825H17.1818V5.14286H9.40909V10.7825ZM0.818182 4.32468H17.1818V1.75325C17.1818 1.48052 17.0942 1.25649 16.9188 1.08117C16.7435 0.905844 16.5195 0.818182 16.2468 0.818182H1.75325C1.48052 0.818182 1.25649 0.905844 1.08117 1.08117C0.905844 1.25649 0.818182 1.48052 0.818182 1.75325V4.32468Z" fill="#83B59F"/>
</svg>
