<svg width="16" height="18" viewBox="0 0 16 18" fill="none" xmlns="http://www.w3.org/2000/svg">
<path d="M6.96104 17.948C4.9697 17.3237 3.31169 16.0925 1.98701 14.2543C0.662338 12.4162 0 10.3353 0 8.01156V2.60116L6.96104 0L13.9221 2.60116V8.27168C13.8009 8.25434 13.6836 8.24133 13.5701 8.23266C13.4567 8.22399 13.3403 8.21965 13.2208 8.21965H13.1948V3.09538L6.96104 0.780347L0.727273 3.09538V8.01156C0.727273 10.1098 1.31602 12.0173 2.49351 13.7341C3.671 15.4509 5.16017 16.5954 6.96104 17.1676C7.1458 17.1137 7.32623 17.0481 7.50234 16.971C7.67827 16.894 7.85281 16.8121 8.02597 16.7254V17.5318C7.85732 17.6242 7.68424 17.7051 7.50675 17.7745C7.32926 17.8438 7.14736 17.9017 6.96104 17.948ZM11.3506 18C11.1082 18 10.8918 17.9046 10.7013 17.7139C10.5108 17.5231 10.4156 17.3064 10.4156 17.0636V14.3064C10.4156 14.0636 10.5108 13.8555 10.7013 13.6821C10.8918 13.5087 11.1082 13.422 11.3506 13.422H11.4545V12.3815C11.4545 11.8786 11.6234 11.4581 11.961 11.1199C12.2987 10.7818 12.7186 10.6127 13.2208 10.6127C13.7229 10.6127 14.1429 10.7818 14.4805 11.1199C14.8182 11.4581 14.987 11.8786 14.987 12.3815V13.422H15.0909C15.3404 13.422 15.5544 13.5087 15.7327 13.6821C15.9109 13.8555 16 14.0636 16 14.3064V17.0636C16 17.3064 15.9109 17.5231 15.7327 17.7139C15.5544 17.9046 15.3404 18 15.0909 18H11.3506ZM12.1818 13.422H14.2597V12.3815C14.2597 12.0867 14.1602 11.8396 13.961 11.6402C13.7619 11.4408 13.5152 11.341 13.2208 11.341C12.9264 11.341 12.6797 11.4408 12.4805 11.6402C12.2814 11.8396 12.1818 12.0867 12.1818 12.3815V13.422Z" fill="#83B59F"/>
</svg>
