<svg width="18" height="18" viewBox="0 0 18 18" fill="none" xmlns="http://www.w3.org/2000/svg">
<path d="M4.26623 14.0844H5.08442V9H4.26623V14.0844ZM12.9156 14.0844H13.7338V3.15584H12.9156V14.0844ZM8.59091 14.0844H9.40909V11.3377H8.59091V14.0844ZM8.59091 9H9.40909V6.66234H8.59091V9ZM1.75325 18C1.24675 18 0.827922 17.8344 0.496753 17.5032C0.165584 17.1721 0 16.7532 0 16.2468V1.75325C0 1.24675 0.165584 0.827922 0.496753 0.496753C0.827922 0.165584 1.24675 0 1.75325 0H16.2468C16.7532 0 17.1721 0.165584 17.5032 0.496753C17.8344 0.827922 18 1.24675 18 1.75325V16.2468C18 16.7532 17.8344 17.1721 17.5032 17.5032C17.1721 17.8344 16.7532 18 16.2468 18H1.75325ZM1.75325 17.1818H16.2468C16.4805 17.1818 16.6948 17.0844 16.8896 16.8896C17.0844 16.6948 17.1818 16.4805 17.1818 16.2468V1.75325C17.1818 1.51948 17.0844 1.30519 16.8896 1.11039C16.6948 0.915584 16.4805 0.818182 16.2468 0.818182H1.75325C1.51948 0.818182 1.30519 0.915584 1.11039 1.11039C0.915584 1.30519 0.818182 1.51948 0.818182 1.75325V16.2468C0.818182 16.4805 0.915584 16.6948 1.11039 16.8896C1.30519 17.0844 1.51948 17.1818 1.75325 17.1818Z" fill="#83B59F"/>
</svg>
