<svg width="18" height="18" viewBox="0 0 18 18" fill="none" xmlns="http://www.w3.org/2000/svg">
<path d="M8.08163 4.84615C9.56851 4.84615 11.0685 4.63757 12.5816 4.22041C14.0948 3.80325 15.0175 3.34615 15.3499 2.84911C15.035 2.31657 14.1297 1.83284 12.6341 1.39793C11.1385 0.963018 9.62099 0.745562 8.08163 0.745562C6.57726 0.745562 5.05977 0.954142 3.52915 1.3713C1.99854 1.78846 1.0758 2.24556 0.760933 2.7426C1.05831 3.27515 1.96356 3.75888 3.47668 4.19379C4.9898 4.6287 6.52478 4.84615 8.08163 4.84615ZM13.7493 16.9615H14.484V12.5947L16.3732 14.5118L16.898 13.9793L14.1166 11.1568L11.3353 13.9793L11.8601 14.5118L13.7493 12.5947V16.9615ZM11.3615 16.855C10.6093 16.0917 10.2332 15.1598 10.2332 14.0592C10.2332 12.9586 10.6093 12.0266 11.3615 11.2633C12.1137 10.5 13.0321 10.1183 14.1166 10.1183C15.2012 10.1183 16.1195 10.5 16.8717 11.2633C17.6239 12.0266 18 12.9586 18 14.0592C18 15.1598 17.6239 16.0917 16.8717 16.855C16.1195 17.6183 15.2012 18 14.1166 18C13.0321 18 12.1137 17.6183 11.3615 16.855ZM7.793 15.6568C7.82799 15.7988 7.86735 15.9275 7.91108 16.0429C7.95481 16.1583 7.99417 16.2781 8.02915 16.4024C6.83965 16.4024 5.7551 16.3269 4.77551 16.176C3.79592 16.0251 2.9519 15.8121 2.24344 15.537C1.53499 15.2618 0.983965 14.929 0.590379 14.5385C0.196793 14.1479 0 13.7219 0 13.2604V2.87574C0 2.07692 0.787172 1.39793 2.36152 0.838757C3.93586 0.279586 5.84257 0 8.08163 0C10.3207 0 12.2274 0.279586 13.8017 0.838757C15.3761 1.39793 16.1633 2.07692 16.1633 2.87574V7.77515C16.0408 7.73964 15.9227 7.70858 15.809 7.68195C15.6953 7.65533 15.5685 7.62426 15.4286 7.58876V3.83432C14.5889 4.36686 13.5175 4.78402 12.2143 5.0858C10.9111 5.38757 9.53353 5.52959 8.08163 5.51183C6.55977 5.51183 5.15598 5.36095 3.87026 5.05917C2.58455 4.7574 1.53936 4.34911 0.734694 3.83432V8.54734C1.53936 9.06213 2.58455 9.47041 3.87026 9.77219C5.15598 10.074 6.55977 10.2249 8.08163 10.2249H8.81633C8.72886 10.3491 8.65015 10.4689 8.58018 10.5843C8.5102 10.6997 8.44023 10.8284 8.37026 10.9704C7.16327 10.9882 5.84694 10.8817 4.42128 10.6509C2.99563 10.4201 1.76676 9.96746 0.734694 9.2929V13.5266C0.944606 13.8462 1.25948 14.1391 1.6793 14.4053C2.09913 14.6716 2.61079 14.8935 3.21429 15.071C3.81778 15.2485 4.50875 15.3905 5.28717 15.497C6.0656 15.6035 6.90087 15.6568 7.793 15.6568Z" fill="#83B59F"/>
</svg>
