<svg width="24" height="18" viewBox="0 0 24 18" fill="none" xmlns="http://www.w3.org/2000/svg">
<path d="M2.06897 18C1.47126 18 0.977011 17.8097 0.586207 17.4291C0.195402 17.0485 0 16.5672 0 15.9851V2.01493C0 1.43284 0.195402 0.951493 0.586207 0.570896C0.977011 0.190299 1.47126 0 2.06897 0H21.931C22.5287 0 23.023 0.190299 23.4138 0.570896C23.8046 0.951493 24 1.43284 24 2.01493V15.9851C24 16.5672 23.8046 17.0485 23.4138 17.4291C23.023 17.8097 22.5287 18 21.931 18H2.06897ZM2.06897 17.0597H21.931C22.2069 17.0597 22.4598 16.9478 22.6897 16.7239C22.9195 16.5 23.0345 16.2537 23.0345 15.9851V3.62687H0.965517V15.9851C0.965517 16.2537 1.08046 16.5 1.31034 16.7239C1.54023 16.9478 1.7931 17.0597 2.06897 17.0597ZM5.7931 14.4739L5.13793 13.8358L8.68966 10.3433L5.10345 6.85075L5.7931 6.21269L10.0345 10.3433L5.7931 14.4739ZM12.8966 14.8433V13.903H19.3793V14.8433H12.8966Z" fill="#83B59F"/>
</svg>
