<svg width="18" height="18" viewBox="0 0 18 18" fill="none" xmlns="http://www.w3.org/2000/svg">
<path d="M6.27474 8.74742L8.74742 6.27474L6.35451 3.88183L5.10487 5.13146L4.57312 4.5997L5.82275 3.35007L3.48301 1.01034L1.01034 3.48301L6.27474 8.74742ZM14.4904 16.9631L16.9631 14.4904L14.6233 12.1507L13.3737 13.4003L12.842 12.8685L14.0916 11.6189L11.7253 9.25259L9.25259 11.7253L14.4904 16.9631ZM4.06795 16.9365H1.06352V13.9321L5.74298 9.25259L0 3.48301L3.48301 0L9.27917 5.76957L14.2511 0.797637C14.3397 0.70901 14.4284 0.646972 14.517 0.611521C14.6056 0.576071 14.7031 0.558346 14.8095 0.558346C14.9158 0.558346 15.0133 0.576071 15.1019 0.611521C15.1905 0.646972 15.2792 0.70901 15.3678 0.797637L17.2024 2.71196C17.291 2.80059 17.3486 2.88922 17.3752 2.97784C17.4018 3.06647 17.4151 3.16396 17.4151 3.27031C17.4151 3.37666 17.4018 3.46972 17.3752 3.54948C17.3486 3.62925 17.291 3.71344 17.2024 3.80207L12.2836 8.74742L18 14.517L14.517 18L8.74742 12.257L4.06795 16.9365ZM1.80798 16.192H3.74889L14.1979 5.74298L12.257 3.80207L1.80798 14.2511V16.192ZM13.2408 4.75923L12.257 3.80207L14.1979 5.74298L13.2408 4.75923Z" fill="#83B59F"/>
</svg>
