<svg width="28" height="18" viewBox="0 0 28 18" fill="none" xmlns="http://www.w3.org/2000/svg">
<path d="M14.2987 15.5641L26.544 3.36622C26.7182 3.19268 26.8053 2.98194 26.8053 2.73401C26.8053 2.48609 26.7182 2.27535 26.544 2.10181L25.872 1.43241C25.6978 1.25886 25.4862 1.17209 25.2373 1.17209C24.9884 1.17209 24.7769 1.25886 24.6027 1.43241L12.3573 13.6303L14.2987 15.5641ZM5.52533 17.3864C3.73333 17.2624 2.36444 16.8162 1.41867 16.0476C0.472889 15.279 0 14.2377 0 12.9237C0 11.5849 0.584889 10.5003 1.75467 9.66972C2.92444 8.83917 4.55467 8.32472 6.64533 8.12638C7.91467 8.00242 8.86667 7.7421 9.50133 7.34542C10.136 6.94874 10.4533 6.40331 10.4533 5.70912C10.4533 4.84138 10.0862 4.16578 9.352 3.68233C8.61778 3.19887 7.42933 2.85798 5.78667 2.65964L5.89867 1.65554C7.76533 1.90347 9.16533 2.36213 10.0987 3.03152C11.032 3.70092 11.4987 4.59345 11.4987 5.70912C11.4987 6.67602 11.0818 7.46319 10.248 8.0706C9.41422 8.67802 8.23822 9.04371 6.72 9.16767C4.82844 9.34122 3.40978 9.7379 2.464 10.3577C1.51822 10.9775 1.04533 11.8329 1.04533 12.9237C1.04533 13.9402 1.41244 14.7274 2.14667 15.2852C2.88089 15.8431 4.00711 16.1963 5.52533 16.3451V17.3864ZM14.0747 17.2748L10.64 13.8535L24.08 0.502689C24.4284 0.155594 24.8204 -0.0117551 25.256 0.000641185C25.6916 0.0130374 26.0836 0.180387 26.432 0.502689L27.4773 1.54397C27.8258 1.89107 28 2.28775 28 2.73401C28 3.18028 27.8258 3.57696 27.4773 3.92406L14.0747 17.2748ZM10.6027 17.9814C10.4036 18.031 10.2293 17.9814 10.08 17.8327C9.93067 17.6839 9.88089 17.5103 9.93067 17.312L10.64 13.8535L14.0747 17.2748L10.6027 17.9814Z" fill="#83B59F"/>
</svg>
