<svg width="26" height="18" viewBox="0 0 26 18" fill="none" xmlns="http://www.w3.org/2000/svg">
<path d="M1.81161 18C1.2972 18 0.866667 17.8265 0.52 17.4795C0.173333 17.1325 0 16.7015 0 16.1866V2.01493C0 1.5 0.206882 1.03545 0.620645 0.621269C1.03441 0.20709 1.49849 0 2.0129 0H8.28645L10.9703 2.68657H21.3368C21.717 2.68657 22.0525 2.77052 22.3432 2.93843C22.634 3.10634 22.8688 3.33582 23.0477 3.62687H10.6013L7.91742 0.940299H2.0129C1.69979 0.940299 1.44258 1.04104 1.24129 1.24254C1.04 1.44403 0.939355 1.70149 0.939355 2.01493V15.9851C0.939355 16.2313 1.00086 16.4328 1.12387 16.5896C1.24688 16.7463 1.40903 16.8806 1.61032 16.9925L4.59613 6.98507H26L23.0813 16.7239C22.9695 17.1045 22.7514 17.4123 22.4271 17.6474C22.1028 17.8825 21.7394 18 21.3368 18H1.81161ZM2.58323 17.0597H22.0077L24.7252 7.92537H5.30065L2.58323 17.0597Z" fill="#83B59F"/>
</svg>
