<svg width="18" height="18" viewBox="0 0 18 18" fill="none" xmlns="http://www.w3.org/2000/svg">
<path d="M5.49569 17.2888C4.40086 16.8147 3.44828 16.1724 2.63793 15.3621C1.82759 14.5517 1.18534 13.5991 0.711207 12.5043C0.237069 11.4095 0 10.2414 0 9C0 7.75862 0.237069 6.59052 0.711207 5.49569C1.18534 4.40086 1.82759 3.44828 2.63793 2.63793C3.44828 1.82759 4.40086 1.18534 5.49569 0.711207C6.59052 0.237069 7.75862 0 9 0C10.2414 0 11.4095 0.237069 12.5043 0.711207C13.5991 1.18534 14.5517 1.82759 15.3621 2.63793C16.1724 3.44828 16.8147 4.40086 17.2888 5.49569C17.7629 6.59052 18 7.75862 18 9C18 10.2414 17.7629 11.4095 17.2888 12.5043C16.8147 13.5991 16.1724 14.5517 15.3621 15.3621C14.5517 16.1724 13.5991 16.8147 12.5043 17.2888C11.4095 17.7629 10.2414 18 9 18C7.75862 18 6.59052 17.7629 5.49569 17.2888ZM9 17.3017C9.65517 16.4741 10.1897 15.6724 10.6034 14.8966C11.0172 14.1207 11.3534 13.2414 11.6121 12.2586H6.38793C6.68103 13.3103 7.02586 14.2241 7.42241 15C7.81897 15.7759 8.34483 16.5431 9 17.3017ZM8.09483 17.2241C7.56035 16.6552 7.06897 15.9181 6.62069 15.0129C6.17241 14.1078 5.84483 13.1897 5.63793 12.2586H1.39655C2.01724 13.6724 2.92241 14.819 4.11207 15.6983C5.30172 16.5776 6.62931 17.0862 8.09483 17.2241ZM9.90517 17.2241C11.3707 17.0862 12.6983 16.5776 13.8879 15.6983C15.0776 14.819 15.9828 13.6724 16.6034 12.2586H12.3621C12.069 13.2069 11.6983 14.1336 11.25 15.0388C10.8017 15.944 10.3534 16.6724 9.90517 17.2241ZM1.11207 11.5345H5.48276C5.39655 11.0862 5.33621 10.6509 5.30172 10.2284C5.26724 9.80603 5.25 9.39655 5.25 9C5.25 8.60345 5.26724 8.19397 5.30172 7.77155C5.33621 7.34914 5.39655 6.91379 5.48276 6.46552H1.11207C0.991379 6.82759 0.896552 7.23276 0.827586 7.68103C0.758621 8.12931 0.724138 8.56897 0.724138 9C0.724138 9.43103 0.758621 9.87069 0.827586 10.319C0.896552 10.7672 0.991379 11.1724 1.11207 11.5345ZM6.2069 11.5345H11.7931C11.8793 11.0862 11.9397 10.6595 11.9741 10.2543C12.0086 9.84914 12.0259 9.43103 12.0259 9C12.0259 8.56897 12.0086 8.15086 11.9741 7.74569C11.9397 7.34052 11.8793 6.91379 11.7931 6.46552H6.2069C6.12069 6.91379 6.06035 7.34052 6.02586 7.74569C5.99138 8.15086 5.97414 8.56897 5.97414 9C5.97414 9.43103 5.99138 9.84914 6.02586 10.2543C6.06035 10.6595 6.12069 11.0862 6.2069 11.5345ZM12.5172 11.5345H16.8879C17.0086 11.1724 17.1034 10.7672 17.1724 10.319C17.2414 9.87069 17.2759 9.43103 17.2759 9C17.2759 8.56897 17.2414 8.12931 17.1724 7.68103C17.1034 7.23276 17.0086 6.82759 16.8879 6.46552H12.5172C12.6034 6.91379 12.6638 7.34914 12.6983 7.77155C12.7328 8.19397 12.75 8.60345 12.75 9C12.75 9.39655 12.7328 9.80603 12.6983 10.2284C12.6638 10.6509 12.6034 11.0862 12.5172 11.5345ZM12.3621 5.74138H16.6034C15.9655 4.2931 15.0733 3.14655 13.9267 2.30172C12.7802 1.4569 11.4397 0.939655 9.90517 0.75C10.4397 1.40517 10.9224 2.17241 11.3534 3.05172C11.7845 3.93103 12.1207 4.82759 12.3621 5.74138ZM6.38793 5.74138H11.6121C11.319 4.7069 10.9612 3.78017 10.5388 2.96121C10.1164 2.14224 9.60345 1.38793 9 0.698276C8.39655 1.38793 7.88362 2.14224 7.46121 2.96121C7.03879 3.78017 6.68103 4.7069 6.38793 5.74138ZM1.39655 5.74138H5.63793C5.87931 4.82759 6.21552 3.93103 6.64655 3.05172C7.07759 2.17241 7.56035 1.40517 8.09483 0.75C6.5431 0.939655 5.19828 1.46121 4.06034 2.31466C2.92241 3.1681 2.03448 4.31034 1.39655 5.74138Z" fill="#83B59F"/>
</svg>
