<svg width="24" height="18" viewBox="0 0 24 18" fill="none" xmlns="http://www.w3.org/2000/svg">
<path d="M2.06897 18C1.47126 18 0.977011 17.8097 0.586207 17.4291C0.195402 17.0485 0 16.5672 0 15.9851V2.01493C0 1.43284 0.195402 0.951493 0.586207 0.570896C0.977011 0.190299 1.47126 0 2.06897 0H21.931C22.5287 0 23.023 0.190299 23.4138 0.570896C23.8046 0.951493 24 1.43284 24 2.01493V15.9851C24 16.5672 23.8046 17.0485 23.4138 17.4291C23.023 17.8097 22.5287 18 21.931 18H2.06897ZM12 8.79851L0.965517 1.6791V15.9851C0.965517 16.2985 1.06897 16.556 1.27586 16.7575C1.48276 16.959 1.74713 17.0597 2.06897 17.0597H21.931C22.2529 17.0597 22.5172 16.959 22.7241 16.7575C22.931 16.556 23.0345 16.2985 23.0345 15.9851V1.6791L12 8.79851ZM12 7.65672L22.4828 0.940299H1.51724L12 7.65672ZM0.965517 1.6791V0.940299V15.9851C0.965517 16.2985 1.06897 16.556 1.27586 16.7575C1.48276 16.959 1.74713 17.0597 2.06897 17.0597H0.965517V1.6791Z" fill="#83B59F"/>
</svg>
