<svg width="16" height="18" viewBox="0 0 16 18" fill="none" xmlns="http://www.w3.org/2000/svg">
<path d="M1.55844 18C1.12554 18 0.757576 17.8419 0.454545 17.5256C0.151515 17.2093 0 16.8253 0 16.3735V2.92771C0 2.4759 0.151515 2.09187 0.454545 1.7756C0.757576 1.45934 1.12554 1.3012 1.55844 1.3012H6.51948C6.58874 0.939759 6.75758 0.63253 7.02597 0.379518C7.29437 0.126506 7.61905 0 8 0C8.38095 0 8.70563 0.126506 8.97403 0.379518C9.24242 0.63253 9.41126 0.939759 9.48052 1.3012H14.4416C14.8745 1.3012 15.2424 1.45934 15.5455 1.7756C15.8485 2.09187 16 2.4759 16 2.92771V16.3735C16 16.8253 15.8485 17.2093 15.5455 17.5256C15.2424 17.8419 14.8745 18 14.4416 18H1.55844ZM1.55844 17.241H14.4416C14.6494 17.241 14.8398 17.1506 15.013 16.9699C15.1861 16.7892 15.2727 16.5904 15.2727 16.3735V2.92771C15.2727 2.71084 15.1861 2.51205 15.013 2.33133C14.8398 2.1506 14.6494 2.06024 14.4416 2.06024H11.8442V4.22892H4.15584V2.06024H1.55844C1.35065 2.06024 1.16017 2.1506 0.987013 2.33133C0.813853 2.51205 0.727273 2.71084 0.727273 2.92771V16.3735C0.727273 16.5904 0.813853 16.7892 0.987013 16.9699C1.16017 17.1506 1.35065 17.241 1.55844 17.241ZM8.55844 2.15512C8.70563 2.00151 8.77922 1.80723 8.77922 1.57229C8.77922 1.33735 8.70563 1.14307 8.55844 0.989458C8.41126 0.835843 8.22511 0.759036 8 0.759036C7.77489 0.759036 7.58874 0.835843 7.44156 0.989458C7.29437 1.14307 7.22078 1.33735 7.22078 1.57229C7.22078 1.80723 7.29437 2.00151 7.44156 2.15512C7.58874 2.30874 7.77489 2.38554 8 2.38554C8.22511 2.38554 8.41126 2.30874 8.55844 2.15512Z" fill="#83B59F"/>
</svg>
