<svg width="19" height="18" viewBox="0 0 19 18" fill="none" xmlns="http://www.w3.org/2000/svg">
<path d="M0.810976 14.1429V17.1818V0.818182V14.1429ZM1.7378 18C1.25508 18 0.844766 17.8295 0.50686 17.4886C0.168953 17.1477 0 16.7338 0 16.2468V1.75325C0 1.26623 0.168953 0.852273 0.50686 0.511364C0.844766 0.170455 1.25508 0 1.7378 0H16.1037C16.5864 0 16.9967 0.170455 17.3346 0.511364C17.6725 0.852273 17.8415 1.26623 17.8415 1.75325V5.3474H17.0305V1.75325C17.0305 1.48052 16.9436 1.25649 16.7698 1.08117C16.596 0.905844 16.374 0.818182 16.1037 0.818182H1.7378C1.46748 0.818182 1.24543 0.905844 1.07165 1.08117C0.897866 1.25649 0.810976 1.48052 0.810976 1.75325V16.2468C0.810976 16.5195 0.897866 16.7435 1.07165 16.9188C1.24543 17.0942 1.46748 17.1818 1.7378 17.1818H16.1037C16.374 17.1818 16.596 17.0942 16.7698 16.9188C16.9436 16.7435 17.0305 16.5195 17.0305 16.2468V12.6526H17.8415V16.2468C17.8415 16.7338 17.6725 17.1477 17.3346 17.4886C16.9967 17.8295 16.5864 18 16.1037 18H1.7378ZM11.0061 13.3247C10.5234 13.3247 10.1131 13.1542 9.77515 12.8133C9.43725 12.4724 9.26829 12.0584 9.26829 11.5714V6.42857C9.26829 5.94156 9.43725 5.5276 9.77515 5.18669C10.1131 4.84578 10.5234 4.67532 11.0061 4.67532H17.2622C17.7449 4.67532 18.1552 4.84578 18.4931 5.18669C18.831 5.5276 19 5.94156 19 6.42857V11.5714C19 12.0584 18.831 12.4724 18.4931 12.8133C18.1552 13.1542 17.7449 13.3247 17.2622 13.3247H11.0061ZM17.2622 12.5065C17.5325 12.5065 17.7546 12.4188 17.9284 12.2435C18.1021 12.0682 18.189 11.8442 18.189 11.5714V6.42857C18.189 6.15584 18.1021 5.93182 17.9284 5.75649C17.7546 5.58117 17.5325 5.49351 17.2622 5.49351H11.0061C10.7358 5.49351 10.5137 5.58117 10.3399 5.75649C10.1662 5.93182 10.0793 6.15584 10.0793 6.42857V11.5714C10.0793 11.8442 10.1662 12.0682 10.3399 12.2435C10.5137 12.4188 10.7358 12.5065 11.0061 12.5065H17.2622ZM14.7858 10.2419C15.1237 9.90097 15.2927 9.48701 15.2927 9C15.2927 8.51299 15.1237 8.09903 14.7858 7.75812C14.4479 7.41721 14.0376 7.24675 13.5549 7.24675C13.0722 7.24675 12.6618 7.41721 12.3239 7.75812C11.986 8.09903 11.8171 8.51299 11.8171 9C11.8171 9.48701 11.986 9.90097 12.3239 10.2419C12.6618 10.5828 13.0722 10.7532 13.5549 10.7532C14.0376 10.7532 14.4479 10.5828 14.7858 10.2419Z" fill="#83B59F"/>
</svg>
