<svg width="18" height="18" viewBox="0 0 18 18" fill="none" xmlns="http://www.w3.org/2000/svg">
<path d="M7.27545 18L6.8982 15.1034C6.52096 15 6.10329 14.8276 5.64521 14.5862C5.18713 14.3448 4.80539 14.0862 4.5 13.8103L1.72455 14.9483L0 12.0517L2.3982 10.319C2.36228 10.1121 2.33084 9.89655 2.30389 9.67241C2.27695 9.44828 2.26347 9.23276 2.26347 9.02586C2.26347 8.83621 2.27695 8.63362 2.30389 8.4181C2.33084 8.20259 2.36228 7.9569 2.3982 7.68103L0 5.94828L1.72455 3.10345L4.47305 4.21552C4.83234 3.92241 5.22305 3.65948 5.64521 3.42672C6.06737 3.19397 6.47605 3.01724 6.87126 2.89655L7.27545 0H10.7246L11.1018 2.92241C11.5689 3.07759 11.9775 3.25431 12.3278 3.45259C12.6781 3.65086 13.0419 3.90517 13.4192 4.21552L16.2754 3.10345L18 5.94828L15.494 7.75862C15.5659 8 15.6063 8.21983 15.6153 8.4181C15.6243 8.61638 15.6287 8.81035 15.6287 9C15.6287 9.17241 15.6198 9.35776 15.6018 9.55603C15.5838 9.75431 15.5479 10 15.494 10.2931L17.9461 12.0517L16.2216 14.9483L13.4192 13.7845C13.0419 14.0948 12.6647 14.3578 12.2874 14.5733C11.9102 14.7888 11.515 14.9569 11.1018 15.0776L10.7246 18H7.27545ZM7.92216 17.2759H10.024L10.4281 14.4569C10.9671 14.319 11.4476 14.1336 11.8698 13.9009C12.2919 13.6681 12.7365 13.3362 13.2036 12.9052L15.8982 14.0172L16.976 12.2586L14.6048 10.5517C14.6946 10.2414 14.753 9.96552 14.7799 9.72414C14.8069 9.48276 14.8204 9.24138 14.8204 9C14.8204 8.74138 14.8069 8.5 14.7799 8.27586C14.753 8.05172 14.6946 7.7931 14.6048 7.5L17.0299 5.74138L15.9521 3.98276L13.1766 5.09483C12.8713 4.76724 12.4446 4.44828 11.8967 4.13793C11.3488 3.82759 10.8503 3.62931 10.4012 3.5431L10.0778 0.724138H7.92216L7.5988 3.51724C7.05988 3.62069 6.56587 3.7931 6.11677 4.03448C5.66766 4.27586 5.20958 4.62069 4.74251 5.06897L2.0479 3.98276L0.97006 5.74138L3.31437 7.42241C3.22455 7.64655 3.16168 7.89655 3.12575 8.17241C3.08982 8.44828 3.07186 8.73276 3.07186 9.02586C3.07186 9.28448 3.08982 9.5431 3.12575 9.80172C3.16168 10.0603 3.21557 10.3103 3.28743 10.5517L0.97006 12.2586L2.0479 14.0172L4.71557 12.931C5.14671 13.3448 5.58683 13.6724 6.03593 13.9138C6.48503 14.1552 6.99701 14.3448 7.57186 14.4828L7.92216 17.2759ZM8.94611 11.2759C9.61078 11.2759 10.1722 11.056 10.6302 10.6164C11.0883 10.1767 11.3174 9.63793 11.3174 9C11.3174 8.36207 11.0883 7.82328 10.6302 7.38362C10.1722 6.94397 9.61078 6.72414 8.94611 6.72414C8.28144 6.72414 7.72006 6.94397 7.26198 7.38362C6.80389 7.82328 6.57485 8.36207 6.57485 9C6.57485 9.63793 6.80389 10.1767 7.26198 10.6164C7.72006 11.056 8.28144 11.2759 8.94611 11.2759Z" fill="#83B59F"/>
</svg>
