<svg width="20" height="18" viewBox="0 0 20 18" fill="none" xmlns="http://www.w3.org/2000/svg">
<path d="M0.909091 15.3134V17.5299C0.909091 17.6631 0.865584 17.7748 0.778571 17.865C0.691342 17.955 0.583333 18 0.454545 18C0.325758 18 0.217749 17.955 0.13052 17.865C0.0435066 17.7748 0 17.6631 0 17.5299V7.92537L2.53247 0.470149C2.57576 0.313433 2.6645 0.195896 2.7987 0.117537C2.9329 0.0391791 3.08225 0 3.24675 0H16.8831C17.0154 0 17.1354 0.0430962 17.2432 0.12929C17.351 0.215484 17.4258 0.329105 17.4675 0.470149L20 7.92537V17.5299C20 17.6631 19.9564 17.7748 19.8692 17.865C19.7821 17.955 19.6742 18 19.5455 18C19.4167 18 19.3088 17.955 19.2218 17.865C19.1345 17.7748 19.0909 17.6631 19.0909 17.5299V15.3134H0.909091ZM1.2987 6.98507H18.7013L16.6234 0.940299H3.37662L1.2987 6.98507ZM4.03377 12.4925C4.39654 12.4925 4.70238 12.3611 4.9513 12.0983C5.20022 11.8357 5.32468 11.5166 5.32468 11.1412C5.32468 10.766 5.19762 10.4496 4.94351 10.1922C4.68961 9.9347 4.38117 9.80597 4.01818 9.80597C3.65541 9.80597 3.34957 9.93739 3.10065 10.2002C2.85173 10.4628 2.72727 10.7819 2.72727 11.1573C2.72727 11.5325 2.85433 11.8489 3.10844 12.1063C3.36234 12.3638 3.67078 12.4925 4.03377 12.4925ZM15.9818 12.4925C16.3446 12.4925 16.6504 12.3611 16.8994 12.0983C17.1483 11.8357 17.2727 11.5166 17.2727 11.1412C17.2727 10.766 17.1457 10.4496 16.8916 10.1922C16.6377 9.9347 16.3292 9.80597 15.9662 9.80597C15.6035 9.80597 15.2976 9.93739 15.0487 10.2002C14.7998 10.4628 14.6753 10.7819 14.6753 11.1573C14.6753 11.5325 14.8024 11.8489 15.0565 12.1063C15.3104 12.3638 15.6188 12.4925 15.9818 12.4925ZM0.909091 14.3731H19.0909V7.92537H0.909091V14.3731Z" fill="#83B59F"/>
</svg>
