<svg width="20" height="18" viewBox="0 0 20 18" fill="none" xmlns="http://www.w3.org/2000/svg">
<path d="M10 18V17.1818H17.1264C17.3755 17.1818 17.591 17.1039 17.773 16.9481C17.955 16.7922 18.046 16.5877 18.046 16.3344V8.35714C18.046 6.19481 17.251 4.39773 15.6609 2.96591C14.0709 1.53409 12.1839 0.818182 10 0.818182C7.81609 0.818182 5.92912 1.53409 4.33908 2.96591C2.74904 4.39773 1.95402 6.19481 1.95402 8.35714V14.8442H1.55172C1.13027 14.8442 0.766284 14.7029 0.45977 14.4205C0.153257 14.138 0 13.7825 0 13.3539V11.1916C0 10.8604 0.114943 10.5731 0.344828 10.3295C0.574713 10.086 0.842912 9.88636 1.14943 9.73052V8.32792C1.14943 7.13961 1.38889 6.03896 1.86782 5.02597C2.34674 4.01299 2.98851 3.13149 3.7931 2.38149C4.5977 1.63149 5.5364 1.04708 6.6092 0.628247C7.68199 0.209416 8.81226 0 10 0C11.1877 0 12.318 0.209416 13.3908 0.628247C14.4636 1.04708 15.4023 1.63149 16.2069 2.38149C17.0115 3.13149 17.6533 4.01299 18.1322 5.02597C18.6111 6.03896 18.8506 7.13961 18.8506 8.32792V9.7013C19.1379 9.83766 19.4013 10.013 19.6408 10.2273C19.8803 10.4416 20 10.7143 20 11.0455V13.5292C20 13.8604 19.8803 14.1331 19.6408 14.3474C19.4013 14.5617 19.1379 14.737 18.8506 14.8734V16.3344C18.8506 16.8019 18.683 17.1964 18.3477 17.5179C18.0125 17.8393 17.6054 18 17.1264 18H10ZM6.56609 10.4172C6.40326 10.2711 6.32184 10.0909 6.32184 9.87662C6.32184 9.66234 6.40326 9.47727 6.56609 9.32143C6.72893 9.16558 6.91571 9.08766 7.12644 9.08766C7.33716 9.08766 7.52395 9.16558 7.68678 9.32143C7.84962 9.47727 7.93103 9.66234 7.93103 9.87662C7.93103 10.0909 7.84962 10.2711 7.68678 10.4172C7.52395 10.5633 7.33716 10.6364 7.12644 10.6364C6.91571 10.6364 6.72893 10.5633 6.56609 10.4172ZM12.3132 10.4172C12.1504 10.2711 12.069 10.0909 12.069 9.87662C12.069 9.66234 12.1504 9.47727 12.3132 9.32143C12.4761 9.16558 12.6628 9.08766 12.8736 9.08766C13.0843 9.08766 13.2711 9.16558 13.4339 9.32143C13.5967 9.47727 13.6782 9.66234 13.6782 9.87662C13.6782 10.0909 13.5967 10.2711 13.4339 10.4172C13.2711 10.5633 13.0843 10.6364 12.8736 10.6364C12.6628 10.6364 12.4761 10.5633 12.3132 10.4172ZM4.16667 8.76623C4.07088 7.11039 4.60728 5.70292 5.77586 4.54383C6.94444 3.38474 8.37165 2.80519 10.0575 2.80519C11.4751 2.80519 12.7347 3.2289 13.8362 4.0763C14.9377 4.9237 15.613 6.0487 15.8621 7.4513C14.4061 7.43182 13.0508 7.06169 11.796 6.34091C10.5412 5.62013 9.57854 4.60714 8.90805 3.30195C8.63985 4.58766 8.08429 5.70779 7.24138 6.66234C6.39847 7.61688 5.37356 8.31818 4.16667 8.76623Z" fill="#83B59F"/>
</svg>
