<svg width="17" height="18" viewBox="0 0 17 18" fill="none" xmlns="http://www.w3.org/2000/svg">
<path d="M8.43809 2.23669C10.1187 2.23669 11.7041 2.58284 13.1944 3.27515C14.6848 3.96746 15.9248 4.96027 16.9145 6.25359C16.9943 6.34489 17.0182 6.43238 16.9863 6.51606C16.9544 6.59975 16.8985 6.66441 16.8187 6.71006C16.7389 6.75571 16.6555 6.77556 16.5685 6.76963C16.4813 6.76369 16.4051 6.71341 16.3398 6.61877C15.4299 5.40152 14.2769 4.47337 12.8808 3.83432C11.4846 3.19527 10.0037 2.87574 8.43809 2.87574C6.88967 2.87574 5.42904 3.20287 4.05622 3.85714C2.68339 4.51141 1.54203 5.43195 0.632138 6.61877C0.552323 6.72527 0.464526 6.77853 0.368747 6.77853C0.272969 6.77853 0.185172 6.7481 0.105356 6.68724C0.0494856 6.64159 0.015564 6.58453 0.00359169 6.51606C-0.00838062 6.44759 0.00957785 6.37532 0.0574671 6.29924C1.06314 5.03635 2.29701 4.04353 3.75907 3.32079C5.22097 2.59806 6.78064 2.23669 8.43809 2.23669ZM8.43928 4.38208C10.5616 4.38208 12.385 5.05582 13.9094 6.40331C15.4339 7.7508 16.1961 9.42025 16.1961 11.4117C16.1961 12.1399 15.9268 12.748 15.388 13.2359C14.8491 13.7239 14.1926 13.9679 13.4186 13.9679C12.6523 13.9679 11.9899 13.7239 11.4312 13.2359C10.8725 12.748 10.5931 12.1399 10.5931 11.4117C10.5931 10.8791 10.3857 10.4265 9.97102 10.0537C9.55646 9.6809 9.06144 9.49451 8.48598 9.49451C7.89742 9.49451 7.39115 9.67884 6.96717 10.0475C6.54303 10.4162 6.33096 10.8709 6.33096 11.4117C6.33096 12.9331 6.80586 14.2036 7.75566 15.2232C8.70547 16.2426 9.90669 16.9501 11.3593 17.3457C11.4639 17.3771 11.5379 17.4293 11.5813 17.5025C11.6249 17.5759 11.6307 17.6544 11.5988 17.7381C11.5669 17.8113 11.519 17.8783 11.4551 17.9391C11.3913 18 11.2955 18.0152 11.1678 17.9848C9.57146 17.5892 8.25451 16.8128 7.21691 15.6557C6.17931 14.4985 5.66051 13.0839 5.66051 11.4117C5.66051 10.6813 5.93986 10.0727 6.49857 9.5858C7.05728 9.0989 7.72031 8.85545 8.48765 8.85545C9.255 8.85545 9.90948 9.0989 10.4511 9.5858C10.9927 10.0727 11.2636 10.6813 11.2636 11.4117C11.2636 11.9524 11.4766 12.4071 11.9026 12.7758C12.3288 13.1445 12.8317 13.3288 13.4111 13.3288C13.9908 13.3288 14.4881 13.1424 14.9031 12.7697C15.3182 12.3969 15.5257 11.9442 15.5257 11.4117C15.5257 9.60801 14.8289 8.09201 13.4353 6.86366C12.0416 5.63531 10.3774 5.02113 8.44288 5.02113C6.50815 5.02113 4.85038 5.63759 3.46958 6.87051C2.08877 8.10327 1.39837 9.61699 1.39837 11.4117C1.39837 11.7844 1.44626 12.2504 1.54203 12.8096C1.63781 13.3688 1.81341 14.0135 2.06882 14.7439C2.10074 14.8352 2.10074 14.915 2.06882 14.9835C2.03689 15.052 1.97304 15.109 1.87726 15.1547C1.78148 15.2003 1.69368 15.2036 1.61387 15.1645C1.53405 15.1256 1.47818 15.0614 1.44626 14.9721C1.19085 14.3331 1.00727 13.7282 0.895529 13.1576C0.783787 12.5871 0.727917 12.0051 0.727917 11.4117C0.727917 9.42025 1.48648 7.7508 3.00361 6.40331C4.52075 5.05582 6.33263 4.38208 8.43928 4.38208ZM8.48598 0C9.48654 0 10.4637 0.117921 11.4175 0.353762C12.3712 0.589603 13.2936 0.928149 14.1848 1.3694C14.3125 1.43026 14.3843 1.50254 14.4003 1.58622C14.4163 1.66991 14.4083 1.74979 14.3764 1.82587C14.3444 1.90194 14.2846 1.9552 14.1968 1.98563C14.109 2.01606 14.0252 2.00845 13.9454 1.96281C13.1153 1.50634 12.2375 1.1716 11.3122 0.95858C10.3866 0.745562 9.44065 0.639053 8.47424 0.639053C7.52428 0.639053 6.59435 0.756974 5.68445 0.992815C4.77456 1.22866 3.88861 1.55199 3.0266 1.96281C2.97871 1.99324 2.91087 1.99704 2.82307 1.97422C2.73527 1.95139 2.67541 1.90194 2.64349 1.82587C2.61156 1.74979 2.59959 1.67371 2.60757 1.59763C2.61555 1.52156 2.65945 1.46069 2.73927 1.41505C3.61723 0.943364 4.54309 0.589603 5.51684 0.353762C6.49059 0.117921 7.4803 0 8.48598 0ZM8.48717 6.61877C9.93901 6.61877 11.1797 7.07904 12.2094 7.99958C13.239 8.92012 13.7538 10.0575 13.7538 11.4117C13.7538 11.5075 13.7231 11.5847 13.6616 11.6433C13.6001 11.7019 13.5191 11.7312 13.4186 11.7312C13.3388 11.7312 13.2629 11.7019 13.1911 11.6433C13.1193 11.5847 13.0833 11.5075 13.0833 11.4117C13.0833 10.2401 12.6286 9.25486 11.719 8.45604C10.8096 7.65723 9.73205 7.25782 8.48645 7.25782C7.24101 7.25782 6.16335 7.65723 5.25345 8.45604C4.34355 9.25486 3.88861 10.2395 3.88861 11.4098C3.88861 12.6739 4.12007 13.7396 4.583 14.6069C5.04593 15.4742 5.7084 16.3553 6.57041 17.2501C6.66618 17.3443 6.7021 17.4332 6.67816 17.5169C6.65421 17.6006 6.61829 17.6653 6.57041 17.7109C6.50655 17.7718 6.43073 17.806 6.34293 17.8136C6.25513 17.8212 6.17133 17.787 6.09151 17.7109C5.19758 16.798 4.4952 15.847 3.98439 14.858C3.47357 13.869 3.21816 12.72 3.21816 11.411C3.21816 10.0573 3.73337 8.92012 4.76378 7.99958C5.79404 7.07904 7.03517 6.61877 8.48717 6.61877ZM8.43306 11.0921C8.53219 11.0921 8.61368 11.1241 8.67753 11.188C8.74138 11.2519 8.77331 11.3265 8.77331 11.4117C8.77331 12.5995 9.21629 13.5736 10.1022 14.334C10.9882 15.0941 12.0298 15.4742 13.227 15.4742C13.4026 15.4742 13.5782 15.4666 13.7538 15.4514C13.9294 15.4362 14.105 15.4134 14.2806 15.3829C14.3604 15.3677 14.4282 15.3791 14.4841 15.4172C14.54 15.4552 14.5839 15.5215 14.6158 15.616C14.6477 15.6998 14.6318 15.7732 14.5679 15.8362C14.5041 15.8992 14.4242 15.9459 14.3285 15.9763C14.1848 16.0068 14.0132 16.0372 13.8137 16.0676C13.6141 16.0981 13.4186 16.1133 13.227 16.1133C11.8542 16.1133 10.657 15.6676 9.63532 14.7763C8.61368 13.885 8.10286 12.7634 8.10286 11.4117C8.10286 11.3265 8.13311 11.2519 8.19361 11.188C8.25427 11.1241 8.33409 11.0921 8.43306 11.0921Z" fill="#83B59F"/>
</svg>
