<svg width="14" height="18" viewBox="0 0 14 18" fill="none" xmlns="http://www.w3.org/2000/svg">
<path d="M2.45522 18C1.77612 18 1.19714 17.7629 0.718284 17.2888C0.239428 16.8147 0 16.2414 0 15.569V2.94828C0 2.12069 0.287313 1.42241 0.86194 0.853448C1.43657 0.284483 2.14179 0 2.97761 0H14V13.8621C13.5299 13.8621 13.125 14.0302 12.7854 14.3664C12.4459 14.7026 12.2761 15.1034 12.2761 15.569C12.2761 16.0345 12.4459 16.4353 12.7854 16.7716C13.125 17.1078 13.5299 17.2759 14 17.2759V18H2.45522ZM0.731343 13.8362C0.957711 13.6121 1.21455 13.4397 1.50187 13.319C1.78918 13.1983 2.10697 13.1379 2.45522 13.1379H3.34328V0.724138H2.97761C2.36816 0.724138 1.84142 0.943966 1.39739 1.38362C0.953358 1.82328 0.731343 2.34483 0.731343 2.94828V13.8362ZM4.07463 13.1379H13.2687V0.724138H4.07463V13.1379ZM2.45522 17.2759H12.25C12.0236 17.0517 11.8495 16.7974 11.7276 16.5129C11.6057 16.2284 11.5448 15.9138 11.5448 15.569C11.5448 15.2414 11.6057 14.931 11.7276 14.6379C11.8495 14.3448 12.0236 14.0862 12.25 13.8621H2.45522C1.96766 13.8621 1.55846 14.0302 1.22761 14.3664C0.896766 14.7026 0.731343 15.1034 0.731343 15.569C0.731343 16.0517 0.896766 16.4569 1.22761 16.7845C1.55846 17.1121 1.96766 17.2759 2.45522 17.2759Z" fill="#83B59F"/>
</svg>
