<svg width="21" height="18" viewBox="0 0 21 18" fill="none" xmlns="http://www.w3.org/2000/svg">
<path d="M10.4459 18C9.56186 17.4199 8.62371 16.9758 7.63144 16.6677C6.63918 16.3595 5.61082 16.2054 4.54639 16.2054C4.04124 16.2054 3.5451 16.2372 3.05799 16.3006C2.57088 16.364 2.09278 16.4773 1.62371 16.6405C1.2268 16.7855 0.856959 16.7311 0.514175 16.4773C0.171392 16.2236 0 15.8792 0 15.4441V5.76435C0 5.47432 0.0811856 5.21601 0.243557 4.98943C0.405928 4.76284 0.613402 4.60423 0.865979 4.5136C1.4433 4.27795 2.04317 4.10121 2.66559 3.98338C3.28802 3.86556 3.91495 3.80665 4.54639 3.80665C5.61082 3.80665 6.63918 3.97885 7.63144 4.32326C8.62371 4.66767 9.5799 5.11178 10.5 5.65559V17.0755C11.4021 16.4955 12.3628 16.0786 13.3821 15.8248C14.4014 15.571 15.4253 15.4441 16.4536 15.4441C17.0309 15.4441 17.5406 15.4713 17.9826 15.5257C18.4246 15.5801 18.9072 15.6798 19.4304 15.8248C19.6289 15.8792 19.8138 15.8837 19.9852 15.8384C20.1566 15.7931 20.2423 15.6435 20.2423 15.3897V4.5136C20.2964 4.5136 20.346 4.52266 20.3911 4.54079C20.4362 4.55891 20.4768 4.5861 20.5129 4.62236C20.6753 4.71299 20.797 4.83988 20.8782 5.00302C20.9594 5.16616 21 5.34743 21 5.54683V15.3897C21 15.8248 20.8151 16.1647 20.4452 16.4094C20.0754 16.6541 19.6649 16.713 19.2139 16.5861C18.7629 16.4411 18.3073 16.3414 17.8473 16.287C17.3872 16.2326 16.9227 16.2054 16.4536 16.2054C15.3711 16.2054 14.3157 16.3459 13.2874 16.6269C12.259 16.9079 11.3119 17.3656 10.4459 18ZM12.6649 14.3565V5.43807L18.0773 0V9.46224L12.6649 14.3565ZM9.74227 16.7221V6.09063C8.93041 5.61934 8.09149 5.24773 7.22552 4.97583C6.35954 4.70393 5.46649 4.56798 4.54639 4.56798C3.87887 4.56798 3.26997 4.62689 2.71972 4.74471C2.16946 4.86254 1.68686 5.00302 1.27191 5.16616C1.12758 5.22054 1.0058 5.29758 0.906572 5.39728C0.807345 5.49698 0.757732 5.61934 0.757732 5.76435V15.4441C0.757732 15.6979 0.843428 15.8474 1.01482 15.8927C1.18621 15.9381 1.37113 15.9245 1.56959 15.852C1.94845 15.7251 2.37693 15.6254 2.85503 15.5529C3.33312 15.4804 3.89691 15.4441 4.54639 15.4441C5.61082 15.4441 6.60309 15.5755 7.5232 15.8384C8.4433 16.1012 9.18299 16.3958 9.74227 16.7221Z" fill="#83B59F"/>
</svg>
