<svg width="19" height="18" viewBox="0 0 19 18" fill="none" xmlns="http://www.w3.org/2000/svg">
<path d="M0.258503 18V17.1189H4.39456L2.77891 15.5455C1.80952 14.6014 1.10402 13.5787 0.662415 12.4773C0.220805 11.3759 0 10.2587 0 9.12587C0 7.1958 0.554705 5.43881 1.66412 3.8549C2.77353 2.27098 4.24376 1.11189 6.07483 0.377622V1.32168C4.50227 1.99301 3.24745 3.03671 2.31037 4.4528C1.3733 5.86888 0.904762 7.42657 0.904762 9.12587C0.904762 10.1748 1.10941 11.1923 1.51871 12.1783C1.928 13.1643 2.56349 14.0769 3.42517 14.9161L5.04082 16.4895V12.4615H5.94558V18H0.258503ZM12.9252 17.6224V16.6783C14.4977 16.007 15.7526 14.9633 16.6896 13.5472C17.6267 12.1311 18.0952 10.5734 18.0952 8.87413C18.0952 7.82518 17.8906 6.80769 17.4813 5.82168C17.072 4.83566 16.4365 3.92308 15.5748 3.08392L13.9592 1.51049V5.53846H13.0544V0H18.7415V0.881119H14.6054L16.2211 2.45455C17.1905 3.3986 17.896 4.42133 18.3376 5.52273C18.7792 6.62413 19 7.74126 19 8.87413C19 10.8042 18.4453 12.5612 17.3359 14.1451C16.2265 15.729 14.7562 16.8881 12.9252 17.6224Z" fill="#83B59F"/>
</svg>
