<svg width="22" height="18" viewBox="0 0 22 18" fill="none" xmlns="http://www.w3.org/2000/svg">
<path d="M9.50543 6.37013V0H20.8043V6.37013H9.50543ZM0 15.6623V9.29221H10.1033V15.6623H0ZM0 6.37013V0H6.5163V6.37013H0ZM10.3424 5.55195H19.9674V0.818182H10.3424V5.55195ZM0.836957 14.8442H9.2663V10.1104H0.836957V14.8442ZM0.836957 5.55195H5.67935V0.818182H0.836957V5.55195ZM13.1522 18V15.7208L19.4592 9.58442C19.5589 9.48701 19.6574 9.4237 19.7549 9.39448C19.8523 9.36526 19.9498 9.35065 20.0472 9.35065C20.1534 9.35065 20.2595 9.37013 20.3655 9.40909C20.4718 9.44805 20.5682 9.50649 20.6549 9.58442L21.7609 10.6948C21.8406 10.7922 21.9004 10.8896 21.9402 10.987C21.9801 11.0844 22 11.1818 22 11.2792C22 11.3766 21.9801 11.474 21.9402 11.5714C21.9004 11.6688 21.8406 11.7662 21.7609 11.8636L15.4837 18H13.1522ZM13.9891 17.1818H15.125L19.4293 12.974L18.8614 12.4188L18.3234 11.8344L13.9891 16.0714V17.1818ZM18.8614 12.4188L18.3234 11.8344L19.4293 12.974L18.8614 12.4188Z" fill="#83B59F"/>
</svg>
