<svg width="19" height="18" viewBox="0 0 19 18" fill="none" xmlns="http://www.w3.org/2000/svg">
<path d="M1.92669 18C1.2863 18 0.778249 17.7595 0.402542 17.2784C0.0268362 16.7973 -0.0858757 16.2663 0.0644068 15.6853L2.23411 7.81543C1.63298 7.6702 1.11169 7.3298 0.670233 6.79425C0.228778 6.2587 0.00805085 5.63691 0.00805085 4.9289C0.00805085 4.12012 0.30608 3.42771 0.902138 2.85168C1.49801 2.27582 2.21439 1.9879 3.05127 1.9879H10.603C11.2347 1.9879 11.712 2.2466 12.0347 2.76399C12.3576 3.28139 12.3782 3.81241 12.0964 4.35703L10.7439 6.97126C10.5896 7.24357 10.3828 7.46142 10.1234 7.62481C9.86395 7.7882 9.57297 7.86989 9.25042 7.86989H6.17903L5.72818 9.53101C5.9536 9.54917 6.14615 9.63395 6.30583 9.78536C6.4655 9.93658 6.54534 10.1241 6.54534 10.348V11.6551C6.54534 11.8865 6.46437 12.0805 6.30245 12.237C6.14033 12.3937 5.93951 12.472 5.7 12.472H4.91102L3.7839 16.6657C3.66649 17.06 3.43703 17.3809 3.09551 17.6286C2.75399 17.8762 2.36439 18 1.92669 18ZM1.92415 17.2375C2.18715 17.2375 2.41257 17.1649 2.60042 17.0197C2.78828 16.8744 2.91977 16.6838 2.99492 16.4478L5.36186 7.86989H3.02309L0.825212 15.8759C0.731285 16.2209 0.797034 16.534 1.02246 16.8154C1.24788 17.0968 1.54845 17.2375 1.92415 17.2375ZM3.05127 7.10741H9.25042C9.41949 7.10741 9.57917 7.06203 9.72945 6.97126C9.87973 6.88048 9.99244 6.76248 10.0676 6.61725L11.4201 4.00303C11.5704 3.71256 11.5563 3.43116 11.3779 3.15885C11.1994 2.88654 10.9411 2.75038 10.603 2.75038H3.05127C2.43136 2.75038 1.90067 2.96369 1.45922 3.39032C1.01776 3.81694 0.797034 4.3298 0.797034 4.9289C0.797034 5.52799 1.01776 6.04085 1.45922 6.46747C1.90067 6.8941 2.43136 7.10741 3.05127 7.10741ZM15.0833 2.26021L14.7169 1.4705L18.0701 0L18.4364 0.789713L15.0833 2.26021ZM18.0701 9.85779L14.7169 8.41452L15.0833 7.62481L18.4364 9.09531L18.0701 9.85779ZM15.2805 5.3646V4.49319H19V5.3646H15.2805Z" fill="#83B59F"/>
</svg>
