<svg width="14" height="18" viewBox="0 0 14 18" fill="none" xmlns="http://www.w3.org/2000/svg">
<path d="M7.10448 15.2328H7.83582V14.1983H9.5597C9.66418 14.1983 9.75124 14.1638 9.8209 14.0948C9.89055 14.0259 9.92537 13.9397 9.92537 13.8362V10.7328C9.92537 10.6293 9.89055 10.5431 9.8209 10.4741C9.75124 10.4052 9.66418 10.3707 9.5597 10.3707H5.74627V7.99138H9.92537V7.26724H7.83582V6.23276H7.10448V7.26724H5.3806C5.27612 7.26724 5.18905 7.30172 5.1194 7.37069C5.04975 7.43966 5.01493 7.52586 5.01493 7.62931V10.7328C5.01493 10.8362 5.04975 10.9224 5.1194 10.9914C5.18905 11.0603 5.27612 11.0948 5.3806 11.0948H9.19403V13.4741H5.01493V14.1983H7.10448V15.2328ZM1.56716 18C1.11443 18 0.74005 17.8534 0.44403 17.5603C0.14801 17.2672 0 16.8966 0 16.4483V1.55172C0 1.10345 0.14801 0.732759 0.44403 0.439655C0.74005 0.146552 1.11443 0 1.56716 0H9.76866L14 4.18966V16.4483C14 16.8966 13.852 17.2672 13.556 17.5603C13.26 17.8534 12.8856 18 12.4328 18H1.56716ZM9.40299 4.55172V0.724138H1.56716C1.35821 0.724138 1.16667 0.810345 0.992537 0.982759C0.818408 1.15517 0.731343 1.34483 0.731343 1.55172V16.4483C0.731343 16.6552 0.818408 16.8448 0.992537 17.0172C1.16667 17.1897 1.35821 17.2759 1.56716 17.2759H12.4328C12.6418 17.2759 12.8333 17.1897 13.0075 17.0172C13.1816 16.8448 13.2687 16.6552 13.2687 16.4483V4.55172H9.40299Z" fill="#83B59F"/>
</svg>
