<svg width="18" height="18" viewBox="0 0 18 18" fill="none" xmlns="http://www.w3.org/2000/svg">
<path d="M5.14286 18C3.72078 18 2.50812 17.4984 1.50487 16.4951C0.501623 15.4919 0 14.2792 0 12.8571C0 12.2532 0.102273 11.6688 0.306818 11.1039C0.511364 10.539 0.808442 10.0227 1.19805 9.55519L5.28896 4.6461L2.98052 0H15.0195L12.711 4.6461L16.8019 9.55519C17.1916 10.0227 17.4886 10.539 17.6932 11.1039C17.8977 11.6688 18 12.2532 18 12.8571C18 14.2792 17.4984 15.4919 16.4951 16.4951C15.4919 17.4984 14.2792 18 12.8571 18H5.14286ZM9 12.8864C8.51299 12.8864 8.09903 12.7159 7.75812 12.375C7.41721 12.0341 7.24675 11.6201 7.24675 11.1331C7.24675 10.6461 7.41721 10.2321 7.75812 9.89123C8.09903 9.55032 8.51299 9.37987 9 9.37987C9.48701 9.37987 9.90097 9.55032 10.2419 9.89123C10.5828 10.2321 10.7532 10.6461 10.7532 11.1331C10.7532 11.6201 10.5828 12.0341 10.2419 12.375C9.90097 12.7159 9.48701 12.8864 9 12.8864ZM6.0487 4.29545H11.9805L13.7045 0.818182H4.29545L6.0487 4.29545ZM5.14286 17.1818H12.8571C14.0649 17.1818 15.0877 16.7581 15.9253 15.9107C16.763 15.0633 17.1818 14.0455 17.1818 12.8571C17.1818 12.3506 17.099 11.8588 16.9334 11.3815C16.7679 10.9042 16.5195 10.4708 16.1883 10.0812L12.039 5.11364H5.99026L1.84091 10.0812C1.50974 10.4708 1.25649 10.9042 1.08117 11.3815C0.905844 11.8588 0.818182 12.3506 0.818182 12.8571C0.818182 14.0455 1.24188 15.0633 2.08929 15.9107C2.93669 16.7581 3.95455 17.1818 5.14286 17.1818Z" fill="#83B59F"/>
</svg>
