<svg width="18" height="18" viewBox="0 0 18 18" fill="none" xmlns="http://www.w3.org/2000/svg">
<path d="M9.0044 18C7.76009 18 6.59 17.7639 5.49414 17.2916C4.39828 16.8194 3.44509 16.1784 2.63457 15.3688C1.82388 14.5591 1.18216 13.6072 0.709396 12.5128C0.236465 11.4184 0 10.2489 0 9.0044C0 7.76009 0.236121 6.59 0.708362 5.49414C1.1806 4.39828 1.82155 3.44509 2.63121 2.63457C3.44086 1.82388 4.39285 1.18216 5.48716 0.709396C6.58164 0.236465 7.75112 0 8.9956 0C10.2399 0 11.41 0.236121 12.5059 0.708362C13.6017 1.1806 14.5549 1.82155 15.3654 2.63121C16.1761 3.44086 16.8178 4.39284 17.2906 5.48715C17.7635 6.58164 18 7.75112 18 8.9956C18 10.2399 17.7639 11.41 17.2916 12.5059C16.8194 13.6017 16.1784 14.5549 15.3688 15.3654C14.5591 16.1761 13.6072 16.8178 12.5128 17.2906C11.4184 17.7635 10.2489 18 9.0044 18ZM9 17.2759C11.3103 17.2759 13.2672 16.4741 14.8707 14.8707C16.4741 13.2672 17.2759 11.3103 17.2759 9V8.63793C17.2759 8.51724 17.2672 8.39655 17.25 8.27586C17.2155 8.72414 17.0474 9.09483 16.7457 9.38793C16.444 9.68103 16.069 9.82759 15.6207 9.82759H12.8276C12.3724 9.82759 11.9828 9.66586 11.6586 9.34241C11.3345 9.01897 11.1724 8.63017 11.1724 8.17604V7.35026H7.86207V5.69845C7.86207 5.24431 8.02414 4.85345 8.34828 4.52586C8.67241 4.19828 9.06207 4.03448 9.51724 4.03448H10.3448V3C10.3448 2.46552 10.5259 2.05603 10.8879 1.77155C11.25 1.48707 11.681 1.34483 12.181 1.34483C11.681 1.13793 11.1673 0.982759 10.6399 0.87931C10.1127 0.775862 9.56603 0.724138 9 0.724138C6.68966 0.724138 4.73276 1.52586 3.12931 3.12931C1.52586 4.73276 0.724138 6.68966 0.724138 9V9.38793C0.724138 9.50862 0.732759 9.63793 0.75 9.77586H5.22414C6.15517 9.77586 6.93966 10.0948 7.57759 10.7328C8.21552 11.3707 8.53448 12.1513 8.53448 13.0746V13.9138H6.05172V16.7328C6.5 16.9052 6.97414 17.0388 7.47414 17.1336C7.97414 17.2284 8.48276 17.2759 9 17.2759Z" fill="#83B59F"/>
</svg>
