<svg width="18" height="18" viewBox="0 0 18 18" fill="none" xmlns="http://www.w3.org/2000/svg">
<path d="M12.0387 18C10.6811 18 9.48348 17.6057 8.44585 16.817C7.40807 16.0284 6.70361 15.0155 6.33247 13.7784C6.73454 13.7784 7.10567 13.7552 7.44588 13.7088C7.78608 13.6624 8.12629 13.5773 8.46649 13.4536H13.5696C13.6005 13.1985 13.6237 12.9491 13.6392 12.7055C13.6546 12.462 13.6624 12.2126 13.6624 11.9575C13.6624 11.7487 13.6546 11.5289 13.6392 11.298C13.6237 11.0671 13.6005 10.8424 13.5696 10.6237H12.2474C12.3247 10.5155 12.3982 10.4111 12.4678 10.3106C12.5374 10.2101 12.6108 10.0979 12.6881 9.97423H16.933C16.6237 9.27835 16.1907 8.67139 15.634 8.15335C15.0773 7.63531 14.4356 7.25258 13.7088 7.00515L13.7552 6.68041C13.7706 6.57216 13.7784 6.45619 13.7784 6.33247C15.0155 6.70361 16.0284 7.40807 16.817 8.44585C17.6057 9.48348 18 10.6811 18 12.0387C18 13.6945 17.4204 15.1021 16.2612 16.2612C15.1021 17.4204 13.6945 18 12.0387 18ZM11.2268 17.2577C10.9175 16.7474 10.6585 16.2294 10.4497 15.7036C10.241 15.1778 10.0808 14.6443 9.96935 14.1031H7.16753C7.5232 14.9381 8.0567 15.6379 8.76804 16.2023C9.47938 16.7668 10.299 17.1186 11.2268 17.2577ZM12.0387 17.3273C12.4098 16.8325 12.7075 16.3144 12.9317 15.7732C13.1559 15.232 13.3299 14.6753 13.4536 14.1031H10.6237C10.7474 14.6753 10.9175 15.232 11.134 15.7732C11.3505 16.3144 11.6521 16.8325 12.0387 17.3273ZM12.8505 17.2577C13.7784 17.1186 14.6018 16.7668 15.3209 16.2023C16.0399 15.6379 16.5773 14.9381 16.933 14.1031H14.1031C13.9794 14.6443 13.817 15.1778 13.616 15.7036C13.4149 16.2294 13.1598 16.7474 12.8505 17.2577ZM14.2191 13.4536H17.1649C17.2268 13.2371 17.2732 13.009 17.3041 12.7693C17.3351 12.5296 17.3505 12.2861 17.3505 12.0387C17.3505 11.7912 17.3351 11.5477 17.3041 11.308C17.2732 11.0683 17.2268 10.8402 17.1649 10.6237H14.2191C14.25 10.8419 14.2732 11.0661 14.2887 11.2964C14.3041 11.5266 14.3119 11.7509 14.3119 11.9691C14.3119 12.2222 14.3041 12.4696 14.2887 12.7113C14.2732 12.953 14.25 13.2005 14.2191 13.4536ZM5.96273 11.9227C4.30716 11.9227 2.89948 11.3432 1.73969 10.1844C0.579897 9.02552 0 7.6183 0 5.96273C0 4.30716 0.579433 2.89948 1.7383 1.73969C2.89716 0.579897 4.30438 0 5.95995 0C7.61552 0 9.0232 0.579433 10.183 1.7383C11.3428 2.89716 11.9227 4.30438 11.9227 5.95995C11.9227 7.61552 11.3432 9.0232 10.1844 10.183C9.02552 11.3428 7.6183 11.9227 5.96273 11.9227ZM5.96598 11.2732C7.43196 11.2732 8.68299 10.7536 9.71907 9.71443C10.7552 8.67541 11.2732 7.42283 11.2732 5.9567C11.2732 4.49072 10.7536 3.23969 9.71443 2.20361C8.67541 1.16753 7.42283 0.649485 5.9567 0.649485C4.49072 0.649485 3.23969 1.16907 2.20361 2.20825C1.16753 3.24727 0.649485 4.49985 0.649485 5.96598C0.649485 7.43196 1.16907 8.68299 2.20825 9.71907C3.24727 10.7552 4.49985 11.2732 5.96598 11.2732ZM3.80412 5.26546C3.95876 5.26546 4.09794 5.20778 4.22165 5.09242C4.34536 4.97691 4.40722 4.83387 4.40722 4.6633C4.40722 4.49258 4.34536 4.34923 4.22165 4.23325C4.09794 4.11727 3.9549 4.05928 3.79253 4.05928C3.63015 4.05928 3.49098 4.11696 3.375 4.23232C3.25902 4.34784 3.20103 4.49088 3.20103 4.66144C3.20103 4.83217 3.25887 4.97552 3.37454 5.09149C3.49005 5.20747 3.63325 5.26546 3.80412 5.26546ZM5.97294 8.9768C6.53737 8.9768 7.05928 8.85696 7.53866 8.61727C8.01804 8.37758 8.4201 8.0567 8.74485 7.65464L3.17783 7.63144C3.50258 8.04897 3.90851 8.37758 4.39562 8.61727C4.88273 8.85696 5.40851 8.9768 5.97294 8.9768ZM8.14175 5.26546C8.29639 5.26546 8.43557 5.20778 8.55928 5.09242C8.68299 4.97691 8.74485 4.83387 8.74485 4.6633C8.74485 4.49258 8.68299 4.34923 8.55928 4.23325C8.43557 4.11727 8.29253 4.05928 8.13015 4.05928C7.96778 4.05928 7.82861 4.11696 7.71263 4.23232C7.59665 4.34784 7.53866 4.49088 7.53866 4.66144C7.53866 4.83217 7.59649 4.97552 7.71217 5.09149C7.82768 5.20747 7.97088 5.26546 8.14175 5.26546Z" fill="#83B59F"/>
</svg>
