<svg width="19" height="18" viewBox="0 0 19 18" fill="none" xmlns="http://www.w3.org/2000/svg">
<path d="M8.24842 18C7.10857 18 6.03672 17.7843 5.03287 17.353C4.02901 16.9217 3.15585 16.3362 2.41338 15.5967C1.67075 14.8572 1.08291 13.9876 0.649838 12.9881C0.216612 11.9884 0 10.9202 0 9.78354C0 8.64701 0.216376 7.57827 0.649127 6.57732C1.08204 5.57638 1.66949 4.70575 2.41148 3.96543C3.15348 3.22496 4.02601 2.63882 5.02908 2.20701C6.03214 1.77504 7.10392 1.55906 8.24439 1.55906C8.86035 1.55906 9.46052 1.62205 10.0449 1.74803C10.6293 1.87402 11.182 2.06299 11.7032 2.31496V3.04724C11.182 2.77953 10.6323 2.5748 10.0541 2.43307C9.47591 2.29134 8.87267 2.22047 8.24439 2.22047C6.14381 2.22047 4.35515 2.95669 2.87843 4.42913C1.4017 5.90157 0.663342 7.68504 0.663342 9.77953C0.663342 11.874 1.4017 13.6575 2.87843 15.1299C4.35515 16.6024 6.14381 17.3386 8.24439 17.3386C10.345 17.3386 12.1336 16.6024 13.6103 15.1299C15.0871 13.6575 15.8254 11.874 15.8254 9.77953C15.8254 9.33858 15.7899 8.90945 15.7188 8.49213C15.6478 8.0748 15.5411 7.66929 15.399 7.27559H16.1097C16.2361 7.66929 16.3308 8.07291 16.394 8.48646C16.4572 8.9 16.4888 9.33102 16.4888 9.77953C16.4888 10.9167 16.2725 11.9854 15.8399 12.9855C15.4073 13.9857 14.8202 14.8557 14.0785 15.5955C13.3368 16.3354 12.4647 16.9211 11.4623 17.3528C10.4597 17.7843 9.38842 18 8.24842 18ZM16.4414 4.44094V2.55118H14.5461V1.88976H16.4414V0H17.1047V1.88976H19V2.55118H17.1047V4.44094H16.4414ZM11.3299 8.3622C11.5946 8.3622 11.8177 8.26976 11.9994 8.08488C12.181 7.90016 12.2718 7.67575 12.2718 7.41165C12.2718 7.14772 12.1791 6.9252 11.9937 6.74409C11.8084 6.56299 11.5834 6.47244 11.3185 6.47244C11.0538 6.47244 10.8306 6.56488 10.649 6.74976C10.4674 6.93449 10.3766 7.1589 10.3766 7.42299C10.3766 7.68693 10.4693 7.90945 10.6547 8.09055C10.8399 8.27165 11.065 8.3622 11.3299 8.3622ZM5.17027 8.3622C5.43498 8.3622 5.65815 8.26976 5.83978 8.08488C6.0214 7.90016 6.11222 7.67575 6.11222 7.41165C6.11222 7.14772 6.01951 6.9252 5.83409 6.74409C5.64883 6.56299 5.42377 6.47244 5.1589 6.47244C4.8942 6.47244 4.67103 6.56488 4.4894 6.74976C4.30777 6.93449 4.21696 7.1589 4.21696 7.42299C4.21696 7.68693 4.30967 7.90945 4.49509 8.09055C4.68035 8.27165 4.90541 8.3622 5.17027 8.3622ZM10.6253 13.5236C11.3439 13.0591 11.8928 12.4409 12.2718 11.6693H4.21696C4.59601 12.4409 5.14485 13.0591 5.86347 13.5236C6.58209 13.9882 7.37573 14.2205 8.24439 14.2205C9.11305 14.2205 9.90669 13.9882 10.6253 13.5236Z" fill="#83B59F"/>
</svg>
