<svg width="18" height="18" viewBox="0 0 18 18" fill="none" xmlns="http://www.w3.org/2000/svg">
<path d="M9 18C7.0916 18 5.39313 17.4665 3.90458 16.3995C2.41603 15.3325 1.32824 13.8943 0.641221 12.0851V15.3093H0V10.9485H4.30534V11.5979H1.16794C1.71756 13.3299 2.71756 14.7216 4.16794 15.7732C5.61832 16.8247 7.22901 17.3505 9 17.3505C10.084 17.3505 11.1031 17.1572 12.0573 16.7706C13.0115 16.384 13.855 15.8466 14.5878 15.1585C15.3206 14.4704 15.9198 13.6508 16.3855 12.6997C16.8511 11.7487 17.1298 10.7165 17.2214 9.60309H17.8626C17.7863 10.7784 17.5 11.8763 17.0038 12.8969C16.5076 13.9175 15.8664 14.8067 15.0802 15.5644C14.2939 16.3222 13.3779 16.9175 12.3321 17.3505C11.2863 17.7835 10.1756 18 9 18ZM8.63359 15.0309V13.9175C8.03817 13.7784 7.5229 13.5464 7.08779 13.2216C6.65267 12.8969 6.29771 12.433 6.0229 11.8299L6.61832 11.5515C6.89313 12.1082 7.24809 12.5412 7.68321 12.8505C8.11832 13.1598 8.60305 13.3144 9.1374 13.3144C9.68702 13.3144 10.2137 13.1637 10.7176 12.8621C11.2214 12.5606 11.4733 12.0619 11.4733 11.366C11.4733 10.8247 11.3092 10.4034 10.9809 10.1018C10.6527 9.80026 9.99237 9.46392 9 9.09278C7.99237 8.72165 7.28244 8.34278 6.87023 7.95619C6.45802 7.56959 6.25191 7.05155 6.25191 6.40206C6.25191 5.86082 6.45802 5.35825 6.87023 4.89433C7.28244 4.43041 7.8855 4.14433 8.67939 4.03608V2.96907H9.36641V4.03608C9.82443 4.06701 10.2557 4.21778 10.6603 4.4884C11.0649 4.75902 11.3817 5.10309 11.6107 5.52062L11.0153 5.75258C10.8015 5.42783 10.5344 5.16108 10.2137 4.95232C9.89313 4.74356 9.50382 4.63918 9.0458 4.63918C8.41985 4.63918 7.91221 4.80928 7.5229 5.14948C7.13359 5.48969 6.93893 5.90722 6.93893 6.40206C6.93893 6.89691 7.0687 7.27577 7.32824 7.53866C7.58779 7.80155 8.23664 8.11856 9.27481 8.48969C10.374 8.89175 11.1221 9.30928 11.5191 9.74227C11.916 10.1753 12.1145 10.7165 12.1145 11.366C12.1145 11.799 12.0267 12.1778 11.8511 12.5026C11.6756 12.8273 11.4504 13.0941 11.1756 13.3028C10.9008 13.5116 10.5992 13.6701 10.271 13.7784C9.94275 13.8866 9.62595 13.9485 9.32061 13.9639V15.0309H8.63359ZM0.137405 8.39691C0.244275 7.14433 0.553435 6.00387 1.06489 4.97552C1.57634 3.94716 2.23282 3.06186 3.03435 2.31959C3.83588 1.57732 4.74809 1.00515 5.77099 0.603093C6.79389 0.201031 7.87023 0 9 0C10.8626 0 12.5611 0.537371 14.0954 1.61211C15.6298 2.68686 16.7176 4.15206 17.3588 6.00773V2.69072H18V7.05155H13.6947V6.40206H16.8321C16.3282 4.73196 15.3473 3.35567 13.8893 2.2732C12.4313 1.19072 10.8015 0.649485 9 0.649485C7.9771 0.649485 6.99237 0.835052 6.0458 1.20619C5.09924 1.57732 4.25191 2.09923 3.50382 2.77191C2.75573 3.44459 2.1374 4.25644 1.64886 5.20747C1.16031 6.15851 0.870229 7.22165 0.778626 8.39691H0.137405Z" fill="#83B59F"/>
</svg>
