<svg width="27" height="18" viewBox="0 0 27 18" fill="none" xmlns="http://www.w3.org/2000/svg">
<path d="M2.57302 17.0313C1.92698 16.3856 1.60396 15.6016 1.60396 14.679H0V1.99262C0 1.41697 0.189356 0.940959 0.568069 0.564576C0.946782 0.188192 1.42574 0 2.00495 0H19.3812V4.64945H22.1881L27 11.0923V14.679H24.9951C24.9951 15.6016 24.6694 16.3856 24.018 17.0313C23.3668 17.6771 22.576 18 21.6454 18C20.7151 18 19.927 17.6771 19.2809 17.0313C18.6349 16.3856 18.3119 15.6016 18.3119 14.679H8.28713C8.28713 15.6089 7.96144 16.3948 7.31005 17.0369C6.65889 17.679 5.86804 18 4.93752 18C4.00723 18 3.21906 17.6771 2.57302 17.0313ZM6.64975 16.3727C7.11757 15.9077 7.35149 15.3432 7.35149 14.679C7.35149 14.0148 7.11757 13.4502 6.64975 12.9852C6.18193 12.5203 5.61386 12.2878 4.94554 12.2878C4.27723 12.2878 3.70916 12.5203 3.24134 12.9852C2.77351 13.4502 2.5396 14.0148 2.5396 14.679C2.5396 15.3432 2.77351 15.9077 3.24134 16.3727C3.70916 16.8376 4.27723 17.0701 4.94554 17.0701C5.61386 17.0701 6.18193 16.8376 6.64975 16.3727ZM0.935644 13.7491H1.73762C1.87129 13.107 2.24443 12.548 2.85705 12.072C3.46968 11.5959 4.16584 11.3579 4.94554 11.3579C5.68069 11.3579 6.36572 11.5904 7.00062 12.0554C7.63552 12.5203 8.0198 13.0849 8.15347 13.7491H18.4455V0.929889H2.00495C1.73762 0.929889 1.49257 1.04059 1.2698 1.26199C1.04703 1.48339 0.935644 1.72694 0.935644 1.99262V13.7491ZM23.3577 16.3727C23.8255 15.9077 24.0594 15.3432 24.0594 14.679C24.0594 14.0148 23.8255 13.4502 23.3577 12.9852C22.8899 12.5203 22.3218 12.2878 21.6535 12.2878C20.9851 12.2878 20.4171 12.5203 19.9493 12.9852C19.4814 13.4502 19.2475 14.0148 19.2475 14.679C19.2475 15.3432 19.4814 15.9077 19.9493 16.3727C20.4171 16.8376 20.9851 17.0701 21.6535 17.0701C22.3218 17.0701 22.8899 16.8376 23.3577 16.3727ZM19.3812 11.0923H25.8639L21.6535 5.57934H19.3812V11.0923Z" fill="#83B59F"/>
</svg>
