<svg width="20" height="18" viewBox="0 0 20 18" fill="none" xmlns="http://www.w3.org/2000/svg">
<path d="M3.42784 7.11362C3.30756 6.99379 3.24742 6.84724 3.24742 6.67397C3.24742 6.50052 3.30704 6.35345 3.42629 6.23276C3.5457 6.11207 3.69175 6.05172 3.86443 6.05172C4.03729 6.05172 4.18385 6.11155 4.30412 6.23121C4.4244 6.35103 4.48454 6.49759 4.48454 6.67086C4.48454 6.84431 4.42491 6.99138 4.30567 7.11207C4.18625 7.23276 4.04021 7.2931 3.86753 7.2931C3.69467 7.2931 3.54811 7.23328 3.42784 7.11362ZM15.6959 7.11362C15.5756 6.99379 15.5155 6.84724 15.5155 6.67397C15.5155 6.50052 15.5751 6.35345 15.6943 6.23276C15.8137 6.11207 15.9598 6.05172 16.1325 6.05172C16.3053 6.05172 16.4519 6.11155 16.5722 6.23121C16.6924 6.35103 16.7526 6.49759 16.7526 6.67086C16.7526 6.84431 16.693 6.99138 16.5737 7.11207C16.4543 7.23276 16.3082 7.2931 16.1356 7.2931C15.9627 7.2931 15.8162 7.23328 15.6959 7.11362ZM1.75258 18H1.03093V15.2069H5.15464C4.19244 15.2069 3.37629 14.8707 2.70619 14.1983C2.03608 13.5259 1.70103 12.7069 1.70103 11.7414H2.42268C2.42268 12.4953 2.69021 13.1407 3.22526 13.6774C3.76014 14.2143 4.40326 14.4828 5.15464 14.4828V10.0345H7.93814L6.95876 6.02586C6.56357 4.43966 5.71735 3.15948 4.4201 2.18534C3.12285 1.21121 1.64948 0.724138 0 0.724138V0C1.82131 0 3.44072 0.538793 4.85825 1.61638C6.27577 2.69397 7.2079 4.11207 7.65464 5.87069L8.64227 9.79966C8.7055 10.0424 8.6555 10.2629 8.49227 10.4612C8.32904 10.6595 8.12715 10.7586 7.8866 10.7586H5.87629V14.3793C5.87629 14.806 5.72491 15.1713 5.42217 15.4751C5.11924 15.7791 4.75515 15.931 4.3299 15.931H1.75258V18ZM18.9691 18H18.2474V15.931H15.6701C15.2448 15.931 14.8808 15.7791 14.5781 15.4751C14.2752 15.1713 14.1237 14.806 14.1237 14.3793V10.7586H12.1134C11.8729 10.7586 11.671 10.6595 11.5077 10.4612C11.3445 10.2629 11.2973 10.0431 11.366 9.80172L12.3454 5.87069C12.7921 4.11207 13.7242 2.69397 15.1418 1.61638C16.5593 0.538793 18.1787 0 20 0V0.724138C18.3505 0.724138 16.8771 1.21121 15.5799 2.18534C14.2826 3.15948 13.4364 4.43966 13.0412 6.02586L12.0619 10.0345H14.8454V14.4828C15.6014 14.4655 16.2457 14.194 16.7784 13.6681C17.311 13.1422 17.5773 12.5 17.5773 11.7414H18.299C18.299 12.7069 17.9639 13.5216 17.2938 14.1853C16.6237 14.8491 15.8076 15.1897 14.8454 15.2069H18.9691V18Z" fill="#83B59F"/>
</svg>
