<svg width="21" height="18" viewBox="0 0 21 18" fill="none" xmlns="http://www.w3.org/2000/svg">
<path d="M4.68111 13.1642H12.743V13.097C12.743 12.4701 12.3584 11.944 11.589 11.5187C10.8197 11.0933 9.86068 10.8806 8.71207 10.8806C7.56347 10.8806 6.60449 11.0933 5.83514 11.5187C5.06579 11.944 4.68111 12.4701 4.68111 13.097V13.1642ZM8.71207 8.46269C9.21053 8.46269 9.62771 8.28918 9.96362 7.94216C10.2995 7.59515 10.4675 7.16418 10.4675 6.64925C10.4675 6.13433 10.2995 5.70336 9.96362 5.35634C9.62771 5.00933 9.21053 4.83582 8.71207 4.83582C8.21362 4.83582 7.79644 5.00933 7.46053 5.35634C7.12461 5.70336 6.95666 6.13433 6.95666 6.64925C6.95666 7.16418 7.12461 7.59515 7.46053 7.94216C7.79644 8.28918 8.21362 8.46269 8.71207 8.46269ZM1.95046 18C1.387 18 0.921053 17.8097 0.552632 17.4291C0.184211 17.0485 0 16.5672 0 15.9851V2.01493C0 1.43284 0.184211 0.951493 0.552632 0.570896C0.921053 0.190299 1.387 0 1.95046 0H15.4737C16.0372 0 16.5031 0.190299 16.8715 0.570896C17.2399 0.951493 17.4241 1.43284 17.4241 2.01493V8.32836L21 4.63433V13.3657L17.4241 9.67164V15.9851C17.4241 16.5672 17.2399 17.0485 16.8715 17.4291C16.5031 17.8097 16.0372 18 15.4737 18H1.95046ZM1.95046 17.0597H15.4737C15.7771 17.0597 16.0263 16.959 16.2214 16.7575C16.4164 16.556 16.5139 16.2985 16.5139 15.9851V2.01493C16.5139 1.70149 16.4164 1.44403 16.2214 1.24254C16.0263 1.04104 15.7771 0.940299 15.4737 0.940299H1.95046C1.64706 0.940299 1.39783 1.04104 1.20279 1.24254C1.00774 1.44403 0.910217 1.70149 0.910217 2.01493V15.9851C0.910217 16.2985 1.00774 16.556 1.20279 16.7575C1.39783 16.959 1.64706 17.0597 1.95046 17.0597Z" fill="#83B59F"/>
</svg>
