<svg width="18" height="18" viewBox="0 0 18 18" fill="none" xmlns="http://www.w3.org/2000/svg">
<path d="M7.82308 15.9168C6.14615 15.433 4.75769 14.4772 3.65769 13.0494C2.55769 11.6216 2.00769 9.97139 2.00769 8.09883C2.00769 7.58387 2.05385 7.07282 2.14615 6.56567C2.23846 6.05852 2.38462 5.56307 2.58462 5.07932L0.3 6.41352L0 5.85176L3.34615 3.88557L5.28462 7.27958L4.73077 7.63069L3.3 5.12614C3.08462 5.59428 2.92692 6.08192 2.82692 6.58908C2.72692 7.09623 2.67692 7.60728 2.67692 8.12224C2.67692 9.85436 3.19615 11.3836 4.23462 12.71C5.27308 14.0364 6.58462 14.9103 8.16923 15.3316L7.82308 15.9168ZM12.9 4.07282V3.41743H15.7154C15.0231 2.52796 14.1769 1.84525 13.1769 1.36931C12.1769 0.893368 11.1231 0.655397 10.0154 0.655397C9 0.655397 8.05385 0.846554 7.17692 1.22887C6.3 1.61118 5.53077 2.13784 4.86923 2.80884L4.52308 2.20026C5.24615 1.51365 6.07308 0.975293 7.00385 0.585176C7.93462 0.195059 8.93077 0 9.99231 0C11.1923 0 12.3231 0.249675 13.3846 0.749025C14.4462 1.24837 15.3615 1.96619 16.1308 2.90247V0.140442H16.7769V4.07282H12.9ZM13.2462 18L9.9 16.0104L11.8385 12.6398L12.3923 12.9675L10.9154 15.5189C12.7462 15.2848 14.2769 14.4655 15.5077 13.0611C16.7385 11.6567 17.3538 10.0104 17.3538 8.12224C17.3538 7.74772 17.3269 7.37711 17.2731 7.0104C17.2192 6.64369 17.1385 6.28869 17.0308 5.94538H17.7231C17.8154 6.28869 17.8846 6.63979 17.9308 6.9987C17.9769 7.35761 18 7.72432 18 8.09883C18 10.1118 17.3654 11.8713 16.0962 13.3771C14.8269 14.883 13.2231 15.7919 11.2846 16.104L13.5692 17.4382L13.2462 18Z" fill="#83B59F"/>
</svg>
