<svg width="16" height="16" viewBox="0 0 16 16" fill="none" xmlns="http://www.w3.org/2000/svg">
<path d="M10.8046 11.7931L7.67816 8.66667V4.22989H8.32184V8.41379L11.2414 11.3333L10.8046 11.7931ZM7.67816 2.48276V0.643678H8.32184V2.48276H7.67816ZM13.5172 8.32184V7.67816H15.3563V8.32184H13.5172ZM7.67816 15.3563V13.5172H8.32184V15.3563H7.67816ZM0.643678 8.32184V7.67816H2.48276V8.32184H0.643678ZM8.00391 16C6.89785 16 5.85778 15.7901 4.88368 15.3703C3.90958 14.9506 3.0623 14.3808 2.34184 13.6611C1.62123 12.9415 1.0508 12.0952 0.630575 11.1225C0.210191 10.1497 0 9.11012 0 8.00391C0 6.89785 0.209885 5.85778 0.629655 4.88368C1.04943 3.90958 1.61916 3.0623 2.33885 2.34184C3.05854 1.62123 3.90475 1.0508 4.87747 0.630575C5.85035 0.210191 6.88988 0 7.99609 0C9.10215 0 10.1422 0.209885 11.1163 0.629655C12.0904 1.04943 12.9377 1.61916 13.6582 2.33885C14.3788 3.05854 14.9492 3.90475 15.3694 4.87747C15.7898 5.85034 16 6.88988 16 7.99609C16 9.10215 15.7901 10.1422 15.3703 11.1163C14.9506 12.0904 14.3808 12.9377 13.6611 13.6582C12.9415 14.3788 12.0952 14.9492 11.1225 15.3694C10.1497 15.7898 9.11012 16 8.00391 16ZM8 15.3563C10.0536 15.3563 11.7931 14.6437 13.2184 13.2184C14.6437 11.7931 15.3563 10.0536 15.3563 8C15.3563 5.94636 14.6437 4.2069 13.2184 2.78161C11.7931 1.35632 10.0536 0.643678 8 0.643678C5.94636 0.643678 4.2069 1.35632 2.78161 2.78161C1.35632 4.2069 0.643678 5.94636 0.643678 8C0.643678 10.0536 1.35632 11.7931 2.78161 13.2184C4.2069 14.6437 5.94636 15.3563 8 15.3563Z" fill="#83B59F"/>
</svg>
