<svg width="18" height="16" viewBox="0 0 18 16" fill="none" xmlns="http://www.w3.org/2000/svg">
<path d="M0 10.4335V9.65779H8.31683V10.4335H0ZM0 5.59696V4.82129H13.0248V5.59696H0ZM0 0.775665V0H13.0248V0.775665H0ZM9.28218 16V13.673L15.5341 7.30099C15.6236 7.22961 15.7176 7.17364 15.8162 7.13308C15.9149 7.09252 16.0085 7.07224 16.0972 7.07224C16.1939 7.07224 16.2933 7.09252 16.3954 7.13308C16.4978 7.17364 16.5921 7.2294 16.6782 7.30038L17.7772 8.45627C17.8418 8.55605 17.8951 8.6545 17.937 8.75163C17.979 8.84877 18 8.9455 18 9.04183C18 9.13815 17.9863 9.23478 17.959 9.33171C17.9317 9.42864 17.8709 9.52233 17.7766 9.61277L11.5545 16H9.28218ZM16.1139 10.1901L17.2129 9.03422L16.1139 7.87833L14.9851 9.03422L16.1139 10.1901Z" fill="#83B59F"/>
</svg>
