<svg width="16" height="16" viewBox="0 0 16 16" fill="none" xmlns="http://www.w3.org/2000/svg">
<path d="M8.04969 9.73913L12.7702 5.01863L12.2733 4.52174L8.04969 8.74534L5.91304 6.6087L5.41615 7.10559L8.04969 9.73913ZM4.17391 13.3168C3.74327 13.3168 3.38716 13.176 3.10559 12.8944C2.82402 12.6128 2.68323 12.2567 2.68323 11.8261V1.49068C2.68323 1.06004 2.82402 0.703934 3.10559 0.42236C3.38716 0.140787 3.74327 0 4.17391 0H14.5093C14.94 0 15.2961 0.140787 15.5776 0.42236C15.8592 0.703934 16 1.06004 16 1.49068V11.8261C16 12.2567 15.8592 12.6128 15.5776 12.8944C15.2961 13.176 14.94 13.3168 14.5093 13.3168H4.17391ZM4.17391 12.6211H14.5093C14.7081 12.6211 14.8903 12.5383 15.0559 12.3727C15.2215 12.207 15.3043 12.0248 15.3043 11.8261V1.49068C15.3043 1.29193 15.2215 1.10973 15.0559 0.944099C14.8903 0.778468 14.7081 0.695652 14.5093 0.695652H4.17391C3.97516 0.695652 3.79296 0.778468 3.62733 0.944099C3.4617 1.10973 3.37888 1.29193 3.37888 1.49068V11.8261C3.37888 12.0248 3.4617 12.207 3.62733 12.3727C3.79296 12.5383 3.97516 12.6211 4.17391 12.6211ZM1.49068 16C1.06004 16 0.703934 15.8592 0.42236 15.5776C0.140787 15.2961 0 14.94 0 14.5093V3.47826H0.695652V14.5093C0.695652 14.7081 0.778468 14.8903 0.944099 15.0559C1.10973 15.2215 1.29193 15.3043 1.49068 15.3043H12.5217V16H1.49068Z" fill="#83B59F"/>
</svg>
