<svg width="16" height="16" viewBox="0 0 16 16" fill="none" xmlns="http://www.w3.org/2000/svg">
<path d="M7.95402 16C6.8659 16 5.83908 15.7893 4.87356 15.3678C3.90805 14.9464 3.06513 14.3755 2.34483 13.6552C1.62452 12.9349 1.05364 12.0881 0.632184 11.1149C0.210728 10.1418 0 9.10345 0 8C0 6.88123 0.214559 5.83525 0.643678 4.86207C1.0728 3.88889 1.659 3.04215 2.4023 2.32184C3.14559 1.60153 4.01916 1.03448 5.02299 0.62069C6.02682 0.206897 7.09579 0 8.22989 0C9.25671 0 10.2375 0.172414 11.1724 0.517241C12.1073 0.862069 12.931 1.341 13.6437 1.95402C14.3563 2.56705 14.9272 3.29885 15.3563 4.14943C15.7854 5 16 5.93103 16 6.94253C16 8.26054 15.6284 9.33333 14.8851 10.1609C14.1418 10.9885 13.0728 11.4023 11.6782 11.4023H10.069C9.6092 11.4023 9.21839 11.5632 8.89655 11.8851C8.57471 12.2069 8.41379 12.5977 8.41379 13.0575C8.41379 13.5019 8.52874 13.8467 8.75862 14.092C8.98851 14.3372 9.10345 14.6207 9.10345 14.9425C9.10345 15.295 9.00383 15.5594 8.8046 15.7356C8.60536 15.9119 8.32184 16 7.95402 16ZM3.49425 8.09195C3.64751 7.9387 3.72414 7.75479 3.72414 7.54023C3.72414 7.32567 3.64751 7.14176 3.49425 6.98851C3.341 6.83525 3.15709 6.75862 2.94253 6.75862C2.72797 6.75862 2.54406 6.83525 2.3908 6.98851C2.23755 7.14176 2.16092 7.32567 2.16092 7.54023C2.16092 7.75479 2.23755 7.9387 2.3908 8.09195C2.54406 8.24521 2.72797 8.32184 2.94253 8.32184C3.15709 8.32184 3.341 8.24521 3.49425 8.09195ZM6.25287 4.41379C6.40613 4.26054 6.48276 4.07663 6.48276 3.86207C6.48276 3.64751 6.40613 3.4636 6.25287 3.31034C6.09962 3.15709 5.91571 3.08046 5.70115 3.08046C5.48659 3.08046 5.30268 3.15709 5.14943 3.31034C4.99617 3.4636 4.91954 3.64751 4.91954 3.86207C4.91954 4.07663 4.99617 4.26054 5.14943 4.41379C5.30268 4.56705 5.48659 4.64368 5.70115 4.64368C5.91571 4.64368 6.09962 4.56705 6.25287 4.41379ZM10.8506 4.41379C11.0038 4.26054 11.0805 4.07663 11.0805 3.86207C11.0805 3.64751 11.0038 3.4636 10.8506 3.31034C10.6973 3.15709 10.5134 3.08046 10.2989 3.08046C10.0843 3.08046 9.90038 3.15709 9.74713 3.31034C9.59387 3.4636 9.51724 3.64751 9.51724 3.86207C9.51724 4.07663 9.59387 4.26054 9.74713 4.41379C9.90038 4.56705 10.0843 4.64368 10.2989 4.64368C10.5134 4.64368 10.6973 4.56705 10.8506 4.41379ZM13.6092 8.09195C13.7625 7.9387 13.8391 7.75479 13.8391 7.54023C13.8391 7.32567 13.7625 7.14176 13.6092 6.98851C13.4559 6.83525 13.272 6.75862 13.0575 6.75862C12.8429 6.75862 12.659 6.83525 12.5057 6.98851C12.3525 7.14176 12.2759 7.32567 12.2759 7.54023C12.2759 7.75479 12.3525 7.9387 12.5057 8.09195C12.659 8.24521 12.8429 8.32184 13.0575 8.32184C13.272 8.32184 13.4559 8.24521 13.6092 8.09195ZM7.95402 15.3563C8.12261 15.3563 8.24904 15.3218 8.33333 15.2529C8.41762 15.1839 8.45977 15.0805 8.45977 14.9425C8.45977 14.728 8.34483 14.5057 8.11494 14.2759C7.88506 14.046 7.77011 13.6552 7.77011 13.1034C7.77011 12.4291 7.99234 11.8697 8.43678 11.4253C8.88123 10.9808 9.42529 10.7586 10.069 10.7586H11.6782C12.8736 10.7586 13.7854 10.4061 14.4138 9.70115C15.0421 8.99617 15.3563 8.07663 15.3563 6.94253C15.3563 5.0728 14.636 3.55556 13.1954 2.3908C11.7548 1.22605 10.0996 0.643678 8.22989 0.643678C6.09962 0.643678 4.30268 1.35632 2.83908 2.78161C1.37548 4.2069 0.643678 5.94636 0.643678 8C0.643678 10.0383 1.36015 11.7739 2.7931 13.2069C4.22605 14.6398 5.94636 15.3563 7.95402 15.3563Z" fill="#83B59F"/>
</svg>
