<svg width="15" height="16" viewBox="0 0 15 16" fill="none" xmlns="http://www.w3.org/2000/svg">
<path d="M0.590717 0.596538V6.0719V6.0506V14.2317V0.596538ZM1.26582 14.8282C0.900141 14.8282 0.59775 14.7075 0.35865 14.466C0.11955 14.2246 0 13.9192 0 13.5499V1.2783C0 0.90901 0.11955 0.60364 0.35865 0.362184C0.59775 0.120728 0.900141 0 1.26582 0H7.8903L11.308 3.4514V6.15712C11.2096 6.12872 11.1111 6.11096 11.0127 6.10386C10.9142 6.09676 10.8158 6.08611 10.7173 6.0719V3.74967H7.59494V0.596538H1.26582C1.09705 0.596538 0.942335 0.667554 0.801688 0.809587C0.661041 0.95162 0.590717 1.10786 0.590717 1.2783V13.5499C0.590717 13.7204 0.661041 13.8766 0.801688 14.0186C0.942335 14.1607 1.09705 14.2317 1.26582 14.2317H6.07595C6.14627 14.3453 6.22363 14.4483 6.30802 14.5406C6.39241 14.6329 6.47679 14.7288 6.56118 14.8282H1.26582ZM12.0359 13.0067C12.507 12.5308 12.7426 11.945 12.7426 11.249C12.7426 10.553 12.507 9.96715 12.0359 9.49134C11.5647 9.01553 10.9845 8.77763 10.2954 8.77763C9.60619 8.77763 9.02602 9.01553 8.55485 9.49134C8.08368 9.96715 7.8481 10.553 7.8481 11.249C7.8481 11.945 8.08368 12.5308 8.55485 13.0067C9.02602 13.4825 9.60619 13.7204 10.2954 13.7204C10.9845 13.7204 11.5647 13.4825 12.0359 13.0067ZM14.5992 16L12.2363 13.6138C11.9691 13.8411 11.6702 14.0151 11.3397 14.1358C11.0091 14.2565 10.661 14.3169 10.2954 14.3169C9.45148 14.3169 8.73418 14.0186 8.14346 13.4221C7.55274 12.8256 7.25738 12.1012 7.25738 11.249C7.25738 10.3968 7.55274 9.67244 8.14346 9.0759C8.73418 8.47936 9.45148 8.18109 10.2954 8.18109C11.1392 8.18109 11.8565 8.47936 12.4473 9.0759C13.038 9.67244 13.3333 10.3968 13.3333 11.249C13.3333 11.6183 13.2736 11.9698 13.154 12.3036C13.0345 12.6374 12.8622 12.9392 12.6371 13.2091L15 15.5952L14.5992 16Z" fill="#83B59F"/>
</svg>
