<svg width="18" height="16" viewBox="0 0 18 16" fill="none" xmlns="http://www.w3.org/2000/svg">
<path d="M1.55172 16C1.10345 16 0.732759 15.8528 0.439655 15.5584C0.146552 15.2641 0 14.8918 0 14.4416V1.55844C0 1.10823 0.146552 0.735931 0.439655 0.441558C0.732759 0.147186 1.10345 0 1.55172 0H16.4483C16.8966 0 17.2672 0.147186 17.5603 0.441558C17.8534 0.735931 18 1.10823 18 1.55844V14.4416C18 14.8918 17.8534 15.2641 17.5603 15.5584C17.2672 15.8528 16.8966 16 16.4483 16H1.55172ZM1.55172 15.2727H16.4483C16.6552 15.2727 16.8448 15.1861 17.0172 15.013C17.1897 14.8398 17.2759 14.6494 17.2759 14.4416V1.55844C17.2759 1.35065 17.1897 1.16017 17.0172 0.987013C16.8448 0.813853 16.6552 0.727273 16.4483 0.727273H1.55172C1.34483 0.727273 1.15517 0.813853 0.982759 0.987013C0.810345 1.16017 0.724138 1.35065 0.724138 1.55844V14.4416C0.724138 14.6494 0.810345 14.8398 0.982759 15.013C1.15517 15.1861 1.34483 15.2727 1.55172 15.2727ZM2.43103 12.5195H6.25862V11.7922H2.43103V12.5195ZM11.6379 10.1558L15.8017 5.97403L15.2845 5.45455L11.6379 9.14286L10.1638 7.66234L9.67241 8.18182L11.6379 10.1558ZM2.43103 8.36364H6.25862V7.63636H2.43103V8.36364ZM2.43103 4.20779H6.25862V3.48052H2.43103V4.20779Z" fill="#83B59F"/>
</svg>
