<svg width="16" height="16" viewBox="0 0 16 16" fill="none" xmlns="http://www.w3.org/2000/svg">
<path d="M6.95385 14.1482C5.46325 13.7182 4.22906 12.8687 3.25128 11.5995C2.2735 10.3303 1.78462 8.86346 1.78462 7.19896C1.78462 6.74122 1.82564 6.28695 1.90769 5.83615C1.98974 5.38535 2.11966 4.94495 2.29744 4.51495L0.266667 5.70091L0 5.20156L2.97436 3.45384L4.69744 6.47074L4.20513 6.78284L2.93333 4.55657C2.74188 4.97269 2.60171 5.40616 2.51282 5.85696C2.42393 6.30776 2.37949 6.76203 2.37949 7.21977C2.37949 8.75943 2.84103 10.1188 3.7641 11.2978C4.68718 12.4768 5.85299 13.2536 7.26154 13.6281L6.95385 14.1482ZM11.4667 3.62029V3.03771H13.9692C13.3538 2.24707 12.6017 1.64023 11.7128 1.21717C10.8239 0.794105 9.88718 0.582575 8.90256 0.582575C8 0.582575 7.15897 0.752492 6.37949 1.09233C5.6 1.43216 4.91624 1.9003 4.32821 2.49675L4.02051 1.95579C4.66325 1.34547 5.39829 0.866927 6.22564 0.520156C7.05299 0.173385 7.93846 0 8.88205 0C9.94872 0 10.9538 0.221933 11.8974 0.6658C12.841 1.10967 13.6547 1.74772 14.3385 2.57997V0.124837H14.9128V3.62029H11.4667ZM11.7744 16L8.8 14.2315L10.5231 11.2354L11.0154 11.5267L9.70256 13.7945C11.3299 13.5865 12.6906 12.8583 13.7846 11.6099C14.8786 10.3615 15.4256 8.89814 15.4256 7.21977C15.4256 6.88687 15.4017 6.55743 15.3538 6.23147C15.306 5.90551 15.2342 5.58994 15.1385 5.28479H15.7538C15.8359 5.58994 15.8974 5.90204 15.9385 6.22107C15.9795 6.5401 16 6.86606 16 7.19896C16 8.9883 15.4359 10.5522 14.3077 11.8908C13.1795 13.2293 11.7538 14.0373 10.0308 14.3147L12.0615 15.5007L11.7744 16Z" fill="#83B59F"/>
</svg>
