<svg width="16" height="16" viewBox="0 0 16 16" fill="none" xmlns="http://www.w3.org/2000/svg">
<path d="M2.75429 13.2128C3.55366 12.6608 4.37318 12.2255 5.21283 11.9067C6.05248 11.5879 6.98154 11.4286 8 11.4286C9.01847 11.4286 9.94752 11.5879 10.7872 11.9067C11.6268 12.2255 12.4509 12.6608 13.2595 13.2128C13.9048 12.5675 14.4237 11.8045 14.8163 10.9236C15.2089 10.0428 15.4052 9.069 15.4052 8.00233C15.4052 5.9483 14.6842 4.20019 13.242 2.75802C11.7998 1.31584 10.0525 0.594752 8 0.594752C5.94752 0.594752 4.20019 1.31584 2.75802 2.75802C1.31584 4.20019 0.594752 5.9483 0.594752 8.00233C0.594752 9.069 0.791059 10.0428 1.18367 10.9236C1.57629 11.8045 2.09983 12.5675 2.75429 13.2128ZM8.00327 8.30321C7.25473 8.30321 6.62779 8.05162 6.12245 7.54846C5.6171 7.04529 5.36443 6.41944 5.36443 5.6709C5.36443 4.92237 5.61602 4.29543 6.11918 3.79009C6.62235 3.28474 7.2482 3.03207 7.99673 3.03207C8.74527 3.03207 9.37221 3.28365 9.87755 3.78682C10.3829 4.28999 10.6356 4.91584 10.6356 5.66437C10.6356 6.41291 10.384 7.03984 9.88082 7.54519C9.37765 8.05054 8.7518 8.30321 8.00327 8.30321ZM8 16C6.88964 16 5.84536 15.792 4.86717 15.3759C3.88914 14.9596 3.0414 14.3921 2.32397 13.6732C1.60653 12.9542 1.03984 12.1062 0.623907 11.1291C0.207969 10.1521 0 9.10717 0 7.99417C0 6.87992 0.208047 5.83565 0.62414 4.86134C1.04039 3.88719 1.60793 3.0414 2.32676 2.32397C3.04575 1.60653 3.8938 1.03984 4.8709 0.623907C5.84785 0.207969 6.89283 0 8.00583 0C9.12008 0 10.1644 0.208047 11.1387 0.62414C12.1128 1.04039 12.9586 1.60793 13.676 2.32676C14.3935 3.04575 14.9602 3.89147 15.3761 4.86391C15.792 5.8365 16 6.88187 16 8C16 9.11036 15.792 10.1546 15.3759 11.1328C14.9596 12.1109 14.3921 12.9586 13.6732 13.676C12.9542 14.3935 12.1085 14.9602 11.1361 15.3761C10.1635 15.792 9.11813 16 8 16ZM7.9993 15.4052C8.86274 15.4052 9.72012 15.2478 10.5714 14.9329C11.4227 14.6181 12.1594 14.1885 12.7813 13.6443C12.1594 13.1545 11.4463 12.7619 10.6421 12.4665C9.8379 12.171 8.9579 12.0233 8.0021 12.0233C7.0463 12.0233 6.15782 12.1633 5.33668 12.4431C4.51553 12.723 3.80952 13.1234 3.21866 13.6443C3.84062 14.1885 4.57703 14.6181 5.42787 14.9329C6.27872 15.2478 7.13586 15.4052 7.9993 15.4052ZM8 7.70846C8.56754 7.70846 9.04956 7.5102 9.44606 7.1137C9.84257 6.7172 10.0408 6.23518 10.0408 5.66764C10.0408 5.1001 9.84257 4.61808 9.44606 4.22157C9.04956 3.82507 8.56754 3.62682 8 3.62682C7.43246 3.62682 6.95044 3.82507 6.55394 4.22157C6.15743 4.61808 5.95918 5.1001 5.95918 5.66764C5.95918 6.23518 6.15743 6.7172 6.55394 7.1137C6.95044 7.5102 7.43246 7.70846 8 7.70846Z" fill="#83B59F"/>
</svg>
