<svg width="16" height="16" viewBox="0 0 16 16" fill="none" xmlns="http://www.w3.org/2000/svg">
<path d="M4.78161 4.50575V3.86207H12.1379V4.50575H4.78161ZM4.78161 6.98851V6.34483H12.1379V6.98851H4.78161ZM6.89655 16H1.56322C1.11877 16 0.747126 15.8506 0.448276 15.5517C0.149425 15.2529 0 14.8812 0 14.4368V11.954H2.75862V0H14.1609V6.94253C14.0383 6.95785 13.9272 6.97701 13.8276 7C13.728 7.02299 13.6245 7.04981 13.5172 7.08046V0.643678H3.4023V11.954H8.13793L7.49425 12.5977H0.643678V14.4368C0.643678 14.6973 0.731801 14.9157 0.908046 15.092C1.08429 15.2682 1.30268 15.3563 1.56322 15.3563H6.89655V16ZM9.1954 16V14.2069L14.046 9.37931C14.1226 9.30268 14.1992 9.25287 14.2759 9.22989C14.3525 9.2069 14.4291 9.1954 14.5057 9.1954C14.5824 9.1954 14.6628 9.21073 14.7471 9.24138C14.8314 9.27203 14.9042 9.31801 14.9655 9.37931L15.8161 10.2529C15.8774 10.3295 15.9234 10.4061 15.954 10.4828C15.9847 10.5594 16 10.636 16 10.7126C16 10.7893 15.9847 10.8659 15.954 10.9425C15.9234 11.0192 15.8774 11.0958 15.8161 11.1724L10.9885 16H9.1954ZM9.83908 15.3563H10.7126L14.023 12.046L13.5862 11.6092L13.1724 11.1494L9.83908 14.4828V15.3563ZM13.5862 11.6092L13.1724 11.1494L14.023 12.046L13.5862 11.6092Z" fill="#83B59F"/>
</svg>
