<svg width="13" height="16" viewBox="0 0 13 16" fill="none" xmlns="http://www.w3.org/2000/svg">
<path d="M5.90909 16V14.16H1.26623C0.900433 14.16 0.597944 14.0467 0.358766 13.82C0.119589 13.5933 0 13.3067 0 12.96V3.04C0 2.69333 0.119589 2.40667 0.358766 2.18C0.597944 1.95333 0.900433 1.84 1.26623 1.84H5.90909V0H6.5V16H5.90909ZM0.590909 12.8H5.90909V6.76L0.590909 12.8ZM8.18831 14.16V8L12.4091 12.8V3.04C12.4091 2.88 12.3387 2.73333 12.1981 2.6C12.0574 2.46667 11.9026 2.4 11.7338 2.4H8.18831V1.84H11.7338C12.0996 1.84 12.4021 1.95333 12.6412 2.18C12.8804 2.40667 13 2.69333 13 3.04V12.96C13 13.3067 12.8804 13.5933 12.6412 13.82C12.4021 14.0467 12.0996 14.16 11.7338 14.16H8.18831Z" fill="#83B59F"/>
</svg>
