<svg width="35" height="18" viewBox="0 0 35 18" fill="none" xmlns="http://www.w3.org/2000/svg">
<path d="M2.28261 18C1.63446 18 1.09199 17.7827 0.655193 17.3481C0.218398 16.9136 0 16.3738 0 15.729C0 15.0841 0.218398 14.5444 0.655193 14.1098C1.09199 13.6752 1.63446 13.4579 2.28261 13.4579C2.50805 13.4579 2.7194 13.479 2.91667 13.521C3.11393 13.5631 3.2971 13.6542 3.46618 13.7944L12.1739 5.13084C12.033 4.96262 11.9414 4.78037 11.8992 4.58411C11.8569 4.38785 11.8357 4.17757 11.8357 3.95327C11.8357 3.30841 12.0541 2.76869 12.4909 2.33411C12.9277 1.89953 13.4702 1.68224 14.1184 1.68224C14.7665 1.68224 15.309 1.89953 15.7458 2.33411C16.1826 2.76869 16.401 3.30841 16.401 3.95327C16.401 4.1215 16.3164 4.48598 16.1473 5.04673L21.4734 10.3458C21.6425 10.2617 21.8116 10.1986 21.9807 10.1565C22.1498 10.1145 22.347 10.0935 22.5725 10.0935C22.7979 10.0935 23.0022 10.1145 23.1854 10.1565C23.3686 10.1986 23.5306 10.2897 23.6715 10.4299L30.7729 3.36449C30.632 3.2243 30.5405 3.06308 30.4982 2.88084C30.4559 2.6986 30.4348 2.49533 30.4348 2.27103C30.4348 1.62617 30.6532 1.08645 31.09 0.651869C31.5268 0.21729 32.0692 0 32.7174 0C33.3655 0 33.908 0.21729 34.3448 0.651869C34.7816 1.08645 35 1.62617 35 2.27103C35 2.91589 34.7816 3.45561 34.3448 3.89019C33.908 4.32477 33.3655 4.54206 32.7174 4.54206C32.4919 4.54206 32.2876 4.52103 32.1045 4.47897C31.9213 4.43692 31.7593 4.34579 31.6184 4.20561L24.5169 11.271C24.6578 11.4112 24.7494 11.5724 24.7917 11.7547C24.8339 11.9369 24.8551 12.1402 24.8551 12.3645C24.8551 13.0093 24.6367 13.5491 24.1999 13.9836C23.7631 14.4182 23.2206 14.6355 22.5725 14.6355C21.9243 14.6355 21.3818 14.4182 20.945 13.9836C20.5083 13.5491 20.2899 13.0093 20.2899 12.3645C20.2899 12.1402 20.311 11.9299 20.3533 11.7336C20.3955 11.5374 20.4871 11.3551 20.628 11.1869L15.3019 5.88785C15.1328 6.02804 14.9497 6.11916 14.7524 6.16122C14.5552 6.20327 14.3438 6.2243 14.1184 6.2243C13.9493 6.2243 13.5829 6.14019 13.0193 5.97196L4.31159 14.6355C4.39614 14.8037 4.45954 14.972 4.50181 15.1402C4.54408 15.3084 4.56522 15.5047 4.56522 15.729C4.56522 16.3738 4.34682 16.9136 3.91002 17.3481C3.47323 17.7827 2.93076 18 2.28261 18Z" fill="#83B59F"/>
</svg>
