<svg width="25" height="18" viewBox="0 0 25 18" fill="none" xmlns="http://www.w3.org/2000/svg">
<path d="M7.06522 0C8.13205 0 9.12842 0.279412 10.0543 0.838235C10.9803 1.39706 11.7955 2.21569 12.5 3.29412C13.2045 2.21569 14.0197 1.39706 14.9457 0.838235C15.8716 0.279412 16.868 0 17.9348 0C19.3639 0 20.5666 0.47549 21.5429 1.42647C22.5191 2.37745 23.0072 3.54902 23.0072 4.94118C23.0072 5.07843 23.0022 5.20588 22.9922 5.32353C22.9821 5.44118 22.967 5.56863 22.9469 5.70588H22.1014C22.1216 5.56863 22.1367 5.44118 22.1467 5.32353C22.1568 5.20588 22.1618 5.07843 22.1618 4.94118C22.1618 3.76471 21.7593 2.78431 20.9541 2C20.149 1.21569 19.1425 0.823529 17.9348 0.823529C16.9686 0.823529 16.0779 1.09314 15.2627 1.63235C14.4475 2.17157 13.6675 3.01961 12.9227 4.17647H12.0773C11.3124 3 10.5274 2.14706 9.72222 1.61765C8.91707 1.08824 8.0314 0.823529 7.06522 0.823529C5.87762 0.823529 4.87621 1.21569 4.06099 2C3.24577 2.78431 2.83816 3.76471 2.83816 4.94118C2.83816 5.07843 2.8432 5.20588 2.85326 5.32353C2.86333 5.44118 2.87842 5.56863 2.89855 5.70588H2.05314C2.03301 5.56863 2.01791 5.44118 2.00785 5.32353C1.99779 5.20588 1.99275 5.07843 1.99275 4.94118C1.99275 3.54902 2.48088 2.37745 3.45713 1.42647C4.43337 0.47549 5.63607 0 7.06522 0ZM6.46135 12.4118H7.63889C8.28301 13.0392 9.00765 13.7206 9.8128 14.4559C10.618 15.1912 11.5137 16 12.5 16.8824C13.4863 16 14.382 15.1912 15.1872 14.4559C15.9924 13.7206 16.717 13.0392 17.3611 12.4118H18.5386C17.8341 13.098 17.0441 13.8529 16.1685 14.6765C15.2929 15.5 14.2915 16.4118 13.1643 17.4118L12.5 18L11.8357 17.4118C10.7085 16.4118 9.70713 15.5 8.83152 14.6765C7.95592 13.8529 7.16586 13.098 6.46135 12.4118ZM11.3527 13C11.4332 13 11.4986 12.9755 11.5489 12.9265C11.5992 12.8775 11.6445 12.8137 11.6848 12.7353L13.8285 6.47059L15.6099 9.08824C15.7105 9.20588 15.8213 9.29902 15.942 9.36765C16.0628 9.43627 16.2037 9.47059 16.3647 9.47059H25V8.64706H16.3043L14.0399 5.32353C13.9996 5.26471 13.9442 5.22059 13.8738 5.19118C13.8033 5.16176 13.7279 5.14706 13.6473 5.14706C13.5668 5.14706 13.4964 5.17157 13.436 5.22059C13.3756 5.26961 13.3353 5.33333 13.3152 5.41176L11.1715 11.7059L9.32971 9.02941C9.22907 8.91176 9.11836 8.81863 8.99758 8.75C8.87681 8.68137 8.73591 8.64706 8.57488 8.64706H0V9.47059H8.63527L10.93 12.8235C10.9702 12.902 11.0306 12.951 11.1111 12.9706C11.1916 12.9902 11.2721 13 11.3527 13Z" fill="#83B59F"/>
</svg>
