<svg width="20" height="18" viewBox="0 0 20 18" fill="none" xmlns="http://www.w3.org/2000/svg">
<path d="M19.4609 15.9146L17.2237 13.6098L17.7358 13.0884L20 15.3659L19.4609 15.9146ZM16.1456 3.26524L15.6334 2.7439L17.8706 0.466463L18.4097 0.987805L16.1456 3.26524ZM3.85445 3.29268L1.61725 0.987805L2.12938 0.466463L4.39353 2.7439L3.85445 3.29268ZM0.512129 15.9146L0 15.3659L2.2372 13.0884L2.77628 13.6098L0.512129 15.9146ZM5.36388 16.3537L10 13.5274L14.6631 16.4085L13.4501 11.0579L17.5202 7.49085L12.1563 6.99695L10 1.94817L7.87062 6.96951L2.50674 7.43598L6.57682 11.0579L5.36388 16.3537ZM4.20485 18L5.74124 11.3598L0.619946 6.85976L7.35849 6.28354L10 0L12.6685 6.28354L19.407 6.85976L14.2857 11.3598L15.8221 18L10 14.4604L4.20485 18Z" fill="#83B59F"/>
</svg>
