<svg width="10" height="18" viewBox="0 0 10 18" fill="none" xmlns="http://www.w3.org/2000/svg">
<path d="M0.889371 18L3.47072 5.19315L0.607375 6.38142V9.17604H0V5.96333L3.68764 4.37897C3.89009 4.29095 4.07448 4.23594 4.24078 4.21394C4.40709 4.19193 4.56978 4.1956 4.72885 4.22494C4.88792 4.25428 5.02892 4.31663 5.15184 4.41198C5.27477 4.50733 5.38684 4.6357 5.48807 4.79707L6.00868 5.63325C6.52928 6.49878 7.12581 7.17726 7.79826 7.6687C8.47072 8.16015 9.20463 8.44988 10 8.5379V9.15403C9.04555 9.03667 8.19595 8.71394 7.45119 8.18582C6.70644 7.6577 6.05929 6.93154 5.50976 6.00733L4.64208 10.4303L6.52928 12.4988V18H5.92191V13.0049L3.31887 10.4743L1.49675 18H0.889371ZM4.80477 2.40954C4.53724 2.13814 4.40347 1.8044 4.40347 1.40831C4.40347 1.01222 4.53724 0.678484 4.80477 0.40709C5.07231 0.135697 5.4013 0 5.79176 0C6.18221 0 6.51121 0.135697 6.77874 0.40709C7.04628 0.678484 7.18004 1.01222 7.18004 1.40831C7.18004 1.8044 7.04628 2.13814 6.77874 2.40954C6.51121 2.68093 6.18221 2.81663 5.79176 2.81663C5.4013 2.81663 5.07231 2.68093 4.80477 2.40954Z" fill="#83B59F"/>
</svg>
