<svg width="21" height="18" viewBox="0 0 21 18" fill="none" xmlns="http://www.w3.org/2000/svg">
<path d="M3.80061 18C3.37117 18 3.01687 17.8817 2.73773 17.6452C2.45859 17.4086 2.31902 17.0753 2.31902 16.6452C2.31902 16.3441 2.40491 16.0914 2.57669 15.8871C2.74847 15.6828 2.96319 15.5269 3.22086 15.4194L8.76074 13.2258V7.80645C7.10736 9.76344 5.67945 11.1183 4.47699 11.871C3.27454 12.6237 1.78221 13.1183 0 13.3548V12.4194C1.26687 12.3118 2.46933 11.9462 3.60736 11.3226C4.7454 10.6989 5.79755 9.82796 6.7638 8.70968L8.50307 6.70968C8.67485 6.51613 8.87883 6.36021 9.11503 6.24194C9.35123 6.12366 9.59816 6.06452 9.85583 6.06452H11.1442C11.4018 6.06452 11.6488 6.12366 11.885 6.24194C12.1212 6.36021 12.3252 6.51613 12.4969 6.70968L14.2362 8.70968C15.2025 9.82796 16.2546 10.6989 17.3926 11.3226C18.5307 11.9462 19.7331 12.3118 21 12.4194V13.3548C19.2178 13.1183 17.7255 12.6237 16.523 11.871C15.3206 11.1183 13.8926 9.76344 12.2393 7.80645V13.2258L17.7791 15.4194C18.0368 15.5269 18.2515 15.6828 18.4233 15.8871C18.5951 16.0914 18.681 16.3441 18.681 16.6452C18.681 17.0753 18.5414 17.4086 18.2623 17.6452C17.9831 17.8817 17.6288 18 17.1994 18H7.92331V17.9355C7.92331 17.4409 8.05752 17.0591 8.32592 16.7903C8.59432 16.5215 8.97546 16.3871 9.46932 16.3871H13.7209C13.9141 16.3871 14.0698 16.328 14.1879 16.2097C14.306 16.0914 14.365 15.9355 14.365 15.7419C14.365 15.5484 14.306 15.3925 14.1879 15.2742C14.0698 15.1559 13.9141 15.0968 13.7209 15.0968H9.46932C8.6319 15.0968 7.95015 15.3602 7.42408 15.8871C6.89801 16.414 6.63497 17.0968 6.63497 17.9355V18H3.80061ZM9.03451 3.53226C8.63727 3.13441 8.43865 2.64516 8.43865 2.06452C8.43865 1.48387 8.63727 0.994624 9.03451 0.596774C9.43175 0.198925 9.92025 0 10.5 0C11.0798 0 11.5683 0.198925 11.9655 0.596774C12.3627 0.994624 12.5613 1.48387 12.5613 2.06452C12.5613 2.64516 12.3627 3.13441 11.9655 3.53226C11.5683 3.93011 11.0798 4.12903 10.5 4.12903C9.92025 4.12903 9.43175 3.93011 9.03451 3.53226Z" fill="#83B59F"/>
</svg>
