<svg width="14" height="18" viewBox="0 0 14 18" fill="none" xmlns="http://www.w3.org/2000/svg">
<path d="M2.04167 16.0441C0.680556 14.7402 0 13.1569 0 11.2941C0 9.7451 0.491228 8.36765 1.47368 7.16176C2.45614 5.95588 3.73538 5.16667 5.3114 4.79412C4.90205 4.71569 4.49781 4.59314 4.09868 4.42647C3.69956 4.2598 3.35673 4.03922 3.07018 3.76471C2.55848 3.27451 2.22588 2.69608 2.07237 2.02941C1.91886 1.36275 1.84211 0.686275 1.84211 0C2.51754 0 3.18787 0.0686275 3.85307 0.205882C4.51827 0.343137 5.10673 0.637255 5.61842 1.08824C6.08918 1.48039 6.42178 1.95588 6.61623 2.51471C6.81067 3.07353 6.92836 3.65686 6.9693 4.26471C7.21491 3.69608 7.5117 3.15686 7.85965 2.64706C8.2076 2.13725 8.61696 1.65686 9.08772 1.20588C9.16959 1.12745 9.27193 1.08824 9.39474 1.08824C9.51754 1.08824 9.61988 1.12745 9.70175 1.20588C9.78363 1.28431 9.82456 1.38235 9.82456 1.5C9.82456 1.61765 9.78363 1.71569 9.70175 1.79412C9.27193 2.20588 8.89327 2.64706 8.56579 3.11765C8.2383 3.58824 7.96199 4.08824 7.73684 4.61765C9.53801 4.79412 11.0322 5.51961 12.2193 6.79412C13.4064 8.06863 14 9.56863 14 11.2941C14 13.1569 13.3194 14.7402 11.9583 16.0441C10.5972 17.348 8.94444 18 7 18C5.05556 18 3.40278 17.348 2.04167 16.0441ZM11.3443 15.4559C12.5417 14.3088 13.1404 12.9216 13.1404 11.2941C13.1404 9.66667 12.5417 8.27941 11.3443 7.13235C10.1469 5.98529 8.69883 5.41176 7 5.41176C5.30117 5.41176 3.85307 5.98529 2.6557 7.13235C1.45833 8.27941 0.859649 9.66667 0.859649 11.2941C0.859649 12.9216 1.45833 14.3088 2.6557 15.4559C3.85307 16.6029 5.30117 17.1765 7 17.1765C8.69883 17.1765 10.1469 16.6029 11.3443 15.4559Z" fill="#83B59F"/>
</svg>
