<svg width="18" height="18" viewBox="0 0 18 18" fill="none" xmlns="http://www.w3.org/2000/svg">
<path d="M11.0455 7.94805C10.8506 7.75325 10.7532 7.51948 10.7532 7.24675C10.7532 6.97403 10.8506 6.74026 11.0455 6.54545C11.2403 6.35065 11.474 6.25325 11.7468 6.25325C12.0195 6.25325 12.2532 6.35065 12.4481 6.54545C12.6429 6.74026 12.7403 6.97403 12.7403 7.24675C12.7403 7.51948 12.6429 7.75325 12.4481 7.94805C12.2532 8.14286 12.0195 8.24026 11.7468 8.24026C11.474 8.24026 11.2403 8.14286 11.0455 7.94805ZM5.55195 7.94805C5.35714 7.75325 5.25974 7.51948 5.25974 7.24675C5.25974 6.97403 5.35714 6.74026 5.55195 6.54545C5.74675 6.35065 5.98052 6.25325 6.25325 6.25325C6.52597 6.25325 6.75974 6.35065 6.95455 6.54545C7.14935 6.74026 7.24675 6.97403 7.24675 7.24675C7.24675 7.51948 7.14935 7.75325 6.95455 7.94805C6.75974 8.14286 6.52597 8.24026 6.25325 8.24026C5.98052 8.24026 5.74675 8.14286 5.55195 7.94805ZM6.57468 13.0471C5.83442 12.6282 5.22078 12.0584 4.73377 11.3377H13.2662C12.7792 12.0584 12.1656 12.6282 11.4253 13.0471C10.6851 13.4659 9.87662 13.6753 9 13.6753C8.12338 13.6753 7.31493 13.4659 6.57468 13.0471ZM5.49351 17.2987C4.4026 16.8312 3.44805 16.1883 2.62987 15.3701C1.81169 14.5519 1.16883 13.5974 0.701299 12.5065C0.233766 11.4156 0 10.2468 0 9C0 7.75325 0.233766 6.58442 0.701299 5.49351C1.16883 4.4026 1.81169 3.44805 2.62987 2.62987C3.44805 1.81169 4.4026 1.16883 5.49351 0.701299C6.58442 0.233766 7.75325 0 9 0C10.2468 0 11.4156 0.233766 12.5065 0.701299C13.5974 1.16883 14.5519 1.81169 15.3701 2.62987C16.1883 3.44805 16.8312 4.4026 17.2987 5.49351C17.7662 6.58442 18 7.75325 18 9C18 10.2468 17.7662 11.4156 17.2987 12.5065C16.8312 13.5974 16.1883 14.5519 15.3701 15.3701C14.5519 16.1883 13.5974 16.8312 12.5065 17.2987C11.4156 17.7662 10.2468 18 9 18C7.75325 18 6.58442 17.7662 5.49351 17.2987ZM14.7857 14.7857C16.3831 13.1883 17.1818 11.2597 17.1818 9C17.1818 6.74026 16.3831 4.81169 14.7857 3.21429C13.1883 1.61688 11.2597 0.818182 9 0.818182C8.76623 0.818182 8.5276 0.827922 8.28409 0.847403C8.04058 0.866883 7.81169 0.896104 7.5974 0.935065C7.55844 1.09091 7.53896 1.21753 7.53896 1.31494V1.69481C7.53896 2.22078 7.7289 2.6737 8.10877 3.05357C8.48864 3.43344 8.94156 3.62338 9.46753 3.62338C9.7013 3.62338 9.87662 3.59416 9.99351 3.53571C10.1104 3.47727 10.2468 3.44805 10.4026 3.44805C10.5 3.44805 10.5828 3.48701 10.651 3.56493C10.7192 3.64286 10.7532 3.74026 10.7532 3.85714C10.7532 4.07143 10.6218 4.2224 10.3588 4.31006C10.0958 4.39773 9.7987 4.44156 9.46753 4.44156C8.70779 4.44156 8.06006 4.1737 7.52435 3.63799C6.98864 3.10227 6.72078 2.45455 6.72078 1.69481V1.43182C6.72078 1.3539 6.74026 1.25649 6.77922 1.13961C5.06493 1.60714 3.64286 2.55682 2.51299 3.98864C1.38312 5.42045 0.818182 7.09091 0.818182 9C0.818182 11.2597 1.61688 13.1883 3.21429 14.7857C4.81169 16.3831 6.74026 17.1818 9 17.1818C11.2597 17.1818 13.1883 16.3831 14.7857 14.7857Z" fill="#83B59F"/>
</svg>
