<svg width="14" height="18" viewBox="0 0 14 18" fill="none" xmlns="http://www.w3.org/2000/svg">
<path d="M0.636364 10.3937H3.36364C3.42424 10.3937 3.47727 10.4094 3.52273 10.4409C3.56818 10.4724 3.60606 10.5197 3.63636 10.5827L5.18182 13.748L8.54545 6.80315C8.60606 6.67717 8.70076 6.61417 8.82955 6.61417C8.95833 6.61417 9.05303 6.67717 9.11364 6.80315L10.8409 10.3937H13.3636C13.2879 8.62992 12.6326 7.14173 11.3977 5.92913C10.1629 4.71654 8.69697 4.11024 7 4.11024C5.30303 4.11024 3.83712 4.71654 2.60227 5.92913C1.36742 7.14173 0.712121 8.62992 0.636364 10.3937ZM11.3977 15.5197C12.6326 14.3071 13.2879 12.8189 13.3636 11.0551H10.6364C10.5758 11.0551 10.5227 11.0394 10.4773 11.0079C10.4318 10.9764 10.3939 10.9291 10.3636 10.8661L8.81818 7.70079L5.45455 14.6693C5.39394 14.7953 5.29924 14.8543 5.17045 14.8465C5.04167 14.8386 4.94697 14.7717 4.88636 14.6457L3.15909 11.0551H0.636364C0.712121 12.8189 1.36742 14.3071 2.60227 15.5197C3.83712 16.7323 5.30303 17.3386 7 17.3386C8.69697 17.3386 10.1629 16.7323 11.3977 15.5197ZM4.27273 17.4331C3.42424 17.0551 2.68182 16.5354 2.04545 15.874C1.40909 15.2126 0.909091 14.4409 0.545455 13.5591C0.181818 12.6772 0 11.7323 0 10.7244H0.636364C0.636364 12.5512 1.25758 14.1102 2.5 15.4016C3.74242 16.6929 5.24242 17.3386 7 17.3386C8.75758 17.3386 10.2576 16.6929 11.5 15.4016C12.7424 14.1102 13.3636 12.5512 13.3636 10.7244H14C14 11.7323 13.8182 12.6772 13.4545 13.5591C13.0909 14.4409 12.5909 15.2126 11.9545 15.874C11.3182 16.5354 10.5758 17.0551 9.72727 17.4331C8.87879 17.811 7.9697 18 7 18C6.0303 18 5.12121 17.811 4.27273 17.4331ZM0 10.7244C0 9.71654 0.181818 8.77165 0.545455 7.88976C0.909091 7.00787 1.40909 6.23622 2.04545 5.5748C2.68182 4.91339 3.42424 4.3937 4.27273 4.01575C5.12121 3.6378 6.0303 3.44882 7 3.44882C7.86364 3.44882 8.70076 3.61417 9.51136 3.94488C10.322 4.27559 11.0606 4.74016 11.7273 5.33858L12.6364 4.3937L13.0909 4.86614L12.1818 5.81102C12.7576 6.50394 13.2045 7.27165 13.5227 8.11417C13.8409 8.95669 14 9.82677 14 10.7244H13.3636C13.3636 8.89764 12.7424 7.33858 11.5 6.04724C10.2576 4.75591 8.75758 4.11024 7 4.11024C5.24242 4.11024 3.74242 4.75591 2.5 6.04724C1.25758 7.33858 0.636364 8.89764 0.636364 10.7244H0ZM4.72727 0.661417V0H9.27273V0.661417H4.72727ZM2.5 15.4016C1.25758 14.1102 0.636364 12.5512 0.636364 10.7244C0.636364 8.89764 1.25758 7.33858 2.5 6.04724C3.74242 4.75591 5.24242 4.11024 7 4.11024C8.75758 4.11024 10.2576 4.75591 11.5 6.04724C12.7424 7.33858 13.3636 8.89764 13.3636 10.7244C13.3636 12.5512 12.7424 14.1102 11.5 15.4016C10.2576 16.6929 8.75758 17.3386 7 17.3386C5.24242 17.3386 3.74242 16.6929 2.5 15.4016Z" fill="#83B59F"/>
</svg>
