<svg width="19" height="18" viewBox="0 0 19 18" fill="none" xmlns="http://www.w3.org/2000/svg">
<path d="M0 18V17.2387C0.936232 17.2387 1.8587 17.1934 2.76739 17.1027C3.67609 17.0121 4.57101 16.7946 5.45217 16.4502C5.67246 16.3595 5.77343 16.1918 5.75507 15.9471C5.73672 15.7024 5.5715 15.5438 5.25942 15.4713C4.37826 15.2719 3.64855 14.855 3.07029 14.2205C2.49203 13.5861 2.2029 12.8338 2.2029 11.9637V10.6042H5.72754C5.98454 10.6042 6.19565 10.5227 6.36087 10.3595C6.52609 10.1964 6.6087 9.98792 6.6087 9.73414V7.61329H9.33478C9.66522 7.61329 9.91763 7.48187 10.092 7.21903C10.2664 6.95619 10.2802 6.67976 10.1333 6.38973L7.21449 0.353474L7.9029 0L10.8493 6.09063C11.1063 6.63444 11.0787 7.15106 10.7667 7.64048C10.4546 8.12991 9.98647 8.37462 9.36232 8.37462H7.37971V9.89728C7.37971 10.3142 7.23744 10.6631 6.9529 10.9441C6.66836 11.2251 6.31498 11.3656 5.89275 11.3656H2.97391V12.0181C2.97391 12.6888 3.20797 13.2644 3.67609 13.7447C4.1442 14.2251 4.71787 14.5468 5.3971 14.71L5.72754 14.7915C6.2599 14.9366 6.53986 15.3172 6.56739 15.9335C6.59493 16.5498 6.3058 16.9668 5.7 17.1843C4.78213 17.5287 3.84589 17.7508 2.8913 17.8505C1.93671 17.9502 0.972947 18 0 18ZM13.7957 15.5257L13.2449 14.9819C13.7222 14.5106 14.0848 13.9804 14.3326 13.3912C14.5804 12.8021 14.7043 12.1903 14.7043 11.5559C14.7043 10.9215 14.5804 10.3097 14.3326 9.72054C14.0848 9.13142 13.7222 8.60121 13.2449 8.12991L13.7957 7.5861C14.328 8.11178 14.7411 8.7145 15.0348 9.39426C15.3285 10.074 15.4754 10.7946 15.4754 11.5559C15.4754 12.3172 15.3285 13.0378 15.0348 13.7175C14.7411 14.3973 14.328 15 13.7957 15.5257ZM16.3014 18L15.7507 17.4562C16.5585 16.6586 17.1734 15.7568 17.5957 14.7508C18.0179 13.7447 18.229 12.6798 18.229 11.5559C18.229 10.432 18.0179 9.36707 17.5957 8.36103C17.1734 7.35499 16.5585 6.45317 15.7507 5.65559L16.3014 5.11178C17.1826 5.98187 17.8527 6.96979 18.3116 8.07553C18.7705 9.18127 19 10.3414 19 11.5559C19 12.7704 18.7705 13.9305 18.3116 15.0363C17.8527 16.142 17.1826 17.1299 16.3014 18Z" fill="#83B59F"/>
</svg>
