<svg width="21" height="18" viewBox="0 0 21 18" fill="none" xmlns="http://www.w3.org/2000/svg">
<path d="M10.5 18L9.83621 17.4118C7.88506 15.6667 6.27083 14.1765 4.99353 12.9412C3.71624 11.7059 2.71049 10.6225 1.97629 9.69118C1.2421 8.7598 0.729167 7.92157 0.4375 7.17647C0.145833 6.43137 0 5.68627 0 4.94118C0 3.54902 0.487787 2.37745 1.46336 1.42647C2.43894 0.47549 3.6408 0 5.06897 0C6.13506 0 7.13075 0.279412 8.05603 0.838235C8.98132 1.39706 9.79598 2.21569 10.5 3.29412C11.204 2.21569 12.0187 1.39706 12.944 0.838235C13.8693 0.279412 14.8649 0 15.931 0C17.3592 0 18.5611 0.47549 19.5366 1.42647C20.5122 2.37745 21 3.54902 21 4.94118C21 5.68627 20.8542 6.43137 20.5625 7.17647C20.2708 7.92157 19.7579 8.7598 19.0237 9.69118C18.2895 10.6225 17.2888 11.7059 16.0216 12.9412C14.7543 14.1765 13.1351 15.6667 11.1638 17.4118L10.5 18ZM10.5 16.8824C12.431 15.1765 14.0201 13.7157 15.2672 12.5C16.5144 11.2843 17.5 10.2304 18.2241 9.33824C18.9483 8.44608 19.4511 7.65686 19.7328 6.97059C20.0144 6.28431 20.1552 5.60784 20.1552 4.94118C20.1552 3.76471 19.7529 2.78431 18.9483 2C18.1437 1.21569 17.1379 0.823529 15.931 0.823529C14.9655 0.823529 14.0754 1.09314 13.2608 1.63235C12.4461 2.17157 11.6667 3.01961 10.9224 4.17647H10.0776C9.31322 3 8.52874 2.14706 7.72414 1.61765C6.91954 1.08824 6.03448 0.823529 5.06897 0.823529C3.88218 0.823529 2.88147 1.21569 2.06681 2C1.25216 2.78431 0.844828 3.76471 0.844828 4.94118C0.844828 5.60784 0.985632 6.28431 1.26724 6.97059C1.54885 7.65686 2.05172 8.44608 2.77586 9.33824C3.5 10.2304 4.48563 11.2794 5.73276 12.4853C6.97988 13.6912 8.56897 15.1569 10.5 16.8824Z" fill="#83B59F"/>
</svg>
