<svg width="17" height="18" viewBox="0 0 17 18" fill="none" xmlns="http://www.w3.org/2000/svg">
<path d="M15.3832 11.52V4.656L10.0098 0.864L4.63636 4.656V7.584H3.97063V4.344L10.0098 0L16.049 4.344V11.52H15.3832ZM10.6042 5.352H11.3175V4.632H10.6042V5.352ZM8.7021 5.352H9.41538V4.632H8.7021V5.352ZM10.6042 7.272H11.3175V6.552H10.6042V7.272ZM8.7021 7.272H9.41538V6.552H8.7021V7.272ZM3.23357 15.072L10.6042 17.28L16.3105 15.504C16.3105 15.168 16.2327 14.932 16.0772 14.796C15.9219 14.66 15.746 14.592 15.5497 14.592H11.1244C10.7301 14.592 10.3585 14.576 10.0098 14.544C9.66107 14.512 9.30443 14.432 8.93986 14.304L6.8951 13.632L7.15664 12.96L9.08252 13.68C9.39953 13.808 9.75618 13.88 10.1524 13.896C10.5487 13.912 11.0797 13.92 11.7455 13.92C11.7455 13.584 11.69 13.32 11.579 13.128C11.4681 12.936 11.3016 12.8 11.0797 12.72L5.63497 10.704C5.58741 10.688 5.54382 10.676 5.5042 10.668C5.46457 10.66 5.42098 10.656 5.37343 10.656H3.23357V15.072ZM0 16.992V9.984H5.34537C5.42748 9.984 5.51291 9.9936 5.60168 10.0128C5.69044 10.032 5.77287 10.0544 5.84895 10.08L11.3175 12.096C11.6028 12.208 11.8564 12.412 12.0783 12.708C12.3002 13.004 12.4112 13.408 12.4112 13.92H15.5497C16.0569 13.92 16.4254 14.076 16.6552 14.388C16.8851 14.7 17 15.088 17 15.552V16.032L10.6517 18L3.23357 15.792V16.992H0ZM0.665734 16.32H2.56783V10.656H0.665734V16.32Z" fill="#83B59F"/>
</svg>
