<svg width="18" height="18" viewBox="0 0 18 18" fill="none" xmlns="http://www.w3.org/2000/svg">
<path d="M17.5345 11.1983L11.1983 17.5345C11.0407 17.6897 10.8634 17.806 10.6663 17.8836C10.4692 17.9612 10.2737 18 10.0797 18C9.88578 18 9.69181 17.9612 9.49785 17.8836C9.30388 17.806 9.12931 17.6897 8.97414 17.5345L0.465517 9.05172C0.310345 8.91379 0.193966 8.74759 0.116379 8.5531C0.0387931 8.35862 0 8.15414 0 7.93966V1.57759C0 1.14379 0.150862 0.772413 0.452586 0.463448C0.75431 0.154482 1.12931 0 1.57759 0H7.93966C8.14776 0 8.3494 0.0419826 8.54457 0.125948C8.73957 0.210086 8.90862 0.323276 9.05172 0.465517L17.5345 8.94828C17.6964 9.10586 17.8145 9.28319 17.8888 9.48026C17.9629 9.67733 18 9.87603 18 10.0764C18 10.2767 17.9629 10.4737 17.8888 10.6673C17.8145 10.8609 17.6964 11.0379 17.5345 11.1983ZM10.681 17.0172L17.0172 10.681C17.1897 10.5086 17.2759 10.306 17.2759 10.0733C17.2759 9.84052 17.1897 9.63793 17.0172 9.46552L8.27586 0.75H1.57759C1.33621 0.75 1.13362 0.827586 0.969828 0.982759C0.806035 1.13793 0.724138 1.33621 0.724138 1.57759V7.93966C0.724138 8.0431 0.741379 8.14655 0.775862 8.25C0.810345 8.35345 0.87069 8.44828 0.956897 8.53448L9.46552 17.0172C9.63793 17.1897 9.84052 17.2759 10.0733 17.2759C10.306 17.2759 10.5086 17.1897 10.681 17.0172ZM3.37733 4.26724C3.62578 4.26724 3.83621 4.18172 4.00862 4.01069C4.18103 3.83983 4.26724 3.63224 4.26724 3.38793C4.26724 3.13655 4.18172 2.92285 4.01069 2.74681C3.83983 2.57078 3.63224 2.48276 3.38793 2.48276C3.13655 2.48276 2.92285 2.56974 2.74681 2.74371C2.57078 2.91767 2.48276 3.12888 2.48276 3.37733C2.48276 3.62578 2.56974 3.83621 2.74371 4.00862C2.91767 4.18103 3.12888 4.26724 3.37733 4.26724Z" fill="#83B59F"/>
</svg>
