<svg width="25" height="18" viewBox="0 0 25 18" fill="none" xmlns="http://www.w3.org/2000/svg">
<path d="M4.81057 17.0765C4.19631 16.4608 3.88918 15.7164 3.88918 14.8433H1.00773L1.20876 13.903H4.0232C4.22423 13.2537 4.59837 12.722 5.14562 12.3078C5.69287 11.8937 6.32388 11.6866 7.03866 11.6866C7.75344 11.6866 8.38445 11.8937 8.9317 12.3078C9.47895 12.722 9.85309 13.2537 10.0541 13.903H16.4201L19.4021 0.940299H4.7268C4.77148 0.671642 4.89991 0.447761 5.11211 0.268657C5.32431 0.0895522 5.5756 0 5.86598 0H20.5747L19.5361 4.5H21.982L25.5 9.20149L24.3943 14.8433H23.1881C23.1881 15.7164 22.881 16.4608 22.2668 17.0765C21.6525 17.6922 20.9098 18 20.0387 18C19.1675 18 18.4248 17.6922 17.8106 17.0765C17.1963 16.4608 16.8892 15.7164 16.8892 14.8433H10.1881C10.1881 15.7164 9.88101 16.4608 9.26675 17.0765C8.65249 17.6922 7.90979 18 7.03866 18C6.16753 18 5.42483 17.6922 4.81057 17.0765ZM18.0619 10.7799H24.2268L24.4948 9.43657L21.5129 5.4403H19.3015L18.0619 10.7799ZM19 2.6194L19.4021 0.940299L16.4201 13.903L16.8222 12.2239L17.8608 7.58955L19 2.6194ZM-0.5 10.209L-0.265464 9.26866H5.3299L5.09536 10.209H-0.5ZM2.18041 5.57463L2.41495 4.63433H9.35051L9.11598 5.57463H2.18041ZM7.03866 17.0597C7.64175 17.0597 8.16108 16.8414 8.59665 16.4049C9.03222 15.9683 9.25 15.4478 9.25 14.8433C9.25 14.2388 9.03222 13.7183 8.59665 13.2817C8.16108 12.8451 7.64175 12.6269 7.03866 12.6269C6.43557 12.6269 5.91624 12.8451 5.48067 13.2817C5.0451 13.7183 4.82732 14.2388 4.82732 14.8433C4.82732 15.4478 5.0451 15.9683 5.48067 16.4049C5.91624 16.8414 6.43557 17.0597 7.03866 17.0597ZM20.0387 17.0597C20.6418 17.0597 21.1611 16.8414 21.5966 16.4049C22.0322 15.9683 22.25 15.4478 22.25 14.8433C22.25 14.2388 22.0322 13.7183 21.5966 13.2817C21.1611 12.8451 20.6418 12.6269 20.0387 12.6269C19.4356 12.6269 18.9162 12.8451 18.4807 13.2817C18.0451 13.7183 17.8273 14.2388 17.8273 14.8433C17.8273 15.4478 18.0451 15.9683 18.4807 16.4049C18.9162 16.8414 19.4356 17.0597 20.0387 17.0597Z" fill="#83B59F"/>
</svg>
