<svg width="19" height="18" viewBox="0 0 19 18" fill="none" xmlns="http://www.w3.org/2000/svg">
<path d="M9.15722 18V14.2606C8.48797 14.6942 7.78494 15.0542 7.04812 15.3406C6.31113 15.6271 5.53693 15.7703 4.72552 15.7703C3.84407 15.7703 2.99527 15.6232 2.17912 15.329C1.36297 15.0348 0.636598 14.6013 0 14.0284C0.685567 13.5019 1.43235 13.0839 2.24034 12.7742C3.04832 12.4645 3.89304 12.3019 4.77448 12.2865C4.41538 12.1626 4.07668 12.0116 3.75838 11.8335C3.44008 11.6555 3.14218 11.4426 2.86469 11.1948C2.03222 10.4516 1.37113 9.58839 0.881443 8.60516C0.391753 7.62194 0.146907 6.58839 0.146907 5.50452C1.37113 5.58194 2.54639 5.82581 3.67268 6.23613C4.79897 6.64645 5.80283 7.26194 6.68428 8.08258C6.61899 7.81935 6.57002 7.56 6.53737 7.30452C6.50472 7.04903 6.4884 6.78968 6.4884 6.52645C6.4884 5.28015 6.76997 4.10926 7.33312 3.01378C7.89626 1.91814 8.61856 0.913548 9.5 0C10.3488 0.929032 11.0629 1.93889 11.6424 3.02957C12.2219 4.12026 12.5116 5.28588 12.5116 6.52645C12.5116 6.78457 12.4953 7.04261 12.4626 7.30057C12.43 7.55868 12.3729 7.81161 12.2912 8.05935C13.1727 7.23871 14.1888 6.6271 15.3396 6.22452C16.4903 5.82194 17.6778 5.58194 18.9021 5.50452C18.9021 6.60387 18.645 7.64129 18.1308 8.61677C17.6166 9.59226 16.9433 10.4516 16.1108 11.1948C15.8333 11.4271 15.5354 11.6361 15.2171 11.8219C14.8988 12.0077 14.5683 12.1626 14.2255 12.2865C15.107 12.3019 15.9517 12.4684 16.7597 12.7858C17.5677 13.1032 18.3144 13.5174 19 14.0284C18.3471 14.5858 17.6125 15.0155 16.7964 15.3174C15.9802 15.6194 15.1314 15.7703 14.25 15.7703C13.4502 15.7703 12.6871 15.6232 11.9607 15.329C11.2343 15.0348 10.5284 14.6865 9.84278 14.2839V18H9.15722ZM8.25129 12.6581C8.07174 11.8684 7.81465 11.0981 7.48003 10.3471C7.1454 9.59613 6.66796 8.94968 6.04768 8.40774C5.31314 7.78839 4.50515 7.30065 3.62371 6.94452C2.74227 6.58839 1.82002 6.34839 0.856959 6.22452C1.00387 7.09161 1.28544 7.91226 1.70168 8.68645C2.11791 9.46065 2.67085 10.1419 3.3605 10.7303C4.02567 11.3187 4.78265 11.7523 5.63144 12.031C6.48024 12.3097 7.35352 12.5187 8.25129 12.6581ZM4.71327 15.12C5.34171 15.12 5.95382 15.0271 6.54961 14.8413C7.1454 14.6555 7.70447 14.4077 8.2268 14.0981C7.68015 13.7884 7.11904 13.5174 6.54349 13.2852C5.96811 13.0529 5.36268 12.9368 4.72723 12.9368C4.09194 12.9368 3.47166 13.0374 2.8664 13.2387C2.26131 13.44 1.68943 13.711 1.15077 14.0516C1.68943 14.3768 2.26074 14.6361 2.86469 14.8297C3.46864 15.0232 4.08484 15.12 4.71327 15.12ZM9.5 12.1006C10.1203 11.249 10.663 10.3607 11.1282 9.43572C11.5934 8.51071 11.826 7.54095 11.826 6.52645C11.826 5.51195 11.5934 4.54219 11.1282 3.61719C10.663 2.69218 10.1203 1.81161 9.5 0.975484C8.84708 1.81161 8.29618 2.69218 7.84729 3.61719C7.39841 4.54219 7.17397 5.51195 7.17397 6.52645C7.17397 7.54839 7.40249 8.52387 7.85954 9.4529C8.31658 10.3819 8.8634 11.2645 9.5 12.1006ZM10.7242 12.6581C11.622 12.5187 12.4953 12.3097 13.3441 12.031C14.1929 11.7523 14.9498 11.3187 15.615 10.7303C16.3047 10.1419 16.8576 9.46065 17.2738 8.68645C17.6901 7.91226 17.9798 7.09161 18.143 6.22452C17.1637 6.34839 16.2332 6.58452 15.3518 6.9329C14.4704 7.28129 13.6624 7.7729 12.9278 8.40774C12.2912 8.94968 11.8097 9.59613 11.4832 10.3471C11.1568 11.0981 10.9038 11.8684 10.7242 12.6581ZM14.2622 15.12C14.8907 15.12 15.511 15.031 16.1231 14.8529C16.7352 14.6748 17.3106 14.4232 17.8492 14.0981C17.2942 13.7729 16.7189 13.4981 16.1231 13.2735C15.5273 13.049 14.9029 12.9368 14.25 12.9368C13.6318 12.9368 13.0285 13.0529 12.4399 13.2852C11.8511 13.5174 11.2955 13.7884 10.7732 14.0981C11.2955 14.4077 11.8505 14.6555 12.4381 14.8413C13.0258 15.0271 13.6338 15.12 14.2622 15.12Z" fill="#83B59F"/>
</svg>
