<svg width="18" height="18" viewBox="0 0 18 18" fill="none" xmlns="http://www.w3.org/2000/svg">
<path d="M0 18V17.1818H15.6623V18H0ZM3.36039 13.6753C2.42532 13.6753 1.63149 13.3636 0.978896 12.7403C0.326299 12.1169 0 11.3571 0 10.461V0H16.1299C16.6442 0 17.0844 0.170455 17.4506 0.511364C17.8169 0.852273 18 1.27597 18 1.78247V4.12013C18 4.62662 17.8169 5.05032 17.4506 5.39123C17.0844 5.73214 16.6442 5.9026 16.1299 5.9026H13.7922V10.461C13.7922 11.3571 13.4659 12.1169 12.8133 12.7403C12.1607 13.3636 11.3669 13.6753 10.4318 13.6753H3.36039ZM3.36039 0.818182H12.974H0.818182H3.36039ZM13.7922 5.08442H16.1299C16.4221 5.08442 16.6705 4.99188 16.875 4.80682C17.0795 4.62175 17.1818 4.39286 17.1818 4.12013V1.78247C17.1818 1.50974 17.0795 1.28084 16.875 1.09578C16.6705 0.910714 16.4221 0.818182 16.1299 0.818182H13.7922V5.08442ZM10.4318 12.8571C11.131 12.8571 11.7294 12.6213 12.2271 12.1497C12.7251 11.6783 12.974 11.1115 12.974 10.4494V0.818182H5.31818V2.45455L7.01299 3.85714C7.05195 3.8961 7.12987 4.05195 7.24675 4.32468V7.42208C7.24675 7.57792 7.18831 7.71429 7.07143 7.83117C6.95455 7.94805 6.81818 8.00649 6.66234 8.00649H3.15584C3 8.00649 2.86364 7.94805 2.74675 7.83117C2.62987 7.71429 2.57143 7.57792 2.57143 7.42208V4.32468C2.57143 4.28571 2.64935 4.12987 2.80519 3.85714L4.5 2.45455V0.818182H0.818182V10.4494C0.818182 11.1115 1.06714 11.6783 1.56506 12.1497C2.06279 12.6213 2.66123 12.8571 3.36039 12.8571H10.4318Z" fill="#83B59F"/>
</svg>
