<svg width="16" height="18" viewBox="0 0 16 18" fill="none" xmlns="http://www.w3.org/2000/svg">
<path d="M2.85714 18V9.36207C1.92208 9.12069 1.21212 8.72845 0.727273 8.18535C0.242424 7.64224 0 6.9569 0 6.12931V0H0.727273V5.76724H2.85714V0H3.58442V5.76724H5.71429V0H6.44156V6.12931C6.44156 6.9569 6.19913 7.64224 5.71429 8.18535C5.22944 8.72845 4.51948 9.12069 3.58442 9.36207V18H2.85714ZM12.3896 18V9.02586C11.4545 8.69828 10.7446 8.15086 10.2597 7.38362C9.77489 6.61638 9.53247 5.66379 9.53247 4.52586C9.53247 3.28448 9.84848 2.21983 10.4805 1.3319C11.1126 0.443966 11.8701 0 12.7532 0C13.6537 0 14.4199 0.443966 15.0519 1.3319C15.684 2.21983 16 3.28448 16 4.52586C16 5.68103 15.7532 6.64224 15.2597 7.40948C14.7662 8.17672 14.0519 8.71552 13.1169 9.02586V18H12.3896Z" fill="#83B59F"/>
</svg>
