<svg width="21" height="18" viewBox="0 0 21 18" fill="none" xmlns="http://www.w3.org/2000/svg">
<path d="M19.7931 7.76048V16.3832C19.7931 16.8503 19.6354 17.2365 19.3201 17.5419C19.0047 17.8473 18.6059 18 18.1237 18H2.87634C2.39406 18 1.99526 17.8473 1.67993 17.5419C1.36459 17.2365 1.20692 16.8503 1.20692 16.3832V7.70659C0.72465 7.38323 0.376855 6.95659 0.163541 6.42665C-0.0497733 5.89671 -0.0544106 5.33533 0.149629 4.74251L1.20692 1.34731C1.35532 0.916168 1.58718 0.583832 1.90251 0.350299C2.21785 0.116766 2.61665 0 3.09893 0H17.8454C18.3277 0 18.7265 0.107784 19.0418 0.323353C19.3572 0.538922 19.589 0.862275 19.7374 1.29341L20.8504 4.74251C21.0544 5.33533 21.0498 5.90569 20.8365 6.45359C20.6231 7.0015 20.2754 7.43713 19.7931 7.76048ZM12.9485 7.54491C13.7275 7.54491 14.3072 7.34281 14.6874 6.93862C15.0677 6.53443 15.23 6.12575 15.1744 5.71257L14.3953 0.754491H10.8895V5.44311C10.8895 6.01796 11.0936 6.51198 11.5016 6.92515C11.9097 7.33832 12.392 7.54491 12.9485 7.54491ZM7.94023 7.54491C8.58945 7.54491 9.11346 7.33832 9.51226 6.92515C9.91107 6.51198 10.1105 6.01796 10.1105 5.44311V0.754491H6.6047L5.82564 5.82036C5.78854 6.12575 5.95548 6.48952 6.32646 6.91168C6.69744 7.33383 7.23537 7.54491 7.94023 7.54491ZM2.98763 7.54491C3.52556 7.54491 3.98001 7.36976 4.35099 7.01946C4.72197 6.66916 4.95383 6.23353 5.04658 5.71257L5.76999 0.754491H3.09893C2.78359 0.754491 2.53318 0.821856 2.34769 0.956587C2.1622 1.09132 2.02308 1.29341 1.93034 1.56287L0.928689 4.90419C0.72465 5.53293 0.80812 6.13024 1.1791 6.69611C1.55008 7.26198 2.15293 7.54491 2.98763 7.54491ZM18.0124 7.54491C18.7172 7.54491 19.2923 7.27994 19.7374 6.75C20.1826 6.22006 20.2939 5.60479 20.0713 4.90419L19.014 1.50898C18.9213 1.23952 18.7822 1.04641 18.5967 0.929641C18.4112 0.812874 18.1608 0.754491 17.8454 0.754491H15.23L15.9534 5.71257C16.0462 6.23353 16.278 6.66916 16.649 7.01946C17.02 7.36976 17.4744 7.54491 18.0124 7.54491ZM2.87634 17.2455H18.1237C18.3833 17.2455 18.5967 17.1647 18.7636 17.003C18.9305 16.8413 19.014 16.6347 19.014 16.3832V8.13772C18.8471 8.19162 18.6801 8.23204 18.5132 8.25898C18.3463 8.28593 18.1793 8.2994 18.0124 8.2994C17.5115 8.2994 17.071 8.2006 16.6907 8.00299C16.3105 7.80539 15.9534 7.49102 15.6195 7.05988C15.3413 7.41916 14.9889 7.71557 14.5622 7.9491C14.1356 8.18263 13.5977 8.2994 12.9485 8.2994C12.5218 8.2994 12.1138 8.19611 11.7242 7.98952C11.3347 7.78293 10.9266 7.47305 10.5 7.05988C10.1105 7.47305 9.68384 7.78293 9.22012 7.98952C8.75639 8.19611 8.32976 8.2994 7.94023 8.2994C7.49505 8.2994 7.04988 8.21407 6.6047 8.04341C6.15952 7.87275 5.76999 7.54491 5.43611 7.05988C4.84254 7.63473 4.33708 7.98503 3.91972 8.11078C3.50237 8.23653 3.19167 8.2994 2.98763 8.2994C2.82069 8.2994 2.65375 8.28593 2.48681 8.25898C2.31987 8.23204 2.15293 8.19162 1.98599 8.13772V16.3832C1.98599 16.6347 2.06946 16.8413 2.2364 17.003C2.40334 17.1647 2.61665 17.2455 2.87634 17.2455Z" fill="#83B59F"/>
</svg>
