<svg width="18" height="18" viewBox="0 0 18 18" fill="none" xmlns="http://www.w3.org/2000/svg">
<path d="M0.818182 4.03247V16.2468C0.818182 16.5195 0.905844 16.7435 1.08117 16.9188C1.25649 17.0942 1.48052 17.1818 1.75325 17.1818H16.2468C16.5195 17.1818 16.7435 17.0942 16.9188 16.9188C17.0942 16.7435 17.1818 16.5195 17.1818 16.2468V4.03247H12.1558V11.5422L9 9.96429L5.84416 11.5422V4.03247H0.818182ZM1.75325 18C1.26623 18 0.852273 17.8295 0.511364 17.4886C0.170455 17.1477 0 16.7338 0 16.2468V4.06169C0 3.8474 0.0340909 3.64773 0.102273 3.46266C0.170455 3.2776 0.272727 3.10714 0.409091 2.9513L2.33766 0.642857C2.49351 0.428571 2.68831 0.267857 2.92208 0.160714C3.15584 0.0535714 3.40909 0 3.68182 0H14.2597C14.5325 0 14.7906 0.0535714 15.0341 0.160714C15.2776 0.267857 15.4773 0.428571 15.6331 0.642857L17.5909 3.00974C17.7273 3.16558 17.8295 3.34091 17.8977 3.53571C17.9659 3.73052 18 3.93506 18 4.14935V16.2468C18 16.7338 17.8295 17.1477 17.4886 17.4886C17.1477 17.8295 16.7338 18 16.2468 18H1.75325ZM1.25649 3.21429H16.7143L14.9903 1.13961C14.8929 1.04221 14.7808 0.964286 14.6542 0.905844C14.5276 0.847403 14.3961 0.818182 14.2597 0.818182H3.71104C3.57468 0.818182 3.44318 0.847403 3.31656 0.905844C3.18993 0.964286 3.07792 1.04221 2.98052 1.13961L1.25649 3.21429ZM6.66234 4.03247V10.1981L9 9.02922L11.3377 10.1981V4.03247H6.66234Z" fill="#83B59F"/>
</svg>
