<svg width="18" height="18" viewBox="0 0 18 18" fill="none" xmlns="http://www.w3.org/2000/svg">
<path d="M13.1379 18C11.7931 18 10.6466 17.5259 9.69828 16.5776C8.75 15.6293 8.27586 14.4828 8.27586 13.1379C8.27586 11.7931 8.75 10.6466 9.69828 9.69828C10.6466 8.75 11.7931 8.27586 13.1379 8.27586C14.4828 8.27586 15.6293 8.75 16.5776 9.69828C17.5259 10.6466 18 11.7931 18 13.1379C18 14.4828 17.5259 15.6293 16.5776 16.5776C15.6293 17.5259 14.4828 18 13.1379 18ZM13.1379 17.2759C14.2759 17.2759 15.25 16.8707 16.0603 16.0603C16.8707 15.25 17.2759 14.2759 17.2759 13.1379C17.2759 12 16.8707 11.0259 16.0603 10.2155C15.25 9.40517 14.2759 9 13.1379 9C12 9 11.0259 9.40517 10.2155 10.2155C9.40517 11.0259 9 12 9 13.1379C9 14.2759 9.40517 15.25 10.2155 16.0603C11.0259 16.8707 12 17.2759 13.1379 17.2759ZM1.55172 15.931C1.10345 15.931 0.732759 15.7845 0.439655 15.4914C0.146552 15.1983 0 14.8276 0 14.3793V7.5C0 7.36207 0.0301724 7.19828 0.0905172 7.00862C0.150862 6.81897 0.206897 6.65517 0.258621 6.51724L2.63793 1.24138H1.60345C1.39655 1.24138 1.24138 1.18966 1.13793 1.08621C1.03448 0.982759 0.982759 0.827586 0.982759 0.62069C0.982759 0.413793 1.03448 0.258621 1.13793 0.155172C1.24138 0.0517241 1.39655 0 1.60345 0H7.08621C7.2931 0 7.44828 0.0517241 7.55172 0.155172C7.65517 0.258621 7.7069 0.413793 7.7069 0.62069C7.7069 0.827586 7.65517 0.982759 7.55172 1.08621C7.44828 1.18966 7.2931 1.24138 7.08621 1.24138H6.05172L8.89655 7.65517C8.81035 7.7069 8.71983 7.77586 8.625 7.86207C8.53017 7.94828 8.43103 8.0431 8.32759 8.14655L5.27586 1.24138H3.41379L0.724138 7.26724V14.3793C0.724138 14.6207 0.801724 14.819 0.956897 14.9741C1.11207 15.1293 1.31034 15.2069 1.55172 15.2069H6.51724C6.55172 15.3448 6.59483 15.4741 6.64655 15.5948C6.69828 15.7155 6.75 15.8276 6.80172 15.931H1.55172ZM13.1379 6.72414C12.7759 6.56897 12.4784 6.3319 12.2457 6.01293C12.0129 5.69397 11.8966 5.32759 11.8966 4.91379C11.8966 4.5 12.0129 4.13362 12.2457 3.81466C12.4784 3.49569 12.7759 3.25862 13.1379 3.10345V6.72414C13.2931 6.36207 13.5302 6.06466 13.8491 5.8319C14.1681 5.59914 14.5345 5.48276 14.9483 5.48276C15.3621 5.48276 15.7284 5.59914 16.0474 5.8319C16.3664 6.06466 16.6034 6.36207 16.7586 6.72414H13.1379Z" fill="#83B59F"/>
</svg>
