<svg width="17" height="18" viewBox="0 0 17 18" fill="none" xmlns="http://www.w3.org/2000/svg">
<path d="M0 18V17.2759H1.63262V13.5776C1.09705 13.4741 0.691057 13.2457 0.414634 12.8922C0.138211 12.5388 0 12.1207 0 11.6379V4.81034H3.99085V11.6379C3.99085 12.0862 3.84832 12.4957 3.56326 12.8664C3.2782 13.2371 2.87652 13.4741 2.35823 13.5776V17.2759H3.99085V18H0ZM0.72561 9.23276H3.26524V5.53448H0.72561V9.23276ZM1.99543 12.9052C2.34096 12.9052 2.63897 12.7802 2.88948 12.5302C3.13999 12.2802 3.26524 11.9828 3.26524 11.6379V9.9569H0.72561V11.6379C0.72561 11.9828 0.850864 12.2802 1.10137 12.5302C1.35188 12.7802 1.6499 12.9052 1.99543 12.9052ZM8.91463 18C8.71509 18 8.54431 17.9291 8.4023 17.7872C8.26012 17.6454 8.18902 17.475 8.18902 17.2759V7.21552C8.18902 7.06155 8.24085 6.92397 8.34451 6.80276C8.44817 6.68138 8.56911 6.59483 8.70732 6.5431L9.69207 6.15517C10.2104 5.96552 10.6164 5.71983 10.9101 5.4181C11.2038 5.11638 11.3506 4.60345 11.3506 3.87931V0.728793C11.3506 0.518793 11.4201 0.344828 11.5592 0.206897C11.6983 0.0689655 11.8706 0 12.0762 0H13.1128C13.3184 0 13.4907 0.0693962 13.6298 0.208189C13.7689 0.346982 13.8384 0.518966 13.8384 0.724138V3.87931C13.8384 4.60345 13.9896 5.11638 14.2919 5.4181C14.5943 5.71983 15.0046 5.96552 15.5229 6.15517L16.5335 6.5431C16.6717 6.59621 16.784 6.68319 16.8704 6.80405C16.9568 6.92509 17 7.06224 17 7.21552V17.2759C17 17.475 16.929 17.6454 16.787 17.7872C16.6448 17.9291 16.4739 18 16.2744 18H8.91463ZM12.0762 1.88793H13.1128V0.724138H12.0762V1.88793ZM8.91463 9.80172H16.2744V7.21552L15.2637 6.82759C14.6072 6.58621 14.0846 6.26293 13.6959 5.85776C13.3072 5.45259 13.1128 4.7931 13.1128 3.87931V2.61207H12.0762V3.87931C12.0762 4.7931 11.8819 5.45259 11.4931 5.85776C11.1044 6.26293 10.5818 6.58621 9.9253 6.82759L8.91463 7.21552V9.80172ZM8.91463 17.2759H16.2744V14.2759H8.91463V17.2759ZM8.91463 13.5517H16.2744V10.5259H8.91463V13.5517Z" fill="#83B59F"/>
</svg>
