<svg width="17" height="18" viewBox="0 0 17 18" fill="none" xmlns="http://www.w3.org/2000/svg">
<path d="M0 18V0L1.32468 0.857143L2.75974 0L4.19481 0.857143L5.62987 0L7.06494 0.857143L8.5 0L9.93507 0.857143L11.3701 0L12.8052 0.857143L14.2403 0L15.6753 0.857143L17 0V18L15.6753 17.1429L14.2403 18L12.8052 17.1429L11.3701 18L9.93507 17.1429L8.5 18L7.06494 17.1429L5.62987 18L4.19481 17.1429L2.75974 18L1.32468 17.1429L0 18ZM2.59416 12.8036H14.4058V12.0536H2.59416V12.8036ZM2.59416 9.375H14.4058V8.625H2.59416V9.375ZM2.59416 5.94643H14.4058V5.19643H2.59416V5.94643ZM0.772727 16.6071H16.2273V1.39286H0.772727V16.6071Z" fill="#83B59F"/>
</svg>
