<svg width="21" height="18" viewBox="0 0 21 18" fill="none" xmlns="http://www.w3.org/2000/svg">
<path d="M0.8 14.4913V5.81933V6.41838V0.798732V14.4913ZM0.8 4.27892H19.0857V1.71157C19.0857 1.48336 18.9905 1.27417 18.8 1.08399C18.6095 0.893819 18.4 0.798732 18.1714 0.798732H1.71429C1.48571 0.798732 1.27619 0.893819 1.08571 1.08399C0.895238 1.27417 0.8 1.48336 0.8 1.71157V4.27892ZM9 15.29H1.71429C1.21905 15.29 0.809524 15.1284 0.485714 14.8051C0.161905 14.4818 0 14.0729 0 13.5784V1.71157C0 1.21712 0.161905 0.808241 0.485714 0.484945C0.809524 0.161648 1.21905 0 1.71429 0H18.1714C18.6667 0 19.0762 0.161648 19.4 0.484945C19.7238 0.808241 19.8857 1.21712 19.8857 1.71157V6.81775C19.3143 6.49445 18.7143 6.24723 18.0857 6.07607C17.4571 5.90491 16.8095 5.81933 16.1429 5.81933C15.6286 5.81933 15.119 5.87163 14.6143 5.97623C14.1095 6.08082 13.619 6.23772 13.1429 6.44691H0.8V13.5784C0.8 13.8067 0.895238 14.0158 1.08571 14.206C1.27619 14.3962 1.48571 14.4913 1.71429 14.4913H8.82857C8.86667 14.6434 8.89524 14.7813 8.91429 14.9049C8.93333 15.0285 8.9619 15.1569 9 15.29ZM18.3143 15.8891L18.8857 15.3185L16.7143 13.1506V10.0412H15.9143V13.4929L18.3143 15.8891ZM16.3143 18C15 18 13.8857 17.5483 12.9714 16.645C12.0571 15.7417 11.6 14.6339 11.6 13.3217C11.6 12.0095 12.0571 10.897 12.9714 9.98415C13.8857 9.07132 15 8.6149 16.3143 8.6149C17.6286 8.6149 18.7381 9.07132 19.6429 9.98415C20.5476 10.897 21 12.0095 21 13.3217C21 14.6339 20.5476 15.7417 19.6429 16.645C18.7381 17.5483 17.6286 18 16.3143 18Z" fill="#83B59F"/>
</svg>
