<svg width="24" height="18" viewBox="0 0 24 18" fill="none" xmlns="http://www.w3.org/2000/svg">
<path d="M4.47911 10.8947H16.078L17.0139 9.94737H4.47911V10.8947ZM4.47911 5.4812H10.7632V4.53383H4.47911V5.4812ZM0.935933 0.947368V14.4812H12.5348L11.5989 15.4286H0V0H23.2646V4.56767H22.3287V0.947368H0.935933ZM23.8663 7.51128C23.9554 7.6015 24 7.70301 24 7.81579C24 7.92857 23.9554 8.03008 23.8663 8.1203L22.8635 9.13534L22.195 8.45865L23.1978 7.44361C23.2869 7.35338 23.3872 7.30827 23.4986 7.30827C23.61 7.30827 23.7103 7.35338 23.7994 7.44361L23.8663 7.51128ZM13.5042 18V17.3233L21.4596 9.27068L22.1281 9.94737L14.1727 18H13.5042Z" fill="#83B59F"/>
</svg>
