<svg width="21" height="18" viewBox="0 0 21 18" fill="none" xmlns="http://www.w3.org/2000/svg">
<path d="M10.5 12.2185C10.9626 12.2185 11.3499 12.0646 11.6616 11.7566C11.9734 11.4487 12.1293 11.0662 12.1293 10.6093C12.1293 10.1523 11.9734 9.76987 11.6616 9.46192C11.3499 9.15397 10.9626 9 10.5 9C10.0374 9 9.65014 9.15397 9.33836 9.46192C9.02658 9.76987 8.87069 10.1523 8.87069 10.6093C8.87069 11.0662 9.02658 11.4487 9.33836 11.7566C9.65014 12.0646 10.0374 12.2185 10.5 12.2185ZM1.81034 18C1.28736 18 0.854885 17.8311 0.512931 17.4934C0.170977 17.1556 0 16.7285 0 16.2119V5.00662C0 4.49007 0.170977 4.06291 0.512931 3.72517C0.854885 3.38742 1.28736 3.21854 1.81034 3.21854H7.24138V1.78808C7.24138 1.27152 7.41236 0.844371 7.75431 0.506623C8.09626 0.168874 8.52874 0 9.05172 0H11.9483C12.4713 0 12.9037 0.168874 13.2457 0.506623C13.5876 0.844371 13.7586 1.27152 13.7586 1.78808V3.21854H19.1897C19.7126 3.21854 20.1451 3.38742 20.4871 3.72517C20.829 4.06291 21 4.49007 21 5.00662V16.2119C21 16.7285 20.829 17.1556 20.4871 17.4934C20.1451 17.8311 19.7126 18 19.1897 18H1.81034ZM1.81034 17.1656H19.1897C19.431 17.1656 19.6523 17.0662 19.8534 16.8675C20.0546 16.6689 20.1552 16.4503 20.1552 16.2119V5.00662C20.1552 4.76821 20.0546 4.54967 19.8534 4.35099C19.6523 4.15232 19.431 4.05298 19.1897 4.05298H1.81034C1.56897 4.05298 1.3477 4.15232 1.14655 4.35099C0.945402 4.54967 0.844828 4.76821 0.844828 5.00662V16.2119C0.844828 16.4503 0.945402 16.6689 1.14655 16.8675C1.3477 17.0662 1.56897 17.1656 1.81034 17.1656ZM8.08621 3.21854H12.9138V1.78808C12.9138 1.54967 12.8132 1.33113 12.6121 1.13245C12.4109 0.933775 12.1897 0.834437 11.9483 0.834437H9.05172C8.81034 0.834437 8.58908 0.933775 8.38793 1.13245C8.18678 1.33113 8.08621 1.54967 8.08621 1.78808V3.21854Z" fill="#83B59F"/>
</svg>
