<svg width="24" height="18" viewBox="0 0 24 18" fill="none" xmlns="http://www.w3.org/2000/svg">
<path d="M0 18V13.8125C0 13.375 0.139355 12.9948 0.418065 12.6719C0.696774 12.349 1.04258 12.1667 1.45548 12.125H4.8929C5.20258 12.125 5.49677 12.1979 5.77548 12.3438C6.05419 12.4896 6.28645 12.7083 6.47226 13C7.11226 13.9167 7.91226 14.625 8.87226 15.125C9.83226 15.625 10.8697 15.875 11.9845 15.875C13.0994 15.875 14.1419 15.625 15.1123 15.125C16.0826 14.625 16.8877 13.9167 17.5277 13C17.7135 12.7083 17.9458 12.4896 18.2245 12.3438C18.5032 12.1979 18.7871 12.125 19.0761 12.125H22.5135C22.9265 12.1667 23.2774 12.349 23.5665 12.6719C23.8555 12.9948 24 13.375 24 13.8125V18H16.9394V14.9062C16.2581 15.4896 15.4942 15.9427 14.6477 16.2656C13.8013 16.5885 12.9135 16.75 11.9845 16.75C11.0761 16.75 10.2039 16.5938 9.36774 16.2812C8.53161 15.9688 7.76258 15.5208 7.06065 14.9375V18H0ZM11.9845 13.375C11.3032 13.375 10.6581 13.2135 10.049 12.8906C9.44 12.5677 8.92903 12.125 8.51613 11.5625C8.24774 11.1875 7.93806 10.8594 7.5871 10.5781C7.23613 10.2969 6.85419 10.0729 6.44129 9.90625C7.08129 9.44792 7.9329 9.10938 8.99613 8.89062C10.0594 8.67188 11.0555 8.5625 11.9845 8.5625C12.9135 8.5625 13.9097 8.67188 14.9729 8.89062C16.0361 9.10938 16.8981 9.44792 17.5587 9.90625C17.1458 10.0729 16.7639 10.2969 16.4129 10.5781C16.0619 10.8594 15.7523 11.1875 15.4839 11.5625C15.0916 12.1458 14.5858 12.5938 13.9665 12.9062C13.3471 13.2188 12.6865 13.375 11.9845 13.375ZM3.00387 9.625C2.21935 9.625 1.53806 9.33333 0.96 8.75C0.381936 8.16667 0.0929032 7.47917 0.0929032 6.6875C0.0929032 5.875 0.381936 5.18229 0.96 4.60938C1.53806 4.03646 2.21935 3.75 3.00387 3.75C3.80903 3.75 4.49548 4.03646 5.06323 4.60938C5.63097 5.18229 5.91484 5.875 5.91484 6.6875C5.91484 7.47917 5.63097 8.16667 5.06323 8.75C4.49548 9.33333 3.80903 9.625 3.00387 9.625ZM20.9652 9.625C20.1806 9.625 19.4994 9.33333 18.9213 8.75C18.3432 8.16667 18.0542 7.47917 18.0542 6.6875C18.0542 5.875 18.3432 5.18229 18.9213 4.60938C19.4994 4.03646 20.1806 3.75 20.9652 3.75C21.7703 3.75 22.4568 4.03646 23.0245 4.60938C23.5923 5.18229 23.8761 5.875 23.8761 6.6875C23.8761 7.47917 23.5923 8.16667 23.0245 8.75C22.4568 9.33333 21.7703 9.625 20.9652 9.625ZM11.9845 5.875C11.2 5.875 10.5187 5.58333 9.94065 5C9.36258 4.41667 9.07355 3.72917 9.07355 2.9375C9.07355 2.125 9.36258 1.43229 9.94065 0.859375C10.5187 0.286458 11.2 0 11.9845 0C12.7897 0 13.4761 0.286458 14.0439 0.859375C14.6116 1.43229 14.8955 2.125 14.8955 2.9375C14.8955 3.72917 14.6116 4.41667 14.0439 5C13.4761 5.58333 12.7897 5.875 11.9845 5.875Z" fill="#83B59F"/>
</svg>
