<svg width="17" height="18" viewBox="0 0 17 18" fill="none" xmlns="http://www.w3.org/2000/svg">
<path d="M7.98171 18C7.53252 18 7.16108 17.8526 6.86738 17.5578C6.57368 17.263 6.42683 16.8902 6.42683 16.4393V12.0694C6.42683 11.6185 6.57368 11.2457 6.86738 10.9509C7.16108 10.6561 7.53252 10.5087 7.98171 10.5087H15.4451C15.8943 10.5087 16.2658 10.6561 16.5595 10.9509C16.8532 11.2457 17 11.6185 17 12.0694V16.4393C17 16.8902 16.8532 17.263 16.5595 17.5578C16.2658 17.8526 15.8943 18 15.4451 18H7.98171ZM7.98171 17.2717H15.4451C15.687 17.2717 15.8857 17.1936 16.0412 17.0376C16.1966 16.8815 16.2744 16.6821 16.2744 16.4393V14.0983H7.15244V16.4393C7.15244 16.6821 7.23018 16.8815 7.38567 17.0376C7.54116 17.1936 7.73984 17.2717 7.98171 17.2717ZM7.15244 13.3699H16.2744V12.0694C16.2744 11.8266 16.1966 11.6272 16.0412 11.4711C15.8857 11.315 15.687 11.237 15.4451 11.237H7.98171C7.73984 11.237 7.54116 11.315 7.38567 11.4711C7.23018 11.6272 7.15244 11.8266 7.15244 12.0694V13.3699ZM6.94512 0L13.8902 2.60116V7.90751H13.1646V3.09538L6.94512 0.780347L0.72561 3.09538V8.01156C0.72561 9.41618 1.00635 10.7558 1.56784 12.0303C2.12932 13.3049 2.88516 14.3931 3.83537 15.2948V16.2312C2.67785 15.2775 1.74924 14.0853 1.04954 12.6546C0.349848 11.224 0 9.6763 0 8.01156V2.60116L6.94512 0Z" fill="#83B59F"/>
</svg>
