<svg width="13" height="18" viewBox="0 0 13 18" fill="none" xmlns="http://www.w3.org/2000/svg">
<path d="M3.66197 18V15.6623H0V14.8442H2.44131V3.15584H0V2.33766H3.66197V0H4.51643V2.33766H7.26291V0H8.11737V2.33766C9.19562 2.33766 10.0755 2.66396 10.757 3.31656C11.4386 3.96916 11.7793 4.82143 11.7793 5.87338C11.7793 6.51623 11.6471 7.08117 11.3826 7.56818C11.1182 8.05519 10.7825 8.4448 10.3756 8.73701C11.2097 8.9513 11.8556 9.36526 12.3134 9.9789C12.7711 10.5925 13 11.3084 13 12.1266C13 13.1786 12.6592 14.0308 11.9777 14.6834C11.2962 15.336 10.4061 15.6623 9.30751 15.6623H8.11737V18H7.26291V15.6623H4.51643V18H3.66197ZM3.29577 8.59091H8.08685C8.92097 8.59091 9.6025 8.33766 10.1315 7.83117C10.6604 7.32468 10.9249 6.67208 10.9249 5.87338C10.9249 5.07468 10.6604 4.42208 10.1315 3.91558C9.6025 3.40909 8.92097 3.15584 8.08685 3.15584H3.29577V8.59091ZM3.29577 14.8442H9.30751C10.1416 14.8442 10.8232 14.5909 11.3521 14.0844C11.8811 13.5779 12.1455 12.9253 12.1455 12.1266C12.1455 11.3279 11.8811 10.6753 11.3521 10.1688C10.8232 9.66234 10.1416 9.40909 9.30751 9.40909H3.29577V14.8442Z" fill="#83B59F"/>
</svg>
