<svg width="22" height="18" viewBox="0 0 22 18" fill="none" xmlns="http://www.w3.org/2000/svg">
<path d="M14.77 5.97656C14.4486 5.64844 14.2879 5.25 14.2879 4.78125C14.2879 4.3125 14.4486 3.91406 14.77 3.58594C15.0913 3.25781 15.4815 3.09375 15.9405 3.09375C16.3996 3.09375 16.7898 3.25781 17.1111 3.58594C17.4324 3.91406 17.5931 4.3125 17.5931 4.78125C17.5931 5.25 17.4324 5.64844 17.1111 5.97656C16.7898 6.30469 16.3996 6.46875 15.9405 6.46875C15.4815 6.46875 15.0913 6.30469 14.77 5.97656ZM4.85446 5.97656C4.53312 5.64844 4.37246 5.25 4.37246 4.78125C4.37246 4.3125 4.53312 3.91406 4.85446 3.58594C5.1758 3.25781 5.56599 3.09375 6.02504 3.09375C6.48409 3.09375 6.87428 3.25781 7.19562 3.58594C7.51695 3.91406 7.67762 4.3125 7.67762 4.78125C7.67762 5.25 7.51695 5.64844 7.19562 5.97656C6.87428 6.30469 6.48409 6.46875 6.02504 6.46875C5.56599 6.46875 5.1758 6.30469 4.85446 5.97656ZM9.81221 9.07031C9.49087 8.74219 9.3302 8.34375 9.3302 7.875C9.3302 7.40625 9.49087 7.00781 9.81221 6.67969C10.1335 6.35156 10.5237 6.1875 10.9828 6.1875C11.4418 6.1875 11.832 6.35156 12.1534 6.67969C12.4747 7.00781 12.6354 7.40625 12.6354 7.875C12.6354 8.34375 12.4747 8.74219 12.1534 9.07031C11.832 9.39844 11.4418 9.5625 10.9828 9.5625C10.5237 9.5625 10.1335 9.39844 9.81221 9.07031ZM9.81221 2.88281C9.49087 2.55469 9.3302 2.15625 9.3302 1.6875C9.3302 1.21875 9.49087 0.820312 9.81221 0.492188C10.1335 0.164063 10.5237 0 10.9828 0C11.4418 0 11.832 0.164063 12.1534 0.492188C12.4747 0.820312 12.6354 1.21875 12.6354 1.6875C12.6354 2.15625 12.4747 2.55469 12.1534 2.88281C11.832 3.21094 11.4418 3.375 10.9828 3.375C10.5237 3.375 10.1335 3.21094 9.81221 2.88281ZM9.86385 17.9297C9.48513 17.8828 9.12363 17.8008 8.77934 17.6836V13.6758C8.77934 12.9961 8.99739 12.4219 9.43349 11.9531C9.86959 11.4844 10.386 11.25 10.9828 11.25C11.5796 11.25 12.096 11.4844 12.5321 11.9531C12.9682 12.4219 13.1862 12.9961 13.1862 13.6758V17.6836C12.8419 17.8008 12.481 17.8828 12.1034 17.9297C11.7259 17.9766 11.3529 18 10.9845 18C10.6161 18 10.2426 17.9766 9.86385 17.9297ZM7.12676 17.0859C6.76434 16.9385 6.41558 16.7728 6.08047 16.5888C5.74513 16.4046 5.41703 16.1982 5.09615 15.9697C4.56778 15.5889 4.15441 15.0984 3.85602 14.4984C3.55764 13.8984 3.40845 13.2609 3.40845 12.5859C3.40845 12.1139 3.35681 11.6736 3.25352 11.2651C3.15023 10.8566 2.97143 10.4535 2.71712 10.0557C2.53534 9.79723 2.19266 9.41812 1.68908 8.91844C1.1855 8.41875 0.723234 7.95199 0.302285 7.51816C0.100762 7.31074 0 7.05211 0 6.74227C0 6.43242 0.103286 6.17719 0.309859 5.97656C0.511841 5.76562 0.76891 5.66016 1.08106 5.66016C1.39322 5.66016 1.65017 5.76316 1.85192 5.96918L6.06016 10.0413C6.42694 10.3784 6.6964 10.7813 6.86854 11.25C7.04069 11.7187 7.12676 12.1875 7.12676 12.6562V17.0859ZM14.8388 17.0859V12.6707C14.8388 12.1862 14.9306 11.7111 15.1142 11.2454C15.2979 10.7797 15.5618 10.3828 15.9061 10.0547L20.136 5.96988C20.3573 5.7634 20.62 5.66016 20.9241 5.66016C21.2282 5.66016 21.4836 5.76562 21.6901 5.97656C21.8967 6.1875 22 6.44824 22 6.75879C22 7.06934 21.8997 7.32504 21.6991 7.5259C21.28 7.94613 20.8131 8.40551 20.2985 8.90402C19.7837 9.40277 19.4328 9.78633 19.2457 10.0547C18.9886 10.4276 18.8096 10.8237 18.7086 11.243C18.6076 11.6623 18.5571 12.1143 18.5571 12.5989C18.5571 13.27 18.4079 13.9043 18.1095 14.502C17.8112 15.0996 17.3957 15.595 16.8632 15.988C16.5694 16.2043 16.2512 16.4046 15.9085 16.5888C15.5658 16.7728 15.2093 16.9385 14.8388 17.0859Z" fill="#83B59F"/>
</svg>
