<svg width="21" height="18" viewBox="0 0 21 18" fill="none" xmlns="http://www.w3.org/2000/svg">
<path d="M1.41513 16.4915L0.011942 6.82506C-0.0278647 6.59072 0.0318453 6.37592 0.191072 6.18063C0.350299 5.98535 0.549332 5.86819 0.788172 5.82913L2.22121 16.3743C2.26102 16.6282 2.38541 16.8381 2.5944 17.0041C2.80338 17.1701 3.03725 17.2335 3.29599 17.1945L17.9249 15.3784H18.94C18.9002 15.5932 18.7957 15.7738 18.6265 15.9203C18.4573 16.0667 18.2633 16.1595 18.0444 16.1985L3.38556 17.9854C2.90788 18.0439 2.47995 17.9268 2.10179 17.6338C1.72363 17.3409 1.49474 16.9601 1.41513 16.4915ZM6.19192 12.4491C5.67444 12.4491 5.24652 12.2832 4.90816 11.9512C4.5698 11.6192 4.40063 11.1993 4.40063 10.6916V1.75753C4.40063 1.2498 4.5698 0.829943 4.90816 0.497966C5.24652 0.165989 5.67444 0 6.19192 0H19.2087C19.7262 0 20.1541 0.165989 20.4925 0.497966C20.8308 0.829943 21 1.2498 21 1.75753V10.6916C21 11.1993 20.8308 11.6192 20.4925 11.9512C20.1541 12.2832 19.7262 12.4491 19.2087 12.4491H6.19192ZM6.19192 11.629H19.2087C19.4873 11.629 19.7162 11.5411 19.8954 11.3653C20.0745 11.1896 20.1641 10.965 20.1641 10.6916V1.75753C20.1641 1.48413 20.0745 1.25956 19.8954 1.08381C19.7162 0.908055 19.4873 0.820179 19.2087 0.820179H6.19192C5.91328 0.820179 5.68439 0.908055 5.50526 1.08381C5.32613 1.25956 5.23656 1.48413 5.23656 1.75753V10.6916C5.23656 10.965 5.32613 11.1896 5.50526 11.3653C5.68439 11.5411 5.91328 11.629 6.19192 11.629ZM8.69974 4.74532H16.7009V3.92514H8.69974V4.74532ZM8.69974 8.49471H13.1183V7.67453H8.69974V8.49471Z" fill="#83B59F"/>
</svg>
