<svg width="19" height="18" viewBox="0 0 19 18" fill="none" xmlns="http://www.w3.org/2000/svg">
<path d="M9.5 18C7.48558 18 5.69275 17.4665 4.1215 16.3995C2.55025 15.3325 1.40204 13.8943 0.676845 12.0851V15.3093H0V10.9485H4.54453V11.5979H1.23282C1.81298 13.3299 2.86853 14.7216 4.39949 15.7732C5.93045 16.8247 7.63062 17.3505 9.5 17.3505C10.6442 17.3505 11.7199 17.1572 12.7271 16.7706C13.7343 16.384 14.6247 15.8466 15.3982 15.1585C16.1718 14.4704 16.8043 13.6508 17.2958 12.6997C17.7873 11.7487 18.0814 10.7165 18.1781 9.60309H18.855C18.7744 10.7784 18.4722 11.8763 17.9485 12.8969C17.4247 13.9175 16.7479 14.8067 15.9179 15.5644C15.088 16.3222 14.1211 16.9175 13.0172 17.3505C11.9133 17.7835 10.7409 18 9.5 18ZM9.11323 15.0309V13.9175C8.48473 13.7784 7.94084 13.5464 7.48155 13.2216C7.02226 12.8969 6.64758 12.433 6.35751 11.8299L6.98601 11.5515C7.27608 12.1082 7.65076 12.5412 8.11005 12.8505C8.56934 13.1598 9.081 13.3144 9.64504 13.3144C10.2252 13.3144 10.7812 13.1637 11.313 12.8621C11.8448 12.5606 12.1107 12.0619 12.1107 11.366C12.1107 10.8247 11.9374 10.4034 11.591 10.1018C11.2445 9.80026 10.5475 9.46392 9.5 9.09278C8.43639 8.72165 7.68702 8.34278 7.25191 7.95619C6.81679 7.56959 6.59924 7.05155 6.59924 6.40206C6.59924 5.86082 6.81679 5.35825 7.25191 4.89433C7.68702 4.43041 8.32358 4.14433 9.16158 4.03608V2.96907H9.88677V4.03608C10.3702 4.06701 10.8255 4.21778 11.2525 4.4884C11.6796 4.75902 12.014 5.10309 12.2557 5.52062L11.6272 5.75258C11.4016 5.42783 11.1196 5.16108 10.7812 4.95232C10.4427 4.74356 10.0318 4.63918 9.54835 4.63918C8.88762 4.63918 8.35178 4.80928 7.94084 5.14948C7.5299 5.48969 7.32443 5.90722 7.32443 6.40206C7.32443 6.89691 7.46141 7.27577 7.73537 7.53866C8.00933 7.80155 8.69423 8.11856 9.79008 8.48969C10.9504 8.89175 11.74 9.30928 12.159 9.74227C12.578 10.1753 12.7875 10.7165 12.7875 11.366C12.7875 11.799 12.6949 12.1778 12.5095 12.5026C12.3242 12.8273 12.0865 13.0941 11.7964 13.3028C11.5064 13.5116 11.1881 13.6701 10.8416 13.7784C10.4951 13.8866 10.1607 13.9485 9.83842 13.9639V15.0309H9.11323ZM0.145038 8.39691C0.257846 7.14433 0.584182 6.00387 1.12405 4.97552C1.66391 3.94716 2.35687 3.06186 3.20293 2.31959C4.04898 1.57732 5.01187 1.00515 6.0916 0.603093C7.17133 0.201031 8.30746 0 9.5 0C11.4661 0 13.2589 0.537371 14.8785 1.61211C16.4981 2.68686 17.6463 4.15206 18.3232 6.00773V2.69072H19V7.05155H14.4555V6.40206H17.7672C17.2354 4.73196 16.2 3.35567 14.6609 2.2732C13.1219 1.19072 11.4016 0.649485 9.5 0.649485C8.42027 0.649485 7.38083 0.835052 6.38168 1.20619C5.38253 1.57732 4.48813 2.09923 3.69847 2.77191C2.90882 3.44459 2.25615 4.25644 1.74046 5.20747C1.22477 6.15851 0.918575 7.22165 0.821883 8.39691H0.145038Z" fill="#83B59F"/>
</svg>
