<svg width="31" height="18" viewBox="0 0 31 18" fill="none" xmlns="http://www.w3.org/2000/svg">
<path d="M9.10825 18C6.57818 18 4.42762 17.125 2.65657 15.375C0.885524 13.625 0 11.5 0 9C0 6.5 0.885524 4.375 2.65657 2.625C4.42762 0.875 6.57818 0 9.10825 0C10.1469 0 11.139 0.157895 12.0844 0.473684C13.0299 0.789474 13.8887 1.25 14.6611 1.85526C14.5279 1.98684 14.4014 2.125 14.2816 2.26974C14.1617 2.41447 14.0352 2.55263 13.9021 2.68421C13.2363 2.18421 12.4972 1.79605 11.6849 1.51974C10.8726 1.24342 10.0137 1.10526 9.10825 1.10526C6.89777 1.10526 5.01353 1.875 3.45554 3.41447C1.89755 4.95395 1.11856 6.81579 1.11856 9C1.11856 11.1842 1.89755 13.0461 3.45554 14.5855C5.01353 16.125 6.89777 16.8947 9.10825 16.8947C10.0137 16.8947 10.8726 16.7566 11.6849 16.4803C12.4972 16.2039 13.2363 15.8158 13.9021 15.3158C14.0352 15.4474 14.1617 15.5855 14.2816 15.7303C14.4014 15.875 14.5279 16.0132 14.6611 16.1447C13.8887 16.75 13.0299 17.2105 12.0844 17.5263C11.139 17.8421 10.1469 18 9.10825 18ZM21.8918 18C20.8531 18 19.861 17.8421 18.9156 17.5263C17.9701 17.2105 17.1113 16.75 16.3389 16.1447C16.4721 16.0132 16.5986 15.875 16.7184 15.7303C16.8383 15.5855 16.9648 15.4474 17.0979 15.3158C17.7637 15.8158 18.5028 16.2039 19.3151 16.4803C20.1274 16.7566 20.9863 16.8947 21.8918 16.8947C24.1022 16.8947 25.9865 16.125 27.5445 14.5855C29.1024 13.0461 29.8814 11.1842 29.8814 9C29.8814 6.81579 29.1024 4.95395 27.5445 3.41447C25.9865 1.875 24.1022 1.10526 21.8918 1.10526C20.9863 1.10526 20.1274 1.24342 19.3151 1.51974C18.5028 1.79605 17.7637 2.18421 17.0979 2.68421C16.9648 2.55263 16.8383 2.41447 16.7184 2.26974C16.5986 2.125 16.4721 1.98684 16.3389 1.85526C17.1113 1.25 17.9701 0.789474 18.9156 0.473684C19.861 0.157895 20.8531 0 21.8918 0C24.4218 0 26.5724 0.875 28.3434 2.625C30.1145 4.375 31 6.5 31 9C31 11.5 30.1145 13.625 28.3434 15.375C26.5724 17.125 24.4218 18 21.8918 18ZM15.5 15.3947C14.6478 14.5526 13.982 13.5789 13.5026 12.4737C13.0232 11.3684 12.7835 10.2105 12.7835 9C12.7835 7.78947 13.0232 6.63158 13.5026 5.52632C13.982 4.42105 14.6478 3.44737 15.5 2.60526C16.3522 3.44737 17.018 4.42105 17.4974 5.52632C17.9768 6.63158 18.2165 7.78947 18.2165 9C18.2165 10.2105 17.9768 11.3684 17.4974 12.4737C17.018 13.5789 16.3522 14.5526 15.5 15.3947Z" fill="#83B59F"/>
</svg>
