<svg width="16" height="18" viewBox="0 0 16 18" fill="none" xmlns="http://www.w3.org/2000/svg">
<path d="M1.55844 18C1.12554 18 0.757576 17.8491 0.454545 17.5474C0.151515 17.2457 0 16.8793 0 16.4483V3.62069C0 3.18966 0.151515 2.82328 0.454545 2.52155C0.757576 2.21983 1.12554 2.06897 1.55844 2.06897H6.5974C6.40693 1.56897 6.45887 1.09914 6.75325 0.659483C7.04762 0.219828 7.4632 0 8 0C8.55411 0 8.97835 0.219828 9.27273 0.659483C9.5671 1.09914 9.61039 1.56897 9.4026 2.06897H14.4416C14.8745 2.06897 15.2424 2.21983 15.5455 2.52155C15.8485 2.82328 16 3.18966 16 3.62069V16.4483C16 16.8793 15.8485 17.2457 15.5455 17.5474C15.2424 17.8491 14.8745 18 14.4416 18H1.55844ZM1.55844 17.2759H14.4416C14.6494 17.2759 14.8398 17.1897 15.013 17.0172C15.1861 16.8448 15.2727 16.6552 15.2727 16.4483V3.62069C15.2727 3.41379 15.1861 3.22414 15.013 3.05172C14.8398 2.87931 14.6494 2.7931 14.4416 2.7931H1.55844C1.35065 2.7931 1.16017 2.87931 0.987013 3.05172C0.813853 3.22414 0.727273 3.41379 0.727273 3.62069V16.4483C0.727273 16.6552 0.813853 16.8448 0.987013 17.0172C1.16017 17.1897 1.35065 17.2759 1.55844 17.2759ZM3.48052 14.2241H9.4026V13.5H3.48052V14.2241ZM3.48052 10.3966H12.5195V9.67241H3.48052V10.3966ZM3.48052 6.56897H12.5195V5.84483H3.48052V6.56897ZM8.55844 2.05603C8.70563 1.90948 8.77922 1.72414 8.77922 1.5C8.77922 1.27586 8.70563 1.09052 8.55844 0.943966C8.41126 0.797414 8.22511 0.724138 8 0.724138C7.77489 0.724138 7.58874 0.797414 7.44156 0.943966C7.29437 1.09052 7.22078 1.27586 7.22078 1.5C7.22078 1.72414 7.29437 1.90948 7.44156 2.05603C7.58874 2.20259 7.77489 2.27586 8 2.27586C8.22511 2.27586 8.41126 2.20259 8.55844 2.05603Z" fill="#83B59F"/>
</svg>
