<svg width="17" height="18" viewBox="0 0 17 18" fill="none" xmlns="http://www.w3.org/2000/svg">
<path d="M8.06217 18V8.73529C6.97513 8.73529 5.93843 8.53922 4.95204 8.14706C3.96566 7.7549 3.08999 7.18627 2.32504 6.44118C1.56009 5.69608 0.98135 4.83726 0.58881 3.86471C0.19627 2.89216 0 1.87843 0 0.823529V0H0.845471C1.90613 0 2.93308 0.201864 3.92631 0.605589C4.91953 1.00931 5.7949 1.58196 6.5524 2.32353C7.19657 2.95098 7.71492 3.67157 8.10746 4.48529C8.5 5.29902 8.7466 6.15686 8.84725 7.05882C9.04855 6.66667 9.27501 6.29902 9.52664 5.95588C9.77827 5.61275 10.0651 5.28431 10.3872 4.97059C11.1493 4.22902 12.0301 3.65637 13.0296 3.25265C14.0289 2.84892 15.0705 2.64706 16.1545 2.64706H17V3.47059C17 4.52706 16.7925 5.54235 16.3774 6.51647C15.9623 7.49039 15.3735 8.34873 14.6109 9.09147C13.8484 9.83441 12.979 10.3971 12.0027 10.7794C11.0263 11.1618 9.99467 11.3529 8.90764 11.3529V18H8.06217ZM8.09236 7.88235C8.09236 6.94118 7.90616 6.04412 7.53375 5.19118C7.16134 4.33824 6.63292 3.57843 5.94849 2.91176C5.26406 2.2451 4.48401 1.73039 3.60835 1.36765C2.73268 1.0049 1.81172 0.823529 0.845471 0.823529C0.845471 1.76471 1.02664 2.66667 1.38899 3.52941C1.75133 4.39216 2.27472 5.15686 2.95915 5.82353C3.64358 6.4902 4.42866 7 5.31439 7.35294C6.20012 7.70588 7.12611 7.88235 8.09236 7.88235ZM8.90764 10.5294C9.87389 10.5294 10.7948 10.3529 11.6705 10C12.5462 9.64706 13.3262 9.13725 14.0107 8.47059C14.6951 7.80392 15.2235 7.03922 15.5959 6.17647C15.9683 5.31373 16.1545 4.41176 16.1545 3.47059C15.1883 3.47059 14.2623 3.65196 13.3766 4.01471C12.4908 4.37745 11.7057 4.89216 11.0213 5.55882C10.3369 6.22549 9.8135 6.98529 9.45115 7.83824C9.08881 8.69118 8.90764 9.58824 8.90764 10.5294Z" fill="#83B59F"/>
</svg>
