<svg width="12" height="18" viewBox="0 0 12 18" fill="none" xmlns="http://www.w3.org/2000/svg">
<path d="M1.45161 18C1.04839 18 0.705645 17.8647 0.423387 17.5941C0.141129 17.3235 0 16.9948 0 16.6082V1.39175C0 0.989691 0.137097 0.657216 0.41129 0.39433C0.685484 0.131443 1.03226 0 1.45161 0H9.67742C10.0806 0 10.4234 0.135309 10.7056 0.405928C10.9879 0.676546 11.129 1.00515 11.129 1.39175V4.40722C11.3548 4.40722 11.5565 4.48067 11.7339 4.62758C11.9113 4.77448 12 4.95619 12 5.17268V6.75C12 6.96649 11.9113 7.1482 11.7339 7.2951C11.5565 7.44201 11.3548 7.51546 11.129 7.51546V16.6082C11.129 16.9948 10.9879 17.3235 10.7056 17.5941C10.4234 17.8647 10.0806 18 9.67742 18H1.45161ZM1.45161 17.3505H9.67742C9.90323 17.3505 10.0887 17.2809 10.2339 17.1418C10.379 17.0026 10.4516 16.8247 10.4516 16.6082V1.39175C10.4516 1.17526 10.379 0.997423 10.2339 0.858247C10.0887 0.719072 9.90323 0.649485 9.67742 0.649485H1.45161C1.22581 0.649485 1.04032 0.719072 0.895161 0.858247C0.75 0.997423 0.677419 1.17526 0.677419 1.39175V16.6082C0.677419 16.8247 0.75 17.0026 0.895161 17.1418C1.04032 17.2809 1.22581 17.3505 1.45161 17.3505ZM3.43548 15.4948H7.69355C7.79032 15.4948 7.87097 15.4639 7.93548 15.4021C8 15.3402 8.03226 15.2629 8.03226 15.1701C8.03226 15.0773 8 15 7.93548 14.9381C7.87097 14.8763 7.79032 14.8454 7.69355 14.8454H3.43548C3.33871 14.8454 3.25806 14.8763 3.19355 14.9381C3.12903 15 3.09677 15.0773 3.09677 15.1701C3.09677 15.2629 3.12903 15.3402 3.19355 15.4021C3.25806 15.4639 3.33871 15.4948 3.43548 15.4948Z" fill="#83B59F"/>
</svg>
