<svg width="23" height="18" viewBox="0 0 23 18" fill="none" xmlns="http://www.w3.org/2000/svg">
<path d="M1.7207 15.028C1.22361 15.028 0.812552 14.8692 0.487531 14.5514C0.16251 14.2336 0 13.8318 0 13.3458V1.68224C0 1.19626 0.16251 0.794392 0.487531 0.476635C0.812552 0.158879 1.22361 0 1.7207 0H18.2394C18.7365 0 19.1475 0.158879 19.4726 0.476635C19.7976 0.794392 19.9601 1.19626 19.9601 1.68224V6.33645H0.802993V13.3458C0.802993 13.5701 0.898587 13.7757 1.08978 13.9626C1.28096 14.1495 1.49127 14.243 1.7207 14.243H11.0698V15.028H1.7207ZM0.802993 4.20561H19.1571V1.68224C19.1571 1.45794 19.0615 1.25234 18.8703 1.06542C18.6791 0.878505 18.4688 0.785047 18.2394 0.785047H1.7207C1.49127 0.785047 1.28096 0.878505 1.08978 1.06542C0.898587 1.25234 0.802993 1.45794 0.802993 1.68224V4.20561ZM18.7556 18V14.6355H15.3142V13.8505H18.7556V10.486H19.5586V13.8505H23V14.6355H19.5586V18H18.7556Z" fill="#83B59F"/>
</svg>
