<svg width="19" height="18" viewBox="0 0 19 18" fill="none" xmlns="http://www.w3.org/2000/svg">
<path d="M6.78825 6.69556C6.04384 5.93347 5.67164 5.00806 5.67164 3.91935C5.67164 2.83065 6.04384 1.90524 6.78825 1.14315C7.53265 0.381048 8.43657 0 9.5 0C10.5634 0 11.4674 0.381048 12.2118 1.14315C12.9562 1.90524 13.3284 2.83065 13.3284 3.91935C13.3284 5.00806 12.9562 5.93347 12.2118 6.69556C11.4674 7.45766 10.5634 7.83871 9.5 7.83871C8.43657 7.83871 7.53265 7.45766 6.78825 6.69556ZM0 18V16.1129C0 15.5806 0.159515 15.0786 0.478545 14.6069C0.797575 14.1351 1.22886 13.7661 1.77239 13.5C3.07214 12.871 4.36598 12.3992 5.65392 12.0847C6.94185 11.7702 8.22388 11.6129 9.5 11.6129C10.7761 11.6129 12.0581 11.7702 13.3461 12.0847C14.634 12.3992 15.9279 12.871 17.2276 13.5C17.7711 13.7661 18.2024 14.1351 18.5215 14.6069C18.8405 15.0786 19 15.5806 19 16.1129V18H0ZM0.992537 16.9839H18.0075V16.1129C18.0075 15.7742 17.8952 15.4536 17.6707 15.1512C17.4462 14.8488 17.1331 14.5887 16.7313 14.371C15.597 13.8145 14.4191 13.3851 13.1976 13.0827C11.9763 12.7802 10.7437 12.629 9.5 12.629C8.25626 12.629 7.02374 12.7802 5.80244 13.0827C4.58091 13.3851 3.40299 13.8145 2.26866 14.371C1.86692 14.5887 1.55379 14.8488 1.32929 15.1512C1.10479 15.4536 0.992537 15.7742 0.992537 16.1129V16.9839ZM11.5028 5.96976C12.0581 5.40121 12.3358 4.71774 12.3358 3.91935C12.3358 3.12097 12.0581 2.4375 11.5028 1.86895C10.9475 1.3004 10.2799 1.01613 9.5 1.01613C8.72015 1.01613 8.05255 1.3004 7.4972 1.86895C6.94185 2.4375 6.66418 3.12097 6.66418 3.91935C6.66418 4.71774 6.94185 5.40121 7.4972 5.96976C8.05255 6.53831 8.72015 6.82258 9.5 6.82258C10.2799 6.82258 10.9475 6.53831 11.5028 5.96976Z" fill="#83B59F"/>
</svg>
