<svg width="16" height="18" viewBox="0 0 16 18" fill="none" xmlns="http://www.w3.org/2000/svg">
<path d="M0 18V17.3986H0.299465C0.727273 17.3986 1.15865 17.3305 1.59358 17.1945C2.02852 17.0585 2.45276 16.8616 2.86631 16.6038C3.27986 16.8473 3.71836 17.0406 4.18182 17.1838C4.64528 17.327 5.08378 17.3986 5.49733 17.3986C5.88235 17.3986 6.28521 17.3341 6.70588 17.2052C7.12656 17.0764 7.55793 16.8759 8 16.6038C8.41355 16.8616 8.83779 17.0585 9.27273 17.1945C9.70767 17.3305 10.139 17.3986 10.5668 17.3986C10.9804 17.3986 11.4011 17.3341 11.8289 17.2052C12.2567 17.0764 12.6916 16.8759 13.1337 16.6038C13.5758 16.8759 14.0107 17.0764 14.4385 17.2052C14.8663 17.3341 15.287 17.3986 15.7005 17.3986H16V18H15.7005C15.287 18 14.8627 17.9427 14.4278 17.8282C13.9929 17.7136 13.5615 17.5346 13.1337 17.2912C12.7059 17.5346 12.2745 17.7136 11.8396 17.8282C11.4046 17.9427 10.9804 18 10.5668 18C10.1533 18 9.72906 17.9427 9.29412 17.8282C8.85918 17.7136 8.42781 17.5346 8 17.2912C7.58645 17.5203 7.16221 17.6957 6.72727 17.8174C6.29234 17.9391 5.86809 18 5.45455 18C5.041 18 4.60963 17.9391 4.16043 17.8174C3.71123 17.6957 3.27986 17.5203 2.86631 17.2912C2.4385 17.5346 2.00713 17.7136 1.57219 17.8282C1.13725 17.9427 0.713013 18 0.299465 18H0ZM5.45455 15.2506C5.08378 15.2506 4.72727 15.2076 4.38503 15.1217C4.04278 15.0358 3.75045 14.9141 3.50802 14.7566C3.66488 14.642 3.95009 14.4308 4.36364 14.1229C4.77718 13.815 5.08378 13.5895 5.28342 13.4463L3.74332 10.4606C3.62923 10.2601 3.54724 10.0453 3.49733 9.81623C3.44742 9.58711 3.42246 9.35083 3.42246 9.1074V5.67064C3.42246 5.34129 3.53298 5.06563 3.75401 4.84368C3.97504 4.62172 4.24955 4.51074 4.57754 4.51074H7.14439C7.7148 4.51074 8.24955 4.42482 8.74866 4.25298C9.24777 4.08115 9.71836 3.82339 10.1604 3.47971L10.5882 3.93079C10.1034 4.31742 9.56863 4.61098 8.98396 4.81146C8.39929 5.01193 7.7861 5.11217 7.14439 5.11217H5.39037V9.23628H8.08556L9.64706 10.9547C10.6453 10.5394 11.5187 10.2208 12.2674 9.99881C13.016 9.77685 13.6328 9.66587 14.1176 9.66587C14.4456 9.66587 14.6988 9.71599 14.877 9.81623C15.0553 9.91647 15.1444 10.0811 15.1444 10.3103C15.1444 10.8258 14.6952 11.5346 13.7968 12.4368C12.8984 13.3389 11.7362 14.2267 10.3102 15.1002C10.2246 15.1289 10.1319 15.1504 10.0321 15.1647C9.93226 15.179 9.83957 15.1862 9.75401 15.1862C9.44029 15.1862 9.13012 15.1038 8.82353 14.9391C8.51693 14.7745 8.24242 14.5418 8 14.241C7.67201 14.5704 7.29055 14.821 6.85562 14.9928C6.42068 15.1647 5.95365 15.2506 5.45455 15.2506ZM5.88235 13.0167C6.25312 12.7876 6.77362 12.4833 7.44385 12.1038C8.11408 11.7243 8.65597 11.4344 9.06952 11.2339L7.80749 9.83771L4.64171 10.2458L5.88235 13.0167ZM3.61497 2.34129C3.34403 2.06921 3.20856 1.74702 3.20856 1.3747C3.20856 1.00239 3.34403 0.680191 3.61497 0.408115C3.88592 0.136038 4.20677 0 4.57754 0C4.94831 0 5.26916 0.136038 5.54011 0.408115C5.81105 0.680191 5.94652 1.00239 5.94652 1.3747C5.94652 1.74702 5.81105 2.06921 5.54011 2.34129C5.26916 2.61337 4.94831 2.7494 4.57754 2.7494C4.20677 2.7494 3.88592 2.61337 3.61497 2.34129ZM11.7647 2.642L11.3369 2.21241L13.5401 0H14.3957L11.7647 2.642Z" fill="#83B59F"/>
</svg>
