<svg width="17" height="18" viewBox="0 0 17 18" fill="none" xmlns="http://www.w3.org/2000/svg">
<path d="M8.96166 18V15.9828L14.6917 10.5517C14.7822 10.4828 14.8717 10.431 14.9603 10.3966C15.0488 10.3621 15.1373 10.3448 15.2259 10.3448C15.3224 10.3448 15.4188 10.3621 15.5151 10.3966C15.6116 10.431 15.6992 10.4828 15.778 10.5517L16.7827 11.5345C16.8552 11.6207 16.9095 11.7069 16.9457 11.7931C16.9819 11.8793 17 11.9655 17 12.0517C17 12.1379 16.9819 12.2241 16.9457 12.3103C16.9095 12.3966 16.8552 12.4828 16.7827 12.569L11.0799 18H8.96166ZM9.72204 17.2759H10.754L14.6645 13.5517L14.1757 13.0337L13.6597 12.5431L9.72204 16.2931V17.2759ZM1.62939 18C1.15868 18 0.769436 17.8534 0.461661 17.5603C0.153887 17.2672 0 16.8966 0 16.4483V1.55172C0 1.10345 0.153887 0.732759 0.461661 0.439655C0.769436 0.146552 1.15868 0 1.62939 0H10.1565L14.5559 4.18966V6.75H13.7955V4.55172H9.77636V0.724138H1.62939C1.41214 0.724138 1.21299 0.810345 1.03195 0.982759C0.850905 1.15517 0.760383 1.34483 0.760383 1.55172V16.4483C0.760383 16.6552 0.850905 16.8448 1.03195 17.0172C1.21299 17.1897 1.41214 17.2759 1.62939 17.2759H6.24601V18H1.62939ZM14.1757 13.0337L13.6597 12.5431L14.6645 13.5517L14.1757 13.0337Z" fill="#83B59F"/>
</svg>
