<svg width="18" height="18" viewBox="0 0 18 18" fill="none" xmlns="http://www.w3.org/2000/svg">
<path d="M0 18V4.31138H4.31138V0H13.6886V8.62275H18V18H10.7784V13.6886H7.22156V18H0ZM0.754491 17.2455H4.31138V13.6886H0.754491V17.2455ZM0.754491 12.9341H4.31138V9.37725H0.754491V12.9341ZM0.754491 8.62275H4.31138V5.06587H0.754491V8.62275ZM5.06587 12.9341H8.62275V9.37725H5.06587V12.9341ZM5.06587 8.62275H8.62275V5.06587H5.06587V8.62275ZM5.06587 4.31138H8.62275V0.754491H5.06587V4.31138ZM9.37725 12.9341H12.9341V9.37725H9.37725V12.9341ZM9.37725 8.62275H12.9341V5.06587H9.37725V8.62275ZM9.37725 4.31138H12.9341V0.754491H9.37725V4.31138ZM13.6886 17.2455H17.2455V13.6886H13.6886V17.2455ZM13.6886 12.9341H17.2455V9.37725H13.6886V12.9341Z" fill="#83B59F"/>
</svg>
