<svg width="20" height="18" viewBox="0 0 20 18" fill="none" xmlns="http://www.w3.org/2000/svg">
<path d="M7.29885 18V17.1818L9.42529 15.0195H1.72414C1.22605 15.0195 0.814176 14.8539 0.488506 14.5227C0.162835 14.1916 0 13.7727 0 13.2662V1.75325C0 1.24675 0.162835 0.827922 0.488506 0.496753C0.814176 0.165584 1.22605 0 1.72414 0H18.2759C18.7739 0 19.1858 0.165584 19.5115 0.496753C19.8372 0.827922 20 1.24675 20 1.75325V13.2662C20 13.7727 19.8372 14.1916 19.5115 14.5227C19.1858 14.8539 18.7739 15.0195 18.2759 15.0195H10.5747L12.7011 17.1818V18H7.29885ZM0.804598 12.974H19.1954V1.75325C19.1954 1.51948 19.0996 1.30519 18.908 1.11039C18.7165 0.915584 18.5057 0.818182 18.2759 0.818182H1.72414C1.49425 0.818182 1.28352 0.915584 1.09195 1.11039C0.900383 1.30519 0.804598 1.51948 0.804598 1.75325V12.974Z" fill="#83B59F"/>
</svg>
