<svg width="25" height="18" viewBox="0 0 25 18" fill="none" xmlns="http://www.w3.org/2000/svg">
<path d="M12.5619 18C10.0248 18 7.86407 17.1224 6.07983 15.3673C4.29559 13.6122 3.40347 11.4898 3.40347 9V6.85714L0.618812 9.61224L0 9L3.83663 5.20408L7.67327 9L7.05446 9.61224L4.2698 6.85714V9C4.2698 11.2653 5.07426 13.1888 6.68317 14.7704C8.29208 16.352 10.2517 17.1429 12.5619 17.1429C13.0363 17.1429 13.5262 17.0969 14.0316 17.0051C14.5369 16.9133 15.0268 16.7755 15.5012 16.5918L16.151 17.2347C15.5941 17.4796 15.0113 17.6684 14.4028 17.801C13.7943 17.9337 13.1807 18 12.5619 18ZM21.1634 12.7959L17.3267 9L17.9455 8.38776L20.7302 11.1429V9C20.7302 6.73469 19.9257 4.81122 18.3168 3.22959C16.7079 1.64796 14.7483 0.857143 12.4381 0.857143C11.9637 0.857143 11.4738 0.903061 10.9684 0.994898C10.4631 1.08673 9.97318 1.22449 9.49876 1.40816L8.84901 0.765306C9.40594 0.520408 9.98866 0.331633 10.5972 0.19898C11.2057 0.0663265 11.8193 0 12.4381 0C14.9752 0 17.1359 0.877551 18.9202 2.63265C20.7044 4.38776 21.5965 6.5102 21.5965 9V11.1429L24.3812 8.38776L25 9L21.1634 12.7959Z" fill="#83B59F"/>
</svg>
