<svg width="17" height="18" viewBox="0 0 17 18" fill="none" xmlns="http://www.w3.org/2000/svg">
<path d="M16.4817 18L13.7348 15.3153C13.4411 15.5028 13.1214 15.6562 12.7759 15.7756C12.4304 15.8949 12.0762 15.9545 11.7134 15.9545C10.8323 15.9545 10.0765 15.6435 9.44588 15.0213C8.81529 14.3991 8.5 13.6534 8.5 12.7841C8.5 11.9148 8.81529 11.169 9.44588 10.5469C10.0765 9.92472 10.8323 9.61364 11.7134 9.61364C12.5945 9.61364 13.3504 9.92472 13.9809 10.5469C14.6115 11.169 14.9268 11.9148 14.9268 12.7841C14.9268 13.142 14.875 13.4957 14.7713 13.8452C14.6677 14.1946 14.4949 14.5057 14.253 14.7784L17 17.4886L16.4817 18ZM13.4756 14.5227C13.9593 14.0455 14.2012 13.4659 14.2012 12.7841C14.2012 12.1023 13.9593 11.5227 13.4756 11.0455C12.9919 10.5682 12.4045 10.3295 11.7134 10.3295C11.0224 10.3295 10.435 10.5682 9.95122 11.0455C9.46748 11.5227 9.22561 12.1023 9.22561 12.7841C9.22561 13.4659 9.46748 14.0455 9.95122 14.5227C10.435 15 11.0224 15.2386 11.7134 15.2386C12.4045 15.2386 12.9919 15 13.4756 14.5227ZM15.9634 7.97727H15.2378V2.76136C15.2378 2.55682 15.1514 2.36932 14.9787 2.19886C14.8059 2.02841 14.6159 1.94318 14.4085 1.94318H11.8171V3.98864H4.14634V1.94318H1.55488C1.34756 1.94318 1.15752 2.02841 0.984756 2.19886C0.811992 2.36932 0.72561 2.55682 0.72561 2.76136V15.4432C0.72561 15.6477 0.811992 15.8352 0.984756 16.0057C1.15752 16.1761 1.34756 16.2614 1.55488 16.2614H6.58232V16.9773H1.55488C1.12297 16.9773 0.755843 16.8281 0.453506 16.5298C0.151169 16.2315 0 15.8693 0 15.4432V2.76136C0 2.33523 0.151169 1.97301 0.453506 1.67472C0.755843 1.37642 1.12297 1.22727 1.55488 1.22727H6.50457C6.57368 0.886364 6.74212 0.596591 7.00991 0.357955C7.27769 0.119318 7.60163 0 7.98171 0C8.36179 0 8.68572 0.119318 8.95351 0.357955C9.22129 0.596591 9.38974 0.886364 9.45884 1.22727H14.4085C14.8404 1.22727 15.2076 1.37642 15.5099 1.67472C15.8122 1.97301 15.9634 2.33523 15.9634 2.76136V7.97727ZM8.53887 2.03267C8.68572 1.88778 8.75915 1.70455 8.75915 1.48295C8.75915 1.26136 8.68572 1.07812 8.53887 0.933239C8.39202 0.788352 8.2063 0.715909 7.98171 0.715909C7.75711 0.715909 7.57139 0.788352 7.42454 0.933239C7.27769 1.07812 7.20427 1.26136 7.20427 1.48295C7.20427 1.70455 7.27769 1.88778 7.42454 2.03267C7.57139 2.17756 7.75711 2.25 7.98171 2.25C8.2063 2.25 8.39202 2.17756 8.53887 2.03267Z" fill="#83B59F"/>
</svg>
