<svg width="27" height="18" viewBox="0 0 27 18" fill="none" xmlns="http://www.w3.org/2000/svg">
<path d="M3.82593 18C3.68768 18 3.57216 17.9534 3.47938 17.8603C3.3866 17.7669 3.34021 17.6514 3.34021 17.5135V16.1236H2.36598C1.6933 16.1236 1.1308 15.8977 0.678479 15.4459C0.22616 14.9942 0 14.4324 0 13.7606V6.81081C0 6 0.260954 5.40347 0.782861 5.02124C1.30477 4.639 1.83247 4.44788 2.36598 4.44788V2.36293C2.36598 1.69112 2.59214 1.12934 3.04446 0.677606C3.49678 0.225869 4.05928 0 4.73196 0H22.268C22.9407 0 23.5032 0.225869 23.9555 0.677606C24.4079 1.12934 24.634 1.69112 24.634 2.36293V4.44788C25.2603 4.44788 25.8112 4.65637 26.2867 5.07336C26.7622 5.49035 27 6.0695 27 6.81081V13.7606C27 14.4324 26.7738 14.9942 26.3215 15.4459C25.8692 15.8977 25.3067 16.1236 24.634 16.1236H23.6598V17.5135C23.6598 17.6514 23.625 17.7669 23.5554 17.8603C23.4858 17.9534 23.3819 18 23.2437 18C23.1052 18 22.9892 17.9534 22.8957 17.8603C22.802 17.7669 22.7552 17.6514 22.7552 17.5135V16.1236H4.31443V17.5135C4.31443 17.6525 4.26758 17.7683 4.17387 17.861C4.08039 17.9537 3.96441 18 3.82593 18ZM2.36598 15.1506H24.634C25.0283 15.1506 25.3589 15.0174 25.6256 14.751C25.8924 14.4846 26.0258 14.1544 26.0258 13.7606V6.81081C26.0258 6.41699 25.8924 6.08687 25.6256 5.82046C25.3589 5.55405 25.0283 5.42085 24.634 5.42085C24.2397 5.42085 23.9091 5.55405 23.6424 5.82046C23.3756 6.08687 23.2423 6.41699 23.2423 6.81081V11.4672H3.75773V6.81081C3.75773 6.41699 3.62436 6.08687 3.3576 5.82046C3.09085 5.55405 2.76031 5.42085 2.36598 5.42085C1.97165 5.42085 1.64111 5.55405 1.37436 5.82046C1.1076 6.08687 0.974227 6.41699 0.974227 6.81081V13.7606C0.974227 14.1544 1.1076 14.4846 1.37436 14.751C1.64111 15.0174 1.97165 15.1506 2.36598 15.1506ZM4.73196 10.4942H22.268V6.81081C22.268 6.34749 22.3956 5.91892 22.6508 5.5251C22.9059 5.13127 23.2423 4.8417 23.6598 4.65637V2.36293C23.6598 1.96911 23.5264 1.639 23.2597 1.37259C22.9929 1.10618 22.6624 0.972973 22.268 0.972973H4.73196C4.33763 0.972973 4.00709 1.10618 3.74033 1.37259C3.47358 1.639 3.34021 1.96911 3.34021 2.36293V4.65637C3.75773 4.8417 4.09407 5.13127 4.34923 5.5251C4.60438 5.91892 4.73196 6.34749 4.73196 6.81081V10.4942Z" fill="#83B59F"/>
</svg>
