<svg width="32" height="18" viewBox="0 0 32 18" fill="none" xmlns="http://www.w3.org/2000/svg">
<path d="M4.224 17.0109C3.56978 16.3514 3.24267 15.5507 3.24267 14.6087H0V1.21739C0 0.882609 0.116907 0.595941 0.35072 0.35739C0.584818 0.119129 0.866133 0 1.19467 0H23.04L32 8.43478V14.6087H29.44C29.44 15.5507 29.1164 16.3514 28.4693 17.0109C27.8222 17.6703 27.0364 18 26.112 18C25.1876 18 24.4018 17.6703 23.7547 17.0109C23.1076 16.3514 22.784 15.5507 22.784 14.6087H9.89867C9.89867 15.5362 9.57156 16.3333 8.91733 17C8.26311 17.6667 7.48089 18 6.57067 18C5.66044 18 4.87822 17.6703 4.224 17.0109ZM19.456 7.73913H29.5253L22.6133 1.21739H19.456V7.73913ZM10.3253 7.73913H18.2613V1.21739H10.3253V7.73913ZM1.19467 7.73913H9.13067V1.21739H1.19467V7.73913ZM8.08533 16.1522C8.49778 15.7319 8.704 15.2174 8.704 14.6087C8.704 14 8.49778 13.4855 8.08533 13.0652C7.67289 12.6449 7.168 12.4348 6.57067 12.4348C5.97333 12.4348 5.46844 12.6449 5.056 13.0652C4.64356 13.4855 4.43733 14 4.43733 14.6087C4.43733 15.2174 4.64356 15.7319 5.056 16.1522C5.46844 16.5725 5.97333 16.7826 6.57067 16.7826C7.168 16.7826 7.67289 16.5725 8.08533 16.1522ZM27.6267 16.1522C28.0391 15.7319 28.2453 15.2174 28.2453 14.6087C28.2453 14 28.0391 13.4855 27.6267 13.0652C27.2142 12.6449 26.7093 12.4348 26.112 12.4348C25.5147 12.4348 25.0098 12.6449 24.5973 13.0652C24.1849 13.4855 23.9787 14 23.9787 14.6087C23.9787 15.2174 24.1849 15.7319 24.5973 16.1522C25.0098 16.5725 25.5147 16.7826 26.112 16.7826C26.7093 16.7826 27.2142 16.5725 27.6267 16.1522ZM1.19467 13.3913H3.41333C3.584 12.8696 3.96089 12.3768 4.544 11.913C5.12711 11.4493 5.80267 11.2174 6.57067 11.2174C7.33867 11.2174 7.99289 11.4275 8.53333 11.8478C9.07378 12.2681 9.472 12.7826 9.728 13.3913H22.9547C23.1253 12.8696 23.5022 12.3768 24.0853 11.913C24.6684 11.4493 25.344 11.2174 26.112 11.2174C26.88 11.2174 27.5342 11.4275 28.0747 11.8478C28.6151 12.2681 29.0133 12.7826 29.2693 13.3913H30.8053V8.95652H1.19467V13.3913Z" fill="#83B59F"/>
</svg>
