<svg width="21" height="18" viewBox="0 0 21 18" fill="none" xmlns="http://www.w3.org/2000/svg">
<path d="M20.2423 16.858V1.63142C20.2423 1.37764 20.1611 1.16918 19.9987 1.00604C19.8363 0.8429 19.6289 0.761329 19.3763 0.761329H1.62371C1.37113 0.761329 1.16366 0.8429 1.00129 1.00604C0.838918 1.16918 0.757732 1.37764 0.757732 1.63142V9.46224H0V1.63142C0 1.17825 0.157861 0.793051 0.473582 0.475831C0.789304 0.15861 1.17268 0 1.62371 0H19.3763C19.8273 0 20.2107 0.15861 20.5264 0.475831C20.8421 0.793051 21 1.17825 21 1.63142V15.5801C21 15.852 20.9323 16.1012 20.797 16.3278C20.6617 16.5544 20.4768 16.7311 20.2423 16.858ZM5.18235 9.53021C4.61405 8.95921 4.3299 8.26586 4.3299 7.45015C4.3299 6.63444 4.61405 5.94109 5.18235 5.37009C5.75064 4.79909 6.44072 4.5136 7.25258 4.5136C8.06443 4.5136 8.75451 4.79909 9.32281 5.37009C9.89111 5.94109 10.1753 6.63444 10.1753 7.45015C10.1753 8.26586 9.89111 8.95921 9.32281 9.53021C8.75451 10.1012 8.06443 10.3867 7.25258 10.3867C6.44072 10.3867 5.75064 10.1012 5.18235 9.53021ZM8.78157 8.98641C9.20554 8.56042 9.41753 8.04834 9.41753 7.45015C9.41753 6.85196 9.20554 6.33988 8.78157 5.9139C8.3576 5.48792 7.84794 5.27492 7.25258 5.27492C6.65722 5.27492 6.14755 5.48792 5.72358 5.9139C5.29961 6.33988 5.08763 6.85196 5.08763 7.45015C5.08763 8.04834 5.29961 8.56042 5.72358 8.98641C6.14755 9.41239 6.65722 9.62538 7.25258 9.62538C7.84794 9.62538 8.3576 9.41239 8.78157 8.98641ZM0 18V16.5861C0 16.1873 0.121778 15.8112 0.365335 15.4577C0.608892 15.1042 0.938144 14.8278 1.35309 14.6284C2.34536 14.1571 3.33312 13.8036 4.31637 13.568C5.29961 13.3323 6.27835 13.2145 7.25258 13.2145C8.2268 13.2145 9.20554 13.3323 10.1888 13.568C11.172 13.8036 12.1598 14.1571 13.1521 14.6284C13.567 14.8278 13.8963 15.1042 14.1398 15.4577C14.3834 15.8112 14.5052 16.1873 14.5052 16.5861V18H0ZM0.757732 17.2387H13.7474V16.5861C13.7474 16.3323 13.6617 16.0921 13.4903 15.8656C13.3189 15.639 13.0799 15.4441 12.7732 15.281C11.9072 14.864 11.0097 14.5423 10.0805 14.3157C9.15142 14.0891 8.20876 13.9758 7.25258 13.9758C6.29639 13.9758 5.35374 14.0891 4.42461 14.3157C3.49549 14.5423 2.59794 14.864 1.73196 15.281C1.42526 15.4441 1.18621 15.639 1.01482 15.8656C0.843428 16.0921 0.757732 16.3323 0.757732 16.5861V17.2387Z" fill="#83B59F"/>
</svg>
