<svg width="22" height="18" viewBox="0 0 22 18" fill="none" xmlns="http://www.w3.org/2000/svg">
<path d="M1.89655 18C1.34866 18 0.895594 17.8311 0.537356 17.4934C0.179119 17.1556 0 16.7285 0 16.2119V5.00662C0 4.49007 0.179119 4.06291 0.537356 3.72517C0.895594 3.38742 1.34866 3.21854 1.89655 3.21854H7.58621V1.78808C7.58621 1.27152 7.76533 0.844371 8.12356 0.506623C8.4818 0.168874 8.93487 0 9.48276 0H12.5172C13.0651 0 13.5182 0.168874 13.8764 0.506623C14.2347 0.844371 14.4138 1.27152 14.4138 1.78808V3.21854H20.1034C20.6513 3.21854 21.1044 3.38742 21.4626 3.72517C21.8209 4.06291 22 4.49007 22 5.00662V16.2119C22 16.7285 21.8209 17.1556 21.4626 17.4934C21.1044 17.8311 20.6513 18 20.1034 18H1.89655ZM8.47126 3.21854H13.5287V1.78808C13.5287 1.54967 13.4234 1.33113 13.2126 1.13245C13.0019 0.933775 12.7701 0.834437 12.5172 0.834437H9.48276C9.22989 0.834437 8.99808 0.933775 8.78736 1.13245C8.57663 1.33113 8.47126 1.54967 8.47126 1.78808V3.21854ZM21.1149 11.6225H13.1494V13.2318H8.85057V11.6225H0.885057V16.2119C0.885057 16.4503 0.990421 16.6689 1.20115 16.8675C1.41188 17.0662 1.64368 17.1656 1.89655 17.1656H20.1034C20.3563 17.1656 20.5881 17.0662 20.7989 16.8675C21.0096 16.6689 21.1149 16.4503 21.1149 16.2119V11.6225ZM9.73563 12.3974H12.2644V10.0132H9.73563V12.3974ZM0.885057 10.7881H8.85057V9.17881H13.1494V10.7881H21.1149V5.00662C21.1149 4.76821 21.0096 4.54967 20.7989 4.35099C20.5881 4.15232 20.3563 4.05298 20.1034 4.05298H1.89655C1.64368 4.05298 1.41188 4.15232 1.20115 4.35099C0.990421 4.54967 0.885057 4.76821 0.885057 5.00662V10.7881Z" fill="#83B59F"/>
</svg>
