<svg width="21" height="18" viewBox="0 0 21 18" fill="none" xmlns="http://www.w3.org/2000/svg">
<path d="M10.5 14.2597C11.6868 14.2597 12.6875 13.8653 13.5022 13.0763C14.3168 12.2873 14.7241 11.3182 14.7241 10.1688C14.7241 9.01948 14.3168 8.05032 13.5022 7.26136C12.6875 6.4724 11.6868 6.07792 10.5 6.07792C9.31322 6.07792 8.3125 6.4724 7.49784 7.26136C6.68319 8.05032 6.27586 9.01948 6.27586 10.1688C6.27586 11.3182 6.68319 12.2873 7.49784 13.0763C8.3125 13.8653 9.31322 14.2597 10.5 14.2597ZM10.5 13.4416C9.53448 13.4416 8.72988 13.1299 8.08621 12.5065C7.44253 11.8831 7.12069 11.1039 7.12069 10.1688C7.12069 9.23377 7.44253 8.45455 8.08621 7.83117C8.72988 7.20779 9.53448 6.8961 10.5 6.8961C11.4655 6.8961 12.2701 7.20779 12.9138 7.83117C13.5575 8.45455 13.8793 9.23377 13.8793 10.1688C13.8793 11.1039 13.5575 11.8831 12.9138 12.5065C12.2701 13.1299 11.4655 13.4416 10.5 13.4416ZM1.81034 18C1.28736 18 0.854885 17.8344 0.512931 17.5032C0.170977 17.1721 0 16.7532 0 16.2468V4.09091C0 3.58442 0.170977 3.16558 0.512931 2.83442C0.854885 2.50325 1.28736 2.33766 1.81034 2.33766H5.31034L7.5431 0H13.4569L15.6897 2.33766H19.1897C19.7126 2.33766 20.1451 2.50325 20.4871 2.83442C20.829 3.16558 21 3.58442 21 4.09091V16.2468C21 16.7532 20.829 17.1721 20.4871 17.5032C20.1451 17.8344 19.7126 18 19.1897 18H1.81034ZM1.81034 17.1818H19.1897C19.4713 17.1818 19.7026 17.0942 19.8836 16.9188C20.0647 16.7435 20.1552 16.5195 20.1552 16.2468V4.09091C20.1552 3.81818 20.0647 3.59416 19.8836 3.41883C19.7026 3.24351 19.4713 3.15584 19.1897 3.15584H15.3276L13.0948 0.818182H7.90517L5.67241 3.15584H1.81034C1.52874 3.15584 1.29741 3.24351 1.11638 3.41883C0.935345 3.59416 0.844828 3.81818 0.844828 4.09091V16.2468C0.844828 16.5195 0.935345 16.7435 1.11638 16.9188C1.29741 17.0942 1.52874 17.1818 1.81034 17.1818Z" fill="#83B59F"/>
</svg>
