<svg width="20" height="18" viewBox="0 0 20 18" fill="none" xmlns="http://www.w3.org/2000/svg">
<path d="M2.63736 18V8.33432L0.467033 9.95858L0 9.37278L2.63736 7.40237V4.73964H3.40659V6.81657L10 1.94379L20 9.37278L19.533 9.95858L17.3626 8.33432V18H2.63736ZM3.40659 17.2544H8.35165V11.929H11.6484V17.2544H16.5934V7.77515L10 2.90237L3.40659 7.77515V17.2544ZM2.63736 3.40828C2.63736 2.84024 2.81593 2.35207 3.17308 1.94379C3.53022 1.5355 4.08425 1.33136 4.83516 1.33136C5.3663 1.33136 5.73718 1.20266 5.9478 0.945266C6.15842 0.68787 6.26374 0.372781 6.26374 0H7.03297C7.03297 0.568047 6.8544 1.05621 6.49725 1.4645C6.14011 1.87278 5.58608 2.07692 4.83516 2.07692C4.30403 2.07692 3.93315 2.20562 3.72253 2.46302C3.5119 2.72041 3.40659 3.0355 3.40659 3.40828H2.63736Z" fill="#83B59F"/>
</svg>
