<svg width="23" height="18" viewBox="0 0 23 18" fill="none" xmlns="http://www.w3.org/2000/svg">
<path d="M0 18V16.5556C0 16.1111 0.126802 15.7222 0.380407 15.3889C0.634012 15.0556 0.994911 14.7778 1.4631 14.5556C2.39949 14.1111 3.43342 13.7593 4.56489 13.5C5.69635 13.2407 6.7888 13.1111 7.84224 13.1111C8.89567 13.1111 9.98813 13.2407 11.1196 13.5C12.2511 13.7593 13.285 14.1111 14.2214 14.5556C14.6896 14.7778 15.0505 15.0556 15.3041 15.3889C15.5577 15.7222 15.6845 16.1111 15.6845 16.5556V18H0ZM0.819338 17.2222H14.8651V16.5556C14.8651 16.2222 14.7627 15.9537 14.5579 15.75C14.3531 15.5463 14.1043 15.3704 13.8117 15.2222C13.0704 14.8519 12.1486 14.537 11.0464 14.2778C9.94423 14.0185 8.87617 13.8889 7.84224 13.8889C6.80831 13.8889 5.74025 14.0185 4.63804 14.2778C3.53584 14.537 2.61408 14.8519 1.87277 15.2222C1.58015 15.3704 1.33142 15.5463 1.12659 15.75C0.921756 15.9537 0.819338 16.2222 0.819338 16.5556V17.2222ZM5.57443 9.375C4.97943 8.81019 4.68193 8.03704 4.68193 7.05556H4.44784C4.33079 7.05556 4.23325 7.01852 4.15522 6.94444C4.07718 6.87037 4.03817 6.77778 4.03817 6.66667C4.03817 6.55556 4.07718 6.46296 4.15522 6.38889C4.23325 6.31481 4.33079 6.27778 4.44784 6.27778H4.68193C4.72095 5.7963 4.81849 5.35648 4.97455 4.95833C5.13062 4.56019 5.42324 4.14815 5.85242 3.72222V4.77778C5.85242 4.88889 5.89143 4.98148 5.96947 5.05556C6.0475 5.12963 6.14504 5.16667 6.26209 5.16667C6.37913 5.16667 6.47668 5.12963 6.55471 5.05556C6.63274 4.98148 6.67176 4.88889 6.67176 4.77778V3.33333C6.82782 3.27778 7.00827 3.22685 7.2131 3.18056C7.41794 3.13426 7.62765 3.11111 7.84224 3.11111C8.05683 3.11111 8.26654 3.13426 8.47137 3.18056C8.67621 3.22685 8.85666 3.27778 9.01272 3.33333V4.77778C9.01272 4.88889 9.05174 4.98148 9.12977 5.05556C9.2078 5.12963 9.30534 5.16667 9.42239 5.16667C9.53944 5.16667 9.63698 5.12963 9.71501 5.05556C9.79304 4.98148 9.83206 4.88889 9.83206 4.77778V3.72222C10.2807 4.14815 10.5782 4.56019 10.7246 4.95833C10.8709 5.35648 10.9635 5.7963 11.0025 6.27778H11.2366C11.3537 6.27778 11.4512 6.31481 11.5293 6.38889C11.6073 6.46296 11.6463 6.55556 11.6463 6.66667C11.6463 6.77778 11.6073 6.87037 11.5293 6.94444C11.4512 7.01852 11.3537 7.05556 11.2366 7.05556H11.0025C11.0025 8.03704 10.705 8.81019 10.1101 9.375C9.51506 9.93981 8.75912 10.2222 7.84224 10.2222C6.92536 10.2222 6.16942 9.93981 5.57443 9.375ZM9.52481 8.81944C9.96374 8.40278 10.1832 7.87037 10.1832 7.22222H5.50127C5.50127 7.87037 5.72074 8.40278 6.15967 8.81944C6.5986 9.23611 7.15946 9.44444 7.84224 9.44444C8.52502 9.44444 9.08588 9.23611 9.52481 8.81944ZM16.6794 12.2778L16.6209 11.5C16.4648 11.463 16.299 11.3981 16.1234 11.3056C15.9478 11.213 15.8015 11.1111 15.6845 11L14.9237 11.3333L14.514 10.6667L15.2163 10.2222C15.1773 10.1296 15.1578 10.0463 15.1578 9.97222V9.48611C15.1578 9.4213 15.1773 9.33333 15.2163 9.22222L14.514 8.77778L14.9237 8.11111L15.6845 8.44444C15.8015 8.33333 15.9478 8.23148 16.1234 8.13889C16.299 8.0463 16.4648 7.98148 16.6209 7.94444L16.6794 7.16667H17.4987L17.5573 7.94444C17.7133 7.98148 17.8791 8.0463 18.0547 8.13889C18.2303 8.23148 18.3766 8.33333 18.4936 8.44444L19.2545 8.11111L19.6641 8.77778L18.9618 9.22222C19.0008 9.33333 19.0204 9.4213 19.0204 9.48611V9.97222C19.0204 10.0463 19.0008 10.1296 18.9618 10.2222L19.6641 10.6667L19.2545 11.3333L18.4936 11C18.3766 11.1111 18.2303 11.213 18.0547 11.3056C17.8791 11.3981 17.7133 11.463 17.5573 11.5L17.4987 12.2778H16.6794ZM17.8791 10.4722C18.0937 10.2685 18.201 10.0185 18.201 9.72222C18.201 9.42593 18.0937 9.17593 17.8791 8.97222C17.6645 8.76852 17.4012 8.66667 17.0891 8.66667C16.7769 8.66667 16.5136 8.76852 16.299 8.97222C16.0844 9.17593 15.9771 9.42593 15.9771 9.72222C15.9771 10.0185 16.0844 10.2685 16.299 10.4722C16.5136 10.6759 16.7769 10.7778 17.0891 10.7778C17.4012 10.7778 17.6645 10.6759 17.8791 10.4722ZM19.5471 6.11111L19.4885 5.33333C19.2545 5.2963 19.0008 5.20833 18.7277 5.06944C18.4546 4.93056 18.24 4.75926 18.084 4.55556L17.3232 4.88889L16.9135 4.22222L17.6158 3.77778C17.5768 3.66667 17.5475 3.5463 17.528 3.41667C17.5085 3.28704 17.4987 3.16667 17.4987 3.05556C17.4987 2.94444 17.5085 2.82407 17.528 2.69444C17.5475 2.56481 17.5768 2.44444 17.6158 2.33333L16.9135 1.88889L17.3232 1.22222L18.084 1.55556C18.24 1.35185 18.4546 1.18056 18.7277 1.04167C19.0008 0.902778 19.2545 0.814815 19.4885 0.777778L19.5471 0H20.3664L20.4249 0.777778C20.659 0.814815 20.9126 0.902778 21.1858 1.04167C21.4589 1.18056 21.6735 1.35185 21.8295 1.55556L22.5903 1.22222L23 1.88889L22.2977 2.33333C22.3367 2.44444 22.366 2.56481 22.3855 2.69444C22.405 2.82407 22.4148 2.94444 22.4148 3.05556C22.4148 3.16667 22.405 3.28704 22.3855 3.41667C22.366 3.5463 22.3367 3.66667 22.2977 3.77778L23 4.22222L22.5903 4.88889L21.8295 4.55556C21.6735 4.75926 21.4589 4.93056 21.1858 5.06944C20.9126 5.20833 20.659 5.2963 20.4249 5.33333L20.3664 6.11111H19.5471ZM21.1272 4.16667C21.4394 3.87037 21.5954 3.5 21.5954 3.05556C21.5954 2.61111 21.4394 2.24074 21.1272 1.94444C20.8151 1.64815 20.4249 1.5 19.9567 1.5C19.4885 1.5 19.0984 1.64815 18.7863 1.94444C18.4741 2.24074 18.3181 2.61111 18.3181 3.05556C18.3181 3.5 18.4741 3.87037 18.7863 4.16667C19.0984 4.46296 19.4885 4.61111 19.9567 4.61111C20.4249 4.61111 20.8151 4.46296 21.1272 4.16667Z" fill="#83B59F"/>
</svg>
