<svg width="18" height="18" viewBox="0 0 18 18" fill="none" xmlns="http://www.w3.org/2000/svg">
<path d="M5.37931 5.06897V4.34483H13.6552V5.06897H5.37931ZM5.37931 7.86207V7.13793H13.6552V7.86207H5.37931ZM7.75862 18H1.75862C1.25862 18 0.840517 17.8319 0.50431 17.4957C0.168103 17.1595 0 16.7414 0 16.2414V13.4483H3.10345V0H15.931V7.81035C15.7931 7.82759 15.6681 7.84914 15.556 7.875C15.444 7.90086 15.3276 7.93103 15.2069 7.96552V0.724138H3.82759V13.4483H9.15517L8.43103 14.1724H0.724138V16.2414C0.724138 16.5345 0.823276 16.7802 1.02155 16.9784C1.21983 17.1767 1.46552 17.2759 1.75862 17.2759H7.75862V18ZM10.3448 18V15.9828L15.8017 10.5517C15.8879 10.4655 15.9741 10.4095 16.0603 10.3836C16.1466 10.3578 16.2328 10.3448 16.319 10.3448C16.4052 10.3448 16.4957 10.3621 16.5905 10.3966C16.6853 10.431 16.7672 10.4828 16.8362 10.5517L17.7931 11.5345C17.8621 11.6207 17.9138 11.7069 17.9483 11.7931C17.9828 11.8793 18 11.9655 18 12.0517C18 12.1379 17.9828 12.2241 17.9483 12.3103C17.9138 12.3966 17.8621 12.4828 17.7931 12.569L12.3621 18H10.3448ZM11.069 17.2759H12.0517L15.7759 13.5517L15.2845 13.0603L14.819 12.5431L11.069 16.2931V17.2759ZM15.2845 13.0603L14.819 12.5431L15.7759 13.5517L15.2845 13.0603Z" fill="#83B59F"/>
</svg>
