<svg width="37" height="18" viewBox="0 0 37 18" fill="none" xmlns="http://www.w3.org/2000/svg">
<path d="M7.33106 10.3644C6.97867 9.99734 6.80248 9.54255 6.80248 9C6.80248 8.45745 6.97867 8.00266 7.33106 7.63564C7.68344 7.26862 8.12008 7.08511 8.64099 7.08511C9.1619 7.08511 9.59855 7.26862 9.95093 7.63564C10.3033 8.00266 10.4795 8.45745 10.4795 9C10.4795 9.54255 10.3033 9.99734 9.95093 10.3644C9.59855 10.7314 9.1619 10.9149 8.64099 10.9149C8.12008 10.9149 7.68344 10.7314 7.33106 10.3644ZM8.64099 18C6.25093 18 4.21325 17.1223 2.52795 15.367C0.84265 13.6117 0 11.4894 0 9C0 6.51064 0.84265 4.3883 2.52795 2.63298C4.21325 0.87766 6.25093 0 8.64099 0C10.4795 0 12.1342 0.534574 13.605 1.60372C15.0758 2.67287 16.1176 4.05319 16.7304 5.74468H33.8745L37 9L31.8522 14.266L28.8646 11.9202L25.6472 14.3617L22.5677 12.2553H16.7304C16.1176 13.9149 15.0758 15.2872 13.605 16.3723C12.1342 17.4574 10.4795 18 8.64099 18ZM8.64099 16.6596C10.4795 16.6596 12.0346 16.0851 13.3062 14.9362C14.5778 13.7872 15.3822 12.4468 15.7193 10.9149H22.9814L25.6012 12.734L28.9106 10.2926L31.8062 12.5426L35.2075 9L33.3689 7.08511H15.7193C15.3822 5.55319 14.5778 4.21277 13.3062 3.06383C12.0346 1.91489 10.4795 1.34043 8.64099 1.34043C6.61863 1.34043 4.88737 2.09043 3.4472 3.59043C2.00704 5.09043 1.28696 6.89362 1.28696 9C1.28696 11.1064 2.00704 12.9096 3.4472 14.4096C4.88737 15.9096 6.61863 16.6596 8.64099 16.6596Z" fill="#83B59F"/>
</svg>
