<svg width="25" height="18" viewBox="0 0 25 18" fill="none" xmlns="http://www.w3.org/2000/svg">
<path d="M3.66667 18C2.63636 18 1.76768 17.6429 1.06061 16.9286C0.353535 16.2143 0 15.3367 0 14.2959C0 14.1327 0.0050505 13.9796 0.0151515 13.8367C0.0252525 13.6939 0.0505051 13.5408 0.0909091 13.3776L2.63636 3.09184C2.87879 2.17347 3.36364 1.42857 4.09091 0.857143C4.81818 0.285714 5.64646 0 6.57576 0H18.3939C19.3232 0 20.1515 0.285714 20.8788 0.857143C21.6061 1.42857 22.0909 2.17347 22.3333 3.09184L24.8788 13.3776C24.9192 13.5408 24.9495 13.699 24.9697 13.852C24.9899 14.0051 25 14.1633 25 14.3265C25 15.3673 24.6414 16.2398 23.9242 16.9439C23.2071 17.648 22.3333 18 21.303 18C20.596 18 19.9495 17.8112 19.3636 17.4337C18.7778 17.0561 18.3232 16.551 18 15.9184L17.1212 14.1122C16.9596 13.7653 16.7172 13.5102 16.3939 13.3469C16.0707 13.1837 15.7273 13.102 15.3636 13.102H9.60606C9.24242 13.102 8.89899 13.1837 8.57576 13.3469C8.25253 13.5102 8.0101 13.7653 7.84849 14.1122L6.9697 15.9184C6.66667 16.5714 6.21717 17.0816 5.62121 17.449C5.02525 17.8163 4.37374 18 3.66667 18ZM3.75758 17.1429C4.28283 17.1429 4.76768 17 5.21212 16.7143C5.65657 16.4286 5.9899 16.051 6.21212 15.5816L7.06061 13.8061C7.30303 13.3163 7.65657 12.9337 8.12121 12.6582C8.58586 12.3827 9.08081 12.2449 9.60606 12.2449H15.3636C15.9091 12.2449 16.4091 12.3929 16.8636 12.6888C17.3182 12.9847 17.6768 13.3673 17.9394 13.8367L18.7879 15.5816C19.0101 16.051 19.3434 16.4286 19.7879 16.7143C20.2323 17 20.7172 17.1429 21.2424 17.1429C22.0303 17.1429 22.7071 16.8724 23.2727 16.3316C23.8384 15.7908 24.1212 15.1327 24.1212 14.3571C24.1212 14.2959 24.0909 14.0408 24.0303 13.5918L21.4848 3.33673C21.303 2.62245 20.9242 2.03061 20.3485 1.56122C19.7727 1.09184 19.1212 0.857143 18.3939 0.857143H6.57576C5.82828 0.857143 5.16667 1.09184 4.59091 1.56122C4.01515 2.03061 3.64646 2.62245 3.48485 3.33673L0.939394 13.5918C0.919192 13.6735 0.888889 13.9184 0.848485 14.3265C0.848485 15.1224 1.13636 15.7908 1.71212 16.3316C2.28788 16.8724 2.9697 17.1429 3.75758 17.1429ZM14.8939 7.14796C15.0657 6.97449 15.1515 6.77551 15.1515 6.55102C15.1515 6.32653 15.0657 6.12755 14.8939 5.95408C14.7222 5.78061 14.5253 5.69388 14.303 5.69388C14.0808 5.69388 13.8838 5.78061 13.7121 5.95408C13.5404 6.12755 13.4545 6.32653 13.4545 6.55102C13.4545 6.77551 13.5404 6.97449 13.7121 7.14796C13.8838 7.32143 14.0808 7.40816 14.303 7.40816C14.5253 7.40816 14.7222 7.32143 14.8939 7.14796ZM17.3182 4.69898C17.4899 4.52551 17.5758 4.32653 17.5758 4.10204C17.5758 3.87755 17.4899 3.67857 17.3182 3.5051C17.1465 3.33163 16.9495 3.2449 16.7273 3.2449C16.5051 3.2449 16.3081 3.33163 16.1364 3.5051C15.9646 3.67857 15.8788 3.87755 15.8788 4.10204C15.8788 4.32653 15.9646 4.52551 16.1364 4.69898C16.3081 4.87245 16.5051 4.95918 16.7273 4.95918C16.9495 4.95918 17.1465 4.87245 17.3182 4.69898ZM17.3182 9.59694C17.4899 9.42347 17.5758 9.22449 17.5758 9C17.5758 8.77551 17.4899 8.57653 17.3182 8.40306C17.1465 8.22959 16.9495 8.14286 16.7273 8.14286C16.5051 8.14286 16.3081 8.22959 16.1364 8.40306C15.9646 8.57653 15.8788 8.77551 15.8788 9C15.8788 9.22449 15.9646 9.42347 16.1364 9.59694C16.3081 9.77041 16.5051 9.85714 16.7273 9.85714C16.9495 9.85714 17.1465 9.77041 17.3182 9.59694ZM19.7424 7.14796C19.9141 6.97449 20 6.77551 20 6.55102C20 6.32653 19.9141 6.12755 19.7424 5.95408C19.5707 5.78061 19.3737 5.69388 19.1515 5.69388C18.9293 5.69388 18.7323 5.78061 18.5606 5.95408C18.3889 6.12755 18.303 6.32653 18.303 6.55102C18.303 6.77551 18.3889 6.97449 18.5606 7.14796C18.7323 7.32143 18.9293 7.40816 19.1515 7.40816C19.3737 7.40816 19.5707 7.32143 19.7424 7.14796ZM8.54545 9C8.62626 8.91837 8.66667 8.81633 8.66667 8.69388V6.97959H10.3636C10.4848 6.97959 10.5859 6.93878 10.6667 6.85714C10.7475 6.77551 10.7879 6.67347 10.7879 6.55102C10.7879 6.42857 10.7475 6.32653 10.6667 6.2449C10.5859 6.16327 10.4848 6.12245 10.3636 6.12245H8.66667V4.40816C8.66667 4.28571 8.62626 4.18367 8.54545 4.10204C8.46465 4.02041 8.36364 3.97959 8.24242 3.97959C8.12121 3.97959 8.0202 4.02041 7.93939 4.10204C7.85859 4.18367 7.81818 4.28571 7.81818 4.40816V6.12245H6.12121C6 6.12245 5.89899 6.16327 5.81818 6.2449C5.73737 6.32653 5.69697 6.42857 5.69697 6.55102C5.69697 6.67347 5.73737 6.77551 5.81818 6.85714C5.89899 6.93878 6 6.97959 6.12121 6.97959H7.81818V8.69388C7.81818 8.81633 7.85859 8.91837 7.93939 9C8.0202 9.08163 8.12121 9.12245 8.24242 9.12245C8.36364 9.12245 8.46465 9.08163 8.54545 9Z" fill="#83B59F"/>
</svg>
