<svg width="1400" height="463" viewBox="0 0 1400 463" fill="none" xmlns="http://www.w3.org/2000/svg">
<mask id="mask0_86_5" style="mask-type:alpha" maskUnits="userSpaceOnUse" x="200" y="200" width="1000" height="500">
<ellipse cx="700" cy="450" rx="500" ry="250" fill="white"/>
</mask>
<g mask="url(#mask0_86_5)">
<circle cx="220" cy="201" r="2" fill="white" fill-opacity="0.3" style="mix-blend-mode:overlay"/>
<circle cx="220" cy="225" r="2" fill="white" fill-opacity="0.7" style="mix-blend-mode:overlay"/>
<circle cx="220" cy="249" r="2" fill="white" fill-opacity="0.7" style="mix-blend-mode:overlay"/>
<circle cx="220" cy="273" r="2" fill="white" fill-opacity="0.3" style="mix-blend-mode:overlay"/>
<circle cx="220" cy="297" r="2" fill="white" fill-opacity="0.3" style="mix-blend-mode:overlay"/>
<circle cx="220" cy="321" r="2" fill="white" fill-opacity="0.7" style="mix-blend-mode:overlay"/>
<circle cx="220" cy="345" r="2" fill="white" fill-opacity="0.3" style="mix-blend-mode:overlay"/>
<circle cx="220" cy="369" r="2" fill="white" fill-opacity="0.3" style="mix-blend-mode:overlay"/>
<circle cx="220" cy="393" r="2" fill="white" fill-opacity="0.3" style="mix-blend-mode:overlay"/>
<circle cx="220" cy="417" r="2" fill="white" fill-opacity="0.7" style="mix-blend-mode:overlay"/>
<circle cx="220" cy="441" r="2" fill="white" fill-opacity="0.3" style="mix-blend-mode:overlay"/>
<circle cx="244" cy="201" r="2" fill="white" fill-opacity="0.7" style="mix-blend-mode:overlay"/>
<circle cx="244" cy="225" r="2" fill="white" fill-opacity="0.3" style="mix-blend-mode:overlay"/>
<circle cx="244" cy="249" r="2" fill="white" fill-opacity="0.3" style="mix-blend-mode:overlay"/>
<circle cx="244" cy="273" r="2" fill="white" fill-opacity="0.3" style="mix-blend-mode:overlay"/>
<circle cx="244" cy="297" r="2" fill="white" fill-opacity="0.3" style="mix-blend-mode:overlay"/>
<circle cx="244" cy="321" r="2" fill="white" fill-opacity="0.3" style="mix-blend-mode:overlay"/>
<circle cx="244" cy="345" r="2" fill="white" fill-opacity="0.7" style="mix-blend-mode:overlay"/>
<circle cx="244" cy="369" r="2" fill="white" fill-opacity="0.3" style="mix-blend-mode:overlay"/>
<circle cx="244" cy="393" r="2" fill="white" fill-opacity="0.3" style="mix-blend-mode:overlay"/>
<circle cx="244" cy="417" r="2" fill="white" fill-opacity="0.7" style="mix-blend-mode:overlay"/>
<circle cx="244" cy="441" r="2" fill="white" fill-opacity="0.3" style="mix-blend-mode:overlay"/>
<circle cx="268" cy="201" r="2" fill="white" fill-opacity="0.7" style="mix-blend-mode:overlay"/>
<circle cx="268" cy="225" r="2" fill="white" fill-opacity="0.7" style="mix-blend-mode:overlay"/>
<circle cx="268" cy="249" r="2" fill="white" fill-opacity="0.3" style="mix-blend-mode:overlay"/>
<circle cx="268" cy="273" r="2" fill="white" fill-opacity="0.3" style="mix-blend-mode:overlay"/>
<circle cx="268" cy="297" r="2" fill="white" fill-opacity="0.3" style="mix-blend-mode:overlay"/>
<circle cx="268" cy="321" r="2" fill="white" fill-opacity="0.3" style="mix-blend-mode:overlay"/>
<circle cx="268" cy="345" r="2" fill="white" fill-opacity="0.7" style="mix-blend-mode:overlay"/>
<circle cx="268" cy="369" r="2" fill="white" fill-opacity="0.3" style="mix-blend-mode:overlay"/>
<circle cx="268" cy="393" r="2" fill="white" fill-opacity="0.3" style="mix-blend-mode:overlay"/>
<circle cx="268" cy="417" r="2" fill="white" fill-opacity="0.3" style="mix-blend-mode:overlay"/>
<circle cx="268" cy="441" r="2" fill="white" fill-opacity="0.3" style="mix-blend-mode:overlay"/>
<circle cx="292" cy="201" r="2" fill="white" fill-opacity="0.3" style="mix-blend-mode:overlay"/>
<circle cx="292" cy="225" r="2" fill="white" fill-opacity="0.7" style="mix-blend-mode:overlay"/>
<circle cx="292" cy="249" r="2" fill="white" fill-opacity="0.7" style="mix-blend-mode:overlay"/>
<circle cx="292" cy="273" r="2" fill="white" fill-opacity="0.7" style="mix-blend-mode:overlay"/>
<circle cx="292" cy="297" r="2" fill="white" fill-opacity="0.3" style="mix-blend-mode:overlay"/>
<circle cx="292" cy="321" r="2" fill="white" fill-opacity="0.3" style="mix-blend-mode:overlay"/>
<circle cx="292" cy="345" r="2" fill="white" fill-opacity="0.3" style="mix-blend-mode:overlay"/>
<circle cx="292" cy="369" r="2" fill="white" fill-opacity="0.3" style="mix-blend-mode:overlay"/>
<circle cx="292" cy="393" r="2" fill="white" fill-opacity="0.3" style="mix-blend-mode:overlay"/>
<circle cx="292" cy="417" r="2" fill="white" fill-opacity="0.3" style="mix-blend-mode:overlay"/>
<circle cx="292" cy="441" r="2" fill="white" fill-opacity="0.3" style="mix-blend-mode:overlay"/>
<circle cx="316" cy="201" r="2" fill="white" fill-opacity="0.3" style="mix-blend-mode:overlay"/>
<circle cx="316" cy="225" r="2" fill="white" fill-opacity="0.3" style="mix-blend-mode:overlay"/>
<circle cx="316" cy="249" r="2" fill="white" fill-opacity="0.3" style="mix-blend-mode:overlay"/>
<circle cx="316" cy="273" r="2" fill="white" fill-opacity="0.3" style="mix-blend-mode:overlay"/>
<circle cx="316" cy="297" r="2" fill="white" fill-opacity="0.3" style="mix-blend-mode:overlay"/>
<circle cx="316" cy="321" r="2" fill="white" fill-opacity="0.3" style="mix-blend-mode:overlay"/>
<circle cx="316" cy="345" r="2" fill="white" fill-opacity="0.3" style="mix-blend-mode:overlay"/>
<circle cx="316" cy="369" r="2" fill="white" fill-opacity="0.3" style="mix-blend-mode:overlay"/>
<circle cx="316" cy="393" r="2" fill="white" fill-opacity="0.3" style="mix-blend-mode:overlay"/>
<circle cx="316" cy="417" r="2" fill="white" fill-opacity="0.7" style="mix-blend-mode:overlay"/>
<circle cx="316" cy="441" r="2" fill="white" fill-opacity="0.3" style="mix-blend-mode:overlay"/>
<circle cx="340" cy="201" r="2" fill="white" fill-opacity="0.3" style="mix-blend-mode:overlay"/>
<circle cx="340" cy="225" r="2" fill="white" fill-opacity="0.3" style="mix-blend-mode:overlay"/>
<circle cx="340" cy="249" r="2" fill="white" fill-opacity="0.3" style="mix-blend-mode:overlay"/>
<circle cx="340" cy="273" r="2" fill="white" fill-opacity="0.3" style="mix-blend-mode:overlay"/>
<circle cx="340" cy="297" r="2" fill="white" fill-opacity="0.3" style="mix-blend-mode:overlay"/>
<circle cx="340" cy="321" r="2" fill="white" fill-opacity="0.3" style="mix-blend-mode:overlay"/>
<circle cx="340" cy="345" r="2" fill="white" fill-opacity="0.3" style="mix-blend-mode:overlay"/>
<circle cx="340" cy="369" r="2" fill="white" fill-opacity="0.7" style="mix-blend-mode:overlay"/>
<circle cx="340" cy="393" r="2" fill="white" fill-opacity="0.7" style="mix-blend-mode:overlay"/>
<circle cx="340" cy="417" r="2" fill="white" fill-opacity="0.7" style="mix-blend-mode:overlay"/>
<circle cx="340" cy="441" r="2" fill="white" fill-opacity="0.3" style="mix-blend-mode:overlay"/>
<circle cx="364" cy="201" r="2" fill="white" fill-opacity="0.7" style="mix-blend-mode:overlay"/>
<circle cx="364" cy="225" r="2" fill="white" fill-opacity="0.3" style="mix-blend-mode:overlay"/>
<circle cx="364" cy="249" r="2" fill="white" fill-opacity="0.3" style="mix-blend-mode:overlay"/>
<circle cx="364" cy="273" r="2" fill="white" fill-opacity="0.7" style="mix-blend-mode:overlay"/>
<circle cx="364" cy="297" r="2" fill="white" fill-opacity="0.3" style="mix-blend-mode:overlay"/>
<circle cx="364" cy="321" r="2" fill="white" fill-opacity="0.7" style="mix-blend-mode:overlay"/>
<circle cx="364" cy="345" r="2" fill="white" fill-opacity="0.7" style="mix-blend-mode:overlay"/>
<circle cx="364" cy="369" r="2" fill="white" fill-opacity="0.3" style="mix-blend-mode:overlay"/>
<circle cx="364" cy="393" r="2" fill="white" fill-opacity="0.7" style="mix-blend-mode:overlay"/>
<circle cx="364" cy="417" r="2" fill="white" fill-opacity="0.3" style="mix-blend-mode:overlay"/>
<circle cx="364" cy="441" r="2" fill="white" fill-opacity="0.3" style="mix-blend-mode:overlay"/>
<circle cx="388" cy="201" r="2" fill="white" fill-opacity="0.7" style="mix-blend-mode:overlay"/>
<circle cx="388" cy="225" r="2" fill="white" fill-opacity="0.3" style="mix-blend-mode:overlay"/>
<circle cx="388" cy="249" r="2" fill="white" fill-opacity="0.7" style="mix-blend-mode:overlay"/>
<circle cx="388" cy="273" r="2" fill="white" fill-opacity="0.3" style="mix-blend-mode:overlay"/>
<circle cx="388" cy="297" r="2" fill="white" fill-opacity="0.3" style="mix-blend-mode:overlay"/>
<circle cx="388" cy="321" r="2" fill="white" fill-opacity="0.3" style="mix-blend-mode:overlay"/>
<circle cx="388" cy="345" r="2" fill="white" fill-opacity="0.3" style="mix-blend-mode:overlay"/>
<circle cx="388" cy="369" r="2" fill="white" fill-opacity="0.3" style="mix-blend-mode:overlay"/>
<circle cx="388" cy="393" r="2" fill="white" fill-opacity="0.7" style="mix-blend-mode:overlay"/>
<circle cx="388" cy="417" r="2" fill="white" fill-opacity="0.7" style="mix-blend-mode:overlay"/>
<circle cx="388" cy="441" r="2" fill="white" fill-opacity="0.7" style="mix-blend-mode:overlay"/>
<circle cx="412" cy="201" r="2" fill="white" fill-opacity="0.3" style="mix-blend-mode:overlay"/>
<circle cx="412" cy="225" r="2" fill="white" fill-opacity="0.3" style="mix-blend-mode:overlay"/>
<circle cx="412" cy="249" r="2" fill="white" fill-opacity="0.7" style="mix-blend-mode:overlay"/>
<circle cx="412" cy="273" r="2" fill="white" fill-opacity="0.3" style="mix-blend-mode:overlay"/>
<circle cx="412" cy="297" r="2" fill="white" fill-opacity="0.7" style="mix-blend-mode:overlay"/>
<circle cx="412" cy="321" r="2" fill="white" fill-opacity="0.7" style="mix-blend-mode:overlay"/>
<circle cx="412" cy="345" r="2" fill="white" fill-opacity="0.3" style="mix-blend-mode:overlay"/>
<circle cx="412" cy="369" r="2" fill="white" fill-opacity="0.3" style="mix-blend-mode:overlay"/>
<circle cx="412" cy="393" r="2" fill="white" fill-opacity="0.7" style="mix-blend-mode:overlay"/>
<circle cx="412" cy="417" r="2" fill="white" fill-opacity="0.3" style="mix-blend-mode:overlay"/>
<circle cx="412" cy="441" r="2" fill="white" fill-opacity="0.3" style="mix-blend-mode:overlay"/>
<circle cx="436" cy="201" r="2" fill="white" fill-opacity="0.7" style="mix-blend-mode:overlay"/>
<circle cx="436" cy="225" r="2" fill="white" fill-opacity="0.3" style="mix-blend-mode:overlay"/>
<circle cx="436" cy="249" r="2" fill="white" fill-opacity="0.7" style="mix-blend-mode:overlay"/>
<circle cx="436" cy="273" r="2" fill="white" fill-opacity="0.3" style="mix-blend-mode:overlay"/>
<circle cx="436" cy="297" r="2" fill="white" fill-opacity="0.7" style="mix-blend-mode:overlay"/>
<circle cx="436" cy="321" r="2" fill="white" fill-opacity="0.3" style="mix-blend-mode:overlay"/>
<circle cx="436" cy="345" r="2" fill="white" fill-opacity="0.3" style="mix-blend-mode:overlay"/>
<circle cx="436" cy="369" r="2" fill="white" fill-opacity="0.3" style="mix-blend-mode:overlay"/>
<circle cx="436" cy="393" r="2" fill="white" fill-opacity="0.3" style="mix-blend-mode:overlay"/>
<circle cx="436" cy="417" r="2" fill="white" fill-opacity="0.3" style="mix-blend-mode:overlay"/>
<circle cx="436" cy="441" r="2" fill="white" fill-opacity="0.3" style="mix-blend-mode:overlay"/>
<circle cx="460" cy="201" r="2" fill="white" fill-opacity="0.3" style="mix-blend-mode:overlay"/>
<circle cx="460" cy="225" r="2" fill="white" fill-opacity="0.3" style="mix-blend-mode:overlay"/>
<circle cx="460" cy="249" r="2" fill="white" fill-opacity="0.3" style="mix-blend-mode:overlay"/>
<circle cx="460" cy="273" r="2" fill="white" fill-opacity="0.3" style="mix-blend-mode:overlay"/>
<circle cx="460" cy="297" r="2" fill="white" fill-opacity="0.7" style="mix-blend-mode:overlay"/>
<circle cx="460" cy="321" r="2" fill="white" fill-opacity="0.3" style="mix-blend-mode:overlay"/>
<circle cx="460" cy="345" r="2" fill="white" fill-opacity="0.3" style="mix-blend-mode:overlay"/>
<circle cx="460" cy="369" r="2" fill="white" fill-opacity="0.3" style="mix-blend-mode:overlay"/>
<circle cx="460" cy="393" r="2" fill="white" fill-opacity="0.3" style="mix-blend-mode:overlay"/>
<circle cx="460" cy="417" r="2" fill="white" fill-opacity="0.3" style="mix-blend-mode:overlay"/>
<circle cx="460" cy="441" r="2" fill="white" fill-opacity="0.3" style="mix-blend-mode:overlay"/>
<circle cx="484" cy="201" r="2" fill="white" fill-opacity="0.7" style="mix-blend-mode:overlay"/>
<circle cx="484" cy="225" r="2" fill="white" fill-opacity="0.7" style="mix-blend-mode:overlay"/>
<circle cx="484" cy="249" r="2" fill="white" fill-opacity="0.3" style="mix-blend-mode:overlay"/>
<circle cx="484" cy="273" r="2" fill="white" fill-opacity="0.7" style="mix-blend-mode:overlay"/>
<circle cx="484" cy="297" r="2" fill="white" fill-opacity="0.7" style="mix-blend-mode:overlay"/>
<circle cx="484" cy="321" r="2" fill="white" fill-opacity="0.3" style="mix-blend-mode:overlay"/>
<circle cx="484" cy="345" r="2" fill="white" fill-opacity="0.7" style="mix-blend-mode:overlay"/>
<circle cx="484" cy="369" r="2" fill="white" fill-opacity="0.3" style="mix-blend-mode:overlay"/>
<circle cx="484" cy="393" r="2" fill="white" fill-opacity="0.3" style="mix-blend-mode:overlay"/>
<circle cx="484" cy="417" r="2" fill="white" fill-opacity="0.7" style="mix-blend-mode:overlay"/>
<circle cx="484" cy="441" r="2" fill="white" fill-opacity="0.3" style="mix-blend-mode:overlay"/>
<circle cx="508" cy="201" r="2" fill="white" fill-opacity="0.3" style="mix-blend-mode:overlay"/>
<circle cx="508" cy="225" r="2" fill="white" fill-opacity="0.3" style="mix-blend-mode:overlay"/>
<circle cx="508" cy="249" r="2" fill="white" fill-opacity="0.3" style="mix-blend-mode:overlay"/>
<circle cx="508" cy="273" r="2" fill="white" fill-opacity="0.3" style="mix-blend-mode:overlay"/>
<circle cx="508" cy="297" r="2" fill="white" fill-opacity="0.3" style="mix-blend-mode:overlay"/>
<circle cx="508" cy="321" r="2" fill="white" fill-opacity="0.3" style="mix-blend-mode:overlay"/>
<circle cx="508" cy="345" r="2" fill="white" fill-opacity="0.7" style="mix-blend-mode:overlay"/>
<circle cx="508" cy="369" r="2" fill="white" fill-opacity="0.3" style="mix-blend-mode:overlay"/>
<circle cx="508" cy="393" r="2" fill="white" fill-opacity="0.7" style="mix-blend-mode:overlay"/>
<circle cx="508" cy="417" r="2" fill="white" fill-opacity="0.7" style="mix-blend-mode:overlay"/>
<circle cx="508" cy="441" r="2" fill="white" fill-opacity="0.3" style="mix-blend-mode:overlay"/>
<circle cx="532" cy="201" r="2" fill="white" fill-opacity="0.3" style="mix-blend-mode:overlay"/>
<circle cx="532" cy="225" r="2" fill="white" fill-opacity="0.7" style="mix-blend-mode:overlay"/>
<circle cx="532" cy="249" r="2" fill="white" fill-opacity="0.3" style="mix-blend-mode:overlay"/>
<circle cx="532" cy="273" r="2" fill="white" fill-opacity="0.7" style="mix-blend-mode:overlay"/>
<circle cx="532" cy="297" r="2" fill="white" fill-opacity="0.3" style="mix-blend-mode:overlay"/>
<circle cx="532" cy="321" r="2" fill="white" fill-opacity="0.3" style="mix-blend-mode:overlay"/>
<circle cx="532" cy="345" r="2" fill="white" fill-opacity="0.7" style="mix-blend-mode:overlay"/>
<circle cx="532" cy="369" r="2" fill="white" fill-opacity="0.7" style="mix-blend-mode:overlay"/>
<circle cx="532" cy="393" r="2" fill="white" fill-opacity="0.7" style="mix-blend-mode:overlay"/>
<circle cx="532" cy="417" r="2" fill="white" fill-opacity="0.3" style="mix-blend-mode:overlay"/>
<circle cx="532" cy="441" r="2" fill="white" fill-opacity="0.7" style="mix-blend-mode:overlay"/>
<circle cx="556" cy="201" r="2" fill="white" fill-opacity="0.3" style="mix-blend-mode:overlay"/>
<circle cx="556" cy="225" r="2" fill="white" fill-opacity="0.3" style="mix-blend-mode:overlay"/>
<circle cx="556" cy="249" r="2" fill="white" fill-opacity="0.3" style="mix-blend-mode:overlay"/>
<circle cx="556" cy="273" r="2" fill="white" fill-opacity="0.3" style="mix-blend-mode:overlay"/>
<circle cx="556" cy="297" r="2" fill="white" fill-opacity="0.3" style="mix-blend-mode:overlay"/>
<circle cx="556" cy="321" r="2" fill="white" fill-opacity="0.7" style="mix-blend-mode:overlay"/>
<circle cx="556" cy="345" r="2" fill="white" fill-opacity="0.3" style="mix-blend-mode:overlay"/>
<circle cx="556" cy="369" r="2" fill="white" fill-opacity="0.3" style="mix-blend-mode:overlay"/>
<circle cx="556" cy="393" r="2" fill="white" fill-opacity="0.3" style="mix-blend-mode:overlay"/>
<circle cx="556" cy="417" r="2" fill="white" fill-opacity="0.3" style="mix-blend-mode:overlay"/>
<circle cx="556" cy="441" r="2" fill="white" fill-opacity="0.7" style="mix-blend-mode:overlay"/>
<circle cx="580" cy="201" r="2" fill="white" fill-opacity="0.7" style="mix-blend-mode:overlay"/>
<circle cx="580" cy="225" r="2" fill="white" fill-opacity="0.7" style="mix-blend-mode:overlay"/>
<circle cx="580" cy="249" r="2" fill="white" fill-opacity="0.3" style="mix-blend-mode:overlay"/>
<circle cx="580" cy="273" r="2" fill="white" fill-opacity="0.3" style="mix-blend-mode:overlay"/>
<circle cx="580" cy="297" r="2" fill="white" fill-opacity="0.7" style="mix-blend-mode:overlay"/>
<circle cx="580" cy="321" r="2" fill="white" fill-opacity="0.3" style="mix-blend-mode:overlay"/>
<circle cx="580" cy="345" r="2" fill="white" fill-opacity="0.3" style="mix-blend-mode:overlay"/>
<circle cx="580" cy="369" r="2" fill="white" fill-opacity="0.3" style="mix-blend-mode:overlay"/>
<circle cx="580" cy="393" r="2" fill="white" fill-opacity="0.7" style="mix-blend-mode:overlay"/>
<circle cx="580" cy="417" r="2" fill="white" fill-opacity="0.3" style="mix-blend-mode:overlay"/>
<circle cx="580" cy="441" r="2" fill="white" fill-opacity="0.3" style="mix-blend-mode:overlay"/>
<circle cx="604" cy="201" r="2" fill="white" fill-opacity="0.3" style="mix-blend-mode:overlay"/>
<circle cx="604" cy="225" r="2" fill="white" fill-opacity="0.3" style="mix-blend-mode:overlay"/>
<circle cx="604" cy="249" r="2" fill="white" fill-opacity="0.3" style="mix-blend-mode:overlay"/>
<circle cx="604" cy="273" r="2" fill="white" fill-opacity="0.3" style="mix-blend-mode:overlay"/>
<circle cx="604" cy="297" r="2" fill="white" fill-opacity="0.7" style="mix-blend-mode:overlay"/>
<circle cx="604" cy="321" r="2" fill="white" fill-opacity="0.3" style="mix-blend-mode:overlay"/>
<circle cx="604" cy="345" r="2" fill="white" fill-opacity="0.7" style="mix-blend-mode:overlay"/>
<circle cx="604" cy="369" r="2" fill="white" fill-opacity="0.3" style="mix-blend-mode:overlay"/>
<circle cx="604" cy="393" r="2" fill="white" fill-opacity="0.7" style="mix-blend-mode:overlay"/>
<circle cx="604" cy="417" r="2" fill="white" fill-opacity="0.3" style="mix-blend-mode:overlay"/>
<circle cx="604" cy="441" r="2" fill="white" fill-opacity="0.3" style="mix-blend-mode:overlay"/>
<circle cx="628" cy="201" r="2" fill="white" fill-opacity="0.3" style="mix-blend-mode:overlay"/>
<circle cx="628" cy="225" r="2" fill="white" fill-opacity="0.3" style="mix-blend-mode:overlay"/>
<circle cx="628" cy="249" r="2" fill="white" fill-opacity="0.7" style="mix-blend-mode:overlay"/>
<circle cx="628" cy="273" r="2" fill="white" fill-opacity="0.3" style="mix-blend-mode:overlay"/>
<circle cx="628" cy="297" r="2" fill="white" fill-opacity="0.3" style="mix-blend-mode:overlay"/>
<circle cx="628" cy="321" r="2" fill="white" fill-opacity="0.3" style="mix-blend-mode:overlay"/>
<circle cx="628" cy="345" r="2" fill="white" fill-opacity="0.3" style="mix-blend-mode:overlay"/>
<circle cx="628" cy="369" r="2" fill="white" fill-opacity="0.3" style="mix-blend-mode:overlay"/>
<circle cx="628" cy="393" r="2" fill="white" fill-opacity="0.7" style="mix-blend-mode:overlay"/>
<circle cx="628" cy="417" r="2" fill="white" fill-opacity="0.3" style="mix-blend-mode:overlay"/>
<circle cx="628" cy="441" r="2" fill="white" fill-opacity="0.3" style="mix-blend-mode:overlay"/>
<circle cx="652" cy="201" r="2" fill="white" fill-opacity="0.7" style="mix-blend-mode:overlay"/>
<circle cx="652" cy="225" r="2" fill="white" fill-opacity="0.7" style="mix-blend-mode:overlay"/>
<circle cx="652" cy="249" r="2" fill="white" fill-opacity="0.3" style="mix-blend-mode:overlay"/>
<circle cx="652" cy="273" r="2" fill="white" fill-opacity="0.3" style="mix-blend-mode:overlay"/>
<circle cx="652" cy="297" r="2" fill="white" fill-opacity="0.7" style="mix-blend-mode:overlay"/>
<circle cx="652" cy="321" r="2" fill="white" fill-opacity="0.3" style="mix-blend-mode:overlay"/>
<circle cx="652" cy="345" r="2" fill="white" fill-opacity="0.3" style="mix-blend-mode:overlay"/>
<circle cx="652" cy="369" r="2" fill="white" fill-opacity="0.3" style="mix-blend-mode:overlay"/>
<circle cx="652" cy="393" r="2" fill="white" fill-opacity="0.3" style="mix-blend-mode:overlay"/>
<circle cx="652" cy="417" r="2" fill="white" fill-opacity="0.3" style="mix-blend-mode:overlay"/>
<circle cx="652" cy="441" r="2" fill="white" fill-opacity="0.7" style="mix-blend-mode:overlay"/>
<circle cx="676" cy="201" r="2" fill="white" fill-opacity="0.3" style="mix-blend-mode:overlay"/>
<circle cx="676" cy="225" r="2" fill="white" fill-opacity="0.3" style="mix-blend-mode:overlay"/>
<circle cx="676" cy="249" r="2" fill="white" fill-opacity="0.3" style="mix-blend-mode:overlay"/>
<circle cx="676" cy="273" r="2" fill="white" fill-opacity="0.3" style="mix-blend-mode:overlay"/>
<circle cx="676" cy="297" r="2" fill="white" fill-opacity="0.3" style="mix-blend-mode:overlay"/>
<circle cx="676" cy="321" r="2" fill="white" fill-opacity="0.3" style="mix-blend-mode:overlay"/>
<circle cx="676" cy="345" r="2" fill="white" fill-opacity="0.3" style="mix-blend-mode:overlay"/>
<circle cx="676" cy="369" r="2" fill="white" fill-opacity="0.7" style="mix-blend-mode:overlay"/>
<circle cx="676" cy="393" r="2" fill="white" fill-opacity="0.3" style="mix-blend-mode:overlay"/>
<circle cx="676" cy="417" r="2" fill="white" fill-opacity="0.3" style="mix-blend-mode:overlay"/>
<circle cx="676" cy="441" r="2" fill="white" fill-opacity="0.3" style="mix-blend-mode:overlay"/>
<circle cx="700" cy="201" r="2" fill="white" fill-opacity="0.7" style="mix-blend-mode:overlay"/>
<circle cx="700" cy="225" r="2" fill="white" fill-opacity="0.7" style="mix-blend-mode:overlay"/>
<circle cx="700" cy="249" r="2" fill="white" fill-opacity="0.3" style="mix-blend-mode:overlay"/>
<circle cx="700" cy="273" r="2" fill="white" fill-opacity="0.3" style="mix-blend-mode:overlay"/>
<circle cx="700" cy="297" r="2" fill="white" fill-opacity="0.3" style="mix-blend-mode:overlay"/>
<circle cx="700" cy="321" r="2" fill="white" fill-opacity="0.7" style="mix-blend-mode:overlay"/>
<circle cx="700" cy="345" r="2" fill="white" fill-opacity="0.3" style="mix-blend-mode:overlay"/>
<circle cx="700" cy="369" r="2" fill="white" fill-opacity="0.7" style="mix-blend-mode:overlay"/>
<circle cx="700" cy="393" r="2" fill="white" fill-opacity="0.3" style="mix-blend-mode:overlay"/>
<circle cx="700" cy="417" r="2" fill="white" fill-opacity="0.7" style="mix-blend-mode:overlay"/>
<circle cx="700" cy="441" r="2" fill="white" fill-opacity="0.3" style="mix-blend-mode:overlay"/>
<circle cx="724" cy="201" r="2" fill="white" fill-opacity="0.3" style="mix-blend-mode:overlay"/>
<circle cx="724" cy="225" r="2" fill="white" fill-opacity="0.3" style="mix-blend-mode:overlay"/>
<circle cx="724" cy="249" r="2" fill="white" fill-opacity="0.7" style="mix-blend-mode:overlay"/>
<circle cx="724" cy="273" r="2" fill="white" fill-opacity="0.7" style="mix-blend-mode:overlay"/>
<circle cx="724" cy="297" r="2" fill="white" fill-opacity="0.3" style="mix-blend-mode:overlay"/>
<circle cx="724" cy="321" r="2" fill="white" fill-opacity="0.7" style="mix-blend-mode:overlay"/>
<circle cx="724" cy="345" r="2" fill="white" fill-opacity="0.7" style="mix-blend-mode:overlay"/>
<circle cx="724" cy="369" r="2" fill="white" fill-opacity="0.7" style="mix-blend-mode:overlay"/>
<circle cx="724" cy="393" r="2" fill="white" fill-opacity="0.3" style="mix-blend-mode:overlay"/>
<circle cx="724" cy="417" r="2" fill="white" fill-opacity="0.3" style="mix-blend-mode:overlay"/>
<circle cx="724" cy="441" r="2" fill="white" fill-opacity="0.7" style="mix-blend-mode:overlay"/>
<circle cx="748" cy="201" r="2" fill="white" fill-opacity="0.3" style="mix-blend-mode:overlay"/>
<circle cx="748" cy="225" r="2" fill="white" fill-opacity="0.7" style="mix-blend-mode:overlay"/>
<circle cx="748" cy="249" r="2" fill="white" fill-opacity="0.3" style="mix-blend-mode:overlay"/>
<circle cx="748" cy="273" r="2" fill="white" fill-opacity="0.7" style="mix-blend-mode:overlay"/>
<circle cx="748" cy="297" r="2" fill="white" fill-opacity="0.3" style="mix-blend-mode:overlay"/>
<circle cx="748" cy="321" r="2" fill="white" fill-opacity="0.7" style="mix-blend-mode:overlay"/>
<circle cx="748" cy="345" r="2" fill="white" fill-opacity="0.3" style="mix-blend-mode:overlay"/>
<circle cx="748" cy="369" r="2" fill="white" fill-opacity="0.3" style="mix-blend-mode:overlay"/>
<circle cx="748" cy="393" r="2" fill="white" fill-opacity="0.3" style="mix-blend-mode:overlay"/>
<circle cx="748" cy="417" r="2" fill="white" fill-opacity="0.7" style="mix-blend-mode:overlay"/>
<circle cx="748" cy="441" r="2" fill="white" fill-opacity="0.3" style="mix-blend-mode:overlay"/>
<circle cx="772" cy="201" r="2" fill="white" fill-opacity="0.3" style="mix-blend-mode:overlay"/>
<circle cx="772" cy="225" r="2" fill="white" fill-opacity="0.3" style="mix-blend-mode:overlay"/>
<circle cx="772" cy="249" r="2" fill="white" fill-opacity="0.3" style="mix-blend-mode:overlay"/>
<circle cx="772" cy="273" r="2" fill="white" fill-opacity="0.7" style="mix-blend-mode:overlay"/>
<circle cx="772" cy="297" r="2" fill="white" fill-opacity="0.3" style="mix-blend-mode:overlay"/>
<circle cx="772" cy="321" r="2" fill="white" fill-opacity="0.3" style="mix-blend-mode:overlay"/>
<circle cx="772" cy="345" r="2" fill="white" fill-opacity="0.3" style="mix-blend-mode:overlay"/>
<circle cx="772" cy="369" r="2" fill="white" fill-opacity="0.7" style="mix-blend-mode:overlay"/>
<circle cx="772" cy="393" r="2" fill="white" fill-opacity="0.3" style="mix-blend-mode:overlay"/>
<circle cx="772" cy="417" r="2" fill="white" fill-opacity="0.3" style="mix-blend-mode:overlay"/>
<circle cx="772" cy="441" r="2" fill="white" fill-opacity="0.7" style="mix-blend-mode:overlay"/>
<circle cx="796" cy="201" r="2" fill="white" fill-opacity="0.3" style="mix-blend-mode:overlay"/>
<circle cx="796" cy="225" r="2" fill="white" fill-opacity="0.3" style="mix-blend-mode:overlay"/>
<circle cx="796" cy="249" r="2" fill="white" fill-opacity="0.3" style="mix-blend-mode:overlay"/>
<circle cx="796" cy="273" r="2" fill="white" fill-opacity="0.3" style="mix-blend-mode:overlay"/>
<circle cx="796" cy="297" r="2" fill="white" fill-opacity="0.3" style="mix-blend-mode:overlay"/>
<circle cx="796" cy="321" r="2" fill="white" fill-opacity="0.3" style="mix-blend-mode:overlay"/>
<circle cx="796" cy="345" r="2" fill="white" fill-opacity="0.7" style="mix-blend-mode:overlay"/>
<circle cx="796" cy="369" r="2" fill="white" fill-opacity="0.3" style="mix-blend-mode:overlay"/>
<circle cx="796" cy="393" r="2" fill="white" fill-opacity="0.3" style="mix-blend-mode:overlay"/>
<circle cx="796" cy="417" r="2" fill="white" fill-opacity="0.3" style="mix-blend-mode:overlay"/>
<circle cx="796" cy="441" r="2" fill="white" fill-opacity="0.3" style="mix-blend-mode:overlay"/>
<circle cx="820" cy="201" r="2" fill="white" fill-opacity="0.3" style="mix-blend-mode:overlay"/>
<circle cx="820" cy="225" r="2" fill="white" fill-opacity="0.7" style="mix-blend-mode:overlay"/>
<circle cx="820" cy="249" r="2" fill="white" fill-opacity="0.3" style="mix-blend-mode:overlay"/>
<circle cx="820" cy="273" r="2" fill="white" fill-opacity="0.3" style="mix-blend-mode:overlay"/>
<circle cx="820" cy="297" r="2" fill="white" fill-opacity="0.3" style="mix-blend-mode:overlay"/>
<circle cx="820" cy="321" r="2" fill="white" fill-opacity="0.7" style="mix-blend-mode:overlay"/>
<circle cx="820" cy="345" r="2" fill="white" fill-opacity="0.3" style="mix-blend-mode:overlay"/>
<circle cx="820" cy="369" r="2" fill="white" fill-opacity="0.3" style="mix-blend-mode:overlay"/>
<circle cx="820" cy="393" r="2" fill="white" fill-opacity="0.3" style="mix-blend-mode:overlay"/>
<circle cx="820" cy="417" r="2" fill="white" fill-opacity="0.3" style="mix-blend-mode:overlay"/>
<circle cx="820" cy="441" r="2" fill="white" fill-opacity="0.3" style="mix-blend-mode:overlay"/>
<circle cx="844" cy="201" r="2" fill="white" fill-opacity="0.3" style="mix-blend-mode:overlay"/>
<circle cx="844" cy="225" r="2" fill="white" fill-opacity="0.7" style="mix-blend-mode:overlay"/>
<circle cx="844" cy="249" r="2" fill="white" fill-opacity="0.3" style="mix-blend-mode:overlay"/>
<circle cx="844" cy="273" r="2" fill="white" fill-opacity="0.7" style="mix-blend-mode:overlay"/>
<circle cx="844" cy="297" r="2" fill="white" fill-opacity="0.3" style="mix-blend-mode:overlay"/>
<circle cx="844" cy="321" r="2" fill="white" fill-opacity="0.3" style="mix-blend-mode:overlay"/>
<circle cx="844" cy="345" r="2" fill="white" fill-opacity="0.7" style="mix-blend-mode:overlay"/>
<circle cx="844" cy="369" r="2" fill="white" fill-opacity="0.3" style="mix-blend-mode:overlay"/>
<circle cx="844" cy="393" r="2" fill="white" fill-opacity="0.3" style="mix-blend-mode:overlay"/>
<circle cx="844" cy="417" r="2" fill="white" fill-opacity="0.3" style="mix-blend-mode:overlay"/>
<circle cx="844" cy="441" r="2" fill="white" fill-opacity="0.3" style="mix-blend-mode:overlay"/>
<circle cx="868" cy="201" r="2" fill="white" fill-opacity="0.3" style="mix-blend-mode:overlay"/>
<circle cx="868" cy="225" r="2" fill="white" fill-opacity="0.3" style="mix-blend-mode:overlay"/>
<circle cx="868" cy="249" r="2" fill="white" fill-opacity="0.3" style="mix-blend-mode:overlay"/>
<circle cx="868" cy="273" r="2" fill="white" fill-opacity="0.7" style="mix-blend-mode:overlay"/>
<circle cx="868" cy="297" r="2" fill="white" fill-opacity="0.3" style="mix-blend-mode:overlay"/>
<circle cx="868" cy="321" r="2" fill="white" fill-opacity="0.3" style="mix-blend-mode:overlay"/>
<circle cx="868" cy="345" r="2" fill="white" fill-opacity="0.7" style="mix-blend-mode:overlay"/>
<circle cx="868" cy="369" r="2" fill="white" fill-opacity="0.3" style="mix-blend-mode:overlay"/>
<circle cx="868" cy="393" r="2" fill="white" fill-opacity="0.7" style="mix-blend-mode:overlay"/>
<circle cx="868" cy="417" r="2" fill="white" fill-opacity="0.3" style="mix-blend-mode:overlay"/>
<circle cx="868" cy="441" r="2" fill="white" fill-opacity="0.7" style="mix-blend-mode:overlay"/>
<circle cx="892" cy="201" r="2" fill="white" fill-opacity="0.3" style="mix-blend-mode:overlay"/>
<circle cx="892" cy="225" r="2" fill="white" fill-opacity="0.3" style="mix-blend-mode:overlay"/>
<circle cx="892" cy="249" r="2" fill="white" fill-opacity="0.3" style="mix-blend-mode:overlay"/>
<circle cx="892" cy="273" r="2" fill="white" fill-opacity="0.3" style="mix-blend-mode:overlay"/>
<circle cx="892" cy="297" r="2" fill="white" fill-opacity="0.3" style="mix-blend-mode:overlay"/>
<circle cx="892" cy="321" r="2" fill="white" fill-opacity="0.3" style="mix-blend-mode:overlay"/>
<circle cx="892" cy="345" r="2" fill="white" fill-opacity="0.3" style="mix-blend-mode:overlay"/>
<circle cx="892" cy="369" r="2" fill="white" fill-opacity="0.3" style="mix-blend-mode:overlay"/>
<circle cx="892" cy="393" r="2" fill="white" fill-opacity="0.3" style="mix-blend-mode:overlay"/>
<circle cx="892" cy="417" r="2" fill="white" fill-opacity="0.3" style="mix-blend-mode:overlay"/>
<circle cx="892" cy="441" r="2" fill="white" fill-opacity="0.7" style="mix-blend-mode:overlay"/>
<circle cx="916" cy="201" r="2" fill="white" fill-opacity="0.3" style="mix-blend-mode:overlay"/>
<circle cx="916" cy="225" r="2" fill="white" fill-opacity="0.7" style="mix-blend-mode:overlay"/>
<circle cx="916" cy="249" r="2" fill="white" fill-opacity="0.3" style="mix-blend-mode:overlay"/>
<circle cx="916" cy="273" r="2" fill="white" fill-opacity="0.7" style="mix-blend-mode:overlay"/>
<circle cx="916" cy="297" r="2" fill="white" fill-opacity="0.7" style="mix-blend-mode:overlay"/>
<circle cx="916" cy="321" r="2" fill="white" fill-opacity="0.3" style="mix-blend-mode:overlay"/>
<circle cx="916" cy="345" r="2" fill="white" fill-opacity="0.3" style="mix-blend-mode:overlay"/>
<circle cx="916" cy="369" r="2" fill="white" fill-opacity="0.3" style="mix-blend-mode:overlay"/>
<circle cx="916" cy="393" r="2" fill="white" fill-opacity="0.3" style="mix-blend-mode:overlay"/>
<circle cx="916" cy="417" r="2" fill="white" fill-opacity="0.3" style="mix-blend-mode:overlay"/>
<circle cx="916" cy="441" r="2" fill="white" fill-opacity="0.3" style="mix-blend-mode:overlay"/>
<circle cx="940" cy="201" r="2" fill="white" fill-opacity="0.7" style="mix-blend-mode:overlay"/>
<circle cx="940" cy="225" r="2" fill="white" fill-opacity="0.7" style="mix-blend-mode:overlay"/>
<circle cx="940" cy="249" r="2" fill="white" fill-opacity="0.7" style="mix-blend-mode:overlay"/>
<circle cx="940" cy="273" r="2" fill="white" fill-opacity="0.3" style="mix-blend-mode:overlay"/>
<circle cx="940" cy="297" r="2" fill="white" fill-opacity="0.3" style="mix-blend-mode:overlay"/>
<circle cx="940" cy="321" r="2" fill="white" fill-opacity="0.7" style="mix-blend-mode:overlay"/>
<circle cx="940" cy="345" r="2" fill="white" fill-opacity="0.7" style="mix-blend-mode:overlay"/>
<circle cx="940" cy="369" r="2" fill="white" fill-opacity="0.7" style="mix-blend-mode:overlay"/>
<circle cx="940" cy="393" r="2" fill="white" fill-opacity="0.3" style="mix-blend-mode:overlay"/>
<circle cx="940" cy="417" r="2" fill="white" fill-opacity="0.3" style="mix-blend-mode:overlay"/>
<circle cx="940" cy="441" r="2" fill="white" fill-opacity="0.3" style="mix-blend-mode:overlay"/>
<circle cx="964" cy="201" r="2" fill="white" fill-opacity="0.3" style="mix-blend-mode:overlay"/>
<circle cx="964" cy="225" r="2" fill="white" fill-opacity="0.3" style="mix-blend-mode:overlay"/>
<circle cx="964" cy="249" r="2" fill="white" fill-opacity="0.3" style="mix-blend-mode:overlay"/>
<circle cx="964" cy="273" r="2" fill="white" fill-opacity="0.3" style="mix-blend-mode:overlay"/>
<circle cx="964" cy="297" r="2" fill="white" fill-opacity="0.7" style="mix-blend-mode:overlay"/>
<circle cx="964" cy="321" r="2" fill="white" fill-opacity="0.3" style="mix-blend-mode:overlay"/>
<circle cx="964" cy="345" r="2" fill="white" fill-opacity="0.7" style="mix-blend-mode:overlay"/>
<circle cx="964" cy="369" r="2" fill="white" fill-opacity="0.3" style="mix-blend-mode:overlay"/>
<circle cx="964" cy="393" r="2" fill="white" fill-opacity="0.7" style="mix-blend-mode:overlay"/>
<circle cx="964" cy="417" r="2" fill="white" fill-opacity="0.3" style="mix-blend-mode:overlay"/>
<circle cx="964" cy="441" r="2" fill="white" fill-opacity="0.3" style="mix-blend-mode:overlay"/>
<circle cx="988" cy="201" r="2" fill="white" fill-opacity="0.3" style="mix-blend-mode:overlay"/>
<circle cx="988" cy="225" r="2" fill="white" fill-opacity="0.3" style="mix-blend-mode:overlay"/>
<circle cx="988" cy="249" r="2" fill="white" fill-opacity="0.3" style="mix-blend-mode:overlay"/>
<circle cx="988" cy="273" r="2" fill="white" fill-opacity="0.3" style="mix-blend-mode:overlay"/>
<circle cx="988" cy="297" r="2" fill="white" fill-opacity="0.7" style="mix-blend-mode:overlay"/>
<circle cx="988" cy="321" r="2" fill="white" fill-opacity="0.3" style="mix-blend-mode:overlay"/>
<circle cx="988" cy="345" r="2" fill="white" fill-opacity="0.7" style="mix-blend-mode:overlay"/>
<circle cx="988" cy="369" r="2" fill="white" fill-opacity="0.3" style="mix-blend-mode:overlay"/>
<circle cx="988" cy="393" r="2" fill="white" fill-opacity="0.3" style="mix-blend-mode:overlay"/>
<circle cx="988" cy="417" r="2" fill="white" fill-opacity="0.3" style="mix-blend-mode:overlay"/>
<circle cx="988" cy="441" r="2" fill="white" fill-opacity="0.3" style="mix-blend-mode:overlay"/>
<circle cx="1012" cy="201" r="2" fill="white" fill-opacity="0.3" style="mix-blend-mode:overlay"/>
<circle cx="1012" cy="225" r="2" fill="white" fill-opacity="0.7" style="mix-blend-mode:overlay"/>
<circle cx="1012" cy="249" r="2" fill="white" fill-opacity="0.3" style="mix-blend-mode:overlay"/>
<circle cx="1012" cy="273" r="2" fill="white" fill-opacity="0.3" style="mix-blend-mode:overlay"/>
<circle cx="1012" cy="297" r="2" fill="white" fill-opacity="0.7" style="mix-blend-mode:overlay"/>
<circle cx="1012" cy="321" r="2" fill="white" fill-opacity="0.7" style="mix-blend-mode:overlay"/>
<circle cx="1012" cy="345" r="2" fill="white" fill-opacity="0.3" style="mix-blend-mode:overlay"/>
<circle cx="1012" cy="369" r="2" fill="white" fill-opacity="0.3" style="mix-blend-mode:overlay"/>
<circle cx="1012" cy="393" r="2" fill="white" fill-opacity="0.7" style="mix-blend-mode:overlay"/>
<circle cx="1012" cy="417" r="2" fill="white" fill-opacity="0.3" style="mix-blend-mode:overlay"/>
<circle cx="1012" cy="441" r="2" fill="white" fill-opacity="0.7" style="mix-blend-mode:overlay"/>
<circle cx="1036" cy="201" r="2" fill="white" fill-opacity="0.7" style="mix-blend-mode:overlay"/>
<circle cx="1036" cy="225" r="2" fill="white" fill-opacity="0.3" style="mix-blend-mode:overlay"/>
<circle cx="1036" cy="249" r="2" fill="white" fill-opacity="0.3" style="mix-blend-mode:overlay"/>
<circle cx="1036" cy="273" r="2" fill="white" fill-opacity="0.3" style="mix-blend-mode:overlay"/>
<circle cx="1036" cy="297" r="2" fill="white" fill-opacity="0.3" style="mix-blend-mode:overlay"/>
<circle cx="1036" cy="321" r="2" fill="white" fill-opacity="0.3" style="mix-blend-mode:overlay"/>
<circle cx="1036" cy="345" r="2" fill="white" fill-opacity="0.7" style="mix-blend-mode:overlay"/>
<circle cx="1036" cy="369" r="2" fill="white" fill-opacity="0.3" style="mix-blend-mode:overlay"/>
<circle cx="1036" cy="393" r="2" fill="white" fill-opacity="0.3" style="mix-blend-mode:overlay"/>
<circle cx="1036" cy="417" r="2" fill="white" fill-opacity="0.3" style="mix-blend-mode:overlay"/>
<circle cx="1036" cy="441" r="2" fill="white" fill-opacity="0.3" style="mix-blend-mode:overlay"/>
<circle cx="1060" cy="201" r="2" fill="white" fill-opacity="0.7" style="mix-blend-mode:overlay"/>
<circle cx="1060" cy="225" r="2" fill="white" fill-opacity="0.3" style="mix-blend-mode:overlay"/>
<circle cx="1060" cy="249" r="2" fill="white" fill-opacity="0.3" style="mix-blend-mode:overlay"/>
<circle cx="1060" cy="273" r="2" fill="white" fill-opacity="0.7" style="mix-blend-mode:overlay"/>
<circle cx="1060" cy="297" r="2" fill="white" fill-opacity="0.3" style="mix-blend-mode:overlay"/>
<circle cx="1060" cy="321" r="2" fill="white" fill-opacity="0.7" style="mix-blend-mode:overlay"/>
<circle cx="1060" cy="345" r="2" fill="white" fill-opacity="0.3" style="mix-blend-mode:overlay"/>
<circle cx="1060" cy="369" r="2" fill="white" fill-opacity="0.3" style="mix-blend-mode:overlay"/>
<circle cx="1060" cy="393" r="2" fill="white" fill-opacity="0.3" style="mix-blend-mode:overlay"/>
<circle cx="1060" cy="417" r="2" fill="white" fill-opacity="0.3" style="mix-blend-mode:overlay"/>
<circle cx="1060" cy="441" r="2" fill="white" fill-opacity="0.7" style="mix-blend-mode:overlay"/>
<circle cx="1084" cy="201" r="2" fill="white" fill-opacity="0.3" style="mix-blend-mode:overlay"/>
<circle cx="1084" cy="225" r="2" fill="white" fill-opacity="0.3" style="mix-blend-mode:overlay"/>
<circle cx="1084" cy="249" r="2" fill="white" fill-opacity="0.3" style="mix-blend-mode:overlay"/>
<circle cx="1084" cy="273" r="2" fill="white" fill-opacity="0.7" style="mix-blend-mode:overlay"/>
<circle cx="1084" cy="297" r="2" fill="white" fill-opacity="0.7" style="mix-blend-mode:overlay"/>
<circle cx="1084" cy="321" r="2" fill="white" fill-opacity="0.7" style="mix-blend-mode:overlay"/>
<circle cx="1084" cy="345" r="2" fill="white" fill-opacity="0.3" style="mix-blend-mode:overlay"/>
<circle cx="1084" cy="369" r="2" fill="white" fill-opacity="0.3" style="mix-blend-mode:overlay"/>
<circle cx="1084" cy="393" r="2" fill="white" fill-opacity="0.3" style="mix-blend-mode:overlay"/>
<circle cx="1084" cy="417" r="2" fill="white" fill-opacity="0.7" style="mix-blend-mode:overlay"/>
<circle cx="1084" cy="441" r="2" fill="white" fill-opacity="0.7" style="mix-blend-mode:overlay"/>
<circle cx="1108" cy="201" r="2" fill="white" fill-opacity="0.7" style="mix-blend-mode:overlay"/>
<circle cx="1108" cy="225" r="2" fill="white" fill-opacity="0.3" style="mix-blend-mode:overlay"/>
<circle cx="1108" cy="249" r="2" fill="white" fill-opacity="0.3" style="mix-blend-mode:overlay"/>
<circle cx="1108" cy="273" r="2" fill="white" fill-opacity="0.3" style="mix-blend-mode:overlay"/>
<circle cx="1108" cy="297" r="2" fill="white" fill-opacity="0.3" style="mix-blend-mode:overlay"/>
<circle cx="1108" cy="321" r="2" fill="white" fill-opacity="0.3" style="mix-blend-mode:overlay"/>
<circle cx="1108" cy="345" r="2" fill="white" fill-opacity="0.3" style="mix-blend-mode:overlay"/>
<circle cx="1108" cy="369" r="2" fill="white" fill-opacity="0.3" style="mix-blend-mode:overlay"/>
<circle cx="1108" cy="393" r="2" fill="white" fill-opacity="0.7" style="mix-blend-mode:overlay"/>
<circle cx="1108" cy="417" r="2" fill="white" fill-opacity="0.7" style="mix-blend-mode:overlay"/>
<circle cx="1108" cy="441" r="2" fill="white" fill-opacity="0.3" style="mix-blend-mode:overlay"/>
<circle cx="1132" cy="201" r="2" fill="white" fill-opacity="0.3" style="mix-blend-mode:overlay"/>
<circle cx="1132" cy="225" r="2" fill="white" fill-opacity="0.7" style="mix-blend-mode:overlay"/>
<circle cx="1132" cy="249" r="2" fill="white" fill-opacity="0.3" style="mix-blend-mode:overlay"/>
<circle cx="1132" cy="273" r="2" fill="white" fill-opacity="0.7" style="mix-blend-mode:overlay"/>
<circle cx="1132" cy="297" r="2" fill="white" fill-opacity="0.3" style="mix-blend-mode:overlay"/>
<circle cx="1132" cy="321" r="2" fill="white" fill-opacity="0.7" style="mix-blend-mode:overlay"/>
<circle cx="1132" cy="345" r="2" fill="white" fill-opacity="0.7" style="mix-blend-mode:overlay"/>
<circle cx="1132" cy="369" r="2" fill="white" fill-opacity="0.7" style="mix-blend-mode:overlay"/>
<circle cx="1132" cy="393" r="2" fill="white" fill-opacity="0.3" style="mix-blend-mode:overlay"/>
<circle cx="1132" cy="417" r="2" fill="white" fill-opacity="0.3" style="mix-blend-mode:overlay"/>
<circle cx="1132" cy="441" r="2" fill="white" fill-opacity="0.3" style="mix-blend-mode:overlay"/>
<circle cx="1156" cy="201" r="2" fill="white" fill-opacity="0.7" style="mix-blend-mode:overlay"/>
<circle cx="1156" cy="225" r="2" fill="white" fill-opacity="0.3" style="mix-blend-mode:overlay"/>
<circle cx="1156" cy="249" r="2" fill="white" fill-opacity="0.7" style="mix-blend-mode:overlay"/>
<circle cx="1156" cy="273" r="2" fill="white" fill-opacity="0.7" style="mix-blend-mode:overlay"/>
<circle cx="1156" cy="297" r="2" fill="white" fill-opacity="0.3" style="mix-blend-mode:overlay"/>
<circle cx="1156" cy="321" r="2" fill="white" fill-opacity="0.7" style="mix-blend-mode:overlay"/>
<circle cx="1156" cy="345" r="2" fill="white" fill-opacity="0.3" style="mix-blend-mode:overlay"/>
<circle cx="1156" cy="369" r="2" fill="white" fill-opacity="0.3" style="mix-blend-mode:overlay"/>
<circle cx="1156" cy="393" r="2" fill="white" fill-opacity="0.7" style="mix-blend-mode:overlay"/>
<circle cx="1156" cy="417" r="2" fill="white" fill-opacity="0.3" style="mix-blend-mode:overlay"/>
<circle cx="1156" cy="441" r="2" fill="white" fill-opacity="0.3" style="mix-blend-mode:overlay"/>
<circle cx="1180" cy="201" r="2" fill="white" fill-opacity="0.3" style="mix-blend-mode:overlay"/>
<circle cx="1180" cy="225" r="2" fill="white" fill-opacity="0.3" style="mix-blend-mode:overlay"/>
<circle cx="1180" cy="249" r="2" fill="white" fill-opacity="0.7" style="mix-blend-mode:overlay"/>
<circle cx="1180" cy="273" r="2" fill="white" fill-opacity="0.7" style="mix-blend-mode:overlay"/>
<circle cx="1180" cy="297" r="2" fill="white" fill-opacity="0.7" style="mix-blend-mode:overlay"/>
<circle cx="1180" cy="321" r="2" fill="white" fill-opacity="0.3" style="mix-blend-mode:overlay"/>
<circle cx="1180" cy="345" r="2" fill="white" fill-opacity="0.3" style="mix-blend-mode:overlay"/>
<circle cx="1180" cy="369" r="2" fill="white" fill-opacity="0.3" style="mix-blend-mode:overlay"/>
<circle cx="1180" cy="393" r="2" fill="white" fill-opacity="0.3" style="mix-blend-mode:overlay"/>
<circle cx="1180" cy="417" r="2" fill="white" fill-opacity="0.3" style="mix-blend-mode:overlay"/>
<circle cx="1180" cy="441" r="2" fill="white" fill-opacity="0.3" style="mix-blend-mode:overlay"/>
</g>
</svg>
