<svg width="280" height="120" viewBox="0 48 280 120" fill="none" xmlns="http://www.w3.org/2000/svg">
<g data-figma-bg-blur-radius="50">
<g clip-path="url(#clip4_86_2828)">
<rect y="48" width="280" height="120" rx="18" fill="white" fill-opacity="0.1" style="mix-blend-mode:overlay"/>
<rect y="48" width="280" height="120" rx="18" fill="url(#paint6_linear_86_2828)" fill-opacity="0.05"/>
<path d="M21.4148 78H20.3068L23.5114 69.2727H24.6023L27.8068 78H26.6989L24.0909 70.6534H24.0227L21.4148 78ZM21.8239 74.5909H26.2898V75.5284H21.8239V74.5909ZM33.2018 71.4545L30.7813 78H29.7586L27.3382 71.4545H28.4291L30.2359 76.6705H30.3041L32.1109 71.4545H33.2018ZM36.6791 78.1364C36.0485 78.1364 35.5044 77.9972 35.047 77.7188C34.5925 77.4375 34.2416 77.0455 33.9945 76.5426C33.7502 76.0369 33.628 75.4489 33.628 74.7784C33.628 74.108 33.7502 73.517 33.9945 73.0057C34.2416 72.4915 34.5854 72.0909 35.0257 71.804C35.4689 71.5142 35.986 71.3693 36.5769 71.3693C36.9178 71.3693 37.2544 71.4261 37.5868 71.5398C37.9192 71.6534 38.2218 71.8381 38.4945 72.0938C38.7672 72.3466 38.9845 72.6818 39.1465 73.0994C39.3084 73.517 39.3894 74.0312 39.3894 74.642V75.0682H34.3439V74.1989H38.3666C38.3666 73.8295 38.2928 73.5 38.1451 73.2102C38.0002 72.9205 37.7928 72.6918 37.5229 72.5241C37.2559 72.3565 36.9405 72.2727 36.5769 72.2727C36.1763 72.2727 35.8297 72.3722 35.5371 72.571C35.2473 72.767 35.0243 73.0227 34.8681 73.3381C34.7118 73.6534 34.6337 73.9915 34.6337 74.3523V74.9318C34.6337 75.4261 34.7189 75.8452 34.8894 76.1889C35.0627 76.5298 35.3027 76.7898 35.6095 76.9688C35.9164 77.1449 36.2729 77.233 36.6791 77.233C36.9434 77.233 37.182 77.196 37.3951 77.1222C37.611 77.0455 37.797 76.9318 37.9533 76.7812C38.1095 76.6278 38.2303 76.4375 38.3155 76.2102L39.2871 76.483C39.1848 76.8125 39.013 77.1023 38.7715 77.3523C38.53 77.5994 38.2317 77.7926 37.8766 77.9318C37.5215 78.0682 37.1223 78.1364 36.6791 78.1364ZM40.5592 78V71.4545H41.5308V72.4432H41.599C41.7183 72.1193 41.9342 71.8565 42.2467 71.6548C42.5592 71.4531 42.9115 71.3523 43.3035 71.3523C43.3774 71.3523 43.4697 71.3537 43.5805 71.3565C43.6913 71.3594 43.7751 71.3636 43.8319 71.3693V72.392C43.7978 72.3835 43.7197 72.3707 43.5976 72.3537C43.4782 72.3338 43.3518 72.3239 43.2183 72.3239C42.9001 72.3239 42.616 72.3906 42.366 72.5241C42.1189 72.6548 41.9228 72.8366 41.778 73.0696C41.6359 73.2997 41.5649 73.5625 41.5649 73.858V78H40.5592ZM46.5902 78.1534C46.1754 78.1534 45.799 78.0753 45.4609 77.919C45.1229 77.7599 44.8544 77.5312 44.6555 77.233C44.4567 76.9318 44.3572 76.5682 44.3572 76.142C44.3572 75.767 44.4311 75.4631 44.5788 75.2301C44.7265 74.9943 44.924 74.8097 45.1712 74.6761C45.4183 74.5426 45.691 74.4432 45.9893 74.3778C46.2905 74.3097 46.593 74.2557 46.897 74.2159C47.2947 74.1648 47.6172 74.1264 47.8643 74.1009C48.1143 74.0724 48.2962 74.0256 48.4098 73.9602C48.5263 73.8949 48.5845 73.7812 48.5845 73.6193V73.5852C48.5845 73.1648 48.4694 72.8381 48.2393 72.6051C48.0121 72.3722 47.6669 72.2557 47.2038 72.2557C46.7237 72.2557 46.3473 72.3608 46.0746 72.571C45.8018 72.7812 45.6101 73.0057 45.4993 73.2443L44.5447 72.9034C44.7152 72.5057 44.9425 72.196 45.2265 71.9744C45.5135 71.75 45.826 71.5937 46.164 71.5057C46.505 71.4148 46.8402 71.3693 47.1697 71.3693C47.38 71.3693 47.6214 71.3949 47.8942 71.446C48.1697 71.4943 48.4354 71.5952 48.691 71.7486C48.9496 71.902 49.164 72.1335 49.3345 72.4432C49.505 72.7528 49.5902 73.1676 49.5902 73.6875V78H48.5845V77.1136H48.5334C48.4652 77.2557 48.3515 77.4077 48.1925 77.5696C48.0334 77.7315 47.8217 77.8693 47.5575 77.983C47.2933 78.0966 46.9709 78.1534 46.5902 78.1534ZM46.7436 77.25C47.1413 77.25 47.4765 77.1719 47.7493 77.0156C48.0248 76.8594 48.2322 76.6577 48.3714 76.4105C48.5135 76.1634 48.5845 75.9034 48.5845 75.6307V74.7102C48.5419 74.7614 48.4481 74.8082 48.3033 74.8509C48.1612 74.8906 47.9964 74.9261 47.8089 74.9574C47.6243 74.9858 47.4439 75.0114 47.2677 75.0341C47.0944 75.054 46.9538 75.071 46.8459 75.0852C46.5845 75.1193 46.3402 75.1747 46.1129 75.2514C45.8885 75.3253 45.7067 75.4375 45.5675 75.5881C45.4311 75.7358 45.3629 75.9375 45.3629 76.1932C45.3629 76.5426 45.4922 76.8068 45.7507 76.9858C46.0121 77.1619 46.343 77.25 46.7436 77.25ZM53.7078 80.5909C53.222 80.5909 52.8044 80.5284 52.455 80.4034C52.1055 80.2812 51.8143 80.1193 51.5814 79.9176C51.3513 79.7188 51.168 79.5057 51.0317 79.2784L51.8328 78.7159C51.9237 78.8352 52.0388 78.9716 52.178 79.125C52.3172 79.2812 52.5075 79.4162 52.749 79.5298C52.9933 79.6463 53.3129 79.7045 53.7078 79.7045C54.2362 79.7045 54.6723 79.5767 55.0161 79.321C55.3598 79.0653 55.5317 78.6648 55.5317 78.1193V76.7898H55.4464C55.3726 76.9091 55.2675 77.0568 55.1311 77.233C54.9976 77.4062 54.8044 77.5611 54.5516 77.6974C54.3016 77.831 53.9635 77.8977 53.5374 77.8977C53.0089 77.8977 52.5345 77.7727 52.1141 77.5227C51.6964 77.2727 51.3655 76.9091 51.1212 76.4318C50.8797 75.9545 50.7589 75.375 50.7589 74.6932C50.7589 74.0227 50.8768 73.4389 51.1126 72.9418C51.3484 72.4418 51.6766 72.0554 52.097 71.7827C52.5175 71.5071 53.0033 71.3693 53.5544 71.3693C53.9805 71.3693 54.3186 71.4403 54.5686 71.5824C54.8214 71.7216 55.0146 71.8807 55.1482 72.0597C55.2845 72.2358 55.3896 72.3807 55.4635 72.4943H55.5658V71.4545H56.5374V78.1875C56.5374 78.75 56.4095 79.2074 56.1538 79.5597C55.901 79.9148 55.5601 80.1747 55.1311 80.3395C54.705 80.5071 54.2305 80.5909 53.7078 80.5909ZM53.6737 76.9943C54.0771 76.9943 54.418 76.902 54.6964 76.7173C54.9749 76.5327 55.1865 76.267 55.3314 75.9205C55.4763 75.5739 55.5487 75.1591 55.5487 74.6761C55.5487 74.2045 55.4777 73.7884 55.3357 73.4276C55.1936 73.0668 54.9834 72.7841 54.705 72.5795C54.4266 72.375 54.0828 72.2727 53.6737 72.2727C53.2476 72.2727 52.8925 72.3807 52.6084 72.5966C52.3271 72.8125 52.1155 73.1023 51.9734 73.4659C51.8342 73.8295 51.7646 74.233 51.7646 74.6761C51.7646 75.1307 51.8357 75.5327 51.9777 75.8821C52.1226 76.2287 52.3357 76.5014 52.6169 76.7003C52.901 76.8963 53.2533 76.9943 53.6737 76.9943ZM60.7626 78.1364C60.1319 78.1364 59.5879 77.9972 59.1305 77.7188C58.6759 77.4375 58.3251 77.0455 58.0779 76.5426C57.8336 76.0369 57.7114 75.4489 57.7114 74.7784C57.7114 74.108 57.8336 73.517 58.0779 73.0057C58.3251 72.4915 58.6688 72.0909 59.1092 71.804C59.5524 71.5142 60.0694 71.3693 60.6603 71.3693C61.0012 71.3693 61.3379 71.4261 61.6703 71.5398C62.0026 71.6534 62.3052 71.8381 62.5779 72.0938C62.8507 72.3466 63.068 72.6818 63.2299 73.0994C63.3918 73.517 63.4728 74.0312 63.4728 74.642V75.0682H58.4274V74.1989H62.4501C62.4501 73.8295 62.3762 73.5 62.2285 73.2102C62.0836 72.9205 61.8762 72.6918 61.6063 72.5241C61.3393 72.3565 61.0239 72.2727 60.6603 72.2727C60.2597 72.2727 59.9132 72.3722 59.6205 72.571C59.3308 72.767 59.1078 73.0227 58.9515 73.3381C58.7953 73.6534 58.7171 73.9915 58.7171 74.3523V74.9318C58.7171 75.4261 58.8024 75.8452 58.9728 76.1889C59.1461 76.5298 59.3862 76.7898 59.693 76.9688C59.9998 77.1449 60.3563 77.233 60.7626 77.233C61.0268 77.233 61.2654 77.196 61.4785 77.1222C61.6944 77.0455 61.8805 76.9318 62.0367 76.7812C62.193 76.6278 62.3137 76.4375 62.3989 76.2102L63.3705 76.483C63.2683 76.8125 63.0964 77.1023 62.8549 77.3523C62.6134 77.5994 62.3151 77.7926 61.96 77.9318C61.6049 78.0682 61.2058 78.1364 60.7626 78.1364ZM68.152 69.2727L70.7429 76.6193H70.8451L73.436 69.2727H74.544L71.3395 78H70.2486L67.044 69.2727H68.152ZM75.407 78V71.4545H76.4127V78H75.407ZM75.9184 70.3636C75.7224 70.3636 75.5533 70.2969 75.4113 70.1634C75.2721 70.0298 75.2025 69.8693 75.2025 69.6818C75.2025 69.4943 75.2721 69.3338 75.4113 69.2003C75.5533 69.0668 75.7224 69 75.9184 69C76.1144 69 76.282 69.0668 76.4212 69.2003C76.5633 69.3338 76.6343 69.4943 76.6343 69.6818C76.6343 69.8693 76.5633 70.0298 76.4212 70.1634C76.282 70.2969 76.1144 70.3636 75.9184 70.3636ZM80.639 78.1364C80.0083 78.1364 79.4643 77.9972 79.0069 77.7188C78.5523 77.4375 78.2015 77.0455 77.9543 76.5426C77.71 76.0369 77.5879 75.4489 77.5879 74.7784C77.5879 74.108 77.71 73.517 77.9543 73.0057C78.2015 72.4915 78.5452 72.0909 78.9856 71.804C79.4288 71.5142 79.9458 71.3693 80.5367 71.3693C80.8776 71.3693 81.2143 71.4261 81.5467 71.5398C81.8791 71.6534 82.1816 71.8381 82.4543 72.0938C82.7271 72.3466 82.9444 72.6818 83.1063 73.0994C83.2683 73.517 83.3492 74.0312 83.3492 74.642V75.0682H78.3038V74.1989H82.3265C82.3265 73.8295 82.2526 73.5 82.1049 73.2102C81.96 72.9205 81.7526 72.6918 81.4827 72.5241C81.2157 72.3565 80.9004 72.2727 80.5367 72.2727C80.1362 72.2727 79.7896 72.3722 79.4969 72.571C79.2072 72.767 78.9842 73.0227 78.8279 73.3381C78.6717 73.6534 78.5935 73.9915 78.5935 74.3523V74.9318C78.5935 75.4261 78.6788 75.8452 78.8492 76.1889C79.0225 76.5298 79.2626 76.7898 79.5694 76.9688C79.8762 77.1449 80.2327 77.233 80.639 77.233C80.9032 77.233 81.1418 77.196 81.3549 77.1222C81.5708 77.0455 81.7569 76.9318 81.9131 76.7812C82.0694 76.6278 82.1901 76.4375 82.2754 76.2102L83.2469 76.483C83.1447 76.8125 82.9728 77.1023 82.7313 77.3523C82.4898 77.5994 82.1915 77.7926 81.8364 77.9318C81.4813 78.0682 81.0822 78.1364 80.639 78.1364ZM86.002 78L84.0077 71.4545H85.0645L86.4793 76.4659H86.5475L87.9452 71.4545H89.019L90.3997 76.4489H90.4679L91.8827 71.4545H92.9395L90.9452 78H89.9565L88.5247 72.9716H88.4225L86.9906 78H86.002ZM98.5454 72.9205L97.642 73.1761C97.5852 73.0256 97.5014 72.8793 97.3906 72.7372C97.2826 72.5923 97.1349 72.473 96.9474 72.3793C96.7599 72.2855 96.5198 72.2386 96.2272 72.2386C95.8267 72.2386 95.4929 72.331 95.2258 72.5156C94.9616 72.6974 94.8295 72.929 94.8295 73.2102C94.8295 73.4602 94.9204 73.6577 95.1022 73.8026C95.284 73.9474 95.5681 74.0682 95.9545 74.1648L96.9261 74.4034C97.5113 74.5455 97.9474 74.7628 98.2343 75.0554C98.5213 75.3452 98.6647 75.7187 98.6647 76.1761C98.6647 76.5511 98.5568 76.8864 98.3409 77.1818C98.1278 77.4773 97.8295 77.7102 97.446 77.8807C97.0625 78.0511 96.6164 78.1364 96.1079 78.1364C95.4403 78.1364 94.8877 77.9915 94.4502 77.7017C94.0127 77.4119 93.7358 76.9886 93.6193 76.4318L94.5738 76.1932C94.6647 76.5455 94.8366 76.8097 95.0894 76.9858C95.3451 77.1619 95.6789 77.25 96.0909 77.25C96.5596 77.25 96.9318 77.1506 97.2073 76.9517C97.4858 76.75 97.625 76.5085 97.625 76.2273C97.625 76 97.5454 75.8097 97.3863 75.6562C97.2272 75.5 96.9829 75.3835 96.6534 75.3068L95.5625 75.0511C94.963 74.9091 94.5227 74.6889 94.2414 74.3906C93.963 74.0895 93.8238 73.7131 93.8238 73.2614C93.8238 72.892 93.9275 72.5653 94.1349 72.2812C94.3451 71.9972 94.6306 71.7741 94.9914 71.6122C95.3551 71.4503 95.767 71.3693 96.2272 71.3693C96.875 71.3693 97.3835 71.5114 97.7528 71.7955C98.125 72.0795 98.3892 72.4545 98.5454 72.9205Z" fill="white" fill-opacity="0.5"/>
<path d="M25.8168 104.179C24.8665 104.179 24.0227 104.019 23.2855 103.7C22.5526 103.38 21.9773 102.943 21.5597 102.389C21.1463 101.831 20.9418 101.198 20.946 100.491C20.9418 99.9411 21.0611 99.4361 21.304 98.9759C21.5469 98.5156 21.875 98.1321 22.2884 97.8253C22.706 97.5142 23.1705 97.3161 23.6818 97.2308V97.1413C23.0085 96.9922 22.4631 96.6491 22.0455 96.1122C21.6321 95.571 21.4276 94.9467 21.4318 94.2393C21.4276 93.5661 21.6151 92.9652 21.9943 92.4368C22.3736 91.9084 22.8935 91.4929 23.554 91.1903C24.2145 90.8835 24.9688 90.7301 25.8168 90.7301C26.6563 90.7301 27.4041 90.8835 28.0604 91.1903C28.7209 91.4929 29.2408 91.9084 29.62 92.4368C30.0036 92.9652 30.1953 93.5661 30.1953 94.2393C30.1953 94.9467 29.9844 95.571 29.5625 96.1122C29.1449 96.6491 28.6058 96.9922 27.9453 97.1413V97.2308C28.4567 97.3161 28.9169 97.5142 29.326 97.8253C29.7393 98.1321 30.0675 98.5156 30.3104 98.9759C30.5575 99.4361 30.6811 99.9411 30.6811 100.491C30.6811 101.198 30.4723 101.831 30.0547 102.389C29.6371 102.943 29.0618 103.38 28.3288 103.7C27.6001 104.019 26.7628 104.179 25.8168 104.179ZM25.8168 102.351C26.3068 102.351 26.733 102.268 27.0952 102.102C27.4574 101.931 27.7386 101.692 27.9389 101.386C28.1392 101.079 28.2415 100.725 28.2457 100.325C28.2415 99.907 28.1328 99.5384 27.9197 99.2188C27.7109 98.8949 27.4233 98.6413 27.0568 98.4581C26.6946 98.2749 26.2813 98.1832 25.8168 98.1832C25.348 98.1832 24.9304 98.2749 24.5639 98.4581C24.1974 98.6413 23.9077 98.8949 23.6946 99.2188C23.4858 99.5384 23.3835 99.907 23.3878 100.325C23.3835 100.725 23.4815 101.079 23.6818 101.386C23.8821 101.688 24.1634 101.925 24.5256 102.095C24.892 102.266 25.3224 102.351 25.8168 102.351ZM25.8168 96.3871C26.2173 96.3871 26.571 96.3061 26.8778 96.1442C27.1889 95.9822 27.4339 95.7564 27.6129 95.4666C27.7919 95.1768 27.8835 94.8423 27.8878 94.4631C27.8835 94.0881 27.794 93.7599 27.6193 93.4787C27.4446 93.1932 27.2017 92.9737 26.8906 92.8203C26.5795 92.6626 26.2216 92.5838 25.8168 92.5838C25.4034 92.5838 25.0391 92.6626 24.7237 92.8203C24.4126 92.9737 24.1697 93.1932 23.995 93.4787C23.8246 93.7599 23.7415 94.0881 23.7457 94.4631C23.7415 94.8423 23.8267 95.1768 24.0014 95.4666C24.1804 95.7521 24.4254 95.978 24.7365 96.1442C25.0518 96.3061 25.4119 96.3871 25.8168 96.3871ZM33.3068 104.141C32.919 104.141 32.5866 104.004 32.3096 103.732C32.0326 103.459 31.8963 103.126 31.9005 102.734C31.8963 102.351 32.0326 102.023 32.3096 101.75C32.5866 101.477 32.919 101.341 33.3068 101.341C33.6818 101.341 34.0078 101.477 34.2848 101.75C34.566 102.023 34.7088 102.351 34.713 102.734C34.7088 102.994 34.6406 103.231 34.5085 103.444C34.3806 103.657 34.2102 103.827 33.9971 103.955C33.7883 104.079 33.5582 104.141 33.3068 104.141ZM36.3 101.571V99.6854L41.8547 90.9091H43.4271V93.5938H42.4683L38.7289 99.5192V99.6214H46.4825V101.571H36.3ZM42.545 104V100.996L42.5706 100.152V90.9091H44.8078V104H42.545ZM48.1126 104V90.9091H50.484V96.924H50.6438L55.7511 90.9091H58.6467L53.5842 96.7834L58.6914 104H55.8406L51.935 98.3878L50.484 100.101V104H48.1126Z" fill="white"/>
<path d="M20.3506 123L20 122.658L24.4534 118.166L27.457 121.176L32.2136 116.484H29.5131V116H33V119.495H32.5168V116.826L27.457 121.908L24.4534 118.897L20.3506 123Z" fill="#00FF8A"/>
<path d="M41.3097 115.727V123H40.429V116.651H40.3864L38.6108 117.83V116.935L40.429 115.727H41.3097ZM45.5587 123.099C45.0899 123.099 44.6721 123.019 44.3051 122.858C43.9405 122.697 43.6505 122.473 43.4351 122.187C43.222 121.898 43.106 121.563 43.0871 121.182H43.982C44.0009 121.416 44.0814 121.619 44.2234 121.789C44.3655 121.957 44.5513 122.087 44.781 122.18C45.0106 122.272 45.2651 122.318 45.5445 122.318C45.857 122.318 46.1339 122.264 46.3754 122.155C46.6169 122.046 46.8063 121.894 46.9436 121.7C47.0809 121.506 47.1496 121.281 47.1496 121.026C47.1496 120.758 47.0833 120.522 46.9507 120.319C46.8181 120.113 46.624 119.952 46.3683 119.836C46.1126 119.72 45.8001 119.662 45.4308 119.662H44.8484V118.881H45.4308C45.7196 118.881 45.973 118.829 46.1908 118.724C46.4109 118.62 46.5826 118.473 46.7057 118.284C46.8312 118.095 46.8939 117.872 46.8939 117.616C46.8939 117.37 46.8394 117.156 46.7305 116.974C46.6216 116.791 46.4678 116.649 46.2689 116.548C46.0724 116.446 45.8404 116.395 45.5729 116.395C45.3219 116.395 45.0852 116.441 44.8626 116.533C44.6425 116.623 44.4625 116.755 44.3229 116.928C44.1832 117.098 44.1074 117.304 44.0956 117.545H43.2433C43.2575 117.164 43.3723 116.83 43.5878 116.544C43.8032 116.255 44.0849 116.03 44.433 115.869C44.7833 115.708 45.168 115.628 45.5871 115.628C46.0369 115.628 46.4228 115.719 46.7447 115.901C47.0667 116.081 47.3141 116.319 47.4869 116.615C47.6598 116.911 47.7462 117.231 47.7462 117.574C47.7462 117.983 47.6384 118.333 47.423 118.621C47.2099 118.91 46.9199 119.11 46.553 119.222V119.278C47.0123 119.354 47.3709 119.549 47.629 119.864C47.887 120.177 48.0161 120.564 48.0161 121.026C48.0161 121.421 47.9083 121.776 47.6929 122.091C47.4798 122.403 47.1886 122.65 46.8193 122.83C46.45 123.009 46.0298 123.099 45.5587 123.099ZM52.8759 121.636V121.253C52.8759 120.988 52.9303 120.745 53.0392 120.525C53.1505 120.302 53.3115 120.125 53.5222 119.992C53.7352 119.857 53.9933 119.79 54.2963 119.79C54.6041 119.79 54.8621 119.857 55.0705 119.992C55.2788 120.125 55.4362 120.302 55.5428 120.525C55.6493 120.745 55.7026 120.988 55.7026 121.253V121.636C55.7026 121.902 55.6481 122.145 55.5392 122.368C55.4327 122.588 55.2741 122.766 55.0634 122.901C54.855 123.033 54.5993 123.099 54.2963 123.099C53.9885 123.099 53.7293 123.033 53.5186 122.901C53.3079 122.766 53.1481 122.588 53.0392 122.368C52.9303 122.145 52.8759 121.902 52.8759 121.636ZM53.6003 121.253V121.636C53.6003 121.857 53.6524 122.054 53.7565 122.229C53.8607 122.402 54.0406 122.489 54.2963 122.489C54.5449 122.489 54.7201 122.402 54.8219 122.229C54.926 122.054 54.9781 121.857 54.9781 121.636V121.253C54.9781 121.033 54.9284 120.836 54.829 120.663C54.7295 120.488 54.552 120.401 54.2963 120.401C54.0477 120.401 53.869 120.488 53.7601 120.663C53.6536 120.836 53.6003 121.033 53.6003 121.253ZM49.2537 117.474V117.091C49.2537 116.826 49.3081 116.583 49.417 116.363C49.5283 116.14 49.6893 115.963 49.9 115.83C50.1131 115.695 50.3711 115.628 50.6741 115.628C50.9819 115.628 51.24 115.695 51.4483 115.83C51.6566 115.963 51.8141 116.14 51.9206 116.363C52.0271 116.583 52.0804 116.826 52.0804 117.091V117.474C52.0804 117.74 52.0259 117.983 51.917 118.206C51.8105 118.426 51.6519 118.604 51.4412 118.739C51.2329 118.871 50.9772 118.938 50.6741 118.938C50.3664 118.938 50.1071 118.871 49.8964 118.739C49.6857 118.604 49.5259 118.426 49.417 118.206C49.3081 117.983 49.2537 117.74 49.2537 117.474ZM49.9781 117.091V117.474C49.9781 117.695 50.0302 117.892 50.1344 118.067C50.2385 118.24 50.4185 118.327 50.6741 118.327C50.9227 118.327 51.0979 118.24 51.1997 118.067C51.3039 117.892 51.356 117.695 51.356 117.474V117.091C51.356 116.871 51.3062 116.674 51.2068 116.501C51.1074 116.326 50.9298 116.239 50.6741 116.239C50.4256 116.239 50.2468 116.326 50.1379 116.501C50.0314 116.674 49.9781 116.871 49.9781 117.091ZM49.5236 123L54.5236 115.727H55.3332L50.3332 123H49.5236Z" fill="#00FF8A"/>
<path d="M8.2478 141.791L-0.9671 156.816C-1.64251 157.917 -2 159.189 -2 160.481C-2 164.347 1.134 167.5 5 167.5H275.092C278.719 167.5 281.745 164.73 282.065 161.117L286.83 107.243C287.308 101.839 281.722 97.9689 276.831 100.315L246.341 114.937C244.906 115.625 243.279 115.804 241.729 115.443L192.5 104L161.094 100.767C159.421 100.595 157.742 101.031 156.363 101.996L137.514 115.19C135.104 116.877 131.896 116.877 129.486 115.19L119.011 107.858C115.933 105.703 111.702 106.363 109.426 109.354L82.1283 145.231C80.0397 147.976 76.263 148.791 73.2288 147.151L65.2058 142.814C62.2003 141.189 58.4611 141.972 56.359 144.665L48.3783 154.89C45.972 157.973 41.5062 158.487 38.4631 156.03L18.612 140.004C15.3256 137.351 10.456 138.191 8.2478 141.791Z" fill="url(#paint7_linear_86_2828)" fill-opacity="0.3"/>
<path d="M-2 158.5L6.46271 144.702C9.61724 139.558 16.5739 138.359 21.2686 142.149L36.0901 154.114C40.4374 157.624 46.8171 156.891 50.2547 152.486L54.7986 146.664C57.8016 142.817 63.1433 141.699 67.4369 144.02L70.9698 145.93C75.3043 148.273 80.6996 147.109 83.6832 143.188L107.68 111.648C110.931 107.376 116.975 106.433 121.373 109.511L127.765 113.986C131.209 116.396 135.791 116.396 139.235 113.986L155.448 102.637C157.416 101.258 159.816 100.635 162.206 100.882L192.5 104L240.703 115.205C242.917 115.719 245.241 115.464 247.291 114.481L287.913 95" stroke="#00FF8A" stroke-width="2" stroke-linecap="round"/>
<line x1="-2" y1="142.5" x2="278" y2="142.5" stroke="white" stroke-opacity="0.2" stroke-dasharray="2 2"/>
</g>
<rect x="0.5" y="48.5" width="279" height="119" rx="17.5" stroke="white" stroke-opacity="0.3" style="mix-blend-mode:overlay"/>
<rect x="0.5" y="48.5" width="279" height="119" rx="17.5" stroke="url(#paint8_linear_86_2828)" stroke-opacity="0.1"/>
</g>
<defs>
<filter id="filter0_f_86_2828" x="-10" y="-47" width="300" height="220" filterUnits="userSpaceOnUse" color-interpolation-filters="sRGB">
<feFlood flood-opacity="0" result="BackgroundImageFix"/>
<feBlend mode="normal" in="SourceGraphic" in2="BackgroundImageFix" result="shape"/>
<feGaussianBlur stdDeviation="1.5" result="effect1_foregroundBlur_86_2828"/>
</filter>
<clipPath id="bgblur_1_86_2828_clip_path" transform="translate(10 47)"><rect x="40" y="3" width="200" height="120" rx="18"/>
</clipPath><filter id="filter1_f_86_2828" x="-30" y="-27" width="340" height="220" filterUnits="userSpaceOnUse" color-interpolation-filters="sRGB">
<feFlood flood-opacity="0" result="BackgroundImageFix"/>
<feBlend mode="normal" in="SourceGraphic" in2="BackgroundImageFix" result="shape"/>
<feGaussianBlur stdDeviation="0.5" result="effect1_foregroundBlur_86_2828"/>
</filter>
<clipPath id="bgblur_3_86_2828_clip_path" transform="translate(30 27)"><rect x="20" y="23" width="240" height="120" rx="18"/>
</clipPath><clipPath id="bgblur_5_86_2828_clip_path" transform="translate(50 2)"><rect y="48" width="280" height="120" rx="18"/>
</clipPath><linearGradient id="paint0_linear_86_2828" x1="40" y1="123" x2="193.43" y2="-40.659" gradientUnits="userSpaceOnUse">
<stop stop-color="#00FF8A" stop-opacity="0"/>
<stop offset="0.7" stop-color="#00FF8A"/>
</linearGradient>
<linearGradient id="paint1_linear_86_2828" x1="115.25" y1="47.5" x2="115.25" y2="122.5" gradientUnits="userSpaceOnUse">
<stop stop-color="#00FF8A"/>
<stop offset="1" stop-color="#00FF8A" stop-opacity="0"/>
</linearGradient>
<linearGradient id="paint2_linear_86_2828" x1="240" y1="123" x2="86.5696" y2="-40.659" gradientUnits="userSpaceOnUse">
<stop stop-color="#00FF8A"/>
<stop offset="1" stop-color="#00FF8A" stop-opacity="0"/>
</linearGradient>
<linearGradient id="paint3_linear_86_2828" x1="20" y1="143" x2="169.181" y2="-47.9521" gradientUnits="userSpaceOnUse">
<stop stop-color="#00FF8A" stop-opacity="0"/>
<stop offset="0.7" stop-color="#00FF8A"/>
</linearGradient>
<linearGradient id="paint4_linear_86_2828" x1="95.25" y1="67.5" x2="95.25" y2="142.5" gradientUnits="userSpaceOnUse">
<stop stop-color="#00FF8A"/>
<stop offset="1" stop-color="#00FF8A" stop-opacity="0"/>
</linearGradient>
<linearGradient id="paint5_linear_86_2828" x1="260" y1="143" x2="110.819" y2="-47.9521" gradientUnits="userSpaceOnUse">
<stop stop-color="#00FF8A"/>
<stop offset="1" stop-color="#00FF8A" stop-opacity="0"/>
</linearGradient>
<linearGradient id="paint6_linear_86_2828" x1="2.08616e-06" y1="168" x2="142.165" y2="-44.3001" gradientUnits="userSpaceOnUse">
<stop stop-color="#00FF8A" stop-opacity="0"/>
<stop offset="0.7" stop-color="#00FF8A"/>
</linearGradient>
<linearGradient id="paint7_linear_86_2828" x1="75.25" y1="92.5" x2="75.25" y2="167.5" gradientUnits="userSpaceOnUse">
<stop stop-color="#00FF8A"/>
<stop offset="1" stop-color="#00FF8A" stop-opacity="0"/>
</linearGradient>
<linearGradient id="paint8_linear_86_2828" x1="280" y1="168" x2="137.835" y2="-44.3001" gradientUnits="userSpaceOnUse">
<stop stop-color="#00FF8A"/>
<stop offset="1" stop-color="#00FF8A" stop-opacity="0"/>
</linearGradient>
<clipPath id="clip0_86_2828">
<rect x="40" y="3" width="200" height="120" rx="18" fill="white"/>
</clipPath>
<clipPath id="clip2_86_2828">
<rect x="20" y="23" width="240" height="120" rx="18" fill="white"/>
</clipPath>
<clipPath id="clip4_86_2828">
<rect y="48" width="280" height="120" rx="18" fill="white"/>
</clipPath>
</defs>
</svg>
