<svg width="14" height="15" viewBox="0 0 14 15" fill="none" xmlns="http://www.w3.org/2000/svg">
<path d="M4.02526 5.06066H9.02955V6.41907H7.19439V10.1316H5.69117V6.41907L4.02526 6.41241V5.06066Z" fill="white"/>
<path d="M9.03251 1.05536H0V14.0557H12.8326V5.02603H10.9847V12.1917H1.83943V2.90732H9.03251V1.05536Z" fill="white"/>
<path d="M9.81666 0V4.23909H14V0H9.81666ZM11.9414 3.51342C11.5647 3.51342 11.0356 3.3609 10.8959 2.81107L11.4652 2.65855C11.5782 3.10513 12.3134 3.09614 12.2891 2.62491C12.2891 2.43642 12.1119 2.27723 11.5937 2.30187V1.85296C12.1008 1.8776 12.2358 1.7294 12.2293 1.51394C12.2161 1.16825 11.6245 1.12563 11.545 1.53625L10.9735 1.39937C11.0895 1.00507 11.4461 0.730326 11.9473 0.730326C12.4485 0.730326 12.8593 1.07001 12.8593 1.4843C12.8593 1.89858 12.8008 1.94154 12.4209 2.04977V2.06543C12.5885 2.08874 12.9201 2.28955 12.9201 2.68552C12.9201 3.08149 12.619 3.50243 11.9414 3.51376V3.51342Z" fill="white"/>
</svg>
