<svg width="210" height="120" viewBox="0 0 210 120" fill="none" xmlns="http://www.w3.org/2000/svg">
<path d="M127.374 61.6259C127.714 61.278 128.141 61.0986 128.594 60.9437C134.894 58.7994 141.17 56.579 147.48 54.4781C154.066 52.2876 160.901 51.1842 167.826 50.6134C172.981 50.1867 178.145 50.3498 183.301 50.1949C188.81 50.0264 194.294 49.5807 199.735 48.5044C205.114 47.4418 208.432 41.3757 205.018 35.701C203.714 33.5294 202.26 31.4368 201.36 29.0451C200.219 26.0066 200.678 24.0254 202.575 21.987C203.842 20.6281 205.426 19.5818 206.508 18.0463C209.538 13.744 208.13 8.37095 204.483 5.68578C201.45 3.45448 198.069 2.00591 194.425 1.24765C191.62 0.663323 188.823 1.09545 186.44 2.73155C180.751 6.637 175.327 10.893 170.978 16.3096C169.141 18.598 167.573 21.1038 165.66 23.3486C161.583 28.1319 156.52 31.4612 150.728 33.8148C143.792 36.6332 136.892 39.5439 129.948 42.3432C122.528 45.3355 115.136 48.3903 107.689 51.3146C107.314 51.4614 106.961 51.6679 106.602 51.8527C104.95 52.698 103.276 52.7306 101.58 51.9886C94.5107 48.8958 87.2651 46.2351 80.1391 43.2809C73.486 40.5223 66.7921 37.867 60.1743 35.0269C58.1441 34.1545 56.0514 33.4126 54.0756 32.4233C51.0534 30.9122 48.6726 28.5369 46.3571 26.1697C42.2505 21.9707 38.4293 17.5054 34.7902 12.8906C33.04 10.6702 31.4147 8.33561 29.3547 6.37881C26.9875 4.13121 24.2235 2.49782 21.0736 1.64172C18.2906 0.886176 15.7087 0.973149 13.1621 2.91908C9.31373 5.85972 6.07413 9.28141 3.45691 13.3119C2.85628 14.2332 2.45677 15.3285 2.23119 16.4237C1.93767 17.8397 2.03551 19.3562 3.32374 20.1824C5.53873 21.6038 5.77518 23.6775 5.59037 25.9224C5.30772 29.3223 4.63915 32.7032 2.9813 35.6738C-0.057181 41.1121 2.19042 45.2322 6.10675 48.1131C10.1644 51.0945 14.5889 51.7739 19.3124 51.1407C24.2344 50.4803 29.159 50.0916 34.1135 50.2411C43.5034 50.5237 52.7412 51.8772 61.6582 54.8776C67.5993 56.8752 73.5077 58.9706 79.4542 60.9492C79.9081 61.1013 80.3348 61.2834 80.6745 61.6313C80.2505 62.2564 79.5521 62.3841 78.908 62.5771C71.6216 64.7758 64.3488 66.9962 56.9238 68.7193C47.3246 70.9479 37.7336 73.2281 28.1398 75.4893C24.2208 76.4133 20.2881 76.1878 16.3256 75.9187C13.4719 75.7257 10.5992 75.4594 7.76731 76.4106C4.2804 77.582 1.38596 80.9248 1.02721 84.4471C0.790767 86.7599 2.13335 88.5917 3.56834 90.2767C4.71524 91.622 5.88661 92.9429 6.96285 94.3507C8.86801 96.8402 9.37352 99.8433 10.0801 102.77C10.9661 106.442 11.5287 110.193 12.8034 113.764C13.2464 115.009 13.6975 116.24 14.5427 117.311C15.2847 118.251 16.0076 118.414 17.1518 118.004C20.7284 116.721 24.2099 115.294 27.0418 112.669C28.4415 111.369 29.1372 109.549 30.2624 108.027C34.4451 102.368 39.6822 97.9626 45.6478 94.348C51.385 90.8719 57.625 88.4993 63.8351 86.0615C73.0892 82.4278 82.4003 78.9463 91.6761 75.367C94.8097 74.1576 98.0221 73.1248 101.15 71.8991C103.357 71.0348 105.325 71.2794 107.417 72.073C114.929 74.924 122.436 77.7912 129.934 80.6748C138.107 83.8166 146.352 86.7844 154.373 90.3039C162.697 93.9539 170.168 98.8894 176.085 105.907C177.784 107.921 179.115 110.22 180.602 112.394C183.029 115.946 186.652 117.558 190.764 118.24C192.218 118.479 193.4 117.925 194.435 116.897C196.55 114.799 198.009 112.231 199.412 109.674C201.855 105.219 204.149 100.683 206.606 96.2314C208.995 91.8992 208.549 87.3769 206.641 82.9523C205.095 79.3648 202.719 76.7449 198.643 76.0029C196.457 75.6061 194.281 75.6904 192.125 75.9187C186.413 76.5248 180.83 76.041 175.286 74.5489C165.535 71.9235 155.612 69.9994 145.836 67.4637C141.094 66.2352 136.378 64.9144 131.712 63.4115C130.233 62.9358 128.662 62.7293 127.371 61.7672" stroke="white" stroke-opacity="0.1" style="mix-blend-mode:overlay" stroke-width="2" stroke-linecap="round" stroke-linejoin="round"/>
<path d="M127.374 61.6259C127.714 61.278 128.141 61.0986 128.594 60.9437C134.894 58.7994 141.17 56.579 147.48 54.4781C154.066 52.2876 160.901 51.1842 167.826 50.6134C172.981 50.1867 178.145 50.3498 183.301 50.1949C188.81 50.0264 194.294 49.5807 199.735 48.5044C205.114 47.4418 208.432 41.3757 205.018 35.701C203.714 33.5294 202.26 31.4368 201.36 29.0451C200.219 26.0066 200.678 24.0254 202.575 21.987C203.842 20.6281 205.426 19.5818 206.508 18.0463C209.538 13.744 208.13 8.37095 204.483 5.68578C201.45 3.45448 198.069 2.00591 194.425 1.24765C191.62 0.663323 188.823 1.09545 186.44 2.73155C180.751 6.637 175.327 10.893 170.978 16.3096C169.141 18.598 167.573 21.1038 165.66 23.3486C161.583 28.1319 156.52 31.4612 150.728 33.8148C143.792 36.6332 136.892 39.5439 129.948 42.3432C122.528 45.3355 115.136 48.3903 107.689 51.3146C107.314 51.4614 106.961 51.6679 106.602 51.8527C104.95 52.698 103.276 52.7306 101.58 51.9886C94.5107 48.8958 87.2651 46.2351 80.1391 43.2809C73.486 40.5223 66.7921 37.867 60.1743 35.0269C58.1441 34.1545 56.0514 33.4126 54.0756 32.4233C51.0534 30.9122 48.6726 28.5369 46.3571 26.1697C42.2505 21.9707 38.4293 17.5054 34.7902 12.8906C33.04 10.6702 31.4147 8.33561 29.3547 6.37881C26.9875 4.13121 24.2235 2.49782 21.0736 1.64172C18.2906 0.886176 15.7087 0.973149 13.1621 2.91908C9.31373 5.85972 6.07413 9.28141 3.45691 13.3119C2.85628 14.2332 2.45677 15.3285 2.23119 16.4237C1.93767 17.8397 2.03551 19.3562 3.32374 20.1824C5.53873 21.6038 5.77518 23.6775 5.59037 25.9224C5.30772 29.3223 4.63915 32.7032 2.9813 35.6738C-0.057181 41.1121 2.19042 45.2322 6.10675 48.1131C10.1644 51.0945 14.5889 51.7739 19.3124 51.1407C24.2344 50.4803 29.159 50.0916 34.1135 50.2411C43.5034 50.5237 52.7412 51.8772 61.6582 54.8776C67.5993 56.8752 73.5077 58.9706 79.4542 60.9492C79.9081 61.1013 80.3348 61.2834 80.6745 61.6313C80.2505 62.2564 79.5521 62.3841 78.908 62.5771C71.6216 64.7758 64.3488 66.9962 56.9238 68.7193C47.3246 70.9479 37.7336 73.2281 28.1398 75.4893C24.2208 76.4133 20.2881 76.1878 16.3256 75.9187C13.4719 75.7257 10.5992 75.4594 7.76731 76.4106C4.2804 77.582 1.38596 80.9248 1.02721 84.4471C0.790767 86.7599 2.13335 88.5917 3.56834 90.2767C4.71524 91.622 5.88661 92.9429 6.96285 94.3507C8.86801 96.8402 9.37352 99.8433 10.0801 102.77C10.9661 106.442 11.5287 110.193 12.8034 113.764C13.2464 115.009 13.6975 116.24 14.5427 117.311C15.2847 118.251 16.0076 118.414 17.1518 118.004C20.7284 116.721 24.2099 115.294 27.0418 112.669C28.4415 111.369 29.1372 109.549 30.2624 108.027C34.4451 102.368 39.6822 97.9626 45.6478 94.348C51.385 90.8719 57.625 88.4993 63.8351 86.0615C73.0892 82.4278 82.4003 78.9463 91.6761 75.367C94.8097 74.1576 98.0221 73.1248 101.15 71.8991C103.357 71.0348 105.325 71.2794 107.417 72.073C114.929 74.924 122.436 77.7912 129.934 80.6748C138.107 83.8166 146.352 86.7844 154.373 90.3039C162.697 93.9539 170.168 98.8894 176.085 105.907C177.784 107.921 179.115 110.22 180.602 112.394C183.029 115.946 186.652 117.558 190.764 118.24C192.218 118.479 193.4 117.925 194.435 116.897C196.55 114.799 198.009 112.231 199.412 109.674C201.855 105.219 204.149 100.683 206.606 96.2314C208.995 91.8992 208.549 87.3769 206.641 82.9523C205.095 79.3648 202.719 76.7449 198.643 76.0029C196.457 75.6061 194.281 75.6904 192.125 75.9187C186.413 76.5248 180.83 76.041 175.286 74.5489C165.535 71.9235 155.612 69.9994 145.836 67.4637C141.094 66.2352 136.378 64.9144 131.712 63.4115C130.233 62.9358 128.662 62.7293 127.371 61.7672" stroke="white" stroke-opacity="0.1" stroke-width="2" stroke-linecap="round" stroke-linejoin="round"/>
</svg>
