<svg width="21" height="20" viewBox="0 0 21 20" fill="none" xmlns="http://www.w3.org/2000/svg">
<path d="M0 20V19.1541C1.03478 19.1541 2.05435 19.1037 3.0587 19.003C4.06304 18.9023 5.05217 18.6606 6.02609 18.2779C6.26957 18.1772 6.38116 17.9909 6.36087 17.719C6.34058 17.4471 6.15797 17.2709 5.81304 17.1903C4.83913 16.9688 4.03261 16.5055 3.39348 15.8006C2.75435 15.0957 2.43478 14.2598 2.43478 13.2931V11.7825H6.33043C6.61449 11.7825 6.84783 11.6918 7.03043 11.5106C7.21304 11.3293 7.30435 11.0977 7.30435 10.8157V8.45921H10.3174C10.6826 8.45921 10.9616 8.31319 11.1543 8.02115C11.3471 7.7291 11.3623 7.42195 11.2 7.0997L7.97391 0.392749L8.73478 0L11.9913 6.76737C12.2754 7.3716 12.2449 7.94562 11.9 8.48943C11.5551 9.03323 11.0377 9.30514 10.3478 9.30514H8.15652V10.997C8.15652 11.4602 7.99928 11.8479 7.68478 12.1601C7.37029 12.4723 6.97971 12.6284 6.51304 12.6284H3.28696V13.3535C3.28696 14.0987 3.54565 14.7382 4.06304 15.2719C4.58043 15.8056 5.21449 16.1631 5.96522 16.3444L6.33043 16.435C6.91884 16.5962 7.22826 17.0191 7.2587 17.7039C7.28913 18.3887 6.96956 18.852 6.3 19.0937C5.28551 19.4763 4.25072 19.7231 3.19565 19.8338C2.14058 19.9446 1.07536 20 0 20ZM15.2478 17.2508L14.6391 16.6465C15.1667 16.1229 15.5674 15.5337 15.8413 14.8792C16.1152 14.2246 16.2522 13.5448 16.2522 12.8399C16.2522 12.1349 16.1152 11.4552 15.8413 10.8006C15.5674 10.146 15.1667 9.5569 14.6391 9.03323L15.2478 8.429C15.8362 9.01309 16.2928 9.68278 16.6174 10.4381C16.942 11.1934 17.1043 11.994 17.1043 12.8399C17.1043 13.6858 16.942 14.4864 16.6174 15.2417C16.2928 15.997 15.8362 16.6667 15.2478 17.2508ZM18.0174 20L17.4087 19.3958C18.3014 18.5096 18.9812 17.5076 19.4478 16.3897C19.9145 15.2719 20.1478 14.0886 20.1478 12.8399C20.1478 11.5911 19.9145 10.4079 19.4478 9.29003C18.9812 8.1722 18.3014 7.17019 17.4087 6.28399L18.0174 5.67976C18.9913 6.64653 19.7319 7.74421 20.2391 8.97281C20.7464 10.2014 21 11.4904 21 12.8399C21 14.1893 20.7464 15.4783 20.2391 16.7069C19.7319 17.9355 18.9913 19.0332 18.0174 20Z" fill="#83B59F"/>
</svg>
