<svg width="20" height="20" viewBox="0 0 20 20" fill="none" xmlns="http://www.w3.org/2000/svg">
<path d="M10 7.01299C9.03571 7.01299 8.21028 6.6697 7.5237 5.98312C6.83691 5.29632 6.49351 4.47078 6.49351 3.50649C6.49351 2.54221 6.83691 1.71667 7.5237 1.02987C8.21028 0.343289 9.03571 0 10 0C10.9643 0 11.7898 0.343289 12.4766 1.02987C13.1632 1.71667 13.5065 2.54221 13.5065 3.50649C13.5065 4.47078 13.1632 5.29632 12.4766 5.98312C11.7898 6.6697 10.9643 7.01299 10 7.01299ZM10 6.1039C10.7143 6.1039 11.3258 5.84957 11.8344 5.34091C12.3431 4.83225 12.5974 4.22078 12.5974 3.50649C12.5974 2.79221 12.3431 2.18074 11.8344 1.67208C11.3258 1.16342 10.7143 0.909091 10 0.909091C9.28571 0.909091 8.67424 1.16342 8.16558 1.67208C7.65693 2.18074 7.4026 2.79221 7.4026 3.50649C7.4026 4.22078 7.65693 4.83225 8.16558 5.34091C8.67424 5.84957 9.28571 6.1039 10 6.1039ZM3.50649 20C2.54221 20 1.71677 19.6566 1.03019 18.9698C0.343398 18.2832 0 17.4578 0 16.4935C0 15.5292 0.343398 14.7038 1.03019 14.0172C1.71677 13.3304 2.54221 12.987 3.50649 12.987C4.47078 12.987 5.29621 13.3304 5.98279 14.0172C6.66959 14.7038 7.01299 15.5292 7.01299 16.4935C7.01299 17.4578 6.66959 18.2832 5.98279 18.9698C5.29621 19.6566 4.47078 20 3.50649 20ZM3.50649 19.0909C4.22078 19.0909 4.83225 18.8366 5.34091 18.3279C5.84957 17.8193 6.1039 17.2078 6.1039 16.4935C6.1039 15.7792 5.84957 15.1677 5.34091 14.6591C4.83225 14.1504 4.22078 13.8961 3.50649 13.8961C2.79221 13.8961 2.18074 14.1504 1.67208 14.6591C1.16342 15.1677 0.909091 15.7792 0.909091 16.4935C0.909091 17.2078 1.16342 17.8193 1.67208 18.3279C2.18074 18.8366 2.79221 19.0909 3.50649 19.0909ZM16.4935 20C15.5292 20 14.7037 19.6566 14.0169 18.9698C13.3303 18.2832 12.987 17.4578 12.987 16.4935C12.987 15.5292 13.3303 14.7038 14.0169 14.0172C14.7037 13.3304 15.5292 12.987 16.4935 12.987C17.4578 12.987 18.2833 13.3304 18.9701 14.0172C19.6567 14.7038 20 15.5292 20 16.4935C20 17.4578 19.6567 18.2832 18.9701 18.9698C18.2833 19.6566 17.4578 20 16.4935 20ZM16.4935 19.0909C17.2078 19.0909 17.8193 18.8366 18.3279 18.3279C18.8366 17.8193 19.0909 17.2078 19.0909 16.4935C19.0909 15.7792 18.8366 15.1677 18.3279 14.6591C17.8193 14.1504 17.2078 13.8961 16.4935 13.8961C15.7792 13.8961 15.1677 14.1504 14.6591 14.6591C14.1504 15.1677 13.8961 15.7792 13.8961 16.4935C13.8961 17.2078 14.1504 17.8193 14.6591 18.3279C15.1677 18.8366 15.7792 19.0909 16.4935 19.0909Z" fill="#83B59F"/>
</svg>
