<svg width="22" height="15" viewBox="0 0 22 15" fill="none" xmlns="http://www.w3.org/2000/svg">
<path d="M0 15V13.4274C0 12.9032 0.138655 12.4647 0.415966 12.1119C0.693277 11.7591 1.06765 11.4709 1.53908 11.2473C2.54664 10.7854 3.53828 10.4083 4.51401 10.1159C5.48973 9.82359 6.73763 9.67742 8.2577 9.67742C9.77778 9.67742 11.0257 9.82359 12.0014 10.1159C12.9771 10.4083 13.9688 10.7854 14.9763 11.2473C15.4478 11.4709 15.8221 11.7591 16.0994 12.1119C16.3768 12.4647 16.5154 12.9032 16.5154 13.4274V15H0ZM18.9804 15V13.4274C18.9804 12.7823 18.8679 12.1776 18.643 11.6135C18.4183 11.0494 18.0994 10.5653 17.6863 10.1613C18.1587 10.2823 18.6209 10.4385 19.0728 10.63C19.5247 10.8216 19.9869 11.0282 20.4594 11.25C20.9318 11.4718 21.3067 11.7758 21.584 12.1621C21.8613 12.5484 22 12.9702 22 13.4274V15H18.9804ZM5.90056 5.57964C5.2535 4.94456 4.92997 4.17339 4.92997 3.26613C4.92997 2.35887 5.2535 1.5877 5.90056 0.952621C6.54762 0.31754 7.33333 0 8.2577 0C9.18207 0 9.96779 0.31754 10.6148 0.952621C11.2619 1.5877 11.5854 2.35887 11.5854 3.26613C11.5854 4.17339 11.2619 4.94456 10.6148 5.57964C9.96779 6.21472 9.18207 6.53226 8.2577 6.53226C7.33333 6.53226 6.54762 6.21472 5.90056 5.57964ZM15.2299 5.57964C14.5781 6.21472 13.7947 6.53226 12.8796 6.53226C13.2559 6.07339 13.5451 5.56421 13.7472 5.00474C13.9494 4.44546 14.0504 3.86472 14.0504 3.2625C14.0504 2.66008 13.9426 2.08669 13.7269 1.54234C13.5112 0.997984 13.2288 0.483871 12.8796 0C13.7947 0 14.5781 0.31754 15.2299 0.952621C15.8815 1.5877 16.2073 2.35887 16.2073 3.26613C16.2073 4.17339 15.8815 4.94456 15.2299 5.57964ZM0.862745 14.1532H15.6527V13.4274C15.6527 13.125 15.5756 12.8629 15.4216 12.6411C15.2675 12.4194 14.9748 12.1976 14.5434 11.9758C13.6807 11.5121 12.7563 11.1542 11.7703 10.9022C10.7843 10.6502 9.61345 10.5242 8.2577 10.5242C6.90196 10.5242 5.73109 10.6502 4.7451 10.9022C3.7591 11.1542 2.83473 11.5121 1.97199 11.9758C1.54062 12.1976 1.2479 12.4194 1.09384 12.6411C0.939776 12.8629 0.862745 13.125 0.862745 13.4274V14.1532ZM9.9986 4.9748C10.4813 4.50101 10.7227 3.93145 10.7227 3.26613C10.7227 2.60081 10.4813 2.03125 9.9986 1.55746C9.51587 1.08367 8.93557 0.846774 8.2577 0.846774C7.57983 0.846774 6.99953 1.08367 6.51681 1.55746C6.03408 2.03125 5.79272 2.60081 5.79272 3.26613C5.79272 3.93145 6.03408 4.50101 6.51681 4.9748C6.99953 5.44859 7.57983 5.68548 8.2577 5.68548C8.93557 5.68548 9.51587 5.44859 9.9986 4.9748Z" fill="#83B59F"/>
</svg>
