<svg width="20" height="20" viewBox="0 0 20 20" fill="none" xmlns="http://www.w3.org/2000/svg">
<path d="M6.1046 19.2129C4.88697 18.6882 3.82787 17.9761 2.9273 17.0764C2.02653 16.1768 1.31351 15.1191 0.788218 13.9032C0.262739 12.6871 0 11.3876 0 10.0049C0 8.62232 0.262356 7.32222 0.787069 6.1046C1.31178 4.88697 2.02395 3.82787 2.92356 2.9273C3.82318 2.02653 4.88094 1.31351 6.09684 0.788218C7.31293 0.262739 8.61236 0 9.99511 0C11.3777 0 12.6778 0.262357 13.8954 0.787069C15.113 1.31178 16.1721 2.02395 17.0727 2.92356C17.9735 3.82318 18.6865 4.88094 19.2118 6.09684C19.7373 7.31293 20 8.61236 20 9.99511C20 11.3777 19.7376 12.6778 19.2129 13.8954C18.6882 15.113 17.9761 16.1721 17.0764 17.0727C16.1768 17.9735 15.1191 18.6865 13.9032 19.2118C12.6871 19.7373 11.3876 20 10.0049 20C8.62232 20 7.32222 19.7376 6.1046 19.2129ZM16.523 16.523C18.3046 14.7414 19.1954 12.567 19.1954 10C19.1954 7.43295 18.3046 5.25862 16.523 3.47701C14.7414 1.6954 12.567 0.804598 10 0.804598C7.43295 0.804598 5.25862 1.6954 3.47701 3.47701C1.6954 5.25862 0.804598 7.43295 0.804598 10C0.804598 12.567 1.6954 14.7414 3.47701 16.523C5.25862 18.3046 7.43295 19.1954 10 19.1954C12.567 19.1954 14.7414 18.3046 16.523 16.523ZM6.17816 13.8287C5.12452 12.7795 4.5977 11.5056 4.5977 10.0069C4.5977 8.50805 5.12222 7.2318 6.17126 6.17816C7.2205 5.12452 8.49444 4.5977 9.9931 4.5977C11.492 4.5977 12.7682 5.12222 13.8218 6.17126C14.8755 7.2205 15.4023 8.49444 15.4023 9.9931C15.4023 11.492 14.8778 12.7682 13.8287 13.8218C12.7795 14.8755 11.5056 15.4023 10.0069 15.4023C8.50805 15.4023 7.2318 14.8778 6.17816 13.8287ZM13.2471 13.2471C14.1475 12.3467 14.5977 11.2644 14.5977 10C14.5977 8.73563 14.1475 7.65326 13.2471 6.75287C12.3467 5.85249 11.2644 5.4023 10 5.4023C8.73563 5.4023 7.65326 5.85249 6.75287 6.75287C5.85249 7.65326 5.4023 8.73563 5.4023 10C5.4023 11.2644 5.85249 12.3467 6.75287 13.2471C7.65326 14.1475 8.73563 14.5977 10 14.5977C11.2644 14.5977 12.3467 14.1475 13.2471 13.2471ZM9.43966 10.5603C9.27682 10.3975 9.1954 10.2107 9.1954 10C9.1954 9.78927 9.27682 9.60249 9.43966 9.43966C9.60249 9.27682 9.78927 9.1954 10 9.1954C10.2107 9.1954 10.3975 9.27682 10.5603 9.43966C10.7232 9.60249 10.8046 9.78927 10.8046 10C10.8046 10.2107 10.7232 10.3975 10.5603 10.5603C10.3975 10.7232 10.2107 10.8046 10 10.8046C9.78927 10.8046 9.60249 10.7232 9.43966 10.5603Z" fill="#83B59F"/>
</svg>
