<svg width="20" height="20" viewBox="0 0 20 20" fill="none" xmlns="http://www.w3.org/2000/svg">
<path d="M1.94805 19.0909H18.0519C18.355 19.0909 18.6039 18.9935 18.7987 18.7987C18.9935 18.6039 19.0909 18.355 19.0909 18.0519V6.81818L13.1818 0.909091H1.94805C1.64502 0.909091 1.3961 1.00649 1.2013 1.2013C1.00649 1.3961 0.909091 1.64502 0.909091 1.94805V18.0519C0.909091 18.355 1.00649 18.6039 1.2013 18.7987C1.3961 18.9935 1.64502 19.0909 1.94805 19.0909ZM1.94805 20C1.40693 20 0.94697 19.8106 0.568182 19.4318C0.189394 19.053 0 18.5931 0 18.0519V1.94805C0 1.40693 0.189394 0.94697 0.568182 0.568182C0.94697 0.189394 1.40693 0 1.94805 0H13.539L20 6.46104V18.0519C20 18.5931 19.8106 19.053 19.4318 19.4318C19.053 19.8106 18.5931 20 18.0519 20H1.94805ZM4.35065 14.8052H15.6494V13.8961H4.35065V14.8052ZM4.35065 10.4545H15.6494V9.54545H4.35065V10.4545ZM4.35065 6.1039H11.2987V5.19481H4.35065V6.1039Z" fill="#83B59F"/>
</svg>
