<svg width="19" height="20" viewBox="0 0 19 20" fill="none" xmlns="http://www.w3.org/2000/svg">
<path d="M0.748242 0.745672V7.58988V7.56325V17.7896V0.745672ZM1.60338 18.5353C1.14018 18.5353 0.75715 18.3844 0.45429 18.0826C0.15143 17.7807 0 17.399 0 16.9374V1.59787C0 1.13626 0.15143 0.754549 0.45429 0.45273C0.75715 0.15091 1.14018 0 1.60338 0H9.99437L14.3235 4.31425V7.6964C14.1988 7.6609 14.0741 7.6387 13.9494 7.62983C13.8247 7.62095 13.7 7.60763 13.5752 7.58988V4.68708H9.62025V0.745672H1.60338C1.38959 0.745672 1.19362 0.834443 1.01547 1.01198C0.837318 1.18953 0.748242 1.38482 0.748242 1.59787V16.9374C0.748242 17.1505 0.837318 17.3458 1.01547 17.5233C1.19362 17.7008 1.38959 17.7896 1.60338 17.7896H7.6962C7.78528 17.9316 7.88326 18.0604 7.99015 18.1758C8.09705 18.2912 8.20394 18.411 8.31083 18.5353H1.60338ZM15.2454 16.2583C15.8422 15.6636 16.1406 14.9312 16.1406 14.0613C16.1406 13.1913 15.8422 12.4589 15.2454 11.8642C14.6486 11.2694 13.9137 10.972 13.0408 10.972C12.1678 10.972 11.433 11.2694 10.8361 11.8642C10.2393 12.4589 9.94093 13.1913 9.94093 14.0613C9.94093 14.9312 10.2393 15.6636 10.8361 16.2583C11.433 16.8531 12.1678 17.1505 13.0408 17.1505C13.9137 17.1505 14.6486 16.8531 15.2454 16.2583ZM18.4923 20L15.4993 17.0173C15.1608 17.3014 14.7822 17.5189 14.3636 17.6698C13.9449 17.8207 13.504 17.8961 13.0408 17.8961C11.9719 17.8961 11.0633 17.5233 10.315 16.7776C9.56681 16.032 9.19269 15.1265 9.19269 14.0613C9.19269 12.996 9.56681 12.0905 10.315 11.3449C11.0633 10.5992 11.9719 10.2264 13.0408 10.2264C14.1097 10.2264 15.0183 10.5992 15.7665 11.3449C16.5148 12.0905 16.8889 12.996 16.8889 14.0613C16.8889 14.5229 16.8132 14.9623 16.6617 15.3795C16.5103 15.7967 16.2921 16.174 16.007 16.5113L19 19.494L18.4923 20Z" fill="#83B59F"/>
</svg>
