<svg width="14" height="16" viewBox="0 0 14 16" fill="none" xmlns="http://www.w3.org/2000/svg">
<path d="M1.36364 14.1609C0.969697 14.1609 0.643939 14.0307 0.386364 13.7701C0.128788 13.5096 0 13.1801 0 12.7816V3.21839C0 2.81992 0.128788 2.49042 0.386364 2.22989C0.643939 1.96935 0.969697 1.83908 1.36364 1.83908H4.40909V2.48276H1.36364C1.18182 2.48276 1.01515 2.55939 0.863636 2.71264C0.712121 2.8659 0.636364 3.03448 0.636364 3.21839V12.7816C0.636364 12.9655 0.712121 13.1341 0.863636 13.2874C1.01515 13.4406 1.18182 13.5172 1.36364 13.5172H4.40909V14.1609H1.36364ZM6.68182 16V0H7.31818V1.83908H12.6364C13.0303 1.83908 13.3561 1.96935 13.6136 2.22989C13.8712 2.49042 14 2.81992 14 3.21839V12.7816C14 13.1801 13.8712 13.5096 13.6136 13.7701C13.3561 14.0307 13.0303 14.1609 12.6364 14.1609H7.31818V16H6.68182ZM7.31818 13.5172H12.6364C12.8182 13.5172 12.9848 13.4406 13.1364 13.2874C13.2879 13.1341 13.3636 12.9655 13.3636 12.7816V3.21839C13.3636 3.03448 13.2879 2.8659 13.1364 2.71264C12.9848 2.55939 12.8182 2.48276 12.6364 2.48276H7.31818V13.5172Z" fill="#83B59F"/>
</svg>
