<svg width="16" height="12" viewBox="0 0 16 12" fill="none" xmlns="http://www.w3.org/2000/svg">
<path d="M1.37931 0L2.62069 2.41791H5.37931L4.13793 0H5.97701L7.21839 2.41791H9.97701L8.73563 0H10.5747L11.8161 2.41791H14.5747L13.3333 0H14.6207C15.0192 0 15.3487 0.126866 15.6092 0.380597C15.8697 0.634328 16 0.955224 16 1.34328V10.6567C16 11.0448 15.8697 11.3657 15.6092 11.6194C15.3487 11.8731 15.0192 12 14.6207 12H1.37931C0.980843 12 0.651341 11.8731 0.390805 11.6194C0.130268 11.3657 0 11.0448 0 10.6567V1.34328C0 0.955224 0.130268 0.634328 0.390805 0.380597C0.651341 0.126866 0.980843 0 1.37931 0ZM0.643678 3.04478V10.6567C0.643678 10.8657 0.712644 11.0373 0.850575 11.1716C0.988506 11.306 1.16475 11.3731 1.37931 11.3731H14.6207C14.8352 11.3731 15.0115 11.306 15.1494 11.1716C15.2874 11.0373 15.3563 10.8657 15.3563 10.6567V3.04478H0.643678Z" fill="#83B59F"/>
</svg>
