<svg width="16" height="14" viewBox="0 0 16 14" fill="none" xmlns="http://www.w3.org/2000/svg">
<path d="M7.95977 14C7.00766 14 6.1092 13.8156 5.26437 13.4468C4.41954 13.0781 3.68199 12.5785 3.05172 11.9483C2.42146 11.318 1.92193 10.5771 1.55316 9.72558C1.18439 8.87404 1 7.96552 1 7C1 6.02107 1.18774 5.10584 1.56322 4.25431C1.9387 3.40278 2.45163 2.66188 3.10201 2.03161C3.75239 1.40134 4.51676 0.905172 5.39511 0.543103C6.27347 0.181034 7.20881 0 8.20115 0C9.09962 0 9.95786 0.150862 10.7759 0.452586C11.5939 0.75431 12.3147 1.17337 12.9382 1.70977C13.5618 2.24617 14.0613 2.88649 14.4368 3.63075C14.8123 4.375 15 5.18966 15 6.07471C15 7.22797 14.6748 8.16667 14.0244 8.89081C13.374 9.61494 12.4387 9.97701 11.2184 9.97701H9.81035C9.40805 9.97701 9.06609 10.1178 8.78448 10.3994C8.50287 10.681 8.36207 11.023 8.36207 11.4253C8.36207 11.8142 8.46264 12.1159 8.66379 12.3305C8.86494 12.545 8.96552 12.7931 8.96552 13.0747C8.96552 13.3831 8.87835 13.6145 8.70402 13.7687C8.52969 13.9229 8.28161 14 7.95977 14ZM4.05747 7.08046C4.19157 6.94636 4.25862 6.78544 4.25862 6.5977C4.25862 6.40996 4.19157 6.24904 4.05747 6.11494C3.92337 5.98084 3.76245 5.91379 3.57471 5.91379C3.38697 5.91379 3.22605 5.98084 3.09195 6.11494C2.95785 6.24904 2.8908 6.40996 2.8908 6.5977C2.8908 6.78544 2.95785 6.94636 3.09195 7.08046C3.22605 7.21456 3.38697 7.28161 3.57471 7.28161C3.76245 7.28161 3.92337 7.21456 4.05747 7.08046ZM6.47126 3.86207C6.60536 3.72797 6.67241 3.56705 6.67241 3.37931C6.67241 3.19157 6.60536 3.03065 6.47126 2.89655C6.33716 2.76245 6.17625 2.6954 5.98851 2.6954C5.80077 2.6954 5.63985 2.76245 5.50575 2.89655C5.37165 3.03065 5.3046 3.19157 5.3046 3.37931C5.3046 3.56705 5.37165 3.72797 5.50575 3.86207C5.63985 3.99617 5.80077 4.06322 5.98851 4.06322C6.17625 4.06322 6.33716 3.99617 6.47126 3.86207ZM10.4943 3.86207C10.6284 3.72797 10.6954 3.56705 10.6954 3.37931C10.6954 3.19157 10.6284 3.03065 10.4943 2.89655C10.3602 2.76245 10.1992 2.6954 10.0115 2.6954C9.82376 2.6954 9.66284 2.76245 9.52874 2.89655C9.39464 3.03065 9.32759 3.19157 9.32759 3.37931C9.32759 3.56705 9.39464 3.72797 9.52874 3.86207C9.66284 3.99617 9.82376 4.06322 10.0115 4.06322C10.1992 4.06322 10.3602 3.99617 10.4943 3.86207ZM12.908 7.08046C13.0421 6.94636 13.1092 6.78544 13.1092 6.5977C13.1092 6.40996 13.0421 6.24904 12.908 6.11494C12.7739 5.98084 12.613 5.91379 12.4253 5.91379C12.2375 5.91379 12.0766 5.98084 11.9425 6.11494C11.8084 6.24904 11.7414 6.40996 11.7414 6.5977C11.7414 6.78544 11.8084 6.94636 11.9425 7.08046C12.0766 7.21456 12.2375 7.28161 12.4253 7.28161C12.613 7.28161 12.7739 7.21456 12.908 7.08046ZM7.95977 13.4368C8.10728 13.4368 8.21791 13.4066 8.29167 13.3463C8.36542 13.2859 8.4023 13.1954 8.4023 13.0747C8.4023 12.887 8.30172 12.6925 8.10057 12.4914C7.89943 12.2902 7.79885 11.9483 7.79885 11.4655C7.79885 10.8755 7.9933 10.386 8.38218 9.99713C8.77107 9.60824 9.24713 9.41379 9.81035 9.41379H11.2184C12.2644 9.41379 13.0623 9.10536 13.6121 8.48851C14.1619 7.87165 14.4368 7.06705 14.4368 6.07471C14.4368 4.4387 13.8065 3.11111 12.546 2.09195C11.2854 1.0728 9.83716 0.563218 8.20115 0.563218C6.33716 0.563218 4.76485 1.18678 3.4842 2.43391C2.20354 3.68103 1.56322 5.20307 1.56322 7C1.56322 8.78353 2.19013 10.3022 3.44397 11.556C4.6978 12.8099 6.20307 13.4368 7.95977 13.4368Z" fill="#83B59F"/>
</svg>
