<svg width="16" height="14" viewBox="0 0 16 14" fill="none" xmlns="http://www.w3.org/2000/svg">
<path d="M5.27443 13.4468C4.42289 13.0781 3.68199 12.5785 3.05172 11.9483C2.42146 11.318 1.92193 10.5771 1.55316 9.72558C1.18439 8.87404 1 7.96552 1 7C1 6.03448 1.18439 5.12596 1.55316 4.27443C1.92193 3.42289 2.42146 2.68199 3.05172 2.05172C3.68199 1.42146 4.42289 0.921935 5.27443 0.553161C6.12596 0.184387 7.03448 0 8 0C8.96552 0 9.87404 0.184387 10.7256 0.553161C11.5771 0.921935 12.318 1.42146 12.9483 2.05172C13.5785 2.68199 14.0781 3.42289 14.4468 4.27443C14.8156 5.12596 15 6.03448 15 7C15 7.96552 14.8156 8.87404 14.4468 9.72558C14.0781 10.5771 13.5785 11.318 12.9483 11.9483C12.318 12.5785 11.5771 13.0781 10.7256 13.4468C9.87404 13.8156 8.96552 14 8 14C7.03448 14 6.12596 13.8156 5.27443 13.4468ZM8 13.4569C8.50958 12.8132 8.92529 12.1897 9.24713 11.5862C9.56897 10.9828 9.83046 10.2989 10.0316 9.53448H5.96839C6.19636 10.3525 6.46456 11.0632 6.77299 11.6667C7.08142 12.2701 7.49042 12.8669 8 13.4569ZM7.29598 13.3966C6.88027 12.954 6.49808 12.3807 6.14943 11.6767C5.80077 10.9727 5.54598 10.2586 5.38506 9.53448H2.08621C2.56897 10.6341 3.27299 11.5259 4.19828 12.2098C5.12356 12.8937 6.15613 13.2893 7.29598 13.3966ZM8.70402 13.3966C9.84387 13.2893 10.8764 12.8937 11.8017 12.2098C12.727 11.5259 13.431 10.6341 13.9138 9.53448H10.6149C10.387 10.272 10.0987 10.9928 9.75 11.6968C9.40134 12.4009 9.05268 12.9674 8.70402 13.3966ZM1.86494 8.97126H5.26437C5.19732 8.62261 5.15038 8.284 5.12356 7.95546C5.09674 7.62692 5.08333 7.30843 5.08333 7C5.08333 6.69157 5.09674 6.37308 5.12356 6.04454C5.15038 5.716 5.19732 5.37739 5.26437 5.02874H1.86494C1.77107 5.31035 1.69732 5.62548 1.64368 5.97414C1.59004 6.3228 1.56322 6.66475 1.56322 7C1.56322 7.33525 1.59004 7.6772 1.64368 8.02586C1.69732 8.37452 1.77107 8.68966 1.86494 8.97126ZM5.82759 8.97126H10.1724C10.2395 8.62261 10.2864 8.29071 10.3132 7.97557C10.34 7.66044 10.3534 7.33525 10.3534 7C10.3534 6.66475 10.34 6.33956 10.3132 6.02443C10.2864 5.70929 10.2395 5.37739 10.1724 5.02874H5.82759C5.76054 5.37739 5.7136 5.70929 5.68678 6.02443C5.65996 6.33956 5.64655 6.66475 5.64655 7C5.64655 7.33525 5.65996 7.66044 5.68678 7.97557C5.7136 8.29071 5.76054 8.62261 5.82759 8.97126ZM10.7356 8.97126H14.1351C14.2289 8.68966 14.3027 8.37452 14.3563 8.02586C14.41 7.6772 14.4368 7.33525 14.4368 7C14.4368 6.66475 14.41 6.3228 14.3563 5.97414C14.3027 5.62548 14.2289 5.31035 14.1351 5.02874H10.7356C10.8027 5.37739 10.8496 5.716 10.8764 6.04454C10.9033 6.37308 10.9167 6.69157 10.9167 7C10.9167 7.30843 10.9033 7.62692 10.8764 7.95546C10.8496 8.284 10.8027 8.62261 10.7356 8.97126ZM10.6149 4.46552H13.9138C13.4176 3.33908 12.7237 2.44732 11.8319 1.79023C10.9401 1.13314 9.89751 0.730843 8.70402 0.583333C9.11973 1.09291 9.49521 1.68966 9.83046 2.37356C10.1657 3.05747 10.4272 3.75479 10.6149 4.46552ZM5.96839 4.46552H10.0316C9.80364 3.66092 9.52538 2.94013 9.19684 2.30316C8.8683 1.66619 8.46935 1.0795 8 0.543103C7.53065 1.0795 7.13171 1.66619 6.80316 2.30316C6.47462 2.94013 6.19636 3.66092 5.96839 4.46552ZM2.08621 4.46552H5.38506C5.5728 3.75479 5.83429 3.05747 6.16954 2.37356C6.50479 1.68966 6.88027 1.09291 7.29598 0.583333C6.08908 0.730843 5.0431 1.13649 4.15805 1.80029C3.27299 2.46408 2.58238 3.35249 2.08621 4.46552Z" fill="#83B59F"/>
</svg>
