<svg width="18" height="16" viewBox="0 0 18 16" fill="none" xmlns="http://www.w3.org/2000/svg">
<path d="M9 12.6753C10.0172 12.6753 10.875 12.3247 11.5733 11.6234C12.2716 10.9221 12.6207 10.0606 12.6207 9.03896C12.6207 8.01732 12.2716 7.15584 11.5733 6.45455C10.875 5.75325 10.0172 5.4026 9 5.4026C7.98276 5.4026 7.125 5.75325 6.42672 6.45455C5.72845 7.15584 5.37931 8.01732 5.37931 9.03896C5.37931 10.0606 5.72845 10.9221 6.42672 11.6234C7.125 12.3247 7.98276 12.6753 9 12.6753ZM9 11.9481C8.17241 11.9481 7.48276 11.671 6.93103 11.1169C6.37931 10.5628 6.10345 9.87013 6.10345 9.03896C6.10345 8.20779 6.37931 7.51515 6.93103 6.96104C7.48276 6.40693 8.17241 6.12987 9 6.12987C9.82759 6.12987 10.5172 6.40693 11.069 6.96104C11.6207 7.51515 11.8966 8.20779 11.8966 9.03896C11.8966 9.87013 11.6207 10.5628 11.069 11.1169C10.5172 11.671 9.82759 11.9481 9 11.9481ZM1.55172 16C1.10345 16 0.732759 15.8528 0.439655 15.5584C0.146552 15.2641 0 14.8918 0 14.4416V3.63636C0 3.18615 0.146552 2.81385 0.439655 2.51948C0.732759 2.22511 1.10345 2.07792 1.55172 2.07792H4.55172L6.46552 0H11.5345L13.4483 2.07792H16.4483C16.8966 2.07792 17.2672 2.22511 17.5603 2.51948C17.8534 2.81385 18 3.18615 18 3.63636V14.4416C18 14.8918 17.8534 15.2641 17.5603 15.5584C17.2672 15.8528 16.8966 16 16.4483 16H1.55172ZM1.55172 15.2727H16.4483C16.6897 15.2727 16.8879 15.1948 17.0431 15.039C17.1983 14.8831 17.2759 14.684 17.2759 14.4416V3.63636C17.2759 3.39394 17.1983 3.19481 17.0431 3.03896C16.8879 2.88312 16.6897 2.80519 16.4483 2.80519H13.1379L11.2241 0.727273H6.77586L4.86207 2.80519H1.55172C1.31034 2.80519 1.11207 2.88312 0.956897 3.03896C0.801724 3.19481 0.724138 3.39394 0.724138 3.63636V14.4416C0.724138 14.684 0.801724 14.8831 0.956897 15.039C1.11207 15.1948 1.31034 15.2727 1.55172 15.2727Z" fill="#83B59F"/>
</svg>
