<svg width="224" height="225" viewBox="0 0 224 225" fill="none" xmlns="http://www.w3.org/2000/svg">
<path d="M64.4041 81.0098H144.473V102.755H115.11V162.185H91.0586V102.755L64.4041 102.648V81.0098Z" fill="white"/>
<path d="M144.52 16.8939H0V225H205.322V80.4554H175.755V195.162H29.4309V46.5396H144.52V16.8939Z" fill="#006236"/>
<path d="M157.067 0V67.8582H224V0H157.067ZM191.062 56.242C185.036 56.242 176.57 53.8004 174.335 44.9989L183.442 42.5573C185.251 49.7062 197.014 49.5623 196.625 42.0189C196.625 39.0016 193.791 36.4533 185.498 36.8478V29.6617C193.612 30.0562 195.773 27.6839 195.668 24.2347C195.458 18.7011 185.993 18.0188 184.72 24.5919L175.576 22.4008C177.432 16.0889 183.137 11.6909 191.156 11.6909C199.175 11.6909 205.748 17.1285 205.748 23.7602C205.748 30.392 204.812 31.0797 198.734 32.8123V33.0628C201.415 33.436 206.721 36.6506 206.721 42.9891C206.721 49.3277 201.904 56.0661 191.062 56.2473V56.242Z" fill="white"/>
</svg>
