<svg width="133" height="30" viewBox="0 0 133 30" fill="none" xmlns="http://www.w3.org/2000/svg">
<path d="M0 0V30H133V0H0ZM131.445 1.55649V14.3659H124.293C124.207 14.2679 124.12 14.167 124.028 14.0776C122.822 12.8324 121.154 12.1407 119.42 12.1695H113.501C113.277 12.1753 113.061 12.0888 112.902 11.9274C112.738 11.7717 112.646 11.5555 112.646 11.3278C112.646 10.8493 113.032 10.4631 113.51 10.4631H123.68L124.492 11.2731C124.541 11.3307 124.622 11.348 124.691 11.3163C124.76 11.2875 124.803 11.2212 124.803 11.1462V4.80496H113.501C109.895 4.82225 106.986 7.76518 107.007 11.3739C107.012 12.4116 107.263 13.432 107.741 14.3515H105.054C105.218 13.7173 105.299 13.063 105.299 12.4087C105.319 10.3766 104.495 8.42813 103.023 7.02729C101.589 5.57744 99.6276 4.77325 97.5884 4.80496H86.7677C86.6554 4.79919 86.5517 4.86837 86.5113 4.97502C86.4653 5.08167 86.4883 5.20561 86.569 5.2892L87.7786 6.49981V13.7317L87.168 14.3515H80.2124V12.72H72.3035V10.4573H82.4734L83.683 11.6679C83.7608 11.7602 83.8875 11.789 83.997 11.74C84.1064 11.6968 84.1755 11.5872 84.1669 11.4691V4.81937H65.6331C65.5207 4.8136 65.4142 4.88278 65.3767 4.98943C65.3307 5.09608 65.3508 5.22002 65.4315 5.30361L66.6411 6.51422V13.7462L66.0305 14.3659H62.7904L62.174 13.7462V6.51422L63.3808 5.30361C63.4729 5.22579 63.496 5.0932 63.4384 4.98943C63.4009 4.88278 63.2944 4.8136 63.1821 4.81937H55.662C55.5496 4.8136 55.4459 4.88278 55.4085 4.98943C55.3624 5.09608 55.3826 5.22002 55.4632 5.30361L55.9759 5.81668L51.4252 12.3223L46.8717 5.81668L47.3844 5.30361C47.4765 5.22579 47.4996 5.0932 47.442 4.98943C47.4017 4.88278 47.298 4.8136 47.1856 4.81937H39.6828C39.5705 4.8136 39.4668 4.88278 39.4265 4.98943C39.3804 5.09608 39.4035 5.22002 39.4841 5.30361L40.6938 6.51422V13.7462L40.0832 14.3659H36.843L36.2324 13.7462V6.51422L37.4421 5.30361C37.5227 5.22002 37.5458 5.09608 37.4997 4.98943C37.4594 4.88278 37.3557 4.8136 37.2433 4.81937H29.562C29.4496 4.8136 29.3431 4.88278 29.3056 4.98943C29.2595 5.09608 29.2826 5.22002 29.3632 5.30361L30.57 6.51422V13.7462L29.9623 14.3659H27.6006L27.0245 13.7894C26.4168 8.67025 22.0764 4.81649 16.9267 4.81937H7.43657C7.32424 4.8136 7.22056 4.88278 7.18024 4.98943C7.13415 5.09608 7.1572 5.22002 7.23784 5.30361L8.44751 6.51422V13.7462L7.85131 14.3659H1.55529V1.55649H131.445ZM93.4266 14.3659V10.4718H97.6633C98.7549 10.4775 99.6362 11.3595 99.642 12.452C99.6535 12.9766 99.4461 13.4839 99.066 13.847C98.8211 14.0978 98.513 14.2765 98.176 14.3659H93.4266ZM14.107 15.6341H21.3996C21.0885 17.868 19.179 19.5311 16.9238 19.5254H14.107V15.6341ZM14.107 14.3659V10.4718H16.9238C19.179 10.466 21.0914 12.1291 21.3996 14.3659H14.107ZM1.55241 28.4435V15.6341H7.85131L8.46191 16.251V23.4829L7.25224 24.6935C7.1716 24.7771 7.14856 24.901 7.19464 25.0077C7.23496 25.1143 7.33865 25.1835 7.45097 25.1777H16.9411C22.0966 25.1806 26.4399 21.3182 27.0389 16.1933L27.615 15.6341H29.9825L30.5902 16.251V23.4829L29.3834 24.6935C29.297 24.7742 29.2739 24.901 29.3258 25.0077C29.3632 25.1143 29.4698 25.1835 29.5821 25.1777H37.2635C37.3758 25.1835 37.4795 25.1143 37.5198 25.0077C37.5659 24.901 37.5429 24.7771 37.4622 24.6935L36.2526 23.4829V16.2567L36.8632 15.6399H40.1033L40.6851 16.2567V23.4887L39.4755 24.6993C39.3948 24.7829 39.3718 24.9068 39.4179 25.0135C39.4582 25.1201 39.5619 25.1893 39.6742 25.1835H47.3556C47.4679 25.1893 47.5716 25.1201 47.6119 25.0135C47.658 24.9068 47.635 24.7829 47.5543 24.6993L46.3475 23.4887V15.6341H46.9034L51.4252 22.1109L55.9586 15.6341H56.526V23.4829L55.3019 24.6935C55.2213 24.7771 55.1983 24.901 55.2443 25.0077C55.2847 25.1143 55.3883 25.1835 55.5007 25.1777H63.1821C63.2944 25.1835 63.4009 25.1143 63.4384 25.0077C63.4989 24.9039 63.4758 24.7684 63.3808 24.6935L62.174 23.4829V16.2567L62.7904 15.6399H66.0305L66.6411 16.2567V23.4887L65.4315 24.6993C65.3508 24.7829 65.3307 24.9068 65.3767 25.0135C65.4142 25.1201 65.5207 25.1893 65.6331 25.1835H84.1755V18.5165C84.1871 18.3983 84.1151 18.2888 84.0056 18.2456C83.899 18.1995 83.7752 18.2196 83.6917 18.3003L82.482 19.5254H72.3035V17.2627H80.2124V15.6341H87.1565L87.7671 16.251V23.4829L86.5574 24.6935C86.4768 24.7771 86.4537 24.901 86.4998 25.0077C86.5401 25.1143 86.6438 25.1835 86.7562 25.1777H94.4375C94.5499 25.1835 94.6564 25.1143 94.6939 25.0077C94.7457 24.901 94.7227 24.7742 94.6363 24.6935L93.4295 23.4829V20.0817H95.6962L98.0579 24.0824L97.4588 24.6935C97.3667 24.7684 97.3379 24.8982 97.3897 25.0077C97.4329 25.1172 97.5395 25.1864 97.6576 25.1777H98.6685V25.0913L98.7117 25.1777H104.786C104.944 25.172 105.068 25.0394 105.062 24.878C105.06 24.8319 105.048 24.7886 105.028 24.7512L101.612 18.9864C102.715 18.309 103.631 17.3636 104.273 16.2365C104.388 16.0377 104.486 15.8359 104.581 15.6341H108.631C108.717 15.7321 108.804 15.8301 108.896 15.9224C110.103 17.1676 111.77 17.8565 113.504 17.8276H119.434C119.904 17.8276 120.287 18.1995 120.298 18.6693C120.298 19.1478 119.913 19.534 119.434 19.534H109.262L108.45 18.7241C108.401 18.6664 108.32 18.6491 108.251 18.6808C108.173 18.701 108.121 18.7702 108.124 18.8509V25.1922H119.432C123.038 25.172 125.944 22.2319 125.926 18.6232C125.921 17.5884 125.67 16.568 125.192 15.6485H131.439V28.4579L1.55241 28.4435Z" fill="white" fill-opacity="0.3" style="mix-blend-mode:overlay"/>
<path d="M0 0V30H133V0H0ZM131.445 1.55649V14.3659H124.293C124.207 14.2679 124.12 14.167 124.028 14.0776C122.822 12.8324 121.154 12.1407 119.42 12.1695H113.501C113.277 12.1753 113.061 12.0888 112.902 11.9274C112.738 11.7717 112.646 11.5555 112.646 11.3278C112.646 10.8493 113.032 10.4631 113.51 10.4631H123.68L124.492 11.2731C124.541 11.3307 124.622 11.348 124.691 11.3163C124.76 11.2875 124.803 11.2212 124.803 11.1462V4.80496H113.501C109.895 4.82225 106.986 7.76518 107.007 11.3739C107.012 12.4116 107.263 13.432 107.741 14.3515H105.054C105.218 13.7173 105.299 13.063 105.299 12.4087C105.319 10.3766 104.495 8.42813 103.023 7.02729C101.589 5.57744 99.6276 4.77325 97.5884 4.80496H86.7677C86.6554 4.79919 86.5517 4.86837 86.5113 4.97502C86.4653 5.08167 86.4883 5.20561 86.569 5.2892L87.7786 6.49981V13.7317L87.168 14.3515H80.2124V12.72H72.3035V10.4573H82.4734L83.683 11.6679C83.7608 11.7602 83.8875 11.789 83.997 11.74C84.1064 11.6968 84.1755 11.5872 84.1669 11.4691V4.81937H65.6331C65.5207 4.8136 65.4142 4.88278 65.3767 4.98943C65.3307 5.09608 65.3508 5.22002 65.4315 5.30361L66.6411 6.51422V13.7462L66.0305 14.3659H62.7904L62.174 13.7462V6.51422L63.3808 5.30361C63.4729 5.22579 63.496 5.0932 63.4384 4.98943C63.4009 4.88278 63.2944 4.8136 63.1821 4.81937H55.662C55.5496 4.8136 55.4459 4.88278 55.4085 4.98943C55.3624 5.09608 55.3826 5.22002 55.4632 5.30361L55.9759 5.81668L51.4252 12.3223L46.8717 5.81668L47.3844 5.30361C47.4765 5.22579 47.4996 5.0932 47.442 4.98943C47.4017 4.88278 47.298 4.8136 47.1856 4.81937H39.6828C39.5705 4.8136 39.4668 4.88278 39.4265 4.98943C39.3804 5.09608 39.4035 5.22002 39.4841 5.30361L40.6938 6.51422V13.7462L40.0832 14.3659H36.843L36.2324 13.7462V6.51422L37.4421 5.30361C37.5227 5.22002 37.5458 5.09608 37.4997 4.98943C37.4594 4.88278 37.3557 4.8136 37.2433 4.81937H29.562C29.4496 4.8136 29.3431 4.88278 29.3056 4.98943C29.2595 5.09608 29.2826 5.22002 29.3632 5.30361L30.57 6.51422V13.7462L29.9623 14.3659H27.6006L27.0245 13.7894C26.4168 8.67025 22.0764 4.81649 16.9267 4.81937H7.43657C7.32424 4.8136 7.22056 4.88278 7.18024 4.98943C7.13415 5.09608 7.1572 5.22002 7.23784 5.30361L8.44751 6.51422V13.7462L7.85131 14.3659H1.55529V1.55649H131.445ZM93.4266 14.3659V10.4718H97.6633C98.7549 10.4775 99.6362 11.3595 99.642 12.452C99.6535 12.9766 99.4461 13.4839 99.066 13.847C98.8211 14.0978 98.513 14.2765 98.176 14.3659H93.4266ZM14.107 15.6341H21.3996C21.0885 17.868 19.179 19.5311 16.9238 19.5254H14.107V15.6341ZM14.107 14.3659V10.4718H16.9238C19.179 10.466 21.0914 12.1291 21.3996 14.3659H14.107ZM1.55241 28.4435V15.6341H7.85131L8.46191 16.251V23.4829L7.25224 24.6935C7.1716 24.7771 7.14856 24.901 7.19464 25.0077C7.23496 25.1143 7.33865 25.1835 7.45097 25.1777H16.9411C22.0966 25.1806 26.4399 21.3182 27.0389 16.1933L27.615 15.6341H29.9825L30.5902 16.251V23.4829L29.3834 24.6935C29.297 24.7742 29.2739 24.901 29.3258 25.0077C29.3632 25.1143 29.4698 25.1835 29.5821 25.1777H37.2635C37.3758 25.1835 37.4795 25.1143 37.5198 25.0077C37.5659 24.901 37.5429 24.7771 37.4622 24.6935L36.2526 23.4829V16.2567L36.8632 15.6399H40.1033L40.6851 16.2567V23.4887L39.4755 24.6993C39.3948 24.7829 39.3718 24.9068 39.4179 25.0135C39.4582 25.1201 39.5619 25.1893 39.6742 25.1835H47.3556C47.4679 25.1893 47.5716 25.1201 47.6119 25.0135C47.658 24.9068 47.635 24.7829 47.5543 24.6993L46.3475 23.4887V15.6341H46.9034L51.4252 22.1109L55.9586 15.6341H56.526V23.4829L55.3019 24.6935C55.2213 24.7771 55.1983 24.901 55.2443 25.0077C55.2847 25.1143 55.3883 25.1835 55.5007 25.1777H63.1821C63.2944 25.1835 63.4009 25.1143 63.4384 25.0077C63.4989 24.9039 63.4758 24.7684 63.3808 24.6935L62.174 23.4829V16.2567L62.7904 15.6399H66.0305L66.6411 16.2567V23.4887L65.4315 24.6993C65.3508 24.7829 65.3307 24.9068 65.3767 25.0135C65.4142 25.1201 65.5207 25.1893 65.6331 25.1835H84.1755V18.5165C84.1871 18.3983 84.1151 18.2888 84.0056 18.2456C83.899 18.1995 83.7752 18.2196 83.6917 18.3003L82.482 19.5254H72.3035V17.2627H80.2124V15.6341H87.1565L87.7671 16.251V23.4829L86.5574 24.6935C86.4768 24.7771 86.4537 24.901 86.4998 25.0077C86.5401 25.1143 86.6438 25.1835 86.7562 25.1777H94.4375C94.5499 25.1835 94.6564 25.1143 94.6939 25.0077C94.7457 24.901 94.7227 24.7742 94.6363 24.6935L93.4295 23.4829V20.0817H95.6962L98.0579 24.0824L97.4588 24.6935C97.3667 24.7684 97.3379 24.8982 97.3897 25.0077C97.4329 25.1172 97.5395 25.1864 97.6576 25.1777H98.6685V25.0913L98.7117 25.1777H104.786C104.944 25.172 105.068 25.0394 105.062 24.878C105.06 24.8319 105.048 24.7886 105.028 24.7512L101.612 18.9864C102.715 18.309 103.631 17.3636 104.273 16.2365C104.388 16.0377 104.486 15.8359 104.581 15.6341H108.631C108.717 15.7321 108.804 15.8301 108.896 15.9224C110.103 17.1676 111.77 17.8565 113.504 17.8276H119.434C119.904 17.8276 120.287 18.1995 120.298 18.6693C120.298 19.1478 119.913 19.534 119.434 19.534H109.262L108.45 18.7241C108.401 18.6664 108.32 18.6491 108.251 18.6808C108.173 18.701 108.121 18.7702 108.124 18.8509V25.1922H119.432C123.038 25.172 125.944 22.2319 125.926 18.6232C125.921 17.5884 125.67 16.568 125.192 15.6485H131.439V28.4579L1.55241 28.4435Z" fill="white" fill-opacity="0.1"/>
</svg>
