<svg width="202" height="191" viewBox="0 0 202 191" fill="none" xmlns="http://www.w3.org/2000/svg">
<path d="M58.0391 68.6763H130.195V87.1107H103.734V137.492H82.0593V87.1107L58.0391 87.0203V68.6763Z" fill="white"/>
<path d="M130.237 14.3218H0V190.744H185.031V68.206H158.385V165.449H26.5223V39.4539H130.237V14.3218Z" fill="#006236"/>
<path d="M141.543 0V57.5268H201.861V0H141.543ZM172.178 47.6792C166.748 47.6792 159.119 45.6093 157.105 38.1479L165.312 36.078C166.942 42.1384 177.543 42.0164 177.192 35.6215C177.192 33.0636 174.638 30.9033 167.165 31.2378V25.1457C174.477 25.4801 176.424 23.469 176.329 20.545C176.14 15.8539 167.61 15.2754 166.464 20.8478L158.223 18.9903C159.896 13.6394 165.037 9.91094 172.264 9.91094C179.49 9.91094 185.414 14.5207 185.414 20.1428C185.414 25.7648 184.57 26.3478 179.092 27.8166V28.029C181.509 28.3454 186.29 31.0705 186.29 36.4441C186.29 41.8176 181.95 47.53 172.178 47.6837V47.6792Z" fill="white"/>
</svg>
