<svg width="42" height="40" viewBox="0 0 42 40" fill="none" xmlns="http://www.w3.org/2000/svg">
<path d="M12.0758 14.4017H27.0887V18.2675H21.5832V28.8329H17.0735V18.2675L12.0758 18.2486V14.4017Z" fill="white"/>
<path d="M27.0975 3.00337H0V40H38.4979V14.3032H32.954V34.6955H5.5183V8.27371H27.0975V3.00337Z" fill="white"/>
<path d="M29.45 0V12.0637H42V0H29.45ZM35.8241 9.99858C34.6942 9.99858 33.1068 9.56452 32.6878 7.99981L34.3955 7.56575C34.7346 8.83666 36.9402 8.81107 36.8672 7.47003C36.8672 6.93361 36.3358 6.48059 34.781 6.55073V5.27318C36.3023 5.34332 36.7075 4.92157 36.6878 4.30839C36.6483 3.32465 34.8736 3.20334 34.635 4.37189L32.9205 3.98237C33.2685 2.86026 34.3383 2.07838 35.8418 2.07838C37.3454 2.07838 38.5778 3.04506 38.5778 4.22404C38.5778 5.40302 38.4023 5.52528 37.2626 5.83329V5.87784C37.7654 5.94418 38.7602 6.51566 38.7602 7.64251C38.7602 8.76937 37.8571 9.9673 35.8241 9.99952V9.99858Z" fill="white"/>
</svg>
