<svg width="500" height="386" viewBox="0 0 500 386" fill="none" xmlns="http://www.w3.org/2000/svg">
<path d="M321.59 38.6924V102.835H64.6943V436.429H393.31V180.505H457.309V501H1V38.6924H321.59ZM499 1V150.399H351.595V1H499ZM426.688 25.084C408.388 25.084 395.231 35.1486 390.951 49.6963L390.654 50.7061L391.678 50.9512L412.089 55.8398L413.105 56.083L413.304 55.0576C414.614 48.2929 420.103 45.2553 425.414 45.3398C430.616 45.4228 435.254 48.4519 435.728 53.6035L435.76 54.1084C435.868 57.7066 434.812 60.5617 431.754 62.4951C428.582 64.5002 423.109 65.6171 414.107 65.1797L413.059 65.1289V83.2607L414.106 83.2109C423.283 82.7746 429.275 83.9784 432.935 86.001C436.523 87.9844 437.896 90.7606 437.896 93.749V93.7744L437.896 93.8008C438.099 97.7213 436.731 100.598 434.565 102.534C432.375 104.493 429.291 105.552 425.995 105.643C419.371 105.824 412.314 102.11 410.439 94.7051L410.19 93.7217L409.211 93.9844L388.882 99.4316L387.929 99.6875L388.171 100.644C393.207 120.47 411.934 126.204 425.478 126.471V126.511L426.494 126.494C438.806 126.288 447.803 122.355 453.729 116.571C459.647 110.794 462.431 103.236 462.431 95.9131C462.431 88.5369 459.334 82.9617 455.464 79.1377C452.586 76.2947 449.257 74.3946 446.409 73.4307C448.66 72.7563 450.57 72.119 452.173 71.4189C454.357 70.4653 456.047 69.3683 457.294 67.8418C459.771 64.8082 460.26 60.3523 460.26 53.0117C460.26 37.4937 444.954 25.084 426.688 25.084ZM204.256 228.262L203.26 228.258L144.759 228.023V181.742H321.484V228.258H255.942V360.853H204.256V228.262Z" stroke="url(#paint0_linear_116_17709)" style="mix-blend-mode:overlay" stroke-width="2"/>
<path d="M321.59 38.6924V102.835H64.6943V436.429H393.31V180.505H457.309V501H1V38.6924H321.59ZM499 1V150.399H351.595V1H499ZM426.688 25.084C408.388 25.084 395.231 35.1486 390.951 49.6963L390.654 50.7061L391.678 50.9512L412.089 55.8398L413.105 56.083L413.304 55.0576C414.614 48.2929 420.103 45.2553 425.414 45.3398C430.616 45.4228 435.254 48.4519 435.728 53.6035L435.76 54.1084C435.868 57.7066 434.812 60.5617 431.754 62.4951C428.582 64.5002 423.109 65.6171 414.107 65.1797L413.059 65.1289V83.2607L414.106 83.2109C423.283 82.7746 429.275 83.9784 432.935 86.001C436.523 87.9844 437.896 90.7606 437.896 93.749V93.7744L437.896 93.8008C438.099 97.7213 436.731 100.598 434.565 102.534C432.375 104.493 429.291 105.552 425.995 105.643C419.371 105.824 412.314 102.11 410.439 94.7051L410.19 93.7217L409.211 93.9844L388.882 99.4316L387.929 99.6875L388.171 100.644C393.207 120.47 411.934 126.204 425.478 126.471V126.511L426.494 126.494C438.806 126.288 447.803 122.355 453.729 116.571C459.647 110.794 462.431 103.236 462.431 95.9131C462.431 88.5369 459.334 82.9617 455.464 79.1377C452.586 76.2947 449.257 74.3946 446.409 73.4307C448.66 72.7563 450.57 72.119 452.173 71.4189C454.357 70.4653 456.047 69.3683 457.294 67.8418C459.771 64.8082 460.26 60.3523 460.26 53.0117C460.26 37.4937 444.954 25.084 426.688 25.084ZM204.256 228.262L203.26 228.258L144.759 228.023V181.742H321.484V228.258H255.942V360.853H204.256V228.262Z" stroke="url(#paint1_linear_116_17709)" stroke-opacity="0.3" stroke-width="2"/>
<defs>
<linearGradient id="paint0_linear_116_17709" x1="250" y1="0" x2="250" y2="502" gradientUnits="userSpaceOnUse">
<stop stop-color="white"/>
<stop offset="1" stop-color="white" stop-opacity="0"/>
</linearGradient>
<linearGradient id="paint1_linear_116_17709" x1="250" y1="0" x2="250" y2="502" gradientUnits="userSpaceOnUse">
<stop stop-color="white"/>
<stop offset="1" stop-color="white" stop-opacity="0"/>
</linearGradient>
</defs>
</svg>
