<svg width="311" height="70" viewBox="0 0 311 70" fill="none" xmlns="http://www.w3.org/2000/svg">
<g clip-path="url(#clip0_79_8752)">
<path d="M0 0V70H311V0H0ZM307.363 3.63182V33.5204H290.641C290.439 33.2917 290.237 33.0563 290.021 32.8478C287.199 29.9424 283.3 28.3282 279.245 28.3955H265.405C264.88 28.4089 264.375 28.2071 264.004 27.8305C263.621 27.4673 263.405 26.9629 263.405 26.4316C263.405 25.3151 264.308 24.4139 265.426 24.4139H289.206L291.105 26.3038C291.22 26.4383 291.408 26.4787 291.57 26.4047C291.732 26.3374 291.833 26.1827 291.833 26.0079V11.2116H265.405C256.973 11.2519 250.171 18.1188 250.218 26.5392C250.232 28.9604 250.818 31.3413 251.936 33.4867H245.652C246.036 32.0071 246.225 30.4804 246.225 28.9537C246.272 24.2121 244.346 19.6656 240.904 16.397C237.55 13.014 232.964 11.1376 228.196 11.2116H202.893C202.63 11.1981 202.388 11.3595 202.293 11.6084C202.186 11.8572 202.24 12.1464 202.428 12.3415L205.257 15.1662V32.0407L203.829 33.4867H187.564V29.6801H169.071V24.4005H192.851L195.68 27.2252C195.862 27.4404 196.158 27.5077 196.414 27.3934C196.67 27.2925 196.832 27.0369 196.811 26.7611V11.2452H153.473C153.21 11.2317 152.961 11.3932 152.873 11.642C152.766 11.8909 152.813 12.1801 153.001 12.3751L155.83 15.1998V32.0744L154.402 33.5204H146.826L145.384 32.0744V15.1998L148.206 12.3751C148.422 12.1935 148.476 11.8841 148.341 11.642C148.253 11.3932 148.004 11.2317 147.742 11.2452H130.157C129.894 11.2317 129.652 11.3932 129.564 11.642C129.456 11.8909 129.504 12.1801 129.692 12.3751L130.891 13.5723L120.25 28.7519L109.602 13.5723L110.801 12.3751C111.017 12.1935 111.07 11.8841 110.936 11.642C110.841 11.3932 110.599 11.2317 110.336 11.2452H92.7922C92.5295 11.2317 92.2871 11.3932 92.1928 11.642C92.085 11.8909 92.1389 12.1801 92.3275 12.3751L95.1561 15.1998V32.0744L93.7283 33.5204H86.1517L84.7239 32.0744V15.1998L87.5525 12.3751C87.7411 12.1801 87.795 11.8909 87.6872 11.642C87.5929 11.3932 87.3505 11.2317 87.0878 11.2452H69.1261C68.8634 11.2317 68.6142 11.3932 68.5267 11.642C68.4189 11.8909 68.4728 12.1801 68.6614 12.3751L71.4833 15.1998V32.0744L70.0622 33.5204H64.5397L63.1927 32.1753C61.7717 20.2306 51.6223 11.2385 39.5805 11.2452H17.3893C17.1266 11.2317 16.8842 11.3932 16.7899 11.642C16.6821 11.8909 16.736 12.1801 16.9246 12.3751L19.7532 15.1998V32.0744L18.3591 33.5204H3.6368V3.63182H307.363ZM218.464 33.5204V24.4341H228.371C230.923 24.4475 232.984 26.5056 232.997 29.0546C233.024 30.2786 232.539 31.4623 231.65 32.3098C231.078 32.8949 230.357 33.3119 229.569 33.5204H218.464ZM32.9871 36.4796H50.0396C49.3123 41.692 44.8471 45.5726 39.5737 45.5592H32.9871V36.4796ZM32.9871 33.5204V24.4341H39.5737C44.8471 24.4206 49.319 28.3013 50.0396 33.5204H32.9871ZM3.63006 66.3682V36.4796H18.3591L19.7869 37.9189V54.7934L16.9582 57.6182C16.7697 57.8132 16.7158 58.1024 16.8236 58.3513C16.9178 58.6001 17.1603 58.7615 17.423 58.7481H39.6141C51.6695 58.7548 61.8255 49.7425 63.2264 37.7844L64.5733 36.4796H70.1094L71.5304 37.9189V54.7934L68.7085 57.6182C68.5065 57.8065 68.4526 58.1024 68.5738 58.3513C68.6614 58.6001 68.9106 58.7615 69.1732 58.7481H87.135C87.3976 58.7615 87.6401 58.6001 87.7344 58.3513C87.8421 58.1024 87.7882 57.8132 87.5997 57.6182L84.771 54.7934V37.9324L86.1988 36.4931H93.7755L95.1359 37.9324V54.8069L92.3073 57.6316C92.1187 57.8267 92.0648 58.1159 92.1726 58.3647C92.2669 58.6136 92.5093 58.775 92.772 58.7615H110.734C110.996 58.775 111.239 58.6136 111.333 58.3647C111.441 58.1159 111.387 57.8267 111.198 57.6316L108.377 54.8069V36.4796H109.676L120.25 51.592L130.851 36.4796H132.177V54.7934L129.315 57.6182C129.126 57.8132 129.073 58.1024 129.18 58.3513C129.275 58.6001 129.517 58.7615 129.78 58.7481H147.742C148.004 58.7615 148.253 58.6001 148.341 58.3513C148.482 58.1091 148.428 57.793 148.206 57.6182L145.384 54.7934V37.9324L146.826 36.4931H154.402L155.83 37.9324V54.8069L153.001 57.6316C152.813 57.8267 152.766 58.1159 152.873 58.3647C152.961 58.6136 153.21 58.775 153.473 58.7615H196.832V43.2052C196.858 42.9295 196.69 42.6739 196.434 42.573C196.185 42.4654 195.895 42.5125 195.7 42.7008L192.871 45.5592H169.071V40.2796H187.564V36.4796H203.802L205.23 37.9189V54.7934L202.401 57.6182C202.213 57.8132 202.159 58.1024 202.266 58.3513C202.361 58.6001 202.603 58.7615 202.866 58.7481H220.828C221.09 58.7615 221.339 58.6001 221.427 58.3513C221.548 58.1024 221.494 57.8065 221.292 57.6182L218.47 54.7934V46.8572H223.771L229.293 56.1924L227.892 57.6182C227.677 57.793 227.61 58.0957 227.731 58.3513C227.832 58.6068 228.081 58.7683 228.357 58.7481H230.721V58.5463L230.822 58.7481H245.026C245.396 58.7346 245.686 58.4252 245.672 58.0486C245.666 57.941 245.639 57.8401 245.592 57.7527L237.604 44.3015C240.183 42.721 242.325 40.515 243.827 37.8853C244.096 37.4212 244.325 36.9504 244.548 36.4796H254.017C254.219 36.7083 254.421 36.937 254.636 37.1522C257.458 40.0576 261.358 41.6651 265.412 41.5978H279.279C280.377 41.5978 281.273 42.4654 281.299 43.5617C281.299 44.6781 280.397 45.5794 279.279 45.5794H255.492L253.592 43.6895C253.478 43.555 253.289 43.5146 253.128 43.5886C252.946 43.6357 252.825 43.7971 252.831 43.9854V58.7817H279.272C287.704 58.7346 294.5 51.8745 294.459 43.4541C294.446 41.0396 293.86 38.6587 292.742 36.5133H307.35V66.4018L3.63006 66.3682Z" fill="#EFE300"/>
</g>
<defs>
<clipPath id="clip0_79_8752">
<rect width="311" height="70" fill="white"/>
</clipPath>
</defs>
</svg>
