<svg width="14" height="14" viewBox="0 0 14 14" fill="none" xmlns="http://www.w3.org/2000/svg">
<path d="M5.82653 9.96939L10.8163 4.97959L10.4388 4.60204L5.82653 9.21429L3.52041 6.90816L3.14286 7.28571L5.82653 9.96939ZM7.0049 14C6.03687 14 5.12619 13.8162 4.27286 13.4486C3.41952 13.0808 2.67721 12.5818 2.04592 11.9516C1.41463 11.3213 0.91585 10.581 0.549592 9.73061C0.183197 8.88027 0 7.9717 0 7.0049C0 6.03687 0.18381 5.12619 0.551429 4.27286C0.919184 3.41952 1.41816 2.67721 2.04837 2.04592C2.67871 1.41463 3.41905 0.91585 4.26939 0.549592C5.11973 0.183197 6.0283 0 6.9951 0C7.96313 0 8.87381 0.18381 9.72714 0.551429C10.5805 0.919184 11.3228 1.41816 11.9541 2.04837C12.5854 2.67871 13.0841 3.41905 13.4504 4.26939C13.8168 5.11973 14 6.0283 14 6.9951C14 7.96313 13.8162 8.87381 13.4486 9.72714C13.0808 10.5805 12.5818 11.3228 11.9516 11.9541C11.3213 12.5854 10.581 13.0841 9.73061 13.4504C8.88027 13.8168 7.9717 14 7.0049 14ZM6.99939 13.4796C8.80252 13.4796 10.3333 12.8505 11.5918 11.5924C12.8503 10.3345 13.4796 8.80388 13.4796 7.00061C13.4796 5.19748 12.8505 3.66667 11.5924 2.40816C10.3345 1.14966 8.80388 0.520408 7.00061 0.520408C5.19748 0.520408 3.66667 1.14946 2.40816 2.40755C1.14966 3.66551 0.520408 5.19612 0.520408 6.99939C0.520408 8.80252 1.14946 10.3333 2.40755 11.5918C3.66551 12.8503 5.19612 13.4796 6.99939 13.4796Z" fill="#83B59F"/>
</svg>
