<svg width="14" height="14" viewBox="0 0 14 14" fill="none" xmlns="http://www.w3.org/2000/svg">
<path d="M4.10345 10.2989L7 7.4023L9.89655 10.2989L10.2989 9.89655L7.4023 7L10.2989 4.10345L9.89655 3.70115L7 6.5977L4.10345 3.70115L3.70115 4.10345L6.5977 7L3.70115 9.89655L4.10345 10.2989ZM7.00342 14C6.03562 14 5.12556 13.8164 4.27322 13.4491C3.42088 13.0818 2.67951 12.5832 2.04911 11.9535C1.41857 11.3238 0.919454 10.5833 0.551753 9.73221C0.183917 8.88095 0 7.97135 0 7.00342C0 6.03562 0.183649 5.12556 0.550948 4.27322C0.918247 3.42088 1.41676 2.67951 2.04649 2.04911C2.67623 1.41857 3.41666 0.919454 4.26779 0.551753C5.11905 0.183917 6.02865 0 6.99658 0C7.96438 0 8.87444 0.18365 9.72678 0.550949C10.5791 0.918247 11.3205 1.41676 11.9509 2.04649C12.5814 2.67623 13.0805 3.41666 13.4482 4.26779C13.8161 5.11905 14 6.02865 14 6.99658C14 7.96438 13.8164 8.87444 13.4491 9.72678C13.0818 10.5791 12.5832 11.3205 11.9535 11.9509C11.3238 12.5814 10.5833 13.0805 9.73221 13.4482C8.88095 13.8161 7.97135 14 7.00342 14ZM7 13.4368C8.79694 13.4368 10.319 12.8132 11.5661 11.5661C12.8132 10.319 13.4368 8.79694 13.4368 7C13.4368 5.20307 12.8132 3.68103 11.5661 2.43391C10.319 1.18678 8.79694 0.563218 7 0.563218C5.20307 0.563218 3.68103 1.18678 2.43391 2.43391C1.18678 3.68103 0.563218 5.20307 0.563218 7C0.563218 8.79694 1.18678 10.319 2.43391 11.5661C3.68103 12.8132 5.20307 13.4368 7 13.4368Z" fill="#5E8272" fill-opacity="0.6"/>
</svg>
