<svg width="16" height="14" viewBox="0 0 16 14" fill="none" xmlns="http://www.w3.org/2000/svg">
<path d="M7.71839 10.5H8.28161V6.1954H7.71839V10.5ZM8.28161 5.07399C8.36207 4.99689 8.4023 4.90134 8.4023 4.78736C8.4023 4.67337 8.36375 4.57783 8.28664 4.50072C8.20953 4.42361 8.11399 4.38506 8 4.38506C7.88602 4.38506 7.79047 4.42361 7.71336 4.50072C7.63626 4.57783 7.5977 4.67337 7.5977 4.78736C7.5977 4.90134 7.63793 4.99689 7.71839 5.07399C7.79885 5.1511 7.89272 5.18966 8 5.18966C8.10728 5.18966 8.20115 5.1511 8.28161 5.07399ZM8.00342 14C7.03562 14 6.12556 13.8164 5.27322 13.4491C4.42088 13.0818 3.67951 12.5832 3.04911 11.9535C2.41857 11.3238 1.91945 10.5833 1.55175 9.73221C1.18392 8.88095 1 7.97135 1 7.00342C1 6.03562 1.18365 5.12556 1.55095 4.27322C1.91825 3.42088 2.41676 2.67951 3.04649 2.04911C3.67623 1.41857 4.41666 0.919454 5.26779 0.551753C6.11905 0.183917 7.02865 0 7.99658 0C8.96438 0 9.87444 0.18365 10.7268 0.550949C11.5791 0.918247 12.3205 1.41676 12.9509 2.04649C13.5814 2.67623 14.0805 3.41666 14.4482 4.26779C14.8161 5.11905 15 6.02865 15 6.99658C15 7.96438 14.8164 8.87444 14.4491 9.72678C14.0818 10.5791 13.5832 11.3205 12.9535 11.9509C12.3238 12.5814 11.5833 13.0805 10.7322 13.4482C9.88095 13.8161 8.97135 14 8.00342 14ZM8 13.4368C9.79694 13.4368 11.319 12.8132 12.5661 11.5661C13.8132 10.319 14.4368 8.79694 14.4368 7C14.4368 5.20307 13.8132 3.68103 12.5661 2.43391C11.319 1.18678 9.79694 0.563218 8 0.563218C6.20307 0.563218 4.68103 1.18678 3.43391 2.43391C2.18678 3.68103 1.56322 5.20307 1.56322 7C1.56322 8.79694 2.18678 10.319 3.43391 11.5661C4.68103 12.8132 6.20307 13.4368 8 13.4368Z" fill="#83B59F"/>
</svg>
