<svg width="16" height="11" viewBox="0 0 16 11" fill="none" xmlns="http://www.w3.org/2000/svg">
<path d="M1.11484 11C0.79828 11 0.533333 10.894 0.32 10.6819C0.106667 10.4698 0 10.2065 0 9.89179V1.23134C0 0.916667 0.127312 0.632774 0.381936 0.379664C0.636559 0.126555 0.922151 0 1.23871 0H5.09936L6.75097 1.64179H13.1303C13.3643 1.64179 13.5708 1.6931 13.7497 1.79571C13.9286 1.89832 14.0731 2.03856 14.1832 2.21642H6.52387L4.87226 0.574627H1.23871C1.04602 0.574627 0.887742 0.636194 0.763871 0.759328C0.64 0.882463 0.578065 1.0398 0.578065 1.23134V9.76866C0.578065 9.91915 0.615914 10.0423 0.691613 10.1381C0.767312 10.2338 0.867097 10.3159 0.990968 10.3843L2.82839 4.26866H16L14.2039 10.2201C14.1351 10.4527 14.0009 10.6409 13.8013 10.7845C13.6017 10.9282 13.3781 11 13.1303 11H1.11484ZM1.58968 10.4254H13.5432L15.2155 4.84328H3.26194L1.58968 10.4254Z" fill="#83B59F"/>
</svg>
