<svg width="16" height="14" viewBox="0 0 16 14" fill="none" xmlns="http://www.w3.org/2000/svg">
<path d="M2.36364 14C1.9697 14 1.64394 13.8712 1.38636 13.6136C1.12879 13.3561 1 13.0303 1 12.6364V1.36364C1 0.969697 1.12879 0.643939 1.38636 0.386364C1.64394 0.128788 1.9697 0 2.36364 0H11.1364L15 3.86364V12.6364C15 13.0303 14.8712 13.3561 14.6136 13.6136C14.3561 13.8712 14.0303 14 13.6364 14H2.36364ZM2.36364 13.3636H13.6364C13.8485 13.3636 14.0227 13.2955 14.1591 13.1591C14.2955 13.0227 14.3636 12.8485 14.3636 12.6364V4.27273H10.7273V0.636364H2.36364C2.15152 0.636364 1.97727 0.704545 1.84091 0.840909C1.70455 0.977273 1.63636 1.15152 1.63636 1.36364V12.6364C1.63636 12.8485 1.70455 13.0227 1.84091 13.1591C1.97727 13.2955 2.15152 13.3636 2.36364 13.3636ZM4.04545 10.3636H11.9545V9.72727H4.04545V10.3636ZM4.04545 4.27273H8V3.63636H4.04545V4.27273ZM4.04545 7.31818H11.9545V6.68182H4.04545V7.31818Z" fill="#83B59F"/>
</svg>
