<svg width="16" height="14" viewBox="0 0 16 14" fill="none" xmlns="http://www.w3.org/2000/svg">
<path d="M8 14L6.09091 12.0784H3.16883C2.83117 12.0784 2.55195 11.9673 2.33117 11.7451C2.11039 11.5229 2 11.2418 2 10.902V1.17647C2 0.836601 2.11039 0.555556 2.33117 0.333333C2.55195 0.111111 2.83117 0 3.16883 0H12.8312C13.1688 0 13.4481 0.111111 13.6688 0.333333C13.8896 0.555556 14 0.836601 14 1.17647V10.902C14 11.2418 13.8896 11.5229 13.6688 11.7451C13.4481 11.9673 13.1688 12.0784 12.8312 12.0784H9.90909L8 14ZM2.54545 11.0196C3.24675 10.3268 4.06169 9.78105 4.99026 9.38235C5.91883 8.98366 6.92208 8.78431 8 8.78431C9.07792 8.78431 10.0812 8.98366 11.0097 9.38235C11.9383 9.78105 12.7532 10.3268 13.4545 11.0196V1.17647C13.4545 1.01961 13.3896 0.875817 13.2597 0.745098C13.1299 0.614379 12.987 0.54902 12.8312 0.54902H3.16883C3.01299 0.54902 2.87013 0.614379 2.74026 0.745098C2.61039 0.875817 2.54545 1.01961 2.54545 1.17647V11.0196ZM9.57792 6.2549C10.0065 5.82353 10.2208 5.29412 10.2208 4.66667C10.2208 4.03922 10.0065 3.5098 9.57792 3.07843C9.14935 2.64706 8.62338 2.43137 8 2.43137C7.37662 2.43137 6.85065 2.64706 6.42208 3.07843C5.99351 3.5098 5.77922 4.03922 5.77922 4.66667C5.77922 5.29412 5.99351 5.82353 6.42208 6.2549C6.85065 6.68627 7.37662 6.90196 8 6.90196C8.62338 6.90196 9.14935 6.68627 9.57792 6.2549ZM2.97403 11.5294H13.026V11.4118C12.2987 10.7059 11.5097 10.183 10.6591 9.84314C9.80844 9.50327 8.92208 9.33333 8 9.33333C7.1039 9.33333 6.22727 9.5 5.37013 9.83333C4.51299 10.1667 3.71429 10.6797 2.97403 11.3725V11.5294ZM6.82143 5.85294C6.49026 5.51961 6.32468 5.12418 6.32468 4.66667C6.32468 4.20915 6.49026 3.81373 6.82143 3.48039C7.1526 3.14706 7.54545 2.98039 8 2.98039C8.45455 2.98039 8.8474 3.14706 9.17857 3.48039C9.50974 3.81373 9.67532 4.20915 9.67532 4.66667C9.67532 5.12418 9.50974 5.51961 9.17857 5.85294C8.8474 6.18627 8.45455 6.35294 8 6.35294C7.54545 6.35294 7.1526 6.18627 6.82143 5.85294Z" fill="#83B59F"/>
</svg>
