<svg width="16" height="14" viewBox="0 0 16 14" fill="none" xmlns="http://www.w3.org/2000/svg">
<path d="M8 14C7.03448 14 6.12596 13.8156 5.27443 13.4468C4.42289 13.0781 3.68199 12.5785 3.05172 11.9483C2.42146 11.318 1.92193 10.5771 1.55316 9.72558C1.18439 8.87404 1 7.96552 1 7C1 6.03448 1.18439 5.12596 1.55316 4.27443C1.92193 3.42289 2.42146 2.68199 3.05172 2.05172C3.68199 1.42146 4.42289 0.921935 5.27443 0.553161C6.12596 0.184387 7.03448 0 8 0C8.96552 0 9.87404 0.184387 10.7256 0.553161C11.5771 0.921935 12.318 1.42146 12.9483 2.05172C13.5785 2.68199 14.0781 3.42289 14.4468 4.27443C14.8156 5.12596 15 6.03448 15 7V7.68391C15 8.32759 14.7787 8.87069 14.3362 9.31322C13.8937 9.75575 13.3506 9.97701 12.7069 9.97701C12.2241 9.97701 11.7883 9.83621 11.3994 9.5546C11.0105 9.27299 10.7356 8.90421 10.5747 8.44828C10.2931 8.90421 9.92768 9.27299 9.47845 9.5546C9.02921 9.83621 8.5364 9.97701 8 9.97701C7.16858 9.97701 6.46456 9.6887 5.88793 9.11207C5.3113 8.53544 5.02299 7.83142 5.02299 7C5.02299 6.16858 5.3113 5.46456 5.88793 4.88793C6.46456 4.3113 7.16858 4.02299 8 4.02299C8.83142 4.02299 9.53544 4.3113 10.1121 4.88793C10.6887 5.46456 10.977 6.16858 10.977 7V7.68391C10.977 8.15326 11.148 8.55891 11.4899 8.90086C11.8319 9.24282 12.2375 9.41379 12.7069 9.41379C13.1762 9.41379 13.5819 9.24282 13.9239 8.90086C14.2658 8.55891 14.4368 8.15326 14.4368 7.68391V7C14.4368 5.20307 13.8132 3.68103 12.5661 2.43391C11.319 1.18678 9.79694 0.563218 8 0.563218C6.20307 0.563218 4.68103 1.18678 3.43391 2.43391C2.18678 3.68103 1.56322 5.20307 1.56322 7C1.56322 8.79694 2.18678 10.319 3.43391 11.5661C4.68103 12.8132 6.20307 13.4368 8 13.4368H12.023V14H8ZM9.70977 8.70977C10.1791 8.24042 10.4138 7.6705 10.4138 7C10.4138 6.3295 10.1791 5.75958 9.70977 5.29023C9.24042 4.82088 8.6705 4.58621 8 4.58621C7.3295 4.58621 6.75958 4.82088 6.29023 5.29023C5.82088 5.75958 5.58621 6.3295 5.58621 7C5.58621 7.6705 5.82088 8.24042 6.29023 8.70977C6.75958 9.17912 7.3295 9.41379 8 9.41379C8.6705 9.41379 9.24042 9.17912 9.70977 8.70977Z" fill="#83B59F"/>
</svg>
