<svg width="10" height="10" viewBox="0 0 10 10" fill="none" xmlns="http://www.w3.org/2000/svg">
<path d="M2.58117 10C1.86688 10 1.25812 9.74838 0.75487 9.24513C0.251623 8.74188 0 8.13312 0 7.41883C0 7.07251 0.0622294 6.74242 0.186688 6.42857C0.311147 6.11472 0.497836 5.83333 0.746753 5.58442L2.6461 3.7013L2.97078 4.02597L1.07143 5.90909C0.865801 6.11472 0.708874 6.3474 0.600649 6.60714C0.492424 6.86688 0.438312 7.13745 0.438312 7.41883C0.438312 8.01407 0.646645 8.51732 1.06331 8.92857C1.47998 9.33983 1.98593 9.54545 2.58117 9.54545C2.86255 9.54545 3.13312 9.49134 3.39286 9.38312C3.6526 9.27489 3.88528 9.11797 4.09091 8.91234L5.99026 7.02922L6.31494 7.3539L4.41558 9.23701C4.16667 9.48593 3.88528 9.67532 3.57143 9.80519C3.25758 9.93507 2.92749 10 2.58117 10ZM3.75 6.55844L3.44156 6.23377L6.25 3.42532L6.57468 3.75L3.75 6.55844ZM7.3539 6.2987L7.02922 5.99026L8.92857 4.09091C9.12338 3.8961 9.27489 3.67154 9.38312 3.41721C9.49134 3.16288 9.54545 2.89502 9.54545 2.61364C9.54545 2.0184 9.33712 1.50974 8.92045 1.08766C8.50379 0.665584 7.99784 0.454545 7.4026 0.454545C7.12121 0.454545 6.85065 0.508658 6.59091 0.616883C6.33117 0.725108 6.1039 0.876623 5.90909 1.07143L4.00974 2.97078L3.7013 2.6461L5.58442 0.762987C5.83333 0.514069 6.11472 0.324675 6.42857 0.194805C6.74242 0.0649351 7.07251 0 7.41883 0C8.13312 0 8.74188 0.254329 9.24513 0.762987C9.74838 1.27165 10 1.88312 10 2.5974C10 2.94372 9.93777 3.2711 9.81331 3.57955C9.68885 3.88799 9.50216 4.16667 9.25325 4.41558L7.3539 6.2987Z" fill="#5E8272"/>
</svg>
