<svg width="59" height="30" viewBox="0 0 59 30" fill="none" xmlns="http://www.w3.org/2000/svg">
<path d="M9.25162 0C5.42711 0 2.79067 1.68823 0.795531 3.59734C0.795531 3.59734 -0.0100836 4.36538 9.56585e-05 4.3888L8.37912 12.8182L16.7566 4.3888C15.1701 2.19147 12.1789 0 9.25162 0Z" fill="white"/>
<path d="M29.9415 0C26.1169 0 23.4805 1.68823 21.4852 3.59734C21.4852 3.59734 20.7496 4.34491 20.7162 4.3888L10.3594 14.8093L18.7254 23.2255L37.4466 4.3888C35.8599 2.19147 32.8702 0 29.9415 0Z" fill="white"/>
<path d="M50.6881 0C46.8636 0 44.2272 1.68823 42.232 3.59734C42.232 3.59734 41.4657 4.35076 41.4366 4.3888L20.7188 25.234L22.9117 27.4401C26.3044 30.8533 31.8577 30.8533 35.2506 27.4401L58.1669 4.3888H58.1932C56.6066 2.19147 53.6167 0 50.6881 0Z" fill="white"/>
</svg>
