<svg width="60" height="30" viewBox="0 0 60 30" fill="none" xmlns="http://www.w3.org/2000/svg">
<path d="M59.6002 23.514V23.8542C59.5897 23.9694 59.5794 24.0845 59.5704 24.1997C59.5678 24.2423 59.5717 24.2837 59.5794 24.3251C59.5911 24.3936 59.5846 24.4635 59.5614 24.5282C59.5083 24.6717 59.5458 24.8192 59.5807 24.9602C59.5936 25.0107 59.5872 25.0637 59.5626 25.109C59.5561 25.1219 59.5432 25.1297 59.529 25.1297C59.5134 25.1297 59.4991 25.1219 59.4913 25.109C59.4862 25.1 59.4759 25.0947 59.4655 25.0961C59.4552 25.0961 59.446 25.1025 59.4421 25.1129C59.4072 25.1879 59.4021 25.272 59.4267 25.3509C59.4525 25.4324 59.5251 25.5851 59.3775 25.5993C59.3658 25.6005 59.3541 25.607 59.3476 25.6173C59.3398 25.6277 59.3386 25.6406 59.3425 25.6536L59.4007 25.8476C59.4072 25.8671 59.3968 25.8878 59.3775 25.8942C59.3373 25.9019 59.2984 25.9175 59.2635 25.9394C59.0046 26.1335 58.7676 26.3559 58.5579 26.603C58.5216 26.6457 58.4905 26.6936 58.4659 26.744C58.2769 27.1541 58.0813 27.5849 57.8794 28.035C57.816 28.1811 57.7369 28.3182 57.6424 28.4463C57.4573 28.6779 57.2139 28.859 56.938 28.9701C56.7283 29.0621 56.512 29.1371 56.2906 29.1966C56.0407 29.2625 55.8012 29.3621 55.5786 29.4927C55.5241 29.5238 55.5009 29.5769 55.4542 29.6105C55.44 29.6222 55.4322 29.6183 55.431 29.6001C55.4283 29.5601 55.4322 29.5199 55.4452 29.4812C55.5228 29.2677 55.6471 29.0736 55.8103 28.9146C56.0278 28.6934 56.244 28.4825 56.4175 28.2239C56.5185 28.0764 56.5755 27.903 56.5807 27.7245C56.5807 27.7128 56.5743 27.7025 56.5639 27.696C56.5458 27.6857 56.5276 27.6935 56.512 27.7193C56.3191 28.0298 56.0718 28.3028 55.7818 28.5266C55.4814 28.758 55.1499 28.8912 54.7693 28.9857C54.5802 29.0349 54.3951 29.0943 54.2137 29.1656C54.0144 29.2445 53.8267 29.3492 53.6544 29.4759C53.6091 29.5083 53.5962 29.4992 53.6157 29.4462C53.6557 29.3402 53.6959 29.238 53.7373 29.1396C53.8435 28.8887 54.0597 28.6752 54.3045 28.5006C54.4999 28.361 54.6928 28.2225 54.882 28.088C54.9609 28.0311 55.0321 27.9665 55.0956 27.8927C55.0995 27.8888 55.1007 27.8837 55.1007 27.8784C55.1007 27.8733 55.0981 27.8681 55.0942 27.8642C55.0942 27.8642 55.0891 27.8616 55.0864 27.8603C55.0827 27.8603 55.0774 27.863 55.0774 27.863C55.0503 27.8759 55.023 27.8913 54.9984 27.9095C54.9117 27.9729 54.8262 28.0337 54.742 28.0944C54.5337 28.2407 54.3031 28.3532 54.0597 28.4295C53.8629 28.4928 53.6661 28.5524 53.4679 28.608C53.2207 28.674 52.9876 28.7865 52.7818 28.9391C52.6834 29.0168 52.5991 29.1138 52.537 29.2224C52.5111 29.2677 52.4995 29.2638 52.5046 29.2121C52.506 29.1836 52.5138 29.1564 52.5241 29.1293C52.5876 28.9676 52.6446 28.8369 52.695 28.7348C52.8414 28.4373 53.1042 28.1436 53.358 27.9341C53.4369 27.872 53.521 27.8163 53.6091 27.7673C53.6208 27.762 53.6194 27.7556 53.6091 27.7503C53.5911 27.74 53.569 27.7374 53.5495 27.7452C53.1883 27.8591 52.8219 27.9626 52.4814 28.1243C52.1719 28.2678 51.9052 28.4916 51.7084 28.7709C51.654 28.8486 51.6177 28.9379 51.5997 29.0322C51.5983 29.0439 51.5892 29.0543 51.5776 29.0582C51.5712 29.0607 51.5646 29.0594 51.5595 29.0568C51.5542 29.0529 51.5517 29.0465 51.5517 29.0414C51.5466 28.943 51.5569 28.8461 51.5827 28.7516C51.7912 28.0233 52.326 27.4335 53.0317 27.1527C53.1534 27.1076 53.2777 27.0674 53.4033 27.0351C53.4408 27.0248 53.4771 27.008 53.5081 26.9846C53.7037 26.8385 53.8654 26.6508 53.9794 26.4348C54.105 26.1903 54.2112 25.9368 54.298 25.6769C54.3718 25.448 54.4702 25.2281 54.5919 25.0223C54.6061 25.0004 54.6036 24.9719 54.5854 24.9537C53.8461 24.1751 53.1727 23.3382 52.572 22.4495C52.5384 22.4016 52.5085 22.3512 52.4814 22.2995C52.4788 22.2942 52.48 22.2878 52.4853 22.2839C52.8568 21.9915 53.1961 21.6591 53.4939 21.2918C53.8072 20.918 54.0675 20.5028 54.2668 20.0565C54.3472 19.865 54.4144 19.6685 54.4702 19.4679C54.5064 19.3373 54.5052 19.2027 54.5583 19.0721C54.5595 19.0656 54.5595 19.0578 54.5569 19.0514C54.5544 19.0463 54.5491 19.041 54.5427 19.0385C54.5284 19.0332 54.5128 19.0371 54.5038 19.05C54.4417 19.1135 54.3861 19.1834 54.3381 19.257C54.2176 19.4679 54.0817 19.6685 53.9316 19.8573C53.1598 20.8299 52.1862 21.6372 51.0403 22.1118C50.7567 22.2296 50.4601 22.3149 50.1573 22.3667C50.1417 22.3694 50.1274 22.3796 50.1196 22.3952C50.1132 22.4106 50.1132 22.4276 50.1222 22.4417C50.1624 22.5038 50.1973 22.5698 50.2272 22.6371C50.2854 22.7961 50.3527 22.9527 50.4291 23.1041C50.4525 23.1492 50.4601 23.201 50.4537 23.2515C50.4525 23.2658 50.4459 23.2683 50.4355 23.2593C50.4162 23.2451 50.3994 23.2256 50.3863 23.2049C50.3644 23.1674 50.3229 23.1441 50.2789 23.1467C50.2479 23.1467 50.2168 23.1492 50.1856 23.1558C50.1352 23.1662 50.1196 23.1959 50.1378 23.2437C50.1688 23.3213 50.2065 23.3937 50.253 23.4623C50.3061 23.5374 50.332 23.6279 50.3268 23.7197C50.3256 23.7275 50.3203 23.7353 50.3125 23.7378C50.3049 23.7404 50.2957 23.7378 50.2906 23.7327C50.2504 23.6952 50.2051 23.6642 50.1546 23.6421C50.1403 23.6357 50.1249 23.6357 50.1118 23.6421C50.0989 23.6486 50.0886 23.6603 50.0847 23.6745C50.0692 23.7275 50.0743 23.7845 50.0976 23.8323C50.1364 23.9138 50.1714 23.9913 50.2038 24.069C50.2414 24.1583 50.3113 24.2216 50.2854 24.329C50.2737 24.3729 50.2608 24.3743 50.244 24.3315C50.2323 24.3032 50.2233 24.2747 50.2141 24.245C50.209 24.2294 50.1973 24.2151 50.1819 24.2087C50.1663 24.2009 50.1495 24.1997 50.1325 24.2048C50.0653 24.2294 49.9927 24.2915 49.9992 24.3704C50.007 24.4764 49.9992 24.5825 49.9759 24.686C49.9746 24.6924 49.9695 24.7002 49.9642 24.7055C49.9189 24.7365 49.8957 24.7895 49.9035 24.8438C49.9164 24.8852 49.9111 24.9318 49.8879 24.9693C49.8231 25.0598 49.7649 25.1556 49.7157 25.2564C49.6276 25.4324 49.5513 25.6122 49.4853 25.7985C49.4334 25.946 49.3752 26.0985 49.3129 26.2589C49.2327 26.4633 49.1653 26.6715 49.0761 26.8682C48.874 27.3119 48.5931 27.7142 48.2473 28.0569C47.7981 28.5135 47.2362 28.8434 46.6185 29.0115C46.467 29.0529 46.2961 29.0904 46.1058 29.1242C46.0009 29.1396 45.8947 29.1488 45.7885 29.1525C45.6591 29.1603 45.4324 29.1746 45.3198 29.256C45.1579 29.3724 44.9767 29.4605 44.7838 29.5134C44.4652 29.604 44.1403 29.6751 43.8127 29.7243C43.5654 29.7632 43.2844 29.846 43.0785 29.996C43.0708 30.0011 43.0617 30.0011 43.0539 29.9973C43.0462 29.9934 43.0423 29.9843 43.0423 29.9766C43.0566 29.7915 43.2831 29.604 43.423 29.5148C43.6249 29.3841 43.8412 29.2574 44.0082 29.084C44.0419 29.049 44.0626 29.0039 44.0691 28.956C44.0704 28.9482 44.0677 28.9418 44.0613 28.9365C44.0562 28.9326 44.0484 28.9314 44.0406 28.934C43.9396 28.9767 43.8424 29.0219 43.7493 29.0685C43.2922 29.2988 42.7717 29.3802 42.2719 29.4941C42.1023 29.5406 41.9404 29.6118 41.7889 29.7036C41.688 29.7605 41.6167 29.8497 41.5131 29.9015C41.4781 29.9184 41.4691 29.9093 41.4873 29.8743C41.5494 29.754 41.5843 29.6273 41.6634 29.5199C41.8926 29.2056 42.2292 29.0388 42.5658 28.8498C42.6021 28.8279 42.5995 28.8188 42.5568 28.8188C42.4765 28.8201 42.3961 28.8537 42.3133 28.8576C42.079 28.8693 41.8446 28.899 41.6154 28.9469C41.2425 29.0297 40.9033 29.2238 40.6431 29.5031C40.6093 29.538 40.5912 29.5923 40.5511 29.6298C40.5459 29.6351 40.5382 29.6351 40.5316 29.6325C40.5265 29.6298 40.5226 29.6247 40.5226 29.6169C40.524 29.3687 40.6689 29.1099 40.8153 28.9119C40.9279 28.7736 41.073 28.6637 41.236 28.5912C41.284 28.568 41.3409 28.5627 41.3901 28.5434C41.4549 28.5188 41.4535 28.4967 41.3862 28.4799C41.3266 28.4645 41.2659 28.4514 41.205 28.4411C41.0677 28.4307 40.9305 28.4502 40.8022 28.4967C40.4682 28.6055 40.1575 28.7762 39.8869 28.9986C39.7885 29.0711 39.7017 29.1564 39.6306 29.2548C39.6267 29.2625 39.6189 29.2689 39.6085 29.2703C39.5994 29.2728 39.5904 29.2703 39.5826 29.2652C39.5736 29.2587 39.5697 29.2457 39.5736 29.2353C39.6201 29.1086 39.6693 28.9857 39.7198 28.8693C39.8973 28.4346 40.2261 28.079 40.6456 27.8694C40.8424 27.7659 41.0496 27.6818 41.262 27.6197C41.4535 27.5667 41.6452 27.515 41.8381 27.4658C41.8692 27.4581 41.8965 27.4412 41.9158 27.4167C42.0142 27.3015 42.1294 27.1994 42.2577 27.1166C42.6163 26.885 42.9996 26.6922 43.3699 26.4879C43.6677 26.3223 43.9966 26.1321 44.1934 25.8851C44.2477 25.8165 44.2645 25.7261 44.236 25.6445C44.1921 25.4984 44.1532 25.3535 44.1208 25.2074C44.0392 24.8438 43.9525 24.4725 43.858 24.0948C43.8114 23.9048 43.7596 23.646 43.7026 23.3148C43.6495 23.0148 43.6146 22.7121 43.5964 22.4069C43.5886 22.2516 43.5939 22.0964 43.612 21.9425C43.6638 21.4406 43.7479 21.024 43.8631 20.6928C43.9266 20.5118 44.0095 20.2919 44.1118 20.0319C44.1831 19.8521 44.2438 19.6826 44.2944 19.5236C44.3487 19.3541 44.4045 19.1834 44.4601 19.01C44.499 18.8922 44.539 18.7643 44.5818 18.6258C44.6194 18.503 44.662 18.3762 44.7087 18.2442C44.776 18.0567 44.8381 17.882 44.8951 17.7216C44.9289 17.6273 44.8758 17.6039 44.8266 17.5457C44.6013 17.2728 44.4187 16.9662 44.2866 16.6389C44.2219 16.4799 44.1661 16.3272 44.1183 16.1837C44.016 15.8718 43.9603 15.5226 43.9059 15.1863C43.8502 14.8345 43.8256 14.4788 43.8321 14.1217C43.8321 14.0402 43.8438 13.9587 43.8684 13.8798C43.8955 13.8139 43.9332 13.7531 43.9824 13.7C44.1493 13.4995 44.341 13.3094 44.5068 13.1205C44.6167 12.9964 44.7321 12.8774 44.8537 12.7661C45.022 12.6122 45.1813 12.4557 45.334 12.2953C45.3549 12.2733 45.3742 12.2474 45.3898 12.2202C45.4195 12.1685 45.4092 12.1569 45.3574 12.1879C45.2733 12.2384 45.1735 12.2565 45.0919 12.2979C44.9211 12.3871 44.7553 12.4854 44.5935 12.5902C44.3008 12.7803 44.0431 12.9614 43.8205 13.1361C43.6755 13.2447 43.5421 13.3676 43.4217 13.5034C43.3026 13.6444 43.1977 13.7958 43.1097 13.9587C43.0566 14.0558 43.0021 14.1489 42.9439 14.2369C42.9193 14.277 42.9037 14.2731 42.8998 14.2265C42.8959 14.1786 42.8883 14.1321 42.8779 14.0868C42.8713 14.0583 42.8533 14.0351 42.8274 14.0221C42.8028 14.0079 42.7729 14.0066 42.7458 14.0183C42.7354 14.0234 42.7264 14.0312 42.7198 14.0415C42.6616 14.1463 42.5943 14.2459 42.5179 14.3378C42.492 14.3662 42.4765 14.4011 42.4713 14.4386C42.4713 14.4425 42.4662 14.4464 42.4662 14.4464L42.4492 14.4503C42.4492 14.4503 42.4428 14.4503 42.4402 14.4477L42.4389 14.4399C42.457 14.4076 42.4545 14.3688 42.4324 14.339C42.3754 14.2796 42.3237 14.2821 42.277 14.3481C42.2266 14.4192 42.1864 14.4956 42.1567 14.5784C42.123 14.6637 42.0841 14.7491 42.0414 14.8306C42.0207 14.8772 41.9806 14.9147 41.9326 14.9328C41.9262 14.9354 41.9184 14.9341 41.9133 14.9289C41.908 14.9237 41.9068 14.916 41.9106 14.9095C41.9508 14.8125 41.9832 14.7582 41.9404 14.6456C41.9365 14.6353 41.9287 14.6288 41.9184 14.6262C41.8614 14.6107 41.8018 14.6301 41.7643 14.6754C41.688 14.7582 41.6206 14.85 41.5105 14.894C41.1985 15.0168 40.8942 15.1242 40.5951 15.2613C40.3284 15.3855 40.0902 15.4838 39.883 15.5562C39.6835 15.6222 39.4803 15.6726 39.2731 15.7076C39.2019 15.7232 39.1345 15.7515 39.075 15.7943C38.9235 15.9042 38.7552 16.0052 38.6218 16.1319C38.4963 16.2626 38.3487 16.37 38.1855 16.4501C37.7712 16.6325 37.3284 16.6235 36.8842 16.5315C36.8635 16.529 36.8428 16.5303 36.8221 16.5381C36.8026 16.5432 36.7845 16.551 36.7677 16.5614C36.7017 16.6028 36.6318 16.6377 36.5592 16.6674C36.2563 16.7748 35.9287 16.7916 35.6166 16.7127C35.6076 16.71 35.5998 16.7036 35.5959 16.6946C35.5908 16.6856 35.5908 16.6739 35.5959 16.6649C35.6011 16.6545 35.6101 16.6481 35.6218 16.6481C35.974 16.5588 36.2835 16.3479 36.4971 16.0542C36.5062 16.0427 36.5088 16.0259 36.5035 16.0128C36.4971 15.9987 36.4854 15.9884 36.4699 15.9857C36.4182 15.978 36.3651 15.9818 36.3145 15.9987C36.0141 16.0944 35.7046 16.1577 35.3901 16.1876C35.1298 16.2134 34.8682 16.1966 34.6132 16.137C34.516 16.1163 34.4254 16.0737 34.3477 16.0116C34.305 15.978 34.3114 15.9624 34.3659 15.9689C34.5355 15.9857 34.7142 16.0103 34.8774 15.9753C35.236 15.8978 35.4457 15.6585 35.6761 15.392C35.6827 15.3855 35.6853 15.3752 35.6853 15.3662C35.6839 15.3558 35.6788 15.348 35.671 15.3416C35.6607 15.3351 35.649 15.3312 35.6374 15.3324C35.3305 15.3506 35.0301 15.3584 34.7335 15.3545C34.4358 15.357 34.1406 15.2924 33.8712 15.1656C33.804 15.1307 33.7417 15.0881 33.6847 15.0389C33.6291 14.9949 33.6355 14.9819 33.7042 14.9987C34.0408 15.0789 34.371 15.0957 34.7013 14.9858C34.9809 14.894 35.2372 14.74 35.4496 14.537C35.5053 14.4839 35.5597 14.4477 35.5843 14.3714C35.5869 14.361 35.5843 14.3481 35.5765 14.3403C35.5674 14.3326 35.5558 14.33 35.5441 14.3339C35.3745 14.3934 35.2114 14.4697 35.0353 14.5046C34.7712 14.5589 34.5018 14.5693 34.2337 14.5357C33.9516 14.4943 33.6835 14.3792 33.4596 14.2019C33.4207 14.1735 33.4258 14.1579 33.4725 14.1541C33.5049 14.1515 33.5371 14.1554 33.5683 14.1644C33.9075 14.2589 34.2661 14.2589 34.6041 14.1631C34.8462 14.1049 35.0832 14.0221 35.3098 13.9174C35.4483 13.8527 35.5908 13.7867 35.7358 13.7207C35.8536 13.6664 35.9676 13.603 36.0906 13.5513C36.1281 13.5358 36.1294 13.5177 36.0945 13.497C35.9688 13.4232 35.8885 13.259 35.8057 13.1335C35.8018 13.1283 35.8018 13.1205 35.8044 13.1154C35.8069 13.1089 35.8134 13.105 35.82 13.1037C36.1242 13.074 36.4375 13.0416 36.7638 13.0054C36.7987 13.0054 36.8311 12.9886 36.8532 12.9614C36.9943 12.7609 37.1847 12.5915 37.3647 12.422C37.4631 12.3302 37.5679 12.2345 37.678 12.1388C37.977 11.8774 38.2567 11.5942 38.5144 11.2928C38.64 11.1479 38.754 10.994 38.8588 10.8349C38.9184 10.7379 38.9598 10.6305 38.9766 10.5192C39.0427 10.1092 39.1138 9.70819 39.2563 9.31755C39.3366 9.09894 39.4026 8.87128 39.501 8.66044C39.6228 8.39397 39.738 8.15337 39.8481 7.93476C40.2028 7.23238 40.6353 6.57008 41.1351 5.96083C41.328 5.7254 41.5753 5.53138 41.8122 5.33864C41.8627 5.29724 41.9209 5.28173 41.9664 5.23775C41.9715 5.23258 41.9728 5.22481 41.9715 5.21834C41.9689 5.21188 41.9625 5.2067 41.9547 5.2067C41.7565 5.19895 41.5974 5.27138 41.4238 5.36452C40.9849 5.59346 40.5886 5.89615 40.2534 6.25964C40.1511 6.37217 40.05 6.48341 39.949 6.59336C39.8299 6.72013 39.672 6.80033 39.4998 6.82232C39.2524 6.85984 38.9922 6.89993 38.7397 6.8663C38.3772 6.81974 38.0004 6.5662 37.7038 6.34501C37.6546 6.31526 37.6107 6.27646 37.5757 6.22988C37.573 6.22471 37.573 6.21824 37.5757 6.21307C37.5795 6.20789 37.5861 6.20531 37.5925 6.2066C37.8268 6.24541 38.0664 6.25705 38.3046 6.24023C38.3641 6.23506 38.4225 6.22342 38.4807 6.20401C38.6115 6.16651 38.7397 6.11864 38.8639 6.06302C38.9313 6.02939 39 5.99834 39.0712 5.96989C39.0984 5.95825 39.1204 5.93755 39.1333 5.91167C39.1903 5.79137 39.2395 5.67755 39.2823 5.5676C39.3081 5.50033 39.3637 5.31923 39.3315 5.24809C39.321 5.2274 39.3042 5.20928 39.2823 5.19635C39.1773 5.1278 39.0039 5.06312 38.7604 4.99973C38.4691 4.92472 38.1519 4.83545 37.8709 4.81217C37.5627 4.7876 37.2532 4.80053 36.949 4.85227C36.892 4.86004 36.8337 4.86004 36.7768 4.85227C36.7651 4.85098 36.7534 4.85875 36.7509 4.87168C36.7431 4.92601 36.7561 4.98163 36.7872 5.0269C36.8674 5.14462 36.9516 5.26232 37.0435 5.37874C37.0681 5.40979 37.0849 5.446 37.0927 5.48482C37.0953 5.50033 37.0902 5.50421 37.0771 5.49515C37.0279 5.46283 36.9813 5.42272 36.9283 5.39555C36.7495 5.30113 36.5658 5.19764 36.3766 5.08382C36.1216 4.93505 35.9041 4.72939 35.7396 4.48361C35.671 4.38013 35.68 4.2883 35.7694 4.20938C35.8549 4.13177 35.9455 4.06063 36.0387 3.99466C36.3637 3.7644 36.6823 3.53933 36.9918 3.31943C37.0201 3.29874 37.0474 3.27545 37.0707 3.24828C37.1406 3.16809 37.1445 2.99346 37.1185 2.91456C37.0863 2.81237 37.0539 2.71794 37.024 2.63127C36.9748 2.49416 36.9451 2.31695 37.0486 2.19794C37.1302 2.10222 37.2235 2.01555 37.3231 1.93794C37.4539 1.83834 37.6521 1.70252 37.9174 1.53306C38.0962 1.41665 38.2839 1.28471 38.4795 1.13724C38.5248 1.10103 38.5441 1.04152 38.5273 0.984607C38.4846 0.785403 38.4756 0.578437 38.5002 0.375353C38.5066 0.313263 38.5273 0.252467 38.5584 0.198138C38.6296 0.0752528 38.7616 0.000227845 38.9028 0.00152138C39.0789 -0.00623983 39.2538 0.0157503 39.4221 0.0661981C39.7081 0.155451 39.9633 0.244706 40.1899 0.332666C40.2702 0.365004 40.3323 0.410278 40.4281 0.396049C40.8049 0.345602 41.1856 0.336546 41.565 0.371472C41.7954 0.392168 42.0259 0.411572 42.2538 0.427094C42.4053 0.438736 42.5593 0.456845 42.7186 0.482716C42.8649 0.506 43.0203 0.529283 43.1835 0.551273C43.3881 0.577144 43.5874 0.643114 43.7893 0.689681C43.9447 0.7259 44.1027 0.772468 44.2581 0.820329C44.3203 0.838438 44.3811 0.860428 44.4406 0.887592C44.5974 0.96391 44.7631 1.02471 44.9314 1.06869C45.1437 1.11784 45.3483 1.17993 45.5593 1.22003C45.7899 1.26272 46.0164 1.31834 46.2391 1.38819C46.3518 1.42441 46.4761 1.47098 46.612 1.5266C46.8076 1.60809 46.9902 1.72062 47.1507 1.85904C47.1999 1.90172 47.2387 1.95476 47.262 2.01555C47.2659 2.02461 47.2647 2.03496 47.2569 2.04272C47.2504 2.04918 47.2401 2.05178 47.2309 2.04918C47.1079 2.01167 46.9422 1.96769 46.8192 2.00262C46.7985 2.0078 46.783 2.02461 46.7764 2.04401C46.7713 2.06471 46.7764 2.08541 46.7907 2.10093C46.8969 2.21217 47.0329 2.29107 47.1831 2.32859C47.4627 2.41526 47.7385 2.51744 48.0078 2.63516C48.2059 2.71535 48.3924 2.82272 48.562 2.95208C48.5763 2.96241 48.5866 2.97665 48.5931 2.99346C48.5944 2.99735 48.5944 3.00252 48.5917 3.0051C48.588 3.00899 48.5841 3.01028 48.5788 3.01028C48.4377 2.987 48.2953 2.97147 48.1528 2.96372C48.1347 2.96241 48.1179 2.97018 48.1075 2.98311C48.0843 3.01157 48.0907 3.04908 48.0855 3.08142C48.0765 3.14481 48.114 3.2069 48.1749 3.22629C48.2409 3.25605 48.3096 3.27675 48.3807 3.28839C48.5025 3.30779 48.6241 3.32978 48.7485 3.35177C48.9556 3.3867 49.1421 3.49665 49.2729 3.65963C49.2793 3.66609 49.2819 3.67515 49.2793 3.68421C49.278 3.69326 49.2729 3.70103 49.2651 3.7062C49.2405 3.72042 49.2145 3.72948 49.1862 3.73077C49.0722 3.74112 48.9634 3.75407 48.8598 3.76571C48.8494 3.767 48.8404 3.77476 48.8379 3.7851C48.8236 3.83815 48.8184 3.89376 48.8236 3.94939C48.8248 3.9662 48.8352 3.98044 48.8494 3.98948C48.9595 4.06193 49.0812 4.11884 49.2094 4.15505C49.6821 4.26889 50.1079 4.5263 50.4279 4.89367C50.5224 5.00491 50.6091 5.12263 50.6868 5.2468C50.7619 5.36321 50.9146 5.65297 51.1477 6.11476C51.3432 6.49765 51.5802 6.85855 51.856 7.1884C52.036 7.4083 52.2186 7.6256 52.4023 7.83904C52.5708 8.03566 52.7274 8.22322 52.8724 8.40043C53.2207 8.82859 53.5599 9.2671 53.9302 9.67585C54.2176 9.99406 54.4948 10.3265 54.777 10.6564C54.9687 10.8814 55.1848 11.1531 55.4257 11.4713C55.7623 11.9098 56.0589 12.3768 56.3127 12.8683C56.3787 12.9989 56.4447 13.1412 56.5081 13.2952C56.5665 13.4336 56.6169 13.5681 56.6596 13.6975C56.7697 14.026 56.8435 14.2744 56.8837 14.4438C56.9394 14.6831 56.9964 14.9315 57.0532 15.1889C57.096 15.3791 57.1348 15.5718 57.1686 15.7671C57.2139 16.0245 57.2553 16.2897 57.307 16.5432C57.4185 17.0826 57.522 17.6234 57.6165 18.1653C57.6385 18.2624 57.6684 18.3581 57.7084 18.4499C57.7537 18.5637 57.7875 18.6569 57.8121 18.7305C57.9415 19.1264 58.0762 19.464 58.1965 19.8366C58.2289 19.94 58.2769 20.037 58.3092 20.1393C58.3882 20.3876 58.4607 20.5959 58.5255 20.7641C58.6278 21.0254 58.7016 21.2957 58.8064 21.557C58.8802 21.7419 58.9282 21.9437 59.0227 22.1313C59.0706 22.2257 59.1147 22.3214 59.1547 22.4172C59.3154 22.7897 59.5302 23.1299 59.6002 23.514ZM37.7634 3.74501C37.7905 3.73983 37.8151 3.73077 37.8399 3.72042C38.0236 3.63635 38.2347 3.54321 38.473 3.44103C38.5506 3.40998 38.6076 3.34142 38.6257 3.25994L38.6413 3.19397C38.662 3.1073 38.6322 3.08402 38.5533 3.12282C38.4457 3.18231 38.3227 3.21207 38.1997 3.20561C38.0638 3.18749 37.9291 3.15386 37.7997 3.1047C37.744 3.08402 37.696 3.0452 37.6663 2.99346C37.6171 2.91456 37.5861 2.92103 37.5718 3.01157C37.564 3.06978 37.5666 3.128 37.5795 3.18491C37.6132 3.35694 37.6353 3.53028 37.6468 3.70491C37.6468 3.71525 37.6533 3.72431 37.6624 3.72948C37.6921 3.74759 37.7298 3.75407 37.7634 3.74501Z" fill="black"/>
<path d="M30.7101 19.6686C30.7101 19.6622 30.714 19.6569 30.7205 19.6569C30.7244 19.6569 30.7295 19.6557 30.732 19.6518C30.7347 19.6479 30.7359 19.644 30.7347 19.6388C30.7347 19.635 30.7359 19.6311 30.7386 19.6284C30.9962 19.3995 31.2086 19.124 31.364 18.8162C31.5129 18.507 31.6488 18.2043 31.7162 17.8655C31.7304 17.7903 31.7796 17.7296 31.7822 17.652C31.7822 17.6481 31.7796 17.6456 31.7757 17.6429C31.7757 17.6429 31.7693 17.6429 31.7666 17.6456C31.7252 17.687 31.6902 17.7335 31.6617 17.7852C31.4753 18.1268 31.2293 18.4332 30.9366 18.6906C30.6881 18.9105 30.4226 19.1097 30.143 19.287C29.9579 19.4048 29.7765 19.5198 29.5979 19.6362C29.282 19.8419 29.0178 20.1588 28.7445 20.4305C28.5401 20.6361 28.2797 20.7771 27.9962 20.8367C27.9858 20.8379 27.9768 20.8445 27.9702 20.8535C27.9599 20.8703 27.956 20.8896 27.9612 20.9091C27.9665 20.9285 27.978 20.9441 27.9948 20.9531C28.2396 21.054 28.47 21.147 28.6877 21.2312C28.9569 21.3333 29.1887 21.5118 29.357 21.7448C29.4864 21.9155 29.6237 22.0784 29.7701 22.2336C29.8917 22.3656 30.0497 22.5648 30.1158 22.7123C30.1844 22.8675 30.2388 23.0603 30.2103 23.2335C30.1533 23.5698 30.0446 23.8428 29.7701 24.0653C29.5733 24.2244 29.3673 24.3719 29.1524 24.5076C28.3769 24.9876 27.5663 25.4067 26.7273 25.7637C26.5991 25.8194 26.4735 25.8762 26.3466 25.9332C26.1809 26.0094 26.0087 26.0793 25.8378 26.1596C25.5891 26.2721 25.3341 26.3691 25.0725 26.448C24.8213 26.5334 24.5559 26.5709 24.2904 26.5592C24.095 26.5476 23.9111 26.5308 23.7414 26.5074C23.5899 26.4894 23.4437 26.4377 23.3154 26.3562C23.1899 26.2772 23.1006 26.1401 22.9335 26.1518C22.7523 26.166 22.571 26.1906 22.391 26.2256C22.1075 26.2799 21.8304 26.3355 21.5597 26.3924C21.4134 26.4248 21.2645 26.4467 21.1143 26.4596C20.8968 26.4764 20.8205 26.3367 20.8062 26.1479C20.7932 25.9901 20.8101 25.8309 20.8554 25.6784C20.9033 25.5075 20.9654 25.3421 21.0419 25.1829C21.2102 24.8427 21.4484 24.5426 21.7397 24.3008C21.9068 24.1623 22.0907 24.0912 22.2939 24.0239C22.3703 23.9981 22.4505 23.9838 22.5308 23.9799C22.6059 23.9813 22.6811 23.9981 22.7496 24.0291C22.9322 24.0989 23.111 24.1805 23.2844 24.2736C23.4968 24.39 23.7143 24.4961 23.937 24.5892C23.9888 24.6111 24.0405 24.6306 24.0936 24.6461C24.1299 24.6578 24.1662 24.6707 24.2012 24.6849C24.2361 24.6992 24.2723 24.7056 24.3099 24.7056C24.4589 24.7017 24.6077 24.716 24.7541 24.7457C24.8771 24.7703 24.956 24.866 25.0454 24.9437C25.0532 24.9501 25.0635 24.9566 25.0739 24.9605C25.0868 24.9656 25.0985 24.9759 25.1036 24.9888C25.1061 24.9954 25.1127 25.0005 25.1204 25.0031C25.158 25.0187 25.2008 25.0134 25.2344 24.9902C25.2603 24.972 25.29 24.9605 25.3199 24.9527C25.4144 24.932 25.505 24.9023 25.5917 24.8621C25.7666 24.7625 25.8767 24.6966 25.9206 24.6656C26.0358 24.584 26.1744 24.4766 26.3324 24.3422C26.6561 24.0666 26.9007 23.8868 27.2322 23.729C27.2465 23.7225 27.2568 23.7083 27.2568 23.6915C27.2582 23.676 27.249 23.6604 27.2348 23.6526C27.0899 23.5725 26.9474 23.4741 26.792 23.412C26.5991 23.3358 26.4023 23.2685 26.2029 23.2103C25.8132 23.1003 25.3419 23.0472 24.9314 22.9529C24.666 22.8921 24.4044 22.8365 24.1467 22.7588C24.0665 22.7343 23.9874 22.7019 23.9124 22.6619C23.7803 22.5933 23.6444 22.5234 23.5046 22.4549C23.1122 22.2608 22.7108 21.9957 22.4493 21.6555C22.2356 21.3761 22.1553 21.0992 22.1579 20.7486C22.1606 20.49 22.2045 20.2338 22.2887 19.9893C22.334 19.8575 22.3859 19.728 22.4441 19.6013C22.4997 19.4798 22.5645 19.3517 22.6397 19.2171C22.8441 18.8472 23.0202 18.5109 23.1692 18.2069C23.2689 17.9883 23.3556 17.7632 23.4281 17.5343C23.511 17.2898 23.5641 17.0363 23.5874 16.7801C23.6042 16.568 23.6223 16.3856 23.6418 16.2291C23.643 16.2213 23.6418 16.2135 23.6405 16.2059C23.6379 16.1993 23.6379 16.1928 23.6379 16.1864C23.6391 16.1735 23.6354 16.1721 23.6262 16.1825C23.6184 16.1942 23.6108 16.2059 23.6055 16.2188C23.5524 16.3455 23.5085 16.4762 23.4747 16.6094C23.4384 16.7529 23.3984 16.8863 23.3543 17.0117C23.1717 17.5329 22.9167 18.027 22.5969 18.4772C22.4169 18.7281 22.2279 18.9753 22.0311 19.2197C21.8588 19.4292 21.7203 19.6661 21.6219 19.9196C21.5714 20.0606 21.5429 20.208 21.5378 20.3568C21.5261 20.6426 21.539 20.9298 21.5766 21.213C21.6219 21.4899 21.7838 21.7331 22.022 21.8792C22.0686 21.909 22.0647 21.9245 22.0091 21.9245C21.6594 21.9297 21.3099 21.8999 20.9654 21.8352C20.7026 21.7835 20.4876 21.7331 20.3219 21.6827C20.0216 21.5921 19.7303 21.4989 19.448 21.4032C19.3896 21.3825 19.3262 21.3593 19.2602 21.3347C19.0142 21.2402 18.7553 21.1665 18.5196 21.0851C18.17 20.9609 17.8061 20.8806 17.4359 20.8457C17.3943 20.8418 17.3918 20.8314 17.4306 20.8134C17.507 20.781 17.577 20.7332 17.6352 20.6736C17.9187 20.3877 18.1518 20.0567 18.3266 19.6944C18.3875 19.5651 18.4484 19.4267 18.5079 19.2779C18.6024 19.0308 18.6659 18.7722 18.6969 18.5096C18.7073 18.4293 18.7241 18.3543 18.7383 18.2754C18.7436 18.2522 18.7397 18.2264 18.728 18.2057C18.7241 18.2004 18.7176 18.1965 18.7112 18.1965C18.7047 18.1979 18.6983 18.2018 18.6957 18.2082C18.6594 18.3129 18.5999 18.4022 18.5558 18.5018C18.4056 18.8472 18.2166 19.1745 17.9913 19.4771C17.5329 20.0852 16.9839 20.6193 16.3611 21.0578C15.9507 21.3579 15.5222 21.6282 15.0755 21.8702C14.8397 21.993 14.5963 22.1018 14.3477 22.1961C14.0577 22.3049 13.7612 22.3967 13.4608 22.4742C13.308 22.5144 13.1526 22.5441 12.996 22.5662C12.5298 22.6334 12.0585 22.7265 11.5794 22.7873C11.213 22.8339 10.8492 22.8843 10.4853 22.9373C10.317 22.9619 10.1293 23.0136 9.98556 23.0267C9.7486 23.0486 9.53884 23.0175 9.28377 22.9593C9.14265 22.9269 9.00021 22.9025 8.85649 22.8843C8.63767 22.8572 8.41496 22.8818 8.2078 22.9568C8.02781 23.0175 7.85173 23.0913 7.6808 23.1767C7.48012 23.2827 7.27036 23.3966 7.05542 23.5169C6.85084 23.6358 6.63332 23.7315 6.40673 23.8014C6.29149 23.8338 6.16072 23.8713 6.01441 23.91C5.82148 23.9618 5.64022 24.0563 5.48743 24.1856C5.44211 24.2231 5.40586 24.2697 5.37866 24.3215C5.28544 24.4869 5.23235 24.672 5.21941 24.8621C5.20645 25.0652 5.19221 25.2683 5.17538 25.4675C5.1689 25.5153 5.18704 25.562 5.22199 25.5942C5.3204 25.6731 5.40067 25.7727 5.45894 25.8854C5.55734 26.0975 5.62337 26.2928 5.79041 26.4764C6.09598 26.8115 6.364 27.1245 6.59318 27.4143C6.72007 27.576 6.8366 27.7454 6.94148 27.9227C7.02046 28.0481 7.06837 28.1891 7.08262 28.3365C7.09297 28.4504 7.00493 28.4814 6.93112 28.5383C6.84566 28.5927 6.74726 28.6238 6.64627 28.6276C6.31351 28.656 5.97815 28.6367 5.65057 28.5707C5.32298 28.5035 5.00059 28.418 4.68466 28.3119C4.49044 28.2434 4.30399 28.167 4.124 28.0844C3.95568 28.0106 3.81066 27.8916 3.70707 27.7415C3.60737 27.5993 3.54005 27.4376 3.50639 27.2667C3.44682 26.8722 3.45071 26.4713 3.51674 26.0768C3.51803 26.06 3.5258 26.0444 3.53876 26.0328C3.5517 26.0225 3.56853 26.0172 3.58536 26.0198C3.73038 26.0198 3.8741 26.0366 4.01395 26.0676C4.07998 26.0846 4.23794 26.0987 4.28714 26.0418C4.2975 26.0289 4.2975 26.0108 4.28585 25.9991C4.225 25.9409 4.16025 25.8866 4.09292 25.8362C3.9 25.6938 3.71096 25.5438 3.52839 25.3886C3.51933 25.3808 3.51285 25.3704 3.51027 25.3601C3.5012 25.3304 3.49862 25.2993 3.50379 25.2696C3.53487 25.095 3.54651 24.9164 3.53876 24.7392C3.5258 24.575 3.50639 24.399 3.47919 24.2102C3.44553 23.9916 3.51285 23.7678 3.66305 23.6036C3.81584 23.4224 3.98417 23.2556 4.16803 23.1042C4.79341 22.5945 5.32946 22.1457 5.77616 21.7563C6.01958 21.5532 6.22157 21.3062 6.37177 21.0281C6.42097 20.9324 6.47405 20.8341 6.53362 20.7357C6.66827 20.5094 6.86249 20.3231 7.09556 20.1989C7.3079 20.0813 7.53191 19.9842 7.76368 19.9104C7.97213 19.8471 8.17931 19.7733 8.38517 19.6905C8.78916 19.5288 9.02092 19.2689 9.11803 18.8433C9.16336 18.6402 9.20997 18.4256 9.276 18.2276C9.35499 17.9895 9.43396 17.7321 9.51424 17.454C9.55569 17.3118 9.61135 17.1812 9.64761 17.031C9.73825 16.6391 9.85866 16.2563 10.0063 15.8825C10.1461 15.5448 10.3416 15.2331 10.5863 14.9614C10.686 14.8502 10.7909 14.7441 10.901 14.6432C11.0149 14.5372 11.1211 14.4233 11.2195 14.303C11.2234 14.2978 11.2247 14.2914 11.2234 14.2862C11.2208 14.2797 11.2169 14.2759 11.2104 14.2733C11.1081 14.2435 10.8466 14.4013 10.7482 14.4686C10.1422 14.8787 9.59712 15.4452 9.11286 16.0143C8.71665 16.4813 8.23628 17.066 7.67305 17.7659C7.41149 18.0918 7.1357 18.4178 6.8638 18.7308C6.45853 19.2056 6.02476 19.6557 5.56511 20.0786C5.35018 20.2727 5.12099 20.4512 4.88146 20.6142C4.68724 20.7486 4.4749 20.856 4.25219 20.9324C3.71873 21.1058 3.14124 21.0888 2.61815 20.8845C2.3061 20.759 2.01606 20.5857 1.7597 20.3709C1.14208 19.8561 0.653942 19.2029 0.338012 18.4643C0.270683 18.3053 0.200763 18.1125 0.128254 17.8862C0.0712832 17.7141 0.0337341 17.5356 0.0156069 17.3558C-0.00381503 17.1384 -0.00510983 16.9211 0.0117225 16.7039C0.0194913 16.5668 0.0427978 16.4322 0.079052 16.3002C0.104948 16.2135 0.146382 16.0985 0.203352 15.9561C0.423469 15.4038 0.907723 14.986 1.45672 14.8049C1.67942 14.7273 1.90989 14.6769 2.14425 14.6562C2.556 14.6225 2.97033 14.6471 3.3756 14.7312C3.45071 14.748 3.5258 14.7635 3.60219 14.7803C3.87798 14.8386 4.13954 14.955 4.36742 15.1205C4.6471 15.3197 4.83874 15.6444 4.95268 15.9626C5.01094 16.127 5.07827 16.286 5.15467 16.4426C5.26342 16.6689 5.45246 16.7633 5.72179 16.7258C5.91859 16.7012 6.11023 16.6457 6.2902 16.5602C6.35234 16.533 6.41708 16.5098 6.48182 16.4904C6.48959 16.4891 6.49736 16.4904 6.50254 16.4955C6.50902 16.5008 6.51031 16.5084 6.50902 16.5162C6.40285 16.8863 6.25394 17.3001 6.01312 17.6079C5.76322 17.9288 5.50037 18.2004 5.10805 18.2975C4.63286 18.4139 4.20557 18.3389 3.82749 18.075C3.54134 17.8758 3.31734 17.5989 3.18269 17.2769C3.10758 17.1023 3.07521 16.8992 3.02213 16.709C3.01307 16.6779 3.00918 16.6457 3.00918 16.6133C3.01047 16.5783 3.01824 16.5771 3.03378 16.608C3.12053 16.7801 3.22152 16.9457 3.33546 17.1009C3.6281 17.4942 4.09551 17.7852 4.59661 17.8253C4.75715 17.837 4.92031 17.8344 5.08085 17.8163C5.11322 17.8137 5.14559 17.8071 5.17796 17.7969C5.20904 17.7878 5.20904 17.7788 5.17667 17.7723C5.0977 17.7606 5.02 17.7438 4.94231 17.7231C4.72997 17.6585 4.5215 17.5821 4.31822 17.4942C4.01654 17.3609 3.75627 17.1488 3.56465 16.881C3.38208 16.6391 3.23835 16.3688 3.13995 16.0817C3.13478 16.0661 3.13478 16.0493 3.13736 16.0338C3.14124 16.017 3.14901 16.0157 3.15938 16.0286C3.26943 16.1735 3.39243 16.3184 3.5271 16.4619C3.85857 16.8189 4.34411 17.1656 4.82189 17.3027C4.98893 17.348 5.16502 17.3415 5.32816 17.2847C5.3696 17.2716 5.3696 17.2587 5.32816 17.247C4.96045 17.1437 4.62767 16.9406 4.37002 16.6598C4.24313 16.524 4.10457 16.3856 3.99452 16.2395C3.80289 15.9807 3.61514 15.7169 3.36783 15.528C3.32123 15.4892 3.26814 15.4607 3.21117 15.4413C2.91596 15.3534 2.60909 15.312 2.30093 15.321C1.78301 15.3288 1.32724 15.5189 1.04368 15.9536C0.969873 16.0752 0.909018 16.2045 0.862405 16.3391C0.832624 16.4244 0.814498 16.5137 0.805433 16.6043C0.774358 16.8875 0.780832 17.1747 0.82615 17.4567C0.842983 17.5692 0.871468 17.6817 0.909018 17.7903C0.96081 17.9391 0.998359 18.0918 1.06051 18.2367C1.25343 18.7023 1.51887 19.1331 1.84904 19.5134C1.98629 19.6647 2.14167 19.7979 2.3087 19.9131C2.47701 20.0346 2.66606 20.1213 2.86805 20.1678C3.16196 20.2313 3.46883 20.1989 3.74204 20.0735C3.97769 19.97 4.1978 19.8368 4.39721 19.6776C4.59661 19.5173 4.78564 19.3466 4.96303 19.1642C5.38772 18.7295 5.87716 18.1823 6.30185 17.6507C7.01788 16.7568 7.71706 15.9446 8.40071 15.2136C8.93289 14.6458 9.50001 14.1129 10.0995 13.6174C10.8078 13.0302 11.5743 12.5179 12.3887 12.0885C12.5881 11.9837 12.7849 11.8958 12.9869 11.8C13.2109 11.694 13.453 11.6138 13.6796 11.518C13.7431 11.4922 13.8065 11.4689 13.8725 11.4482C14.0163 11.4029 14.1561 11.3525 14.305 11.3111C14.3788 11.2904 14.4578 11.2645 14.5432 11.2322C14.6442 11.1973 14.7504 11.1766 14.8592 11.1701C15.6671 11.1093 16.4298 11.1093 17.2313 11.0977C17.6366 11.1002 18.0405 11.0744 18.4419 11.0213C18.6762 10.9864 18.9105 10.9476 19.1489 10.9075C19.334 10.8752 19.5153 10.8247 19.6887 10.7536C19.9439 10.6501 20.2016 10.5557 20.4656 10.4535C20.8632 10.2982 21.2697 10.275 21.6659 10.2025C21.8472 10.1702 22.0169 10.1456 22.1774 10.1275C22.5192 10.0913 22.8494 10.0434 23.1924 10.0072C23.4423 9.98003 23.6094 9.96064 23.6949 9.949C23.9862 9.9076 24.2439 9.87526 24.4679 9.84938C24.7022 9.82222 24.8667 9.80282 24.9624 9.78989C25.2383 9.75367 25.5245 9.72779 25.7963 9.67606C25.9439 9.64889 26.0915 9.62044 26.2404 9.59974C26.7416 9.5273 27.2387 9.42122 27.7256 9.28282C27.8939 9.23884 28.0583 9.17933 28.2162 9.1069C28.4261 9.00859 28.6293 8.91158 28.8249 8.81585C28.9737 8.75117 29.1266 8.69686 29.282 8.65157C29.4386 8.59984 29.6004 8.56232 29.7636 8.54033C30.0963 8.49377 30.4356 8.52223 30.7554 8.62441C30.8745 8.66581 30.995 8.69168 31.1115 8.74342C31.2603 8.8081 31.4028 8.88442 31.5387 8.97109C31.632 9.03188 31.7291 9.09008 31.8314 9.14701C31.8507 9.15734 31.8753 9.15347 31.8896 9.13795C31.9052 9.12113 31.922 9.10561 31.9401 9.09137C31.9544 9.07973 31.9608 9.06163 31.9569 9.04352C31.9491 8.99695 31.979 8.96849 32.0126 8.94133C32.1084 8.86243 32.2146 8.79515 32.3273 8.74084C32.5953 8.61148 32.8853 8.52869 33.1832 8.49895C33.1986 8.49635 33.2129 8.4886 33.222 8.47696C33.231 8.46401 33.2349 8.44849 33.2324 8.43427C33.2181 8.39546 33.1883 8.36441 33.1508 8.34889C33.0809 8.31655 33.0083 8.28938 32.9333 8.2687C32.4386 8.13676 31.8638 8.21048 31.3833 8.37476C31.3626 8.38123 31.3406 8.38252 31.3199 8.37734C31.3095 8.37476 31.3019 8.3683 31.298 8.35795C31.2953 8.34889 31.2966 8.33725 31.3044 8.32949C31.4585 8.13676 31.6682 7.99447 31.9052 7.92332C32.0826 7.8677 32.2652 7.83148 32.4503 7.81595C32.6147 7.80431 32.7804 7.80302 32.9462 7.81078C32.9889 7.81337 32.9954 7.79914 32.9657 7.7681C32.9216 7.71895 32.8685 7.67755 32.8089 7.6478C32.4581 7.49387 32.0657 7.45636 31.6916 7.54043C31.5504 7.57018 31.4015 7.60382 31.2422 7.64521C31.2279 7.64909 31.2228 7.64392 31.2293 7.62968C31.3265 7.40978 31.6502 7.23646 31.887 7.1485C32.2146 7.0282 32.5512 6.93764 32.8956 6.87815C32.9501 6.86909 33.0057 6.86521 33.0614 6.8678C33.099 6.86909 33.1067 6.85486 33.0887 6.82382C33.0834 6.81347 33.0744 6.80701 33.0653 6.80183C33.0537 6.79795 33.0446 6.7876 33.042 6.77596C33.0329 6.74233 33.0071 6.71516 32.9733 6.7061C32.8427 6.66472 32.7066 6.63755 32.5694 6.62591C32.4309 6.61814 32.2962 6.59615 32.1576 6.59615C31.9634 6.59744 31.7705 6.61297 31.5776 6.64013C31.5336 6.6466 31.4895 6.64402 31.4456 6.63367C31.4054 6.62332 31.4054 6.61168 31.4442 6.59875C31.6203 6.53924 31.7822 6.44999 31.9686 6.40601C32.3247 6.32063 32.66 6.30253 33.0407 6.28571C33.4175 6.25984 33.7956 6.29993 34.1594 6.40213C34.2074 6.41506 34.2566 6.42283 34.3058 6.42283C34.3265 6.42283 34.3446 6.41119 34.3536 6.39307C34.3626 6.37367 34.3601 6.35168 34.3472 6.33616C34.1853 6.14082 33.9405 6.02958 33.6738 5.91834C33.6299 5.89506 33.5871 5.8679 33.5469 5.83685C33.5315 5.8265 33.5327 5.82132 33.5508 5.82132C33.7761 5.82003 34.0002 5.85366 34.215 5.91834C34.5284 6.01148 34.7498 6.09298 34.8806 6.16541C35.0243 6.2456 35.1603 6.31417 35.2884 6.37367C35.5061 6.47198 35.7429 6.52243 35.9825 6.52114C36.2531 6.52114 36.5328 6.5069 36.7931 6.53924C37.0014 6.56512 37.2074 6.6091 37.4081 6.66859C37.6619 6.74491 37.9389 6.83675 38.2394 6.94282C38.4452 7.01656 38.6355 7.07864 38.8091 7.12651C39.0602 7.19635 39.314 7.26103 39.5703 7.31665C39.5846 7.32053 39.5937 7.33477 39.591 7.34899C39.5873 7.36322 39.5781 7.37615 39.5664 7.3865C39.5276 7.42531 39.4914 7.468 39.4577 7.51198C39.1482 7.91038 38.9087 8.35924 38.7507 8.83915C38.7183 8.93615 38.69 9.03058 38.6627 9.12113C38.6006 9.34621 38.5604 9.57646 38.5449 9.80929C38.5229 10.0589 38.5358 10.3099 38.585 10.5557C38.6199 10.7277 38.4012 10.8596 38.2755 10.9334C38.0955 11.0369 37.9065 11.1261 37.7111 11.1973C37.6904 11.205 37.6683 11.2102 37.6463 11.2115C37.6412 11.2115 37.6373 11.2102 37.6346 11.205C37.632 11.2011 37.632 11.196 37.6346 11.1921C37.6619 11.152 37.6851 11.1093 37.7046 11.0653C37.7357 10.9903 37.7046 10.8997 37.6035 10.9179C37.478 10.9424 37.3614 11.0356 37.2591 11.1067C37.2267 11.1248 37.1892 11.1313 37.1529 11.1261C37.1414 11.1261 37.14 11.1209 37.1465 11.1119C37.1957 11.0563 37.206 10.9774 37.175 10.9114C37.1711 10.901 37.1633 10.8946 37.1543 10.8907C37.1076 10.8739 37.0572 10.8803 37.017 10.9088C36.9393 10.9592 36.8591 11.0045 36.7749 11.0433C36.7542 11.0537 36.7347 11.0692 36.7205 11.0886C36.6648 11.1585 36.5807 11.1753 36.4655 11.1378C36.4563 11.1352 36.4512 11.1248 36.4538 11.1145C36.4538 11.1067 36.4602 11.1002 36.468 11.0977L36.6144 11.0614C36.6285 11.0575 36.6402 11.0485 36.6467 11.0356C36.6531 11.0226 36.6531 11.0084 36.648 10.9955L36.6027 10.8894C36.5924 10.8648 36.5678 10.8493 36.5418 10.8506C36.4473 10.8532 36.3554 10.8739 36.2673 10.9088C36.2324 10.923 36.1935 10.9256 36.1572 10.9166C36.143 10.9127 36.1301 10.9049 36.1236 10.892C36.0719 10.8092 35.9889 10.8001 35.8751 10.8648C35.8544 10.8778 35.8271 10.8739 35.8103 10.8558C35.5629 10.5996 35.2794 10.381 34.9686 10.2051C34.8224 10.1236 34.6695 10.0305 34.5647 9.90242C34.5104 9.83774 34.4559 9.7666 34.4015 9.69287C34.2216 9.4471 33.9354 9.31127 33.648 9.22331C33.4692 9.16769 33.288 9.12242 33.1041 9.0875C32.7779 9.02929 32.4425 9.02929 32.1149 9.08491C32.0606 9.09268 32.0139 9.12371 31.9854 9.169C31.9712 9.19099 31.9466 9.20263 31.9208 9.20132C31.9104 9.20003 31.9052 9.2065 31.9052 9.21685C31.9065 9.22849 31.9116 9.23755 31.9208 9.24401C31.9661 9.28024 32.0231 9.3061 32.0696 9.34492C32.1914 9.4471 32.3156 9.548 32.4413 9.6476C32.5836 9.75109 32.7351 9.84292 32.8944 9.92053C32.9579 9.95416 33.0213 9.98392 33.0873 10.0124C33.3851 10.1378 33.683 10.2659 33.9821 10.3991C34.1439 10.4729 34.3005 10.5608 34.4495 10.6617C34.5918 10.7562 34.7265 10.8622 34.8521 10.9786C35.3325 11.4301 35.765 11.9294 36.143 12.4675C36.1922 12.5361 36.2349 12.6098 36.2687 12.6861C36.2687 12.6861 36.2699 12.6926 36.2673 12.6965L36.2595 12.7016C35.9774 12.7236 35.6976 12.7508 35.418 12.7818C35.3415 12.7909 35.2626 12.7883 35.1875 12.7896C35.1824 12.7896 35.1785 12.7909 35.1746 12.7935C35.1707 12.7974 35.1681 12.8012 35.1681 12.8064C35.1615 12.8452 35.1719 12.8853 35.1953 12.9177C35.313 13.078 35.4257 13.2346 35.5371 13.3885C35.5397 13.3924 35.541 13.3988 35.5397 13.404C35.5371 13.4092 35.5332 13.4131 35.5293 13.4144C35.273 13.5153 35.027 13.6006 34.7874 13.6718C34.6553 13.7106 34.5194 13.7365 34.3821 13.7481C33.9483 13.7882 33.512 13.752 33.0912 13.6394C32.8892 13.5851 32.6846 13.5411 32.4866 13.4778C32.414 13.4545 32.3402 13.4364 32.2652 13.4221C32.2548 13.4208 32.2457 13.4234 32.2379 13.4299C32.2314 13.4364 32.2275 13.4454 32.2275 13.4558C32.2302 13.5476 32.3376 13.677 32.3882 13.7494C32.5643 14.0042 32.796 14.2164 33.0653 14.369C33.1598 14.422 33.2505 14.4828 33.3359 14.5501C33.3605 14.5708 33.3566 14.5798 33.3255 14.5773C33.0963 14.5643 32.8685 14.5333 32.6445 14.4841C32.585 14.4686 32.5254 14.4453 32.471 14.4143C32.4374 14.3962 32.414 14.4 32.4011 14.4259C32.3907 14.4479 32.3946 14.4738 32.4101 14.4932C32.6705 14.8153 32.9837 15.0894 33.3386 15.3029C33.4097 15.3443 33.4823 15.3806 33.5586 15.4103C33.7295 15.4775 33.8759 15.537 33.9975 15.5888C34.0313 15.603 34.0649 15.6185 34.0986 15.6354C34.1568 15.6665 34.1529 15.6794 34.0869 15.6768C33.995 15.6702 33.9018 15.6755 33.8111 15.6884C33.6726 15.7181 33.5315 15.7298 33.389 15.7233C33.3722 15.7233 33.3566 15.7311 33.3476 15.7466C33.3398 15.7608 33.3398 15.779 33.3501 15.7932C33.3929 15.8553 33.4473 15.9083 33.5108 15.9483C33.7671 16.1192 34.0442 16.2575 34.3355 16.3598C34.4223 16.3908 34.5116 16.4166 34.6022 16.4361C34.7343 16.4594 34.8638 16.4981 34.9868 16.5525C35.0036 16.5615 35.01 16.5809 35.0024 16.599C34.9337 16.7414 34.799 16.7828 34.6617 16.8318C34.5699 16.8642 34.5867 16.9755 34.676 17.0052C34.8587 17.0634 35.0024 17.1216 35.0981 17.1437C35.4944 17.2394 35.9073 17.2406 36.3036 17.1488C36.4745 17.1023 36.6402 17.0402 36.8009 16.9652C36.9057 16.9263 37.0196 16.916 37.1297 16.9353C37.3122 16.9574 37.4961 16.9613 37.6787 16.947C37.7939 16.9353 37.913 16.925 38.0373 16.916C38.0451 16.9146 38.0516 16.9172 38.0568 16.9224C38.0619 16.9263 38.0645 16.9341 38.0645 16.9406C38.0684 17.1488 38.0775 17.3636 38.0918 17.586C38.1033 17.7645 38.1021 18.0219 38.0891 18.3608C38.0709 18.855 38.0063 19.3775 38.0166 19.8368C38.0295 20.327 38.0295 20.8056 38.0192 21.2712C38.0076 21.7952 38.0063 22.3346 37.781 22.8041C37.7189 22.9269 37.6437 23.0435 37.5582 23.1521C37.3251 23.4599 37.0791 23.7614 36.9069 24.1041C36.8189 24.2736 36.7581 24.456 36.7244 24.6449C36.6894 24.8582 36.6804 25.0755 36.6972 25.2915C36.7101 25.4843 36.74 25.6745 36.7866 25.8608C36.8345 26.0393 36.8966 26.2385 36.9717 26.4596C37.0131 26.5787 37.0584 26.6963 37.1115 26.814C37.1802 26.9679 37.241 27.1232 37.3136 27.2733C37.5596 27.779 37.8288 28.2719 38.124 28.7518C38.1759 28.8371 38.2458 28.9095 38.2847 29.0002C38.2872 29.0054 38.2872 29.0119 38.2833 29.017C38.2794 29.0222 38.273 29.0234 38.2665 29.0222C38.1836 29.0066 38.1033 28.9847 38.0231 28.9587C37.4637 28.7789 36.9536 28.4725 36.5328 28.0623C36.2052 27.7428 35.9216 27.3806 35.6925 26.9835C35.5461 26.7312 35.4024 26.4816 35.2652 26.232C35.2367 26.1803 35.1914 26.1389 35.1369 26.1143C35.1279 26.1104 35.1176 26.1104 35.1086 26.1143C34.9959 26.1672 34.878 26.2113 34.7576 26.2449C34.4585 26.3289 34.1853 26.4881 33.9639 26.7066C33.9134 26.7597 33.8435 26.7882 33.771 26.7869C33.4446 26.7818 33.1236 26.7726 32.8103 26.7623C32.5254 26.7519 32.225 26.8296 31.9518 26.9279C31.6941 27.0185 31.4325 27.0921 31.1672 27.1491C31.0377 27.1788 31.0428 27.3212 30.9173 27.3702C30.6143 27.4893 30.3968 27.3884 30.1262 27.1878C30.0135 27.1038 29.8931 27.0197 29.7648 26.9343C29.6898 26.8826 29.6199 26.8244 29.5551 26.7584C29.3376 26.5385 29.2262 26.2346 29.2496 25.9266C29.256 25.8336 29.1797 25.7961 29.1537 25.712C29.1045 25.5659 29.0813 25.4132 29.0813 25.2593C29.0774 25.1027 29.1576 24.954 29.291 24.8699C29.4296 24.7781 29.559 24.69 29.6807 24.6035C29.8556 24.4793 29.9409 24.333 30.0485 24.1248C30.0938 24.0356 30.1352 23.945 30.174 23.8506C30.2685 23.6165 30.3669 23.3952 30.4692 23.187C30.5637 23.0072 30.6816 22.8416 30.8214 22.6941C30.9872 22.5131 30.8267 22.0629 30.7541 21.8534C30.6842 21.6425 30.5676 21.4497 30.4149 21.2894C30.3644 21.2376 30.2996 21.2001 30.2285 21.1833C29.9112 21.0966 29.5965 21.0242 29.282 20.9685C29.2599 20.9648 29.2547 20.9531 29.2689 20.9349C29.5875 20.4887 30.0057 20.186 30.4538 19.8639C30.4899 19.838 30.5237 19.7889 30.5676 19.7811C30.5768 19.7798 30.5858 19.7747 30.5936 19.7682C30.6168 19.745 30.6375 19.7216 30.657 19.6997C30.666 19.688 30.6803 19.6829 30.6945 19.6829C30.7023 19.6829 30.7088 19.6764 30.7101 19.6686ZM33.1172 21.2441C33.2478 21.248 33.3761 21.2661 33.503 21.2958C33.6246 21.3308 33.7425 21.3825 33.8513 21.4497C33.9575 21.5118 34.0571 21.5856 34.149 21.6684C34.3472 21.843 34.5284 22.037 34.689 22.2479C34.9233 22.5584 35.1279 22.8908 35.2976 23.24C35.3493 23.3462 35.4218 23.4431 35.4749 23.5518C35.4788 23.5583 35.484 23.5634 35.4918 23.5661C35.4995 23.5686 35.5073 23.5673 35.5137 23.5634C35.5307 23.5557 35.5397 23.5376 35.5358 23.5194C35.528 23.4587 35.5125 23.4005 35.5073 23.3384C35.4762 22.9128 35.3739 22.4937 35.207 22.1004C35.1266 21.909 35.0592 21.7616 35.0049 21.6567C34.8314 21.323 34.658 20.9892 34.4858 20.6529C34.3523 20.3943 34.2423 20.1407 34.1297 19.8729C34.0455 19.6427 33.9756 19.4073 33.9173 19.1693C33.8706 18.9986 33.8396 18.824 33.8241 18.648C33.78 18.2082 33.7892 17.7645 33.8538 17.3273C33.881 17.172 33.9159 17.0181 33.96 16.8681C33.9743 16.8176 33.9833 16.766 33.9872 16.7129C33.9975 16.6637 34.0118 16.6146 34.0313 16.568C34.0364 16.5498 34.0325 16.5473 34.0182 16.559C33.9639 16.599 33.9147 16.6469 33.872 16.7C33.7451 16.9418 33.6053 17.1785 33.5004 17.4204C33.4317 17.5782 33.3696 17.7309 33.3152 17.8784C33.2466 18.0737 33.1883 18.2715 33.1418 18.4721C33.0899 18.6662 33.0524 18.864 33.0291 19.0632C32.9942 19.3956 32.9889 19.7307 33.0161 20.0631C33.0317 20.2752 33.0795 20.4848 33.1586 20.6814C33.165 20.6969 33.1689 20.7138 33.1689 20.7318C33.1689 20.741 33.165 20.75 33.1586 20.7564C33.1508 20.7629 33.1404 20.7656 33.1313 20.7642C32.8257 20.7099 32.4671 20.7125 32.168 20.8172C32.0955 20.8418 32.0243 20.8689 31.9544 20.9013C31.5348 21.1173 31.2837 21.4614 31.2021 21.9348C31.1555 22.2053 31.2086 22.4316 31.3005 22.6812C31.3187 22.7316 31.3083 22.7886 31.2734 22.83C31.1219 23.0097 30.9729 23.1882 30.8267 23.3655C30.5741 23.685 30.3915 24.0524 30.2906 24.4457C30.2814 24.4754 30.2841 24.5076 30.2984 24.5361C30.3009 24.5414 30.3048 24.5453 30.3113 24.5453C30.3165 24.5453 30.3216 24.5414 30.3242 24.5375C30.3515 24.4779 30.3669 24.4197 30.4007 24.3641C30.5768 24.0705 30.8189 23.8221 31.1063 23.6384C31.118 23.6268 31.1361 23.6229 31.1516 23.628C31.1684 23.6319 31.1801 23.645 31.184 23.6618C31.241 23.7846 31.2927 23.8997 31.3419 24.0045C31.4118 24.143 31.4973 24.2736 31.5983 24.3912C31.6617 24.4676 31.7447 24.5246 31.8378 24.5582C31.8495 24.5633 31.8624 24.5607 31.8728 24.5529C31.8819 24.5439 31.887 24.531 31.8845 24.5193C31.8677 24.4365 31.8443 24.3551 31.8171 24.2748C31.7732 24.1637 31.7408 24.0485 31.7213 23.9321C31.6773 23.6462 31.6553 23.3577 31.6578 23.0679C31.6578 22.9193 31.6709 22.7718 31.6955 22.6244C31.7822 22.0901 31.9608 21.6452 32.462 21.3864C32.5578 21.3282 32.6652 21.2907 32.7753 21.2751C32.8892 21.2558 33.0032 21.2454 33.1172 21.2441ZM30.4848 25.5321C30.5094 25.5348 30.5352 25.5321 30.5598 25.5245C30.7283 25.4727 30.8939 25.4106 31.0557 25.3407C31.1892 25.2812 31.3238 25.236 31.4532 25.1648C31.5426 25.1157 31.632 25.0716 31.7201 25.0316C31.7498 25.0187 31.7757 24.9992 31.7964 24.9759C31.8054 24.9695 31.8093 24.9591 31.8093 24.9488C31.8081 24.9384 31.8029 24.9294 31.7939 24.923L31.5245 24.6746C31.5167 24.6681 31.5077 24.6656 31.4987 24.6668C31.4895 24.6668 31.4817 24.672 31.4766 24.6785C31.3265 24.8712 31.149 25.0419 30.9522 25.1855C30.8589 25.254 30.7658 25.3239 30.6738 25.395C30.6194 25.4313 30.5625 25.4624 30.5016 25.4856C30.4796 25.4946 30.468 25.5153 30.4706 25.5386L30.4718 25.5399L30.4731 25.5386L30.477 25.5335L30.4848 25.5321ZM29.3855 25.6577L29.4981 25.6563C29.5073 25.6563 29.5163 25.6524 29.5215 25.646C29.5305 25.6356 29.5356 25.6241 29.5383 25.6124C29.5733 25.4378 29.6018 25.2786 29.625 25.1376C29.6328 25.0911 29.6289 25.0419 29.6147 24.9966C29.6108 24.9863 29.6057 24.9851 29.5965 24.9915C29.4153 25.1337 29.4165 25.3214 29.4165 25.527C29.4165 25.5684 29.4036 25.6085 29.3777 25.6409C29.3687 25.6512 29.3712 25.6577 29.3855 25.6577ZM32.6549 25.8362C32.6018 26.0444 32.585 26.2475 32.7572 26.4041C32.897 26.5347 33.0834 26.6058 33.2751 26.5994C33.297 26.6006 33.3177 26.5941 33.3347 26.5799C33.3398 26.5748 33.3437 26.567 33.3437 26.5592C33.3437 26.5515 33.3411 26.5451 33.3347 26.5398C33.2621 26.4764 33.1896 26.4131 33.1145 26.351C32.9358 26.201 32.8323 26.0237 32.7365 25.8129C32.7248 25.7858 32.7054 25.7805 32.6808 25.7973C32.6678 25.8077 32.6588 25.8206 32.6549 25.8362ZM30.3864 26.9279C30.3618 26.9136 30.3345 26.9021 30.3087 26.8917C30.2957 26.8878 30.2828 26.8917 30.2724 26.9007C30.2634 26.9097 30.2595 26.9228 30.2607 26.9357C30.266 26.9718 30.2828 27.0056 30.3099 27.0314C30.38 27.0896 30.455 27.1413 30.534 27.1853C30.6389 27.2526 30.7761 27.2396 30.8642 27.1517C30.8784 27.14 30.8835 27.1206 30.8784 27.1025C30.8745 27.0845 30.8589 27.0702 30.8409 27.0675C30.6842 27.0392 30.5327 26.9925 30.3864 26.9279Z" fill="black"/>
<path d="M39.9591 25.7809C39.9902 25.7563 39.9875 25.7343 39.95 25.7163C39.8465 25.6632 39.7182 25.5999 39.5667 25.5235C39.4787 25.486 39.3984 25.4329 39.3285 25.3669C39.2469 25.27 39.1446 25.0837 39.186 24.9466C39.2094 24.8677 39.2352 24.7861 39.2637 24.7021C39.3 24.5908 39.2094 24.4951 39.1161 24.4459C38.8262 24.2959 38.5554 24.1149 38.3069 23.904C38.1684 23.785 38.0273 23.6608 37.8848 23.5315C37.8641 23.512 37.8602 23.481 37.8758 23.4564C37.9884 23.2857 38.0868 23.1265 38.1684 22.9791C38.2487 22.8252 38.3043 22.6584 38.3328 22.485C38.4131 22.0608 38.4494 21.63 38.4402 21.198C38.4377 21.1087 38.439 21.0117 38.4429 20.9068C38.4441 20.7801 38.4324 20.6547 38.4105 20.5305C38.4092 20.524 38.4117 20.5176 38.4182 20.5137C38.4234 20.5098 38.4312 20.5098 38.4363 20.5137C38.4533 20.5252 38.4687 20.5395 38.4779 20.5576C38.6151 20.7957 38.7407 21.031 38.852 21.2665C38.9246 21.4165 39.0113 21.5679 39.0812 21.7243C39.1653 21.9145 39.269 22.093 39.3647 22.2832C39.5124 22.5664 39.6819 22.8381 39.8723 23.0955C40.0523 23.3607 40.3008 23.5728 40.5909 23.7087C40.6854 23.7565 40.7748 23.8134 40.8576 23.8782C41.0117 24.001 41.1321 24.1614 41.2073 24.3438C41.3406 24.6297 41.3549 24.9531 41.4753 25.2466C41.6048 25.561 41.7044 25.8366 41.7756 26.0758C41.8494 26.3217 41.9232 26.5699 41.997 26.8209C42.0035 26.8377 41.9958 26.8572 41.9802 26.8636C41.8805 26.9179 41.8016 27.0136 41.711 27.0796C41.6565 27.1171 41.597 27.1443 41.5322 27.1611C41.3381 27.2128 41.136 27.2736 40.9302 27.3435C40.8213 27.3771 40.7153 27.4212 40.6142 27.4741C40.5378 27.5155 40.3578 27.6319 40.275 27.579C39.9941 27.3939 39.7092 27.1753 39.5189 26.9089C39.4929 26.8648 39.4878 26.8119 39.5058 26.764C39.5447 26.6463 39.5564 26.5195 39.537 26.3967C39.5097 26.2207 39.4968 26.0422 39.4955 25.8637C39.4955 25.8534 39.5007 25.8442 39.5085 25.8378C39.5888 25.7667 39.8283 25.7874 39.9396 25.7874C39.9461 25.7887 39.9539 25.786 39.9591 25.7809Z" fill="black"/>
<path d="M18.2384 26.1313C18.2151 26.1067 18.1853 26.0899 18.153 26.0808C18.0234 26.0458 17.894 26.011 17.7659 25.9761C17.5806 25.9243 17.3735 25.7898 17.31 25.5841C17.2518 25.3939 17.3981 25.1055 17.1157 25.0356C16.9254 24.9955 16.7416 24.9244 16.5745 24.8223C16.3584 24.6786 16.12 24.5092 15.8611 24.3126C15.6552 24.1522 15.43 24.0177 15.1905 23.9116C15.0765 23.8624 14.9535 23.8171 14.8214 23.7732C14.6803 23.7279 14.5547 23.6929 14.442 23.6683C14.0795 23.5869 13.6729 23.5494 13.3195 23.3799C13.2249 23.3398 13.1602 23.2519 13.1485 23.1496C13.1317 23.0281 13.1848 22.9557 13.3078 22.9324C13.5525 22.8871 13.7946 22.8289 14.0329 22.7565C14.1287 22.728 14.2983 22.6672 14.5417 22.5754C14.7062 22.5145 14.8706 22.4434 15.0363 22.3632C15.3691 22.2042 15.6889 22.0218 15.997 21.8199C16.1899 21.6919 16.3842 21.5599 16.5824 21.4242C16.6821 21.3517 16.7987 21.3051 16.9217 21.2869C17.1327 21.265 17.345 21.2625 17.556 21.2779C17.705 21.2883 17.8616 21.3453 18.0119 21.3814C18.0261 21.384 18.0365 21.3943 18.0416 21.4086C18.048 21.4318 18.0416 21.4564 18.0234 21.4732C17.6726 21.847 17.3502 22.1821 17.0796 22.6102C17.0201 22.7047 17.0408 22.7811 17.1132 22.8651C17.2647 23.0436 17.4059 23.2312 17.5367 23.4265C17.6817 23.6386 17.8176 23.8275 18.0779 23.9038C18.2126 23.9427 18.3588 23.9452 18.4896 23.9917C18.7589 24.0837 18.9881 24.2622 19.1448 24.4989C19.2651 24.6799 19.3701 24.8727 19.4555 25.0732C19.5306 25.249 19.6238 25.4172 19.7352 25.5738C19.9385 25.8466 20.147 26.1235 20.3606 26.4042C20.5419 26.6422 20.705 26.8945 20.85 27.1557C20.9291 27.2941 20.9873 27.4416 21.0236 27.5955C21.0455 27.6757 21.0029 27.7585 20.9264 27.7882C20.67 27.9151 20.3516 27.9384 20.0615 27.9331C19.761 27.9267 19.4633 27.8931 19.1681 27.8335C18.9131 27.7806 18.6644 27.6952 18.4287 27.5814C18.3122 27.5232 18.206 27.4468 18.1128 27.355C18.0105 27.2566 18.0623 27.0949 18.0404 26.9707C18.0326 26.9256 18.0209 26.8815 18.0027 26.8401C17.9277 26.6733 17.8694 26.4999 17.8266 26.3214C17.8047 26.2282 17.8928 26.2038 17.9613 26.1946C18.0494 26.1817 18.1388 26.1688 18.2306 26.1532C18.2487 26.1507 18.2514 26.1429 18.2384 26.1313Z" fill="black"/>
<path d="M24.4175 24.688C24.4409 24.6956 24.4667 24.6917 24.4913 24.6995C24.4926 24.6995 24.4926 24.7009 24.4913 24.6995C24.4046 24.6944 24.3255 24.6931 24.2543 24.6956C24.2504 24.6956 24.249 24.6944 24.249 24.6917C24.249 24.688 24.2504 24.6866 24.2543 24.6866C24.3009 24.6905 24.3462 24.6892 24.3929 24.6841C24.4007 24.6841 24.4097 24.6853 24.4175 24.688Z" fill="black"/>
</svg>
