<svg width="9" height="10" viewBox="0 0 9 10" fill="none" xmlns="http://www.w3.org/2000/svg">
<path d="M0.876623 10C0.623377 10 0.413961 9.91996 0.248377 9.75989C0.0827922 9.59981 0 9.39736 0 9.15254V2.14689C0 1.90207 0.0827922 1.69962 0.248377 1.53955C0.413961 1.37947 0.623377 1.29944 0.876623 1.29944H2.04545V0H2.51299V1.29944H6.54545V0H6.95455V1.29944H8.12338C8.37662 1.29944 8.58604 1.37947 8.75162 1.53955C8.91721 1.69962 9 1.90207 9 2.14689V9.15254C9 9.39736 8.91721 9.59981 8.75162 9.75989C8.58604 9.91996 8.37662 10 8.12338 10H0.876623ZM0.876623 9.60452H8.12338C8.24026 9.60452 8.3474 9.55744 8.44481 9.46328C8.54221 9.36911 8.59091 9.26554 8.59091 9.15254V4.40678H0.409091V9.15254C0.409091 9.26554 0.457792 9.36911 0.555195 9.46328C0.652597 9.55744 0.75974 9.60452 0.876623 9.60452ZM0.409091 4.0113H8.59091V2.14689C8.59091 2.0339 8.54221 1.93032 8.44481 1.83616C8.3474 1.742 8.24026 1.69492 8.12338 1.69492H0.876623C0.75974 1.69492 0.652597 1.742 0.555195 1.83616C0.457792 1.93032 0.409091 2.0339 0.409091 2.14689V4.0113Z" fill="#83B59F"/>
</svg>
