<svg width="1200" height="476" viewBox="0 0 1200 476" fill="none" xmlns="http://www.w3.org/2000/svg">
<mask id="mask0_116_17712" style="mask-type:alpha" maskUnits="userSpaceOnUse" x="200" y="200" width="800" height="600">
<ellipse cx="600" cy="500" rx="400" ry="300" fill="white"/>
</mask>
<g mask="url(#mask0_116_17712)">
<circle cx="216" cy="216" r="2" fill="white" fill-opacity="0.3" style="mix-blend-mode:overlay"/>
<circle cx="216" cy="240" r="2" fill="white" fill-opacity="0.3" style="mix-blend-mode:overlay"/>
<circle cx="216" cy="264" r="2" fill="white" fill-opacity="0.3" style="mix-blend-mode:overlay"/>
<circle cx="216" cy="288" r="2" fill="white" fill-opacity="0.3" style="mix-blend-mode:overlay"/>
<circle cx="216" cy="312" r="2" fill="white" fill-opacity="0.3" style="mix-blend-mode:overlay"/>
<circle cx="216" cy="336" r="2" fill="white" fill-opacity="0.3" style="mix-blend-mode:overlay"/>
<circle cx="216" cy="360" r="2" fill="white" fill-opacity="0.3" style="mix-blend-mode:overlay"/>
<circle cx="216" cy="384" r="2" fill="white" fill-opacity="0.3" style="mix-blend-mode:overlay"/>
<circle cx="216" cy="408" r="2" fill="white" fill-opacity="0.3" style="mix-blend-mode:overlay"/>
<circle cx="216" cy="432" r="2" fill="white" fill-opacity="0.3" style="mix-blend-mode:overlay"/>
<circle cx="216" cy="456" r="2" fill="white" fill-opacity="0.3" style="mix-blend-mode:overlay"/>
<circle cx="240" cy="216" r="2" fill="white" fill-opacity="0.3" style="mix-blend-mode:overlay"/>
<circle cx="240" cy="240" r="2" fill="white" fill-opacity="0.3" style="mix-blend-mode:overlay"/>
<circle cx="240" cy="264" r="2" fill="white" fill-opacity="0.3" style="mix-blend-mode:overlay"/>
<circle cx="240" cy="288" r="2" fill="white" fill-opacity="0.3" style="mix-blend-mode:overlay"/>
<circle cx="240" cy="312" r="2" fill="white" fill-opacity="0.3" style="mix-blend-mode:overlay"/>
<circle cx="240" cy="336" r="2" fill="white" fill-opacity="0.3" style="mix-blend-mode:overlay"/>
<circle cx="240" cy="360" r="2" fill="white" fill-opacity="0.3" style="mix-blend-mode:overlay"/>
<circle cx="240" cy="384" r="2" fill="white" fill-opacity="0.3" style="mix-blend-mode:overlay"/>
<circle cx="240" cy="408" r="2" fill="white" fill-opacity="0.3" style="mix-blend-mode:overlay"/>
<circle cx="240" cy="432" r="2" fill="white" fill-opacity="0.3" style="mix-blend-mode:overlay"/>
<circle cx="240" cy="456" r="2" fill="white" fill-opacity="0.3" style="mix-blend-mode:overlay"/>
<circle cx="264" cy="216" r="2" fill="white" fill-opacity="0.3" style="mix-blend-mode:overlay"/>
<circle cx="264" cy="240" r="2" fill="white" fill-opacity="0.3" style="mix-blend-mode:overlay"/>
<circle cx="264" cy="264" r="2" fill="white" fill-opacity="0.3" style="mix-blend-mode:overlay"/>
<circle cx="264" cy="288" r="2" fill="white" fill-opacity="0.3" style="mix-blend-mode:overlay"/>
<circle cx="264" cy="312" r="2" fill="white" fill-opacity="0.3" style="mix-blend-mode:overlay"/>
<circle cx="264" cy="336" r="2" fill="white" fill-opacity="0.3" style="mix-blend-mode:overlay"/>
<circle cx="264" cy="360" r="2" fill="white" fill-opacity="0.3" style="mix-blend-mode:overlay"/>
<circle cx="264" cy="384" r="2" fill="white" fill-opacity="0.3" style="mix-blend-mode:overlay"/>
<circle cx="264" cy="408" r="2" fill="white" fill-opacity="0.3" style="mix-blend-mode:overlay"/>
<circle cx="264" cy="432" r="2" fill="white" fill-opacity="0.3" style="mix-blend-mode:overlay"/>
<circle cx="264" cy="456" r="2" fill="white" fill-opacity="0.3" style="mix-blend-mode:overlay"/>
<circle cx="288" cy="216" r="2" fill="white" fill-opacity="0.3" style="mix-blend-mode:overlay"/>
<circle cx="288" cy="240" r="2" fill="white" fill-opacity="0.3" style="mix-blend-mode:overlay"/>
<circle cx="288" cy="264" r="2" fill="white" fill-opacity="0.3" style="mix-blend-mode:overlay"/>
<circle cx="288" cy="288" r="2" fill="white" fill-opacity="0.3" style="mix-blend-mode:overlay"/>
<circle cx="288" cy="312" r="2" fill="white" fill-opacity="0.3" style="mix-blend-mode:overlay"/>
<circle cx="288" cy="336" r="2" fill="white" fill-opacity="0.3" style="mix-blend-mode:overlay"/>
<circle cx="288" cy="360" r="2" fill="white" fill-opacity="0.3" style="mix-blend-mode:overlay"/>
<circle cx="288" cy="384" r="2" fill="white" fill-opacity="0.3" style="mix-blend-mode:overlay"/>
<circle cx="288" cy="408" r="2" fill="white" fill-opacity="0.3" style="mix-blend-mode:overlay"/>
<circle cx="288" cy="432" r="2" fill="white" fill-opacity="0.3" style="mix-blend-mode:overlay"/>
<circle cx="288" cy="456" r="2" fill="white" fill-opacity="0.3" style="mix-blend-mode:overlay"/>
<circle cx="312" cy="216" r="2" fill="white" fill-opacity="0.3" style="mix-blend-mode:overlay"/>
<circle cx="312" cy="240" r="2" fill="white" fill-opacity="0.3" style="mix-blend-mode:overlay"/>
<circle cx="312" cy="264" r="2" fill="white" fill-opacity="0.3" style="mix-blend-mode:overlay"/>
<circle cx="312" cy="288" r="2" fill="white" fill-opacity="0.3" style="mix-blend-mode:overlay"/>
<circle cx="312" cy="312" r="2" fill="white" fill-opacity="0.3" style="mix-blend-mode:overlay"/>
<circle cx="312" cy="336" r="2" fill="white" fill-opacity="0.3" style="mix-blend-mode:overlay"/>
<circle cx="312" cy="360" r="2" fill="white" fill-opacity="0.3" style="mix-blend-mode:overlay"/>
<circle cx="312" cy="384" r="2" fill="white" fill-opacity="0.3" style="mix-blend-mode:overlay"/>
<circle cx="312" cy="408" r="2" fill="white" fill-opacity="0.3" style="mix-blend-mode:overlay"/>
<circle cx="312" cy="432" r="2" fill="white" fill-opacity="0.3" style="mix-blend-mode:overlay"/>
<circle cx="312" cy="456" r="2" fill="white" fill-opacity="0.3" style="mix-blend-mode:overlay"/>
<circle cx="336" cy="216" r="2" fill="white" fill-opacity="0.3" style="mix-blend-mode:overlay"/>
<circle cx="336" cy="240" r="2" fill="white" fill-opacity="0.3" style="mix-blend-mode:overlay"/>
<circle cx="336" cy="264" r="2" fill="white" fill-opacity="0.3" style="mix-blend-mode:overlay"/>
<circle cx="336" cy="288" r="2" fill="white" fill-opacity="0.3" style="mix-blend-mode:overlay"/>
<circle cx="336" cy="312" r="2" fill="white" fill-opacity="0.3" style="mix-blend-mode:overlay"/>
<circle cx="336" cy="336" r="2" fill="white" fill-opacity="0.3" style="mix-blend-mode:overlay"/>
<circle cx="336" cy="360" r="2" fill="white" fill-opacity="0.3" style="mix-blend-mode:overlay"/>
<circle cx="336" cy="384" r="2" fill="white" fill-opacity="0.3" style="mix-blend-mode:overlay"/>
<circle cx="336" cy="408" r="2" fill="white" fill-opacity="0.3" style="mix-blend-mode:overlay"/>
<circle cx="336" cy="432" r="2" fill="white" fill-opacity="0.3" style="mix-blend-mode:overlay"/>
<circle cx="336" cy="456" r="2" fill="white" fill-opacity="0.3" style="mix-blend-mode:overlay"/>
<circle cx="360" cy="216" r="2" fill="white" fill-opacity="0.3" style="mix-blend-mode:overlay"/>
<circle cx="360" cy="240" r="2" fill="white" fill-opacity="0.3" style="mix-blend-mode:overlay"/>
<circle cx="360" cy="264" r="2" fill="white" fill-opacity="0.3" style="mix-blend-mode:overlay"/>
<circle cx="360" cy="288" r="2" fill="white" fill-opacity="0.3" style="mix-blend-mode:overlay"/>
<circle cx="360" cy="312" r="2" fill="white" fill-opacity="0.3" style="mix-blend-mode:overlay"/>
<circle cx="360" cy="336" r="2" fill="white" fill-opacity="0.3" style="mix-blend-mode:overlay"/>
<circle cx="360" cy="360" r="2" fill="white" fill-opacity="0.3" style="mix-blend-mode:overlay"/>
<circle cx="360" cy="384" r="2" fill="white" fill-opacity="0.3" style="mix-blend-mode:overlay"/>
<circle cx="360" cy="408" r="2" fill="white" fill-opacity="0.3" style="mix-blend-mode:overlay"/>
<circle cx="360" cy="432" r="2" fill="white" fill-opacity="0.3" style="mix-blend-mode:overlay"/>
<circle cx="360" cy="456" r="2" fill="white" fill-opacity="0.3" style="mix-blend-mode:overlay"/>
<circle cx="384" cy="216" r="2" fill="white" fill-opacity="0.3" style="mix-blend-mode:overlay"/>
<circle cx="384" cy="240" r="2" fill="white" fill-opacity="0.3" style="mix-blend-mode:overlay"/>
<circle cx="384" cy="264" r="2" fill="white" fill-opacity="0.3" style="mix-blend-mode:overlay"/>
<circle cx="384" cy="288" r="2" fill="white" fill-opacity="0.3" style="mix-blend-mode:overlay"/>
<circle cx="384" cy="312" r="2" fill="white" fill-opacity="0.3" style="mix-blend-mode:overlay"/>
<circle cx="384" cy="336" r="2" fill="white" fill-opacity="0.3" style="mix-blend-mode:overlay"/>
<circle cx="384" cy="360" r="2" fill="white" fill-opacity="0.3" style="mix-blend-mode:overlay"/>
<circle cx="384" cy="384" r="2" fill="white" fill-opacity="0.3" style="mix-blend-mode:overlay"/>
<circle cx="384" cy="408" r="2" fill="white" fill-opacity="0.3" style="mix-blend-mode:overlay"/>
<circle cx="384" cy="432" r="2" fill="white" fill-opacity="0.3" style="mix-blend-mode:overlay"/>
<circle cx="384" cy="456" r="2" fill="white" fill-opacity="0.3" style="mix-blend-mode:overlay"/>
<circle cx="408" cy="216" r="2" fill="white" fill-opacity="0.3" style="mix-blend-mode:overlay"/>
<circle cx="408" cy="240" r="2" fill="white" fill-opacity="0.3" style="mix-blend-mode:overlay"/>
<circle cx="408" cy="264" r="2" fill="white" fill-opacity="0.3" style="mix-blend-mode:overlay"/>
<circle cx="408" cy="288" r="2" fill="white" fill-opacity="0.3" style="mix-blend-mode:overlay"/>
<circle cx="408" cy="312" r="2" fill="white" fill-opacity="0.3" style="mix-blend-mode:overlay"/>
<circle cx="408" cy="336" r="2" fill="white" fill-opacity="0.3" style="mix-blend-mode:overlay"/>
<circle cx="408" cy="360" r="2" fill="white" fill-opacity="0.3" style="mix-blend-mode:overlay"/>
<circle cx="408" cy="384" r="2" fill="white" fill-opacity="0.3" style="mix-blend-mode:overlay"/>
<circle cx="408" cy="408" r="2" fill="white" fill-opacity="0.3" style="mix-blend-mode:overlay"/>
<circle cx="408" cy="432" r="2" fill="white" fill-opacity="0.3" style="mix-blend-mode:overlay"/>
<circle cx="408" cy="456" r="2" fill="white" fill-opacity="0.3" style="mix-blend-mode:overlay"/>
<circle cx="432" cy="216" r="2" fill="white" fill-opacity="0.3" style="mix-blend-mode:overlay"/>
<circle cx="432" cy="240" r="2" fill="white" fill-opacity="0.3" style="mix-blend-mode:overlay"/>
<circle cx="432" cy="264" r="2" fill="white" fill-opacity="0.3" style="mix-blend-mode:overlay"/>
<circle cx="432" cy="288" r="2" fill="white" fill-opacity="0.3" style="mix-blend-mode:overlay"/>
<circle cx="432" cy="312" r="2" fill="white" fill-opacity="0.3" style="mix-blend-mode:overlay"/>
<circle cx="432" cy="336" r="2" fill="white" fill-opacity="0.3" style="mix-blend-mode:overlay"/>
<circle cx="432" cy="360" r="2" fill="white" fill-opacity="0.3" style="mix-blend-mode:overlay"/>
<circle cx="432" cy="384" r="2" fill="white" fill-opacity="0.3" style="mix-blend-mode:overlay"/>
<circle cx="432" cy="408" r="2" fill="white" fill-opacity="0.3" style="mix-blend-mode:overlay"/>
<circle cx="432" cy="432" r="2" fill="white" fill-opacity="0.3" style="mix-blend-mode:overlay"/>
<circle cx="432" cy="456" r="2" fill="white" fill-opacity="0.3" style="mix-blend-mode:overlay"/>
<circle cx="456" cy="216" r="2" fill="white" fill-opacity="0.3" style="mix-blend-mode:overlay"/>
<circle cx="456" cy="240" r="2" fill="white" fill-opacity="0.3" style="mix-blend-mode:overlay"/>
<circle cx="456" cy="264" r="2" fill="white" fill-opacity="0.3" style="mix-blend-mode:overlay"/>
<circle cx="456" cy="288" r="2" fill="white" fill-opacity="0.3" style="mix-blend-mode:overlay"/>
<circle cx="456" cy="312" r="2" fill="white" fill-opacity="0.3" style="mix-blend-mode:overlay"/>
<circle cx="456" cy="336" r="2" fill="white" fill-opacity="0.3" style="mix-blend-mode:overlay"/>
<circle cx="456" cy="360" r="2" fill="white" fill-opacity="0.3" style="mix-blend-mode:overlay"/>
<circle cx="456" cy="384" r="2" fill="white" fill-opacity="0.3" style="mix-blend-mode:overlay"/>
<circle cx="456" cy="408" r="2" fill="white" fill-opacity="0.3" style="mix-blend-mode:overlay"/>
<circle cx="456" cy="432" r="2" fill="white" fill-opacity="0.3" style="mix-blend-mode:overlay"/>
<circle cx="456" cy="456" r="2" fill="white" fill-opacity="0.3" style="mix-blend-mode:overlay"/>
<circle cx="480" cy="216" r="2" fill="white" fill-opacity="0.3" style="mix-blend-mode:overlay"/>
<circle cx="480" cy="240" r="2" fill="white" fill-opacity="0.3" style="mix-blend-mode:overlay"/>
<circle cx="480" cy="264" r="2" fill="white" fill-opacity="0.3" style="mix-blend-mode:overlay"/>
<circle cx="480" cy="288" r="2" fill="white" fill-opacity="0.3" style="mix-blend-mode:overlay"/>
<circle cx="480" cy="312" r="2" fill="white" fill-opacity="0.3" style="mix-blend-mode:overlay"/>
<circle cx="480" cy="336" r="2" fill="white" fill-opacity="0.3" style="mix-blend-mode:overlay"/>
<circle cx="480" cy="360" r="2" fill="white" fill-opacity="0.3" style="mix-blend-mode:overlay"/>
<circle cx="480" cy="384" r="2" fill="white" fill-opacity="0.3" style="mix-blend-mode:overlay"/>
<circle cx="480" cy="408" r="2" fill="white" fill-opacity="0.3" style="mix-blend-mode:overlay"/>
<circle cx="480" cy="432" r="2" fill="white" fill-opacity="0.3" style="mix-blend-mode:overlay"/>
<circle cx="480" cy="456" r="2" fill="white" fill-opacity="0.3" style="mix-blend-mode:overlay"/>
<circle cx="504" cy="216" r="2" fill="white" fill-opacity="0.3" style="mix-blend-mode:overlay"/>
<circle cx="504" cy="240" r="2" fill="white" fill-opacity="0.3" style="mix-blend-mode:overlay"/>
<circle cx="504" cy="264" r="2" fill="white" fill-opacity="0.3" style="mix-blend-mode:overlay"/>
<circle cx="504" cy="288" r="2" fill="white" fill-opacity="0.3" style="mix-blend-mode:overlay"/>
<circle cx="504" cy="312" r="2" fill="white" fill-opacity="0.3" style="mix-blend-mode:overlay"/>
<circle cx="504" cy="336" r="2" fill="white" fill-opacity="0.3" style="mix-blend-mode:overlay"/>
<circle cx="504" cy="360" r="2" fill="white" fill-opacity="0.3" style="mix-blend-mode:overlay"/>
<circle cx="504" cy="384" r="2" fill="white" fill-opacity="0.3" style="mix-blend-mode:overlay"/>
<circle cx="504" cy="408" r="2" fill="white" fill-opacity="0.3" style="mix-blend-mode:overlay"/>
<circle cx="504" cy="432" r="2" fill="white" fill-opacity="0.3" style="mix-blend-mode:overlay"/>
<circle cx="504" cy="456" r="2" fill="white" fill-opacity="0.3" style="mix-blend-mode:overlay"/>
<circle cx="528" cy="216" r="2" fill="white" fill-opacity="0.3" style="mix-blend-mode:overlay"/>
<circle cx="528" cy="240" r="2" fill="white" fill-opacity="0.3" style="mix-blend-mode:overlay"/>
<circle cx="528" cy="264" r="2" fill="white" fill-opacity="0.3" style="mix-blend-mode:overlay"/>
<circle cx="528" cy="288" r="2" fill="white" fill-opacity="0.3" style="mix-blend-mode:overlay"/>
<circle cx="528" cy="312" r="2" fill="white" fill-opacity="0.3" style="mix-blend-mode:overlay"/>
<circle cx="528" cy="336" r="2" fill="white" fill-opacity="0.3" style="mix-blend-mode:overlay"/>
<circle cx="528" cy="360" r="2" fill="white" fill-opacity="0.3" style="mix-blend-mode:overlay"/>
<circle cx="528" cy="384" r="2" fill="white" fill-opacity="0.3" style="mix-blend-mode:overlay"/>
<circle cx="528" cy="408" r="2" fill="white" fill-opacity="0.3" style="mix-blend-mode:overlay"/>
<circle cx="528" cy="432" r="2" fill="white" fill-opacity="0.3" style="mix-blend-mode:overlay"/>
<circle cx="528" cy="456" r="2" fill="white" fill-opacity="0.3" style="mix-blend-mode:overlay"/>
<circle cx="552" cy="216" r="2" fill="white" fill-opacity="0.3" style="mix-blend-mode:overlay"/>
<circle cx="552" cy="240" r="2" fill="white" fill-opacity="0.3" style="mix-blend-mode:overlay"/>
<circle cx="552" cy="264" r="2" fill="white" fill-opacity="0.3" style="mix-blend-mode:overlay"/>
<circle cx="552" cy="288" r="2" fill="white" fill-opacity="0.3" style="mix-blend-mode:overlay"/>
<circle cx="552" cy="312" r="2" fill="white" fill-opacity="0.3" style="mix-blend-mode:overlay"/>
<circle cx="552" cy="336" r="2" fill="white" fill-opacity="0.3" style="mix-blend-mode:overlay"/>
<circle cx="552" cy="360" r="2" fill="white" fill-opacity="0.3" style="mix-blend-mode:overlay"/>
<circle cx="552" cy="384" r="2" fill="white" fill-opacity="0.3" style="mix-blend-mode:overlay"/>
<circle cx="552" cy="408" r="2" fill="white" fill-opacity="0.3" style="mix-blend-mode:overlay"/>
<circle cx="552" cy="432" r="2" fill="white" fill-opacity="0.3" style="mix-blend-mode:overlay"/>
<circle cx="552" cy="456" r="2" fill="white" fill-opacity="0.3" style="mix-blend-mode:overlay"/>
<circle cx="576" cy="216" r="2" fill="white" fill-opacity="0.3" style="mix-blend-mode:overlay"/>
<circle cx="576" cy="240" r="2" fill="white" fill-opacity="0.3" style="mix-blend-mode:overlay"/>
<circle cx="576" cy="264" r="2" fill="white" fill-opacity="0.3" style="mix-blend-mode:overlay"/>
<circle cx="576" cy="288" r="2" fill="white" fill-opacity="0.3" style="mix-blend-mode:overlay"/>
<circle cx="576" cy="312" r="2" fill="white" fill-opacity="0.3" style="mix-blend-mode:overlay"/>
<circle cx="576" cy="336" r="2" fill="white" fill-opacity="0.3" style="mix-blend-mode:overlay"/>
<circle cx="576" cy="360" r="2" fill="white" fill-opacity="0.3" style="mix-blend-mode:overlay"/>
<circle cx="576" cy="384" r="2" fill="white" fill-opacity="0.3" style="mix-blend-mode:overlay"/>
<circle cx="576" cy="408" r="2" fill="white" fill-opacity="0.3" style="mix-blend-mode:overlay"/>
<circle cx="576" cy="432" r="2" fill="white" fill-opacity="0.3" style="mix-blend-mode:overlay"/>
<circle cx="576" cy="456" r="2" fill="white" fill-opacity="0.3" style="mix-blend-mode:overlay"/>
<circle cx="600" cy="216" r="2" fill="white" fill-opacity="0.3" style="mix-blend-mode:overlay"/>
<circle cx="600" cy="240" r="2" fill="white" fill-opacity="0.3" style="mix-blend-mode:overlay"/>
<circle cx="600" cy="264" r="2" fill="white" fill-opacity="0.3" style="mix-blend-mode:overlay"/>
<circle cx="600" cy="288" r="2" fill="white" fill-opacity="0.3" style="mix-blend-mode:overlay"/>
<circle cx="600" cy="312" r="2" fill="white" fill-opacity="0.3" style="mix-blend-mode:overlay"/>
<circle cx="600" cy="336" r="2" fill="white" fill-opacity="0.3" style="mix-blend-mode:overlay"/>
<circle cx="600" cy="360" r="2" fill="white" fill-opacity="0.3" style="mix-blend-mode:overlay"/>
<circle cx="600" cy="384" r="2" fill="white" fill-opacity="0.3" style="mix-blend-mode:overlay"/>
<circle cx="600" cy="408" r="2" fill="white" fill-opacity="0.3" style="mix-blend-mode:overlay"/>
<circle cx="600" cy="432" r="2" fill="white" fill-opacity="0.3" style="mix-blend-mode:overlay"/>
<circle cx="600" cy="456" r="2" fill="white" fill-opacity="0.3" style="mix-blend-mode:overlay"/>
<circle cx="624" cy="216" r="2" fill="white" fill-opacity="0.3" style="mix-blend-mode:overlay"/>
<circle cx="624" cy="240" r="2" fill="white" fill-opacity="0.3" style="mix-blend-mode:overlay"/>
<circle cx="624" cy="264" r="2" fill="white" fill-opacity="0.3" style="mix-blend-mode:overlay"/>
<circle cx="624" cy="288" r="2" fill="white" fill-opacity="0.3" style="mix-blend-mode:overlay"/>
<circle cx="624" cy="312" r="2" fill="white" fill-opacity="0.3" style="mix-blend-mode:overlay"/>
<circle cx="624" cy="336" r="2" fill="white" fill-opacity="0.3" style="mix-blend-mode:overlay"/>
<circle cx="624" cy="360" r="2" fill="white" fill-opacity="0.3" style="mix-blend-mode:overlay"/>
<circle cx="624" cy="384" r="2" fill="white" fill-opacity="0.3" style="mix-blend-mode:overlay"/>
<circle cx="624" cy="408" r="2" fill="white" fill-opacity="0.3" style="mix-blend-mode:overlay"/>
<circle cx="624" cy="432" r="2" fill="white" fill-opacity="0.3" style="mix-blend-mode:overlay"/>
<circle cx="624" cy="456" r="2" fill="white" fill-opacity="0.3" style="mix-blend-mode:overlay"/>
<circle cx="648" cy="216" r="2" fill="white" fill-opacity="0.3" style="mix-blend-mode:overlay"/>
<circle cx="648" cy="240" r="2" fill="white" fill-opacity="0.3" style="mix-blend-mode:overlay"/>
<circle cx="648" cy="264" r="2" fill="white" fill-opacity="0.3" style="mix-blend-mode:overlay"/>
<circle cx="648" cy="288" r="2" fill="white" fill-opacity="0.3" style="mix-blend-mode:overlay"/>
<circle cx="648" cy="312" r="2" fill="white" fill-opacity="0.3" style="mix-blend-mode:overlay"/>
<circle cx="648" cy="336" r="2" fill="white" fill-opacity="0.3" style="mix-blend-mode:overlay"/>
<circle cx="648" cy="360" r="2" fill="white" fill-opacity="0.3" style="mix-blend-mode:overlay"/>
<circle cx="648" cy="384" r="2" fill="white" fill-opacity="0.3" style="mix-blend-mode:overlay"/>
<circle cx="648" cy="408" r="2" fill="white" fill-opacity="0.3" style="mix-blend-mode:overlay"/>
<circle cx="648" cy="432" r="2" fill="white" fill-opacity="0.3" style="mix-blend-mode:overlay"/>
<circle cx="648" cy="456" r="2" fill="white" fill-opacity="0.3" style="mix-blend-mode:overlay"/>
<circle cx="672" cy="216" r="2" fill="white" fill-opacity="0.3" style="mix-blend-mode:overlay"/>
<circle cx="672" cy="240" r="2" fill="white" fill-opacity="0.3" style="mix-blend-mode:overlay"/>
<circle cx="672" cy="264" r="2" fill="white" fill-opacity="0.3" style="mix-blend-mode:overlay"/>
<circle cx="672" cy="288" r="2" fill="white" fill-opacity="0.3" style="mix-blend-mode:overlay"/>
<circle cx="672" cy="312" r="2" fill="white" fill-opacity="0.3" style="mix-blend-mode:overlay"/>
<circle cx="672" cy="336" r="2" fill="white" fill-opacity="0.3" style="mix-blend-mode:overlay"/>
<circle cx="672" cy="360" r="2" fill="white" fill-opacity="0.3" style="mix-blend-mode:overlay"/>
<circle cx="672" cy="384" r="2" fill="white" fill-opacity="0.3" style="mix-blend-mode:overlay"/>
<circle cx="672" cy="408" r="2" fill="white" fill-opacity="0.3" style="mix-blend-mode:overlay"/>
<circle cx="672" cy="432" r="2" fill="white" fill-opacity="0.3" style="mix-blend-mode:overlay"/>
<circle cx="672" cy="456" r="2" fill="white" fill-opacity="0.3" style="mix-blend-mode:overlay"/>
<circle cx="696" cy="216" r="2" fill="white" fill-opacity="0.3" style="mix-blend-mode:overlay"/>
<circle cx="696" cy="240" r="2" fill="white" fill-opacity="0.3" style="mix-blend-mode:overlay"/>
<circle cx="696" cy="264" r="2" fill="white" fill-opacity="0.3" style="mix-blend-mode:overlay"/>
<circle cx="696" cy="288" r="2" fill="white" fill-opacity="0.3" style="mix-blend-mode:overlay"/>
<circle cx="696" cy="312" r="2" fill="white" fill-opacity="0.3" style="mix-blend-mode:overlay"/>
<circle cx="696" cy="336" r="2" fill="white" fill-opacity="0.3" style="mix-blend-mode:overlay"/>
<circle cx="696" cy="360" r="2" fill="white" fill-opacity="0.3" style="mix-blend-mode:overlay"/>
<circle cx="696" cy="384" r="2" fill="white" fill-opacity="0.3" style="mix-blend-mode:overlay"/>
<circle cx="696" cy="408" r="2" fill="white" fill-opacity="0.3" style="mix-blend-mode:overlay"/>
<circle cx="696" cy="432" r="2" fill="white" fill-opacity="0.3" style="mix-blend-mode:overlay"/>
<circle cx="696" cy="456" r="2" fill="white" fill-opacity="0.3" style="mix-blend-mode:overlay"/>
<circle cx="720" cy="216" r="2" fill="white" fill-opacity="0.3" style="mix-blend-mode:overlay"/>
<circle cx="720" cy="240" r="2" fill="white" fill-opacity="0.3" style="mix-blend-mode:overlay"/>
<circle cx="720" cy="264" r="2" fill="white" fill-opacity="0.3" style="mix-blend-mode:overlay"/>
<circle cx="720" cy="288" r="2" fill="white" fill-opacity="0.3" style="mix-blend-mode:overlay"/>
<circle cx="720" cy="312" r="2" fill="white" fill-opacity="0.3" style="mix-blend-mode:overlay"/>
<circle cx="720" cy="336" r="2" fill="white" fill-opacity="0.3" style="mix-blend-mode:overlay"/>
<circle cx="720" cy="360" r="2" fill="white" fill-opacity="0.3" style="mix-blend-mode:overlay"/>
<circle cx="720" cy="384" r="2" fill="white" fill-opacity="0.3" style="mix-blend-mode:overlay"/>
<circle cx="720" cy="408" r="2" fill="white" fill-opacity="0.3" style="mix-blend-mode:overlay"/>
<circle cx="720" cy="432" r="2" fill="white" fill-opacity="0.3" style="mix-blend-mode:overlay"/>
<circle cx="720" cy="456" r="2" fill="white" fill-opacity="0.3" style="mix-blend-mode:overlay"/>
<circle cx="744" cy="216" r="2" fill="white" fill-opacity="0.3" style="mix-blend-mode:overlay"/>
<circle cx="744" cy="240" r="2" fill="white" fill-opacity="0.3" style="mix-blend-mode:overlay"/>
<circle cx="744" cy="264" r="2" fill="white" fill-opacity="0.3" style="mix-blend-mode:overlay"/>
<circle cx="744" cy="288" r="2" fill="white" fill-opacity="0.3" style="mix-blend-mode:overlay"/>
<circle cx="744" cy="312" r="2" fill="white" fill-opacity="0.3" style="mix-blend-mode:overlay"/>
<circle cx="744" cy="336" r="2" fill="white" fill-opacity="0.3" style="mix-blend-mode:overlay"/>
<circle cx="744" cy="360" r="2" fill="white" fill-opacity="0.3" style="mix-blend-mode:overlay"/>
<circle cx="744" cy="384" r="2" fill="white" fill-opacity="0.3" style="mix-blend-mode:overlay"/>
<circle cx="744" cy="408" r="2" fill="white" fill-opacity="0.3" style="mix-blend-mode:overlay"/>
<circle cx="744" cy="432" r="2" fill="white" fill-opacity="0.3" style="mix-blend-mode:overlay"/>
<circle cx="744" cy="456" r="2" fill="white" fill-opacity="0.3" style="mix-blend-mode:overlay"/>
<circle cx="768" cy="216" r="2" fill="white" fill-opacity="0.3" style="mix-blend-mode:overlay"/>
<circle cx="768" cy="240" r="2" fill="white" fill-opacity="0.3" style="mix-blend-mode:overlay"/>
<circle cx="768" cy="264" r="2" fill="white" fill-opacity="0.3" style="mix-blend-mode:overlay"/>
<circle cx="768" cy="288" r="2" fill="white" fill-opacity="0.3" style="mix-blend-mode:overlay"/>
<circle cx="768" cy="312" r="2" fill="white" fill-opacity="0.3" style="mix-blend-mode:overlay"/>
<circle cx="768" cy="336" r="2" fill="white" fill-opacity="0.3" style="mix-blend-mode:overlay"/>
<circle cx="768" cy="360" r="2" fill="white" fill-opacity="0.3" style="mix-blend-mode:overlay"/>
<circle cx="768" cy="384" r="2" fill="white" fill-opacity="0.3" style="mix-blend-mode:overlay"/>
<circle cx="768" cy="408" r="2" fill="white" fill-opacity="0.3" style="mix-blend-mode:overlay"/>
<circle cx="768" cy="432" r="2" fill="white" fill-opacity="0.3" style="mix-blend-mode:overlay"/>
<circle cx="768" cy="456" r="2" fill="white" fill-opacity="0.3" style="mix-blend-mode:overlay"/>
<circle cx="792" cy="216" r="2" fill="white" fill-opacity="0.3" style="mix-blend-mode:overlay"/>
<circle cx="792" cy="240" r="2" fill="white" fill-opacity="0.3" style="mix-blend-mode:overlay"/>
<circle cx="792" cy="264" r="2" fill="white" fill-opacity="0.3" style="mix-blend-mode:overlay"/>
<circle cx="792" cy="288" r="2" fill="white" fill-opacity="0.3" style="mix-blend-mode:overlay"/>
<circle cx="792" cy="312" r="2" fill="white" fill-opacity="0.3" style="mix-blend-mode:overlay"/>
<circle cx="792" cy="336" r="2" fill="white" fill-opacity="0.3" style="mix-blend-mode:overlay"/>
<circle cx="792" cy="360" r="2" fill="white" fill-opacity="0.3" style="mix-blend-mode:overlay"/>
<circle cx="792" cy="384" r="2" fill="white" fill-opacity="0.3" style="mix-blend-mode:overlay"/>
<circle cx="792" cy="408" r="2" fill="white" fill-opacity="0.3" style="mix-blend-mode:overlay"/>
<circle cx="792" cy="432" r="2" fill="white" fill-opacity="0.3" style="mix-blend-mode:overlay"/>
<circle cx="792" cy="456" r="2" fill="white" fill-opacity="0.3" style="mix-blend-mode:overlay"/>
<circle cx="816" cy="216" r="2" fill="white" fill-opacity="0.3" style="mix-blend-mode:overlay"/>
<circle cx="816" cy="240" r="2" fill="white" fill-opacity="0.3" style="mix-blend-mode:overlay"/>
<circle cx="816" cy="264" r="2" fill="white" fill-opacity="0.3" style="mix-blend-mode:overlay"/>
<circle cx="816" cy="288" r="2" fill="white" fill-opacity="0.3" style="mix-blend-mode:overlay"/>
<circle cx="816" cy="312" r="2" fill="white" fill-opacity="0.3" style="mix-blend-mode:overlay"/>
<circle cx="816" cy="336" r="2" fill="white" fill-opacity="0.3" style="mix-blend-mode:overlay"/>
<circle cx="816" cy="360" r="2" fill="white" fill-opacity="0.3" style="mix-blend-mode:overlay"/>
<circle cx="816" cy="384" r="2" fill="white" fill-opacity="0.3" style="mix-blend-mode:overlay"/>
<circle cx="816" cy="408" r="2" fill="white" fill-opacity="0.3" style="mix-blend-mode:overlay"/>
<circle cx="816" cy="432" r="2" fill="white" fill-opacity="0.3" style="mix-blend-mode:overlay"/>
<circle cx="816" cy="456" r="2" fill="white" fill-opacity="0.3" style="mix-blend-mode:overlay"/>
<circle cx="840" cy="216" r="2" fill="white" fill-opacity="0.3" style="mix-blend-mode:overlay"/>
<circle cx="840" cy="240" r="2" fill="white" fill-opacity="0.3" style="mix-blend-mode:overlay"/>
<circle cx="840" cy="264" r="2" fill="white" fill-opacity="0.3" style="mix-blend-mode:overlay"/>
<circle cx="840" cy="288" r="2" fill="white" fill-opacity="0.3" style="mix-blend-mode:overlay"/>
<circle cx="840" cy="312" r="2" fill="white" fill-opacity="0.3" style="mix-blend-mode:overlay"/>
<circle cx="840" cy="336" r="2" fill="white" fill-opacity="0.3" style="mix-blend-mode:overlay"/>
<circle cx="840" cy="360" r="2" fill="white" fill-opacity="0.3" style="mix-blend-mode:overlay"/>
<circle cx="840" cy="384" r="2" fill="white" fill-opacity="0.3" style="mix-blend-mode:overlay"/>
<circle cx="840" cy="408" r="2" fill="white" fill-opacity="0.3" style="mix-blend-mode:overlay"/>
<circle cx="840" cy="432" r="2" fill="white" fill-opacity="0.3" style="mix-blend-mode:overlay"/>
<circle cx="840" cy="456" r="2" fill="white" fill-opacity="0.3" style="mix-blend-mode:overlay"/>
<circle cx="864" cy="216" r="2" fill="white" fill-opacity="0.3" style="mix-blend-mode:overlay"/>
<circle cx="864" cy="240" r="2" fill="white" fill-opacity="0.3" style="mix-blend-mode:overlay"/>
<circle cx="864" cy="264" r="2" fill="white" fill-opacity="0.3" style="mix-blend-mode:overlay"/>
<circle cx="864" cy="288" r="2" fill="white" fill-opacity="0.3" style="mix-blend-mode:overlay"/>
<circle cx="864" cy="312" r="2" fill="white" fill-opacity="0.3" style="mix-blend-mode:overlay"/>
<circle cx="864" cy="336" r="2" fill="white" fill-opacity="0.3" style="mix-blend-mode:overlay"/>
<circle cx="864" cy="360" r="2" fill="white" fill-opacity="0.3" style="mix-blend-mode:overlay"/>
<circle cx="864" cy="384" r="2" fill="white" fill-opacity="0.3" style="mix-blend-mode:overlay"/>
<circle cx="864" cy="408" r="2" fill="white" fill-opacity="0.3" style="mix-blend-mode:overlay"/>
<circle cx="864" cy="432" r="2" fill="white" fill-opacity="0.3" style="mix-blend-mode:overlay"/>
<circle cx="864" cy="456" r="2" fill="white" fill-opacity="0.3" style="mix-blend-mode:overlay"/>
<circle cx="888" cy="216" r="2" fill="white" fill-opacity="0.3" style="mix-blend-mode:overlay"/>
<circle cx="888" cy="240" r="2" fill="white" fill-opacity="0.3" style="mix-blend-mode:overlay"/>
<circle cx="888" cy="264" r="2" fill="white" fill-opacity="0.3" style="mix-blend-mode:overlay"/>
<circle cx="888" cy="288" r="2" fill="white" fill-opacity="0.3" style="mix-blend-mode:overlay"/>
<circle cx="888" cy="312" r="2" fill="white" fill-opacity="0.3" style="mix-blend-mode:overlay"/>
<circle cx="888" cy="336" r="2" fill="white" fill-opacity="0.3" style="mix-blend-mode:overlay"/>
<circle cx="888" cy="360" r="2" fill="white" fill-opacity="0.3" style="mix-blend-mode:overlay"/>
<circle cx="888" cy="384" r="2" fill="white" fill-opacity="0.3" style="mix-blend-mode:overlay"/>
<circle cx="888" cy="408" r="2" fill="white" fill-opacity="0.3" style="mix-blend-mode:overlay"/>
<circle cx="888" cy="432" r="2" fill="white" fill-opacity="0.3" style="mix-blend-mode:overlay"/>
<circle cx="888" cy="456" r="2" fill="white" fill-opacity="0.3" style="mix-blend-mode:overlay"/>
<circle cx="912" cy="216" r="2" fill="white" fill-opacity="0.3" style="mix-blend-mode:overlay"/>
<circle cx="912" cy="240" r="2" fill="white" fill-opacity="0.3" style="mix-blend-mode:overlay"/>
<circle cx="912" cy="264" r="2" fill="white" fill-opacity="0.3" style="mix-blend-mode:overlay"/>
<circle cx="912" cy="288" r="2" fill="white" fill-opacity="0.3" style="mix-blend-mode:overlay"/>
<circle cx="912" cy="312" r="2" fill="white" fill-opacity="0.3" style="mix-blend-mode:overlay"/>
<circle cx="912" cy="336" r="2" fill="white" fill-opacity="0.3" style="mix-blend-mode:overlay"/>
<circle cx="912" cy="360" r="2" fill="white" fill-opacity="0.3" style="mix-blend-mode:overlay"/>
<circle cx="912" cy="384" r="2" fill="white" fill-opacity="0.3" style="mix-blend-mode:overlay"/>
<circle cx="912" cy="408" r="2" fill="white" fill-opacity="0.3" style="mix-blend-mode:overlay"/>
<circle cx="912" cy="432" r="2" fill="white" fill-opacity="0.3" style="mix-blend-mode:overlay"/>
<circle cx="912" cy="456" r="2" fill="white" fill-opacity="0.3" style="mix-blend-mode:overlay"/>
<circle cx="936" cy="216" r="2" fill="white" fill-opacity="0.3" style="mix-blend-mode:overlay"/>
<circle cx="936" cy="240" r="2" fill="white" fill-opacity="0.3" style="mix-blend-mode:overlay"/>
<circle cx="936" cy="264" r="2" fill="white" fill-opacity="0.3" style="mix-blend-mode:overlay"/>
<circle cx="936" cy="288" r="2" fill="white" fill-opacity="0.3" style="mix-blend-mode:overlay"/>
<circle cx="936" cy="312" r="2" fill="white" fill-opacity="0.3" style="mix-blend-mode:overlay"/>
<circle cx="936" cy="336" r="2" fill="white" fill-opacity="0.3" style="mix-blend-mode:overlay"/>
<circle cx="936" cy="360" r="2" fill="white" fill-opacity="0.3" style="mix-blend-mode:overlay"/>
<circle cx="936" cy="384" r="2" fill="white" fill-opacity="0.3" style="mix-blend-mode:overlay"/>
<circle cx="936" cy="408" r="2" fill="white" fill-opacity="0.3" style="mix-blend-mode:overlay"/>
<circle cx="936" cy="432" r="2" fill="white" fill-opacity="0.3" style="mix-blend-mode:overlay"/>
<circle cx="936" cy="456" r="2" fill="white" fill-opacity="0.3" style="mix-blend-mode:overlay"/>
<circle cx="960" cy="216" r="2" fill="white" fill-opacity="0.3" style="mix-blend-mode:overlay"/>
<circle cx="960" cy="240" r="2" fill="white" fill-opacity="0.3" style="mix-blend-mode:overlay"/>
<circle cx="960" cy="264" r="2" fill="white" fill-opacity="0.3" style="mix-blend-mode:overlay"/>
<circle cx="960" cy="288" r="2" fill="white" fill-opacity="0.3" style="mix-blend-mode:overlay"/>
<circle cx="960" cy="312" r="2" fill="white" fill-opacity="0.3" style="mix-blend-mode:overlay"/>
<circle cx="960" cy="336" r="2" fill="white" fill-opacity="0.3" style="mix-blend-mode:overlay"/>
<circle cx="960" cy="360" r="2" fill="white" fill-opacity="0.3" style="mix-blend-mode:overlay"/>
<circle cx="960" cy="384" r="2" fill="white" fill-opacity="0.3" style="mix-blend-mode:overlay"/>
<circle cx="960" cy="408" r="2" fill="white" fill-opacity="0.3" style="mix-blend-mode:overlay"/>
<circle cx="960" cy="432" r="2" fill="white" fill-opacity="0.3" style="mix-blend-mode:overlay"/>
<circle cx="960" cy="456" r="2" fill="white" fill-opacity="0.3" style="mix-blend-mode:overlay"/>
<circle cx="984" cy="216" r="2" fill="white" fill-opacity="0.3" style="mix-blend-mode:overlay"/>
<circle cx="984" cy="240" r="2" fill="white" fill-opacity="0.3" style="mix-blend-mode:overlay"/>
<circle cx="984" cy="264" r="2" fill="white" fill-opacity="0.3" style="mix-blend-mode:overlay"/>
<circle cx="984" cy="288" r="2" fill="white" fill-opacity="0.3" style="mix-blend-mode:overlay"/>
<circle cx="984" cy="312" r="2" fill="white" fill-opacity="0.3" style="mix-blend-mode:overlay"/>
<circle cx="984" cy="336" r="2" fill="white" fill-opacity="0.3" style="mix-blend-mode:overlay"/>
<circle cx="984" cy="360" r="2" fill="white" fill-opacity="0.3" style="mix-blend-mode:overlay"/>
<circle cx="984" cy="384" r="2" fill="white" fill-opacity="0.3" style="mix-blend-mode:overlay"/>
<circle cx="984" cy="408" r="2" fill="white" fill-opacity="0.3" style="mix-blend-mode:overlay"/>
<circle cx="984" cy="432" r="2" fill="white" fill-opacity="0.3" style="mix-blend-mode:overlay"/>
<circle cx="984" cy="456" r="2" fill="white" fill-opacity="0.3" style="mix-blend-mode:overlay"/>
</g>
</svg>
