<svg width="800" height="800" viewBox="0 0 800 800" fill="none" xmlns="http://www.w3.org/2000/svg">
<mask id="mask0_49_18609" style="mask-type:alpha" maskUnits="userSpaceOnUse" x="200" y="200" width="400" height="400">
<circle cx="400" cy="400" r="200" fill="#D9D9D9"/>
</mask>
<g mask="url(#mask0_49_18609)">
<circle cx="212" cy="200" r="2" fill="white" fill-opacity="0.7" style="mix-blend-mode:overlay"/>
<circle cx="212" cy="224" r="2" fill="white" fill-opacity="0.3" style="mix-blend-mode:overlay"/>
<circle cx="212" cy="248" r="2" fill="white" fill-opacity="0.3" style="mix-blend-mode:overlay"/>
<circle cx="212" cy="272" r="2" fill="white" fill-opacity="0.7" style="mix-blend-mode:overlay"/>
<circle cx="212" cy="296" r="2" fill="white" fill-opacity="0.7" style="mix-blend-mode:overlay"/>
<circle cx="212" cy="320" r="2" fill="white" fill-opacity="0.3" style="mix-blend-mode:overlay"/>
<circle cx="212" cy="344" r="2" fill="white" fill-opacity="0.3" style="mix-blend-mode:overlay"/>
<circle cx="212" cy="368" r="2" fill="white" fill-opacity="0.7" style="mix-blend-mode:overlay"/>
<circle cx="212" cy="392" r="2" fill="white" fill-opacity="0.7" style="mix-blend-mode:overlay"/>
<circle cx="212" cy="416" r="2" fill="white" fill-opacity="0.3" style="mix-blend-mode:overlay"/>
<circle cx="212" cy="440" r="2" fill="white" fill-opacity="0.7" style="mix-blend-mode:overlay"/>
<circle cx="212" cy="464" r="2" fill="white" fill-opacity="0.7" style="mix-blend-mode:overlay"/>
<circle cx="212" cy="488" r="2" fill="white" fill-opacity="0.3" style="mix-blend-mode:overlay"/>
<circle cx="212" cy="512" r="2" fill="white" fill-opacity="0.3" style="mix-blend-mode:overlay"/>
<circle cx="212" cy="536" r="2" fill="white" fill-opacity="0.3" style="mix-blend-mode:overlay"/>
<circle cx="212" cy="560" r="2" fill="white" fill-opacity="0.7" style="mix-blend-mode:overlay"/>
<circle cx="212" cy="584" r="2" fill="white" fill-opacity="0.3" style="mix-blend-mode:overlay"/>
<circle cx="236" cy="200" r="2" fill="white" fill-opacity="0.7" style="mix-blend-mode:overlay"/>
<circle cx="236" cy="224" r="2" fill="white" fill-opacity="0.3" style="mix-blend-mode:overlay"/>
<circle cx="236" cy="248" r="2" fill="white" fill-opacity="0.3" style="mix-blend-mode:overlay"/>
<circle cx="236" cy="272" r="2" fill="white" fill-opacity="0.3" style="mix-blend-mode:overlay"/>
<circle cx="236" cy="296" r="2" fill="white" fill-opacity="0.3" style="mix-blend-mode:overlay"/>
<circle cx="236" cy="320" r="2" fill="white" fill-opacity="0.7" style="mix-blend-mode:overlay"/>
<circle cx="236" cy="344" r="2" fill="white" fill-opacity="0.3" style="mix-blend-mode:overlay"/>
<circle cx="236" cy="368" r="2" fill="white" fill-opacity="0.3" style="mix-blend-mode:overlay"/>
<circle cx="236" cy="392" r="2" fill="white" fill-opacity="0.3" style="mix-blend-mode:overlay"/>
<circle cx="236" cy="416" r="2" fill="white" fill-opacity="0.3" style="mix-blend-mode:overlay"/>
<circle cx="236" cy="440" r="2" fill="white" fill-opacity="0.3" style="mix-blend-mode:overlay"/>
<circle cx="236" cy="464" r="2" fill="white" fill-opacity="0.7" style="mix-blend-mode:overlay"/>
<circle cx="236" cy="488" r="2" fill="white" fill-opacity="0.3" style="mix-blend-mode:overlay"/>
<circle cx="236" cy="512" r="2" fill="white" fill-opacity="0.3" style="mix-blend-mode:overlay"/>
<circle cx="236" cy="536" r="2" fill="white" fill-opacity="0.3" style="mix-blend-mode:overlay"/>
<circle cx="236" cy="560" r="2" fill="white" fill-opacity="0.3" style="mix-blend-mode:overlay"/>
<circle cx="236" cy="584" r="2" fill="white" fill-opacity="0.3" style="mix-blend-mode:overlay"/>
<circle cx="260" cy="200" r="2" fill="white" fill-opacity="0.3" style="mix-blend-mode:overlay"/>
<circle cx="260" cy="224" r="2" fill="white" fill-opacity="0.3" style="mix-blend-mode:overlay"/>
<circle cx="260" cy="248" r="2" fill="white" fill-opacity="0.7" style="mix-blend-mode:overlay"/>
<circle cx="260" cy="272" r="2" fill="white" fill-opacity="0.7" style="mix-blend-mode:overlay"/>
<circle cx="260" cy="296" r="2" fill="white" fill-opacity="0.3" style="mix-blend-mode:overlay"/>
<circle cx="260" cy="320" r="2" fill="white" fill-opacity="0.3" style="mix-blend-mode:overlay"/>
<circle cx="260" cy="344" r="2" fill="white" fill-opacity="0.3" style="mix-blend-mode:overlay"/>
<circle cx="260" cy="368" r="2" fill="white" fill-opacity="0.3" style="mix-blend-mode:overlay"/>
<circle cx="260" cy="392" r="2" fill="white" fill-opacity="0.3" style="mix-blend-mode:overlay"/>
<circle cx="260" cy="416" r="2" fill="white" fill-opacity="0.3" style="mix-blend-mode:overlay"/>
<circle cx="260" cy="440" r="2" fill="white" fill-opacity="0.3" style="mix-blend-mode:overlay"/>
<circle cx="260" cy="464" r="2" fill="white" fill-opacity="0.7" style="mix-blend-mode:overlay"/>
<circle cx="260" cy="488" r="2" fill="white" fill-opacity="0.3" style="mix-blend-mode:overlay"/>
<circle cx="260" cy="512" r="2" fill="white" fill-opacity="0.3" style="mix-blend-mode:overlay"/>
<circle cx="260" cy="536" r="2" fill="white" fill-opacity="0.7" style="mix-blend-mode:overlay"/>
<circle cx="260" cy="560" r="2" fill="white" fill-opacity="0.7" style="mix-blend-mode:overlay"/>
<circle cx="260" cy="584" r="2" fill="white" fill-opacity="0.3" style="mix-blend-mode:overlay"/>
<circle cx="284" cy="200" r="2" fill="white" fill-opacity="0.3" style="mix-blend-mode:overlay"/>
<circle cx="284" cy="224" r="2" fill="white" fill-opacity="0.3" style="mix-blend-mode:overlay"/>
<circle cx="284" cy="248" r="2" fill="white" fill-opacity="0.7" style="mix-blend-mode:overlay"/>
<circle cx="284" cy="272" r="2" fill="white" fill-opacity="0.7" style="mix-blend-mode:overlay"/>
<circle cx="284" cy="296" r="2" fill="white" fill-opacity="0.3" style="mix-blend-mode:overlay"/>
<circle cx="284" cy="320" r="2" fill="white" fill-opacity="0.3" style="mix-blend-mode:overlay"/>
<circle cx="284" cy="344" r="2" fill="white" fill-opacity="0.3" style="mix-blend-mode:overlay"/>
<circle cx="284" cy="368" r="2" fill="white" fill-opacity="0.3" style="mix-blend-mode:overlay"/>
<circle cx="284" cy="392" r="2" fill="white" fill-opacity="0.3" style="mix-blend-mode:overlay"/>
<circle cx="284" cy="416" r="2" fill="white" fill-opacity="0.7" style="mix-blend-mode:overlay"/>
<circle cx="284" cy="440" r="2" fill="white" fill-opacity="0.3" style="mix-blend-mode:overlay"/>
<circle cx="284" cy="464" r="2" fill="white" fill-opacity="0.7" style="mix-blend-mode:overlay"/>
<circle cx="284" cy="488" r="2" fill="white" fill-opacity="0.7" style="mix-blend-mode:overlay"/>
<circle cx="284" cy="512" r="2" fill="white" fill-opacity="0.3" style="mix-blend-mode:overlay"/>
<circle cx="284" cy="536" r="2" fill="white" fill-opacity="0.3" style="mix-blend-mode:overlay"/>
<circle cx="284" cy="560" r="2" fill="white" fill-opacity="0.3" style="mix-blend-mode:overlay"/>
<circle cx="284" cy="584" r="2" fill="white" fill-opacity="0.7" style="mix-blend-mode:overlay"/>
<circle cx="308" cy="200" r="2" fill="white" fill-opacity="0.7" style="mix-blend-mode:overlay"/>
<circle cx="308" cy="224" r="2" fill="white" fill-opacity="0.3" style="mix-blend-mode:overlay"/>
<circle cx="308" cy="248" r="2" fill="white" fill-opacity="0.7" style="mix-blend-mode:overlay"/>
<circle cx="308" cy="272" r="2" fill="white" fill-opacity="0.3" style="mix-blend-mode:overlay"/>
<circle cx="308" cy="296" r="2" fill="white" fill-opacity="0.3" style="mix-blend-mode:overlay"/>
<circle cx="308" cy="320" r="2" fill="white" fill-opacity="0.3" style="mix-blend-mode:overlay"/>
<circle cx="308" cy="344" r="2" fill="white" fill-opacity="0.3" style="mix-blend-mode:overlay"/>
<circle cx="308" cy="368" r="2" fill="white" fill-opacity="0.3" style="mix-blend-mode:overlay"/>
<circle cx="308" cy="392" r="2" fill="white" fill-opacity="0.3" style="mix-blend-mode:overlay"/>
<circle cx="308" cy="416" r="2" fill="white" fill-opacity="0.3" style="mix-blend-mode:overlay"/>
<circle cx="308" cy="440" r="2" fill="white" fill-opacity="0.7" style="mix-blend-mode:overlay"/>
<circle cx="308" cy="464" r="2" fill="white" fill-opacity="0.3" style="mix-blend-mode:overlay"/>
<circle cx="308" cy="488" r="2" fill="white" fill-opacity="0.7" style="mix-blend-mode:overlay"/>
<circle cx="308" cy="512" r="2" fill="white" fill-opacity="0.3" style="mix-blend-mode:overlay"/>
<circle cx="308" cy="536" r="2" fill="white" fill-opacity="0.3" style="mix-blend-mode:overlay"/>
<circle cx="308" cy="560" r="2" fill="white" fill-opacity="0.3" style="mix-blend-mode:overlay"/>
<circle cx="308" cy="584" r="2" fill="white" fill-opacity="0.3" style="mix-blend-mode:overlay"/>
<circle cx="332" cy="200" r="2" fill="white" fill-opacity="0.3" style="mix-blend-mode:overlay"/>
<circle cx="332" cy="224" r="2" fill="white" fill-opacity="0.7" style="mix-blend-mode:overlay"/>
<circle cx="332" cy="248" r="2" fill="white" fill-opacity="0.7" style="mix-blend-mode:overlay"/>
<circle cx="332" cy="272" r="2" fill="white" fill-opacity="0.7" style="mix-blend-mode:overlay"/>
<circle cx="332" cy="296" r="2" fill="white" fill-opacity="0.7" style="mix-blend-mode:overlay"/>
<circle cx="332" cy="320" r="2" fill="white" fill-opacity="0.7" style="mix-blend-mode:overlay"/>
<circle cx="332" cy="344" r="2" fill="white" fill-opacity="0.3" style="mix-blend-mode:overlay"/>
<circle cx="332" cy="368" r="2" fill="white" fill-opacity="0.3" style="mix-blend-mode:overlay"/>
<circle cx="332" cy="392" r="2" fill="white" fill-opacity="0.3" style="mix-blend-mode:overlay"/>
<circle cx="332" cy="416" r="2" fill="white" fill-opacity="0.7" style="mix-blend-mode:overlay"/>
<circle cx="332" cy="440" r="2" fill="white" fill-opacity="0.7" style="mix-blend-mode:overlay"/>
<circle cx="332" cy="464" r="2" fill="white" fill-opacity="0.3" style="mix-blend-mode:overlay"/>
<circle cx="332" cy="488" r="2" fill="white" fill-opacity="0.3" style="mix-blend-mode:overlay"/>
<circle cx="332" cy="512" r="2" fill="white" fill-opacity="0.3" style="mix-blend-mode:overlay"/>
<circle cx="332" cy="536" r="2" fill="white" fill-opacity="0.7" style="mix-blend-mode:overlay"/>
<circle cx="332" cy="560" r="2" fill="white" fill-opacity="0.3" style="mix-blend-mode:overlay"/>
<circle cx="332" cy="584" r="2" fill="white" fill-opacity="0.3" style="mix-blend-mode:overlay"/>
<circle cx="356" cy="200" r="2" fill="white" fill-opacity="0.7" style="mix-blend-mode:overlay"/>
<circle cx="356" cy="224" r="2" fill="white" fill-opacity="0.3" style="mix-blend-mode:overlay"/>
<circle cx="356" cy="248" r="2" fill="white" fill-opacity="0.7" style="mix-blend-mode:overlay"/>
<circle cx="356" cy="272" r="2" fill="white" fill-opacity="0.3" style="mix-blend-mode:overlay"/>
<circle cx="356" cy="296" r="2" fill="white" fill-opacity="0.3" style="mix-blend-mode:overlay"/>
<circle cx="356" cy="320" r="2" fill="white" fill-opacity="0.3" style="mix-blend-mode:overlay"/>
<circle cx="356" cy="344" r="2" fill="white" fill-opacity="0.3" style="mix-blend-mode:overlay"/>
<circle cx="356" cy="368" r="2" fill="white" fill-opacity="0.7" style="mix-blend-mode:overlay"/>
<circle cx="356" cy="392" r="2" fill="white" fill-opacity="0.3" style="mix-blend-mode:overlay"/>
<circle cx="356" cy="416" r="2" fill="white" fill-opacity="0.3" style="mix-blend-mode:overlay"/>
<circle cx="356" cy="440" r="2" fill="white" fill-opacity="0.3" style="mix-blend-mode:overlay"/>
<circle cx="356" cy="464" r="2" fill="white" fill-opacity="0.3" style="mix-blend-mode:overlay"/>
<circle cx="356" cy="488" r="2" fill="white" fill-opacity="0.3" style="mix-blend-mode:overlay"/>
<circle cx="356" cy="512" r="2" fill="white" fill-opacity="0.7" style="mix-blend-mode:overlay"/>
<circle cx="356" cy="536" r="2" fill="white" fill-opacity="0.3" style="mix-blend-mode:overlay"/>
<circle cx="356" cy="560" r="2" fill="white" fill-opacity="0.3" style="mix-blend-mode:overlay"/>
<circle cx="356" cy="584" r="2" fill="white" fill-opacity="0.7" style="mix-blend-mode:overlay"/>
<circle cx="380" cy="200" r="2" fill="white" fill-opacity="0.3" style="mix-blend-mode:overlay"/>
<circle cx="380" cy="224" r="2" fill="white" fill-opacity="0.3" style="mix-blend-mode:overlay"/>
<circle cx="380" cy="248" r="2" fill="white" fill-opacity="0.3" style="mix-blend-mode:overlay"/>
<circle cx="380" cy="272" r="2" fill="white" fill-opacity="0.7" style="mix-blend-mode:overlay"/>
<circle cx="380" cy="296" r="2" fill="white" fill-opacity="0.7" style="mix-blend-mode:overlay"/>
<circle cx="380" cy="320" r="2" fill="white" fill-opacity="0.3" style="mix-blend-mode:overlay"/>
<circle cx="380" cy="344" r="2" fill="white" fill-opacity="0.3" style="mix-blend-mode:overlay"/>
<circle cx="380" cy="368" r="2" fill="white" fill-opacity="0.3" style="mix-blend-mode:overlay"/>
<circle cx="380" cy="392" r="2" fill="white" fill-opacity="0.3" style="mix-blend-mode:overlay"/>
<circle cx="380" cy="416" r="2" fill="white" fill-opacity="0.3" style="mix-blend-mode:overlay"/>
<circle cx="380" cy="440" r="2" fill="white" fill-opacity="0.3" style="mix-blend-mode:overlay"/>
<circle cx="380" cy="464" r="2" fill="white" fill-opacity="0.3" style="mix-blend-mode:overlay"/>
<circle cx="380" cy="488" r="2" fill="white" fill-opacity="0.3" style="mix-blend-mode:overlay"/>
<circle cx="380" cy="512" r="2" fill="white" fill-opacity="0.3" style="mix-blend-mode:overlay"/>
<circle cx="380" cy="536" r="2" fill="white" fill-opacity="0.7" style="mix-blend-mode:overlay"/>
<circle cx="380" cy="560" r="2" fill="white" fill-opacity="0.7" style="mix-blend-mode:overlay"/>
<circle cx="380" cy="584" r="2" fill="white" fill-opacity="0.3" style="mix-blend-mode:overlay"/>
<circle cx="404" cy="200" r="2" fill="white" fill-opacity="0.7" style="mix-blend-mode:overlay"/>
<circle cx="404" cy="224" r="2" fill="white" fill-opacity="0.3" style="mix-blend-mode:overlay"/>
<circle cx="404" cy="248" r="2" fill="white" fill-opacity="0.3" style="mix-blend-mode:overlay"/>
<circle cx="404" cy="272" r="2" fill="white" fill-opacity="0.7" style="mix-blend-mode:overlay"/>
<circle cx="404" cy="296" r="2" fill="white" fill-opacity="0.7" style="mix-blend-mode:overlay"/>
<circle cx="404" cy="320" r="2" fill="white" fill-opacity="0.7" style="mix-blend-mode:overlay"/>
<circle cx="404" cy="344" r="2" fill="white" fill-opacity="0.3" style="mix-blend-mode:overlay"/>
<circle cx="404" cy="368" r="2" fill="white" fill-opacity="0.3" style="mix-blend-mode:overlay"/>
<circle cx="404" cy="392" r="2" fill="white" fill-opacity="0.7" style="mix-blend-mode:overlay"/>
<circle cx="404" cy="416" r="2" fill="white" fill-opacity="0.7" style="mix-blend-mode:overlay"/>
<circle cx="404" cy="440" r="2" fill="white" fill-opacity="0.3" style="mix-blend-mode:overlay"/>
<circle cx="404" cy="464" r="2" fill="white" fill-opacity="0.3" style="mix-blend-mode:overlay"/>
<circle cx="404" cy="488" r="2" fill="white" fill-opacity="0.3" style="mix-blend-mode:overlay"/>
<circle cx="404" cy="512" r="2" fill="white" fill-opacity="0.7" style="mix-blend-mode:overlay"/>
<circle cx="404" cy="536" r="2" fill="white" fill-opacity="0.3" style="mix-blend-mode:overlay"/>
<circle cx="404" cy="560" r="2" fill="white" fill-opacity="0.7" style="mix-blend-mode:overlay"/>
<circle cx="404" cy="584" r="2" fill="white" fill-opacity="0.3" style="mix-blend-mode:overlay"/>
<circle cx="428" cy="200" r="2" fill="white" fill-opacity="0.3" style="mix-blend-mode:overlay"/>
<circle cx="428" cy="224" r="2" fill="white" fill-opacity="0.3" style="mix-blend-mode:overlay"/>
<circle cx="428" cy="248" r="2" fill="white" fill-opacity="0.3" style="mix-blend-mode:overlay"/>
<circle cx="428" cy="272" r="2" fill="white" fill-opacity="0.7" style="mix-blend-mode:overlay"/>
<circle cx="428" cy="296" r="2" fill="white" fill-opacity="0.7" style="mix-blend-mode:overlay"/>
<circle cx="428" cy="320" r="2" fill="white" fill-opacity="0.3" style="mix-blend-mode:overlay"/>
<circle cx="428" cy="344" r="2" fill="white" fill-opacity="0.3" style="mix-blend-mode:overlay"/>
<circle cx="428" cy="368" r="2" fill="white" fill-opacity="0.7" style="mix-blend-mode:overlay"/>
<circle cx="428" cy="392" r="2" fill="white" fill-opacity="0.7" style="mix-blend-mode:overlay"/>
<circle cx="428" cy="416" r="2" fill="white" fill-opacity="0.3" style="mix-blend-mode:overlay"/>
<circle cx="428" cy="440" r="2" fill="white" fill-opacity="0.3" style="mix-blend-mode:overlay"/>
<circle cx="428" cy="464" r="2" fill="white" fill-opacity="0.3" style="mix-blend-mode:overlay"/>
<circle cx="428" cy="488" r="2" fill="white" fill-opacity="0.3" style="mix-blend-mode:overlay"/>
<circle cx="428" cy="512" r="2" fill="white" fill-opacity="0.3" style="mix-blend-mode:overlay"/>
<circle cx="428" cy="536" r="2" fill="white" fill-opacity="0.3" style="mix-blend-mode:overlay"/>
<circle cx="428" cy="560" r="2" fill="white" fill-opacity="0.3" style="mix-blend-mode:overlay"/>
<circle cx="428" cy="584" r="2" fill="white" fill-opacity="0.3" style="mix-blend-mode:overlay"/>
<circle cx="452" cy="200" r="2" fill="white" fill-opacity="0.7" style="mix-blend-mode:overlay"/>
<circle cx="452" cy="224" r="2" fill="white" fill-opacity="0.3" style="mix-blend-mode:overlay"/>
<circle cx="452" cy="248" r="2" fill="white" fill-opacity="0.3" style="mix-blend-mode:overlay"/>
<circle cx="452" cy="272" r="2" fill="white" fill-opacity="0.3" style="mix-blend-mode:overlay"/>
<circle cx="452" cy="296" r="2" fill="white" fill-opacity="0.3" style="mix-blend-mode:overlay"/>
<circle cx="452" cy="320" r="2" fill="white" fill-opacity="0.3" style="mix-blend-mode:overlay"/>
<circle cx="452" cy="344" r="2" fill="white" fill-opacity="0.7" style="mix-blend-mode:overlay"/>
<circle cx="452" cy="368" r="2" fill="white" fill-opacity="0.3" style="mix-blend-mode:overlay"/>
<circle cx="452" cy="392" r="2" fill="white" fill-opacity="0.7" style="mix-blend-mode:overlay"/>
<circle cx="452" cy="416" r="2" fill="white" fill-opacity="0.3" style="mix-blend-mode:overlay"/>
<circle cx="452" cy="440" r="2" fill="white" fill-opacity="0.7" style="mix-blend-mode:overlay"/>
<circle cx="452" cy="464" r="2" fill="white" fill-opacity="0.7" style="mix-blend-mode:overlay"/>
<circle cx="452" cy="488" r="2" fill="white" fill-opacity="0.3" style="mix-blend-mode:overlay"/>
<circle cx="452" cy="512" r="2" fill="white" fill-opacity="0.3" style="mix-blend-mode:overlay"/>
<circle cx="452" cy="536" r="2" fill="white" fill-opacity="0.3" style="mix-blend-mode:overlay"/>
<circle cx="452" cy="560" r="2" fill="white" fill-opacity="0.3" style="mix-blend-mode:overlay"/>
<circle cx="452" cy="584" r="2" fill="white" fill-opacity="0.3" style="mix-blend-mode:overlay"/>
<circle cx="476" cy="200" r="2" fill="white" fill-opacity="0.3" style="mix-blend-mode:overlay"/>
<circle cx="476" cy="224" r="2" fill="white" fill-opacity="0.3" style="mix-blend-mode:overlay"/>
<circle cx="476" cy="248" r="2" fill="white" fill-opacity="0.7" style="mix-blend-mode:overlay"/>
<circle cx="476" cy="272" r="2" fill="white" fill-opacity="0.3" style="mix-blend-mode:overlay"/>
<circle cx="476" cy="296" r="2" fill="white" fill-opacity="0.7" style="mix-blend-mode:overlay"/>
<circle cx="476" cy="320" r="2" fill="white" fill-opacity="0.3" style="mix-blend-mode:overlay"/>
<circle cx="476" cy="344" r="2" fill="white" fill-opacity="0.3" style="mix-blend-mode:overlay"/>
<circle cx="476" cy="368" r="2" fill="white" fill-opacity="0.3" style="mix-blend-mode:overlay"/>
<circle cx="476" cy="392" r="2" fill="white" fill-opacity="0.7" style="mix-blend-mode:overlay"/>
<circle cx="476" cy="416" r="2" fill="white" fill-opacity="0.3" style="mix-blend-mode:overlay"/>
<circle cx="476" cy="440" r="2" fill="white" fill-opacity="0.3" style="mix-blend-mode:overlay"/>
<circle cx="476" cy="464" r="2" fill="white" fill-opacity="0.3" style="mix-blend-mode:overlay"/>
<circle cx="476" cy="488" r="2" fill="white" fill-opacity="0.3" style="mix-blend-mode:overlay"/>
<circle cx="476" cy="512" r="2" fill="white" fill-opacity="0.7" style="mix-blend-mode:overlay"/>
<circle cx="476" cy="536" r="2" fill="white" fill-opacity="0.7" style="mix-blend-mode:overlay"/>
<circle cx="476" cy="560" r="2" fill="white" fill-opacity="0.3" style="mix-blend-mode:overlay"/>
<circle cx="476" cy="584" r="2" fill="white" fill-opacity="0.3" style="mix-blend-mode:overlay"/>
<circle cx="500" cy="200" r="2" fill="white" fill-opacity="0.3" style="mix-blend-mode:overlay"/>
<circle cx="500" cy="224" r="2" fill="white" fill-opacity="0.3" style="mix-blend-mode:overlay"/>
<circle cx="500" cy="248" r="2" fill="white" fill-opacity="0.3" style="mix-blend-mode:overlay"/>
<circle cx="500" cy="272" r="2" fill="white" fill-opacity="0.7" style="mix-blend-mode:overlay"/>
<circle cx="500" cy="296" r="2" fill="white" fill-opacity="0.7" style="mix-blend-mode:overlay"/>
<circle cx="500" cy="320" r="2" fill="white" fill-opacity="0.3" style="mix-blend-mode:overlay"/>
<circle cx="500" cy="344" r="2" fill="white" fill-opacity="0.3" style="mix-blend-mode:overlay"/>
<circle cx="500" cy="368" r="2" fill="white" fill-opacity="0.7" style="mix-blend-mode:overlay"/>
<circle cx="500" cy="392" r="2" fill="white" fill-opacity="0.3" style="mix-blend-mode:overlay"/>
<circle cx="500" cy="416" r="2" fill="white" fill-opacity="0.3" style="mix-blend-mode:overlay"/>
<circle cx="500" cy="440" r="2" fill="white" fill-opacity="0.3" style="mix-blend-mode:overlay"/>
<circle cx="500" cy="464" r="2" fill="white" fill-opacity="0.7" style="mix-blend-mode:overlay"/>
<circle cx="500" cy="488" r="2" fill="white" fill-opacity="0.3" style="mix-blend-mode:overlay"/>
<circle cx="500" cy="512" r="2" fill="white" fill-opacity="0.3" style="mix-blend-mode:overlay"/>
<circle cx="500" cy="536" r="2" fill="white" fill-opacity="0.7" style="mix-blend-mode:overlay"/>
<circle cx="500" cy="560" r="2" fill="white" fill-opacity="0.3" style="mix-blend-mode:overlay"/>
<circle cx="500" cy="584" r="2" fill="white" fill-opacity="0.3" style="mix-blend-mode:overlay"/>
<circle cx="524" cy="200" r="2" fill="white" fill-opacity="0.3" style="mix-blend-mode:overlay"/>
<circle cx="524" cy="224" r="2" fill="white" fill-opacity="0.3" style="mix-blend-mode:overlay"/>
<circle cx="524" cy="248" r="2" fill="white" fill-opacity="0.3" style="mix-blend-mode:overlay"/>
<circle cx="524" cy="272" r="2" fill="white" fill-opacity="0.3" style="mix-blend-mode:overlay"/>
<circle cx="524" cy="296" r="2" fill="white" fill-opacity="0.7" style="mix-blend-mode:overlay"/>
<circle cx="524" cy="320" r="2" fill="white" fill-opacity="0.3" style="mix-blend-mode:overlay"/>
<circle cx="524" cy="344" r="2" fill="white" fill-opacity="0.3" style="mix-blend-mode:overlay"/>
<circle cx="524" cy="368" r="2" fill="white" fill-opacity="0.3" style="mix-blend-mode:overlay"/>
<circle cx="524" cy="392" r="2" fill="white" fill-opacity="0.3" style="mix-blend-mode:overlay"/>
<circle cx="524" cy="416" r="2" fill="white" fill-opacity="0.3" style="mix-blend-mode:overlay"/>
<circle cx="524" cy="440" r="2" fill="white" fill-opacity="0.3" style="mix-blend-mode:overlay"/>
<circle cx="524" cy="464" r="2" fill="white" fill-opacity="0.7" style="mix-blend-mode:overlay"/>
<circle cx="524" cy="488" r="2" fill="white" fill-opacity="0.3" style="mix-blend-mode:overlay"/>
<circle cx="524" cy="512" r="2" fill="white" fill-opacity="0.3" style="mix-blend-mode:overlay"/>
<circle cx="524" cy="536" r="2" fill="white" fill-opacity="0.7" style="mix-blend-mode:overlay"/>
<circle cx="524" cy="560" r="2" fill="white" fill-opacity="0.3" style="mix-blend-mode:overlay"/>
<circle cx="524" cy="584" r="2" fill="white" fill-opacity="0.3" style="mix-blend-mode:overlay"/>
<circle cx="548" cy="200" r="2" fill="white" fill-opacity="0.3" style="mix-blend-mode:overlay"/>
<circle cx="548" cy="224" r="2" fill="white" fill-opacity="0.3" style="mix-blend-mode:overlay"/>
<circle cx="548" cy="248" r="2" fill="white" fill-opacity="0.3" style="mix-blend-mode:overlay"/>
<circle cx="548" cy="272" r="2" fill="white" fill-opacity="0.7" style="mix-blend-mode:overlay"/>
<circle cx="548" cy="296" r="2" fill="white" fill-opacity="0.7" style="mix-blend-mode:overlay"/>
<circle cx="548" cy="320" r="2" fill="white" fill-opacity="0.3" style="mix-blend-mode:overlay"/>
<circle cx="548" cy="344" r="2" fill="white" fill-opacity="0.3" style="mix-blend-mode:overlay"/>
<circle cx="548" cy="368" r="2" fill="white" fill-opacity="0.3" style="mix-blend-mode:overlay"/>
<circle cx="548" cy="392" r="2" fill="white" fill-opacity="0.3" style="mix-blend-mode:overlay"/>
<circle cx="548" cy="416" r="2" fill="white" fill-opacity="0.7" style="mix-blend-mode:overlay"/>
<circle cx="548" cy="440" r="2" fill="white" fill-opacity="0.3" style="mix-blend-mode:overlay"/>
<circle cx="548" cy="464" r="2" fill="white" fill-opacity="0.7" style="mix-blend-mode:overlay"/>
<circle cx="548" cy="488" r="2" fill="white" fill-opacity="0.3" style="mix-blend-mode:overlay"/>
<circle cx="548" cy="512" r="2" fill="white" fill-opacity="0.7" style="mix-blend-mode:overlay"/>
<circle cx="548" cy="536" r="2" fill="white" fill-opacity="0.7" style="mix-blend-mode:overlay"/>
<circle cx="548" cy="560" r="2" fill="white" fill-opacity="0.3" style="mix-blend-mode:overlay"/>
<circle cx="548" cy="584" r="2" fill="white" fill-opacity="0.7" style="mix-blend-mode:overlay"/>
<circle cx="572" cy="200" r="2" fill="white" fill-opacity="0.3" style="mix-blend-mode:overlay"/>
<circle cx="572" cy="224" r="2" fill="white" fill-opacity="0.3" style="mix-blend-mode:overlay"/>
<circle cx="572" cy="248" r="2" fill="white" fill-opacity="0.7" style="mix-blend-mode:overlay"/>
<circle cx="572" cy="272" r="2" fill="white" fill-opacity="0.3" style="mix-blend-mode:overlay"/>
<circle cx="572" cy="296" r="2" fill="white" fill-opacity="0.7" style="mix-blend-mode:overlay"/>
<circle cx="572" cy="320" r="2" fill="white" fill-opacity="0.7" style="mix-blend-mode:overlay"/>
<circle cx="572" cy="344" r="2" fill="white" fill-opacity="0.7" style="mix-blend-mode:overlay"/>
<circle cx="572" cy="368" r="2" fill="white" fill-opacity="0.3" style="mix-blend-mode:overlay"/>
<circle cx="572" cy="392" r="2" fill="white" fill-opacity="0.3" style="mix-blend-mode:overlay"/>
<circle cx="572" cy="416" r="2" fill="white" fill-opacity="0.3" style="mix-blend-mode:overlay"/>
<circle cx="572" cy="440" r="2" fill="white" fill-opacity="0.7" style="mix-blend-mode:overlay"/>
<circle cx="572" cy="464" r="2" fill="white" fill-opacity="0.3" style="mix-blend-mode:overlay"/>
<circle cx="572" cy="488" r="2" fill="white" fill-opacity="0.7" style="mix-blend-mode:overlay"/>
<circle cx="572" cy="512" r="2" fill="white" fill-opacity="0.3" style="mix-blend-mode:overlay"/>
<circle cx="572" cy="536" r="2" fill="white" fill-opacity="0.3" style="mix-blend-mode:overlay"/>
<circle cx="572" cy="560" r="2" fill="white" fill-opacity="0.3" style="mix-blend-mode:overlay"/>
<circle cx="572" cy="584" r="2" fill="white" fill-opacity="0.3" style="mix-blend-mode:overlay"/>
<circle cx="596" cy="200" r="2" fill="white" fill-opacity="0.3" style="mix-blend-mode:overlay"/>
<circle cx="596" cy="224" r="2" fill="white" fill-opacity="0.3" style="mix-blend-mode:overlay"/>
<circle cx="596" cy="248" r="2" fill="white" fill-opacity="0.3" style="mix-blend-mode:overlay"/>
<circle cx="596" cy="272" r="2" fill="white" fill-opacity="0.3" style="mix-blend-mode:overlay"/>
<circle cx="596" cy="296" r="2" fill="white" fill-opacity="0.7" style="mix-blend-mode:overlay"/>
<circle cx="596" cy="320" r="2" fill="white" fill-opacity="0.7" style="mix-blend-mode:overlay"/>
<circle cx="596" cy="344" r="2" fill="white" fill-opacity="0.3" style="mix-blend-mode:overlay"/>
<circle cx="596" cy="368" r="2" fill="white" fill-opacity="0.3" style="mix-blend-mode:overlay"/>
<circle cx="596" cy="392" r="2" fill="white" fill-opacity="0.3" style="mix-blend-mode:overlay"/>
<circle cx="596" cy="416" r="2" fill="white" fill-opacity="0.3" style="mix-blend-mode:overlay"/>
<circle cx="596" cy="440" r="2" fill="white" fill-opacity="0.3" style="mix-blend-mode:overlay"/>
<circle cx="596" cy="464" r="2" fill="white" fill-opacity="0.7" style="mix-blend-mode:overlay"/>
<circle cx="596" cy="488" r="2" fill="white" fill-opacity="0.3" style="mix-blend-mode:overlay"/>
<circle cx="596" cy="512" r="2" fill="white" fill-opacity="0.7" style="mix-blend-mode:overlay"/>
<circle cx="596" cy="536" r="2" fill="white" fill-opacity="0.7" style="mix-blend-mode:overlay"/>
<circle cx="596" cy="560" r="2" fill="white" fill-opacity="0.3" style="mix-blend-mode:overlay"/>
<circle cx="596" cy="584" r="2" fill="white" fill-opacity="0.7" style="mix-blend-mode:overlay"/>
</g>
</svg>
