<svg width="16" height="10" viewBox="0 0 16 10" fill="none" xmlns="http://www.w3.org/2000/svg">
<path d="M10.0104 6.94073C10.559 6.40672 10.8333 5.7582 10.8333 4.99516C10.8333 4.23226 10.5574 3.58535 10.0054 3.05444C9.45361 2.52352 8.78347 2.25806 7.995 2.25806C7.20667 2.25806 6.53819 2.52513 5.98958 3.05927C5.44097 3.59328 5.16667 4.2418 5.16667 5.00484C5.16667 5.76774 5.44264 6.41465 5.99458 6.94556C6.54639 7.47648 7.21653 7.74194 8.005 7.74194C8.79333 7.74194 9.46181 7.47487 10.0104 6.94073ZM6.40625 6.54234C5.96875 6.11895 5.75 5.60484 5.75 5C5.75 4.39516 5.96875 3.88105 6.40625 3.45766C6.84375 3.03427 7.375 2.82258 8 2.82258C8.625 2.82258 9.15625 3.03427 9.59375 3.45766C10.0312 3.88105 10.25 4.39516 10.25 5C10.25 5.60484 10.0312 6.11895 9.59375 6.54234C9.15625 6.96573 8.625 7.17742 8 7.17742C7.375 7.17742 6.84375 6.96573 6.40625 6.54234ZM3.25 8.63911C1.81944 7.73185 0.736111 6.51882 0 5C0.736111 3.48118 1.81847 2.26815 3.24708 1.36089C4.67556 0.453629 6.25889 0 7.99708 0C9.73514 0 11.3194 0.453629 12.75 1.36089C14.1806 2.26815 15.2639 3.48118 16 5C15.2639 6.51882 14.1815 7.73185 12.7529 8.63911C11.3244 9.54637 9.74111 10 8.00292 10C6.26486 10 4.68056 9.54637 3.25 8.63911ZM12.3229 8.23589C13.6354 7.43616 14.6389 6.35753 15.3333 5C14.6389 3.64247 13.6354 2.56384 12.3229 1.76411C11.0104 0.964382 9.56944 0.564516 8 0.564516C6.43056 0.564516 4.98958 0.964382 3.67708 1.76411C2.36458 2.56384 1.36111 3.64247 0.666667 5C1.36111 6.35753 2.36458 7.43616 3.67708 8.23589C4.98958 9.03562 6.43056 9.43548 8 9.43548C9.56944 9.43548 11.0104 9.03562 12.3229 8.23589Z" fill="#5E8272"/>
</svg>
