<svg width="20" height="21" viewBox="0 0 20 21" fill="none" xmlns="http://www.w3.org/2000/svg">
<path d="M7.11431 21C6.20879 21 5.43618 20.6751 4.79648 20.0252C4.15678 19.3753 3.82627 18.5767 3.80496 17.6294C2.80309 17.4422 1.97176 16.9453 1.31095 16.1388C0.650147 15.3323 0.319744 14.3897 0.319744 13.3111C0.319744 12.9276 0.365041 12.5467 0.455635 12.1684C0.54623 11.7904 0.692779 11.4353 0.895284 11.1031C0.596856 10.7286 0.373035 10.3078 0.223821 9.84075C0.074607 9.37372 0 8.88025 0 8.36035C0 7.22493 0.367706 6.24437 1.10312 5.41869C1.83853 4.59301 2.7498 4.11959 3.83693 3.99843C3.81561 3.92132 3.80496 3.83596 3.80496 3.74233V3.43666C3.7943 2.47836 4.11138 1.66601 4.7562 0.999607C5.40101 0.333202 6.18705 0 7.11431 0C7.76445 0 8.30077 0.135154 8.72326 0.405461C9.14596 0.675768 9.56888 1.07484 9.99201 1.60267C10.4503 1.07396 10.8766 0.674666 11.271 0.404799C11.6653 0.134933 12.1982 0 12.8697 0C13.7774 0 14.5532 0.33871 15.1971 1.01613C15.8411 1.69355 16.1631 2.5059 16.1631 3.45319C16.1631 3.56334 16.1604 3.66247 16.1551 3.75059C16.1497 3.83871 16.1418 3.92683 16.1311 4.01495C17.2076 4.1251 18.1215 4.58894 18.8729 5.40647C19.6243 6.22378 20 7.2084 20 8.36035C20 8.88025 19.9174 9.37372 19.7522 9.84075C19.587 10.3078 19.3605 10.7313 19.0727 11.1113C19.2646 11.4363 19.4138 11.7872 19.5204 12.1641C19.627 12.5411 19.6803 12.9226 19.6803 13.3088C19.6803 14.4048 19.3472 15.3576 18.6811 16.1672C18.0149 16.9768 17.1756 17.4642 16.1631 17.6294C16.1311 18.5767 15.8006 19.3753 15.1715 20.0252C14.5423 20.6751 13.775 21 12.8697 21C12.1876 21 11.652 20.8678 11.263 20.6035C10.874 20.3391 10.4503 19.926 9.99201 19.3643C9.53371 19.915 9.10738 20.3253 8.71303 20.5952C8.31868 20.8651 7.78577 21 7.11431 21ZM10.4077 3.40362V17.6129C10.4077 18.3172 10.649 18.9174 11.1316 19.4135C11.6142 19.9094 12.1981 20.1574 12.8835 20.1574C13.5457 20.1574 14.1114 19.9288 14.5803 19.4717C15.0493 19.0146 15.3051 18.428 15.3477 17.712C14.6624 17.701 14.0253 17.533 13.4363 17.2081C12.8475 16.8832 12.3602 16.4343 11.9744 15.8615C11.8998 15.7734 11.8723 15.6734 11.8919 15.5615C11.9115 15.4493 11.971 15.3621 12.0703 15.2998C12.1556 15.2227 12.2564 15.1942 12.3728 15.2145C12.4894 15.2348 12.5804 15.2907 12.6459 15.3824C12.9584 15.8631 13.3616 16.2283 13.8555 16.4781C14.3494 16.728 14.8734 16.8529 15.4277 16.8529C16.3982 16.8529 17.2137 16.5144 17.8743 15.8374C18.5347 15.1602 18.8649 14.3201 18.8649 13.3171C18.8649 13.049 18.8303 12.781 18.761 12.5131C18.6917 12.245 18.6038 11.9843 18.4972 11.7309C18.1348 12.0504 17.7154 12.2982 17.239 12.4744C16.7626 12.6507 16.2654 12.7388 15.7474 12.7388C15.6312 12.7388 15.5356 12.6998 15.4606 12.6218C15.3853 12.544 15.3477 12.4449 15.3477 12.3244C15.3477 12.2041 15.3853 12.1027 15.4606 12.0201C15.5356 11.9375 15.6312 11.8961 15.7474 11.8961C16.7179 11.8961 17.5335 11.5577 18.1941 10.8807C18.8545 10.2035 19.1847 9.36337 19.1847 8.36035C19.1847 7.40337 18.8596 6.58308 18.2094 5.8995C17.5593 5.21591 16.7759 4.85208 15.8593 4.80802C15.6585 5.22659 15.3943 5.59284 15.0667 5.90677C14.739 6.22069 14.3638 6.46027 13.9408 6.62549C13.8449 6.66955 13.7475 6.66867 13.6486 6.62285C13.5495 6.5768 13.487 6.50058 13.4612 6.39418C13.4186 6.29504 13.4159 6.1904 13.4532 6.08025C13.4905 5.9701 13.5678 5.893 13.6851 5.84894C14.186 5.6727 14.5883 5.36153 14.8921 4.91542C15.1958 4.46932 15.3477 3.958 15.3477 3.38148C15.3477 2.69128 15.105 2.09559 14.6197 1.59441C14.1343 1.09323 13.5508 0.842644 12.8691 0.842644C12.1874 0.842644 11.6067 1.09345 11.1271 1.59508C10.6475 2.09648 10.4077 2.69932 10.4077 3.40362ZM9.59233 17.6129V3.40362C9.59233 2.69932 9.34964 2.09648 8.86427 1.59508C8.3789 1.09345 7.79536 0.842644 7.11367 0.842644C6.43197 0.842644 5.85132 1.09389 5.3717 1.5964C4.89209 2.0989 4.65228 2.70296 4.65228 3.40858C4.65228 3.96703 4.80149 4.46932 5.09992 4.91542C5.39835 5.36153 5.79803 5.6727 6.29896 5.84894C6.39488 5.893 6.47216 5.96856 6.53078 6.07562C6.5894 6.18269 6.60453 6.28028 6.57618 6.3684C6.52758 6.47084 6.45063 6.54475 6.34532 6.59013C6.23981 6.63574 6.12843 6.63651 6.01119 6.59245C5.58828 6.42722 5.213 6.19315 4.88537 5.89024C4.55774 5.58733 4.29885 5.22659 4.10871 4.80802C3.19211 4.8631 2.41407 5.22935 1.77458 5.90677C1.13509 6.58419 0.815348 7.40557 0.815348 8.37092C0.815348 9.36689 1.14287 10.2035 1.79792 10.8807C2.45318 11.5577 3.26608 11.8961 4.23661 11.8961C4.35278 11.8961 4.45116 11.9379 4.53173 12.0214C4.6121 12.1047 4.65228 12.2065 4.65228 12.327C4.65228 12.4473 4.6121 12.546 4.53173 12.6231C4.45116 12.7002 4.35278 12.7388 4.23661 12.7388C3.7182 12.7388 3.22355 12.6507 2.75268 12.4744C2.2818 12.2982 1.86517 12.0504 1.5028 11.7309C1.38556 11.9953 1.29496 12.2596 1.23102 12.524C1.16707 12.7884 1.13509 13.0527 1.13509 13.3171C1.13509 14.3201 1.46262 15.1602 2.11767 15.8374C2.77293 16.5144 3.58582 16.8529 4.55635 16.8529C5.11697 16.8529 5.64082 16.7261 6.1279 16.4725C6.61519 16.219 7.0186 15.8556 7.33813 15.3824C7.40357 15.2907 7.49459 15.2348 7.61119 15.2145C7.72758 15.1942 7.83373 15.2172 7.92966 15.2832C8.01492 15.3493 8.06821 15.4402 8.08953 15.5559C8.11084 15.6715 8.0842 15.7734 8.00959 15.8615C7.60245 16.4306 7.1044 16.8761 6.51543 17.1982C5.92667 17.5203 5.29496 17.6915 4.6203 17.712C4.65228 18.417 4.90807 19.0008 5.38769 19.4634C5.86731 19.926 6.43826 20.1574 7.10056 20.1574C7.78588 20.1574 8.3725 19.9094 8.86043 19.4135C9.34836 18.9174 9.59233 18.3172 9.59233 17.6129Z" fill="#00FF8A"/>
</svg>
