<svg width="20" height="20" viewBox="0 0 20 20" fill="none" xmlns="http://www.w3.org/2000/svg">
<path d="M7.66607 12.3339V7.66607H12.3339V12.3339H7.66607ZM8.58169 11.4183H11.4183V8.58169H8.58169V11.4183ZM6.69659 20V18.0431H4.02154C3.43651 18.0431 2.94614 17.8452 2.55045 17.4496C2.15476 17.0539 1.95691 16.5635 1.95691 15.9785V13.3034H0V12.3878H1.95691V7.61221H0V6.69659H1.95691V4.02154C1.95691 3.43651 2.15476 2.94614 2.55045 2.55045C2.94614 2.15476 3.43651 1.95691 4.02154 1.95691H6.69659V0H7.61221V1.95691H12.3878V0H13.3034V1.95691H15.9785C16.5635 1.95691 17.0539 2.15476 17.4496 2.55045C17.8452 2.94614 18.0431 3.43651 18.0431 4.02154V6.69659H20V7.61221H18.0431V12.3878H20V13.3034H18.0431V15.9785C18.0431 16.5635 17.8452 17.0539 17.4496 17.4496C17.0539 17.8452 16.5635 18.0431 15.9785 18.0431H13.3034V20H12.3878V18.0431H7.61221V20H6.69659ZM15.9785 17.1275C16.2657 17.1275 16.529 17.0078 16.7684 16.7684C17.0078 16.529 17.1275 16.2657 17.1275 15.9785V4.02154C17.1275 3.73429 17.0078 3.47098 16.7684 3.2316C16.529 2.99222 16.2657 2.87253 15.9785 2.87253H4.02154C3.73429 2.87253 3.47098 2.99222 3.2316 3.2316C2.99222 3.47098 2.87253 3.73429 2.87253 4.02154V15.9785C2.87253 16.2657 2.99222 16.529 3.2316 16.7684C3.47098 17.0078 3.73429 17.1275 4.02154 17.1275H15.9785Z" fill="#00FF8A"/>
</svg>
