<svg width="20" height="20" viewBox="0 0 20 20" fill="none" xmlns="http://www.w3.org/2000/svg">
<path d="M3.44286 16.516C4.44208 15.826 5.46647 15.2818 6.51604 14.8834C7.5656 14.4849 8.72692 14.2857 10 14.2857C11.2731 14.2857 12.4344 14.4849 13.484 14.8834C14.5335 15.2818 15.5637 15.826 16.5743 16.516C17.381 15.7094 18.0296 14.7556 18.5204 13.6545C19.0112 12.5534 19.2566 11.3362 19.2566 10.0029C19.2566 7.43537 18.3552 5.25024 16.5525 3.44752C14.7498 1.6448 12.5656 0.74344 10 0.74344C7.4344 0.74344 5.25024 1.6448 3.44752 3.44752C1.6448 5.25024 0.74344 7.43537 0.74344 10.0029C0.74344 11.3362 0.988824 12.5534 1.47959 13.6545C1.97036 14.7556 2.62478 15.7094 3.44286 16.516ZM10.0041 10.379C9.06842 10.379 8.28474 10.0645 7.65306 9.43557C7.02138 8.80661 6.70554 8.0243 6.70554 7.08863C6.70554 6.15296 7.02002 5.36929 7.64898 4.73761C8.27794 4.10593 9.06025 3.79009 9.99592 3.79009C10.9316 3.79009 11.7153 4.10457 12.3469 4.73353C12.9786 5.36249 13.2945 6.1448 13.2945 7.08047C13.2945 8.01613 12.98 8.79981 12.351 9.43149C11.7221 10.0632 10.9397 10.379 10.0041 10.379ZM10 20C8.61205 20 7.3067 19.7399 6.08396 19.2198C4.86142 18.6995 3.80175 17.9901 2.90496 17.0915C2.00816 16.1928 1.29981 15.1328 0.779883 13.9114C0.259961 12.6902 0 11.384 0 9.99271C0 8.5999 0.260058 7.29456 0.780175 6.07668C1.30049 4.85899 2.00991 3.80175 2.90845 2.90496C3.80719 2.00816 4.86725 1.29981 6.08863 0.779883C7.30981 0.259961 8.61603 0 10.0073 0C11.4001 0 12.7054 0.260059 13.9233 0.780175C15.141 1.30049 16.1982 2.00991 17.095 2.90846C17.9918 3.80719 18.7002 4.86433 19.2201 6.07988C19.74 7.29563 20 8.60233 20 10C20 11.3879 19.7399 12.6933 19.2198 13.916C18.6995 15.1386 17.9901 16.1982 17.0915 17.095C16.1928 17.9918 15.1357 18.7002 13.9201 19.2201C12.7044 19.74 11.3977 20 10 20ZM9.99913 19.2566C11.0784 19.2566 12.1501 19.0598 13.2143 18.6662C14.2784 18.2726 15.1992 17.7357 15.9767 17.0554C15.1992 16.4431 14.3079 15.9524 13.3026 15.5831C12.2974 15.2138 11.1974 15.0292 10.0026 15.0292C8.80787 15.0292 7.69728 15.2041 6.67085 15.5539C5.64441 15.9038 4.7619 16.4043 4.02332 17.0554C4.80078 17.7357 5.72128 18.2726 6.78484 18.6662C7.8484 19.0598 8.91982 19.2566 9.99913 19.2566ZM10 9.63557C10.7094 9.63557 11.312 9.38776 11.8076 8.89213C12.3032 8.3965 12.551 7.79397 12.551 7.08455C12.551 6.37512 12.3032 5.77259 11.8076 5.27697C11.312 4.78134 10.7094 4.53353 10 4.53353C9.29057 4.53353 8.68805 4.78134 8.19242 5.27697C7.69679 5.77259 7.44898 6.37512 7.44898 7.08455C7.44898 7.79397 7.69679 8.3965 8.19242 8.89213C8.68805 9.38776 9.29057 9.63557 10 9.63557Z" fill="#00FF8A"/>
</svg>
