<svg width="20" height="15" viewBox="0 0 20 15" fill="none" xmlns="http://www.w3.org/2000/svg">
<path d="M16.6572 7.92695V7.20114H20V7.92695H16.6572ZM17.8378 15L15.1636 13.0076L15.633 12.4383L18.3073 14.4307L17.8378 15ZM15.5192 2.56167L15.0498 1.99241L17.724 0L18.1935 0.56926L15.5192 2.56167ZM2.85917 13.8757V9.64896H1.67994C1.21432 9.64896 0.817923 9.4871 0.490754 9.16338C0.163585 8.83966 0 8.44649 0 7.98387V7.14421C0 6.67932 0.163585 6.28321 0.490754 5.95588C0.817923 5.62856 1.21385 5.4649 1.67852 5.4649H5.67568L9.72973 3.074V12.0398L5.67568 9.64896H3.58464V13.8757H2.85917ZM9.00427 10.7448V4.3833L5.88905 6.1907H1.63585C1.40825 6.1907 1.19962 6.28558 1.00996 6.47533C0.820294 6.66509 0.725462 6.87381 0.725462 7.10152V8.01233C0.725462 8.24004 0.820294 8.44877 1.00996 8.63852C1.19962 8.82827 1.40825 8.92315 1.63585 8.92315H5.88905L9.00427 10.7448ZM12.2191 10.6309V4.48292C12.551 4.79602 12.8165 5.22182 13.0156 5.76034C13.2148 6.29867 13.3144 6.89753 13.3144 7.55693C13.3144 8.21632 13.2148 8.81518 13.0156 9.35351C12.8165 9.89203 12.551 10.3178 12.2191 10.6309Z" fill="#00FF8A"/>
</svg>
