<svg width="424" height="340" viewBox="0 0 424 340" fill="none" xmlns="http://www.w3.org/2000/svg">
<style>
	.pulse{ fill:#00FF8A; filter:drop-shadow(0 0 3px #00FF8A); }
	.hub-pulse{ fill:none; stroke:#00FF8A; }
	@media (prefers-reduced-motion: reduce){
		.pulse, .hub-pulse{ display:none; }
	}
</style>
<path d="M408.663 170C408.663 148.185 390.978 130.5 369.163 130.5C347.348 130.5 329.663 148.185 329.663 170C329.663 191.815 347.348 209.5 369.163 209.5C390.978 209.5 408.663 191.815 408.663 170Z" fill="url(#paint0_linear_191_23317)"/>
<path d="M408.663 170C408.663 148.185 390.978 130.5 369.163 130.5C347.348 130.5 329.663 148.185 329.663 170C329.663 191.815 347.348 209.5 369.163 209.5C390.978 209.5 408.663 191.815 408.663 170Z" stroke="url(#paint1_linear_191_23317)" stroke-opacity="0.6"/>
<path d="M389.163 157H350.163L370.494 192L385.455 166.124C381.121 168.095 376.344 168.929 376.344 168.929L370.465 178.995L360.8 162.4C369.059 164.934 380.374 165.113 389.163 157Z" fill="#00FF8A"/>
<path d="M129.163 105C129.163 82.9086 111.254 65 89.1631 65C67.0717 65 49.1631 82.9086 49.1631 105C49.1631 127.091 67.0717 145 89.1631 145C111.254 145 129.163 127.091 129.163 105Z" fill="url(#paint2_linear_191_23317)"/>
<path d="M128.663 105C128.663 83.1848 110.978 65.5 89.1631 65.5C67.3478 65.5 49.6631 83.1848 49.6631 105C49.6631 126.815 67.3478 144.5 89.1631 144.5C110.978 144.5 128.663 126.815 128.663 105Z" stroke="url(#paint3_linear_191_23317)"/>
<path d="M98.4973 104.473C98.7534 104.44 99.0095 104.44 99.2656 104.473C99.4061 104.16 99.4308 103.609 99.3069 103.026C99.1252 102.146 98.8691 101.612 98.3569 101.694C97.8447 101.776 97.8199 102.417 98.01 103.297C98.1008 103.782 98.2908 104.21 98.4973 104.473ZM94.0612 105.172C94.433 105.336 94.656 105.443 94.7469 105.344C94.9038 105.188 94.4577 104.571 93.7473 104.267C92.9047 103.922 91.9464 104.037 91.2112 104.571C90.9633 104.752 90.732 104.999 90.7651 105.155C90.8394 105.459 91.5912 104.933 92.6403 104.867C93.2103 104.826 93.6895 105.007 94.0612 105.172ZM93.3177 105.591C92.566 105.706 92.0786 106.125 92.2025 106.421C92.2768 106.446 92.3016 106.487 92.6321 106.356C93.1277 106.166 93.6564 106.117 94.1851 106.191C94.4247 106.216 94.5403 106.232 94.5982 106.15C94.7056 105.977 94.119 105.5 93.3177 105.591ZM97.7952 107.005C98.076 106.438 96.8947 105.854 96.6138 106.43C96.333 106.997 97.5226 107.572 97.7952 107.005ZM99.0921 105.32C98.456 105.311 98.4313 106.619 99.0674 106.635C99.7117 106.635 99.7365 105.328 99.0921 105.32ZM80.9841 111.815C80.8767 111.84 80.4884 111.938 80.2819 111.618C79.8523 110.96 81.1989 109.94 80.5297 108.666C79.778 107.227 78.2249 107.548 77.6301 108.205C76.9114 108.995 76.9114 110.146 77.2171 110.187C77.5723 110.236 77.5558 109.653 77.8284 109.225C78.1506 108.732 78.8032 108.592 79.2989 108.913C79.2989 108.913 79.3071 108.913 79.3071 108.921C80.2654 109.546 79.4228 110.384 79.4971 111.28C79.6128 112.654 81.0254 112.629 81.2815 112.02C81.3145 111.963 81.3063 111.881 81.265 111.831C81.265 111.922 81.3145 111.741 80.9841 111.815ZM105.8 110.409C105.519 109.439 105.585 109.653 105.238 108.715C105.445 108.411 106.502 106.734 104.982 105.155C104.123 104.259 102.173 103.79 101.579 103.626C101.455 102.689 101.967 98.7915 99.7943 96.7854C101.513 95.0095 102.586 93.0526 102.586 91.3753C102.578 88.1524 98.5965 87.174 93.6895 89.1966L92.6486 89.6324C92.6403 89.6242 90.7651 87.7989 90.7403 87.7742C85.1559 82.9233 67.6592 102.269 73.2518 106.972L74.4745 108C74.144 108.88 74.0284 109.825 74.1358 110.762C74.4166 113.517 77.118 115.745 79.7284 115.737C84.5115 126.705 101.909 126.721 106.411 115.983C106.552 115.613 107.163 113.953 107.163 112.489C107.163 111.026 106.329 110.409 105.8 110.409ZM79.6293 114.38C77.7375 114.331 75.6971 112.637 75.4988 110.631C74.9866 105.583 81.645 104.432 82.4546 109.611C82.8346 112.053 82.0663 114.429 79.6293 114.38ZM78.101 104.966C76.8454 105.213 75.7384 105.92 75.061 106.898C74.6562 106.561 73.9045 105.912 73.7723 105.665C72.6984 103.618 74.9536 99.6466 76.5314 97.4103C80.4306 91.8687 86.5355 87.6756 89.369 88.432C89.8316 88.5635 91.3516 90.3147 91.3516 90.3147C91.3516 90.3147 88.5264 91.877 85.9076 94.0558C82.3637 96.769 79.6954 100.699 78.101 104.966ZM97.8778 113.303C97.8778 113.303 94.9204 113.739 92.1199 112.719C92.6321 111.058 94.3586 113.221 100.1 111.585C101.364 111.223 103.024 110.516 104.321 109.496C104.602 110.138 104.8 110.812 104.908 111.494C105.213 111.437 106.089 111.453 105.858 112.982C105.585 114.619 104.883 115.95 103.71 117.176C102.975 117.965 102.099 118.623 101.133 119.099C100.596 119.379 100.026 119.617 99.4474 119.807C95.0195 121.245 90.4842 119.667 89.0138 116.263C88.8981 116 88.799 115.737 88.7164 115.457C88.0968 113.213 88.6255 110.524 90.2777 108.83C90.3768 108.723 90.4842 108.592 90.4842 108.436C90.4677 108.296 90.4181 108.164 90.3273 108.057C89.749 107.219 87.7416 105.796 88.1464 103.042C88.4355 101.061 90.1703 99.6713 91.7977 99.7535L92.2108 99.7782C92.9129 99.8193 93.5242 99.9097 94.1025 99.9344C95.069 99.9755 95.9447 99.8357 96.9691 98.9807C97.316 98.6929 97.5969 98.438 98.0678 98.364C98.456 98.2653 98.8608 98.3393 99.1913 98.5449C100.017 99.0958 100.133 100.419 100.174 101.39C100.199 101.94 100.265 103.289 100.29 103.667C100.339 104.547 100.571 104.67 101.042 104.818C101.306 104.909 101.554 104.966 101.909 105.073C103 105.377 103.644 105.69 104.065 106.084C104.28 106.29 104.412 106.561 104.462 106.849C104.594 107.786 103.735 108.945 101.455 109.99C97.5886 111.774 93.6977 111.182 93.136 111.116C91.4673 110.894 90.5173 113.04 91.5168 114.503C93.3921 117.258 101.653 116.148 104.049 112.744C104.106 112.662 104.057 112.612 103.991 112.662C100.529 115.013 95.953 115.811 93.3508 114.808C92.9542 114.651 92.1281 114.273 92.029 113.435C95.6391 114.545 97.9108 113.492 97.9108 113.492C97.9108 113.492 98.0926 113.278 97.8778 113.303ZM85.3046 97.3856C86.6924 95.7906 88.3942 94.401 89.9307 93.6281C89.9555 93.6117 89.9968 93.62 90.0133 93.6529C90.0216 93.6693 90.0216 93.6939 90.0133 93.7103C89.8894 93.9323 89.6581 94.4011 89.5838 94.7546C89.5755 94.7875 89.6003 94.8204 89.6333 94.8286C89.6499 94.8368 89.6664 94.8285 89.6829 94.8203C90.6329 94.179 92.2934 93.4802 93.739 93.398C93.7721 93.398 93.8051 93.4226 93.8051 93.4555C93.8051 93.4801 93.7969 93.4967 93.7803 93.5131C93.5408 93.694 93.326 93.9077 93.1442 94.1543C93.1277 94.179 93.1277 94.2202 93.1608 94.2366C93.169 94.2449 93.1855 94.2448 93.1938 94.2448C94.2099 94.253 95.6473 94.6066 96.5891 95.1328C96.6552 95.1657 96.6056 95.289 96.5395 95.2726C90.7816 93.9571 86.3455 96.8019 85.4037 97.4843C85.3707 97.5007 85.3376 97.4924 85.3128 97.4677C85.2881 97.4348 85.2881 97.4021 85.3046 97.3856Z" fill="#83B59F"/>
<path d="M269.163 170C269.163 147.909 251.254 130 229.163 130C207.072 130 189.163 147.909 189.163 170C189.163 192.091 207.072 210 229.163 210C251.254 210 269.163 192.091 269.163 170Z" fill="url(#paint4_linear_191_23317)"/>
<path d="M268.663 170C268.663 148.185 250.978 130.5 229.163 130.5C207.348 130.5 189.663 148.185 189.663 170C189.663 191.815 207.348 209.5 229.163 209.5C250.978 209.5 268.663 191.815 268.663 170Z" stroke="url(#paint5_linear_191_23317)"/>
<path d="M214.149 182C213.263 182.002 212.392 181.769 211.626 181.325C210.86 180.881 210.225 180.241 209.787 179.472C209.356 178.708 209.141 177.842 209.165 176.965C209.189 176.089 209.451 175.235 209.924 174.496L218.907 160.409C219.367 159.651 220.02 159.03 220.799 158.607C221.578 158.184 222.455 157.976 223.341 158.002C224.227 158.023 225.091 158.279 225.845 158.743C226.599 159.208 227.216 159.864 227.633 160.644C228.47 162.226 228.366 164.128 227.363 165.613L218.386 179.7C217.93 180.409 217.303 180.991 216.563 181.393C215.822 181.795 214.992 182.004 214.149 182Z" fill="#83B59F"/>
<path d="M229.624 182C227.812 182 226.145 181.033 225.269 179.478C224.839 178.716 224.625 177.852 224.649 176.977C224.673 176.103 224.935 175.252 225.407 174.515L234.373 160.459C234.826 159.691 235.476 159.059 236.257 158.627C237.037 158.194 237.919 157.979 238.811 158.002C240.638 158.042 242.294 159.062 243.132 160.659C243.963 162.255 243.841 164.169 242.808 165.65L233.844 179.706C233.39 180.411 232.765 180.991 232.028 181.392C231.29 181.793 230.464 182.002 229.624 182Z" fill="#83B59F"/>
<path d="M244.486 182C247.069 182 249.163 179.967 249.163 177.459C249.163 174.952 247.069 172.919 244.486 172.919C241.902 172.919 239.808 174.952 239.808 177.459C239.808 179.967 241.902 182 244.486 182Z" fill="#83B59F"/>
<path d="M269.163 300C269.163 277.909 251.254 260 229.163 260C207.072 260 189.163 277.909 189.163 300C189.163 322.091 207.072 340 229.163 340C251.254 340 269.163 322.091 269.163 300Z" fill="url(#paint6_linear_191_23317)"/>
<path d="M268.663 300C268.663 278.185 250.978 260.5 229.163 260.5C207.348 260.5 189.663 278.185 189.663 300C189.663 321.815 207.348 339.5 229.163 339.5C250.978 339.5 268.663 321.815 268.663 300Z" stroke="url(#paint7_linear_191_23317)"/>
<path d="M230.952 302.641C228.658 304.164 226.328 305.627 224.091 307.211C219.721 310.3 213.133 309.276 210.461 305.013C207.523 300.329 209.563 293.375 216.665 292.194C220.855 291.502 224.686 293.29 226.507 296.698C226.787 297.216 226.972 297.782 227.239 298.396C228.683 297.481 230.084 296.572 231.503 295.693C233.158 294.669 234.732 293.459 236.517 292.712C241.067 290.81 246.477 292.875 248.399 297.053C250.958 302.623 246.781 308.903 240.478 308.987C237.248 309.035 234.509 308.048 232.545 305.501C231.912 304.676 231.522 303.682 230.945 302.629L230.952 302.641ZM222.392 300.539C222.398 298.185 220.588 296.289 218.345 296.289C216.064 296.289 214.217 298.155 214.199 300.473C214.18 302.846 215.996 304.736 218.308 304.76C220.563 304.784 222.386 302.9 222.392 300.546V300.539ZM244.115 300.503C244.109 298.173 242.257 296.265 240.013 296.289C237.72 296.307 235.929 298.155 235.922 300.503C235.922 302.9 237.72 304.754 240.05 304.754C242.3 304.754 244.122 302.846 244.115 300.503Z" fill="#83B59F"/>
<path d="M269.163 40C269.163 17.9086 251.254 0 229.163 0C207.072 0 189.163 17.9086 189.163 40C189.163 62.0914 207.072 80 229.163 80C251.254 80 269.163 62.0914 269.163 40Z" fill="url(#paint8_linear_191_23317)"/>
<path d="M268.663 40C268.663 18.1848 250.978 0.5 229.163 0.5C207.348 0.5 189.663 18.1848 189.663 40C189.663 61.8152 207.348 79.5 229.163 79.5C250.978 79.5 268.663 61.8152 268.663 40Z" stroke="url(#paint9_linear_191_23317)"/>
<path d="M223.198 26.407C223.568 25.4351 224.078 24.5404 224.833 23.8153C227.857 20.8688 232.855 21.6092 234.907 25.3117C236.45 28.1194 238.085 30.8654 239.674 33.6422C242.327 38.2549 245.012 42.8675 247.634 47.4956C249.84 51.3677 247.449 56.258 243.068 56.9214C240.384 57.3225 237.869 56.0883 236.481 53.6817C234.151 49.6245 231.806 45.5672 229.477 41.5254C229.431 41.4328 229.369 41.3557 229.307 41.2785C229.06 41.078 228.952 40.7849 228.798 40.5226C227.765 38.7022 226.7 36.8973 225.666 35.0923C225.003 33.9199 224.309 32.7629 223.646 31.5904C223.044 30.5414 222.766 29.3998 222.797 28.1965C222.843 27.5794 222.921 26.9624 223.198 26.407Z" fill="#83B59F"/>
<path d="M223.198 26.4072C223.059 26.9626 222.936 27.518 222.905 28.1042C222.858 29.4 223.182 30.6033 223.83 31.7295C225.527 34.6452 227.224 37.5763 228.906 40.5074C229.06 40.7696 229.183 41.0319 229.338 41.2787C228.412 42.8831 227.486 44.4721 226.545 46.0765C225.25 48.3134 223.954 50.5657 222.642 52.8026C222.581 52.8026 222.565 52.7718 222.55 52.7255C222.535 52.6021 222.581 52.4941 222.612 52.3707C223.244 50.0566 222.72 48.0049 221.131 46.2462C220.159 45.1817 218.925 44.5801 217.505 44.3795C215.654 44.1173 214.019 44.5955 212.553 45.7525C212.291 45.9531 212.122 46.2462 211.813 46.4005C211.751 46.4005 211.72 46.3696 211.705 46.3233C212.445 45.0429 213.171 43.7625 213.911 42.482C216.965 37.1752 220.02 31.8683 223.09 26.5769C223.121 26.5152 223.167 26.4689 223.198 26.4072Z" fill="#5E8272"/>
<path d="M211.767 46.3695C212.06 46.1072 212.338 45.8295 212.646 45.5827C216.395 42.6207 222.026 44.7651 222.843 49.4549C223.044 50.581 222.936 51.6609 222.597 52.7408C222.581 52.8333 222.566 52.9105 222.535 53.003C222.396 53.2499 222.273 53.5121 222.118 53.759C220.745 56.0267 218.724 57.1529 216.071 56.9832C213.032 56.7672 210.641 54.484 210.224 51.4604C210.024 49.9948 210.317 48.6218 211.073 47.3568C211.227 47.0791 211.412 46.8323 211.582 46.5546C211.659 46.4929 211.628 46.3695 211.767 46.3695Z" fill="#83B59F"/>
<path d="M211.766 46.3691C211.705 46.4302 211.705 46.537 211.598 46.5522C211.583 46.4454 211.644 46.3844 211.705 46.3081L211.766 46.3691Z" fill="#FABC04"/>
<path d="M222.535 53.0006C222.474 52.8937 222.535 52.8175 222.596 52.7412C222.611 52.7564 222.642 52.7869 222.657 52.8022L222.535 53.0006Z" fill="#E1C025"/>
<path d="M129.163 235C129.163 212.909 111.254 195 89.1631 195C67.0717 195 49.1631 212.909 49.1631 235C49.1631 257.091 67.0717 275 89.1631 275C111.254 275 129.163 257.091 129.163 235Z" fill="url(#paint10_linear_191_23317)"/>
<path d="M128.663 235C128.663 213.185 110.978 195.5 89.1631 195.5C67.3478 195.5 49.6631 213.185 49.6631 235C49.6631 256.815 67.3478 274.5 89.1631 274.5C110.978 274.5 128.663 256.815 128.663 235Z" stroke="url(#paint11_linear_191_23317)"/>
<mask id="mask0_191_23317" style="mask-type:alpha" maskUnits="userSpaceOnUse" x="72" y="218" width="36" height="35">
<path d="M89.6734 221.152C94.3519 221.152 94.9059 221.172 96.7459 221.255C98.4558 221.33 99.3792 221.617 99.9948 221.856C100.809 222.171 101.397 222.554 102.006 223.162C102.621 223.777 102.998 224.359 103.312 225.172C103.552 225.788 103.839 226.718 103.914 228.42C103.996 230.266 104.017 230.82 104.017 235.49C104.017 240.166 103.996 240.72 103.914 242.559C103.839 244.269 103.552 245.192 103.312 245.807C102.998 246.621 102.614 247.209 102.006 247.817C101.39 248.433 100.809 248.809 99.9948 249.123C99.3792 249.363 98.449 249.65 96.7459 249.725C94.8991 249.807 94.345 249.828 89.6734 249.828C84.9948 249.828 84.4408 249.807 82.6009 249.725C80.8909 249.65 79.9675 249.363 79.3519 249.123C78.5379 248.809 77.9497 248.426 77.3409 247.817C76.7253 247.202 76.3491 246.621 76.0345 245.807C75.7951 245.192 75.5078 244.262 75.4326 242.559C75.3505 240.713 75.33 240.16 75.33 235.49C75.33 230.813 75.3505 230.259 75.4326 228.42C75.5078 226.711 75.7951 225.788 76.0345 225.172C76.3491 224.359 76.7322 223.771 77.3409 223.162C77.9565 222.547 78.5379 222.171 79.3519 221.856C79.9675 221.617 80.8977 221.33 82.6009 221.255C84.4408 221.172 84.9948 221.152 89.6734 221.152ZM89.6734 218C84.9196 218 84.3245 218.021 82.4572 218.103C80.5968 218.185 79.3177 218.485 78.2096 218.916C77.0537 219.367 76.0755 219.962 75.1043 220.94C74.1262 221.911 73.5311 222.889 73.0797 224.037C72.6487 225.152 72.3478 226.424 72.2657 228.283C72.1836 230.157 72.1631 230.752 72.1631 235.503C72.1631 240.255 72.1836 240.85 72.2657 242.717C72.3478 244.576 72.6487 245.855 73.0797 246.963C73.5311 248.118 74.1262 249.096 75.1043 250.067C76.0755 251.038 77.0537 251.639 78.2028 252.084C79.3177 252.515 80.5899 252.815 82.4504 252.897C84.3177 252.979 84.9128 253 89.6665 253C94.4203 253 95.0154 252.979 96.8827 252.897C98.7431 252.815 100.022 252.515 101.13 252.084C102.279 251.639 103.257 251.038 104.229 250.067C105.2 249.096 105.802 248.118 106.246 246.97C106.677 245.855 106.978 244.583 107.06 242.724C107.143 240.857 107.163 240.262 107.163 235.51C107.163 230.758 107.143 230.164 107.06 228.297C106.978 226.437 106.677 225.159 106.246 224.051C105.816 222.889 105.221 221.911 104.242 220.94C103.271 219.969 102.293 219.367 101.144 218.923C100.029 218.492 98.7568 218.191 96.8963 218.109C95.0222 218.021 94.4271 218 89.6734 218Z" fill="#000100"/>
<path d="M89.6733 226.513C84.7075 226.513 80.6787 230.54 80.6787 235.504C80.6787 240.468 84.7075 244.495 89.6733 244.495C94.6391 244.495 98.6678 240.468 98.6678 235.504C98.6678 230.54 94.6391 226.513 89.6733 226.513ZM89.6733 241.336C86.4516 241.336 83.8388 238.724 83.8388 235.504C83.8388 232.283 86.4516 229.672 89.6733 229.672C92.8949 229.672 95.5077 232.283 95.5077 235.504C95.5077 238.724 92.8949 241.336 89.6733 241.336Z" fill="#000100"/>
<path d="M101.125 226.158C101.125 227.32 100.182 228.257 99.0257 228.257C97.8629 228.257 96.9258 227.313 96.9258 226.158C96.9258 224.996 97.8697 224.059 99.0257 224.059C100.182 224.059 101.125 225.002 101.125 226.158Z" fill="#000100"/>
</mask>
<g mask="url(#mask0_191_23317)">
<path d="M110.661 214.5H68.6611V256.5H110.661V214.5Z" fill="#83B59F"/>
<path d="M110.661 214.5H68.6611V256.5H110.661V214.5Z" fill="#83B59F"/>
</g>
<path d="M329.163 169H269.163V170H329.163V169Z" fill="white" fill-opacity="0.3"/>
<path d="M329.163 169H269.163V170H329.163V169Z" fill="#2C3933"/>
<path d="M49.1631 104H9.16309V105H49.1631V104Z" fill="#2C3933"/>
<path d="M49.1631 235H9.16309V236H49.1631V235Z" fill="#2C3933"/>
<path d="M369.171 99.9814L369.154 100H369.163V130H368.163V100.431L299.796 41H269.163V40H300.162L300.165 39.9961L369.171 99.9814Z" fill="white" fill-opacity="0.3"/>
<path d="M369.171 99.9814L369.154 100H369.163V130H368.163V100.431L299.796 41H269.163V40H300.162L300.165 39.9961L369.171 99.9814Z" fill="#2C3933"/>
<path d="M369.171 240.014L369.154 239.995H369.163V209.995H368.163V239.564L299.796 298.995H269.163V299.995H300.162L300.165 299.999L369.171 240.014Z" fill="white" fill-opacity="0.3"/>
<path d="M369.171 240.014L369.154 239.995H369.163V209.995H368.163V239.564L299.796 298.995H269.163V299.995H300.162L300.165 299.999L369.171 240.014Z" fill="#2C3933"/>
<path d="M230.163 80H229.163V130H230.163V80Z" fill="white" fill-opacity="0.3"/>
<path d="M230.163 80H229.163V130H230.163V80Z" fill="#2C3933"/>
<path d="M89.1631 10H88.1631V65H89.1631V10Z" fill="#2C3933"/>
<path d="M89.1631 275H88.1631V330H89.1631V275Z" fill="#2C3933"/>
<path d="M124.342 123.98L124 124.92L194.477 150.571L194.819 149.632L124.342 123.98Z" fill="white" fill-opacity="0.3"/>
<path d="M124.342 123.98L124 124.92L194.477 150.571L194.819 149.632L124.342 123.98Z" fill="#2C3933"/>
<path d="M0.34202 43.9802L0 44.9199L70.4769 70.5714L70.819 69.6317L0.34202 43.9802Z" fill="#2C3933"/>
<path d="M70.4773 268.98L70.8193 269.92L0.3424 295.571L0.000379346 294.632L70.4773 268.98Z" fill="#2C3933"/>
<path d="M124.342 215.572L124 214.632L194.477 188.98L194.819 189.92L124.342 215.572Z" fill="white" fill-opacity="0.3"/>
<path d="M124.342 215.572L124 214.632L194.477 188.98L194.819 189.92L124.342 215.572Z" fill="#2C3933"/>
<path d="M108.159 70.6418L107.817 69.7021L189.775 39.872L190.117 40.8116L108.159 70.6418Z" fill="white" fill-opacity="0.3"/>
<path d="M108.159 70.6418L107.817 69.7021L189.775 39.872L190.117 40.8116L108.159 70.6418Z" fill="#2C3933"/>
<path d="M108.159 268.999L107.817 269.939L189.775 299.769L190.117 298.829L108.159 268.999Z" fill="white" fill-opacity="0.3"/>
<path d="M108.159 268.999L107.817 269.939L189.775 299.769L190.117 298.829L108.159 268.999Z" fill="#2C3933"/>
<path d="M230.163 210H229.163V260H230.163V210Z" fill="white" fill-opacity="0.3"/>
<path d="M230.163 210H229.163V260H230.163V210Z" fill="#2C3933"/>
<g class="web-flow">
<circle class="hub-pulse" cx="369.163" cy="170" r="39.5" stroke-width="1.5" opacity="0">
	<animate attributeName="r" values="39.5;48;39.5" dur="3.2s" repeatCount="indefinite"/>
	<animate attributeName="opacity" values="0.55;0;0.55" dur="3.2s" repeatCount="indefinite"/>
</circle>
<circle class="pulse" r="2.6">
	<animateMotion path="M108.159 70.17 L189.775 40.34" dur="3.4s" begin="-0.2s" repeatCount="indefinite"/>
	<animate attributeName="opacity" values="0;1;0" dur="3.4s" begin="-0.2s" repeatCount="indefinite"/>
</circle>
<circle class="pulse" r="2.6">
	<animateMotion path="M108.159 269.47 L189.775 299.3" dur="3.4s" begin="-1.1s" repeatCount="indefinite"/>
	<animate attributeName="opacity" values="0;1;0" dur="3.4s" begin="-1.1s" repeatCount="indefinite"/>
</circle>
<circle class="pulse" r="2.6">
	<animateMotion path="M124.342 124.45 L194.477 150.1" dur="3.2s" begin="-0.6s" repeatCount="indefinite"/>
	<animate attributeName="opacity" values="0;1;0" dur="3.2s" begin="-0.6s" repeatCount="indefinite"/>
</circle>
<circle class="pulse" r="2.6">
	<animateMotion path="M124.342 215.1 L194.477 188.98" dur="3.2s" begin="-1.7s" repeatCount="indefinite"/>
	<animate attributeName="opacity" values="0;1;0" dur="3.2s" begin="-1.7s" repeatCount="indefinite"/>
</circle>
<circle class="pulse" r="2.6">
	<animateMotion path="M229.663 80 V130" dur="2.8s" begin="-0.9s" repeatCount="indefinite"/>
	<animate attributeName="opacity" values="0;1;0" dur="2.8s" begin="-0.9s" repeatCount="indefinite"/>
</circle>
<circle class="pulse" r="2.6">
	<animateMotion path="M229.663 210 V260" dur="2.8s" begin="-2.0s" repeatCount="indefinite"/>
	<animate attributeName="opacity" values="0;1;0" dur="2.8s" begin="-2.0s" repeatCount="indefinite"/>
</circle>
<circle class="pulse" r="2.8">
	<animateMotion path="M269.163 169.5 H329.163" dur="2.4s" begin="-0.4s" repeatCount="indefinite"/>
	<animate attributeName="opacity" values="0;1;0" dur="2.4s" begin="-0.4s" repeatCount="indefinite"/>
</circle>
<circle class="pulse" r="2.8">
	<animateMotion path="M269.163 40 H300.16 L369.163 100.4 V130" dur="3.6s" begin="-1.4s" repeatCount="indefinite"/>
	<animate attributeName="opacity" values="0;1;0" dur="3.6s" begin="-1.4s" repeatCount="indefinite"/>
</circle>
<circle class="pulse" r="2.8">
	<animateMotion path="M269.163 300 H300.16 L369.163 239.6 V210" dur="3.6s" begin="-2.6s" repeatCount="indefinite"/>
	<animate attributeName="opacity" values="0;1;0" dur="3.6s" begin="-2.6s" repeatCount="indefinite"/>
</circle>
<circle class="pulse" r="1.8">
	<animateMotion path="M9.163 104.5 H49.163" dur="2.6s" begin="-1.3s" repeatCount="indefinite"/>
	<animate attributeName="opacity" values="0;0.9;0" dur="2.6s" begin="-1.3s" repeatCount="indefinite"/>
</circle>
<circle class="pulse" r="1.8">
	<animateMotion path="M9.163 235.5 H49.163" dur="2.6s" begin="-0.5s" repeatCount="indefinite"/>
	<animate attributeName="opacity" values="0;0.9;0" dur="2.6s" begin="-0.5s" repeatCount="indefinite"/>
</circle>
</g>
<defs>
<linearGradient id="paint0_linear_191_23317" x1="329.663" y1="170" x2="408.663" y2="170" gradientUnits="userSpaceOnUse">
<stop stop-color="#0A4F2F"/>
<stop offset="1" stop-color="#0C2017"/>
</linearGradient>
<linearGradient id="paint1_linear_191_23317" x1="330" y1="170" x2="409" y2="170" gradientUnits="userSpaceOnUse">
<stop stop-color="#00FF8A"/>
<stop offset="1" stop-color="#19432F"/>
</linearGradient>
<linearGradient id="paint2_linear_191_23317" x1="129" y1="65" x2="49" y2="145" gradientUnits="userSpaceOnUse">
<stop stop-color="#14221B"/>
<stop offset="1" stop-color="#0E1D16"/>
</linearGradient>
<linearGradient id="paint3_linear_191_23317" x1="89.1631" y1="145" x2="89.1631" y2="65" gradientUnits="userSpaceOnUse">
<stop stop-color="#16271F"/>
<stop offset="1" stop-color="#2E3F38"/>
</linearGradient>
<linearGradient id="paint4_linear_191_23317" x1="269" y1="130" x2="189" y2="210" gradientUnits="userSpaceOnUse">
<stop stop-color="#14221B"/>
<stop offset="1" stop-color="#0E1D16"/>
</linearGradient>
<linearGradient id="paint5_linear_191_23317" x1="229.163" y1="210" x2="229.163" y2="130" gradientUnits="userSpaceOnUse">
<stop stop-color="#16271F"/>
<stop offset="1" stop-color="#2E3F38"/>
</linearGradient>
<linearGradient id="paint6_linear_191_23317" x1="269" y1="260" x2="189" y2="340" gradientUnits="userSpaceOnUse">
<stop stop-color="#14221B"/>
<stop offset="1" stop-color="#0E1D16"/>
</linearGradient>
<linearGradient id="paint7_linear_191_23317" x1="229.163" y1="340" x2="229.163" y2="260" gradientUnits="userSpaceOnUse">
<stop stop-color="#16271F"/>
<stop offset="1" stop-color="#2E3F38"/>
</linearGradient>
<linearGradient id="paint8_linear_191_23317" x1="269" y1="-2.38905e-06" x2="189" y2="80" gradientUnits="userSpaceOnUse">
<stop stop-color="#14221B"/>
<stop offset="1" stop-color="#0E1D16"/>
</linearGradient>
<linearGradient id="paint9_linear_191_23317" x1="229.163" y1="80" x2="229.163" y2="-1.90131e-06" gradientUnits="userSpaceOnUse">
<stop stop-color="#16271F"/>
<stop offset="1" stop-color="#2E3F38"/>
</linearGradient>
<linearGradient id="paint10_linear_191_23317" x1="129" y1="195" x2="49" y2="275" gradientUnits="userSpaceOnUse">
<stop stop-color="#14221B"/>
<stop offset="1" stop-color="#0E1D16"/>
</linearGradient>
<linearGradient id="paint11_linear_191_23317" x1="89.1631" y1="275" x2="89.1631" y2="195" gradientUnits="userSpaceOnUse">
<stop stop-color="#16271F"/>
<stop offset="1" stop-color="#2E3F38"/>
</linearGradient>
</defs>
</svg>
