<svg width="13" height="14" viewBox="0 0 13 14" fill="none" xmlns="http://www.w3.org/2000/svg">
<path d="M7.46154 14C6.48718 14 5.57692 13.7698 4.73077 13.3093C3.88462 12.8489 3.20513 12.208 2.69231 11.3867L0 7.03733L0.192308 6.85067C0.294872 6.75111 0.413462 6.69511 0.548077 6.68267C0.682692 6.67022 0.807692 6.70133 0.923077 6.776L4.23077 8.88533V1.75467C4.23077 1.69244 4.25654 1.63333 4.30808 1.57733C4.35974 1.52133 4.42372 1.49333 4.5 1.49333C4.5641 1.49333 4.625 1.52133 4.68269 1.57733C4.74038 1.63333 4.76923 1.69244 4.76923 1.75467V9.87467L0.807692 7.31733L3.15385 11.088C3.60256 11.8347 4.2118 12.4196 4.98154 12.8427C5.75115 13.2658 6.57782 13.4773 7.46154 13.4773C8.8459 13.4773 10.0253 13.0107 10.9998 12.0773C11.9743 11.144 12.4615 9.99911 12.4615 8.64267V2.016C12.4615 1.95378 12.4874 1.89467 12.539 1.83867C12.5906 1.78267 12.6545 1.75467 12.7308 1.75467C12.7949 1.75467 12.8558 1.78267 12.9135 1.83867C12.9712 1.89467 13 1.95378 13 2.016V8.64267C13 10.1344 12.4625 11.4002 11.3875 12.4402C10.3124 13.4801 9.00372 14 7.46154 14ZM6.98077 6.272V0.261333C6.98077 0.199111 7.00667 0.14 7.05846 0.084C7.11013 0.028 7.17423 0 7.25077 0C7.32718 0 7.39103 0.028 7.44231 0.084C7.49359 0.14 7.51923 0.199111 7.51923 0.261333V6.272H6.98077ZM9.73077 6.272V1.008C9.73077 0.945778 9.75667 0.886667 9.80846 0.830667C9.86013 0.774667 9.92423 0.746667 10.0008 0.746667C10.0772 0.746667 10.141 0.774667 10.1923 0.830667C10.2436 0.886667 10.2692 0.945778 10.2692 1.008V6.272H9.73077Z" fill="#83B59F"/>
</svg>
