<svg width="154" height="30" viewBox="0 0 154 30" fill="none" xmlns="http://www.w3.org/2000/svg">
<g clip-path="url(#clip0_1_24805)">
<path d="M44.5804 22.7966L38.0115 6.96484H42.2883L47.0377 19.2048H47.274L51.9525 6.96484H56.2057L49.6368 22.7966H44.58H44.5804Z" fill="white"/>
<path d="M53.4038 19.8663C53.4038 18.1177 54.7036 17.0309 57.2318 16.7707L62.3123 16.2509V15.8021C62.3123 14.2661 61.6272 13.8408 59.7368 13.8408C57.8464 13.8408 57.2086 14.3133 57.2086 15.6603V15.7548H53.6404V15.6839C53.6404 12.7541 56.0978 10.7216 59.9967 10.7216C63.8956 10.7216 65.8096 12.7537 65.8096 15.8493V22.7962H62.5013V20.0789H62.3123C61.7689 21.9221 60.1148 23.0328 57.4921 23.0328C54.8693 23.0328 53.4042 21.8512 53.4042 19.8663H53.4038ZM58.5079 20.5278C60.9181 20.5278 62.2178 19.9608 62.3123 18.2831L58.2008 18.7556C57.3503 18.8264 56.9719 19.0627 56.9719 19.6297C56.9719 20.2676 57.4681 20.5274 58.5079 20.5274V20.5278Z" fill="white"/>
<path d="M66.4856 22.7966V6.96484H70.0301V22.7966H66.4856Z" fill="white"/>
<path d="M70.7148 9.75297V6.96484H74.2593V9.75297H70.7148ZM70.7148 22.7966V10.9582H74.2593V22.7966H70.7148Z" fill="white"/>
<path d="M74.6819 19.8663C74.6819 18.1177 75.9816 17.0309 78.5099 16.7707L83.5904 16.2509V15.8021C83.5904 14.2661 82.9053 13.8408 81.0149 13.8408C79.1245 13.8408 78.4866 14.3133 78.4866 15.6603V15.7548H74.9185V15.6839C74.9185 12.7541 77.3759 10.7216 81.2748 10.7216C85.1736 10.7216 87.0876 12.7537 87.0876 15.8493V22.7962H83.7794V20.0789H83.5904C83.047 21.9221 81.3929 23.0328 78.7701 23.0328C76.1474 23.0328 74.6823 21.8512 74.6823 19.8663H74.6819ZM79.786 20.5278C82.1961 20.5278 83.4959 19.9608 83.5904 18.2831L79.4789 18.7556C78.6284 18.8264 78.25 19.0627 78.25 19.6297C78.25 20.2676 78.7461 20.5274 79.786 20.5274V20.5278Z" fill="white"/>
<path d="M87.7015 22.7965V10.9582H90.9862V14.5972H91.1988C91.5059 12.6123 92.9238 10.7219 96.019 10.7219C99.1143 10.7219 100.792 12.8013 100.792 15.424V22.7965H97.2476V16.6057C97.2476 14.7153 96.4679 13.912 94.2937 13.912C92.1194 13.912 91.2457 14.8098 91.2457 16.8183V22.7965H87.7012H87.7015Z" fill="white"/>
<path d="M107.253 22.7966C104.489 22.7966 102.811 21.4969 102.811 18.5198V13.8885H100.944V10.9586H102.811V8.66663H106.355V10.9586H110.183V13.8885H106.355V18.1181C106.355 19.2998 106.804 19.6069 108.057 19.6069H110.183V22.797H107.253L107.253 22.7966Z" fill="white"/>
<path d="M33.3761 0H0L17.3989 30L30.2029 7.821C26.4938 9.50963 22.4059 10.2251 22.4059 10.2251L17.3741 18.8531L9.10275 4.62863C16.1708 6.801 25.8548 6.95438 33.3761 0Z" fill="#00FF8A"/>
</g>
<rect x="120.683" y="1" width="32" height="28" rx="7.5" stroke="#5E8272"/>
<path d="M131.96 20.5H130.668L134.406 10.3182H135.679L139.418 20.5H138.125L135.083 11.929H135.003L131.96 20.5ZM132.438 16.5227H137.648V17.6165H132.438V16.5227ZM141.817 10.3182V20.5H140.584V10.3182H141.817Z" fill="#5E8272"/>
<defs>
<clipPath id="clip0_1_24805">
<rect width="110.183" height="30" fill="white"/>
</clipPath>
</defs>
</svg>
