<svg width="35" height="35" viewBox="0 0 35 35" fill="none" xmlns="http://www.w3.org/2000/svg">
<path d="M31.05 34.5487L24.85 28.3309L20.45 32.7436L20.15 32.4427C19.5833 31.8744 19.3 31.1724 19.3 30.3367C19.3 29.501 19.5833 28.799 20.15 28.2307L28.25 20.1075C28.8167 19.5392 29.5167 19.255 30.35 19.255C31.1833 19.255 31.8833 19.5392 32.45 20.1075L32.75 20.4083L28.35 24.8209L34.55 31.0387C34.85 31.3395 35 31.6905 35 32.0917C35 32.4928 34.85 32.8438 34.55 33.1447L33.15 34.5487C32.85 34.8496 32.5 35 32.1 35C31.7 35 31.35 34.8496 31.05 34.5487ZM34.9 4.31232L13 26.3252L14.85 28.1805C15.4167 28.7488 15.7 29.4508 15.7 30.2865C15.7 31.1223 15.4167 31.8243 14.85 32.3926L14.55 32.6934L10.15 28.2808L3.95 34.4986C3.65 34.7994 3.3 34.9499 2.9 34.9499C2.5 34.9499 2.15 34.7994 1.85 34.4986L0.45 33.0946C0.15 32.7937 0 32.4427 0 32.0415C0 31.6404 0.15 31.2894 0.45 30.9885L6.65 24.7708L2.25 20.3582L2.55 20.0573C3.11667 19.489 3.81667 19.2049 4.65 19.2049C5.48333 19.2049 6.18333 19.489 6.75 20.0573L8.65 21.9628L30.6 0L34.9 0V4.31232ZM9.2 13.4885L0.1 4.31232L0.1 0L4.4 0L13.45 9.12607L12.5 10.0788L3.85 1.40401H1.5V3.76075L10.2 12.4857L9.2 13.4885ZM12 25.3223L33.5 3.76075V1.40401H31.15L9.65 22.9656L12 25.3223Z" fill="#83B59F"/>
</svg>
