<svg width="31" height="35" viewBox="0 0 31 35" fill="none" xmlns="http://www.w3.org/2000/svg">
<path d="M1.6194 19.748C1.6194 22.5556 2.41947 25.1165 4.01959 27.4309C5.61971 29.7453 7.75 31.4146 10.4104 32.439C10.0249 31.9079 9.7357 31.3482 9.54291 30.7602C9.35012 30.1721 9.25373 29.5745 9.25373 28.9675C9.25373 28.1707 9.4176 27.4119 9.74534 26.6911C10.0731 25.9702 10.5261 25.3252 11.1045 24.7561L15.5 20.4878L19.9534 24.7561C20.5317 25.3252 20.9751 25.9702 21.2836 26.6911C21.592 27.4119 21.7463 28.1707 21.7463 28.9675C21.7463 29.5745 21.6499 30.1721 21.4571 30.7602C21.2643 31.3482 20.9751 31.9079 20.5896 32.439C23.25 31.4146 25.3803 29.7453 26.9804 27.4309C28.5805 25.1165 29.3806 22.5556 29.3806 19.748C29.3806 17.8509 29.0239 16.0583 28.3106 14.3699C27.5973 12.6816 26.5659 11.1734 25.2164 9.84553C24.4453 10.3388 23.6356 10.7087 22.7873 10.9553C21.9391 11.2019 21.0715 11.3252 20.1847 11.3252C17.7556 11.3252 15.6639 10.5474 13.9095 8.99187C12.1552 7.43631 11.1623 5.48238 10.931 3.13008C9.42724 4.34417 8.09702 5.62466 6.9403 6.97154C5.78358 8.31843 4.81001 9.70325 4.01959 11.126C3.22917 12.5488 2.63153 13.981 2.22668 15.4228C1.82183 16.8645 1.6194 18.3062 1.6194 19.748ZM15.5 22.7073L12.2034 25.8943C11.7792 26.3117 11.4515 26.7859 11.2201 27.3171C10.9888 27.8482 10.8731 28.3984 10.8731 28.9675C10.8731 30.1816 11.3262 31.2249 12.2323 32.0976C13.1384 32.9702 14.2276 33.4065 15.5 33.4065C16.7724 33.4065 17.8616 32.9702 18.7677 32.0976C19.6738 31.2249 20.1269 30.1816 20.1269 28.9675C20.1269 28.3604 20.0112 27.8008 19.7799 27.2886C19.5485 26.7764 19.2208 26.3117 18.7966 25.8943L15.5 22.7073ZM12.4925 0V2.21951C12.4925 4.34417 13.2348 6.12737 14.7192 7.56911C16.2037 9.01084 18.0255 9.73171 20.1847 9.73171C20.9173 9.73171 21.6402 9.61789 22.3535 9.39024C23.0669 9.1626 23.7512 8.84011 24.4067 8.42276L25.3899 7.79675C27.1636 9.23848 28.542 11.0122 29.5252 13.1179C30.5084 15.2236 31 17.4336 31 19.748C31 23.9973 29.4963 27.6016 26.4888 30.561C23.4813 33.5203 19.8184 35 15.5 35C11.1816 35 7.51866 33.5203 4.51119 30.561C1.50373 27.6016 0 23.9973 0 19.748C0 16.1436 1.11816 12.5772 3.35448 9.04878C5.5908 5.52033 8.63682 2.50407 12.4925 0Z" fill="#83B59F"/>
</svg>
