<svg width="17" height="24" viewBox="0 0 17 24" fill="none" xmlns="http://www.w3.org/2000/svg">
<g clip-path="url(#clip0_2040_6024)">
<path d="M0 24V8.23061C0.283397 0.46207 6.51815 0 8.21853 0C15.4735 0 18.1375 7.27757 13.6314 11.2918C18.5909 13.4866 18.5626 23.9987 10.2306 23.9987H6.94325V18.3384C8.5586 18.3384 10.7124 18.5983 10.7124 16.4034C10.7124 14.2086 8.1902 14.2952 6.97158 14.2952V9.24137C9.72055 9.29914 9.74889 7.97069 9.74889 6.98878C9.74889 5.83361 8.48647 5.51594 7.68008 5.51594C6.31977 5.51594 5.83799 6.87326 5.83799 7.45085V24H0Z" fill="#5E8272"/>
</g>
<defs>
<clipPath id="clip0_2040_6024">
<rect width="17" height="24" fill="white"/>
</clipPath>
</defs>
</svg>
