<svg width="24" height="24" viewBox="0 0 24 24" fill="none" xmlns="http://www.w3.org/2000/svg">
<g clip-path="url(#clip0_2040_5997)">
<path d="M12.0094 0C5.37694 0 0 5.34835 0 11.9701C0 18.5919 5.37694 24 12.0094 24C18.6419 24 24 18.6139 24 11.9701C24 5.32634 18.6231 0 12.0094 0ZM12.0094 20.8495C7.12843 20.8495 3.14518 16.8406 3.14518 11.9701C3.14518 7.0997 7.12843 3.13166 12.0094 3.13166C16.8904 3.13166 20.8328 7.08084 20.8328 11.9701C20.8328 16.8594 16.8904 20.8495 12.0094 20.8495Z" fill="#5E8272"/>
<path d="M14.9755 6.4834C13.6226 6.4834 12.4863 7.64049 12.4863 9.01765C12.4863 10.3948 13.6226 11.4922 14.9755 11.4922C16.3283 11.4922 17.4646 10.376 17.4646 9.01765C17.4646 7.65935 16.3691 6.4834 14.9755 6.4834Z" fill="#5E8272"/>
<path d="M14.9755 12.4888C13.6226 12.4888 12.4863 13.5861 12.4863 14.9822C12.4863 16.3782 13.6226 17.4755 14.9755 17.4755C16.3283 17.4755 17.4646 16.3593 17.4646 14.9822C17.4646 13.605 16.3691 12.4888 14.9755 12.4888Z" fill="#5E8272"/>
<path d="M9.00232 6.4834C7.60866 6.4834 6.51318 7.64049 6.51318 9.01765C6.51318 10.3948 7.60866 11.4922 9.00232 11.4922C10.396 11.4922 11.5103 10.376 11.5103 9.01765C11.5103 7.65935 10.374 6.4834 9.00232 6.4834Z" fill="#5E8272"/>
<path d="M9.00232 12.4888C7.60866 12.4888 6.51318 13.5861 6.51318 14.9822C6.51318 16.3782 7.60866 17.4755 9.00232 17.4755C10.396 17.4755 11.5103 16.3593 11.5103 14.9822C11.5103 13.605 10.374 12.4888 9.00232 12.4888Z" fill="#5E8272"/>
</g>
<defs>
<clipPath id="clip0_2040_5997">
<rect width="24" height="24" fill="white"/>
</clipPath>
</defs>
</svg>
