<svg width="23" height="24" viewBox="0 0 23 24" fill="none" xmlns="http://www.w3.org/2000/svg">
<g clip-path="url(#clip0_2040_6003)">
<mask id="mask0_2040_6003" style="mask-type:luminance" maskUnits="userSpaceOnUse" x="0" y="0" width="23" height="24">
<path d="M23 0H0V24H23V0Z" fill="white"/>
</mask>
<g mask="url(#mask0_2040_6003)">
<path d="M17.66 7.90224V5.04422C18.0389 4.8677 18.3598 4.58758 18.5851 4.23638C18.8105 3.88522 18.9312 3.47746 18.9331 3.06058V2.99494C18.9331 1.77946 17.9445 0.79411 16.725 0.79411H16.6592C16.0735 0.79411 15.5119 1.02598 15.0978 1.43872C14.6837 1.85145 14.4511 2.41123 14.4511 2.99494V3.06058C14.453 3.47746 14.5737 3.88522 14.7991 4.23638C15.0245 4.58758 15.3453 4.8677 15.7242 5.04422V7.90224C14.6352 8.06844 13.6095 8.51849 12.7511 9.20683L4.88692 3.1019C4.94304 2.90014 4.97231 2.69268 4.97555 2.48443C4.97653 1.99395 4.83151 1.51421 4.55889 1.10587C4.28627 0.697541 3.89824 0.37897 3.44394 0.190457C2.98964 0.00194305 2.48944 -0.0480437 2.00663 0.0468189C1.52381 0.141682 1.08007 0.377134 0.731532 0.723389C0.382993 1.06964 0.145313 1.51115 0.0485587 1.99206C-0.0481958 2.47296 0.000325405 2.97168 0.187976 3.42509C0.375628 3.8785 0.693977 4.26626 1.10277 4.53934C1.51156 4.81238 1.99242 4.9585 2.48453 4.95914C2.91506 4.9571 3.33752 4.84255 3.70971 4.62691L11.4535 10.633C10.7579 11.6805 10.395 12.9125 10.4121 14.1686C10.4292 15.4246 10.8255 16.6464 11.5495 17.6746L9.19423 20.023C9.00383 19.9623 8.80548 19.9301 8.60559 19.9273C8.20166 19.9277 7.80689 20.0473 7.47117 20.2712C7.13544 20.4951 6.87379 20.8131 6.71938 21.1852C6.56492 21.5572 6.5246 21.9665 6.60349 22.3613C6.68236 22.7562 6.87693 23.1189 7.16256 23.4036C7.44819 23.6882 7.81209 23.8822 8.20822 23.9608C8.60439 24.0394 9.01507 23.9992 9.38831 23.8453C9.76161 23.6914 10.0807 23.4306 10.3053 23.096C10.5299 22.7614 10.65 22.3679 10.6503 21.9653C10.6477 21.7661 10.6153 21.5684 10.5544 21.3786L12.8844 19.0554C13.6442 19.6385 14.5279 20.0404 15.4676 20.2305C16.4074 20.4206 17.3783 20.3937 18.306 20.1521C19.2337 19.9103 20.0937 19.4602 20.8199 18.8361C21.5461 18.212 22.1194 17.4305 22.4958 16.5514C22.8722 15.6724 23.0417 14.7192 22.9913 13.7647C22.941 12.8103 22.6721 11.88 22.2054 11.0452C21.7386 10.2103 21.0863 9.49301 20.2984 8.94823C19.5105 8.40343 18.608 8.04566 17.66 7.90224ZM16.6941 17.3019C16.2635 17.3137 15.8349 17.2394 15.4336 17.0833C15.0322 16.9272 14.6664 16.6925 14.3576 16.3931C14.0489 16.0937 13.8035 15.7356 13.6359 15.3401C13.4682 14.9446 13.3819 14.5196 13.3819 14.0902C13.3819 13.6608 13.4682 13.2359 13.6359 12.8403C13.8035 12.4447 14.0489 12.0867 14.3576 11.7873C14.6664 11.4879 15.0322 11.2532 15.4336 11.0971C15.8349 10.9411 16.2635 10.8667 16.6941 10.8785C17.5287 10.9076 18.3194 11.2585 18.8997 11.8571C19.4799 12.4558 19.8044 13.2555 19.8049 14.0879C19.8053 14.9202 19.4816 15.7202 18.9019 16.3195C18.3223 16.9187 17.532 17.2703 16.6974 17.3003" fill="#5E8272"/>
</g>
</g>
<defs>
<clipPath id="clip0_2040_6003">
<rect width="23" height="24" fill="white"/>
</clipPath>
</defs>
</svg>
