<svg width="21" height="24" viewBox="0 0 21 24" fill="none" xmlns="http://www.w3.org/2000/svg">
<g clip-path="url(#clip0_2040_6095)">
<mask id="mask0_2040_6095" style="mask-type:luminance" maskUnits="userSpaceOnUse" x="0" y="0" width="21" height="24">
<path d="M21 0H0V24H21V0Z" fill="white"/>
</mask>
<g mask="url(#mask0_2040_6095)">
<path d="M15.9758 11.1235C15.873 11.074 15.7686 11.0263 15.6629 10.9807C15.4787 7.56727 13.6241 5.61312 10.5102 5.59313C10.4961 5.59303 10.4821 5.59303 10.4679 5.59303C8.60537 5.59303 7.05631 6.39262 6.10289 7.84759L7.81546 9.02909C8.52772 7.9423 9.64549 7.7106 10.4688 7.7106C10.4782 7.7106 10.4878 7.7106 10.4972 7.7107C11.5225 7.71725 12.2963 8.01708 12.797 8.60174C13.1615 9.02741 13.4052 9.61565 13.5258 10.358C12.6168 10.2026 11.6336 10.1548 10.5827 10.2155C7.62205 10.3869 5.71871 12.1235 5.84654 14.5365C5.9114 15.7605 6.51773 16.8135 7.5537 17.5014C8.42964 18.0828 9.55777 18.3673 10.7302 18.3029C12.2786 18.2175 13.4933 17.6234 14.3407 16.537C14.9843 15.712 15.3913 14.6429 15.571 13.2957C16.3089 13.7436 16.8558 14.333 17.1579 15.0415C17.6714 16.2459 17.7014 18.225 16.0956 19.8385C14.6888 21.252 12.9978 21.8635 10.4421 21.8823C7.60706 21.8612 5.46301 20.9469 4.06901 19.1647C2.76365 17.4957 2.08902 15.0852 2.06386 12C2.08902 8.91473 2.76365 6.50419 4.06901 4.83533C5.46301 3.05311 7.60701 2.13875 10.442 2.11756C13.2975 2.13891 15.4789 3.05767 16.9263 4.8485C17.636 5.72669 18.171 6.8311 18.5238 8.11879L20.5307 7.58028C20.1031 5.99527 19.4303 4.62946 18.5148 3.49675C16.6593 1.20084 13.9455 0.0243936 10.4489 0H10.435C6.94551 0.0243086 4.26217 1.20522 2.45948 3.5099C0.855349 5.5608 0.0278906 8.41447 8.70025e-05 11.9916L0 12L8.70025e-05 12.0084C0.0278906 15.5855 0.855349 18.4393 2.45948 20.4901C4.26217 22.7947 6.94551 23.9757 10.435 24H10.4489C13.5513 23.9784 15.7381 23.1615 17.5395 21.3514C19.8965 18.9832 19.8254 16.0149 19.0486 14.1926C18.4914 12.8859 17.4288 11.8245 15.9758 11.1235ZM10.6194 16.1884C9.32181 16.2619 7.97375 15.6761 7.90726 14.4215C7.85801 13.4913 8.56552 12.4532 10.699 12.3296C10.9434 12.3155 11.1831 12.3085 11.4187 12.3085C12.1936 12.3085 12.9185 12.3842 13.5776 12.5292C13.3319 15.6169 11.8898 16.1182 10.6194 16.1884Z" fill="#5E8272"/>
</g>
</g>
<defs>
<clipPath id="clip0_2040_6095">
<rect width="21" height="24" fill="white"/>
</clipPath>
</defs>
</svg>
