<svg width="23" height="24" viewBox="0 0 23 24" fill="none" xmlns="http://www.w3.org/2000/svg">
<g clip-path="url(#clip0_2040_5991)">
<mask id="mask0_2040_5991" style="mask-type:luminance" maskUnits="userSpaceOnUse" x="0" y="0" width="23" height="24">
<path d="M23 0H0V24H23V0Z" fill="white"/>
</mask>
<g mask="url(#mask0_2040_5991)">
<path d="M17.3053 11.3339C17.4736 11.3125 17.6419 11.3125 17.8102 11.3339C17.9025 11.1309 17.9188 10.7735 17.8373 10.3953C17.718 9.82449 17.5497 9.47813 17.2131 9.53131C16.8765 9.58449 16.8602 10.0003 16.9851 10.5711C17.0448 10.8857 17.1696 11.1633 17.3053 11.3339ZM14.3902 11.7873C14.6345 11.8937 14.7811 11.9631 14.8408 11.8989C14.9439 11.7977 14.6507 11.3975 14.1839 11.2003C13.6302 10.9765 13.0004 11.0511 12.5173 11.3975C12.3544 11.5149 12.2024 11.6751 12.2242 11.7763C12.273 11.9735 12.767 11.6323 13.4565 11.5895C13.831 11.5629 14.1459 11.6803 14.3902 11.7873ZM13.9016 12.0591C13.4076 12.1337 13.0873 12.4055 13.1688 12.5975C13.2176 12.6137 13.2339 12.6403 13.4511 12.5553C13.7767 12.4321 14.1242 12.4003 14.4716 12.4483C14.629 12.4645 14.705 12.4749 14.7431 12.4217C14.8136 12.3095 14.4282 12.0001 13.9016 12.0591ZM16.8439 12.9763C17.0285 12.6085 16.2522 12.2297 16.0676 12.6033C15.8831 12.9711 16.6648 13.3441 16.8439 12.9763ZM17.6962 11.8833C17.2782 11.8775 17.262 12.7259 17.68 12.7363C18.1034 12.7363 18.1197 11.8885 17.6962 11.8833ZM5.79665 16.0963C5.72608 16.1125 5.47092 16.1761 5.33522 15.9685C5.0529 15.5417 5.93782 14.8801 5.49806 14.0537C5.00407 13.1203 3.98348 13.3285 3.5926 13.7547C3.12032 14.2671 3.12032 15.0137 3.3212 15.0403C3.55464 15.0721 3.54379 14.6939 3.72292 14.4163C3.93464 14.0965 4.36351 14.0057 4.68924 14.2139C4.68924 14.2139 4.69464 14.2139 4.69464 14.2191C5.32438 14.6245 4.77066 15.1681 4.81949 15.7493C4.89554 16.6405 5.82381 16.6243 5.9921 16.2293C6.01379 16.1923 6.0084 16.1391 5.98126 16.1067C5.98126 16.1657 6.01377 16.0483 5.79665 16.0963ZM22.1043 15.1843C21.9197 14.5551 21.9632 14.6939 21.7351 14.0855C21.8708 13.8883 22.5657 12.8005 21.5668 11.7763C21.0023 11.1951 19.7211 10.8909 19.3302 10.7845C19.2488 10.1767 19.5854 7.64853 18.1576 6.34725C19.2868 5.19533 19.9925 3.92604 19.9925 2.83807C19.9871 0.747533 17.3705 0.112832 14.1459 1.42479L13.4619 1.70747C13.4564 1.70215 12.2242 0.518172 12.2079 0.50215C8.53813 -2.64437 -2.95969 9.90427 0.715438 12.9549L1.51893 13.6217C1.30174 14.1925 1.22577 14.8055 1.29635 15.4133C1.48088 17.2003 3.2561 18.6455 4.97148 18.6403C8.11466 25.7546 19.5474 25.765 22.506 18.7998C22.5983 18.5598 23 17.4831 23 16.5335C23 15.5845 22.4517 15.1843 22.1043 15.1843ZM4.90636 17.7601C3.6632 17.7283 2.32235 16.6295 2.19204 15.3283C1.85545 12.0539 6.23096 11.3073 6.76299 14.6667C7.0127 16.2507 6.50783 17.7918 4.90636 17.7601ZM3.90206 11.6537C3.07694 11.8139 2.34949 12.2725 1.90434 12.9069C1.63833 12.6883 1.14435 12.2673 1.05748 12.1071C0.351776 10.7793 1.83376 8.2032 2.87062 6.75261C5.43294 3.15804 9.44472 0.438192 11.3067 0.928829C11.6107 1.01413 12.6096 2.1501 12.6096 2.1501C12.6096 2.1501 10.753 3.16341 9.0321 4.5767C6.70326 6.33662 4.94982 8.8859 3.90206 11.6537ZM16.8982 17.0615C16.8982 17.0615 14.9548 17.3443 13.1145 16.6827C13.4511 15.6053 14.5856 17.0083 18.3585 15.9471C19.1891 15.7123 20.2803 15.2537 21.1325 14.5921C21.3171 15.0085 21.4474 15.4457 21.518 15.8881C21.7188 15.8511 22.2943 15.8615 22.1423 16.8533C21.9632 17.9151 21.5017 18.7784 20.7308 19.5737C20.2477 20.0855 19.6722 20.5123 19.0371 20.821C18.6842 21.0027 18.3096 21.157 17.9297 21.2803C15.0199 22.213 12.0396 21.1895 11.0733 18.9815C10.9973 18.8109 10.9322 18.6403 10.8779 18.4587C10.4707 17.0031 10.8182 15.2589 11.9039 14.1601C11.969 14.0907 12.0396 14.0057 12.0396 13.9045C12.0287 13.8137 11.9961 13.7281 11.9365 13.6587C11.5565 13.1151 10.2373 12.1921 10.5033 10.4057C10.6933 9.12072 11.8333 8.21923 12.9027 8.27253L13.1742 8.28857C13.6356 8.31523 14.0373 8.37386 14.4173 8.38987C15.0525 8.41653 15.6279 8.32586 16.3011 7.77127C16.5291 7.58457 16.7136 7.41924 17.0231 7.37124C17.2782 7.30723 17.5442 7.35523 17.7614 7.48857C18.3042 7.84591 18.3802 8.70427 18.4074 9.33413C18.4237 9.69086 18.4671 10.5659 18.4834 10.8111C18.5159 11.3819 18.668 11.4617 18.9774 11.5577C19.1511 11.6167 19.3139 11.6537 19.5474 11.7231C20.264 11.9203 20.6874 12.1233 20.9642 12.3789C21.1054 12.5125 21.1923 12.6883 21.2249 12.8751C21.3117 13.4829 20.7471 14.2347 19.2488 14.9125C16.7082 16.0697 14.1513 15.6857 13.7822 15.6429C12.6856 15.4989 12.0613 16.8909 12.7182 17.8398C13.9505 19.6269 19.3791 18.9069 20.9534 16.6989C20.9914 16.6457 20.9589 16.6133 20.9154 16.6457C18.6408 18.1707 15.6334 18.6883 13.9233 18.0377C13.6627 17.9358 13.1199 17.6907 13.0547 17.1471C15.4271 17.8671 16.9199 17.1841 16.9199 17.1841C16.9199 17.1841 17.0394 17.0453 16.8982 17.0615ZM8.63584 6.73661C9.54783 5.70197 10.6661 4.80067 11.6758 4.29933C11.6922 4.2887 11.7193 4.29403 11.7301 4.31537C11.7356 4.326 11.7356 4.34203 11.7301 4.35266C11.6487 4.49666 11.4967 4.80067 11.4479 5.02997C11.4424 5.05133 11.4587 5.07266 11.4804 5.07797C11.4913 5.08329 11.5022 5.07797 11.513 5.07266C12.1373 4.65667 13.2285 4.20333 14.1785 4.15003C14.2002 4.15003 14.2219 4.16604 14.2219 4.18737C14.2219 4.20333 14.2165 4.21404 14.2056 4.22467C14.0482 4.34203 13.9071 4.4807 13.7876 4.64066C13.7767 4.65667 13.7767 4.68333 13.7985 4.69399C13.8039 4.69937 13.8147 4.69937 13.8202 4.69937C14.4879 4.70467 15.4325 4.93397 16.0514 5.27529C16.0948 5.29663 16.0622 5.37662 16.0188 5.36597C12.235 4.51267 9.31986 6.35796 8.70097 6.80061C8.67928 6.81127 8.65754 6.80587 8.64124 6.78986C8.625 6.76853 8.625 6.74731 8.63584 6.73661Z" fill="#5E8272"/>
</g>
</g>
<defs>
<clipPath id="clip0_2040_5991">
<rect width="23" height="24" fill="white"/>
</clipPath>
</defs>
</svg>
