<svg width="24" height="24" viewBox="0 0 24 24" fill="none" xmlns="http://www.w3.org/2000/svg">
<g clip-path="url(#clip0_2040_6018)">
<path fill-rule="evenodd" clip-rule="evenodd" d="M12 0C18.6274 0 24 5.37259 24 12C24 18.6274 18.6274 24 12 24C5.37259 24 0 18.6274 0 12C0 5.37259 5.37259 0 12 0ZM8.64389 7.43405C8.64389 7.81462 8.83114 7.93361 9.06523 8.12388L9.11194 8.14769C9.43966 8.38553 14.1915 11.739 14.8237 12.191C14.1916 12.643 9.3703 16.0435 9.06523 16.2343C8.69069 16.4722 8.66714 16.6387 8.66714 16.9717V18.0895C8.66714 18.0895 15.7599 13.0713 15.9006 12.9522C16.2283 12.7143 16.2985 12.4051 16.2985 12.2148V12.0721C16.2985 11.8342 16.158 11.5964 15.8772 11.4062C15.7133 11.2635 9.042 6.53045 8.73746 6.34001L8.64389 6.26866V7.43405ZM9.25238 9.66989C9.11194 9.55099 8.92464 9.52721 8.80759 9.59854C8.69059 9.66991 8.59702 9.78888 8.59702 9.97913V10.7164L8.62046 10.7401C8.64389 10.764 10.7741 12.2624 11.1954 12.5478C11.3827 12.6667 11.5465 12.7143 11.7103 12.7143C11.8976 12.7143 12.0849 12.6429 12.2722 12.5002C12.5062 12.3337 12.717 12.191 12.717 12.191L12.7872 12.1434L12.717 12.0959C12.6897 12.0694 9.57991 9.88382 9.25238 9.66989Z" fill="#5E8272"/>
</g>
<defs>
<clipPath id="clip0_2040_6018">
<rect width="24" height="24" fill="white"/>
</clipPath>
</defs>
</svg>
