<svg width="24" height="24" viewBox="0 0 24 24" fill="none" xmlns="http://www.w3.org/2000/svg">
<g clip-path="url(#clip0_2040_6016)">
<path fill-rule="evenodd" clip-rule="evenodd" d="M18.72 0C21.6361 3.71093e-07 24 2.36394 24 5.28V18.72C24 21.6361 21.6361 24 18.72 24H5.28C2.36394 24 0 21.6361 0 18.72V5.28C3.71117e-07 2.36394 2.36394 0 5.28 0H18.72ZM5.28821 5.04C4.35324 5.04005 3.60005 5.79322 3.6 6.72821V17.2997C3.6 18.2348 4.35319 18.9881 5.28821 18.9881C6.22327 18.9881 6.97663 18.2087 6.97663 17.2737V6.72821C6.97658 5.79319 6.22322 5.04 5.28821 5.04ZM18.795 5.04C17.86 5.04 17.1066 5.79319 17.1066 6.72821V17.2997C17.1066 18.2348 17.86 18.9881 18.795 18.9881C19.73 18.9881 20.4832 18.2087 20.4832 17.2737V6.72821C20.4831 5.79322 19.73 5.04005 18.795 5.04ZM12.0415 7.42992C11.1065 7.42997 10.3533 8.18314 10.3533 9.11813V14.9105C10.3533 15.8455 11.1065 16.5986 12.0415 16.5987C12.9765 16.5987 13.7299 15.8454 13.7299 14.9363V9.11813C13.7299 8.18311 12.9765 7.42992 12.0415 7.42992Z" fill="#5E8272"/>
</g>
<defs>
<clipPath id="clip0_2040_6016">
<rect width="24" height="24" fill="white"/>
</clipPath>
</defs>
</svg>
