<svg width="16" height="14" viewBox="0 0 16 14" fill="none" xmlns="http://www.w3.org/2000/svg">
<path d="M2.47802 14V6.48225L0.850275 7.74556L0.5 7.28994L2.47802 5.7574V3.68639H3.05495V5.30177L8 1.51183L15.5 7.28994L15.1497 7.74556L13.522 6.48225V14H2.47802ZM3.05495 13.4201H6.76374V9.27811H9.23626V13.4201H12.9451V6.04734L8 2.2574L3.05495 6.04734V13.4201ZM2.47802 2.65089C2.47802 2.20907 2.61195 1.82939 2.87981 1.51183C3.14767 1.19428 3.56319 1.0355 4.12637 1.0355C4.52473 1.0355 4.80288 0.935404 4.96085 0.735207C5.11882 0.53501 5.1978 0.289941 5.1978 0H5.77473C5.77473 0.441815 5.6408 0.821499 5.37294 1.13905C5.10508 1.45661 4.68956 1.61538 4.12637 1.61538C3.72802 1.61538 3.44986 1.71548 3.2919 1.91568C3.13393 2.11588 3.05495 2.36095 3.05495 2.65089H2.47802Z" fill="#83B59F"/>
</svg>
