<svg width="16" height="12" viewBox="0 0 16 12" fill="none" xmlns="http://www.w3.org/2000/svg">
<path d="M5.07836 12C4.64179 12 4.26959 11.842 3.96175 11.5259C3.65392 11.2098 3.5 10.8276 3.5 10.3793V1.96552C3.5 1.41379 3.6847 0.948276 4.0541 0.568965C4.42351 0.189655 4.87687 0 5.41418 0H12.5V9.24138C12.1978 9.24138 11.9375 9.35345 11.7192 9.57759C11.5009 9.80172 11.3918 10.069 11.3918 10.3793C11.3918 10.6897 11.5009 10.9569 11.7192 11.181C11.9375 11.4052 12.1978 11.5172 12.5 11.5172V12H5.07836ZM3.97015 9.22414C4.11567 9.07471 4.28078 8.95977 4.46549 8.87931C4.65019 8.79885 4.85448 8.75862 5.07836 8.75862H5.64925V0.482759H5.41418C5.02239 0.482759 4.68377 0.62931 4.39832 0.922414C4.11287 1.21552 3.97015 1.56322 3.97015 1.96552V9.22414ZM6.1194 8.75862H12.0299V0.482759H6.1194V8.75862ZM5.07836 11.5172H11.375C11.2295 11.3678 11.1175 11.1983 11.0392 11.0086C10.9608 10.819 10.9216 10.6092 10.9216 10.3793C10.9216 10.1609 10.9608 9.95402 11.0392 9.75862C11.1175 9.56322 11.2295 9.3908 11.375 9.24138H5.07836C4.76493 9.24138 4.50187 9.35345 4.28918 9.57759C4.07649 9.80172 3.97015 10.069 3.97015 10.3793C3.97015 10.7011 4.07649 10.9713 4.28918 11.1897C4.50187 11.408 4.76493 11.5172 5.07836 11.5172Z" fill="#83B59F"/>
</svg>
