<svg width="16" height="12" viewBox="0 0 16 12" fill="none" xmlns="http://www.w3.org/2000/svg">
<path d="M2.62069 12C2.29693 12 2.02921 11.8874 1.81753 11.6623C1.60584 11.4371 1.5 11.1523 1.5 10.8079V3.33775C1.5 2.99338 1.60584 2.70861 1.81753 2.48344C2.02921 2.25828 2.29693 2.1457 2.62069 2.1457H5.98276V1.19205C5.98276 0.847682 6.0886 0.562914 6.30029 0.337748C6.51197 0.112583 6.77969 0 7.10345 0H8.89655C9.22031 0 9.48803 0.112583 9.69971 0.337748C9.9114 0.562914 10.0172 0.847682 10.0172 1.19205V2.1457H13.3793C13.7031 2.1457 13.9708 2.25828 14.1825 2.48344C14.3942 2.70861 14.5 2.99338 14.5 3.33775V10.8079C14.5 11.1523 14.3942 11.4371 14.1825 11.6623C13.9708 11.8874 13.7031 12 13.3793 12H2.62069ZM2.62069 11.4437H13.3793C13.5287 11.4437 13.6657 11.3775 13.7902 11.245C13.9148 11.1126 13.977 10.9669 13.977 10.8079V3.33775C13.977 3.17881 13.9148 3.03311 13.7902 2.90066C13.6657 2.76821 13.5287 2.70199 13.3793 2.70199H2.62069C2.47126 2.70199 2.33429 2.76821 2.20977 2.90066C2.08525 3.03311 2.02299 3.17881 2.02299 3.33775V10.8079C2.02299 10.9669 2.08525 11.1126 2.20977 11.245C2.33429 11.3775 2.47126 11.4437 2.62069 11.4437ZM6.50575 2.1457H9.49425V1.19205C9.49425 1.03311 9.43199 0.887417 9.30747 0.754967C9.18295 0.622517 9.04598 0.556291 8.89655 0.556291H7.10345C6.95402 0.556291 6.81705 0.622517 6.69253 0.754967C6.56801 0.887417 6.50575 1.03311 6.50575 1.19205V2.1457Z" fill="#83B59F"/>
</svg>
