<svg width="16" height="14" viewBox="0 0 16 14" fill="none" xmlns="http://www.w3.org/2000/svg">
<path d="M7.74742 14V11.0916C7.2543 11.4288 6.73627 11.7088 6.19335 11.9316C5.65031 12.1544 5.07984 12.2658 4.48196 12.2658C3.83247 12.2658 3.20704 12.1514 2.60567 11.9226C2.0043 11.6938 1.46907 11.3566 1 10.911C1.50515 10.5015 2.05541 10.1763 2.65077 9.93548C3.24613 9.69462 3.86856 9.56817 4.51804 9.55613C4.25344 9.45978 4.00387 9.34237 3.76933 9.20387C3.53479 9.06538 3.31529 8.89979 3.11082 8.7071C2.49742 8.12903 2.01031 7.45763 1.64948 6.6929C1.28866 5.92817 1.10825 5.1243 1.10825 4.28129C2.01031 4.34151 2.87629 4.53118 3.70619 4.85032C4.53608 5.16946 5.27577 5.64817 5.92526 6.28645C5.87715 6.08172 5.84106 5.88 5.81701 5.68129C5.79295 5.48258 5.78093 5.28086 5.78093 5.07613C5.78093 4.10679 5.9884 3.19609 6.40335 2.34405C6.8183 1.49189 7.35052 0.710538 8 0C8.62543 0.722581 9.15163 1.50803 9.57861 2.35634C10.0056 3.20465 10.2191 4.11124 10.2191 5.07613C10.2191 5.27689 10.207 5.47758 10.183 5.67822C10.1589 5.87898 10.1168 6.0757 10.0567 6.26839C10.7062 5.63011 11.4549 5.15441 12.3028 4.84129C13.1508 4.52817 14.0258 4.34151 14.9278 4.28129C14.9278 5.13634 14.7384 5.94323 14.3595 6.70194C13.9807 7.46065 13.4845 8.12903 12.8711 8.7071C12.6667 8.88774 12.4472 9.05032 12.2126 9.19484C11.9781 9.33935 11.7345 9.45978 11.482 9.55613C12.1314 9.56817 12.7539 9.69763 13.3492 9.94452C13.9446 10.1914 14.4948 10.5135 15 10.911C14.5189 11.3445 13.9777 11.6787 13.3763 11.9135C12.7749 12.1484 12.1495 12.2658 11.5 12.2658C10.9107 12.2658 10.3484 12.1514 9.81314 11.9226C9.27792 11.6938 8.75773 11.4228 8.25258 11.1097V14H7.74742ZM7.0799 9.84516C6.94759 9.23097 6.75816 8.63183 6.5116 8.04774C6.26503 7.46366 5.91323 6.96086 5.45619 6.53935C4.91495 6.05763 4.31959 5.67828 3.6701 5.40129C3.02062 5.1243 2.34107 4.93763 1.63144 4.84129C1.73969 5.5157 1.94716 6.15398 2.25387 6.75613C2.56057 7.35828 2.968 7.88817 3.47616 8.34581C3.96628 8.80344 4.52405 9.14065 5.14948 9.35742C5.77491 9.57419 6.41838 9.73677 7.0799 9.84516ZM4.47294 11.76C4.936 11.76 5.38703 11.6877 5.82603 11.5432C6.26503 11.3987 6.67698 11.206 7.06186 10.9652C6.65905 10.7243 6.24561 10.5135 5.82152 10.3329C5.39755 10.1523 4.95145 10.0619 4.48322 10.0619C4.01511 10.0619 3.55807 10.1402 3.11209 10.2968C2.66623 10.4533 2.24485 10.6641 1.84794 10.929C2.24485 11.1819 2.66581 11.3837 3.11082 11.5342C3.55584 11.6847 4.00988 11.76 4.47294 11.76ZM8 9.41161C8.45704 8.74925 8.85696 8.05834 9.19974 7.33889C9.54253 6.61944 9.71392 5.86519 9.71392 5.07613C9.71392 4.28707 9.54253 3.53282 9.19974 2.81337C8.85696 2.09392 8.45704 1.40903 8 0.75871C7.5189 1.40903 7.11297 2.09392 6.78222 2.81337C6.45146 3.53282 6.28608 4.28707 6.28608 5.07613C6.28608 5.87097 6.45447 6.62968 6.79124 7.35226C7.12801 8.07484 7.53093 8.76129 8 9.41161ZM8.90206 9.84516C9.56357 9.73677 10.207 9.57419 10.8325 9.35742C11.4579 9.14065 12.0157 8.80344 12.5058 8.34581C13.014 7.88817 13.4214 7.35828 13.7281 6.75613C14.0348 6.15398 14.2483 5.5157 14.3686 4.84129C13.6469 4.93763 12.9613 5.12129 12.3119 5.39226C11.6624 5.66323 11.067 6.04559 10.5258 6.53935C10.0567 6.96086 9.70189 7.46366 9.46134 8.04774C9.22079 8.63183 9.03436 9.23097 8.90206 9.84516ZM11.509 11.76C11.9721 11.76 12.4291 11.6908 12.8802 11.5523C13.3312 11.4138 13.7552 11.2181 14.1521 10.9652C13.7431 10.7123 13.3192 10.4985 12.8802 10.3239C12.4412 10.1492 11.9811 10.0619 11.5 10.0619C11.0445 10.0619 10.5999 10.1523 10.1662 10.3329C9.73238 10.5135 9.32302 10.7243 8.93814 10.9652C9.32302 11.206 9.73196 11.3987 10.1649 11.5432C10.5979 11.6877 11.046 11.76 11.509 11.76Z" fill="#83B59F"/>
</svg>
