<svg width="16" height="14" viewBox="0 0 16 14" fill="none" xmlns="http://www.w3.org/2000/svg">
<path d="M7.1602 14C7.00934 14 6.85727 13.9698 6.70399 13.9095C6.55072 13.8491 6.4128 13.7586 6.29023 13.6379L1.36207 8.70977C1.23615 8.58506 1.14429 8.4474 1.08649 8.29681C1.02883 8.14622 1 7.99301 1 7.83718C1 7.68136 1.02883 7.52681 1.08649 7.37354C1.14429 7.22026 1.23615 7.08234 1.36207 6.95977L7.95977 0.362069C8.07107 0.251437 8.20256 0.1634 8.35422 0.0979597C8.50602 0.0326532 8.66285 0 8.82471 0H13.773C14.1216 0 14.4133 0.120153 14.648 0.360459C14.8827 0.600766 15 0.889617 15 1.22701V6.17529C15 6.34211 14.9698 6.50115 14.9095 6.65241C14.8491 6.80368 14.7586 6.93295 14.6379 7.04023L8.02012 13.6379C7.89943 13.7586 7.76365 13.8491 7.61279 13.9095C7.46193 13.9698 7.31106 14 7.1602 14ZM6.69253 13.2356C6.82663 13.3697 6.9842 13.4368 7.16523 13.4368C7.34626 13.4368 7.50383 13.3697 7.63793 13.2356L14.2557 6.63793C14.3228 6.57088 14.3697 6.49713 14.3966 6.41667C14.4234 6.33621 14.4368 6.25575 14.4368 6.17529V1.22701C14.4368 1.03927 14.3731 0.885058 14.2457 0.764368C14.1183 0.643678 13.9607 0.583333 13.773 0.583333H8.56322L1.76437 7.36207C1.63027 7.49617 1.56322 7.65374 1.56322 7.83477C1.56322 8.01581 1.63027 8.17337 1.76437 8.30747L6.69253 13.2356ZM12.3649 3.31897C12.5605 3.31897 12.7267 3.25245 12.8636 3.11943C13.0005 2.98653 13.069 2.82508 13.069 2.63506C13.069 2.43954 13.0013 2.27332 12.866 2.13641C12.7307 1.99949 12.5664 1.93103 12.3732 1.93103C12.18 1.93103 12.0163 1.99869 11.8822 2.13399C11.7481 2.2693 11.681 2.43357 11.681 2.62681C11.681 2.82005 11.7475 2.98372 11.8806 3.11782C12.0135 3.25192 12.1749 3.31897 12.3649 3.31897Z" fill="#83B59F"/>
</svg>
