<svg width="16" height="14" viewBox="0 0 16 14" fill="none" xmlns="http://www.w3.org/2000/svg">
<path d="M0.801291 13C0.715925 13 0.644333 12.9708 0.586514 12.9125C0.528838 12.8541 0.5 12.7818 0.5 12.6955C0.5 12.6448 0.51076 12.5963 0.532281 12.5502C0.553802 12.5041 0.586083 12.4675 0.629125 12.4403L7.68795 7.04478V5.43284C7.68795 5.34403 7.71736 5.26963 7.77618 5.20963C7.83501 5.14948 7.90603 5.1194 7.98924 5.1194C8.44835 5.1194 8.84648 4.94761 9.18364 4.60403C9.5208 4.2603 9.68938 3.84985 9.68938 3.37269C9.68938 2.89537 9.52618 2.48507 9.19978 2.14179C8.87339 1.79851 8.47704 1.62687 8.01076 1.62687C7.55165 1.62687 7.15351 1.79448 6.81636 2.1297C6.4792 2.46493 6.31062 2.87194 6.31062 3.35075H5.70803C5.70803 2.69403 5.93042 2.13806 6.37518 1.68284C6.81994 1.22761 7.36514 1 8.01076 1C8.65638 1 9.19799 1.22761 9.63558 1.68284C10.0732 2.13806 10.292 2.70149 10.292 3.37313C10.292 3.98507 10.1019 4.51119 9.72166 4.95149C9.34146 5.39179 8.86442 5.64925 8.29053 5.72388V7.04478L15.3709 12.4403C15.4139 12.4661 15.4462 12.501 15.4677 12.5451C15.4892 12.5891 15.5 12.637 15.5 12.6888C15.5 12.7769 15.4711 12.8507 15.4133 12.9104C15.3556 12.9701 15.2841 13 15.1987 13H0.801291ZM1.74821 12.3731H14.2518L7.98924 7.60448L1.74821 12.3731Z" fill="#83B59F"/>
</svg>
