<svg width="16" height="14" viewBox="0 0 16 14" fill="none" xmlns="http://www.w3.org/2000/svg">
<path d="M7.72008 13.4352C7.83591 13.4352 7.95495 13.4083 8.07722 13.3545C8.19948 13.3007 8.29923 13.2334 8.37645 13.1527L14.3031 6.95965C14.509 6.74448 14.6699 6.5293 14.7857 6.31412C14.9015 6.09894 14.9595 5.85687 14.9595 5.5879C14.9595 5.31892 14.9015 5.05668 14.7857 4.80115C14.6699 4.54563 14.509 4.31028 14.3031 4.0951L11.5232 1.1902C11.3172 0.975024 11.1113 0.817003 10.9054 0.716138C10.6995 0.615274 10.4678 0.564842 10.2104 0.564842C9.95302 0.564842 9.71815 0.615274 9.50579 0.716138C9.29344 0.817003 9.09073 0.975024 8.89768 1.1902L8.08687 2.03746L9.51544 3.53026C9.65701 3.67819 9.76319 3.8463 9.83398 4.03458C9.90476 4.22286 9.94015 4.41114 9.94015 4.59942C9.94015 4.97598 9.82432 5.2853 9.59266 5.52738C9.361 5.76945 9.06499 5.89049 8.70463 5.89049C8.52445 5.89049 8.34749 5.86359 8.17375 5.8098C8 5.756 7.84234 5.65514 7.70077 5.5072L6.21429 3.95389L2.89382 7.42363C2.80373 7.51777 2.73616 7.62536 2.69112 7.7464C2.64607 7.86743 2.62355 7.98847 2.62355 8.10951C2.62355 8.32469 2.6879 8.49952 2.8166 8.63401C2.9453 8.76849 3.11261 8.83574 3.31853 8.83574C3.43436 8.83574 3.55341 8.80884 3.67568 8.75504C3.79794 8.70125 3.89768 8.63401 3.9749 8.55331L6.36873 6.05187L6.75483 6.45533L4.361 8.95677C4.27091 9.05091 4.20335 9.1585 4.1583 9.27954C4.11326 9.40058 4.09073 9.52161 4.09073 9.64265C4.09073 9.84438 4.1583 10.0159 4.29344 10.1571C4.42857 10.2983 4.59266 10.3689 4.78571 10.3689C4.90154 10.3689 5.02059 10.342 5.14286 10.2882C5.26512 10.2344 5.36486 10.1671 5.44208 10.0865L8.06757 7.34294L8.45367 7.7464L5.82819 10.4899C5.75097 10.5706 5.68661 10.6748 5.63514 10.8026C5.58365 10.9304 5.55791 11.0548 5.55791 11.1758C5.55791 11.3775 5.62548 11.549 5.76062 11.6902C5.89575 11.8314 6.05985 11.902 6.2529 11.902C6.36873 11.902 6.48456 11.8785 6.60039 11.8314C6.71622 11.7843 6.81918 11.7137 6.90927 11.6196L9.53475 8.87608L9.92085 9.27954L7.29537 12.0231C7.20528 12.1172 7.13771 12.2315 7.09266 12.366C7.04762 12.5005 7.0251 12.6215 7.0251 12.7291C7.0251 12.9443 7.09588 13.1158 7.23745 13.2435C7.37902 13.3713 7.5399 13.4352 7.72008 13.4352ZM7.72008 14C7.34685 14 7.03153 13.8521 6.77413 13.5562C6.51673 13.2603 6.42021 12.8972 6.48456 12.4669C6.04698 12.4938 5.6834 12.3727 5.39382 12.1037C5.10425 11.8348 4.97876 11.4448 5.01737 10.9337C4.52831 10.9606 4.14865 10.8329 3.87838 10.5504C3.60811 10.268 3.49871 9.88473 3.55019 9.40058C3.13835 9.42747 2.79086 9.32997 2.50772 9.10807C2.22458 8.88617 2.08301 8.55331 2.08301 8.10951C2.08301 7.92123 2.1184 7.72959 2.18919 7.53458C2.25997 7.33958 2.36615 7.16811 2.50772 7.02017L6.21429 3.14697L8.04826 5.0634C8.12548 5.14409 8.21879 5.21134 8.32819 5.26513C8.43758 5.31892 8.56306 5.34582 8.70463 5.34582C8.88481 5.34582 9.04569 5.27858 9.18726 5.14409C9.32883 5.00961 9.39961 4.83477 9.39961 4.6196C9.39961 4.47166 9.37387 4.34054 9.32239 4.22622C9.27091 4.11191 9.20656 4.01441 9.12934 3.93372L6.50386 1.1902C6.29794 0.975024 6.0888 0.817003 5.87645 0.716138C5.66409 0.615274 5.42921 0.564842 5.17181 0.564842C4.91441 0.564842 4.68597 0.615274 4.48649 0.716138C4.287 0.817003 4.0843 0.975024 3.87838 1.1902L1.639 3.53026C1.45882 3.71854 1.31403 3.9438 1.20463 4.20605C1.09524 4.4683 1.04054 4.74063 1.04054 5.02305C1.04054 5.21134 1.05985 5.38953 1.09846 5.55764C1.13707 5.72574 1.19498 5.88377 1.2722 6.0317L0.84749 6.4755C0.74453 6.28722 0.660875 6.06532 0.596525 5.8098C0.532175 5.55427 0.5 5.29203 0.5 5.02305C0.5 4.65994 0.56435 4.31364 0.69305 3.98415C0.82175 3.65466 1.00837 3.36215 1.2529 3.10663L3.47297 0.786744C3.73037 0.517771 3.99743 0.319404 4.27413 0.191643C4.55084 0.0638809 4.8565 0 5.19112 0C5.52574 0 5.82819 0.0638809 6.09846 0.191643C6.36873 0.319404 6.63256 0.517771 6.88996 0.786744L7.70077 1.63401L8.51158 0.786744C8.76898 0.517771 9.03282 0.319404 9.30309 0.191643C9.57336 0.0638809 9.8758 0 10.2104 0C10.545 0 10.8507 0.0638809 11.1274 0.191643C11.4041 0.319404 11.6712 0.517771 11.9286 0.786744L14.6892 3.67147C14.9466 3.94044 15.1461 4.23967 15.2876 4.56916C15.4292 4.89866 15.5 5.23823 15.5 5.5879C15.5 5.93756 15.4292 6.2536 15.2876 6.53602C15.1461 6.81844 14.9466 7.09414 14.6892 7.36311L8.76255 13.5562C8.60811 13.7176 8.44402 13.8319 8.27027 13.8991C8.09652 13.9664 7.91313 14 7.72008 14Z" fill="#83B59F"/>
</svg>
