<svg width="16" height="12" viewBox="0 0 16 12" fill="none" xmlns="http://www.w3.org/2000/svg">
<path d="M6.1092 12V11.4545L7.5977 10.013H2.2069C1.85824 10.013 1.56992 9.9026 1.34195 9.68182C1.11398 9.46104 1 9.18182 1 8.84416V1.16883C1 0.831169 1.11398 0.551948 1.34195 0.331169C1.56992 0.11039 1.85824 0 2.2069 0H13.7931C14.1418 0 14.4301 0.11039 14.658 0.331169C14.886 0.551948 15 0.831169 15 1.16883V8.84416C15 9.18182 14.886 9.46104 14.658 9.68182C14.4301 9.9026 14.1418 10.013 13.7931 10.013H8.4023L9.89081 11.4545V12H6.1092ZM1.56322 8.64935H14.4368V1.16883C14.4368 1.01299 14.3697 0.87013 14.2356 0.74026C14.1015 0.61039 13.954 0.545455 13.7931 0.545455H2.2069C2.04598 0.545455 1.89847 0.61039 1.76437 0.74026C1.63027 0.87013 1.56322 1.01299 1.56322 1.16883V8.64935Z" fill="#83B59F"/>
</svg>
