<svg width="16" height="14" viewBox="0 0 16 14" fill="none" xmlns="http://www.w3.org/2000/svg">
<path d="M5.07955 10.8977C5.20833 10.7689 5.27273 10.6061 5.27273 10.4091C5.27273 10.2121 5.20833 10.0492 5.07955 9.92045C4.95076 9.79167 4.78788 9.72727 4.59091 9.72727C4.39394 9.72727 4.23106 9.79167 4.10227 9.92045C3.97348 10.0492 3.90909 10.2121 3.90909 10.4091C3.90909 10.6061 3.97348 10.7689 4.10227 10.8977C4.23106 11.0265 4.39394 11.0909 4.59091 11.0909C4.78788 11.0909 4.95076 11.0265 5.07955 10.8977ZM5.07955 4.07955C5.20833 3.95076 5.27273 3.78788 5.27273 3.59091C5.27273 3.39394 5.20833 3.23106 5.07955 3.10227C4.95076 2.97348 4.78788 2.90909 4.59091 2.90909C4.39394 2.90909 4.23106 2.97348 4.10227 3.10227C3.97348 3.23106 3.90909 3.39394 3.90909 3.59091C3.90909 3.78788 3.97348 3.95076 4.10227 4.07955C4.23106 4.20833 4.39394 4.27273 4.59091 4.27273C4.78788 4.27273 4.95076 4.20833 5.07955 4.07955ZM8.48864 7.48864C8.61742 7.35985 8.68182 7.19697 8.68182 7C8.68182 6.80303 8.61742 6.64015 8.48864 6.51136C8.35985 6.38258 8.19697 6.31818 8 6.31818C7.80303 6.31818 7.64015 6.38258 7.51136 6.51136C7.38258 6.64015 7.31818 6.80303 7.31818 7C7.31818 7.19697 7.38258 7.35985 7.51136 7.48864C7.64015 7.61742 7.80303 7.68182 8 7.68182C8.19697 7.68182 8.35985 7.61742 8.48864 7.48864ZM11.8977 10.8977C12.0265 10.7689 12.0909 10.6061 12.0909 10.4091C12.0909 10.2121 12.0265 10.0492 11.8977 9.92045C11.7689 9.79167 11.6061 9.72727 11.4091 9.72727C11.2121 9.72727 11.0492 9.79167 10.9205 9.92045C10.7917 10.0492 10.7273 10.2121 10.7273 10.4091C10.7273 10.6061 10.7917 10.7689 10.9205 10.8977C11.0492 11.0265 11.2121 11.0909 11.4091 11.0909C11.6061 11.0909 11.7689 11.0265 11.8977 10.8977ZM11.8977 4.07955C12.0265 3.95076 12.0909 3.78788 12.0909 3.59091C12.0909 3.39394 12.0265 3.23106 11.8977 3.10227C11.7689 2.97348 11.6061 2.90909 11.4091 2.90909C11.2121 2.90909 11.0492 2.97348 10.9205 3.10227C10.7917 3.23106 10.7273 3.39394 10.7273 3.59091C10.7273 3.78788 10.7917 3.95076 10.9205 4.07955C11.0492 4.20833 11.2121 4.27273 11.4091 4.27273C11.6061 4.27273 11.7689 4.20833 11.8977 4.07955ZM2.36364 14C1.9697 14 1.64394 13.8712 1.38636 13.6136C1.12879 13.3561 1 13.0303 1 12.6364V1.36364C1 0.969697 1.12879 0.643939 1.38636 0.386364C1.64394 0.128788 1.9697 0 2.36364 0H13.6364C14.0303 0 14.3561 0.128788 14.6136 0.386364C14.8712 0.643939 15 0.969697 15 1.36364V12.6364C15 13.0303 14.8712 13.3561 14.6136 13.6136C14.3561 13.8712 14.0303 14 13.6364 14H2.36364ZM2.36364 13.3636H13.6364C13.8182 13.3636 13.9848 13.2879 14.1364 13.1364C14.2879 12.9848 14.3636 12.8182 14.3636 12.6364V1.36364C14.3636 1.18182 14.2879 1.01515 14.1364 0.863636C13.9848 0.712121 13.8182 0.636364 13.6364 0.636364H2.36364C2.18182 0.636364 2.01515 0.712121 1.86364 0.863636C1.71212 1.01515 1.63636 1.18182 1.63636 1.36364V12.6364C1.63636 12.8182 1.71212 12.9848 1.86364 13.1364C2.01515 13.2879 2.18182 13.3636 2.36364 13.3636Z" fill="#83B59F"/>
</svg>
