<svg width="16" height="14" viewBox="0 0 16 14" fill="none" xmlns="http://www.w3.org/2000/svg">
<path d="M6.32394 8.67606V5.32394H9.67606V8.67606H6.32394ZM7.01408 7.98592H8.98592V6.01408H7.01408V7.98592ZM5.6831 14V12.6197H3.85915C3.43192 12.6197 3.07864 12.48 2.7993 12.2007C2.51995 11.9214 2.38028 11.5681 2.38028 11.1408V9.3169H1V8.62676H2.38028V5.37324H1V4.6831H2.38028V2.85915C2.38028 2.43192 2.51995 2.07864 2.7993 1.7993C3.07864 1.51995 3.43192 1.38028 3.85915 1.38028H5.6831V0H6.37324V1.38028H9.62676V0H10.3169V1.38028H12.1408C12.5681 1.38028 12.9214 1.51995 13.2007 1.7993C13.48 2.07864 13.6197 2.43192 13.6197 2.85915V4.6831H15V5.37324H13.6197V8.62676H15V9.3169H13.6197V11.1408C13.6197 11.5681 13.48 11.9214 13.2007 12.2007C12.9214 12.48 12.5681 12.6197 12.1408 12.6197H10.3169V14H9.62676V12.6197H6.37324V14H5.6831ZM12.1408 11.9296C12.338 11.9296 12.5188 11.8474 12.6831 11.6831C12.8474 11.5188 12.9296 11.338 12.9296 11.1408V2.85915C12.9296 2.66197 12.8474 2.48122 12.6831 2.3169C12.5188 2.15258 12.338 2.07042 12.1408 2.07042H3.85915C3.66197 2.07042 3.48122 2.15258 3.3169 2.3169C3.15258 2.48122 3.07042 2.66197 3.07042 2.85915V11.1408C3.07042 11.338 3.15258 11.5188 3.3169 11.6831C3.48122 11.8474 3.66197 11.9296 3.85915 11.9296H12.1408Z" fill="#83B59F"/>
</svg>
