<svg width="16" height="14" viewBox="0 0 16 14" fill="none" xmlns="http://www.w3.org/2000/svg">
<path d="M5.18391 3.94253V3.37931H11.6207V3.94253H5.18391ZM5.18391 6.11494V5.55172H11.6207V6.11494H5.18391ZM7.03448 14H2.36782C1.97893 14 1.65374 13.8693 1.39224 13.6078C1.13075 13.3463 1 13.0211 1 12.6322V10.4598H3.41379V0H13.3908V6.07471C13.2835 6.08812 13.1863 6.10489 13.0991 6.125C13.012 6.14512 12.9215 6.16858 12.8276 6.1954V0.563218H3.97701V10.4598H8.12069L7.55747 11.023H1.56322V12.6322C1.56322 12.8602 1.64033 13.0512 1.79454 13.2055C1.94875 13.3597 2.13985 13.4368 2.36782 13.4368H7.03448V14ZM9.04598 14V12.431L13.2902 8.2069C13.3573 8.13985 13.4243 8.09626 13.4914 8.07615C13.5584 8.05604 13.6255 8.04598 13.6925 8.04598C13.7596 8.04598 13.83 8.05939 13.9037 8.08621C13.9775 8.11303 14.0412 8.15326 14.0948 8.2069L14.8391 8.97126C14.8927 9.03831 14.933 9.10536 14.9598 9.17241C14.9866 9.23946 15 9.30651 15 9.37356C15 9.44061 14.9866 9.50766 14.9598 9.57471C14.933 9.64176 14.8927 9.70881 14.8391 9.77586L10.6149 14H9.04598ZM9.6092 13.4368H10.3736L13.2701 10.5402L12.8879 10.158L12.5259 9.75575L9.6092 12.6724V13.4368ZM12.8879 10.158L12.5259 9.75575L13.2701 10.5402L12.8879 10.158Z" fill="#83B59F"/>
</svg>
