<svg width="10" height="10" viewBox="0 0 10 10" fill="none" xmlns="http://www.w3.org/2000/svg">
<path d="M4.81778 7.5H5.1895V4.4242H4.81778V7.5ZM4.9984 3.7172C5.08207 3.7172 5.14942 3.69223 5.20044 3.64227C5.25146 3.59223 5.27697 3.52541 5.27697 3.44184C5.27697 3.35816 5.25199 3.29082 5.20204 3.2398C5.15199 3.18878 5.08518 3.16327 5.0016 3.16327C4.91793 3.16327 4.85058 3.18824 4.79956 3.23819C4.74854 3.28824 4.72303 3.35505 4.72303 3.43863C4.72303 3.5223 4.74801 3.58965 4.79796 3.64067C4.84801 3.69169 4.91482 3.7172 4.9984 3.7172ZM5.0035 10C4.31205 10 3.66156 9.86871 3.05204 9.60612C2.44252 9.34344 1.91229 8.98703 1.46137 8.53688C1.01045 8.08664 0.654179 7.55782 0.392565 6.95044C0.130855 6.34305 0 5.69407 0 5.0035C0 4.31205 0.131293 3.66156 0.393878 3.05204C0.65656 2.44252 1.01297 1.91229 1.46312 1.46137C1.91336 1.01045 2.44218 0.654179 3.04956 0.392565C3.65695 0.130855 4.30593 0 4.9965 0C5.68795 0 6.33844 0.131293 6.94796 0.393878C7.55748 0.65656 8.08771 1.01297 8.53863 1.46312C8.98955 1.91336 9.34582 2.44218 9.60743 3.04956C9.86914 3.65695 10 4.30593 10 4.9965C10 5.68795 9.86871 6.33844 9.60612 6.94796C9.34344 7.55748 8.98703 8.08771 8.53688 8.53863C8.08664 8.98955 7.55782 9.34582 6.95044 9.60743C6.34305 9.86914 5.69407 10 5.0035 10ZM4.99956 9.62828C6.28751 9.62828 7.38095 9.17896 8.27988 8.28032C9.17881 7.38178 9.62828 6.28848 9.62828 5.00044C9.62828 3.71249 9.17896 2.61905 8.28032 1.72012C7.38178 0.821186 6.28848 0.37172 5.00044 0.37172C3.71249 0.37172 2.61905 0.821039 1.72012 1.71968C0.821186 2.61822 0.37172 3.71152 0.37172 4.99956C0.37172 6.28751 0.82104 7.38095 1.71968 8.27988C2.61822 9.17881 3.71152 9.62828 4.99956 9.62828Z" fill="#5E8272"/>
</svg>
