<svg width="16" height="16" viewBox="0 0 16 16" fill="none" xmlns="http://www.w3.org/2000/svg">
<path d="M6.65889 11.3936L12.3615 5.69096L11.93 5.25948L6.65889 10.5306L4.02332 7.89504L3.59184 8.32653L6.65889 11.3936ZM8.0056 16C6.89928 16 5.8585 15.7899 4.88327 15.3698C3.90803 14.9495 3.05967 14.3792 2.33819 13.659C1.61672 12.9386 1.04669 12.0925 0.628105 11.1207C0.209368 10.1489 0 9.11052 0 8.0056C0 6.89928 0.210068 5.8585 0.630204 4.88327C1.0505 3.90803 1.62076 3.05967 2.34099 2.33819C3.06138 1.61672 3.90748 1.04669 4.8793 0.628105C5.85112 0.209368 6.88949 0 7.9944 0C9.10072 0 10.1415 0.210068 11.1167 0.630205C12.092 1.0505 12.9403 1.62076 13.6618 2.34099C14.3833 3.06138 14.9533 3.90748 15.3719 4.8793C15.7906 5.85112 16 6.88949 16 7.9944C16 9.10072 15.7899 10.1415 15.3698 11.1167C14.9495 12.092 14.3792 12.9403 13.659 13.6618C12.9386 14.3833 12.0925 14.9533 11.1207 15.3719C10.1489 15.7906 9.11052 16 8.0056 16ZM7.9993 15.4052C10.06 15.4052 11.8095 14.6863 13.2478 13.2485C14.6861 11.8108 15.4052 10.0616 15.4052 8.0007C15.4052 5.93998 14.6863 4.19048 13.2485 2.75219C11.8108 1.3139 10.0616 0.594752 8.0007 0.594752C5.93998 0.594752 4.19048 1.31366 2.75219 2.75149C1.3139 4.18915 0.594752 5.93843 0.594752 7.9993C0.594752 10.06 1.31366 11.8095 2.75149 13.2478C4.18915 14.6861 5.93843 15.4052 7.9993 15.4052Z" fill="white" fill-opacity="0.6"/>
</svg>
