<svg xmlns="http://www.w3.org/2000/svg" viewBox="318.0 139.0 102.0 102.0" width="102.0" height="102.0"><defs>
<clipPath id="bgblur_0_65_51671_clip_path" transform="translate(-773 -366)"><rect x="823" y="416" width="130" height="130" rx="65"/>
</clipPath><clipPath id="bgblur_1_65_51671_clip_path" transform="translate(-740 -214)"><rect x="790" y="264" width="110" height="110" rx="55"/>
</clipPath><clipPath id="bgblur_2_65_51671_clip_path" transform="translate(-646 -105)"><rect x="696" y="155" width="100" height="100" rx="50"/>
</clipPath><clipPath id="bgblur_3_65_51671_clip_path" transform="translate(-647 -657)"><rect x="697" y="707" width="100" height="100" rx="50"/>
</clipPath><clipPath id="bgblur_4_65_51671_clip_path" transform="translate(-524 -53)"><rect x="574" y="103" width="90" height="90" rx="45"/>
</clipPath><clipPath id="bgblur_5_65_51671_clip_path" transform="translate(-394 -50)"><rect x="444" y="100" width="90" height="90" rx="45"/>
</clipPath><clipPath id="bgblur_6_65_51671_clip_path" transform="translate(-274 -95)"><rect x="324" y="145" width="90" height="90" rx="45"/>
</clipPath><clipPath id="bgblur_7_65_51671_clip_path" transform="translate(-178 -182)"><rect x="228" y="232" width="90" height="90" rx="45"/>
</clipPath><clipPath id="bgblur_8_65_51671_clip_path" transform="translate(-740 -538)"><rect x="790" y="588" width="110" height="110" rx="55"/>
</clipPath><linearGradient id="paint0_linear_65_51671" x1="195" y1="826" x2="886" y2="135" gradientUnits="userSpaceOnUse">
<stop offset="0.4" stop-color="white" stop-opacity="0"/>
<stop offset="1" stop-color="white"/>
</linearGradient>
<linearGradient id="paint1_linear_65_51671" x1="195" y1="826" x2="886" y2="135" gradientUnits="userSpaceOnUse">
<stop offset="0.4" stop-color="white" stop-opacity="0"/>
<stop offset="1" stop-color="white"/>
</linearGradient>
<linearGradient id="paint2_linear_65_51671" x1="823" y1="546" x2="954.307" y2="544.666" gradientUnits="userSpaceOnUse">
<stop stop-color="white" stop-opacity="0"/>
<stop offset="1" stop-color="white"/>
</linearGradient>
<linearGradient id="paint3_linear_65_51671" x1="888" y1="546" x2="888" y2="416" gradientUnits="userSpaceOnUse">
<stop stop-color="white" stop-opacity="0"/>
<stop offset="1" stop-color="white"/>
</linearGradient>
<linearGradient id="paint4_linear_65_51671" x1="0" y1="1000" x2="1000" y2="0" gradientUnits="userSpaceOnUse">
<stop offset="0.4" stop-color="white" stop-opacity="0"/>
<stop offset="0.7" stop-color="white"/>
</linearGradient>
<linearGradient id="paint5_linear_65_51671" x1="790" y1="374" x2="901.106" y2="372.872" gradientUnits="userSpaceOnUse">
<stop stop-color="white" stop-opacity="0"/>
<stop offset="1" stop-color="white"/>
</linearGradient>
<linearGradient id="paint6_linear_65_51671" x1="845" y1="374" x2="845" y2="264" gradientUnits="userSpaceOnUse">
<stop stop-color="white" stop-opacity="0"/>
<stop offset="1" stop-color="white"/>
</linearGradient>
<linearGradient id="paint7_linear_65_51671" x1="696" y1="255" x2="797.005" y2="253.974" gradientUnits="userSpaceOnUse">
<stop stop-color="white" stop-opacity="0"/>
<stop offset="1" stop-color="white"/>
</linearGradient>
<linearGradient id="paint8_linear_65_51671" x1="746" y1="255" x2="746" y2="155" gradientUnits="userSpaceOnUse">
<stop stop-color="white" stop-opacity="0"/>
<stop offset="1" stop-color="white"/>
</linearGradient>
<linearGradient id="paint9_linear_65_51671" x1="697" y1="807" x2="798.005" y2="805.974" gradientUnits="userSpaceOnUse">
<stop stop-color="white" stop-opacity="0"/>
<stop offset="1" stop-color="white"/>
</linearGradient>
<linearGradient id="paint10_linear_65_51671" x1="747" y1="807" x2="747" y2="707" gradientUnits="userSpaceOnUse">
<stop stop-color="white" stop-opacity="0"/>
<stop offset="1" stop-color="white"/>
</linearGradient>
<linearGradient id="paint11_linear_65_51671" x1="574" y1="193" x2="664.905" y2="192.077" gradientUnits="userSpaceOnUse">
<stop stop-color="white" stop-opacity="0"/>
<stop offset="1" stop-color="white"/>
</linearGradient>
<linearGradient id="paint12_linear_65_51671" x1="619" y1="193" x2="619" y2="103" gradientUnits="userSpaceOnUse">
<stop stop-color="white" stop-opacity="0"/>
<stop offset="1" stop-color="white"/>
</linearGradient>
<linearGradient id="paint13_linear_65_51671" x1="444" y1="190" x2="534.905" y2="189.077" gradientUnits="userSpaceOnUse">
<stop stop-color="white" stop-opacity="0"/>
<stop offset="1" stop-color="white"/>
</linearGradient>
<linearGradient id="paint14_linear_65_51671" x1="489" y1="190" x2="489" y2="100" gradientUnits="userSpaceOnUse">
<stop stop-color="white" stop-opacity="0"/>
<stop offset="1" stop-color="white"/>
</linearGradient>
<linearGradient id="paint15_linear_65_51671" x1="324" y1="235" x2="414.905" y2="234.077" gradientUnits="userSpaceOnUse">
<stop stop-color="white" stop-opacity="0"/>
<stop offset="1" stop-color="white"/>
</linearGradient>
<linearGradient id="paint16_linear_65_51671" x1="369" y1="235" x2="369" y2="145" gradientUnits="userSpaceOnUse">
<stop stop-color="white" stop-opacity="0"/>
<stop offset="1" stop-color="white"/>
</linearGradient>
<linearGradient id="paint17_linear_65_51671" x1="228" y1="322" x2="318.905" y2="321.077" gradientUnits="userSpaceOnUse">
<stop stop-color="white" stop-opacity="0"/>
<stop offset="1" stop-color="white"/>
</linearGradient>
<linearGradient id="paint18_linear_65_51671" x1="273" y1="322" x2="273" y2="232" gradientUnits="userSpaceOnUse">
<stop stop-color="white" stop-opacity="0"/>
<stop offset="1" stop-color="white"/>
</linearGradient>
<linearGradient id="paint19_linear_65_51671" x1="790" y1="698" x2="901.106" y2="696.872" gradientUnits="userSpaceOnUse">
<stop stop-color="white" stop-opacity="0"/>
<stop offset="1" stop-color="white"/>
</linearGradient>
<linearGradient id="paint20_linear_65_51671" x1="845" y1="698" x2="845" y2="588" gradientUnits="userSpaceOnUse">
<stop stop-color="white" stop-opacity="0"/>
<stop offset="1" stop-color="white"/>
</linearGradient>
</defs><g data-figma-bg-blur-radius="50">
<path d="M356.388 196.214C356.388 198.867 354.29 201.01 351.694 201.01C349.098 201.01 347 198.867 347 196.214C347 193.562 349.098 191.418 351.694 191.418H356.388V196.214ZM358.735 196.214C358.735 193.562 360.833 191.418 363.429 191.418C366.024 191.418 368.122 193.562 368.122 196.214V208.204C368.122 210.856 366.024 213 363.429 213C360.833 213 358.735 210.856 358.735 208.204V196.214Z" fill="#E01E5A"/>
<path d="M363.436 177.372C360.845 177.372 358.75 175.277 358.75 172.686C358.75 170.094 360.845 168 363.436 168C366.028 168 368.122 170.094 368.122 172.686V177.372H363.436ZM363.436 179.75C366.028 179.75 368.122 181.845 368.122 184.436C368.122 187.028 366.028 189.122 363.436 189.122H351.686C349.094 189.122 347 187.028 347 184.436C347 181.845 349.094 179.75 351.686 179.75H363.436Z" fill="#36C5F0"/>
<path d="M382.612 184.436C382.612 181.845 384.71 179.75 387.306 179.75C389.902 179.75 392 181.845 392 184.436C392 187.028 389.902 189.122 387.306 189.122H382.612V184.436ZM380.265 184.436C380.265 187.028 378.167 189.122 375.571 189.122C372.976 189.122 370.878 187.028 370.878 184.436V172.686C370.878 170.094 372.976 168 375.571 168C378.167 168 380.265 170.094 380.265 172.686V184.436Z" fill="#2EB67D"/>
<path d="M375.564 203.408C378.155 203.408 380.25 205.552 380.25 208.204C380.25 210.856 378.155 213 375.564 213C372.972 213 370.878 210.856 370.878 208.204V203.408H375.564ZM375.564 201.01C372.972 201.01 370.878 198.867 370.878 196.214C370.878 193.562 372.972 191.418 375.564 191.418H387.314C389.906 191.418 392 193.562 392 196.214C392 198.867 389.906 201.01 387.314 201.01H375.564Z" fill="#ECB22E"/>
</g></svg>