<svg xmlns="http://www.w3.org/2000/svg" viewBox="817.0 410.0 142.0 142.0" width="142.0" height="142.0"><defs>
<clipPath id="bgblur_0_65_51671_clip_path" transform="translate(-773 -366)"><rect x="823" y="416" width="130" height="130" rx="65"/>
</clipPath><clipPath id="bgblur_1_65_51671_clip_path" transform="translate(-740 -214)"><rect x="790" y="264" width="110" height="110" rx="55"/>
</clipPath><clipPath id="bgblur_2_65_51671_clip_path" transform="translate(-646 -105)"><rect x="696" y="155" width="100" height="100" rx="50"/>
</clipPath><clipPath id="bgblur_3_65_51671_clip_path" transform="translate(-647 -657)"><rect x="697" y="707" width="100" height="100" rx="50"/>
</clipPath><clipPath id="bgblur_4_65_51671_clip_path" transform="translate(-524 -53)"><rect x="574" y="103" width="90" height="90" rx="45"/>
</clipPath><clipPath id="bgblur_5_65_51671_clip_path" transform="translate(-394 -50)"><rect x="444" y="100" width="90" height="90" rx="45"/>
</clipPath><clipPath id="bgblur_6_65_51671_clip_path" transform="translate(-274 -95)"><rect x="324" y="145" width="90" height="90" rx="45"/>
</clipPath><clipPath id="bgblur_7_65_51671_clip_path" transform="translate(-178 -182)"><rect x="228" y="232" width="90" height="90" rx="45"/>
</clipPath><clipPath id="bgblur_8_65_51671_clip_path" transform="translate(-740 -538)"><rect x="790" y="588" width="110" height="110" rx="55"/>
</clipPath><linearGradient id="paint0_linear_65_51671" x1="195" y1="826" x2="886" y2="135" gradientUnits="userSpaceOnUse">
<stop offset="0.4" stop-color="white" stop-opacity="0"/>
<stop offset="1" stop-color="white"/>
</linearGradient>
<linearGradient id="paint1_linear_65_51671" x1="195" y1="826" x2="886" y2="135" gradientUnits="userSpaceOnUse">
<stop offset="0.4" stop-color="white" stop-opacity="0"/>
<stop offset="1" stop-color="white"/>
</linearGradient>
<linearGradient id="paint2_linear_65_51671" x1="823" y1="546" x2="954.307" y2="544.666" gradientUnits="userSpaceOnUse">
<stop stop-color="white" stop-opacity="0"/>
<stop offset="1" stop-color="white"/>
</linearGradient>
<linearGradient id="paint3_linear_65_51671" x1="888" y1="546" x2="888" y2="416" gradientUnits="userSpaceOnUse">
<stop stop-color="white" stop-opacity="0"/>
<stop offset="1" stop-color="white"/>
</linearGradient>
<linearGradient id="paint4_linear_65_51671" x1="0" y1="1000" x2="1000" y2="0" gradientUnits="userSpaceOnUse">
<stop offset="0.4" stop-color="white" stop-opacity="0"/>
<stop offset="0.7" stop-color="white"/>
</linearGradient>
<linearGradient id="paint5_linear_65_51671" x1="790" y1="374" x2="901.106" y2="372.872" gradientUnits="userSpaceOnUse">
<stop stop-color="white" stop-opacity="0"/>
<stop offset="1" stop-color="white"/>
</linearGradient>
<linearGradient id="paint6_linear_65_51671" x1="845" y1="374" x2="845" y2="264" gradientUnits="userSpaceOnUse">
<stop stop-color="white" stop-opacity="0"/>
<stop offset="1" stop-color="white"/>
</linearGradient>
<linearGradient id="paint7_linear_65_51671" x1="696" y1="255" x2="797.005" y2="253.974" gradientUnits="userSpaceOnUse">
<stop stop-color="white" stop-opacity="0"/>
<stop offset="1" stop-color="white"/>
</linearGradient>
<linearGradient id="paint8_linear_65_51671" x1="746" y1="255" x2="746" y2="155" gradientUnits="userSpaceOnUse">
<stop stop-color="white" stop-opacity="0"/>
<stop offset="1" stop-color="white"/>
</linearGradient>
<linearGradient id="paint9_linear_65_51671" x1="697" y1="807" x2="798.005" y2="805.974" gradientUnits="userSpaceOnUse">
<stop stop-color="white" stop-opacity="0"/>
<stop offset="1" stop-color="white"/>
</linearGradient>
<linearGradient id="paint10_linear_65_51671" x1="747" y1="807" x2="747" y2="707" gradientUnits="userSpaceOnUse">
<stop stop-color="white" stop-opacity="0"/>
<stop offset="1" stop-color="white"/>
</linearGradient>
<linearGradient id="paint11_linear_65_51671" x1="574" y1="193" x2="664.905" y2="192.077" gradientUnits="userSpaceOnUse">
<stop stop-color="white" stop-opacity="0"/>
<stop offset="1" stop-color="white"/>
</linearGradient>
<linearGradient id="paint12_linear_65_51671" x1="619" y1="193" x2="619" y2="103" gradientUnits="userSpaceOnUse">
<stop stop-color="white" stop-opacity="0"/>
<stop offset="1" stop-color="white"/>
</linearGradient>
<linearGradient id="paint13_linear_65_51671" x1="444" y1="190" x2="534.905" y2="189.077" gradientUnits="userSpaceOnUse">
<stop stop-color="white" stop-opacity="0"/>
<stop offset="1" stop-color="white"/>
</linearGradient>
<linearGradient id="paint14_linear_65_51671" x1="489" y1="190" x2="489" y2="100" gradientUnits="userSpaceOnUse">
<stop stop-color="white" stop-opacity="0"/>
<stop offset="1" stop-color="white"/>
</linearGradient>
<linearGradient id="paint15_linear_65_51671" x1="324" y1="235" x2="414.905" y2="234.077" gradientUnits="userSpaceOnUse">
<stop stop-color="white" stop-opacity="0"/>
<stop offset="1" stop-color="white"/>
</linearGradient>
<linearGradient id="paint16_linear_65_51671" x1="369" y1="235" x2="369" y2="145" gradientUnits="userSpaceOnUse">
<stop stop-color="white" stop-opacity="0"/>
<stop offset="1" stop-color="white"/>
</linearGradient>
<linearGradient id="paint17_linear_65_51671" x1="228" y1="322" x2="318.905" y2="321.077" gradientUnits="userSpaceOnUse">
<stop stop-color="white" stop-opacity="0"/>
<stop offset="1" stop-color="white"/>
</linearGradient>
<linearGradient id="paint18_linear_65_51671" x1="273" y1="322" x2="273" y2="232" gradientUnits="userSpaceOnUse">
<stop stop-color="white" stop-opacity="0"/>
<stop offset="1" stop-color="white"/>
</linearGradient>
<linearGradient id="paint19_linear_65_51671" x1="790" y1="698" x2="901.106" y2="696.872" gradientUnits="userSpaceOnUse">
<stop stop-color="white" stop-opacity="0"/>
<stop offset="1" stop-color="white"/>
</linearGradient>
<linearGradient id="paint20_linear_65_51671" x1="845" y1="698" x2="845" y2="588" gradientUnits="userSpaceOnUse">
<stop stop-color="white" stop-opacity="0"/>
<stop offset="1" stop-color="white"/>
</linearGradient>
</defs><g data-figma-bg-blur-radius="50">
<path d="M878.12 458.478C878.748 456.829 879.612 455.311 880.895 454.08C886.026 449.08 894.507 450.337 897.989 456.62C900.607 461.384 903.381 466.043 906.078 470.755C910.58 478.582 915.135 486.409 919.585 494.263C923.329 500.833 919.271 509.132 911.837 510.257C907.282 510.938 903.015 508.844 900.659 504.76C896.706 497.875 892.727 490.991 888.774 484.132C888.696 483.975 888.591 483.844 888.486 483.713C888.067 483.373 887.884 482.876 887.622 482.431C885.869 479.342 884.062 476.279 882.308 473.216C881.183 471.227 880.005 469.263 878.879 467.274C877.858 465.494 877.387 463.557 877.439 461.515C877.518 460.468 877.649 459.421 878.12 458.478Z" fill="#3C8BD9"/>
<path d="M878.119 458.478C877.884 459.42 877.674 460.363 877.622 461.358C877.543 463.556 878.093 465.598 879.193 467.509C882.072 472.457 884.952 477.43 887.805 482.404C888.067 482.849 888.276 483.294 888.538 483.713C886.967 486.436 885.397 489.132 883.8 491.854C881.601 495.65 879.402 499.472 877.177 503.268C877.072 503.268 877.046 503.215 877.02 503.137C876.994 502.927 877.072 502.744 877.125 502.535C878.198 498.608 877.308 495.126 874.612 492.142C872.962 490.336 870.868 489.315 868.46 488.975C865.319 488.53 862.544 489.341 860.057 491.305C859.612 491.645 859.324 492.142 858.8 492.404C858.696 492.404 858.643 492.352 858.617 492.273C859.874 490.1 861.104 487.928 862.361 485.755C867.544 476.75 872.727 467.745 877.936 458.766C877.989 458.661 878.067 458.583 878.119 458.478Z" fill="#FABC04"/>
<path d="M858.722 492.352C859.219 491.907 859.69 491.435 860.214 491.017C866.575 485.991 876.13 489.629 877.517 497.587C877.858 499.498 877.674 501.331 877.098 503.163C877.072 503.32 877.046 503.451 876.994 503.608C876.758 504.027 876.549 504.472 876.287 504.891C873.957 508.739 870.528 510.65 866.025 510.362C860.868 509.995 856.811 506.121 856.104 500.99C855.764 498.503 856.261 496.174 857.544 494.027C857.806 493.556 858.12 493.137 858.408 492.666C858.539 492.561 858.486 492.352 858.722 492.352Z" fill="#34A852"/>
<path d="M858.722 492.352C858.617 492.456 858.617 492.64 858.434 492.666C858.408 492.483 858.512 492.378 858.617 492.247L858.722 492.352Z" fill="#FABC04"/>
<path d="M876.995 503.608C876.89 503.425 876.995 503.294 877.099 503.163C877.125 503.189 877.178 503.242 877.204 503.268L876.995 503.608Z" fill="#E1C025"/>
</g></svg>