<svg xmlns="http://www.w3.org/2000/svg" viewBox="222.0 226.0 102.0 102.0" width="102.0" height="102.0"><defs>
<clipPath id="bgblur_0_65_51671_clip_path" transform="translate(-773 -366)"><rect x="823" y="416" width="130" height="130" rx="65"/>
</clipPath><clipPath id="bgblur_1_65_51671_clip_path" transform="translate(-740 -214)"><rect x="790" y="264" width="110" height="110" rx="55"/>
</clipPath><clipPath id="bgblur_2_65_51671_clip_path" transform="translate(-646 -105)"><rect x="696" y="155" width="100" height="100" rx="50"/>
</clipPath><clipPath id="bgblur_3_65_51671_clip_path" transform="translate(-647 -657)"><rect x="697" y="707" width="100" height="100" rx="50"/>
</clipPath><clipPath id="bgblur_4_65_51671_clip_path" transform="translate(-524 -53)"><rect x="574" y="103" width="90" height="90" rx="45"/>
</clipPath><clipPath id="bgblur_5_65_51671_clip_path" transform="translate(-394 -50)"><rect x="444" y="100" width="90" height="90" rx="45"/>
</clipPath><clipPath id="bgblur_6_65_51671_clip_path" transform="translate(-274 -95)"><rect x="324" y="145" width="90" height="90" rx="45"/>
</clipPath><clipPath id="bgblur_7_65_51671_clip_path" transform="translate(-178 -182)"><rect x="228" y="232" width="90" height="90" rx="45"/>
</clipPath><clipPath id="bgblur_8_65_51671_clip_path" transform="translate(-740 -538)"><rect x="790" y="588" width="110" height="110" rx="55"/>
</clipPath><linearGradient id="paint0_linear_65_51671" x1="195" y1="826" x2="886" y2="135" gradientUnits="userSpaceOnUse">
<stop offset="0.4" stop-color="white" stop-opacity="0"/>
<stop offset="1" stop-color="white"/>
</linearGradient>
<linearGradient id="paint1_linear_65_51671" x1="195" y1="826" x2="886" y2="135" gradientUnits="userSpaceOnUse">
<stop offset="0.4" stop-color="white" stop-opacity="0"/>
<stop offset="1" stop-color="white"/>
</linearGradient>
<linearGradient id="paint2_linear_65_51671" x1="823" y1="546" x2="954.307" y2="544.666" gradientUnits="userSpaceOnUse">
<stop stop-color="white" stop-opacity="0"/>
<stop offset="1" stop-color="white"/>
</linearGradient>
<linearGradient id="paint3_linear_65_51671" x1="888" y1="546" x2="888" y2="416" gradientUnits="userSpaceOnUse">
<stop stop-color="white" stop-opacity="0"/>
<stop offset="1" stop-color="white"/>
</linearGradient>
<linearGradient id="paint4_linear_65_51671" x1="0" y1="1000" x2="1000" y2="0" gradientUnits="userSpaceOnUse">
<stop offset="0.4" stop-color="white" stop-opacity="0"/>
<stop offset="0.7" stop-color="white"/>
</linearGradient>
<linearGradient id="paint5_linear_65_51671" x1="790" y1="374" x2="901.106" y2="372.872" gradientUnits="userSpaceOnUse">
<stop stop-color="white" stop-opacity="0"/>
<stop offset="1" stop-color="white"/>
</linearGradient>
<linearGradient id="paint6_linear_65_51671" x1="845" y1="374" x2="845" y2="264" gradientUnits="userSpaceOnUse">
<stop stop-color="white" stop-opacity="0"/>
<stop offset="1" stop-color="white"/>
</linearGradient>
<linearGradient id="paint7_linear_65_51671" x1="696" y1="255" x2="797.005" y2="253.974" gradientUnits="userSpaceOnUse">
<stop stop-color="white" stop-opacity="0"/>
<stop offset="1" stop-color="white"/>
</linearGradient>
<linearGradient id="paint8_linear_65_51671" x1="746" y1="255" x2="746" y2="155" gradientUnits="userSpaceOnUse">
<stop stop-color="white" stop-opacity="0"/>
<stop offset="1" stop-color="white"/>
</linearGradient>
<linearGradient id="paint9_linear_65_51671" x1="697" y1="807" x2="798.005" y2="805.974" gradientUnits="userSpaceOnUse">
<stop stop-color="white" stop-opacity="0"/>
<stop offset="1" stop-color="white"/>
</linearGradient>
<linearGradient id="paint10_linear_65_51671" x1="747" y1="807" x2="747" y2="707" gradientUnits="userSpaceOnUse">
<stop stop-color="white" stop-opacity="0"/>
<stop offset="1" stop-color="white"/>
</linearGradient>
<linearGradient id="paint11_linear_65_51671" x1="574" y1="193" x2="664.905" y2="192.077" gradientUnits="userSpaceOnUse">
<stop stop-color="white" stop-opacity="0"/>
<stop offset="1" stop-color="white"/>
</linearGradient>
<linearGradient id="paint12_linear_65_51671" x1="619" y1="193" x2="619" y2="103" gradientUnits="userSpaceOnUse">
<stop stop-color="white" stop-opacity="0"/>
<stop offset="1" stop-color="white"/>
</linearGradient>
<linearGradient id="paint13_linear_65_51671" x1="444" y1="190" x2="534.905" y2="189.077" gradientUnits="userSpaceOnUse">
<stop stop-color="white" stop-opacity="0"/>
<stop offset="1" stop-color="white"/>
</linearGradient>
<linearGradient id="paint14_linear_65_51671" x1="489" y1="190" x2="489" y2="100" gradientUnits="userSpaceOnUse">
<stop stop-color="white" stop-opacity="0"/>
<stop offset="1" stop-color="white"/>
</linearGradient>
<linearGradient id="paint15_linear_65_51671" x1="324" y1="235" x2="414.905" y2="234.077" gradientUnits="userSpaceOnUse">
<stop stop-color="white" stop-opacity="0"/>
<stop offset="1" stop-color="white"/>
</linearGradient>
<linearGradient id="paint16_linear_65_51671" x1="369" y1="235" x2="369" y2="145" gradientUnits="userSpaceOnUse">
<stop stop-color="white" stop-opacity="0"/>
<stop offset="1" stop-color="white"/>
</linearGradient>
<linearGradient id="paint17_linear_65_51671" x1="228" y1="322" x2="318.905" y2="321.077" gradientUnits="userSpaceOnUse">
<stop stop-color="white" stop-opacity="0"/>
<stop offset="1" stop-color="white"/>
</linearGradient>
<linearGradient id="paint18_linear_65_51671" x1="273" y1="322" x2="273" y2="232" gradientUnits="userSpaceOnUse">
<stop stop-color="white" stop-opacity="0"/>
<stop offset="1" stop-color="white"/>
</linearGradient>
<linearGradient id="paint19_linear_65_51671" x1="790" y1="698" x2="901.106" y2="696.872" gradientUnits="userSpaceOnUse">
<stop stop-color="white" stop-opacity="0"/>
<stop offset="1" stop-color="white"/>
</linearGradient>
<linearGradient id="paint20_linear_65_51671" x1="845" y1="698" x2="845" y2="588" gradientUnits="userSpaceOnUse">
<stop stop-color="white" stop-opacity="0"/>
<stop offset="1" stop-color="white"/>
</linearGradient>
</defs><g data-figma-bg-blur-radius="50">
<path d="M260.227 293.758V276.372L254.835 271.439L250 268.702V290.69C250 292.388 251.376 293.758 253.068 293.758H260.227Z" fill="#4285F4"/>
<path d="M284.773 293.758H291.933C293.63 293.758 295.001 292.383 295.001 290.69V268.702L289.524 271.837L284.773 276.372V293.758Z" fill="#34A853"/>
<path d="M260.228 276.372L259.494 269.579L260.228 263.077L272.501 272.281L284.773 263.077L285.594 269.228L284.773 276.372L272.501 285.577L260.228 276.372Z" fill="#EA4335"/>
<path d="M284.773 263.077V276.372L295.001 268.702V264.611C295.001 260.817 290.669 258.654 287.637 260.929L284.773 263.077Z" fill="#FBBC04"/>
<path d="M250 268.702L254.704 272.23L260.227 276.372V263.077L257.364 260.929C254.326 258.654 250 260.817 250 264.611V268.702Z" fill="#C5221F"/>
</g></svg>