<svg width="18" height="10" viewBox="0 0 18 10" fill="none" xmlns="http://www.w3.org/2000/svg">
<path d="M15.6786 0C16.5845 5.90706e-05 17.5093 0.67784 18 1.35747H17.9918L10.9036 8.48769C9.8542 9.54342 8.13645 9.54334 7.08704 8.48769L6.4086 7.80533L12.8169 1.35747C12.8261 1.34548 13.0631 1.1128 13.0631 1.1128C13.6802 0.522298 14.4957 0 15.6786 0Z" fill="white"/>
<path d="M9.26129 0C10.1672 0 11.0919 0.677832 11.5827 1.35747L5.79209 7.18398L3.20431 4.5808L6.40769 1.35747C6.41797 1.34399 6.64273 1.11585 6.64572 1.1128C7.26289 0.522294 8.07832 5.33586e-06 9.26129 0Z" fill="white"/>
<path d="M2.86177 0C3.76718 5.09699e-05 4.69241 0.677836 5.18313 1.35747L2.59172 3.96489L1.44508e-05 1.35747C-0.0021796 1.34938 0.246196 1.1128 0.246196 1.1128C0.863318 0.522295 1.6788 0 2.86177 0Z" fill="white"/>
</svg>
