<svg width="18" height="10" viewBox="0 0 18 10" fill="none" xmlns="http://www.w3.org/2000/svg">
<path d="M18 7.10152V7.20426C17.9968 7.23905 17.9937 7.2738 17.991 7.30859C17.9902 7.32146 17.9914 7.33396 17.9937 7.34647C17.9972 7.36717 17.9953 7.38828 17.9883 7.4078C17.9722 7.45116 17.9836 7.49569 17.9941 7.53827C17.998 7.55354 17.9961 7.56953 17.9886 7.58321C17.9867 7.58711 17.9828 7.58946 17.9785 7.58946C17.9738 7.58946 17.9695 7.58711 17.9671 7.58321C17.9656 7.58049 17.9624 7.57891 17.9593 7.57932C17.9562 7.57932 17.9534 7.58126 17.9523 7.58439C17.9417 7.60704 17.9402 7.63246 17.9476 7.65629C17.9554 7.68088 17.9773 7.727 17.9327 7.7313C17.9292 7.73167 17.9257 7.73361 17.9237 7.73674C17.9214 7.73987 17.921 7.74376 17.9222 7.7477L17.9397 7.80628C17.9417 7.81217 17.9386 7.81842 17.9327 7.82037C17.9206 7.82268 17.9089 7.82739 17.8983 7.834C17.8201 7.89262 17.7485 7.95981 17.6852 8.03442C17.6742 8.04733 17.6649 8.06178 17.6574 8.077C17.6003 8.20086 17.5413 8.33097 17.4803 8.46692C17.4611 8.51104 17.4373 8.55245 17.4087 8.59113C17.3528 8.66108 17.2793 8.71576 17.196 8.74933C17.1326 8.7771 17.0673 8.79975 17.0005 8.81773C16.925 8.83762 16.8526 8.8677 16.7854 8.90716C16.769 8.91654 16.7619 8.93257 16.7479 8.94272C16.7436 8.94625 16.7412 8.94508 16.7408 8.9396C16.74 8.9275 16.7412 8.91536 16.7451 8.90367C16.7686 8.83921 16.8061 8.78059 16.8554 8.73257C16.9211 8.66575 16.9864 8.60205 17.0388 8.52395C17.0693 8.47942 17.0865 8.42705 17.0881 8.37314C17.0881 8.36961 17.0861 8.36648 17.083 8.36453C17.0775 8.36141 17.072 8.36376 17.0673 8.37156C17.0091 8.46533 16.9344 8.54778 16.8468 8.61537C16.7561 8.68527 16.6559 8.7255 16.541 8.75404C16.4839 8.7689 16.428 8.78684 16.3732 8.80836C16.313 8.83218 16.2563 8.86381 16.2043 8.90209C16.1906 8.91187 16.1867 8.90911 16.1926 8.89312C16.2047 8.86109 16.2168 8.83024 16.2293 8.80052C16.2614 8.72473 16.3267 8.66026 16.4006 8.60753C16.4596 8.56536 16.5179 8.52354 16.575 8.48291C16.5989 8.46574 16.6204 8.44621 16.6395 8.42393C16.6407 8.42275 16.6411 8.42121 16.6411 8.41962C16.6411 8.41808 16.6403 8.41649 16.6391 8.41532C16.6391 8.41532 16.6376 8.41455 16.6368 8.41414C16.6356 8.41414 16.6341 8.41496 16.6341 8.41496C16.6259 8.41885 16.6176 8.42352 16.6102 8.429C16.584 8.44816 16.5582 8.46651 16.5328 8.48486C16.4698 8.52903 16.4002 8.563 16.3267 8.58606C16.2672 8.60518 16.2078 8.62316 16.148 8.63997C16.0733 8.6599 16.0029 8.69388 15.9408 8.73995C15.911 8.76342 15.8856 8.79273 15.8668 8.82553C15.859 8.83921 15.8555 8.83803 15.857 8.8224C15.8574 8.81379 15.8598 8.80559 15.8629 8.79739C15.8821 8.74856 15.8993 8.7091 15.9145 8.67825C15.9587 8.58842 16.0381 8.49971 16.1148 8.43643C16.1386 8.41767 16.164 8.40087 16.1906 8.38605C16.1941 8.38447 16.1937 8.38252 16.1906 8.38093C16.1852 8.37781 16.1785 8.37704 16.1726 8.37939C16.0635 8.41378 15.9529 8.44503 15.85 8.49387C15.7566 8.53722 15.676 8.60481 15.6166 8.68917C15.6001 8.71263 15.5892 8.73959 15.5837 8.76808C15.5833 8.77162 15.5806 8.77474 15.5771 8.77592C15.5751 8.77669 15.5731 8.77628 15.5716 8.77551C15.57 8.77433 15.5692 8.77239 15.5692 8.77085C15.5677 8.74113 15.5708 8.71186 15.5786 8.68332C15.6416 8.46338 15.8031 8.28526 16.0162 8.20045C16.053 8.18682 16.0905 8.17467 16.1284 8.16493C16.1398 8.16181 16.1507 8.15673 16.1601 8.14967C16.2192 8.10554 16.268 8.04887 16.3024 7.98364C16.3404 7.90979 16.3724 7.83323 16.3987 7.75473C16.421 7.6856 16.4507 7.61918 16.4874 7.55703C16.4917 7.55041 16.4909 7.54181 16.4855 7.53633C16.2622 7.30116 16.0588 7.04842 15.8774 6.78001C15.8672 6.76556 15.8582 6.75034 15.85 6.73471C15.8492 6.73312 15.8496 6.73118 15.8512 6.73C15.9634 6.6417 16.0659 6.54132 16.1558 6.43037C16.2504 6.31748 16.329 6.19208 16.3892 6.05731C16.4135 5.99946 16.4338 5.94011 16.4507 5.87955C16.4616 5.84009 16.4612 5.79945 16.4773 5.75999C16.4776 5.75805 16.4776 5.75569 16.4769 5.75374C16.4761 5.7522 16.4745 5.75062 16.4726 5.74985C16.4683 5.74826 16.4635 5.74944 16.4608 5.75333C16.4421 5.7725 16.4253 5.79361 16.4108 5.81585C16.3744 5.87955 16.3333 5.94011 16.288 5.99715C16.0549 6.29089 15.7609 6.5347 15.4148 6.67804C15.3291 6.7136 15.2396 6.73938 15.1481 6.755C15.1434 6.75582 15.1391 6.7589 15.1367 6.76361C15.1348 6.76828 15.1348 6.7734 15.1375 6.77766C15.1497 6.79641 15.1602 6.81634 15.1692 6.83668C15.1868 6.8847 15.2071 6.932 15.2302 6.97771C15.2373 6.99134 15.2396 7.00697 15.2376 7.02224C15.2373 7.02654 15.2353 7.02731 15.2321 7.0246C15.2263 7.02029 15.2212 7.0144 15.2173 7.00815C15.2107 6.99683 15.1981 6.9898 15.1849 6.99057C15.1755 6.99057 15.1661 6.99134 15.1567 6.99334C15.1415 6.99646 15.1367 7.00543 15.1422 7.01988C15.1516 7.04331 15.163 7.06519 15.177 7.08589C15.1931 7.10859 15.2009 7.1359 15.1993 7.16363C15.1989 7.16598 15.1974 7.16834 15.195 7.16911C15.1927 7.16988 15.1899 7.16911 15.1884 7.16757C15.1762 7.15624 15.1626 7.14687 15.1473 7.14021C15.143 7.13826 15.1383 7.13826 15.1344 7.14021C15.1305 7.14215 15.1274 7.14569 15.1262 7.14999C15.1215 7.16598 15.1231 7.1832 15.1301 7.19765C15.1418 7.22225 15.1524 7.24567 15.1622 7.26914C15.1735 7.29609 15.1946 7.31521 15.1868 7.34764C15.1833 7.36092 15.1794 7.36133 15.1743 7.34841C15.1708 7.33985 15.168 7.33124 15.1653 7.32227C15.1637 7.31756 15.1602 7.31326 15.1555 7.31131C15.1508 7.30896 15.1458 7.30859 15.1406 7.31013C15.1203 7.31756 15.0984 7.33632 15.1004 7.36015C15.1027 7.39218 15.1004 7.4242 15.0933 7.45546C15.0929 7.45741 15.0914 7.45977 15.0898 7.46135C15.0761 7.47073 15.0691 7.48672 15.0715 7.50312C15.0754 7.51562 15.0738 7.52971 15.0667 7.54104C15.0472 7.56835 15.0296 7.5973 15.0147 7.62775C14.9882 7.68088 14.9651 7.7352 14.9452 7.79147C14.9295 7.836 14.9119 7.88207 14.8931 7.9305C14.8689 7.99224 14.8485 8.05512 14.8216 8.11451C14.7606 8.24852 14.6757 8.37002 14.5713 8.47353C14.4356 8.61143 14.2659 8.71105 14.0794 8.76183C14.0336 8.77433 13.982 8.78566 13.9245 8.79585C13.8928 8.80052 13.8608 8.80328 13.8287 8.80441C13.7896 8.80677 13.7211 8.81107 13.6871 8.83567C13.6382 8.87083 13.5835 8.89742 13.5253 8.91341C13.429 8.94077 13.3309 8.96225 13.232 8.97711C13.1573 8.98884 13.0724 9.01385 13.0102 9.05915C13.0079 9.06069 13.0052 9.06069 13.0028 9.05956C13.0005 9.05838 12.9993 9.05561 12.9993 9.0533C13.0036 8.9974 13.072 8.94077 13.1143 8.91382C13.1753 8.87436 13.2406 8.83608 13.291 8.78371C13.3012 8.77316 13.3075 8.75952 13.3094 8.74507C13.3098 8.74271 13.309 8.74077 13.307 8.73918C13.3055 8.738 13.3031 8.73764 13.3008 8.73841C13.2703 8.75132 13.2409 8.76496 13.2128 8.77905C13.0748 8.84858 12.9176 8.87318 12.7666 8.90757C12.7154 8.92161 12.6665 8.94313 12.6208 8.97085C12.5903 8.98802 12.5688 9.01498 12.5375 9.03061C12.5269 9.03573 12.5242 9.03296 12.5297 9.02241C12.5484 8.98608 12.559 8.94779 12.5828 8.91536C12.6521 8.82045 12.7537 8.77008 12.8554 8.713C12.8663 8.70638 12.8656 8.70362 12.8527 8.70362C12.8284 8.70403 12.8041 8.71417 12.7791 8.71535C12.7084 8.71888 12.6376 8.72785 12.5684 8.74231C12.4557 8.76731 12.3533 8.82593 12.2747 8.91028C12.2645 8.92084 12.259 8.93724 12.2469 8.94857C12.2454 8.95015 12.243 8.95015 12.241 8.94938C12.2395 8.94857 12.2383 8.94703 12.2383 8.94467C12.2387 8.8697 12.2825 8.79155 12.3267 8.73175C12.3607 8.68998 12.4045 8.65678 12.4538 8.6349C12.4683 8.62787 12.4854 8.62629 12.5003 8.62044C12.5199 8.61302 12.5195 8.60636 12.4991 8.60128C12.4811 8.59662 12.4628 8.59267 12.4444 8.58955C12.403 8.58642 12.3615 8.59231 12.3228 8.60636C12.2219 8.6392 12.1281 8.69075 12.0463 8.75794C12.0166 8.77982 11.9904 8.80559 11.9689 8.83531C11.9677 8.83762 11.9654 8.83957 11.9623 8.83998C11.9595 8.84075 11.9568 8.83998 11.9544 8.83844C11.9517 8.83649 11.9505 8.83255 11.9517 8.82942C11.9657 8.79114 11.9806 8.75404 11.9959 8.71889C12.0495 8.5876 12.1488 8.48019 12.2755 8.4169C12.3349 8.38564 12.3975 8.36023 12.4616 8.34148C12.5195 8.32548 12.5774 8.30985 12.6356 8.295C12.645 8.29268 12.6532 8.28757 12.6591 8.28018C12.6888 8.24539 12.7236 8.21454 12.7623 8.18953C12.8707 8.11959 12.9864 8.06137 13.0982 7.99967C13.1882 7.94966 13.2875 7.89222 13.347 7.81761C13.3634 7.7969 13.3684 7.76959 13.3598 7.74494C13.3465 7.70082 13.3348 7.65705 13.325 7.61293C13.3004 7.50312 13.2742 7.391 13.2457 7.27693C13.2316 7.21953 13.2159 7.14138 13.1987 7.04136C13.1827 6.95075 13.1721 6.85933 13.1667 6.76715C13.1643 6.72026 13.1659 6.67337 13.1714 6.62689C13.187 6.47531 13.2124 6.34951 13.2472 6.24948C13.2664 6.1948 13.2914 6.12839 13.3223 6.04988C13.3438 5.99556 13.3622 5.94437 13.3774 5.89635C13.3938 5.84516 13.4107 5.79361 13.4275 5.74124C13.4392 5.70568 13.4513 5.66704 13.4642 5.62522C13.4756 5.58812 13.4885 5.54984 13.5026 5.50997C13.5229 5.45335 13.5417 5.40057 13.5589 5.35214C13.5691 5.32365 13.553 5.31658 13.5382 5.299C13.4701 5.2166 13.415 5.124 13.3751 5.02515C13.3556 4.97713 13.3387 4.93102 13.3243 4.88766C13.2934 4.79348 13.2766 4.68802 13.2601 4.58645C13.2433 4.48019 13.2359 4.37276 13.2378 4.26493C13.2378 4.24032 13.2414 4.21571 13.2488 4.19188C13.257 4.17196 13.2684 4.1536 13.2832 4.13758C13.3336 4.07702 13.3915 4.0196 13.4416 3.96256C13.4748 3.92506 13.5096 3.88911 13.5464 3.85552C13.5972 3.80903 13.6453 3.76176 13.6914 3.71332C13.6977 3.70667 13.7036 3.69886 13.7083 3.69066C13.7173 3.67503 13.7141 3.67152 13.6985 3.68089C13.6731 3.69613 13.643 3.7016 13.6183 3.7141C13.5667 3.74105 13.5167 3.77074 13.4678 3.80239C13.3794 3.85982 13.3016 3.91451 13.2343 3.96725C13.1905 4.00006 13.1503 4.03718 13.1139 4.0782C13.0779 4.12078 13.0462 4.16648 13.0196 4.21571C13.0036 4.24501 12.9872 4.27314 12.9696 4.2997C12.9622 4.31181 12.9574 4.31064 12.9563 4.29658C12.9551 4.28212 12.9528 4.26806 12.9497 4.25438C12.9477 4.24579 12.9422 4.23876 12.9344 4.23485C12.927 4.23055 12.9179 4.23017 12.9097 4.23368C12.9066 4.23524 12.9039 4.23759 12.9019 4.24071C12.8843 4.27235 12.864 4.30243 12.8409 4.33017C12.8331 4.33877 12.8284 4.34932 12.8268 4.36064C12.8268 4.36182 12.8253 4.36299 12.8253 4.36299L12.8202 4.36416C12.8202 4.36416 12.8182 4.36416 12.8175 4.36338L12.8171 4.36104C12.8225 4.35127 12.8218 4.33955 12.8151 4.33056C12.7979 4.3126 12.7823 4.31337 12.7682 4.3333C12.753 4.35479 12.7408 4.37784 12.7318 4.40284C12.7217 4.42862 12.7099 4.4544 12.697 4.47902C12.6908 4.49308 12.6787 4.50441 12.6642 4.50988C12.6622 4.51066 12.6599 4.51027 12.6583 4.50871C12.6567 4.50714 12.6564 4.5048 12.6575 4.50285C12.6696 4.47355 12.6794 4.45714 12.6665 4.42315C12.6653 4.42002 12.663 4.41807 12.6599 4.41729C12.6426 4.4126 12.6247 4.41846 12.6133 4.43214C12.5903 4.45714 12.5699 4.48487 12.5367 4.49816C12.4425 4.53526 12.3505 4.5677 12.2602 4.6091C12.1797 4.64661 12.1077 4.67628 12.0452 4.69816C11.9849 4.7181 11.9235 4.73332 11.861 4.74387C11.8394 4.74859 11.8191 4.75715 11.8011 4.77006C11.7554 4.80327 11.7045 4.83375 11.6643 4.87203C11.6263 4.91149 11.5818 4.94393 11.5325 4.96812C11.4074 5.02321 11.2736 5.02049 11.1395 4.99272C11.1332 4.99195 11.127 4.99235 11.1207 4.99471C11.1148 4.99625 11.1094 4.99861 11.1043 5.00173C11.0844 5.01424 11.0632 5.02479 11.0413 5.03376C10.9499 5.0662 10.8509 5.07127 10.7566 5.04744C10.7539 5.04663 10.7516 5.04468 10.7504 5.04196C10.7488 5.03924 10.7488 5.03571 10.7504 5.03299C10.752 5.02986 10.7547 5.02792 10.7582 5.02792C10.8646 5.00096 10.9581 4.93727 11.0226 4.84857C11.0253 4.84508 11.0261 4.84 11.0245 4.83606C11.0226 4.83181 11.019 4.82868 11.0144 4.82786C10.9987 4.82555 10.9827 4.82669 10.9674 4.8318C10.8767 4.86071 10.7832 4.87983 10.6882 4.88884C10.6096 4.89663 10.5306 4.89156 10.4536 4.87357C10.4243 4.86732 10.3969 4.85446 10.3734 4.8357C10.3605 4.82555 10.3625 4.82084 10.3789 4.82279C10.4302 4.82786 10.4841 4.83529 10.5334 4.82474C10.6417 4.80132 10.705 4.72906 10.7746 4.64856C10.7766 4.64661 10.7774 4.64349 10.7774 4.64077C10.777 4.63764 10.7754 4.63529 10.7731 4.63334C10.77 4.63139 10.7664 4.63021 10.7629 4.63057C10.6702 4.63606 10.5795 4.63841 10.4899 4.63723C10.4 4.638 10.3109 4.61848 10.2295 4.5802C10.2092 4.56964 10.1904 4.55678 10.1732 4.54192C10.1564 4.52863 10.1583 4.52472 10.1791 4.5298C10.2807 4.55401 10.3805 4.55909 10.4802 4.5259C10.5647 4.49816 10.6421 4.45167 10.7062 4.39033C10.723 4.37432 10.7395 4.36338 10.7469 4.34033C10.7477 4.3372 10.7469 4.3333 10.7445 4.33096C10.7418 4.32861 10.7383 4.32783 10.7348 4.329C10.6835 4.34697 10.6343 4.37002 10.5811 4.38057C10.5013 4.39698 10.42 4.4001 10.339 4.38994C10.2538 4.37745 10.1728 4.34268 10.1052 4.28915C10.0935 4.28056 10.095 4.27587 10.1091 4.2747C10.1189 4.27392 10.1286 4.27509 10.138 4.27783C10.2405 4.30634 10.3488 4.30634 10.4509 4.27743C10.524 4.25986 10.5955 4.23485 10.664 4.20321C10.7058 4.18368 10.7488 4.16375 10.7927 4.14383C10.8282 4.12742 10.8626 4.10828 10.8998 4.09265C10.9111 4.08796 10.9115 4.08249 10.901 4.07624C10.863 4.05398 10.8388 4.00436 10.8138 3.96647C10.8126 3.9649 10.8126 3.96256 10.8134 3.961C10.8141 3.95904 10.8161 3.95787 10.8181 3.95748C10.9099 3.9485 11.0046 3.93873 11.1031 3.92779C11.1137 3.92779 11.1235 3.92271 11.1301 3.91451C11.1727 3.85396 11.2302 3.80278 11.2846 3.7516C11.3143 3.72387 11.346 3.69496 11.3792 3.66605C11.4695 3.58713 11.554 3.50158 11.6318 3.41055C11.6697 3.3668 11.7042 3.32031 11.7358 3.27226C11.7538 3.24296 11.7663 3.21053 11.7714 3.17694C11.7914 3.0531 11.8129 2.93199 11.8559 2.81401C11.8801 2.74799 11.9001 2.67923 11.9298 2.61556C11.9666 2.53508 12.0014 2.46241 12.0346 2.39639C12.1417 2.18427 12.2724 1.98424 12.4233 1.80024C12.4816 1.72914 12.5563 1.67054 12.6278 1.61233C12.6431 1.59983 12.6606 1.59515 12.6744 1.58186C12.6759 1.5803 12.6763 1.57795 12.6759 1.576C12.6751 1.57405 12.6732 1.57249 12.6708 1.57249C12.611 1.57014 12.5629 1.59202 12.5105 1.62015C12.3779 1.68929 12.2583 1.78071 12.157 1.89049C12.1261 1.92447 12.0956 1.95807 12.0651 1.99127C12.0291 2.02956 11.9814 2.05378 11.9294 2.06042C11.8547 2.07175 11.7761 2.08386 11.6999 2.07371C11.5904 2.05964 11.4766 1.98307 11.387 1.91627C11.3722 1.90729 11.3589 1.89557 11.3483 1.8815C11.3475 1.87994 11.3475 1.87798 11.3483 1.87642C11.3495 1.87486 11.3515 1.87408 11.3534 1.87447C11.4242 1.88619 11.4965 1.8897 11.5684 1.88463C11.5864 1.88306 11.6041 1.87955 11.6216 1.87368C11.6611 1.86236 11.6999 1.8479 11.7374 1.83111C11.7577 1.82095 11.7785 1.81157 11.8 1.80298C11.8082 1.79946 11.8148 1.79321 11.8187 1.7854C11.836 1.74906 11.8508 1.71469 11.8637 1.68148C11.8715 1.66116 11.8883 1.60647 11.8786 1.58498C11.8754 1.57874 11.8703 1.57327 11.8637 1.56936C11.832 1.54866 11.7796 1.52912 11.7061 1.50998C11.6181 1.48732 11.5223 1.46036 11.4375 1.45333C11.3444 1.44591 11.2509 1.44982 11.1591 1.46544C11.1418 1.46779 11.1242 1.46779 11.1071 1.46544C11.1035 1.46505 11.1 1.4674 11.0992 1.4713C11.0969 1.48771 11.1008 1.50451 11.1102 1.51818C11.1344 1.55374 11.1598 1.58928 11.1876 1.62444C11.195 1.63382 11.2001 1.64476 11.2025 1.65648C11.2032 1.66116 11.2017 1.66234 11.1977 1.6596C11.1829 1.64984 11.1688 1.63773 11.1528 1.62952C11.0988 1.601 11.0433 1.56975 10.9862 1.53537C10.9092 1.49044 10.8435 1.42833 10.7938 1.3541C10.7731 1.32285 10.7758 1.29512 10.8028 1.27128C10.8286 1.24784 10.856 1.22636 10.8841 1.20643C10.9823 1.1369 11.0785 1.06892 11.172 1.00251C11.1805 0.99626 11.1888 0.989225 11.1958 0.981021C11.2169 0.956802 11.2181 0.904062 11.2102 0.880233C11.2005 0.849369 11.1907 0.820851 11.1817 0.794676C11.1668 0.753266 11.1579 0.699746 11.1891 0.663804C11.2138 0.634896 11.242 0.608721 11.272 0.585282C11.3115 0.555201 11.3714 0.514181 11.4515 0.463003C11.5055 0.427844 11.5622 0.387997 11.6213 0.343461C11.635 0.332523 11.6408 0.314552 11.6357 0.297363C11.6228 0.237201 11.6201 0.174695 11.6275 0.113361C11.6295 0.0946093 11.6357 0.076248 11.6451 0.0598401C11.6666 0.0227273 11.7065 6.8812e-05 11.7491 0.000459474C11.8023 -0.0018845 11.8551 0.00475678 11.9059 0.0199926C11.9923 0.0469481 12.0694 0.0739041 12.1378 0.100469C12.1621 0.110236 12.1808 0.123909 12.2098 0.119611C12.3236 0.104376 12.4386 0.101641 12.5531 0.112189C12.6227 0.118439 12.6923 0.1243 12.7612 0.128988C12.8069 0.132503 12.8534 0.137973 12.9015 0.145786C12.9457 0.152818 12.9926 0.15985 13.0419 0.166491C13.1037 0.174304 13.1639 0.194228 13.2249 0.208292C13.2718 0.219231 13.3195 0.233295 13.3665 0.247749C13.3853 0.253218 13.4036 0.25986 13.4216 0.268063C13.469 0.291112 13.519 0.309474 13.5698 0.322756C13.6339 0.337601 13.6957 0.356353 13.7595 0.368464C13.8291 0.381355 13.8975 0.398154 13.9648 0.41925C13.9988 0.430188 14.0364 0.444252 14.0774 0.461051C14.1365 0.485663 14.1916 0.519648 14.2401 0.561453C14.2549 0.574341 14.2667 0.59036 14.2737 0.608721C14.2749 0.611457 14.2745 0.614583 14.2722 0.616925C14.2702 0.618878 14.2671 0.619661 14.2643 0.618878C14.2272 0.607548 14.1771 0.594265 14.14 0.604816C14.1337 0.606379 14.129 0.611457 14.1271 0.617315C14.1255 0.623566 14.1271 0.629818 14.1314 0.634507C14.1634 0.668103 14.2045 0.691931 14.2499 0.703261C14.3343 0.729437 14.4176 0.760296 14.4989 0.795849C14.5588 0.820068 14.6151 0.852495 14.6663 0.891563C14.6706 0.894684 14.6738 0.898984 14.6757 0.904062C14.6761 0.905235 14.6761 0.906798 14.6753 0.907577C14.6742 0.908751 14.673 0.90914 14.6714 0.90914C14.6288 0.902109 14.5858 0.897421 14.5427 0.895079C14.5373 0.894684 14.5322 0.897031 14.5291 0.900936C14.522 0.90953 14.524 0.92086 14.5224 0.930627C14.5197 0.949771 14.531 0.968522 14.5494 0.974379C14.5693 0.983367 14.5901 0.989619 14.6116 0.993134C14.6483 0.998992 14.6851 1.00563 14.7226 1.01227C14.7852 1.02283 14.8415 1.05603 14.881 1.10525C14.883 1.1072 14.8837 1.10994 14.883 1.11268C14.8826 1.11541 14.881 1.11776 14.8787 1.11932C14.8712 1.12361 14.8634 1.12635 14.8548 1.12674C14.8204 1.12986 14.7876 1.13377 14.7563 1.13729C14.7531 1.13768 14.7504 1.14002 14.7496 1.14315C14.7453 1.15917 14.7437 1.17596 14.7453 1.19276C14.7457 1.19784 14.7488 1.20214 14.7531 1.20487C14.7864 1.22675 14.8231 1.24394 14.8618 1.25487C15.0046 1.28925 15.1332 1.367 15.2298 1.47795C15.2584 1.51154 15.2846 1.54709 15.308 1.5846C15.3307 1.61975 15.3768 1.70726 15.4472 1.84673C15.5063 1.96237 15.5778 2.07136 15.6612 2.17098C15.7155 2.2374 15.7706 2.30302 15.8261 2.36748C15.877 2.42687 15.9243 2.48351 15.9681 2.53703C16.0733 2.66634 16.1757 2.79878 16.2876 2.92222C16.3744 3.01833 16.4581 3.11873 16.5433 3.21835C16.6012 3.28632 16.6665 3.36836 16.7392 3.46446C16.8409 3.5969 16.9305 3.73793 17.0071 3.88638C17.0271 3.92584 17.047 3.96881 17.0661 4.0153C17.0838 4.0571 17.099 4.09773 17.1119 4.1368C17.1452 4.23602 17.1674 4.31103 17.1796 4.36221C17.1964 4.43448 17.2136 4.50949 17.2308 4.58722C17.2437 4.64466 17.2554 4.70288 17.2656 4.76186C17.2793 4.8396 17.2918 4.91969 17.3074 4.99625C17.3411 5.15916 17.3723 5.32247 17.4009 5.48615C17.4075 5.51546 17.4166 5.54436 17.4287 5.57208C17.4423 5.60647 17.4525 5.6346 17.46 5.65684C17.4991 5.77639 17.5397 5.87837 17.5761 5.9909C17.5858 6.02211 17.6003 6.05142 17.6101 6.08232C17.634 6.15729 17.6558 6.22022 17.6754 6.271C17.7063 6.34992 17.7286 6.43155 17.7603 6.51046C17.7826 6.56632 17.797 6.62725 17.8256 6.68393C17.84 6.71242 17.8534 6.74132 17.8655 6.77027C17.914 6.88276 17.9788 6.9855 18 7.10152ZM11.405 1.13104C11.4132 1.12947 11.4206 1.12674 11.4281 1.12361C11.4836 1.09822 11.5473 1.07009 11.6193 1.03923C11.6427 1.02986 11.66 1.00915 11.6654 0.984541L11.6702 0.964617C11.6764 0.938441 11.6674 0.931411 11.6436 0.94313C11.6111 0.961097 11.5739 0.970085 11.5368 0.968132C11.4957 0.96266 11.4551 0.952503 11.416 0.937658C11.3992 0.931411 11.3847 0.919686 11.3757 0.904062C11.3608 0.880233 11.3515 0.882186 11.3472 0.90953C11.3448 0.927112 11.3456 0.944693 11.3495 0.961881C11.3597 1.01384 11.3663 1.06619 11.3698 1.11893C11.3698 1.12205 11.3717 1.12479 11.3745 1.12635C11.3835 1.13182 11.3949 1.13377 11.405 1.13104Z" fill="black"/>
<path d="M9.27483 5.94017C9.27483 5.93822 9.27601 5.93663 9.27796 5.93663C9.27913 5.93663 9.28067 5.93627 9.28144 5.93509C9.28226 5.93391 9.28262 5.93274 9.28226 5.93115C9.28226 5.93002 9.28262 5.92884 9.28344 5.92803C9.36122 5.85889 9.42537 5.77567 9.4723 5.68272C9.51728 5.58935 9.55833 5.49793 9.57867 5.39559C9.58297 5.3729 9.59783 5.35455 9.5986 5.33113C9.5986 5.32995 9.59783 5.32918 9.59665 5.32836C9.59665 5.32836 9.5947 5.32836 9.59389 5.32918C9.58139 5.34168 9.57083 5.35573 9.56222 5.37136C9.50591 5.47451 9.43162 5.56706 9.34323 5.6448C9.26817 5.71121 9.18799 5.77137 9.10354 5.82492C9.04764 5.86048 8.99287 5.89523 8.93892 5.93038C8.84351 5.99249 8.76373 6.08821 8.68119 6.17025C8.61945 6.23236 8.5408 6.27495 8.45518 6.29293C8.45206 6.29329 8.44934 6.29529 8.44734 6.29801C8.44422 6.30308 8.44304 6.30892 8.44463 6.31481C8.44621 6.32066 8.4497 6.32537 8.45477 6.32809C8.52871 6.35857 8.59829 6.38666 8.66402 6.41208C8.74534 6.44293 8.81533 6.49684 8.86616 6.56719C8.90526 6.61874 8.94671 6.66794 8.99092 6.71483C9.02766 6.75469 9.07537 6.81485 9.09534 6.85939C9.11605 6.90627 9.13249 6.96449 9.12388 7.01681C9.10667 7.11838 9.07382 7.20083 8.99092 7.26801C8.93149 7.31607 8.86929 7.36061 8.80437 7.4016C8.57016 7.54657 8.32535 7.67314 8.07197 7.78096C8.03324 7.79777 7.99532 7.81494 7.957 7.83215C7.90694 7.85517 7.85493 7.87628 7.80333 7.90051C7.72822 7.93449 7.65121 7.9638 7.5722 7.98763C7.49632 8.01341 7.41618 8.02473 7.336 8.0212C7.27697 8.01771 7.22143 8.01264 7.1702 8.00557C7.12444 8.00013 7.08027 7.9845 7.04154 7.9599C7.00362 7.93603 6.97667 7.89462 6.9262 7.89816C6.87148 7.90246 6.81671 7.90989 6.76234 7.92045C6.67672 7.93685 6.59305 7.95365 6.51128 7.97082C6.46711 7.98061 6.42213 7.98722 6.37678 7.99112C6.31109 7.99619 6.28803 7.95401 6.28373 7.89698C6.27979 7.84932 6.28491 7.80126 6.29859 7.75519C6.31304 7.70359 6.33179 7.65362 6.3549 7.60555C6.40573 7.50281 6.47767 7.41216 6.56564 7.33913C6.61611 7.29732 6.67165 7.27585 6.73303 7.25551C6.75609 7.24771 6.78033 7.24341 6.80456 7.24223C6.82726 7.24264 6.84996 7.24771 6.87066 7.25709C6.92579 7.27816 6.97979 7.3028 7.03216 7.33093C7.09631 7.36609 7.162 7.39812 7.22927 7.42625C7.2449 7.43286 7.26053 7.43875 7.27656 7.44342C7.28753 7.44695 7.29849 7.45085 7.30905 7.45515C7.3196 7.45945 7.33052 7.4614 7.34189 7.4614C7.38687 7.46022 7.43181 7.46453 7.47603 7.4735C7.51318 7.48093 7.537 7.50983 7.564 7.5333C7.56636 7.53524 7.56949 7.53719 7.57261 7.53837C7.57651 7.53991 7.58004 7.54304 7.58158 7.54693C7.58235 7.54893 7.58434 7.55047 7.58666 7.55124C7.59803 7.55595 7.61094 7.55436 7.62109 7.54734C7.62892 7.54186 7.63789 7.53837 7.64691 7.53601C7.67545 7.52976 7.70281 7.52079 7.72899 7.50865C7.78182 7.47857 7.81507 7.45868 7.82834 7.44931C7.86313 7.42466 7.90499 7.39223 7.95269 7.35164C8.05046 7.26842 8.12434 7.2141 8.22446 7.16644C8.22876 7.16449 8.23189 7.16019 8.23189 7.15512C8.2323 7.15045 8.22953 7.14574 8.22523 7.14338C8.18147 7.11919 8.13843 7.08947 8.0915 7.07072C8.03324 7.04771 7.9738 7.02737 7.9136 7.00979C7.7959 6.97658 7.65357 6.96055 7.52957 6.93205C7.44944 6.9137 7.37043 6.8969 7.2926 6.87343C7.26836 6.86605 7.24449 6.85626 7.22184 6.84416C7.18193 6.82346 7.14088 6.80235 7.09866 6.78165C6.98015 6.72303 6.85893 6.64298 6.77997 6.54023C6.71541 6.45584 6.69117 6.37221 6.69194 6.26634C6.69276 6.18824 6.70603 6.11086 6.73145 6.03702C6.74513 5.9972 6.7608 5.95811 6.77838 5.91983C6.79519 5.88313 6.81476 5.84444 6.83745 5.80381C6.8992 5.69209 6.95238 5.59053 6.99737 5.4987C7.02749 5.43269 7.05368 5.3647 7.07556 5.29557C7.10061 5.22172 7.11665 5.14516 7.12367 5.06779C7.12874 5.00373 7.13423 4.94864 7.14012 4.90139C7.14048 4.89904 7.14012 4.89668 7.13971 4.89437C7.13894 4.89238 7.13894 4.89043 7.13894 4.88848C7.1393 4.88459 7.13817 4.88418 7.1354 4.88731C7.13305 4.89084 7.13074 4.89437 7.12915 4.89827C7.11312 4.93655 7.09984 4.97601 7.08965 5.01623C7.07869 5.05959 7.06659 5.09986 7.05327 5.13773C6.99814 5.29516 6.92113 5.44438 6.82454 5.58033C6.77018 5.65612 6.7131 5.73078 6.65366 5.80458C6.60161 5.86786 6.5598 5.9394 6.53008 6.01596C6.51481 6.05854 6.50621 6.10307 6.50467 6.14801C6.50113 6.23431 6.50503 6.32106 6.5164 6.40659C6.53008 6.49022 6.57896 6.56366 6.6509 6.60778C6.66499 6.61679 6.66381 6.62146 6.647 6.62146C6.54141 6.62305 6.43585 6.61403 6.33179 6.59451C6.25243 6.57888 6.18751 6.56366 6.13745 6.54843C6.04675 6.52107 5.95878 6.49294 5.87352 6.46404C5.8559 6.45779 5.83674 6.45076 5.8168 6.44333C5.74251 6.41479 5.66432 6.39255 5.59315 6.36795C5.48755 6.33044 5.37765 6.30621 5.26584 6.29565C5.25329 6.29447 5.25252 6.29135 5.26426 6.28591C5.28731 6.27612 5.30847 6.26167 5.32605 6.24369C5.41167 6.15734 5.48207 6.05736 5.53484 5.94796C5.55324 5.90891 5.57163 5.86709 5.58961 5.82215C5.61815 5.74754 5.63732 5.66944 5.64669 5.59012C5.64982 5.56588 5.65489 5.54323 5.6592 5.5194C5.66078 5.51238 5.65961 5.50459 5.65607 5.49834C5.65489 5.49675 5.65295 5.49557 5.651 5.49557C5.64905 5.49598 5.6471 5.49716 5.64633 5.49911C5.63537 5.53073 5.61738 5.55768 5.60406 5.58776C5.55872 5.69209 5.50164 5.79094 5.43359 5.88232C5.29515 6.06597 5.12935 6.22729 4.94125 6.35971C4.81731 6.45036 4.68788 6.53199 4.55297 6.60506C4.48178 6.64216 4.40826 6.67501 4.33319 6.7035C4.24559 6.73635 4.15604 6.76407 4.06532 6.78749C4.01918 6.79963 3.97225 6.8086 3.92493 6.81526C3.78416 6.83556 3.64182 6.86369 3.49713 6.88204C3.38647 6.89613 3.27658 6.91135 3.1667 6.92734C3.11586 6.93477 3.05916 6.9504 3.01576 6.95434C2.94419 6.96095 2.88084 6.95158 2.80381 6.934C2.76119 6.92421 2.71817 6.91683 2.67477 6.91135C2.60868 6.90315 2.54142 6.91058 2.47885 6.93323C2.4245 6.95158 2.37132 6.97386 2.31969 6.99964C2.25909 7.03167 2.19574 7.06605 2.13082 7.10239C2.06904 7.13831 2.00334 7.16721 1.93491 7.18832C1.9001 7.19811 1.86061 7.20943 1.81642 7.22112C1.75816 7.23675 1.70341 7.26529 1.65727 7.30434C1.64358 7.31567 1.63263 7.32976 1.62442 7.34538C1.59626 7.39535 1.58023 7.45125 1.57632 7.50865C1.57241 7.56999 1.56811 7.63133 1.56303 7.69149C1.56107 7.70594 1.56655 7.72003 1.5771 7.72977C1.60682 7.7536 1.63107 7.78368 1.64867 7.8177C1.67838 7.88176 1.69833 7.94074 1.74877 7.99619C1.84106 8.09739 1.922 8.19194 1.99122 8.27946C2.02954 8.3283 2.06474 8.37945 2.09641 8.43299C2.12026 8.47086 2.13473 8.51345 2.13904 8.55798C2.14216 8.59236 2.11557 8.60174 2.09328 8.61891C2.06747 8.63535 2.03775 8.64473 2.00725 8.64587C1.90675 8.65447 1.80547 8.64863 1.70654 8.6287C1.6076 8.6084 1.51024 8.58258 1.41482 8.55055C1.35617 8.52985 1.29985 8.50679 1.2455 8.48183C1.19466 8.45954 1.15087 8.42361 1.11958 8.37827C1.08947 8.33532 1.06914 8.28649 1.05897 8.23489C1.04098 8.11574 1.04216 7.99465 1.0621 7.87551C1.06249 7.87043 1.06483 7.86572 1.06875 7.86223C1.07266 7.85911 1.07774 7.85752 1.08282 7.85829C1.12662 7.85829 1.17002 7.86337 1.21226 7.87274C1.2322 7.87786 1.27991 7.88212 1.29477 7.86495C1.2979 7.86106 1.2979 7.85557 1.29438 7.85204C1.276 7.83446 1.25645 7.81806 1.23611 7.80284C1.17785 7.75985 1.12075 7.71455 1.06562 7.66766C1.06288 7.66531 1.06092 7.66218 1.06014 7.65905C1.0574 7.65008 1.05662 7.64071 1.05819 7.63174C1.06757 7.57901 1.07109 7.52505 1.06875 7.47155C1.06483 7.42194 1.05897 7.36881 1.05076 7.31177C1.04059 7.24577 1.06092 7.17818 1.10628 7.12857C1.15243 7.07385 1.20327 7.02347 1.25879 6.97776C1.44767 6.82382 1.60956 6.68828 1.74447 6.57068C1.81799 6.50934 1.87899 6.43473 1.92435 6.35074C1.93921 6.32183 1.95524 6.29216 1.97323 6.26244C2.0139 6.19408 2.07256 6.13782 2.14295 6.10031C2.20707 6.06479 2.27473 6.03548 2.34472 6.01319C2.40768 5.99408 2.47025 5.97179 2.53242 5.94678C2.65443 5.89794 2.72443 5.81944 2.75375 5.69092C2.76744 5.62958 2.78152 5.56475 2.80146 5.50495C2.82532 5.43306 2.84917 5.35532 2.87341 5.27133C2.88593 5.22838 2.90274 5.18893 2.91369 5.14358C2.94107 5.0252 2.97743 4.90959 3.02201 4.7967C3.06424 4.69473 3.1233 4.60059 3.1972 4.51853C3.22731 4.48494 3.25899 4.4529 3.29223 4.42243C3.32664 4.3904 3.3587 4.35602 3.38842 4.31969C3.38959 4.31812 3.38999 4.31617 3.38959 4.31461C3.38881 4.31266 3.38764 4.31148 3.38568 4.3107C3.35479 4.30172 3.2758 4.34938 3.24608 4.36969C3.06307 4.49353 2.89844 4.66465 2.75219 4.83652C2.63253 4.97755 2.48746 5.15413 2.31735 5.36551C2.23836 5.46395 2.15507 5.56239 2.07295 5.65694C1.95055 5.80032 1.81955 5.93627 1.68073 6.06398C1.61582 6.1226 1.5466 6.17651 1.47426 6.22575C1.4156 6.26634 1.35147 6.29878 1.28421 6.32183C1.1231 6.3742 0.948693 6.36908 0.790712 6.30738C0.696471 6.26947 0.608875 6.21714 0.53145 6.15227C0.344922 5.99679 0.197498 5.7995 0.102084 5.57644C0.0817495 5.52842 0.0606329 5.4702 0.0387344 5.40184C0.0215284 5.34988 0.0101881 5.29597 0.00471348 5.24166C-0.00115218 5.17601 -0.00154323 5.11037 0.00354035 5.04478C0.00588661 5.00337 0.0129254 4.96273 0.0238747 4.92287C0.0316956 4.89668 0.044209 4.86194 0.0614148 4.81894C0.127893 4.65214 0.274143 4.52596 0.439946 4.47126C0.507204 4.44782 0.57681 4.43259 0.64759 4.42634C0.771944 4.41618 0.897076 4.4236 1.01947 4.449C1.04216 4.45407 1.06483 4.45876 1.08791 4.46384C1.1712 4.48142 1.25019 4.51658 1.31901 4.56657C1.40348 4.62673 1.46136 4.72481 1.49577 4.82089C1.51336 4.87054 1.5337 4.91856 1.55677 4.96586C1.58961 5.03422 1.64671 5.06271 1.72805 5.05139C1.78748 5.04396 1.84536 5.0272 1.89971 5.00138C1.91848 4.99318 1.93804 4.98615 1.95759 4.98031C1.95993 4.9799 1.96228 4.98031 1.96384 4.98185C1.9658 4.98344 1.96619 4.98575 1.9658 4.9881C1.93374 5.09986 1.88877 5.22485 1.81603 5.31781C1.74056 5.41471 1.66118 5.49675 1.54269 5.52606C1.39918 5.56122 1.27013 5.53857 1.15595 5.45888C1.06953 5.39872 1.00188 5.31509 0.96121 5.21783C0.938527 5.1651 0.928751 5.10376 0.912719 5.04632C0.909983 5.03694 0.908809 5.0272 0.908809 5.01741C0.909199 5.00686 0.911546 5.00649 0.916239 5.01583C0.942437 5.06779 0.972939 5.1178 1.00735 5.16469C1.09573 5.28347 1.23689 5.37136 1.38823 5.38345C1.43672 5.38699 1.48599 5.38621 1.53448 5.38073C1.54425 5.37996 1.55403 5.37797 1.56381 5.37489C1.57319 5.37213 1.57319 5.36941 1.56342 5.36746C1.53957 5.36393 1.5161 5.35885 1.49264 5.3526C1.42851 5.33308 1.36555 5.31002 1.30415 5.28347C1.21304 5.2432 1.13444 5.17914 1.07657 5.09828C1.02143 5.0252 0.978022 4.94357 0.948304 4.85686C0.946741 4.85215 0.946741 4.84708 0.94752 4.84241C0.948693 4.83734 0.95104 4.83693 0.95417 4.84083C0.987408 4.88459 1.02456 4.92835 1.06523 4.9717C1.16534 5.07952 1.31197 5.18421 1.45627 5.22562C1.50672 5.2393 1.5599 5.23735 1.60917 5.22018C1.62168 5.21624 1.62168 5.21235 1.60917 5.20881C1.49811 5.1776 1.39761 5.11626 1.3198 5.03146C1.28148 4.99046 1.23963 4.94864 1.20639 4.90452C1.14852 4.82637 1.09182 4.74669 1.01713 4.68965C1.00305 4.67792 0.987019 4.66931 0.969813 4.66347C0.880654 4.63692 0.787976 4.62442 0.694908 4.62714C0.53849 4.62949 0.400842 4.68689 0.315203 4.81817C0.292913 4.85491 0.274534 4.89397 0.260457 4.9346C0.251462 4.96038 0.245988 4.98733 0.243251 5.01469C0.233865 5.10022 0.235821 5.18698 0.249507 5.27214C0.254591 5.30612 0.263194 5.3401 0.274534 5.3729C0.290176 5.41784 0.301516 5.46395 0.320286 5.50771C0.378552 5.64833 0.458717 5.77844 0.558431 5.89328C0.599883 5.93899 0.646811 5.97922 0.697254 6.01401C0.748088 6.0507 0.805181 6.07689 0.866185 6.09093C0.954949 6.11009 1.04763 6.10031 1.13014 6.06244C1.20131 6.03118 1.26779 5.99095 1.32801 5.94288C1.38823 5.89446 1.44532 5.8429 1.49889 5.78782C1.62716 5.65653 1.77497 5.49127 1.90323 5.33072C2.11948 5.06077 2.33064 4.81546 2.53712 4.5947C2.69784 4.42321 2.86912 4.26226 3.05017 4.11263C3.26407 3.93527 3.49557 3.78057 3.74153 3.65087C3.80175 3.61923 3.86119 3.59266 3.9222 3.56375C3.98985 3.53172 4.06297 3.5075 4.13141 3.47859C4.15057 3.47078 4.16973 3.46374 4.18967 3.45749C4.23308 3.44382 4.27531 3.42859 4.32028 3.41608C4.34257 3.40984 4.36642 3.40202 4.39223 3.39225C4.42273 3.38171 4.4548 3.37546 4.48765 3.3735C4.73164 3.35514 4.962 3.35514 5.20405 3.35163C5.32646 3.35241 5.44845 3.34459 5.56968 3.32858C5.64044 3.31803 5.7112 3.30631 5.78319 3.2942C5.83909 3.28443 5.89386 3.2692 5.94623 3.24771C6.02329 3.21646 6.10112 3.18794 6.18085 3.15707C6.30094 3.1102 6.42371 3.10316 6.54335 3.08129C6.59812 3.07152 6.64936 3.0641 6.69783 3.05863C6.80108 3.04769 6.90079 3.03324 7.00439 3.0223C7.07986 3.01409 7.13033 3.00823 7.15615 3.00472C7.24413 2.99222 7.32196 2.98245 7.38959 2.97463C7.46035 2.96643 7.51005 2.96057 7.53895 2.95667C7.62226 2.94573 7.7087 2.93791 7.79079 2.92229C7.83536 2.91408 7.87994 2.90549 7.92492 2.89924C8.07628 2.87736 8.22641 2.84532 8.37346 2.80352C8.42429 2.79024 8.47394 2.77227 8.52164 2.75039C8.58502 2.7207 8.6464 2.69141 8.70548 2.6625C8.75041 2.64296 8.79658 2.62656 8.84351 2.61288C8.8908 2.59726 8.93969 2.58593 8.98897 2.57928C9.08945 2.56522 9.19193 2.57382 9.28851 2.60468C9.32448 2.61718 9.36086 2.62499 9.39606 2.64062C9.441 2.66015 9.48403 2.6832 9.52508 2.70938C9.55325 2.72774 9.58256 2.74532 9.61346 2.76251C9.6193 2.76563 9.62673 2.76446 9.63104 2.75977C9.63575 2.75469 9.64082 2.75001 9.6463 2.74571C9.65061 2.74219 9.65256 2.73672 9.65138 2.73125C9.64902 2.71719 9.65804 2.70859 9.66819 2.70039C9.69713 2.67656 9.72921 2.65624 9.76323 2.63984C9.84418 2.60077 9.93175 2.57577 10.0217 2.56679C10.0264 2.566 10.0307 2.56366 10.0335 2.56014C10.0362 2.55624 10.0373 2.55155 10.0366 2.54725C10.0323 2.53553 10.0233 2.52615 10.0119 2.52147C9.99082 2.5117 9.9689 2.50349 9.94625 2.49725C9.79684 2.4574 9.62325 2.47967 9.47814 2.52928C9.47189 2.53123 9.46523 2.53162 9.45898 2.53006C9.45586 2.52928 9.45354 2.52733 9.45237 2.5242C9.45155 2.52147 9.45196 2.51795 9.45432 2.51561C9.50084 2.4574 9.56417 2.41443 9.63575 2.39294C9.68934 2.37614 9.74447 2.3652 9.80037 2.36051C9.85003 2.357 9.90008 2.35661 9.95014 2.35895C9.96305 2.35973 9.965 2.35544 9.95603 2.34606C9.94271 2.33122 9.92668 2.31871 9.90869 2.30973C9.80273 2.26324 9.68422 2.25191 9.57124 2.2773C9.52861 2.28629 9.48363 2.29645 9.43551 2.30895C9.43121 2.31012 9.42967 2.30856 9.43162 2.30426C9.46097 2.23784 9.55873 2.1855 9.63027 2.15893C9.72921 2.1226 9.83086 2.09525 9.93488 2.07729C9.95132 2.07455 9.96813 2.07338 9.98494 2.07416C9.99631 2.07455 9.99862 2.07025 9.99318 2.06088C9.99159 2.05775 9.98888 2.0558 9.98611 2.05424C9.98263 2.05306 9.97986 2.04994 9.97909 2.04642C9.97633 2.03627 9.96854 2.02806 9.95834 2.02532C9.91889 2.01283 9.8778 2.00462 9.83635 2.00111C9.79453 1.99876 9.75385 1.99212 9.71199 1.99212C9.65333 1.99251 9.59507 1.9972 9.53681 2.0054C9.52354 2.00735 9.51022 2.00657 9.49694 2.00345C9.4848 2.00032 9.4848 1.99681 9.49654 1.9929C9.54972 1.97493 9.5986 1.94798 9.65491 1.93469C9.76246 1.90891 9.86371 1.90344 9.97868 1.89836C10.0925 1.89055 10.2067 1.90266 10.3165 1.93352C10.331 1.93743 10.3459 1.93977 10.3608 1.93977C10.367 1.93977 10.3725 1.93626 10.3752 1.93078C10.3779 1.92493 10.3772 1.91829 10.3733 1.9136C10.3244 1.8546 10.2504 1.82101 10.1699 1.78741C10.1566 1.78038 10.1437 1.77218 10.1316 1.7628C10.1269 1.75967 10.1273 1.75811 10.1328 1.75811C10.2008 1.75772 10.2685 1.76788 10.3334 1.78741C10.428 1.81554 10.4949 1.84015 10.5344 1.86203C10.5778 1.88625 10.6188 1.90696 10.6575 1.92493C10.7233 1.95462 10.7948 1.96985 10.8671 1.96946C10.9489 1.96946 11.0334 1.96516 11.112 1.97493C11.1749 1.98275 11.2371 1.99603 11.2977 2.01399C11.3743 2.03704 11.458 2.06478 11.5488 2.09682C11.6109 2.11909 11.6684 2.13784 11.7208 2.15229C11.7966 2.17338 11.8733 2.19292 11.9507 2.20972C11.955 2.21089 11.9578 2.21519 11.957 2.21948C11.9558 2.22378 11.9531 2.22769 11.9495 2.23081C11.9378 2.24253 11.9269 2.25543 11.9167 2.26871C11.8232 2.38903 11.7509 2.52459 11.7032 2.66953C11.6934 2.69883 11.6848 2.72735 11.6766 2.75469C11.6578 2.82267 11.6457 2.89221 11.641 2.96252C11.6344 3.03793 11.6383 3.11371 11.6531 3.18794C11.6637 3.23989 11.5976 3.27974 11.5597 3.30201C11.5053 3.33327 11.4482 3.36022 11.3892 3.38171C11.383 3.38405 11.3763 3.38561 11.3696 3.386C11.3681 3.386 11.3669 3.38561 11.3661 3.38405C11.3653 3.38288 11.3653 3.38131 11.3661 3.38014C11.3743 3.36803 11.3814 3.35514 11.3873 3.34186C11.3966 3.3192 11.3873 3.29186 11.3567 3.29732C11.3188 3.30474 11.2836 3.33287 11.2527 3.35436C11.2429 3.35983 11.2316 3.36178 11.2206 3.36022C11.2171 3.36022 11.2167 3.35866 11.2187 3.35592C11.2335 3.33912 11.2367 3.31529 11.2273 3.29537C11.2261 3.29225 11.2238 3.29029 11.221 3.28912C11.207 3.28404 11.1917 3.28599 11.1796 3.29459C11.1561 3.30982 11.1319 3.3235 11.1065 3.33522C11.1002 3.33834 11.0943 3.34303 11.09 3.34889C11.0732 3.36999 11.0478 3.37507 11.013 3.36374C11.0103 3.36295 11.0087 3.35983 11.0095 3.35671C11.0095 3.35436 11.0114 3.35241 11.0138 3.35163L11.058 3.34069C11.0623 3.33951 11.0658 3.33678 11.0677 3.33287C11.0697 3.32897 11.0697 3.32467 11.0681 3.32076L11.0545 3.28873C11.0513 3.28131 11.0439 3.27662 11.0361 3.27701C11.0075 3.27779 10.9798 3.28404 10.9532 3.29459C10.9426 3.29889 10.9309 3.29967 10.9199 3.29693C10.9156 3.29576 10.9117 3.29341 10.9098 3.28951C10.8941 3.26451 10.8691 3.26177 10.8347 3.2813C10.8285 3.28521 10.8202 3.28404 10.8151 3.27857C10.7404 3.20122 10.6548 3.1352 10.5609 3.08207C10.5168 3.05746 10.4706 3.02933 10.439 2.99065C10.4226 2.97112 10.4061 2.94963 10.3897 2.92737C10.3353 2.85314 10.2489 2.81212 10.1621 2.78555C10.1081 2.76876 10.0534 2.75508 9.99785 2.74454C9.89931 2.72696 9.79802 2.72696 9.69908 2.74375C9.68268 2.7461 9.66859 2.75547 9.65999 2.76915C9.65568 2.77579 9.64825 2.77931 9.64046 2.77891C9.63733 2.77852 9.63575 2.78047 9.63575 2.7836C9.63616 2.78712 9.6377 2.78985 9.64046 2.7918C9.65414 2.80275 9.67136 2.81056 9.6854 2.82228C9.72218 2.85314 9.7597 2.88361 9.79766 2.91369C9.84065 2.94495 9.8864 2.97268 9.93451 2.99612C9.95368 3.00628 9.97284 3.01527 9.99277 3.02386C10.0827 3.06175 10.1727 3.10043 10.263 3.14067C10.3119 3.16294 10.3592 3.1895 10.4042 3.21997C10.4471 3.24849 10.4878 3.28053 10.5257 3.31568C10.6709 3.45203 10.8015 3.60282 10.9156 3.76534C10.9305 3.78604 10.9434 3.80831 10.9536 3.83136C10.9536 3.83136 10.9539 3.83331 10.9532 3.83449L10.9508 3.83605C10.8656 3.84269 10.7811 3.85089 10.6967 3.86027C10.6736 3.863 10.6497 3.86222 10.627 3.86261C10.6255 3.86261 10.6243 3.863 10.6231 3.86378C10.622 3.86496 10.6212 3.86613 10.6212 3.86769C10.6192 3.87941 10.6223 3.89152 10.6294 3.90129C10.665 3.94973 10.699 3.997 10.7326 4.04349C10.7334 4.04466 10.7338 4.04661 10.7334 4.04817C10.7326 4.04974 10.7315 4.05091 10.7303 4.0513C10.6529 4.08178 10.5786 4.10756 10.5062 4.12904C10.4663 4.14076 10.4253 4.14858 10.3838 4.15209C10.2528 4.1642 10.121 4.15327 9.99395 4.11928C9.93293 4.10287 9.87114 4.08959 9.81134 4.07045C9.78941 4.06341 9.76712 4.05794 9.74447 4.05365C9.74135 4.05325 9.73858 4.05404 9.73623 4.05599C9.73428 4.05794 9.7331 4.06068 9.7331 4.0638C9.73392 4.09154 9.76635 4.13061 9.78162 4.15248C9.8348 4.22945 9.9048 4.29351 9.98611 4.33961C10.0147 4.35563 10.0421 4.37399 10.0678 4.3943C10.0753 4.40056 10.0741 4.40329 10.0647 4.40251C9.99549 4.3986 9.92668 4.38923 9.85904 4.37438C9.84106 4.36969 9.82307 4.36266 9.80663 4.35328C9.79648 4.34782 9.78941 4.34899 9.78552 4.3568C9.78239 4.36344 9.78357 4.37125 9.78824 4.37712C9.86688 4.47439 9.96147 4.55719 10.0687 4.62166C10.0901 4.63416 10.1121 4.64512 10.1351 4.65409C10.1867 4.67439 10.2309 4.69237 10.2677 4.708C10.2779 4.7123 10.288 4.71697 10.2982 4.72209C10.3158 4.73147 10.3146 4.73536 10.2947 4.73459C10.2669 4.7326 10.2388 4.73419 10.2114 4.73808C10.1695 4.74705 10.1269 4.75058 10.0839 4.74864C10.0788 4.74864 10.0741 4.75099 10.0714 4.75566C10.069 4.75996 10.069 4.76544 10.0721 4.76975C10.0851 4.7885 10.1015 4.80449 10.1207 4.81659C10.1981 4.86819 10.2818 4.90996 10.3697 4.94085C10.396 4.95023 10.4229 4.95802 10.4503 4.96391C10.4902 4.97093 10.5293 4.98262 10.5664 4.99906C10.5715 5.00178 10.5735 5.00763 10.5711 5.01311C10.5504 5.0561 10.5097 5.0686 10.4683 5.08342C10.4405 5.0932 10.4456 5.12682 10.4726 5.13579C10.5277 5.15336 10.5711 5.17094 10.6 5.1776C10.7197 5.2065 10.8444 5.20686 10.9641 5.17914C11.0157 5.1651 11.0658 5.14634 11.1143 5.12369C11.146 5.11196 11.1804 5.10883 11.2136 5.11468C11.2687 5.12134 11.3243 5.12251 11.3794 5.11821C11.4142 5.11468 11.4502 5.11155 11.4877 5.10883C11.4901 5.10842 11.492 5.10919 11.4936 5.11078C11.4952 5.11196 11.4959 5.11431 11.4959 5.11626C11.4971 5.17914 11.4999 5.24401 11.5042 5.31119C11.5077 5.3651 11.5073 5.44284 11.5034 5.54518C11.4979 5.69445 11.4784 5.85224 11.4815 5.99095C11.4854 6.139 11.4854 6.28355 11.4823 6.42417C11.4788 6.58241 11.4784 6.74532 11.4103 6.88711C11.3916 6.92421 11.3689 6.95941 11.343 6.99221C11.2726 7.08517 11.1983 7.17623 11.1463 7.27974C11.1197 7.33093 11.1014 7.38602 11.0912 7.44306C11.0807 7.50747 11.0779 7.57312 11.083 7.63835C11.0869 7.69656 11.0959 7.75401 11.11 7.81027C11.1245 7.86418 11.1432 7.92434 11.1659 7.99112C11.1784 8.02709 11.1921 8.0626 11.2081 8.09816C11.2289 8.14464 11.2472 8.19153 11.2692 8.23688C11.3434 8.38959 11.4248 8.53845 11.5139 8.68338C11.5296 8.70915 11.5507 8.73103 11.5624 8.7584C11.5632 8.75998 11.5632 8.76193 11.562 8.76347C11.5609 8.76505 11.5589 8.76542 11.557 8.76505C11.5319 8.76034 11.5077 8.75373 11.4834 8.74589C11.3145 8.69157 11.1604 8.59902 11.0334 8.47517C10.9344 8.37867 10.8488 8.26927 10.7796 8.14936C10.7354 8.07316 10.692 7.99778 10.6505 7.92239C10.6419 7.90677 10.6282 7.89426 10.6118 7.88683C10.6091 7.88565 10.6059 7.88565 10.6032 7.88683C10.5692 7.90282 10.5336 7.91614 10.4972 7.92629C10.4069 7.95166 10.3244 7.99972 10.2575 8.06573C10.2422 8.08177 10.2211 8.09037 10.1993 8.08997C10.1007 8.08843 10.0037 8.08566 9.9091 8.08254C9.82307 8.07941 9.73233 8.10288 9.64984 8.13255C9.57201 8.15991 9.493 8.18215 9.41286 8.19937C9.37377 8.20834 9.37531 8.25133 9.33739 8.26614C9.24588 8.30211 9.18019 8.27163 9.09847 8.21106C9.06445 8.18569 9.02807 8.16027 8.98934 8.1345C8.96669 8.11887 8.94557 8.10129 8.926 8.08136C8.86032 8.01495 8.82666 7.92316 8.83372 7.83016C8.83567 7.80207 8.81261 7.79075 8.80478 7.76533C8.78992 7.72121 8.7829 7.67509 8.7829 7.62861C8.78172 7.58132 8.80595 7.53642 8.84623 7.51101C8.88809 7.48328 8.92718 7.45669 8.96392 7.43055C9.01674 7.39304 9.04252 7.34887 9.075 7.28599C9.08868 7.25904 9.10119 7.23168 9.11292 7.20318C9.14146 7.13247 9.17118 7.06565 9.20207 7.00277C9.23061 6.94845 9.26622 6.89844 9.30844 6.8539C9.3585 6.79923 9.31003 6.66327 9.2881 6.59999C9.26699 6.53629 9.23179 6.47808 9.18567 6.42965C9.17041 6.41402 9.15084 6.4027 9.12936 6.39762C9.03355 6.37144 8.93851 6.34956 8.84351 6.33275C8.83685 6.33162 8.83527 6.32809 8.83957 6.3226C8.93579 6.18783 9.06209 6.09641 9.19741 5.99915C9.20833 5.99131 9.21852 5.9765 9.23179 5.97414C9.23456 5.97373 9.23727 5.97219 9.23963 5.97025C9.24665 5.96322 9.2529 5.95616 9.25879 5.94954C9.26151 5.94601 9.26581 5.94447 9.27012 5.94447C9.27247 5.94447 9.27442 5.94252 9.27483 5.94017ZM10.0018 6.41597C10.0412 6.41715 10.08 6.42263 10.1183 6.4316C10.155 6.44216 10.1906 6.45779 10.2235 6.47808C10.2556 6.49684 10.2856 6.51912 10.3134 6.54413C10.3733 6.59686 10.428 6.65544 10.4765 6.71913C10.5473 6.81291 10.6091 6.9133 10.6603 7.01876C10.6759 7.05083 10.6978 7.0801 10.7138 7.11294C10.715 7.11489 10.7166 7.11643 10.719 7.11724C10.7213 7.11801 10.7236 7.11761 10.7256 7.11643C10.7307 7.11412 10.7334 7.10864 10.7322 7.10316C10.7299 7.08481 10.7252 7.06723 10.7236 7.04848C10.7142 6.91995 10.6834 6.79338 10.6329 6.6746C10.6087 6.6168 10.5883 6.57226 10.5719 6.5406C10.5195 6.4398 10.4671 6.339 10.4151 6.23744C10.3748 6.15934 10.3416 6.08273 10.3076 6.00187C10.2822 5.93233 10.261 5.86125 10.2434 5.78936C10.2293 5.7378 10.22 5.68507 10.2153 5.63193C10.202 5.49911 10.2047 5.3651 10.2243 5.23305C10.2325 5.18616 10.243 5.13968 10.2563 5.09438C10.2606 5.07911 10.2634 5.06353 10.2645 5.04749C10.2677 5.03263 10.272 5.01782 10.2779 5.00373C10.2794 4.99825 10.2782 4.99748 10.2739 5.00101C10.2575 5.01311 10.2427 5.02756 10.2297 5.0436C10.1914 5.11662 10.1492 5.18811 10.1175 5.26118C10.0968 5.30884 10.078 5.35496 10.0616 5.39949C10.0409 5.45847 10.0233 5.51822 10.0092 5.57879C9.99354 5.63741 9.98222 5.69717 9.9752 5.75733C9.96464 5.85772 9.96305 5.95892 9.97125 6.05931C9.97597 6.12337 9.99042 6.18665 10.0143 6.24604C10.0162 6.25071 10.0174 6.25583 10.0174 6.26127C10.0174 6.26403 10.0162 6.26675 10.0143 6.2687C10.0119 6.27064 10.0088 6.27146 10.006 6.27105C9.91376 6.25465 9.80545 6.25542 9.71512 6.28704C9.69324 6.29447 9.67172 6.30267 9.65061 6.31246C9.5239 6.37769 9.44806 6.48161 9.42342 6.62459C9.40933 6.70627 9.42537 6.77463 9.45314 6.85001C9.45862 6.86523 9.45549 6.88245 9.44494 6.89495C9.39918 6.94922 9.3542 7.00313 9.31003 7.05668C9.23374 7.15317 9.17861 7.26411 9.14812 7.38289C9.14536 7.39186 9.14617 7.4016 9.15048 7.41021C9.15125 7.4118 9.15242 7.41297 9.15437 7.41297C9.15596 7.41297 9.1575 7.4118 9.15827 7.41062C9.16651 7.39263 9.17118 7.37506 9.18137 7.35825C9.23456 7.26959 9.30767 7.19457 9.39447 7.13908C9.398 7.13559 9.40349 7.13441 9.40815 7.13595C9.41323 7.13713 9.41676 7.14107 9.41794 7.14615C9.43515 7.18325 9.45078 7.218 9.46564 7.24966C9.48675 7.29148 9.51257 7.33093 9.54306 7.36645C9.56222 7.38951 9.58728 7.40672 9.61541 7.41687C9.61894 7.41841 9.62284 7.41764 9.62596 7.41529C9.62873 7.41257 9.63027 7.40867 9.6295 7.40514C9.62442 7.38013 9.61736 7.35553 9.60916 7.3313C9.59588 7.29773 9.5861 7.26294 9.58021 7.22778C9.56693 7.14144 9.56028 7.05432 9.56105 6.9668C9.56105 6.9219 9.56499 6.87737 9.57242 6.83284C9.5986 6.67147 9.65256 6.53711 9.80391 6.45896C9.83286 6.44139 9.86529 6.43006 9.89855 6.42535C9.93293 6.41951 9.96736 6.41638 10.0018 6.41597ZM9.20679 7.71102C9.21422 7.71183 9.22201 7.71102 9.22944 7.70871C9.28031 7.69308 9.33032 7.67432 9.3792 7.65321C9.41952 7.63523 9.46016 7.62159 9.49925 7.60007C9.52625 7.58526 9.55325 7.57194 9.57985 7.55984C9.58882 7.55595 9.59665 7.55006 9.6029 7.54304C9.60562 7.54109 9.6068 7.53796 9.6068 7.53484C9.60644 7.53171 9.60485 7.52899 9.60213 7.52705L9.52077 7.45202C9.51842 7.45008 9.5157 7.44931 9.51298 7.44967C9.51022 7.44967 9.50786 7.45125 9.50632 7.4532C9.46097 7.51142 9.40738 7.56297 9.34795 7.60632C9.31977 7.62703 9.29164 7.64814 9.26387 7.66961C9.24742 7.68057 9.23025 7.68995 9.21186 7.69697C9.2052 7.69969 9.20171 7.70594 9.20248 7.71296L9.20284 7.71337L9.20325 7.71296L9.20443 7.71142L9.20679 7.71102ZM8.87477 7.74893L8.90879 7.74853C8.91155 7.74853 8.91427 7.74735 8.91586 7.7454C8.91858 7.74227 8.92012 7.73879 8.92093 7.73525C8.93149 7.68252 8.94009 7.63446 8.94712 7.59187C8.94947 7.57783 8.94829 7.56297 8.94399 7.54929C8.94281 7.54616 8.94127 7.5458 8.93851 7.54775C8.88378 7.59069 8.88415 7.64737 8.88415 7.70948C8.88415 7.72198 8.88025 7.73407 8.87241 7.74386C8.86969 7.74699 8.87046 7.74893 8.87477 7.74893ZM9.86217 7.80284C9.84613 7.86572 9.84106 7.92706 9.89306 7.97436C9.93529 8.01381 9.99159 8.03529 10.0495 8.03334C10.0561 8.0337 10.0624 8.03175 10.0675 8.02745C10.069 8.02591 10.0702 8.02355 10.0702 8.0212C10.0702 8.01889 10.0694 8.01694 10.0675 8.01535C10.0455 7.99619 10.0237 7.97707 10.001 7.95832C9.94702 7.91302 9.91576 7.85947 9.88681 7.79582C9.88328 7.78762 9.87743 7.78604 9.87 7.79111C9.86606 7.79424 9.86334 7.79813 9.86217 7.80284ZM9.17707 8.13255C9.16964 8.12825 9.16139 8.12476 9.1536 8.12163C9.14966 8.12045 9.14576 8.12163 9.14264 8.12435C9.13992 8.12707 9.13874 8.13101 9.1391 8.1349C9.14069 8.14582 9.14576 8.15602 9.15396 8.16381C9.17512 8.18139 9.19777 8.19701 9.22165 8.21029C9.25331 8.23063 9.29476 8.22669 9.32135 8.20014C9.32566 8.19661 9.3272 8.19076 9.32566 8.18528C9.32448 8.17984 9.31977 8.17554 9.31433 8.17473C9.26699 8.16616 9.22124 8.15207 9.17707 8.13255Z" fill="black"/>
<path d="M12.0681 7.78616C12.0775 7.77873 12.0767 7.77207 12.0654 7.76663C12.0341 7.75059 11.9954 7.73148 11.9496 7.70842C11.923 7.69709 11.8988 7.68106 11.8777 7.66112C11.853 7.63186 11.8222 7.57559 11.8347 7.53419C11.8417 7.51036 11.8495 7.48571 11.8581 7.46034C11.8691 7.42673 11.8417 7.39783 11.8135 7.38297C11.726 7.33767 11.6442 7.28299 11.5691 7.21929C11.5273 7.18337 11.4847 7.14586 11.4417 7.10681C11.4354 7.10092 11.4342 7.09154 11.4389 7.08411C11.473 7.03256 11.5027 6.98449 11.5273 6.93996C11.5516 6.89348 11.5684 6.84311 11.577 6.79074C11.6012 6.66262 11.6122 6.53252 11.6094 6.40205C11.6086 6.37509 11.6091 6.34578 11.6102 6.31412C11.6106 6.27584 11.6071 6.23796 11.6004 6.20045C11.6 6.19851 11.6008 6.19656 11.6028 6.19538C11.6043 6.1942 11.6067 6.1942 11.6082 6.19538C11.6134 6.19887 11.618 6.20317 11.6208 6.20865C11.6622 6.28055 11.7002 6.35163 11.7338 6.42275C11.7557 6.46805 11.7819 6.51376 11.803 6.56101C11.8284 6.61845 11.8597 6.67236 11.8886 6.72981C11.9332 6.81534 11.9844 6.89738 12.0419 6.97512C12.0963 7.05521 12.1713 7.11927 12.259 7.16031C12.2875 7.17476 12.3145 7.19193 12.3395 7.2115C12.386 7.2486 12.4224 7.29703 12.4451 7.35212C12.4854 7.43846 12.4897 7.53613 12.5261 7.62479C12.5651 7.71974 12.5952 7.80296 12.6167 7.87522C12.639 7.94947 12.6613 8.02444 12.6836 8.10023C12.6856 8.10531 12.6832 8.1112 12.6785 8.11314C12.6484 8.12954 12.6246 8.15845 12.5972 8.17838C12.5808 8.1897 12.5628 8.1979 12.5432 8.20298C12.4846 8.21861 12.4236 8.23695 12.3614 8.25806C12.3285 8.26821 12.2965 8.28153 12.266 8.29752C12.2429 8.31003 12.1886 8.34518 12.1635 8.32919C12.0787 8.27329 11.9927 8.20728 11.9352 8.12683C11.9273 8.11351 11.9258 8.09751 11.9312 8.08306C11.943 8.0475 11.9465 8.00922 11.9407 7.97212C11.9324 7.91898 11.9285 7.86507 11.9281 7.81116C11.9281 7.80804 11.9297 7.80527 11.9321 7.80333C11.9563 7.78185 12.0286 7.7881 12.0623 7.7881C12.0642 7.78851 12.0666 7.7877 12.0681 7.78616Z" fill="black"/>
<path d="M5.50821 7.89198C5.50118 7.88455 5.49217 7.87947 5.48243 7.87671C5.44329 7.86616 5.40419 7.85565 5.3655 7.84509C5.30956 7.82946 5.24699 7.78883 5.22783 7.72672C5.21026 7.66927 5.25442 7.58216 5.16917 7.56105C5.11168 7.54895 5.05618 7.52748 5.00572 7.49663C4.94044 7.45323 4.86845 7.40208 4.79026 7.34269C4.72806 7.29426 4.66006 7.25363 4.58772 7.2216C4.55329 7.20674 4.51614 7.19306 4.47625 7.17979C4.43363 7.16611 4.3957 7.15555 4.36167 7.14812C4.25218 7.12352 4.12939 7.1122 4.02264 7.06101C3.9941 7.04891 3.97454 7.02236 3.97102 6.99147C3.96594 6.95477 3.98197 6.93289 4.01912 6.92587C4.09303 6.91219 4.16615 6.89461 4.2381 6.87273C4.26704 6.86412 4.31827 6.84578 4.39179 6.81805C4.44145 6.79966 4.49111 6.77819 4.54115 6.75395C4.64167 6.70593 4.73826 6.65084 4.83131 6.58987C4.88956 6.55122 4.94823 6.51136 5.00807 6.47036C5.0382 6.44848 5.0734 6.43439 5.11055 6.42891C5.17429 6.42229 5.23839 6.42153 5.30213 6.42619C5.34711 6.42932 5.39441 6.44653 5.4398 6.45745C5.4441 6.45822 5.44723 6.46135 5.44877 6.46565C5.45072 6.47267 5.44877 6.4801 5.44329 6.48517C5.33733 6.59807 5.23997 6.69927 5.15825 6.82856C5.14026 6.8571 5.14652 6.88016 5.1684 6.90553C5.21415 6.95944 5.25678 7.01611 5.29628 7.07509C5.34009 7.13915 5.38113 7.19619 5.45973 7.21924C5.50041 7.23098 5.54458 7.23175 5.58409 7.24579C5.6654 7.27356 5.73462 7.32747 5.78196 7.39896C5.8183 7.45364 5.85001 7.51185 5.87578 7.57242C5.89848 7.62551 5.92661 7.6763 5.96027 7.72359C6.02166 7.80599 6.08463 7.88962 6.14914 7.97438C6.20391 8.04628 6.25315 8.12247 6.29696 8.20134C6.32083 8.24316 6.33841 8.28769 6.34937 8.33417C6.35598 8.35841 6.34312 8.38341 6.32001 8.39238C6.24259 8.43071 6.14642 8.43773 6.0588 8.43614C5.96806 8.43419 5.87814 8.42405 5.78899 8.40606C5.71197 8.39007 5.63686 8.3643 5.56569 8.32991C5.53049 8.31233 5.49842 8.28927 5.47029 8.26155C5.43939 8.23183 5.45502 8.183 5.44841 8.14549C5.44605 8.13185 5.44252 8.11853 5.43704 8.10603C5.41439 8.05565 5.39676 8.00328 5.38385 7.94937C5.37724 7.92124 5.40383 7.91386 5.42453 7.9111C5.45113 7.9072 5.47813 7.9033 5.50585 7.89859C5.51133 7.89782 5.51215 7.89547 5.50821 7.89198Z" fill="black"/>
<path d="M7.37438 7.45608C7.38145 7.45839 7.38924 7.45721 7.39667 7.45956C7.39707 7.45956 7.39707 7.45997 7.39667 7.45956C7.37048 7.45802 7.34661 7.45762 7.32509 7.45839C7.32391 7.45839 7.3235 7.45802 7.3235 7.45721C7.3235 7.45607 7.32391 7.45567 7.32509 7.45567C7.33918 7.45685 7.35286 7.45644 7.36695 7.4549C7.3693 7.4549 7.37202 7.45526 7.37438 7.45608Z" fill="black"/>
</svg>
