<svg width="14" height="18" viewBox="0 0 14 18" fill="none" xmlns="http://www.w3.org/2000/svg">
<path d="M9.15405 5.25693C9.37214 5.29049 9.53391 5.47751 9.53391 5.698V6.77169L8.39551 7.85252V5.17794L9.15405 5.25693Z" fill="white"/>
<path d="M9.53391 2.0767V2.51519C9.53391 2.76084 9.3613 2.9718 9.12164 3.02213L8.39551 3.1264V2.0767H9.53391Z" fill="white"/>
<path d="M5.01259 5.25693C5.23068 5.29049 5.39245 5.4775 5.39245 5.698V7.86094L4.25404 6.78245V5.17794L5.01259 5.25693Z" fill="white"/>
<path d="M5.39245 2.0767V2.51519C5.39245 2.76084 5.21995 2.9718 4.98029 3.02213L4.25404 3.1264V2.0767H5.39245Z" fill="white"/>
<path fill-rule="evenodd" clip-rule="evenodd" d="M14 1.34565V5.64522L7.62853 11.7219L12.4015 17.0114H11.1636L10.7298 16.5284L10.3439 16.1006H10.3535L10.3428 16.0994L7.00187 12.3894L3.81789 16.0994H3.64774L3.81672 16.1006L3.48239 16.4912L3.03536 17.0114H1.59866L6.36433 11.7303L0 5.69074V1.36964L2.50571 0.0215323L11.4787 0L14 1.34565ZM10.2181 0.911848L9.76281 0.914305L7.22831 0.920273H7.21872V10.8556L7.22831 10.846L10.9095 7.33492V5.08678C10.8903 4.97037 10.7477 4.22161 10.2001 4.10659L9.77358 4.01789V4.00349L10.2014 3.89934C10.761 3.70162 10.8856 3.13718 10.9095 2.98258V0.911848H10.2181ZM3.0762 0.929869V7.354L6.76338 10.8531L6.75484 5.06712C6.72427 4.89853 6.56943 4.21682 6.05035 4.10776L5.6238 4.01918V4.00478L6.05152 3.90168C6.70101 3.67161 6.76338 2.9442 6.76338 2.9442V0.921444L3.0762 0.929869ZM0.910795 1.91369V5.30012L2.1654 6.49001V1.23788L0.910795 1.91369ZM11.8203 6.46614L13.0893 5.25576V1.89215L11.8203 1.21506V6.46614Z" fill="white"/>
</svg>
