<svg width="78" height="40" viewBox="0 0 78 40" fill="none" xmlns="http://www.w3.org/2000/svg">
<path d="M12.3997 0C7.27382 0 3.74026 2.25097 1.06623 4.79645C1.06623 4.79645 -0.0135148 5.82052 0.000128207 5.85171L11.2303 17.0909L22.4584 5.85171C20.3322 2.92196 16.3231 0 12.3997 0Z" fill="white"/>
<path d="M40.1325 0C35.0067 0 31.473 2.25097 28.7987 4.79645C28.7987 4.79645 27.8126 5.7932 27.7678 5.85174L13.8871 19.7456L25.0998 30.9672L50.1912 5.85174C48.0646 2.92196 44.0577 0 40.1325 0Z" fill="white"/>
<path d="M67.9413 0C62.8152 0 59.2818 2.25097 56.6078 4.79645C56.6078 4.79645 55.5805 5.80099 55.5419 5.85171L27.7742 33.6454L30.7133 36.5869C35.2605 41.1377 42.7035 41.1377 47.2507 36.5869L77.9647 5.85171H78C75.8737 2.92196 71.8666 0 67.9413 0Z" fill="white"/>
</svg>
