<svg width="49" height="40" viewBox="0 0 49 40" fill="none" xmlns="http://www.w3.org/2000/svg">
<path d="M17.3318 31.3548C17.3318 36.1101 13.4519 39.9647 8.66591 39.9647C3.87987 39.9647 0 36.1101 0 31.3548C0 26.5996 3.87987 22.7447 8.66591 22.7447C13.4519 22.7447 17.3318 26.5996 17.3318 31.3548Z" fill="white"/>
<path d="M23.6666 40C25.2997 39.0497 26.7286 37.7893 27.8714 36.2906C29.0143 34.7918 29.8488 33.0837 30.3274 31.2646C30.806 29.4453 30.9192 27.5502 30.6607 25.6875C30.4021 23.8247 29.7768 22.0309 28.8204 20.4082C27.8641 18.7856 26.5954 17.366 25.0869 16.2305C23.5783 15.095 21.8594 14.2658 20.0283 13.7903C18.1973 13.3148 16.2899 13.2023 14.415 13.4592C12.5402 13.7161 10.7347 14.3374 9.10143 15.2876L23.6666 40Z" fill="white"/>
<path fill-rule="evenodd" clip-rule="evenodd" d="M23.5705 0.765808C26.1785 -0.777763 29.5439 0.0856426 31.0871 2.69428L48.2344 31.6793C49.7776 34.288 48.9143 37.654 46.3063 39.1976C43.6984 40.7412 40.3331 39.8776 38.7895 37.2693L21.6424 8.28404C20.0992 5.67542 20.9624 2.30938 23.5705 0.765808Z" fill="white"/>
</svg>
