<svg width="72" height="40" viewBox="0 0 72 40" fill="none" xmlns="http://www.w3.org/2000/svg">
<path d="M0 39.0528C0 39.3843 0 39.5501 0.0644443 39.6767C0.121131 39.7881 0.211584 39.8787 0.322838 39.9354C0.449317 40 0.614887 40 0.946029 40H32.7448C33.0759 40 33.2416 40 33.368 39.9354C33.4792 39.8787 33.5697 39.7881 33.6264 39.6767C33.6909 39.5501 33.6909 39.3843 33.6909 39.0528V31.3092C33.6909 30.9777 33.6909 30.8118 33.6264 30.6852C33.5697 30.5738 33.4792 30.4833 33.368 30.4265C33.2416 30.3619 33.0759 30.3619 32.7448 30.3619H0.946029C0.614887 30.3619 0.449317 30.3619 0.322838 30.4265C0.211584 30.4833 0.121131 30.5738 0.0644443 30.6852C0 30.8118 0 30.9777 0 31.3092V39.0528ZM38.2802 39.0513C38.2802 39.3829 38.2802 39.5487 38.3447 39.6753C38.4013 39.7867 38.4918 39.8772 38.6031 39.934C38.7295 39.9986 38.8951 39.9986 39.2262 39.9986H46.9896C47.3207 39.9986 47.4863 39.9986 47.6127 39.934C47.724 39.8772 47.8144 39.7867 47.8711 39.6753C47.9356 39.5487 47.9356 39.3829 47.9356 39.0513V31.264C47.9356 30.9325 47.9356 30.7666 47.8711 30.6401C47.8144 30.5287 47.724 30.4381 47.6127 30.3813C47.4863 30.3168 47.3207 30.3168 46.9896 30.3168H39.2262C38.8951 30.3168 38.7295 30.3168 38.6031 30.3813C38.4918 30.4381 38.4013 30.5287 38.3447 30.6401C38.2802 30.7666 38.2802 30.9325 38.2802 31.264V39.0513ZM12.0117 24.2011C12.0117 24.5327 12.0117 24.6984 12.0762 24.8251C12.1329 24.9365 12.2234 25.027 12.3346 25.0838C12.461 25.1483 12.6267 25.1483 12.9578 25.1483H32.7392C33.0703 25.1483 33.2359 25.1483 33.3623 25.0838C33.4736 25.027 33.5641 24.9365 33.6208 24.8251C33.6852 24.6984 33.6852 24.5327 33.6852 24.2011V16.0601C33.6852 15.7285 33.6852 15.5627 33.6208 15.4361C33.5641 15.3247 33.4736 15.2341 33.3623 15.1774C33.2359 15.1129 33.0703 15.1129 32.7392 15.1129H12.9578C12.6267 15.1129 12.461 15.1129 12.3346 15.1774C12.2234 15.2341 12.1329 15.3247 12.0762 15.4361C12.0117 15.5627 12.0117 15.7285 12.0117 16.0601V24.2011ZM38.3161 23.9399C38.3161 24.2714 38.3161 24.4373 38.3806 24.5638C38.4373 24.6752 38.5278 24.7658 38.639 24.8226C38.7655 24.8871 38.9311 24.8871 39.2622 24.8871H59.0436C59.3747 24.8871 59.5403 24.8871 59.6668 24.8226C59.778 24.7658 59.8685 24.6752 59.9252 24.5638C59.9896 24.4373 59.9896 24.2714 59.9896 23.9399V15.7989C59.9896 15.4673 59.9896 15.3016 59.9252 15.1749C59.8685 15.0635 59.778 14.9729 59.6668 14.9162C59.5403 14.8516 59.3747 14.8516 59.0436 14.8516H39.2622C38.9311 14.8516 38.7655 14.8516 38.639 14.9162C38.5278 14.9729 38.4373 15.0635 38.3806 15.1749C38.3161 15.3016 38.3161 15.4673 38.3161 15.7989V23.9399ZM24.0644 8.73592C24.0644 9.06752 24.0644 9.23329 24.1288 9.35994C24.1855 9.47135 24.276 9.56193 24.3872 9.61868C24.5137 9.68316 24.6793 9.68316 25.0104 9.68316H32.7737C33.1049 9.68316 33.2704 9.68316 33.3969 9.61868C33.5082 9.56193 33.5986 9.47135 33.6553 9.35994C33.7197 9.23329 33.7197 9.06752 33.7197 8.73592V0.948645C33.7197 0.617082 33.7197 0.451301 33.6553 0.324661C33.5986 0.213265 33.5082 0.122697 33.3969 0.0659383C33.2704 0.00141195 33.1049 0.00141195 32.7737 0.00141195H25.0104C24.6793 0.00141195 24.5137 0.00141195 24.3872 0.0659383C24.276 0.122697 24.1855 0.213265 24.1288 0.324661C24.0644 0.451301 24.0644 0.617082 24.0644 0.948645V8.73592ZM38.3098 8.69074C38.3098 9.02234 38.3098 9.18811 38.3743 9.31476C38.4309 9.42616 38.5214 9.51674 38.6327 9.57349C38.7592 9.63798 38.9247 9.63798 39.2558 9.63798H71.054C71.3851 9.63798 71.5506 9.63798 71.6771 9.57349C71.7884 9.51674 71.8788 9.42616 71.9355 9.31476C72 9.18811 72 9.02234 72 8.69074V0.947236C72 0.61567 72 0.449889 71.9355 0.323249C71.8788 0.211853 71.7884 0.121285 71.6771 0.0645264C71.5506 0 71.3851 0 71.054 0H39.2558C38.9247 0 38.7592 0 38.6327 0.0645264C38.5214 0.121285 38.4309 0.211853 38.3743 0.323249C38.3098 0.449889 38.3098 0.61567 38.3098 0.947236V8.69074Z" fill="white"/>
</svg>
