<svg width="96" height="40" viewBox="0 0 96 40" fill="none" xmlns="http://www.w3.org/2000/svg">
<path d="M7.22555 0V16.4998H10.4647V0H17.6909V39.9993H10.4647V22.9997H7.22555V39.9993H0V0H7.22555Z" fill="white"/>
<path d="M23.9183 25.7496L18.9348 0.499943V0H25.9115L27.6558 12.3498H28.1541L29.8984 0H36.8751V0.499943L31.8916 25.7496V39.9993H23.9183V25.7496Z" fill="white"/>
<path d="M65.6307 0C67.7564 0 69.6501 0.48378 71.3116 1.45023C72.9725 2.41723 74.2848 3.80893 75.2486 5.62533C76.2117 7.4423 76.6938 9.61767 76.6938 12.1503C76.6938 14.5502 76.353 16.5422 75.6722 18.1251C74.9911 19.7085 73.9197 21.2173 72.4582 22.6502L76.1955 39.5V40H68.9694L66.1291 25.0006H65.3815L65.7304 40H58.2554V0H65.6307ZM65.7304 19.4995H65.9799C66.9098 19.4995 67.6819 19.1495 68.2969 18.4494C68.9112 17.7494 69.2189 16.7668 69.2189 15.4994V9.99943C69.2189 8.73313 68.9112 7.7494 68.2969 7.04937C67.6819 6.34933 66.9092 5.99933 65.9799 5.99933H65.7304V19.4995Z" fill="white"/>
<path d="M91.5434 0L95.281 39.499V39.999H88.3041L87.4569 30.4988H84.6661L83.8189 39.999H76.8423V39.499L80.58 0H91.5434ZM87.4071 23.9996L86.3104 10.2497H85.8123L84.7156 23.9996H87.4071Z" fill="white"/>
<path d="M53.6198 3.97503C51.6586 1.32482 48.8183 0 45.0979 0H38.1213V39.9993H45.0979C48.8183 39.9993 51.6592 38.6747 53.6198 36.0243C55.5796 33.3747 56.56 29.1996 56.56 23.4996V16.4998C56.56 10.7998 55.5796 6.62523 53.6198 3.97503ZM45.3109 37.2407L46.999 23.0565L43.7291 24.7141L45.5079 20.3751L42.2523 21.8716L45.8448 11.4736C45.987 11.0294 46.2186 10.2107 46.3275 9.3167C46.4647 9.64943 46.5541 10.0045 46.604 10.2352C46.6236 10.2313 46.6428 10.2285 46.6631 10.2263C46.6631 9.27767 46.2408 8.55533 45.9657 8.18583C45.9026 8.09497 45.8295 8.00747 45.7468 7.9233C45.7398 7.91607 45.7358 7.91217 45.7358 7.91217C45.4375 7.61397 44.9581 7.48633 44.4059 7.18983C42.9022 6.38167 42.2673 5.66047 42.2321 5.10477C41.8473 5.0769 40.9746 5.1148 40.6666 5.10367L41.8673 4.94147L40.626 4.68957C40.626 4.68957 41.7254 4.7754 42.261 4.85063C42.5214 3.98003 44.4644 3.64953 46.6724 4.2788C50.2722 5.3043 48.0346 14.9955 47.6827 16.4263L47.6734 16.5076L50.8287 15L49.5316 18.6389L52.0968 17.1698L45.3112 37.24L45.3109 37.2407Z" fill="white"/>
<path d="M46.0614 4.77507L44.3554 4.51087C44.3242 4.50587 44.3049 4.5432 44.3258 4.56607L45.0903 5.39203C45.2674 5.58377 45.573 5.5715 45.7342 5.3664L46.1069 4.89267C46.1411 4.84863 46.1159 4.78343 46.0607 4.77507H46.0614Z" fill="white"/>
<path d="M93.3504 1.41001C93.3504 0.677097 93.8641 0.0807293 94.675 0.0807293C95.4864 0.0807293 96 0.677097 96 1.41001C96 2.14293 95.4864 2.7393 94.675 2.7393C93.8641 2.7393 93.3504 2.14293 93.3504 1.41001ZM95.7611 1.41001C95.7611 0.822007 95.3389 0.32039 94.675 0.32039C94.0112 0.32039 93.5893 0.822007 93.5893 1.41001C93.5893 1.99802 94.0112 2.49964 94.675 2.49964C95.3389 2.49964 95.7611 1.99802 95.7611 1.41001ZM94.6863 0.68267C95.0252 0.68267 95.3694 0.866593 95.3973 1.26789H95.0392C95.0113 1.08675 94.8751 0.994787 94.6863 0.994787C94.4309 0.994787 94.3029 1.16478 94.3029 1.40723C94.3029 1.64967 94.4309 1.82245 94.6863 1.82245C94.8751 1.82245 95.0113 1.73049 95.0392 1.54935H95.3973C95.3694 1.95064 95.0252 2.13457 94.6863 2.13457C94.2392 2.13457 93.9448 1.85032 93.9448 1.40723C93.9448 0.96413 94.2392 0.68267 94.6863 0.68267Z" fill="white"/>
</svg>
