<svg width="385" height="200" viewBox="0 0 385 200" fill="none" xmlns="http://www.w3.org/2000/svg">
<path d="M422.45 0.5C434.533 0.5 446.773 5.02229 457.654 11.8438C468.346 18.5464 477.692 27.4509 484.251 36.3965L293.435 228.314C265.353 256.561 219.389 256.561 191.309 228.314L173.381 210.282L345.7 36.9258L345.723 36.9033L345.742 36.877C345.738 36.8826 345.756 36.8606 345.822 36.791C345.88 36.7305 345.959 36.649 346.057 36.5488C346.253 36.3487 346.521 36.0789 346.837 35.7627C347.469 35.1305 348.289 34.3162 349.103 33.5117C349.916 32.7075 350.722 31.9137 351.324 31.3203C351.625 31.0236 351.876 30.7767 352.051 30.6045C352.138 30.5185 352.207 30.4513 352.254 30.4053L352.32 30.3389C352.322 30.3374 352.323 30.3367 352.324 30.3359V30.334C368.894 14.4819 390.749 0.500033 422.45 0.5ZM249.541 0.5C261.624 0.5 273.864 5.0223 284.745 11.8438C295.487 18.5781 304.871 27.5352 311.435 36.5234L156.062 192.836L87.042 123.409L173.01 36.9258L173.033 36.9023L173.053 36.876C173.055 36.8734 173.061 36.8662 173.073 36.8525C173.09 36.8336 173.113 36.8079 173.142 36.7764C173.199 36.7135 173.278 36.6301 173.374 36.5283C173.566 36.3249 173.827 36.0534 174.134 35.7363C174.747 35.1019 175.539 34.2897 176.322 33.4883C177.106 32.6872 177.88 31.8972 178.459 31.3076C178.748 31.0128 178.989 30.7677 179.157 30.5967C179.241 30.5112 179.308 30.4441 179.353 30.3984C179.375 30.3758 179.392 30.3584 179.403 30.3467L179.421 30.3291L179.42 30.3281C195.99 14.4784 217.844 0.50013 249.541 0.5ZM77.1055 0.5C89.1824 0.5 101.423 5.02236 112.305 11.8438C123.048 18.5781 132.435 27.5352 138.998 36.5234L69.833 106.108L0.665039 36.5322C0.832196 36.3496 1.06975 36.1038 1.35742 35.8115C1.97111 35.188 2.79942 34.3722 3.63281 33.5605C4.46554 32.7495 5.30111 31.9444 5.92871 31.3418C6.2425 31.0405 6.50428 30.7895 6.6875 30.6143C6.779 30.5268 6.85137 30.4579 6.90039 30.4111C6.92464 30.388 6.94345 30.3704 6.95605 30.3584C6.96236 30.3524 6.9675 30.3478 6.9707 30.3447C6.9722 30.3433 6.97283 30.3416 6.97363 30.3408L6.97461 30.3398H6.97559V30.3389C23.5458 14.485 45.4015 0.500126 77.1055 0.5Z" stroke="url(#paint0_linear_65_60387)" style="mix-blend-mode:overlay"/>
<defs>
<linearGradient id="paint0_linear_65_60387" x1="242.5" y1="0" x2="242.5" y2="250" gradientUnits="userSpaceOnUse">
<stop stop-color="white"/>
<stop offset="1" stop-color="white" stop-opacity="0"/>
</linearGradient>
</defs>
</svg>
