<svg width="16" height="12" viewBox="0 0 16 12" fill="none" xmlns="http://www.w3.org/2000/svg">
<path d="M1 7.8251V7.24335H7.46865V7.8251H1ZM1 4.19772V3.61597H11.1304V4.19772H1ZM1 0.581749V0H11.1304V0.581749H1ZM8.21947 12V10.2548L13.082 5.47574C13.1517 5.42221 13.2248 5.38023 13.3015 5.34981C13.3782 5.31939 13.4511 5.30418 13.5201 5.30418C13.5952 5.30418 13.6725 5.31939 13.752 5.34981C13.8316 5.38023 13.905 5.42205 13.9719 5.47529L14.8267 6.34221C14.8769 6.41703 14.9184 6.49087 14.951 6.56373C14.9837 6.63658 15 6.70913 15 6.78137C15 6.85361 14.9894 6.92608 14.9681 6.99878C14.9469 7.07148 14.8996 7.14175 14.8263 7.20958L9.9868 12H8.21947ZM13.533 7.64259L14.3878 6.77567L13.533 5.90875L12.6551 6.77567L13.533 7.64259Z" fill="#83B59F"/>
</svg>
