<svg width="16" height="14" viewBox="0 0 16 14" fill="none" xmlns="http://www.w3.org/2000/svg">
<path d="M10.7273 14L5.27273 12.0658L1.86364 13.4013C1.65152 13.4781 1.45455 13.455 1.27273 13.3322C1.09091 13.2094 1 13.0329 1 12.8026V2.02632C1 1.87281 1.03409 1.73081 1.10227 1.60033C1.17045 1.46985 1.27273 1.38158 1.40909 1.33553L5.27273 0L10.7273 1.93421L14.1364 0.598684C14.3485 0.52193 14.5455 0.533443 14.7273 0.633224C14.9091 0.733004 15 0.890351 15 1.10526V12.0658C15 12.2346 14.9545 12.3805 14.8636 12.5033C14.7727 12.6261 14.6515 12.7105 14.5 12.7566L10.7273 14ZM10.4091 13.2171V2.44079L5.59091 0.736842V11.5132L10.4091 13.2171ZM11.0455 13.2171L14.3636 12.1118V1.19737L11.0455 2.44079V13.2171ZM1.63636 12.8026L4.95455 11.5132V0.736842L1.63636 1.88816V12.8026Z" fill="#83B59F"/>
</svg>
