<svg width="16" height="12" viewBox="0 0 16 12" fill="none" xmlns="http://www.w3.org/2000/svg">
<path d="M2.2069 12C1.85824 12 1.56992 11.8874 1.34195 11.6623C1.11398 11.4371 1 11.1523 1 10.8079V3.33775C1 2.99338 1.11398 2.70861 1.34195 2.48344C1.56992 2.25828 1.85824 2.1457 2.2069 2.1457H5.82759V1.19205C5.82759 0.847682 5.94157 0.562914 6.16954 0.337748C6.39751 0.112583 6.68582 0 7.03448 0H8.96552C9.31418 0 9.60249 0.112583 9.83046 0.337748C10.0584 0.562914 10.1724 0.847682 10.1724 1.19205V2.1457H13.7931C14.1418 2.1457 14.4301 2.25828 14.658 2.48344C14.886 2.70861 15 2.99338 15 3.33775V10.8079C15 11.1523 14.886 11.4371 14.658 11.6623C14.4301 11.8874 14.1418 12 13.7931 12H2.2069ZM6.3908 2.1457H9.6092V1.19205C9.6092 1.03311 9.54215 0.887417 9.40805 0.754967C9.27395 0.622517 9.12644 0.556291 8.96552 0.556291H7.03448C6.87356 0.556291 6.72605 0.622517 6.59195 0.754967C6.45785 0.887417 6.3908 1.03311 6.3908 1.19205V2.1457ZM14.4368 7.74834H9.36782V8.82119H6.63218V7.74834H1.56322V10.8079C1.56322 10.9669 1.63027 11.1126 1.76437 11.245C1.89847 11.3775 2.04598 11.4437 2.2069 11.4437H13.7931C13.954 11.4437 14.1015 11.3775 14.2356 11.245C14.3697 11.1126 14.4368 10.9669 14.4368 10.8079V7.74834ZM7.1954 8.2649H8.8046V6.6755H7.1954V8.2649ZM1.56322 7.19205H6.63218V6.11921H9.36782V7.19205H14.4368V3.33775C14.4368 3.17881 14.3697 3.03311 14.2356 2.90066C14.1015 2.76821 13.954 2.70199 13.7931 2.70199H2.2069C2.04598 2.70199 1.89847 2.76821 1.76437 2.90066C1.63027 3.03311 1.56322 3.17881 1.56322 3.33775V7.19205Z" fill="#83B59F"/>
</svg>
