<svg width="16" height="14" viewBox="0 0 16 14" fill="none" xmlns="http://www.w3.org/2000/svg">
<path d="M5.99363 14C5.35456 14 4.80839 13.7842 4.3551 13.3527C3.9018 12.9211 3.66773 12.3908 3.65287 11.7618C2.95435 11.6301 2.37473 11.2936 1.91401 10.7524C1.45329 10.2111 1.22293 9.58203 1.22293 8.8652C1.22293 8.60788 1.25637 8.35363 1.32325 8.10244C1.39013 7.85141 1.49045 7.61559 1.6242 7.39498C1.41614 7.14629 1.26008 6.86622 1.15605 6.55476C1.05202 6.24331 1 5.91628 1 5.57367C1 4.81223 1.25637 4.1537 1.76911 3.59809C2.28185 3.04262 2.9172 2.72832 3.67516 2.65517C3.6603 2.59666 3.65287 2.53814 3.65287 2.47962V2.28213C3.65287 1.63845 3.87951 1.09718 4.3328 0.658307C4.78609 0.219436 5.3397 0 5.99363 0C6.43949 0 6.81104 0.0877743 7.10828 0.263323C7.40552 0.438871 7.70276 0.702194 8 1.05329C8.3121 0.702194 8.60934 0.438871 8.89172 0.263323C9.1741 0.0877743 9.54565 0 10.0064 0C10.6392 0 11.1838 0.223093 11.6402 0.669279C12.0966 1.11546 12.3248 1.65308 12.3248 2.28213V2.47962C12.3248 2.53814 12.3174 2.59666 12.3025 2.65517C13.0605 2.72832 13.6996 3.03918 14.2197 3.58777C14.7399 4.13636 15 4.79833 15 5.57367C15 5.91628 14.9443 6.24331 14.8328 6.55476C14.7213 6.86622 14.5616 7.14629 14.3535 7.39498C14.4873 7.61442 14.5913 7.84987 14.6656 8.10135C14.7399 8.35297 14.7771 8.60759 14.7771 8.8652C14.7771 9.59666 14.5467 10.233 14.086 10.7743C13.6253 11.3156 13.0382 11.6447 12.3248 11.7618C12.31 12.3908 12.0796 12.9211 11.6338 13.3527C11.1879 13.7842 10.6454 14 10.0064 14C9.53079 14 9.15552 13.9122 8.88057 13.7367C8.60563 13.5611 8.3121 13.2905 8 12.9248C7.6879 13.2905 7.39066 13.5611 7.10828 13.7367C6.8259 13.9122 6.45435 14 5.99363 14ZM8.3121 2.28213V11.7179C8.3121 12.1848 8.47677 12.5795 8.80611 12.9019C9.1356 13.2244 9.53889 13.3856 10.016 13.3856C10.4703 13.3856 10.8572 13.232 11.1768 12.9248C11.4963 12.6176 11.6709 12.2445 11.7006 11.8056C11.2251 11.791 10.7829 11.6776 10.3742 11.4655C9.9655 11.2534 9.62739 10.9572 9.35987 10.5768C9.30042 10.5037 9.27754 10.4281 9.29121 10.3501C9.30488 10.272 9.35006 10.2086 9.42675 10.1599C9.50106 10.1014 9.58065 10.0788 9.66551 10.0923C9.75052 10.1057 9.81955 10.1502 9.87261 10.2257C10.0906 10.5377 10.368 10.7767 10.7048 10.9426C11.0417 11.1083 11.4034 11.1912 11.7898 11.1912C12.4586 11.1912 13.0196 10.9681 13.4729 10.5219C13.9262 10.0758 14.1529 9.52351 14.1529 8.8652C14.1529 8.69448 14.1306 8.52384 14.086 8.35326C14.0414 8.18254 13.982 8.01672 13.9076 7.8558C13.655 8.06061 13.3644 8.22153 13.036 8.33856C12.7075 8.45559 12.3665 8.51411 12.0127 8.51411C11.9243 8.51411 11.8502 8.48456 11.7905 8.42545C11.7306 8.3665 11.7006 8.29335 11.7006 8.20602C11.7006 8.11883 11.7306 8.04598 11.7905 7.98746C11.8502 7.92894 11.9243 7.89969 12.0127 7.89969C12.6815 7.89969 13.2426 7.67659 13.6959 7.23041C14.1492 6.78422 14.3758 6.23197 14.3758 5.57367C14.3758 4.93818 14.1566 4.39896 13.7182 3.95599C13.2797 3.51302 12.741 3.27691 12.1019 3.24765C11.9682 3.5256 11.7861 3.76698 11.5557 3.97179C11.3254 4.17659 11.0616 4.33751 10.7643 4.45455C10.69 4.4838 10.6147 4.48139 10.5383 4.4473C10.4617 4.41307 10.4108 4.35697 10.3854 4.279C10.3556 4.20585 10.3556 4.12905 10.3854 4.04859C10.4151 3.96813 10.4745 3.91327 10.5637 3.88401C10.9055 3.76698 11.1805 3.56217 11.3885 3.26959C11.5966 2.97701 11.7006 2.6442 11.7006 2.27116C11.7006 1.81034 11.5367 1.41902 11.2089 1.09718C10.8811 0.77534 10.4799 0.61442 10.005 0.61442C9.53034 0.61442 9.12951 0.775632 8.80255 1.09806C8.47558 1.42048 8.3121 1.81517 8.3121 2.28213ZM7.6879 11.7179V2.28213C7.6879 1.81517 7.52397 1.42048 7.19612 1.09806C6.86841 0.775632 6.46713 0.61442 5.99229 0.61442C5.5176 0.61442 5.11677 0.775632 4.78981 1.09806C4.46285 1.42048 4.29936 1.81517 4.29936 2.28213C4.29936 2.64786 4.4034 2.97701 4.61146 3.26959C4.81953 3.56217 5.09448 3.76698 5.43631 3.88401C5.51062 3.91327 5.57006 3.96447 5.61465 4.03762C5.65924 4.11076 5.66793 4.18552 5.64073 4.26188C5.60819 4.3381 5.55111 4.39296 5.46952 4.42646C5.38793 4.45981 5.30255 4.46186 5.21338 4.4326C4.91614 4.31557 4.65234 4.15831 4.42197 3.96081C4.19161 3.76332 4.00955 3.5256 3.8758 3.24765C3.25159 3.27691 2.72028 3.51463 2.28185 3.96081C1.84342 4.407 1.6242 4.94696 1.6242 5.58069C1.6242 6.23432 1.85085 6.78422 2.30414 7.23041C2.75743 7.67659 3.31847 7.89969 3.98726 7.89969C4.07569 7.89969 4.14985 7.92924 4.20975 7.98834C4.26949 8.04729 4.29936 8.12044 4.29936 8.20777C4.29936 8.29496 4.26949 8.36782 4.20975 8.42633C4.14985 8.48485 4.07569 8.51411 3.98726 8.51411C3.63355 8.51411 3.29246 8.45559 2.96401 8.33856C2.63556 8.22153 2.34501 8.06061 2.09236 7.8558C2.01805 8.01672 1.9586 8.18254 1.91401 8.35326C1.86943 8.52384 1.84713 8.69448 1.84713 8.8652C1.84713 9.52351 2.07378 10.0758 2.52707 10.5219C2.98036 10.9681 3.5414 11.1912 4.21019 11.1912C4.60106 11.1912 4.96258 11.1071 5.29474 10.9389C5.62691 10.7706 5.90446 10.5329 6.12739 10.2257C6.18045 10.1502 6.24948 10.1057 6.33449 10.0923C6.41935 10.0788 6.49894 10.0977 6.57325 10.1489C6.64756 10.2001 6.69214 10.2659 6.70701 10.3464C6.72187 10.4269 6.69958 10.5037 6.64013 10.5768C6.35775 10.9572 6.01221 11.2534 5.6035 11.4655C5.1948 11.6776 4.75265 11.791 4.27707 11.8056C4.30679 12.2445 4.48514 12.6176 4.8121 12.9248C5.13907 13.232 5.52971 13.3856 5.98405 13.3856C6.46111 13.3856 6.8644 13.2244 7.19389 12.9019C7.52323 12.5795 7.6879 12.1848 7.6879 11.7179Z" fill="#83B59F"/>
</svg>
