<svg width="14" height="14" viewBox="0 0 14 14" fill="none" xmlns="http://www.w3.org/2000/svg">
<path d="M6.14414 12.4099C4.81682 12.0444 3.72072 11.3011 2.85586 10.1802C1.99099 9.05918 1.55856 7.76458 1.55856 6.29634C1.55856 5.88816 1.5961 5.48151 1.67117 5.07637C1.74625 4.67124 1.86486 4.27676 2.02703 3.89295L0.207207 4.953L0 4.55091L2.56757 3.04308L4.06306 5.64752L3.66667 5.90339L2.54054 3.9295C2.36637 4.30722 2.23874 4.69713 2.15766 5.09922C2.07658 5.50131 2.03604 5.90644 2.03604 6.31462C2.03604 7.69147 2.44895 8.90231 3.27477 9.94713C4.1006 10.9919 5.14114 11.6728 6.3964 11.9896L6.14414 12.4099ZM10.0631 3.13446V2.66841H12.2883C11.7417 1.96171 11.0751 1.41797 10.2883 1.03721C9.5015 0.65644 8.66667 0.466057 7.78378 0.466057C6.97898 0.466057 6.22823 0.619887 5.53153 0.927546C4.83483 1.2352 4.22523 1.65709 3.7027 2.19321L3.45045 1.75457C4.01502 1.21236 4.66517 0.784378 5.4009 0.470627C6.13664 0.156876 6.92493 0 7.76577 0C8.70871 0 9.5976 0.197998 10.4324 0.593995C11.2673 0.989991 11.985 1.55657 12.5856 2.29373V0.109661H13.045V3.13446H10.0631ZM10.2973 14L7.72973 12.4648L9.21622 9.87859L9.61261 10.107L8.45045 12.1175C9.89189 11.9469 11.1006 11.3118 12.0766 10.2121C13.0526 9.11249 13.5405 7.81636 13.5405 6.32376C13.5405 6.01915 13.518 5.71758 13.473 5.41906C13.4279 5.12054 13.3634 4.83116 13.2793 4.55091H13.7748C13.8468 4.83116 13.9024 5.11597 13.9414 5.40535C13.9805 5.69473 14 5.99173 14 6.29634C14 7.87424 13.5 9.25261 12.5 10.4315C11.5 11.6103 10.2402 12.3155 8.72072 12.547L10.5315 13.5979L10.2973 14Z" fill="#83B59F"/>
</svg>
