<svg width="14" height="9" viewBox="0 0 14 9" fill="none" xmlns="http://www.w3.org/2000/svg">
<path d="M8.75911 6.24665C9.23915 5.76605 9.47917 5.18238 9.47917 4.49565C9.47917 3.80903 9.23769 3.22681 8.75474 2.74899C8.27191 2.27117 7.68554 2.03226 6.99562 2.03226C6.30583 2.03226 5.72092 2.27262 5.24089 2.75335C4.76085 3.23395 4.52083 3.81762 4.52083 4.50435C4.52083 5.19097 4.76231 5.77319 5.24526 6.25101C5.72809 6.72883 6.31446 6.96774 7.00437 6.96774C7.69417 6.96774 8.27908 6.72738 8.75911 6.24665ZM5.60547 5.8881C5.22266 5.50706 5.03125 5.04435 5.03125 4.5C5.03125 3.95565 5.22266 3.49294 5.60547 3.1119C5.98828 2.73085 6.45312 2.54032 7 2.54032C7.54687 2.54032 8.01172 2.73085 8.39453 3.1119C8.77734 3.49294 8.96875 3.95565 8.96875 4.5C8.96875 5.04435 8.77734 5.50706 8.39453 5.8881C8.01172 6.26915 7.54687 6.45968 7 6.45968C6.45312 6.45968 5.98828 6.26915 5.60547 5.8881ZM2.84375 7.7752C1.59201 6.95867 0.644097 5.86694 0 4.5C0.644097 3.13306 1.59116 2.04133 2.8412 1.2248C4.09111 0.408266 5.47653 0 6.99745 0C8.51825 0 9.90451 0.408266 11.1562 1.2248C12.408 2.04133 13.3559 3.13306 14 4.5C13.3559 5.86694 12.4088 6.95867 11.1588 7.7752C9.90889 8.59173 8.52347 9 7.00255 9C5.48175 9 4.09549 8.59173 2.84375 7.7752ZM10.7826 7.4123C11.931 6.69254 12.809 5.72177 13.4167 4.5C12.809 3.27823 11.931 2.30746 10.7826 1.5877C9.63411 0.867943 8.37326 0.508065 7 0.508065C5.62674 0.508065 4.36589 0.867943 3.21745 1.5877C2.06901 2.30746 1.19097 3.27823 0.583333 4.5C1.19097 5.72177 2.06901 6.69254 3.21745 7.4123C4.36589 8.13206 5.62674 8.49194 7 8.49194C8.37326 8.49194 9.63411 8.13206 10.7826 7.4123Z" fill="#83B59F"/>
</svg>
