<svg width="136" height="60" viewBox="0 0 136 60" fill="none" xmlns="http://www.w3.org/2000/svg">
<path fill-rule="evenodd" clip-rule="evenodd" d="M110.334 24.985C111.594 23.5469 112.998 22.0171 114.948 23.4151C116.619 24.6138 115.025 24.9367 114.051 25.7675C112.858 26.7861 111.235 28.7806 110.221 30.0435C109.2 31.3148 108.187 32.7654 107.85 34.3687C108.932 33.0248 109.761 31.409 111.119 30.2637C112.815 28.8339 115.077 28.4502 114.847 31.3932C114.665 33.7013 112.334 37.0238 109.881 37.2916C110.131 38.0799 111.666 38.3952 112.367 38.2542C113.442 38.0382 115.145 35.7108 115.771 34.7866C116.396 33.8622 118.624 29.4229 119.322 29.2201C119.936 29.0416 122.336 29.3803 122.289 30.2546C122.274 30.5391 121.013 31.9154 120.729 32.3091C120.087 33.2017 119.36 34.2994 118.845 35.2654C118.484 35.9419 117.699 37.3767 117.885 38.1158C118.173 38.4402 118.573 38.17 118.848 37.9648C120.885 36.4458 123.009 32.46 124.497 30.3304C125.224 29.2902 125.423 29.0967 126.747 29.1926C127.228 29.2277 129.162 29.6397 128.663 30.4339C128.57 30.5807 127.628 31.3098 127.368 31.6176C126.379 32.7796 125.523 34.5922 124.863 35.9786C124.246 37.2749 123.682 38.653 123.192 39.9885C125 40.1929 125.378 36.4258 127.257 37.0047C128.509 37.3909 126.445 39.7624 128.2 39.5356C129.732 39.3379 128.136 36.3139 127.959 35.5165C127.103 31.6693 130.158 28.5462 134.024 29.2469C137.133 29.8108 136.11 34.1225 134.124 35.2036C133.505 35.5406 131.421 35.5357 131.308 34.7607L132.159 34.0308C132.547 33.5895 133.674 31.9838 133.293 31.4374C133.129 31.2022 132.457 31.4149 132.217 31.5033C130.022 32.3175 131.11 36.1496 131.204 37.9031C131.635 46.0071 127.48 50.3139 119.417 50.6718C111.826 51.0088 103.488 49.3196 95.8387 49.2069C94.6755 49.1661 93.5057 49.1477 92.3443 49.0918C75.7696 48.3035 58.9582 48.6747 43.4529 55.2238C40.1576 56.6152 35.0686 59.9111 31.6603 59.9979C26.9953 60.1171 20.8837 55.2197 16.5272 53.6115C15.5572 52.9233 15.8357 52.4686 16.7162 51.9581C18.0465 51.1865 19.7615 50.7068 21.1864 50.1062C21.5785 50.092 22.1789 50.9463 22.5293 51.2274C24.2359 52.5996 26.2243 52.9858 28.0505 51.5644C29.3449 50.5567 30.4353 48.2093 28.5272 47.2725C28.1392 47.0815 27.7754 47.2141 27.5212 46.7011C26.5965 44.8342 28.5163 40.7334 29.3299 38.8999C30.4847 36.2981 32.208 32.8396 34.0903 30.7158C35.5318 29.0892 36.4458 28.7205 38.5972 29.5346L38.2603 30.3188C38.3373 30.3954 39.2219 29.6923 39.4 29.6014C43.5508 27.4751 43.539 32.3967 42.6594 35.041C43.2807 34.196 43.7297 33.2408 44.3251 32.3741C45.0007 31.3898 46.5953 29.2218 47.8237 29.1067C48.1992 29.0717 50.1808 29.3119 50.0939 29.7982C50.0613 29.98 49.5855 30.1411 49.6523 30.4313C52.4828 28.1891 54.9211 28.7221 54.6126 32.7345C54.3759 35.8118 52.1709 40.1086 49.2987 41.4908C47.8538 42.1865 45.5919 42.5194 45.0768 40.5557C44.8954 39.865 45.0325 39.3595 45.0283 38.6947C45.0283 38.5629 45.1069 38.2735 44.9154 38.3018C43.7322 41.0538 42.1518 43.7948 41.3106 46.6828C40.9787 47.8222 41.3499 48.9158 39.6349 48.3403C38.0579 47.8106 38.17 46.762 38.4493 45.4048C38.9092 43.1692 39.9811 41.1105 40.7395 38.9767C39.3908 40.6025 36.9441 42.7162 34.6522 41.8412C34.2107 41.6727 33.5217 40.9503 33.5217 40.4941C33.5217 39.8784 33.4749 39.1852 33.5217 38.5829L33.5208 38.5854C33.5235 38.5578 33.7632 38.3911 33.5777 38.3052C32.9723 39.2761 32.4113 40.4323 31.9221 41.4884C31.0725 43.3236 30.3083 45.2046 29.6895 47.1307L29.9194 47.2525L37.3547 45.4991C37.3405 46.0204 37.1892 46.4801 37.2427 47.0172C37.471 49.277 41.559 50.4974 42.0666 48.3403C42.1276 48.0792 42.0691 47.7956 42.1427 47.5161C42.2622 47.0615 42.9747 44.6048 43.2949 44.5047C45.3971 44.3162 47.4917 43.99 49.5939 43.8132C69.0818 42.1732 88.4887 45.0386 107.906 46.2849C108.545 46.3258 112.071 46.2748 112.311 46.6169C112.253 48.4037 113.605 49.9744 115.381 50.1896C118.032 50.5116 119.251 49.1828 120.706 47.2409C123.453 47.3326 126.105 46.1097 127.81 43.9792C127.895 43.8724 128.346 43.331 128.263 43.2518C127.919 43.3527 127.678 43.5387 127.292 43.5763C125.301 43.7715 125.056 41.6669 124.035 41.671C123.784 41.6719 122.244 42.4326 122.059 42.6303C121.764 42.9448 121.176 44.5131 120.88 45.052C120.253 46.1914 118.9 48.3069 117.742 48.895C115.384 50.0921 112.278 48.2293 113.659 45.6142C115.445 47.3267 116.946 44.9869 117.823 43.5796C118.34 42.7504 118.745 41.8445 119.242 41.0037L117.643 41.9372C115.965 42.3567 114.681 41.1638 114.562 39.5414C113.533 40.7192 112.331 42.2933 110.552 41.963C108.565 41.5943 107.359 38.9091 107.399 37.0681C107.219 36.8545 106.331 38.185 106.252 38.3402C106.07 38.6947 105.819 39.433 105.716 39.8301C105.3 41.4417 105.777 42.7163 103.453 41.6202C102.806 41.3149 102.186 40.7626 102.437 39.991C102.298 39.8534 101.63 40.6492 101.475 40.7735C98.6666 43.0316 94.8904 42.1173 94.5409 38.3035C92.6729 40.6275 90.9219 42.6479 87.6124 41.7812C86.1072 41.3866 85.3111 40.1687 84.8972 38.7522L83.7717 40.2163C82.0224 42.6378 78.1602 42.9281 78.5247 39.0901C77.6953 39.8576 76.681 41.7469 75.512 41.9872C73.9467 42.3092 72.6264 40.7384 72.4909 39.3137C71.909 39.7925 71.541 40.4473 70.9707 40.9462C69.9121 41.8729 68.5508 42.4852 67.2096 41.6568C63.9669 39.6548 68.4705 34.3637 69.1177 32.003L68.3109 31.329L67.9814 31.4466C66.7179 33.4678 65.5556 35.5857 64.1333 37.5035C62.711 39.4212 60.5762 42.1014 57.9448 42.0122C50.7043 41.7678 54.248 31.6259 59.3537 29.5922C65.375 27.1939 65.5707 33.718 61.4633 36.3048C60.1121 37.1556 56.9255 37.9114 57.2073 35.3805C56.6119 35.7434 56.7958 37.33 57.1596 37.8456C58.8746 40.2746 62.2753 36.7394 63.3238 35.237C64.9168 32.9564 66.1276 30.3738 66.789 27.6702C67.5148 27.7078 68.4748 27.9806 68.8778 28.6388C69.0358 28.8973 69.0275 29.2644 69.2123 29.4295C69.5275 29.7115 70.4958 29.8992 71.0861 30.4848C73.3923 32.7696 70.7006 35.7568 70.0743 38.1208L70.3277 38.2868C73.1582 36.5693 73.8982 33.019 76.3289 30.886C78.4119 29.0583 82.1663 27.8938 82.8144 31.6134C82.847 31.8011 82.7458 31.8061 83.0359 31.7819C83.0016 31.3706 83.0919 30.8976 83.0292 30.4972C82.9598 30.051 82.566 29.8433 82.5777 29.372C82.5886 28.9382 82.9423 28.4068 83.1706 28.0381C83.8579 26.927 86.7319 23.295 87.8808 22.953C88.8967 22.6502 90.7313 23.3618 90.8015 24.5062C90.7454 24.714 89.3341 25.6015 89.0121 25.8793C86.6224 27.938 82.7458 33.919 81.9656 36.9554C81.3276 39.4362 83.0569 37.8563 83.8839 36.9554C86.3907 34.2235 87.1818 30.1261 91.4897 29.2477C97.9567 27.928 95.3311 36.6869 90.4227 37.0647C89.1058 37.1657 88.6961 36.9804 88.3399 35.7701C88.2922 35.6074 88.4075 35.5732 88.1133 35.6049C87.609 39.4755 90.3157 39.196 92.6253 37.2365C94.505 35.6416 95.0685 34.08 96.4148 32.2449C97.674 30.529 99.7068 29.0691 101.929 29.0758C104.962 29.0858 105.23 32.8071 103.562 34.6473C102.871 35.4105 100.572 36.2339 100.404 34.7649C100.267 33.5654 100.919 34.0542 101.575 33.5662C102.209 33.094 102.618 31.5825 101.619 31.6943C98.9342 31.9938 95.4841 38.8724 100.34 38.1817C101.704 37.9873 104.297 34.7023 105.011 33.5069C106.758 30.579 108.021 27.6252 110.334 24.985ZM80.892 31.7844C78.7664 31.5625 77.125 34.2294 76.4393 35.9453C76.1793 36.5968 75.7461 37.5853 76.0388 38.256C76.5623 38.6371 78.365 36.2482 78.6811 35.8193C79.5741 34.6048 80.4354 33.2133 80.892 31.7852V31.7844ZM51.0622 31.7093C50.4041 31.6384 48.7551 33.3552 48.2994 33.8673C47.9307 34.2819 46.607 35.8794 46.4406 36.2856C46.0485 37.2399 46.8972 38.8832 48.128 38.0807C49.3388 37.2916 50.8381 34.3052 51.1734 32.9097C51.2378 32.6427 51.5212 31.7585 51.0622 31.7093ZM39.558 31.7085C38.9309 31.6435 37.3464 33.2658 36.9082 33.7539C36.5035 34.2051 34.8772 36.2063 34.8721 36.6701C34.862 37.6811 35.4423 38.673 36.5553 38.1233C37.7243 37.5452 39.3047 34.3687 39.6442 33.1083C39.7211 32.8238 40.0488 31.7602 39.5588 31.7085H39.558ZM112.022 31.7852C111.849 31.7527 111.76 31.8019 111.622 31.892C111.314 32.0914 110.409 33.079 110.102 33.4119C109.539 34.0225 109.03 34.7216 108.526 35.3814C110.259 35.2154 111.638 33.3752 112.022 31.7861V31.7852ZM61.1348 33.3952C62.1549 32.068 61.7159 31.2597 60.097 32.0238C59.0822 32.5026 57.6562 33.8091 57.4332 34.9317C58.7719 35.1477 60.317 34.4587 61.1348 33.3952ZM91.4855 34.0784C93.448 32.5952 93.1186 30.6574 90.4905 32.4117C89.6292 32.9873 88.7512 33.9308 88.4502 34.9301V34.9309C89.6032 35.0635 90.5699 34.7699 91.4855 34.0784Z" fill="#83B59F"/>
<path d="M70.0986 3.4316C77.6443 -0.285478 83.6413 -1.73856 91.2539 2.96368C93.1646 4.14404 94.5811 5.56797 96.2911 6.93685C100.199 10.0642 105.685 13.9531 107.724 18.6995C109.28 22.3215 106.634 25.5247 103.96 27.7411C103.52 28.1065 103.218 28.3751 102.603 28.3893C102.245 28.3977 101.007 28.134 100.658 27.9914C100.444 27.9038 100.24 27.6127 100.068 27.4534L100.573 26.8394C103.824 25.0434 105.036 21.5658 103.068 18.2816C99.3372 12.0545 88.9085 10.4737 82.403 11.8768C81.9849 11.9669 81.5367 12.0178 81.1178 12.1121C81.0425 11.7484 81.3243 11.6583 81.5818 11.5073C82.122 11.1911 82.7291 10.935 83.2609 10.5947L84.9524 9.97653H82.8662C81.3369 9.97653 76.651 12.6876 74.8632 13.3541C70.3069 15.0525 64.431 15.9643 59.6456 15.2469C55.8543 14.6788 52.426 12.9337 48.6038 12.3122C48.4793 12.2922 48.3688 12.1129 48.3521 12.1129H46.4908C46.791 12.5416 47.5076 12.5233 47.9792 12.7094C48.1832 12.7894 48.3446 12.952 48.5544 13.0354C48.7024 13.0947 50.803 13.6995 50.4376 14.024C49.7302 13.883 49.3538 13.5702 48.5712 13.6819C39.4535 14.9832 35.8421 20.111 32.0333 27.7753C29.9437 31.9796 25.1884 41.6652 25.9016 46.1831C26.0964 47.4168 26.8473 48.3569 28.1083 48.5922C28.5489 50.4282 26.4409 51.2248 24.8864 50.7919C23.7099 50.464 22.2416 48.8191 21.7709 47.7146C21.1245 46.1989 21.3085 44.7224 21.5644 43.1417C19.4137 45.6617 16.5431 49.6007 12.9233 49.8718C7.15955 50.3031 7.11265 43.0149 7.7239 39.0693C8.19801 36.0095 10.0744 30.212 12.3688 28.0732C13.4759 27.0413 13.8774 30.1476 14.0112 30.72C14.0513 30.8918 13.935 30.9168 14.2327 30.8868L20.5534 23.2975C16.1058 22.3741 11.7894 23.0865 7.58091 24.5938C7.4045 24.7682 7.59766 24.7915 7.75068 24.814C8.44386 24.9158 9.1454 24.9683 9.80095 25.2453C11.3286 25.8901 9.90634 26.1804 9.12368 26.7493C8.10856 27.4859 7.106 28.4928 6.36012 29.5038C5.41023 30.7926 3.63922 34.05 4.77637 35.5373C4.98876 35.8151 5.54484 35.9628 5.55571 36.007C5.73627 36.7027 4.2747 36.8636 3.80643 36.8478C1.76365 36.7786 0.297832 35.3563 0.0227299 33.361C-0.0123863 33.1082 -0.00235474 32.6127 0.0227299 32.3491V32.3466C0.864794 23.4702 14.3649 17.9771 22.046 20.9067C23.3529 21.4056 25.6876 22.8888 25.0863 24.5588C21.9816 29.5363 18.1812 34.0976 15.3423 39.2411C14.6684 40.4615 13.4292 42.6829 13.2485 44.0109C12.9843 45.9503 14.5103 45.7718 15.691 44.8718C20.1621 41.4633 22.8813 34.6281 25.4542 29.7582C27.7771 25.3613 30.3985 21.1545 32.9765 16.9078C37.3421 9.71551 40.8633 3.18303 50.0387 1.8742C50.7603 1.7716 53.3508 2.18373 54.2062 2.34139C58.0443 3.05045 64.2997 5.99505 68.0224 4.62201C68.7331 4.36008 69.4664 3.74275 70.0986 3.4316Z" fill="#83B59F"/>
<path d="M46.5728 15.2778L46.7776 15.3654C46.9114 15.5772 46.4381 19.0024 46.3453 19.5537C46.1396 20.7791 45.811 22.4283 45.4439 23.6011C45.2274 24.2927 44.8895 25.0392 44.2022 25.3988C43.4078 25.8142 40.5121 25.8175 39.5539 25.7141C38.3832 25.5873 37.5353 24.8516 37.5796 23.6379C37.6239 22.4241 38.1892 20.5956 38.9368 19.7014C40.7981 17.4783 43.728 15.8183 46.5719 15.2769L46.5728 15.2778Z" fill="#83B59F"/>
<path d="M48.0093 15.2552C48.1866 15.075 50.195 15.1242 50.6056 15.1476C51.1775 15.1801 55.4728 15.7365 55.611 15.9484L55.6126 15.9476C55.6026 17.7277 55.7381 19.4954 55.7347 21.2772C55.733 22.0546 55.8568 22.5543 55.6201 23.4018C55.2756 24.6347 53.8559 25.2027 52.7195 25.4572C51.0965 25.8217 46.7442 26.2555 46.3846 23.964C46.1722 22.6102 46.7902 19.8165 47.1096 18.405C47.2141 17.942 47.817 15.4504 48.0093 15.2552Z" fill="#83B59F"/>
<path d="M57.2189 16.282C60.036 16.7225 62.7361 17.2081 65.6142 17.0612C65.9395 17.0446 67.0834 16.7559 67.2514 16.8785C67.6327 19.2868 69.3134 23.466 66.3057 24.7214C64.7529 25.3695 59.3479 25.7966 57.7951 25.2945C55.2682 24.4787 56.2055 21.1712 56.5651 19.1717C56.739 18.2015 56.9463 17.2288 57.2189 16.282Z" fill="#83B59F"/>
<path d="M76.4927 14.3597C76.4663 14.6995 76.5726 14.9785 76.8298 15.2027C76.8273 15.3645 76.0539 15.4747 76.1559 15.82L76.9452 15.9342C77.1049 16.4647 76.3206 16.2863 76.3816 16.7175L77.171 17.168C76.9427 17.082 75.9803 17.6552 76.1567 17.8429C76.4209 17.8562 76.6768 17.9488 76.9218 18.0397C77.0648 18.0931 77.2228 17.9897 77.171 18.2358L76.1592 19.024L77.171 19.5846L76.0463 20.3728L76.7203 20.6557C76.9234 20.8667 76.0263 21.0961 76.1567 21.4398L76.8332 21.6683L76.2688 23.2391C76.7437 23.3817 77.3324 23.5211 77.7856 23.6963C77.9026 23.7413 78.0573 23.7421 78.0732 23.9139C77.6025 24.0557 77.1484 24.2918 76.6517 24.3527C75.2829 24.5212 73.4357 24.5646 72.0443 24.5946C70.5242 24.6272 69.3937 24.5296 68.8033 22.9814C68.3351 21.751 68.2289 19.1825 68.1495 17.7878C68.1269 17.3966 68.1595 17.0003 68.1495 16.6091L76.4927 14.3597Z" fill="#83B59F"/>
<path d="M99.165 16.1578C99.3799 15.9476 101.113 17.6485 101.304 17.9029C101.558 18.2416 101.555 18.4543 101.711 18.7337C101.888 19.0491 102.337 19.2326 102.209 19.7548H101.42C101.5 20.3162 102.125 20.5105 102.434 20.9359L101.533 21.1053L102.322 21.836L101.42 22.2849L102.193 22.8053C102.24 22.9496 102.238 23.0906 102.1 23.1874C101.901 23.3275 98.848 22.8729 98.6273 22.651C98.236 22.2581 98.8188 20.7657 98.9057 20.2269C99.0838 19.1149 99.1232 18.2291 99.165 17.1138C99.1776 16.7893 99.3573 16.5315 99.165 16.1578Z" fill="#83B59F"/>
<path d="M78.1836 13.9097C82.3712 12.9788 86.7218 12.8853 90.9688 13.4751C93.7231 13.8572 96.4641 14.5103 98.9108 15.8483L98.9124 15.8492C99.1298 18.6928 97.4408 17.5893 95.8303 17.1763C94.4105 16.8126 92.9747 16.4931 91.4955 16.6082L94.653 17.2255C96.0402 17.7527 99.0445 18.0806 98.0244 20.2486C97.557 21.2421 96.332 21.9078 95.2717 22.0012C92.5909 22.2389 89.615 22.0187 86.9259 21.8919C85.6632 21.8326 82.8897 21.9695 81.9155 21.2646C81.2541 20.7858 80.9848 19.3068 81.4054 18.6361C82.1295 17.4808 85.9943 17.228 87.3205 16.886C87.4493 16.8526 87.6867 16.8935 87.6591 16.7209C85.8915 16.7768 84.0921 17.248 82.3018 17.057C80.5199 16.8668 80.8577 15.3419 81.0927 14.0506C81.1336 13.8271 80.9538 13.8505 80.8936 13.9097C80.6562 14.1443 80.2414 17.3673 80.2164 17.9012C80.1679 18.9464 80.6511 21.368 79.9914 22.0612C79.5933 22.4791 77.8433 22.4208 77.8483 22.1714L78.6351 21.3839L77.6208 21.2154C77.4553 21.0769 78.437 20.3337 78.6343 20.3145L78.5783 20.0909L77.6208 20.2036L78.5215 19.1349C78.6443 18.8497 77.8357 18.9765 77.7337 18.7996L78.7472 17.7869L77.8458 17.6184C77.6669 17.4182 78.6117 16.881 78.7505 16.7751L78.672 16.4939C77.3215 16.4038 78.2547 15.9784 78.8601 15.593L78.8041 15.3695H77.8466C77.6844 15.226 78.6602 14.4911 78.8601 14.4686L78.7907 14.2467C78.5933 14.1458 78.0917 14.2667 78.1836 13.9097Z" fill="#83B59F"/>
<path d="M76.4945 14.3593L76.4927 14.3597C76.4927 14.3593 76.4928 14.3589 76.4928 14.3585L76.4945 14.3593Z" fill="#83B59F"/>
</svg>
