<svg width="312" height="41" viewBox="0 0 312 41" fill="none" xmlns="http://www.w3.org/2000/svg">
<path d="M77.6703 31.7847H83.8093V7.73447H91.8407V1.93213H69.7231V7.73447H77.6703V31.7847Z" fill="#83B59F"/>
<path d="M91.8506 31.7896H97.6113V21.7406C97.6113 18.2507 99.4193 16.1483 102.152 16.1483C103.119 16.1483 103.876 16.3166 104.759 16.611V10.7665C104.045 10.5563 103.456 10.5143 102.825 10.5143C100.471 10.5143 98.326 12.0699 97.6113 14.1302V10.7665H91.8506V31.7896Z" fill="#83B59F"/>
<path d="M115.82 32.2545C118.721 32.2545 120.908 30.7828 121.875 29.4374V31.792H127.636V10.7689H121.875V13.1235C120.908 11.7781 118.721 10.3065 115.82 10.3065C110.227 10.3065 105.938 15.3521 105.938 21.2804C105.938 27.2089 110.227 32.2545 115.82 32.2545ZM117.039 26.9987C113.844 26.9987 111.741 24.6021 111.741 21.2804C111.741 17.9589 113.844 15.5623 117.039 15.5623C120.235 15.5623 122.338 17.9589 122.338 21.2804C122.338 24.6021 120.235 26.9987 117.039 26.9987Z" fill="#83B59F"/>
<path d="M141.347 32.2489C144.248 32.2489 146.435 30.7772 147.402 29.4318V31.7864H153.163V0.251953H147.402V13.1179C146.435 11.7725 144.248 10.3009 141.347 10.3009C135.755 10.3009 131.466 15.3464 131.466 21.2748C131.466 27.2033 135.755 32.2489 141.347 32.2489ZM142.566 26.993C139.371 26.993 137.269 24.5965 137.269 21.2748C137.269 17.9532 139.371 15.5567 142.566 15.5567C145.762 15.5567 147.865 17.9532 147.865 21.2748C147.865 24.5965 145.762 26.993 142.566 26.993Z" fill="#83B59F"/>
<path d="M161.206 7.31597C163.266 7.31597 164.906 5.67618 164.906 3.65798C164.906 1.63979 163.266 0 161.206 0C159.23 0 157.548 1.63979 157.548 3.65798C157.548 5.67618 159.23 7.31597 161.206 7.31597ZM158.347 31.7867H164.107V10.7637H158.347V31.7867Z" fill="#83B59F"/>
<path d="M169.214 31.792H174.975V21.5328C174.975 17.4964 176.951 15.5623 179.642 15.5623C182.039 15.5623 183.342 17.4122 183.342 20.4396V31.792H189.103V19.4725C189.103 14.0064 186.075 10.3065 180.988 10.3065C178.254 10.3065 176.11 11.4839 174.975 13.1657V10.7689H169.214V31.792Z" fill="#83B59F"/>
<path d="M203.767 26.3259C200.865 26.3259 198.427 24.1396 198.427 20.9441C198.427 17.7066 200.865 15.5623 203.767 15.5623C206.668 15.5623 209.107 17.7066 209.107 20.9441C209.107 24.1396 206.668 26.3259 203.767 26.3259ZM203.094 41C209.527 41 214.405 37.7203 214.405 30.1521V10.7689H208.644V13.1235C207.51 11.4839 205.239 10.3065 202.547 10.3065C197.039 10.3065 192.624 15.0156 192.624 20.9441C192.624 26.8304 197.039 31.5395 202.547 31.5395C205.239 31.5395 207.51 30.3204 208.644 28.7645V30.1941C208.644 33.5579 206.416 35.9544 203.01 35.9544C200.655 35.9544 198.3 35.1555 196.45 33.3476L193.297 37.6363C195.694 39.9488 199.436 41 203.094 41Z" fill="#83B59F"/>
<path d="M226.58 31.7847H232.004L244.366 1.93213H237.638L229.313 22.6607L220.862 1.93213H214.259L226.58 31.7847Z" fill="#83B59F"/>
<path d="M249.656 7.31597C251.717 7.31597 253.358 5.67618 253.358 3.65798C253.358 1.63979 251.717 0 249.656 0C247.679 0 245.999 1.63979 245.999 3.65798C245.999 5.67618 247.679 7.31597 249.656 7.31597ZM246.798 31.7867H252.559V10.7637H246.798V31.7867Z" fill="#83B59F"/>
<path d="M267.465 32.2545C271.881 32.2545 275.244 30.4044 277.22 27.5453L272.932 24.3498C271.964 25.8215 270.155 26.9987 267.506 26.9987C264.731 26.9987 262.25 25.443 261.915 22.626H277.64C277.766 21.743 277.725 21.1544 277.725 20.6499C277.725 13.7962 272.889 10.3065 267.38 10.3065C260.99 10.3065 256.321 15.0576 256.321 21.2804C256.321 27.9238 261.199 32.2545 267.465 32.2545ZM262.124 18.7156C262.672 16.1508 265.068 15.0576 267.212 15.0576C269.356 15.0576 271.459 16.193 271.964 18.7156H262.124Z" fill="#83B59F"/>
<path d="M299.306 31.7911H305.026L311.965 10.7681H305.783L301.831 24.2227L297.541 10.7681H293.125L288.879 24.2227L284.885 10.7681H278.745L285.725 31.7911H291.445L295.354 19.8501L299.306 31.7911Z" fill="#83B59F"/>
<path fill-rule="evenodd" clip-rule="evenodd" d="M23.2356 31.8014H12.1711V12.9928H0V1.92896H23.2356V31.8014ZM39.8325 8.56726C39.8325 12.2334 36.8603 15.2056 33.1938 15.2056C29.5273 15.2056 26.5551 12.2334 26.5551 8.56726C26.5551 4.90101 29.5273 1.92896 33.1938 1.92896C36.8603 1.92896 39.8325 4.90101 39.8325 8.56726ZM33.1938 31.8014L45.9181 1.92896H59.1955L46.4712 31.8014H33.1938Z" fill="#83B59F"/>
</svg>
