<svg width="200" height="50" viewBox="0 0 200 50" fill="none" xmlns="http://www.w3.org/2000/svg">
<path d="M15.8669 18.9998C17.1362 19.0382 18.3677 19.4607 19.3678 20.2299C20.9254 21.4604 22.2321 22.9804 23.1937 24.7108L23.4829 25.1728C23.4829 25.1728 23.5212 25.2497 23.5787 25.3456C24.0595 26.2109 26.1952 29.9415 29.7917 31.8453L25.0023 37.654L20.2524 31.8078C20.9833 31.327 22.5404 30.2888 23.3289 29.3851L24.0407 28.6734L22.0987 26.0385L21.0206 27.1541C19.2706 28.9999 17.5208 29.9429 15.8669 29.9429C14.4246 29.9429 13.0209 29.3656 12.0016 28.3466C10.9825 27.3276 10.4054 25.9237 10.4051 24.4817C10.4051 23.0394 10.9823 21.6345 12.0016 20.5961C13.0209 19.577 14.4246 18.9998 15.8669 18.9998Z" fill="#83B59F"/>
<path d="M34.0608 18.904C34.7723 18.904 35.4839 19.0574 36.1569 19.3265C36.8106 19.6149 37.4069 20.0192 37.9261 20.5191C38.426 21.0382 38.8307 21.6341 39.1 22.3069C39.3692 22.98 39.5038 23.6931 39.5038 24.4047C39.5037 25.1159 39.3696 25.8277 39.0812 26.5005C38.8119 27.1543 38.3885 27.7697 37.8885 28.2696C37.3693 28.7696 36.7718 29.1722 36.0986 29.4415C35.4449 29.7106 34.7332 29.8453 34.0026 29.8453C33.1954 29.8259 32.4073 29.6351 31.6962 29.2894C30.5999 28.674 29.5989 27.8654 28.7719 26.9231C28.0412 26.1156 27.3875 25.2505 26.8298 24.3277C27.9068 22.5969 30.6567 18.8656 34.0608 18.904Z" fill="#83B59F"/>
<path d="M24.9441 13.9423C26.598 13.9615 27.6374 14.365 28.9259 15.4034C29.3298 15.7111 29.6188 16.0005 29.9457 16.4044C27.6958 17.4427 26.407 19.2691 25.2916 20.8459C25.1956 20.9802 25.0796 21.134 24.9836 21.2684C24.849 21.0762 24.6941 20.8657 24.5403 20.6543C23.4248 19.1351 22.1561 17.3649 19.9444 16.3649C20.2712 16.0382 20.5207 15.7686 20.9436 15.4034C22.232 14.365 23.2904 13.9424 24.9441 13.9423Z" fill="#83B59F"/>
<path fill-rule="evenodd" clip-rule="evenodd" d="M25.0023 0C38.8113 0 50.0047 11.1923 50.0047 25C50.0047 38.8077 38.8113 50 25.0023 50C11.1934 50 0 38.8077 0 25C0 11.1923 11.1934 0 25.0023 0ZM30.9844 8.38529C30.3497 8.03914 29.5406 8.269 29.1944 8.90362L27.7914 11.4802C26.8493 11.1919 25.8684 11.0578 24.8878 11.0577C23.9646 11.0577 23.0397 11.1927 22.155 11.4427H22.0987L20.7126 8.90362C20.3662 8.26942 19.5595 8.03924 18.9058 8.38529C18.2713 8.73144 18.0396 9.53864 18.3855 10.1732L19.6946 12.577C19.4062 12.7693 18.9835 13.0585 18.7142 13.27C17.868 13.9238 17.1557 14.7306 16.5787 15.6344H16.2895C16.1744 15.6152 16.0402 15.5969 15.9251 15.5968H15.8293C14.637 15.5968 13.4827 15.8472 12.3866 16.3086C11.31 16.77 10.3093 17.461 9.50172 18.3068C8.69395 19.1722 8.05792 20.1737 7.63481 21.2891C7.2311 22.4042 7.03996 23.5774 7.09765 24.7502C7.15537 25.9615 7.46269 27.1342 8.00105 28.2302C8.52018 29.3068 9.28887 30.2687 10.2117 31.0378C11.1348 31.807 12.2319 32.3842 13.3858 32.7111C14.2897 32.9611 15.9446 32.9815 16.6369 32.9815L25.0023 43.2317L33.503 32.8839C33.7144 32.9031 33.926 32.9233 34.1566 32.9233C36.4645 32.9041 38.6766 31.9808 40.3114 30.3655V30.3467C41.9462 28.7313 42.8892 26.5189 42.9277 24.2112C42.8699 21.9229 41.9071 19.7306 40.2532 18.1152C38.6187 16.5195 36.4077 15.5956 34.1003 15.5762C33.8118 15.5762 33.5027 15.5959 33.195 15.6344C32.6373 14.7499 31.9446 13.943 31.1177 13.27C30.8524 13.0616 30.2891 12.6656 30.2725 12.654L30.1955 12.6146L31.5215 10.1732C31.8676 9.5388 31.6376 8.73168 30.9844 8.38529Z" fill="#83B59F"/>
<path fill-rule="evenodd" clip-rule="evenodd" d="M148.898 20.9811C150.668 18.7311 153.168 17.6157 156.419 17.6157V17.5969C157.938 17.5969 159.42 17.8849 160.804 18.5002C162.189 19.1156 163.42 20.0194 164.42 21.1538C166.493 23.3714 167.654 26.2483 167.727 29.2612V30.4706C167.653 33.4851 166.493 36.3768 164.42 38.5761C163.42 39.7106 162.189 40.6162 160.804 41.2316C159.42 41.847 157.919 42.1541 156.419 42.1349C153.169 42.1349 150.668 41.0005 148.898 38.7508V41.4814H142.898V8.9224H148.898V20.9811ZM155.303 23.2685C154.457 23.2493 153.61 23.3848 152.822 23.7117C152.034 24.0193 151.322 24.4996 150.707 25.1146C150.111 25.7299 149.629 26.4816 149.321 27.2893C149.014 28.0966 148.86 28.9616 148.898 29.8265C148.86 30.6918 149.013 31.5579 149.321 32.3655C149.629 33.1732 150.111 33.923 150.707 34.5384V34.5778C151.303 35.1928 152.015 35.6539 152.822 35.9807C153.61 36.2884 154.457 36.4431 155.303 36.4239C156.149 36.4431 157.014 36.3075 157.803 35.9807C158.591 35.673 159.323 35.1932 159.92 34.5778C160.535 33.9624 161.015 33.2108 161.323 32.4031C161.63 31.5956 161.784 30.7297 161.745 29.8453C161.784 28.9804 161.63 28.1157 161.323 27.2893C161.015 26.4624 160.535 25.7299 159.92 25.1146C159.323 24.5184 158.591 24.0386 157.803 23.7117C157.014 23.4041 156.149 23.2493 155.303 23.2685Z" fill="#83B59F"/>
<path d="M194.73 18.2505H199.981V24.0009H194.749V33.6726C194.729 33.9995 194.75 34.3077 194.865 34.6154C194.961 34.923 195.134 35.1918 195.346 35.4417C195.846 35.8455 196.461 36.0765 197.115 36.0765C198.077 36.1149 199.039 36.1154 200 36.0577V41.5001C195.865 41.9617 192.98 41.5776 191.287 40.3471C189.614 39.0971 188.767 36.8837 188.748 33.6914V24.0197H184.71V18.2505H188.748V8.96184H194.73V18.2505Z" fill="#83B59F"/>
<path fill-rule="evenodd" clip-rule="evenodd" d="M97.3161 17.1349C98.9315 17.1349 100.528 17.423 102.028 18.0382C103.528 18.6536 104.894 19.5574 106.029 20.6919C107.183 21.8263 108.086 23.1922 108.702 24.692C109.317 26.192 109.626 27.7885 109.607 29.4039C109.645 31.0192 109.338 32.6347 108.722 34.1346C108.107 35.6346 107.183 37.0006 106.029 38.116H106.048C104.913 39.2695 103.547 40.1731 102.047 40.7884C100.547 41.4036 98.9314 41.6922 97.3161 41.6729C95.7011 41.6728 94.1053 41.3847 92.6056 40.7696C91.1057 40.1543 89.7589 39.2503 88.6051 38.116C87.4705 36.9815 86.5666 35.6156 85.9512 34.1158C85.3358 32.6159 85.0267 31.0193 85.0459 29.4039C85.0459 27.7885 85.3358 26.192 85.9512 24.692C86.5666 23.1922 87.4705 21.8263 88.6051 20.6919C89.7397 19.5575 91.1057 18.6535 92.6056 18.0382C94.1053 17.4231 95.701 17.1158 97.3161 17.1349ZM96.9874 22.9999C96.2646 23.0207 95.5475 23.1739 94.8744 23.4431C94.1052 23.7508 93.4121 24.2311 92.816 24.8272C92.22 25.4232 91.7582 26.1537 91.4505 26.9419C91.1813 27.6316 91.0451 28.3659 91.0279 29.1053V29.7401C91.045 30.4796 91.1813 31.2137 91.4505 31.9035C91.7582 32.692 92.2197 33.4239 92.816 34.0201L92.8347 33.9806C93.4117 34.5767 94.1052 35.057 94.8744 35.3647C95.6436 35.6724 96.4704 35.8271 97.2973 35.8079C98.1243 35.8271 98.9715 35.6724 99.7408 35.3647C100.51 35.057 101.221 34.5761 101.797 33.9994C102.394 33.4032 102.876 32.6732 103.184 31.8848C103.491 31.0964 103.645 30.25 103.606 29.4039C103.625 28.5579 103.491 27.7115 103.184 26.9231C102.876 26.1347 102.394 25.4238 101.797 24.8084C101.201 24.2125 100.51 23.7508 99.7408 23.4431C99.0679 23.174 98.3502 23.0208 97.6147 22.9999H96.9874Z" fill="#83B59F"/>
<path fill-rule="evenodd" clip-rule="evenodd" d="M125.28 17.1161C126.896 17.1161 128.512 17.4041 129.993 18.0195C131.493 18.6348 132.858 19.5385 133.993 20.6731C135.147 21.8077 136.05 23.1733 136.666 24.6732C137.281 26.1732 137.59 27.7698 137.571 29.3851C137.61 31.0003 137.302 32.616 136.687 34.1158C136.071 35.6156 135.147 36.98 133.993 38.0953V38.116C131.666 40.385 128.53 41.6729 125.28 41.6729C122.031 41.6727 118.896 40.4039 116.569 38.116C115.415 36.9814 114.491 35.6158 113.895 34.1158C113.279 32.616 112.991 31.0003 113.01 29.3851C113.01 27.7698 113.3 26.1732 113.915 24.6732C114.531 23.1733 115.435 21.8076 116.569 20.6731C117.704 19.5386 119.07 18.6348 120.57 18.0195C122.07 17.4043 123.665 17.097 125.28 17.1161ZM124.952 22.9999C124.229 23.0207 123.512 23.1739 122.839 23.4431C122.069 23.7508 121.376 24.2311 120.78 24.8272C120.184 25.4232 119.722 26.1537 119.415 26.9419C119.107 27.7302 118.973 28.5767 118.992 29.4227C118.954 30.2686 119.107 31.1149 119.415 31.9223C119.722 32.7107 120.184 33.4423 120.78 34.0576V33.9806C121.357 34.5768 122.069 35.0378 122.839 35.3647C123.608 35.6724 124.435 35.8271 125.262 35.8079C126.089 35.8271 126.936 35.6724 127.705 35.3647C128.474 35.057 129.185 34.5761 129.762 33.9994C130.358 33.4033 130.84 32.6732 131.148 31.8848C131.455 31.0964 131.609 30.25 131.57 29.4039C131.59 28.5579 131.455 27.7115 131.148 26.9231C130.84 26.1347 130.358 25.4046 129.762 24.8084C129.166 24.2125 128.474 23.7508 127.705 23.4431C127.032 23.174 126.314 23.0208 125.579 22.9999H124.952Z" fill="#83B59F"/>
<path d="M86.432 15.0766H77.6609V41.4814H71.2563V15.0766H62.5247V8.9224H86.432V15.0766Z" fill="#83B59F"/>
<path d="M179.421 41.4814H173.401V18.2505H179.421V41.4814Z" fill="#83B59F"/>
<path d="M200 24.0009L199.981 24.0197V24.0009H200Z" fill="#83B59F"/>
<path d="M176.344 8.9224C176.806 8.92249 177.247 9.00064 177.67 9.19283C178.093 9.36585 178.478 9.63417 178.786 9.96094C179.113 10.2685 179.362 10.6537 179.535 11.0765C179.708 11.4995 179.806 11.9431 179.787 12.3854C179.787 12.8275 179.709 13.2889 179.517 13.6925C179.343 14.1155 179.075 14.4817 178.767 14.7893C178.46 15.1161 178.074 15.3656 177.652 15.5386C177.228 15.7117 176.785 15.8076 176.324 15.7884L176.363 15.8072C175.921 15.8072 175.477 15.7117 175.054 15.5386C174.651 15.3657 174.266 15.1157 173.959 14.7893C173.632 14.4816 173.381 14.1156 173.189 13.6925C173.016 13.2697 172.921 12.8275 172.92 12.3854C172.92 11.9239 173.016 11.4803 173.189 11.0765C173.362 10.6535 173.633 10.2878 173.94 9.96094C174.248 9.63449 174.613 9.36579 175.035 9.19283C175.439 9.01976 175.902 8.9224 176.344 8.9224Z" fill="#83B59F"/>
</svg>
