<svg width="154" height="50" viewBox="0 0 154 50" fill="none" xmlns="http://www.w3.org/2000/svg">
<path fill-rule="evenodd" clip-rule="evenodd" d="M113.079 0C117.513 0 120.371 2.1413 120.371 6.80566C120.371 7.54637 120.301 8.28713 120.148 9.02783L115.031 40.9028C114.055 47.1181 111.879 50 105.104 50H96.0947C91.59 50 88.8023 47.8587 88.8023 43.1943C88.8023 42.4537 88.873 41.7939 89.0259 40.9722L89.708 37.1294C89.7787 36.5393 90.39 36.1692 90.9898 36.0996L98.2002 35.4282C98.9528 35.3589 99.2466 35.7985 99.1055 36.3887L98.353 40.9028C98.2824 41.6435 98.5766 42.0137 99.2588 42.0137H104.14C104.822 42.0137 105.269 41.6435 105.339 40.9028L106.999 30.9146H98.7998C94.295 30.9145 91.5074 28.7731 91.5073 24.1089C91.5073 23.4376 91.5781 22.7084 91.731 21.8867L93.8364 9.1665C94.8244 2.88196 96.9298 5.54064e-05 103.763 0H113.079ZM104.669 8.06689C103.916 8.06689 103.54 8.43748 103.469 9.17822L101.435 21.6782C101.282 22.419 101.587 22.7895 102.258 22.7896H108.269L110.444 9.25928C110.515 8.51862 110.221 8.14803 109.539 8.14795L104.669 8.06689Z" fill="#83B59F"/>
<path fill-rule="evenodd" clip-rule="evenodd" d="M143.978 0C148.412 0 151.27 2.1413 151.27 6.80566C151.27 7.54637 151.2 8.28713 151.047 9.02783L145.93 40.9028C144.954 47.1181 142.778 50 136.003 50H126.993C122.489 50 119.701 47.8587 119.701 43.1943C119.701 42.4537 119.771 41.7939 119.924 40.9722L120.607 37.1294C120.678 36.5393 121.289 36.1691 121.889 36.0996L129.099 35.4282C129.852 35.3588 130.157 35.7985 130.005 36.3887L129.252 40.9028C129.181 41.6435 129.475 42.0137 130.157 42.0137H135.039C135.709 42.0137 136.168 41.6435 136.238 40.9028L137.897 30.9146H129.699C125.194 30.9146 122.406 28.7731 122.406 24.1089C122.406 23.4376 122.477 22.7084 122.63 21.8867L124.735 9.1665C125.711 2.88192 127.817 1.77205e-05 134.662 0H143.978ZM135.556 8.06689C134.803 8.0669 134.427 8.43749 134.356 9.17822L132.322 21.5972C132.169 22.3379 132.475 22.7084 133.145 22.7085H139.155L141.331 9.17822C141.402 8.43754 141.108 8.06694 140.426 8.06689H135.556Z" fill="#83B59F"/>
<path d="M91.6602 0.520996C92.4128 0.520996 92.6367 0.960618 92.4839 1.55078L90.6841 7.9165C90.4606 8.50678 89.9312 8.87744 89.2608 8.87744H82.7915L76.4048 48.5996C76.2519 49.2709 75.8755 49.6299 75.2051 49.6299H67.2422C66.5601 49.6298 66.1957 49.2593 66.3369 48.5996L72.6528 8.87744H65.2075C64.4548 8.87744 64.2311 8.43744 64.4546 7.84717L66.2544 1.48145C66.4073 0.891247 67.0071 0.52103 67.6069 0.520996H91.6602Z" fill="#83B59F"/>
<path fill-rule="evenodd" clip-rule="evenodd" d="M25.9697 0.439941C30.6274 0.439986 33.5562 2.73159 33.5562 7.46533C33.5562 8.20599 33.4854 9.01608 33.3325 9.82617L32.2857 16.4814C31.6035 20.4744 30.3333 22.9167 27.3223 24.1782L27.2515 24.6992C29.651 25.8103 30.8626 28.3218 30.2627 32.6157L29.0513 40.2314C28.0045 46.5971 25.6638 49.6294 18.6773 49.6294H0.939961C0.187261 49.6294 -0.106877 49.2593 0.034199 48.5996L7.55031 1.48145C7.70322 0.740741 8.0796 0.451172 8.75002 0.451172H25.9697V0.439941ZM11.232 41.2036H17.4658C18.2184 41.2036 18.5947 40.8333 18.7476 40.0928L20.4063 29.9536C20.5591 29.1435 20.1825 28.8428 19.4297 28.8428H13.1958L11.232 41.2036ZM14.5371 20.4165H20.7705C21.5233 20.4165 21.9706 20.0463 22.1236 19.3057L23.6406 10.0581C23.7935 9.31738 23.4173 8.94682 22.6646 8.94678H16.4307V8.87744H16.419L14.5371 20.4165Z" fill="#83B59F"/>
<path d="M63.0195 0.451172C63.7723 0.451172 63.9961 0.891212 63.8433 1.48145L62.0435 7.84717C61.82 8.43738 61.2909 8.80802 60.6206 8.80811H48.2232L46.3413 20.3472H55.6567C56.4095 20.3472 56.6329 20.7872 56.48 21.3774L54.6807 27.7432C54.4572 28.3335 53.9278 28.7036 53.2573 28.7036H44.9888L43.0361 41.0532H56.5625C57.3152 41.0532 57.5384 41.493 57.315 42.0947L55.5156 48.4609C55.2922 49.0511 54.7629 49.4214 54.1631 49.4214H32.6621C31.9799 49.6298 31.6035 49.2593 31.7564 48.5186L39.3428 1.48145C39.4958 0.740783 39.7898 0.451201 40.5425 0.451172H63.0195Z" fill="#83B59F"/>
<path fill-rule="evenodd" clip-rule="evenodd" d="M150.739 43.6909C151.06 43.691 151.313 43.7812 151.52 43.9849C151.727 44.1886 151.841 44.4365 151.841 44.7305C151.841 44.9791 151.771 45.2047 151.634 45.3853C151.496 45.5658 151.335 45.7014 151.128 45.7466L151.955 47.1934H151.151L150.44 45.8379H149.796V47.1934H149.131V43.6909H150.739ZM149.796 45.3403H150.37C150.876 45.3403 151.151 45.1365 151.151 44.7524C151.151 44.5719 151.082 44.4361 150.968 44.3228C150.853 44.2325 150.669 44.1641 150.486 44.1641H149.796V45.3403Z" fill="#83B59F"/>
<path fill-rule="evenodd" clip-rule="evenodd" d="M150.394 41.9048C151.427 41.9048 152.277 42.2212 152.966 42.8774C153.656 43.5105 154 44.3008 154 45.2266V45.7246C154 46.6968 153.656 47.5094 152.966 48.1655C152.301 48.7985 151.428 49.1143 150.394 49.1143C149.338 49.1143 148.465 48.7983 147.799 48.1421C147.11 47.487 146.765 46.6734 146.765 45.7012V45.2036C146.765 44.2777 147.11 43.4859 147.799 42.854C148.488 42.2222 149.361 41.9048 150.394 41.9048ZM150.37 42.5615C149.819 42.5615 149.314 42.6747 148.854 42.9224C148.418 43.1481 148.051 43.4653 147.798 43.8716C147.545 44.2777 147.431 44.707 147.431 45.2046V45.7026C147.431 46.4931 147.706 47.1493 148.258 47.6689C148.81 48.1886 149.498 48.4375 150.348 48.4375C151.198 48.4375 151.887 48.1886 152.438 47.6689C153.036 47.1493 153.31 46.4942 153.31 45.7026V45.2046C153.31 44.4593 153.035 43.826 152.461 43.3296C151.909 42.832 151.197 42.5615 150.37 42.5615Z" fill="#83B59F"/>
</svg>
