<svg width="183" height="30" viewBox="0 0 183 30" fill="none" xmlns="http://www.w3.org/2000/svg">
<path d="M33.4245 22.5014L40.4613 29.4248H8.79593V12.1162H0L12.3143 0L24.6286 12.1162H15.8326V22.5014H33.4245Z" fill="#83B59F"/>
<path d="M24.374 6.92348L17.3372 0H49.0026V17.3087H57.7985L45.4842 29.4248L33.1699 17.3087H41.9658V6.92348H24.374Z" fill="#83B59F"/>
<path d="M176.82 20.7753V15.1258H182.161V21.305C182.161 25.8952 179.513 30 173.378 30C167.022 30 164.506 25.9394 164.506 21.2608V1.84039H170.156V7.71065H182.161V11.7713H170.156V20.687C170.156 23.4236 171.127 25.0125 173.466 25.0125C175.761 25.0125 176.82 23.4677 176.82 20.7753Z" fill="#83B59F"/>
<path d="M146.853 16.4488H155.725C155.638 13.2268 153.518 11.682 151.267 11.682C148.973 11.682 147.074 13.4475 146.853 16.4488ZM161.639 20.0681H146.677C146.853 23.3342 148.708 25.4528 151.532 25.4528C153.386 25.4528 155.019 24.526 155.417 23.0253H161.331C160.007 27.4831 156.432 29.999 151.797 29.999C144.559 29.999 140.939 26.0266 140.939 18.1702C140.939 11.4613 144.78 7.1359 151.445 7.1359C158.108 7.1359 161.639 11.4613 161.639 20.0681Z" fill="#83B59F"/>
<path d="M120.98 24.4382H128.748C131.573 24.4382 133.251 22.6286 133.251 20.2452C133.251 17.6852 131.573 16.5377 128.837 16.5377H120.98V24.4382ZM128.351 5.19443H120.98V11.5501H128.704C131.132 11.5501 132.411 10.4467 132.411 8.37231C132.411 6.12133 131.22 5.19443 128.351 5.19443ZM128.263 29.4257H115.066V0.118652H129.499C135.237 0.118652 138.327 3.20826 138.327 8.10749C138.327 10.6233 136.782 12.7419 134.751 13.5805C137.223 14.5073 139.209 16.4935 139.209 20.6866C139.209 26.0272 135.634 29.4257 128.263 29.4257Z" fill="#83B59F"/>
<path d="M97.5463 16.4487H106.418C106.33 13.2267 104.211 11.6819 101.96 11.6819C99.6649 11.6819 97.767 13.4474 97.5463 16.4487ZM112.332 20.068H97.3697C97.5463 23.3342 99.4 25.4527 102.225 25.4527C104.079 25.4527 105.712 24.5259 106.109 23.0252H112.023C110.699 27.4831 107.124 29.9989 102.49 29.9989C95.2511 29.9989 91.6319 26.0265 91.6319 18.1701C91.6319 11.4612 95.4718 7.13581 102.137 7.13581C108.801 7.13581 112.332 11.4612 112.332 20.068Z" fill="#83B59F"/>
<path d="M79.4446 5.19443H71.544V13.0067H79.2239C82.49 13.0067 83.7259 11.3736 83.7259 9.1226C83.7259 6.82751 82.49 5.19443 79.4446 5.19443ZM88.6692 29.4257H82.6666V21.8783C82.6666 19.0535 81.6073 17.95 78.0763 17.95H71.544V29.4257H65.5855V0.118652H80.4597C85.8886 0.118652 89.4637 3.7379 89.4637 8.59295C89.4637 11.7267 87.9189 14.3749 85.0941 15.3901C87.6982 16.2287 88.6692 17.6852 88.6692 21.1279V29.4257Z" fill="#83B59F"/>
</svg>
