<svg width="174" height="38" viewBox="0 0 174 38" fill="none" xmlns="http://www.w3.org/2000/svg">
<path d="M73.1492 29.8325L66.7998 4.36633H72.4646L76.7216 21.9925H76.7936L82.9272 4.36633H87.7975L93.9309 21.9925H94.0031L98.2964 4.36633H103.925L97.5744 29.8325H91.8025L85.3799 12.809H85.3089L78.85 29.8325H73.1492Z" fill="#83B59F"/>
<path d="M105.66 4.36646H110.999V12.8091H111.072C111.543 11.9357 112.477 11.2414 113.569 10.7712C114.582 10.3345 116.052 10.0579 117.35 10.0507C118.778 10.0434 120.753 10.4131 122.148 11.1395C123.566 11.9139 124.638 12.9547 125.359 14.2603C126.129 15.6156 126.513 17.1396 126.513 18.834V29.8313H121.174V19.5589C121.174 18.0595 120.728 16.8979 119.839 16.0741C118.949 15.2516 117.734 14.8397 116.194 14.8397C114.654 14.8397 113.427 15.275 112.442 16.1469C111.48 17.0173 110.999 18.1556 110.999 19.5589V29.8313H105.66V4.36646Z" fill="#83B59F"/>
<path d="M128.371 20.2187C128.371 18.6947 128.659 17.3031 129.236 16.0454C129.813 14.7878 130.601 13.7164 131.599 12.8329C132.597 11.9493 133.746 11.2666 135.044 10.7819C136.343 10.2986 137.713 10.0555 139.158 10.0555C140.602 10.0555 142.05 10.3044 143.361 10.7993C144.672 11.2957 145.814 11.9857 146.789 12.8678C147.762 13.7514 148.532 14.8154 149.098 16.0615C149.662 17.3075 149.946 18.6932 149.946 20.2172C149.946 21.7412 149.656 23.1636 149.081 24.4094C148.503 25.6554 147.722 26.721 146.735 27.6031C145.748 28.4867 144.601 29.1693 143.29 29.654C141.979 30.1374 140.602 30.3804 139.159 30.3804C137.716 30.3804 136.303 30.1315 134.992 29.6365C133.681 29.1403 132.538 28.4445 131.564 27.5492C130.59 26.6541 129.815 25.5842 129.237 24.3366C128.66 23.0906 128.372 21.718 128.372 20.2172L128.371 20.2187ZM144.607 20.2187C144.607 18.5738 144.108 17.2551 143.109 16.2623C142.11 15.2711 140.794 14.7747 139.159 14.7747C138.365 14.7747 137.631 14.9086 136.958 15.1735C136.284 15.4399 135.706 15.8081 135.226 16.2813C134.745 16.7528 134.373 17.3278 134.108 18.0047C133.843 18.683 133.712 19.4196 133.712 20.2187C133.712 21.0179 133.843 21.75 134.108 22.4153C134.373 23.0805 134.752 23.6555 135.244 24.1387C135.737 24.6235 136.313 24.9975 136.975 25.2638C137.637 25.5304 138.365 25.6627 139.159 25.6627C139.954 25.6627 140.685 25.5304 141.36 25.2638C142.033 24.9975 142.61 24.6292 143.092 24.1561C143.572 23.6846 143.945 23.1096 144.21 22.4328C144.475 21.7558 144.607 21.0179 144.607 20.2187Z" fill="#83B59F"/>
<path d="M151.877 10.0432H157V12.8089H157.073C157.407 12.0811 158.816 10.8671 159.922 10.541C161.028 10.2149 162.147 10.0505 163.278 10.0505C164.721 10.0505 166.043 10.3168 167.248 10.8496C168.449 11.3823 169.49 12.1087 170.368 13.0272C171.247 13.9472 171.93 15.0229 172.424 16.2573C172.918 17.4916 173.163 18.8104 173.163 20.2137C173.163 21.6169 172.916 23.0085 172.424 24.2429C171.93 25.4771 171.245 26.547 170.368 27.4554C169.49 28.3623 168.444 29.0769 167.23 29.5966C166.014 30.1164 164.697 30.3769 163.28 30.3769C162.822 30.3769 162.312 30.3345 161.746 30.2502C161.179 30.1658 160.628 30.0377 160.086 29.8688C159.545 29.6999 159.027 29.4875 158.535 29.2342C158.042 28.9794 157.626 28.684 157.291 28.3448H157.218V37.9999H151.88V10.0432H151.877ZM167.823 20.2137C167.823 18.5689 167.329 17.2559 166.344 16.2762C165.357 15.2965 164.046 14.806 162.411 14.806C161.834 14.806 161.24 14.9035 160.627 15.0957C160.013 15.2892 159.454 15.5672 158.949 15.9312C158.443 16.2937 158.029 16.7304 157.705 17.2384C157.381 17.7464 157.216 18.3272 157.216 18.9808V21.413C157.216 22.2602 157.463 22.9984 157.957 23.6271C158.448 24.256 159.069 24.7407 159.814 25.0783C160.584 25.4656 161.461 25.6592 162.447 25.6592C164.058 25.6592 165.357 25.157 166.344 24.1526C167.329 23.1481 167.823 21.8354 167.823 20.2151V20.2137Z" fill="#83B59F"/>
<path d="M9.20532 0C5.39997 0 2.77671 1.6798 0.791556 3.57938C0.791556 3.57938 -0.0100332 4.34361 9.51789e-05 4.36688L8.33721 12.7542L16.6728 4.36688C15.0943 2.18053 12.118 0 9.20532 0Z" fill="#83B59F"/>
<path d="M29.7937 0C25.9884 0 23.3651 1.6798 21.3797 3.57938C21.3797 3.57938 20.6477 4.32322 20.6144 4.3669L10.3095 14.7353L18.6337 23.1095L37.2611 4.3669C35.6824 2.18053 32.7078 0 29.7937 0Z" fill="#83B59F"/>
<path d="M50.4386 0C46.633 0 44.0099 1.6798 42.0248 3.57938C42.0248 3.57938 41.2621 4.32903 41.2334 4.36688L20.6191 25.1081L22.8011 27.3032C26.1768 30.6993 31.7024 30.6993 35.0782 27.3032L57.8798 4.36688H57.906C56.3275 2.18053 53.3526 0 50.4386 0Z" fill="#83B59F"/>
</svg>
