<svg width="32" height="32" viewBox="0 0 32 32" fill="none" xmlns="http://www.w3.org/2000/svg">
<path d="M16 1.90798e-07C24.8366 2.96173e-07 32 7.16344 32 16C32 24.8366 24.8366 32 16 32C7.16344 32 8.54232e-08 24.8366 1.90798e-07 16C2.96173e-07 7.16344 7.16344 8.54232e-08 16 1.90798e-07ZM16 28C22.6274 28 28 22.6274 28 16C28 9.37258 22.6274 4 16 4C9.37258 4 4 9.37258 4 16C4 22.6274 9.37258 28 16 28Z" fill="white" style="mix-blend-mode:overlay"/>
<path d="M16 1.90798e-07C18.1012 2.15854e-07 20.1817 0.413853 22.1229 1.21793C24.0641 2.022 25.828 3.20055 27.3137 4.68629L24.4853 7.51472C23.371 6.40042 22.0481 5.5165 20.5922 4.91345C19.1363 4.31039 17.5759 4 16 4L16 1.90798e-07Z" fill="#00FF8A"/>
</svg>
