<svg width="23" height="16" viewBox="0 0 23 16" fill="none" xmlns="http://www.w3.org/2000/svg">
<path d="M20.2215 16L16.4782 9.37255C16.7097 9.50327 16.9799 9.59477 17.2886 9.64706C17.5973 9.69935 17.906 9.72549 18.2148 9.72549C19.5783 9.72549 20.7167 9.24941 21.63 8.29725C22.5433 7.34484 23 6.2 23 4.86275C23 3.47712 22.5433 2.32026 21.63 1.39216C20.7167 0.464052 19.5783 0 18.2148 0C16.8988 0 15.7722 0.464052 14.835 1.39216C13.898 2.32026 13.4295 3.47255 13.4295 4.84902C13.4295 5.32876 13.4874 5.77778 13.6032 6.19608C13.719 6.61438 13.8798 7.00654 14.0856 7.37255L18.9866 16H20.2215ZM6.79195 16L3.04866 9.37255C3.2802 9.50327 3.55034 9.59477 3.85906 9.64706C4.16779 9.69935 4.47651 9.72549 4.78524 9.72549C6.14877 9.72549 7.28719 9.24941 8.2005 8.29725C9.11381 7.34484 9.57047 6.2 9.57047 4.86275C9.57047 3.45098 9.11381 2.28758 8.2005 1.37255C7.28719 0.457516 6.14877 0 4.78524 0C3.4693 0 2.34271 0.464052 1.40547 1.39216C0.468491 2.32026 0 3.47255 0 4.84902C0 5.32876 0.0578861 5.77778 0.173658 6.19608C0.289431 6.61438 0.450224 7.00654 0.65604 7.37255L5.55705 16H6.79195ZM15.5906 7.52941C14.8702 6.79739 14.5101 5.9085 14.5101 4.86275C14.5101 3.81699 14.8702 2.9281 15.5906 2.19608C16.311 1.46405 17.1857 1.09804 18.2148 1.09804C19.2438 1.09804 20.1186 1.46405 20.8389 2.19608C21.5593 2.9281 21.9195 3.81699 21.9195 4.86275C21.9195 5.9085 21.5593 6.79739 20.8389 7.52941C20.1186 8.26144 19.2438 8.62745 18.2148 8.62745C17.1857 8.62745 16.311 8.26144 15.5906 7.52941ZM2.16107 7.52941C1.44072 6.79739 1.08054 5.9085 1.08054 4.86275C1.08054 3.81699 1.44072 2.9281 2.16107 2.19608C2.88143 1.46405 3.75615 1.09804 4.78524 1.09804C5.81432 1.09804 6.68904 1.46405 7.4094 2.19608C8.12975 2.9281 8.48993 3.81699 8.48993 4.86275C8.48993 5.9085 8.12975 6.79739 7.4094 7.52941C6.68904 8.26144 5.81432 8.62745 4.78524 8.62745C3.75615 8.62745 2.88143 8.26144 2.16107 7.52941Z" fill="#83B59F"/>
</svg>
