<svg width="16" height="14" viewBox="0 0 16 14" fill="none" xmlns="http://www.w3.org/2000/svg">
<path d="M2.36364 14C1.9697 14 1.64394 13.8712 1.38636 13.6136C1.12879 13.3561 1 13.0303 1 12.6364V1.36364C1 0.969697 1.12879 0.643939 1.38636 0.386364C1.64394 0.128788 1.9697 0 2.36364 0H13.6364C14.0303 0 14.3561 0.128788 14.6136 0.386364C14.8712 0.643939 15 0.969697 15 1.36364V12.6364C15 13.0303 14.8712 13.3561 14.6136 13.6136C14.3561 13.8712 14.0303 14 13.6364 14H2.36364ZM1.63636 1.36364V12.6364C1.63636 12.8182 1.71212 12.9848 1.86364 13.1364C2.01515 13.2879 2.18182 13.3636 2.36364 13.3636H13.6364C13.8182 13.3636 13.9848 13.2879 14.1364 13.1364C14.2879 12.9848 14.3636 12.8182 14.3636 12.6364V1.36364C14.3636 1.18182 14.2879 1.01515 14.1364 0.863636C13.9848 0.712121 13.8182 0.636364 13.6364 0.636364H11.9545V5.95455L10.2727 4.95455L8.59091 5.95455V0.636364H2.36364C2.18182 0.636364 2.01515 0.712121 1.86364 0.863636C1.71212 1.01515 1.63636 1.18182 1.63636 1.36364Z" fill="#83B59F"/>
</svg>
