<svg width="16" height="14" viewBox="0 0 16 14" fill="none" xmlns="http://www.w3.org/2000/svg">
<path d="M5.27443 13.4468C4.42289 13.0781 3.68199 12.5785 3.05172 11.9483C2.42146 11.318 1.92193 10.5771 1.55316 9.72558C1.18439 8.87404 1 7.96552 1 7C1 6.03448 1.18439 5.12596 1.55316 4.27443C1.92193 3.42289 2.42146 2.68199 3.05172 2.05172C3.68199 1.42146 4.42289 0.921935 5.27443 0.553161C6.12596 0.184387 7.03448 0 8 0C8.96552 0 9.87404 0.184387 10.7256 0.553161C11.5771 0.921935 12.318 1.42146 12.9483 2.05172C13.5785 2.68199 14.0781 3.42289 14.4468 4.27443C14.8156 5.12596 15 6.03448 15 7C15 7.96552 14.8156 8.87404 14.4468 9.72558C14.0781 10.5771 13.5785 11.318 12.9483 11.9483C12.318 12.5785 11.5771 13.0781 10.7256 13.4468C9.87404 13.8156 8.96552 14 8 14C7.03448 14 6.12596 13.8156 5.27443 13.4468ZM5.66667 12.9943L7.1954 9.53448C6.7931 9.40038 6.44444 9.18582 6.14943 8.89081C5.85441 8.59579 5.63985 8.24713 5.50575 7.84483L1.96552 9.2931C2.28736 10.1513 2.77012 10.9023 3.41379 11.546C4.05747 12.1897 4.80843 12.6724 5.66667 12.9943ZM5.50575 6.15517C5.61303 5.75287 5.81753 5.41427 6.11925 5.13937C6.42098 4.86446 6.76628 4.65326 7.15517 4.50575L5.7069 0.965517C4.83525 1.30077 4.07759 1.79023 3.43391 2.43391C2.79023 3.07759 2.30077 3.83525 1.96552 4.7069L5.50575 6.15517ZM9.47845 8.47845C9.88745 8.06944 10.092 7.57663 10.092 7C10.092 6.42337 9.88745 5.93056 9.47845 5.52155C9.06944 5.11255 8.57663 4.90805 8 4.90805C7.42337 4.90805 6.93056 5.11255 6.52155 5.52155C6.11255 5.93056 5.90805 6.42337 5.90805 7C5.90805 7.57663 6.11255 8.06944 6.52155 8.47845C6.93056 8.88745 7.42337 9.09195 8 9.09195C8.57663 9.09195 9.06944 8.88745 9.47845 8.47845ZM10.3333 12.9943C11.1782 12.6724 11.9191 12.193 12.556 11.556C13.193 10.9191 13.6724 10.1782 13.9943 9.33333L10.5345 7.8046C10.4138 8.19349 10.2059 8.53544 9.91092 8.83046C9.6159 9.12548 9.27395 9.34674 8.88506 9.49425L10.3333 12.9943ZM10.4943 6.11494L13.9943 4.66667C13.6724 3.82184 13.193 3.08094 12.556 2.44397C11.9191 1.80699 11.1782 1.32759 10.3333 1.00575L8.88506 4.50575C9.24713 4.66667 9.56897 4.88123 9.85058 5.14943C10.1322 5.41762 10.3467 5.73946 10.4943 6.11494Z" fill="#83B59F"/>
</svg>
