<svg width="16" height="14" viewBox="0 0 16 14" fill="none" xmlns="http://www.w3.org/2000/svg">
<path d="M15.5 14L12.939 11.4211H4.34146C3.98933 11.4211 3.68788 11.2948 3.43712 11.0423C3.18636 10.7897 3.06098 10.4862 3.06098 10.1316H12.8476C13.2248 10.1316 13.5479 9.99626 13.8166 9.72563C14.0852 9.45514 14.2195 9.12993 14.2195 8.75V2.48684C14.5716 2.48684 14.8731 2.6131 15.1239 2.86563C15.3746 3.11815 15.5 3.42171 15.5 3.77632V14ZM1.14024 9.30263L2.78659 7.64474H11.0183C11.2317 7.64474 11.407 7.57566 11.5442 7.4375C11.6814 7.29934 11.75 7.12281 11.75 6.90789V1.38158C11.75 1.16667 11.6814 0.990132 11.5442 0.851974C11.407 0.713816 11.2317 0.644737 11.0183 0.644737H1.87195C1.65854 0.644737 1.48323 0.713816 1.34604 0.851974C1.20884 0.990132 1.14024 1.16667 1.14024 1.38158V9.30263ZM0.5 10.8684V1.38158C0.5 1.00164 0.634375 0.67636 0.903125 0.405724C1.17172 0.135241 1.49466 0 1.87195 0H11.0183C11.3956 0 11.7186 0.135241 11.9873 0.405724C12.2559 0.67636 12.3902 1.00164 12.3902 1.38158V6.90789C12.3902 7.28783 12.2559 7.61304 11.9873 7.88352C11.7186 8.15416 11.3956 8.28947 11.0183 8.28947H3.06098L0.5 10.8684Z" fill="#83B59F"/>
</svg>
