<svg width="16" height="14" viewBox="0 0 16 14" fill="none" xmlns="http://www.w3.org/2000/svg">
<path d="M5 7.86957H5.6087V6.13043H6.73913C6.91304 6.13043 7.05797 6.07246 7.17391 5.95652C7.28986 5.84058 7.34783 5.69565 7.34783 5.52174V4.3913C7.34783 4.21739 7.28986 4.07246 7.17391 3.95652C7.05797 3.84058 6.91304 3.78261 6.73913 3.78261H5V7.86957ZM5.6087 5.52174V4.3913H6.73913V5.52174H5.6087ZM8.26087 7.86957H9.91304C10.087 7.86957 10.2319 7.81159 10.3478 7.69565C10.4638 7.57971 10.5217 7.43478 10.5217 7.26087V4.3913C10.5217 4.21739 10.4638 4.07246 10.3478 3.95652C10.2319 3.84058 10.087 3.78261 9.91304 3.78261H8.26087V7.86957ZM8.86957 7.26087V4.3913H9.91304V7.26087H8.86957ZM11.6522 7.86957H12.2609V6.13043H13.5652V5.52174H12.2609V4.3913H13.5652V3.78261H11.6522V7.86957ZM4.65217 11.6522C4.27536 11.6522 3.96377 11.529 3.71739 11.2826C3.47101 11.0362 3.34783 10.7246 3.34783 10.3478V1.30435C3.34783 0.927536 3.47101 0.615942 3.71739 0.369565C3.96377 0.123188 4.27536 0 4.65217 0H13.6957C14.0725 0 14.3841 0.123188 14.6304 0.369565C14.8768 0.615942 15 0.927536 15 1.30435V10.3478C15 10.7246 14.8768 11.0362 14.6304 11.2826C14.3841 11.529 14.0725 11.6522 13.6957 11.6522H4.65217ZM4.65217 11.0435H13.6957C13.8696 11.0435 14.029 10.971 14.1739 10.8261C14.3188 10.6812 14.3913 10.5217 14.3913 10.3478V1.30435C14.3913 1.13043 14.3188 0.971014 14.1739 0.826087C14.029 0.681159 13.8696 0.608696 13.6957 0.608696H4.65217C4.47826 0.608696 4.31884 0.681159 4.17391 0.826087C4.02899 0.971014 3.95652 1.13043 3.95652 1.30435V10.3478C3.95652 10.5217 4.02899 10.6812 4.17391 10.8261C4.31884 10.971 4.47826 11.0435 4.65217 11.0435ZM2.30435 14C1.92754 14 1.61594 13.8768 1.36957 13.6304C1.12319 13.3841 1 13.0725 1 12.6957V3.04348H1.6087V12.6957C1.6087 12.8696 1.68116 13.029 1.82609 13.1739C1.97101 13.3188 2.13043 13.3913 2.30435 13.3913H11.9565V14H2.30435Z" fill="#83B59F"/>
</svg>
