<svg width="16" height="16" viewBox="0 0 16 16" fill="none" xmlns="http://www.w3.org/2000/svg">
<path d="M4.64368 11.3563L9.65517 9.65517L11.3563 4.64368L6.34483 6.34483L4.64368 11.3563ZM7.99448 8.91954C7.73762 8.91954 7.52107 8.82958 7.34483 8.64966C7.16858 8.46988 7.08046 8.25149 7.08046 7.99448C7.08046 7.73762 7.17042 7.52107 7.35034 7.34483C7.53011 7.16858 7.74851 7.08046 8.00552 7.08046C8.26237 7.08046 8.47893 7.17042 8.65517 7.35034C8.83142 7.53011 8.91954 7.74851 8.91954 8.00552C8.91954 8.26237 8.82958 8.47893 8.64966 8.65517C8.46988 8.83142 8.25149 8.91954 7.99448 8.91954ZM8.00391 16C6.89785 16 5.85778 15.7901 4.88368 15.3703C3.90958 14.9506 3.0623 14.3808 2.34184 13.6611C1.62123 12.9415 1.0508 12.0952 0.630575 11.1225C0.210191 10.1497 0 9.11012 0 8.00391C0 6.89785 0.209885 5.85778 0.629655 4.88368C1.04943 3.90958 1.61916 3.0623 2.33885 2.34184C3.05854 1.62123 3.90475 1.0508 4.87747 0.630575C5.85035 0.210191 6.88988 0 7.99609 0C9.10215 0 10.1422 0.209885 11.1163 0.629655C12.0904 1.04943 12.9377 1.61916 13.6582 2.33885C14.3788 3.05854 14.9492 3.90475 15.3694 4.87747C15.7898 5.85034 16 6.88988 16 7.99609C16 9.10215 15.7901 10.1422 15.3703 11.1163C14.9506 12.0904 14.3808 12.9377 13.6611 13.6582C12.9415 14.3788 12.0952 14.9492 11.1225 15.3694C10.1497 15.7898 9.11012 16 8.00391 16Z" fill="#00FF8A"/>
</svg>
