<svg width="16" height="11" viewBox="0 0 16 11" fill="none" xmlns="http://www.w3.org/2000/svg">
<path d="M10.0104 7.6348C10.559 7.04739 10.8333 6.33402 10.8333 5.49468C10.8333 4.65548 10.5574 3.94388 10.0054 3.35988C9.45361 2.77587 8.78347 2.48387 7.995 2.48387C7.20667 2.48387 6.53819 2.77765 5.98958 3.3652C5.44097 3.95261 5.16667 4.66598 5.16667 5.50532C5.16667 6.34452 5.44264 7.05612 5.99458 7.64012C6.54639 8.22413 7.21653 8.51613 8.005 8.51613C8.79333 8.51613 9.46181 8.22235 10.0104 7.6348ZM6.40625 7.19657C5.96875 6.73085 5.75 6.16532 5.75 5.5C5.75 4.83468 5.96875 4.26915 6.40625 3.80343C6.84375 3.3377 7.375 3.10484 8 3.10484C8.625 3.10484 9.15625 3.3377 9.59375 3.80343C10.0312 4.26915 10.25 4.83468 10.25 5.5C10.25 6.16532 10.0312 6.73085 9.59375 7.19657C9.15625 7.6623 8.625 7.89516 8 7.89516C7.375 7.89516 6.84375 7.6623 6.40625 7.19657ZM3.25 9.50302C1.81944 8.50504 0.736111 7.1707 0 5.5C0.736111 3.8293 1.81847 2.49496 3.24708 1.49698C4.67556 0.498992 6.25889 0 7.99708 0C9.73514 0 11.3194 0.498992 12.75 1.49698C14.1806 2.49496 15.2639 3.8293 16 5.5C15.2639 7.1707 14.1815 8.50504 12.7529 9.50302C11.3244 10.501 9.74111 11 8.00292 11C6.26486 11 4.68056 10.501 3.25 9.50302Z" fill="#00FF8A"/>
</svg>
