<svg width="16" height="14" viewBox="0 0 16 14" fill="none" xmlns="http://www.w3.org/2000/svg">
<path d="M3.16883 14C2.84416 14 2.56818 13.8827 2.34091 13.648C2.11364 13.4133 2 13.1284 2 12.7931V2.81609C2 2.48084 2.11364 2.19588 2.34091 1.96121C2.56818 1.72653 2.84416 1.6092 3.16883 1.6092H6.94805C6.80519 1.22031 6.84416 0.854885 7.06493 0.512931C7.28571 0.170977 7.5974 0 8 0C8.41558 0 8.73377 0.170977 8.95455 0.512931C9.17532 0.854885 9.20779 1.22031 9.05195 1.6092H12.8312C13.1558 1.6092 13.4318 1.72653 13.6591 1.96121C13.8864 2.19588 14 2.48084 14 2.81609V12.7931C14 13.1284 13.8864 13.4133 13.6591 13.648C13.4318 13.8827 13.1558 14 12.8312 14H3.16883ZM3.16883 13.4368H12.8312C12.987 13.4368 13.1299 13.3697 13.2597 13.2356C13.3896 13.1015 13.4545 12.954 13.4545 12.7931V2.81609C13.4545 2.65517 13.3896 2.50766 13.2597 2.37356C13.1299 2.23946 12.987 2.17241 12.8312 2.17241H3.16883C3.01299 2.17241 2.87013 2.23946 2.74026 2.37356C2.61039 2.50766 2.54545 2.65517 2.54545 2.81609V12.7931C2.54545 12.954 2.61039 13.1015 2.74026 13.2356C2.87013 13.3697 3.01299 13.4368 3.16883 13.4368ZM4.61039 11.0632H9.05195V10.5H4.61039V11.0632ZM4.61039 8.08621H11.3896V7.52299H4.61039V8.08621ZM4.61039 5.1092H11.3896V4.54598H4.61039V5.1092ZM8.41883 1.59914C8.52922 1.48515 8.58442 1.341 8.58442 1.16667C8.58442 0.992337 8.52922 0.84818 8.41883 0.734195C8.30844 0.620211 8.16883 0.563218 8 0.563218C7.83117 0.563218 7.69156 0.620211 7.58117 0.734195C7.47078 0.84818 7.41558 0.992337 7.41558 1.16667C7.41558 1.341 7.47078 1.48515 7.58117 1.59914C7.69156 1.71312 7.83117 1.77012 8 1.77012C8.16883 1.77012 8.30844 1.71312 8.41883 1.59914Z" fill="#83B59F"/>
</svg>
