<svg width="16" height="12" viewBox="0 0 16 12" fill="none" xmlns="http://www.w3.org/2000/svg">
<path d="M13.3257 6.34156V5.76091H16V6.34156H13.3257ZM14.2703 12L12.1309 10.4061L12.5064 9.95066L14.6458 11.5446L14.2703 12ZM12.4154 2.04934L12.0398 1.59393L14.1792 0L14.5548 0.455408L12.4154 2.04934ZM2.28734 11.1006V7.71917H1.34282C0.971076 7.71917 0.654339 7.59013 0.392603 7.33207C0.130868 7.074 0 6.75901 0 6.3871V5.71537C0 5.34345 0.130868 5.02657 0.392603 4.76471C0.654339 4.50285 0.971076 4.37192 1.34282 4.37192H4.54054L7.78378 2.4592V9.63188L4.54054 7.71917H2.86771V11.1006H2.28734ZM9.77525 8.50474V3.58634C10.0408 3.83681 10.2532 4.17837 10.4125 4.61101C10.5718 5.04364 10.6515 5.52182 10.6515 6.04554C10.6515 6.56926 10.5718 7.04744 10.4125 7.48008C10.2532 7.91271 10.0408 8.25427 9.77525 8.50474Z" fill="#00FF8A"/>
</svg>
