<svg width="16" height="16" viewBox="0 0 16 16" fill="none" xmlns="http://www.w3.org/2000/svg">
<path d="M7.02188 14.1828C5.50493 13.765 4.25225 12.9156 3.26384 11.6345C2.27542 10.3534 1.78121 8.8738 1.78121 7.19582C1.78121 6.72933 1.82411 6.26458 1.90991 5.80157C1.99571 5.33856 2.13127 4.88773 2.3166 4.44909L0.236808 5.66057L0 5.20104L2.93436 3.47781L4.6435 6.45431L4.19048 6.74674L2.90348 4.49086C2.70442 4.92254 2.55856 5.36815 2.46589 5.82768C2.37323 6.28721 2.3269 6.75022 2.3269 7.21671C2.3269 8.79025 2.7988 10.1741 3.7426 11.3681C4.6864 12.5622 5.87559 13.3403 7.31017 13.7023L7.02188 14.1828ZM11.5006 3.58225V3.04961H14.0438C13.4191 2.24195 12.6572 1.62054 11.758 1.18538C10.8589 0.750218 9.90476 0.532637 8.89575 0.532637C7.97598 0.532637 7.11798 0.708442 6.32175 1.06005C5.52553 1.41166 4.82883 1.89382 4.23166 2.50653L3.94337 2.00522C4.58859 1.38555 5.33162 0.896432 6.17246 0.537859C7.0133 0.179286 7.9142 0 8.87516 0C9.95281 0 10.9687 0.226284 11.9228 0.678851C12.8769 1.13142 13.6971 1.77894 14.3835 2.62141V0.125326H14.9086V3.58225H11.5006ZM11.7683 16L8.83398 14.2454L10.5328 11.2898L10.9858 11.5509L9.65766 13.8486C11.305 13.6536 12.6864 12.9278 13.8018 11.671C14.9172 10.4143 15.4749 8.93299 15.4749 7.22715C15.4749 6.87903 15.4492 6.53438 15.3977 6.19321C15.3462 5.85205 15.2724 5.52132 15.1763 5.20104H15.7426C15.825 5.52132 15.8885 5.84682 15.9331 6.17755C15.9777 6.50827 16 6.84769 16 7.19582C16 8.99913 15.4286 10.5744 14.2857 11.9217C13.1429 13.2689 11.7031 14.0748 9.96654 14.3394L12.036 15.5405L11.7683 16Z" fill="#00FF8A"/>
</svg>
