<svg width="36" height="36" viewBox="0 0 36 36" fill="none" xmlns="http://www.w3.org/2000/svg">
<g filter="url(#filter0_d_52_3014)">
<path d="M10.1263 19.9789C10.0421 19.8947 10 19.7965 10 19.6842C10 19.5719 10.0421 19.4737 10.1263 19.3895C10.2105 19.3053 10.3088 19.2632 10.4211 19.2632C10.5333 19.2632 10.6316 19.3053 10.7158 19.3895C10.8 19.4737 10.8421 19.5719 10.8421 19.6842C10.8421 19.7965 10.8 19.8947 10.7158 19.9789C10.6316 20.0632 10.5333 20.1053 10.4211 20.1053C10.3088 20.1053 10.2105 20.0632 10.1263 19.9789ZM10.1263 16.6105C10.0421 16.5263 10 16.4281 10 16.3158C10 16.2035 10.0421 16.1053 10.1263 16.0211C10.2105 15.9368 10.3088 15.8947 10.4211 15.8947C10.5333 15.8947 10.6316 15.9368 10.7158 16.0211C10.8 16.1053 10.8421 16.2035 10.8421 16.3158C10.8421 16.4281 10.8 16.5263 10.7158 16.6105C10.6316 16.6947 10.5333 16.7368 10.4211 16.7368C10.3088 16.7368 10.2105 16.6947 10.1263 16.6105ZM12.4632 23.5368C12.3368 23.4105 12.2737 23.2491 12.2737 23.0526C12.2737 22.8561 12.3368 22.6947 12.4632 22.5684C12.5895 22.4421 12.7509 22.3789 12.9474 22.3789C13.1439 22.3789 13.3053 22.4421 13.4316 22.5684C13.5579 22.6947 13.6211 22.8561 13.6211 23.0526C13.6211 23.2491 13.5579 23.4105 13.4316 23.5368C13.3053 23.6632 13.1439 23.7263 12.9474 23.7263C12.7509 23.7263 12.5895 23.6632 12.4632 23.5368ZM12.4632 20.1684C12.3368 20.0421 12.2737 19.8807 12.2737 19.6842C12.2737 19.4877 12.3368 19.3263 12.4632 19.2C12.5895 19.0737 12.7509 19.0105 12.9474 19.0105C13.1439 19.0105 13.3053 19.0737 13.4316 19.2C13.5579 19.3263 13.6211 19.4877 13.6211 19.6842C13.6211 19.8807 13.5579 20.0421 13.4316 20.1684C13.3053 20.2947 13.1439 20.3579 12.9474 20.3579C12.7509 20.3579 12.5895 20.2947 12.4632 20.1684ZM12.4632 16.8C12.3368 16.6737 12.2737 16.5123 12.2737 16.3158C12.2737 16.1193 12.3368 15.9579 12.4632 15.8316C12.5895 15.7053 12.7509 15.6421 12.9474 15.6421C13.1439 15.6421 13.3053 15.7053 13.4316 15.8316C13.5579 15.9579 13.6211 16.1193 13.6211 16.3158C13.6211 16.5123 13.5579 16.6737 13.4316 16.8C13.3053 16.9263 13.1439 16.9895 12.9474 16.9895C12.7509 16.9895 12.5895 16.9263 12.4632 16.8ZM12.4632 13.4316C12.3368 13.3053 12.2737 13.1439 12.2737 12.9474C12.2737 12.7509 12.3368 12.5895 12.4632 12.4632C12.5895 12.3368 12.7509 12.2737 12.9474 12.2737C13.1439 12.2737 13.3053 12.3368 13.4316 12.4632C13.5579 12.5895 13.6211 12.7509 13.6211 12.9474C13.6211 13.1439 13.5579 13.3053 13.4316 13.4316C13.3053 13.5579 13.1439 13.6211 12.9474 13.6211C12.7509 13.6211 12.5895 13.5579 12.4632 13.4316ZM15.6632 20.3368C15.4807 20.1544 15.3895 19.9368 15.3895 19.6842C15.3895 19.4316 15.4807 19.214 15.6632 19.0316C15.8456 18.8491 16.0632 18.7579 16.3158 18.7579C16.5684 18.7579 16.786 18.8491 16.9684 19.0316C17.1509 19.214 17.2421 19.4316 17.2421 19.6842C17.2421 19.9368 17.1509 20.1544 16.9684 20.3368C16.786 20.5193 16.5684 20.6105 16.3158 20.6105C16.0632 20.6105 15.8456 20.5193 15.6632 20.3368ZM15.6632 16.9684C15.4807 16.786 15.3895 16.5684 15.3895 16.3158C15.3895 16.0632 15.4807 15.8456 15.6632 15.6632C15.8456 15.4807 16.0632 15.3895 16.3158 15.3895C16.5684 15.3895 16.786 15.4807 16.9684 15.6632C17.1509 15.8456 17.2421 16.0632 17.2421 16.3158C17.2421 16.5684 17.1509 16.786 16.9684 16.9684C16.786 17.1509 16.5684 17.2421 16.3158 17.2421C16.0632 17.2421 15.8456 17.1509 15.6632 16.9684ZM15.8316 23.5368C15.7053 23.4105 15.6421 23.2491 15.6421 23.0526C15.6421 22.8561 15.7053 22.6947 15.8316 22.5684C15.9579 22.4421 16.1193 22.3789 16.3158 22.3789C16.5123 22.3789 16.6737 22.4421 16.8 22.5684C16.9263 22.6947 16.9895 22.8561 16.9895 23.0526C16.9895 23.2491 16.9263 23.4105 16.8 23.5368C16.6737 23.6632 16.5123 23.7263 16.3158 23.7263C16.1193 23.7263 15.9579 23.6632 15.8316 23.5368ZM15.8316 13.4316C15.7053 13.3053 15.6421 13.1439 15.6421 12.9474C15.6421 12.7509 15.7053 12.5895 15.8316 12.4632C15.9579 12.3368 16.1193 12.2737 16.3158 12.2737C16.5123 12.2737 16.6737 12.3368 16.8 12.4632C16.9263 12.5895 16.9895 12.7509 16.9895 12.9474C16.9895 13.1439 16.9263 13.3053 16.8 13.4316C16.6737 13.5579 16.5123 13.6211 16.3158 13.6211C16.1193 13.6211 15.9579 13.5579 15.8316 13.4316ZM16.0211 25.8737C15.9368 25.7895 15.8947 25.6912 15.8947 25.5789C15.8947 25.4667 15.9368 25.3684 16.0211 25.2842C16.1053 25.2 16.2035 25.1579 16.3158 25.1579C16.4281 25.1579 16.5263 25.2 16.6105 25.2842C16.6947 25.3684 16.7368 25.4667 16.7368 25.5789C16.7368 25.6912 16.6947 25.7895 16.6105 25.8737C16.5263 25.9579 16.4281 26 16.3158 26C16.2035 26 16.1053 25.9579 16.0211 25.8737ZM16.0211 10.7158C15.9368 10.6316 15.8947 10.5333 15.8947 10.4211C15.8947 10.3088 15.9368 10.2105 16.0211 10.1263C16.1053 10.0421 16.2035 10 16.3158 10C16.4281 10 16.5263 10.0421 16.6105 10.1263C16.6947 10.2105 16.7368 10.3088 16.7368 10.4211C16.7368 10.5333 16.6947 10.6316 16.6105 10.7158C16.5263 10.8 16.4281 10.8421 16.3158 10.8421C16.2035 10.8421 16.1053 10.8 16.0211 10.7158ZM19.0316 20.3368C18.8491 20.1544 18.7579 19.9368 18.7579 19.6842C18.7579 19.4316 18.8491 19.214 19.0316 19.0316C19.214 18.8491 19.4316 18.7579 19.6842 18.7579C19.9368 18.7579 20.1544 18.8491 20.3368 19.0316C20.5193 19.214 20.6105 19.4316 20.6105 19.6842C20.6105 19.9368 20.5193 20.1544 20.3368 20.3368C20.1544 20.5193 19.9368 20.6105 19.6842 20.6105C19.4316 20.6105 19.214 20.5193 19.0316 20.3368ZM19.0316 16.9684C18.8491 16.786 18.7579 16.5684 18.7579 16.3158C18.7579 16.0632 18.8491 15.8456 19.0316 15.6632C19.214 15.4807 19.4316 15.3895 19.6842 15.3895C19.9368 15.3895 20.1544 15.4807 20.3368 15.6632C20.5193 15.8456 20.6105 16.0632 20.6105 16.3158C20.6105 16.5684 20.5193 16.786 20.3368 16.9684C20.1544 17.1509 19.9368 17.2421 19.6842 17.2421C19.4316 17.2421 19.214 17.1509 19.0316 16.9684ZM19.2 23.5368C19.0737 23.4105 19.0105 23.2491 19.0105 23.0526C19.0105 22.8561 19.0737 22.6947 19.2 22.5684C19.3263 22.4421 19.4877 22.3789 19.6842 22.3789C19.8807 22.3789 20.0421 22.4421 20.1684 22.5684C20.2947 22.6947 20.3579 22.8561 20.3579 23.0526C20.3579 23.2491 20.2947 23.4105 20.1684 23.5368C20.0421 23.6632 19.8807 23.7263 19.6842 23.7263C19.4877 23.7263 19.3263 23.6632 19.2 23.5368ZM19.2 13.4316C19.0737 13.3053 19.0105 13.1439 19.0105 12.9474C19.0105 12.7509 19.0737 12.5895 19.2 12.4632C19.3263 12.3368 19.4877 12.2737 19.6842 12.2737C19.8807 12.2737 20.0421 12.3368 20.1684 12.4632C20.2947 12.5895 20.3579 12.7509 20.3579 12.9474C20.3579 13.1439 20.2947 13.3053 20.1684 13.4316C20.0421 13.5579 19.8807 13.6211 19.6842 13.6211C19.4877 13.6211 19.3263 13.5579 19.2 13.4316ZM19.3895 25.8737C19.3053 25.7895 19.2632 25.6912 19.2632 25.5789C19.2632 25.4667 19.3053 25.3684 19.3895 25.2842C19.4737 25.2 19.5719 25.1579 19.6842 25.1579C19.7965 25.1579 19.8947 25.2 19.9789 25.2842C20.0632 25.3684 20.1053 25.4667 20.1053 25.5789C20.1053 25.6912 20.0632 25.7895 19.9789 25.8737C19.8947 25.9579 19.7965 26 19.6842 26C19.5719 26 19.4737 25.9579 19.3895 25.8737ZM19.3895 10.7158C19.3053 10.6316 19.2632 10.5333 19.2632 10.4211C19.2632 10.3088 19.3053 10.2105 19.3895 10.1263C19.4737 10.0421 19.5719 10 19.6842 10C19.7965 10 19.8947 10.0421 19.9789 10.1263C20.0632 10.2105 20.1053 10.3088 20.1053 10.4211C20.1053 10.5333 20.0632 10.6316 19.9789 10.7158C19.8947 10.8 19.7965 10.8421 19.6842 10.8421C19.5719 10.8421 19.4737 10.8 19.3895 10.7158ZM22.5684 23.5368C22.4421 23.4105 22.3789 23.2491 22.3789 23.0526C22.3789 22.8561 22.4421 22.6947 22.5684 22.5684C22.6947 22.4421 22.8561 22.3789 23.0526 22.3789C23.2491 22.3789 23.4105 22.4421 23.5368 22.5684C23.6632 22.6947 23.7263 22.8561 23.7263 23.0526C23.7263 23.2491 23.6632 23.4105 23.5368 23.5368C23.4105 23.6632 23.2491 23.7263 23.0526 23.7263C22.8561 23.7263 22.6947 23.6632 22.5684 23.5368ZM22.5684 20.1684C22.4421 20.0421 22.3789 19.8807 22.3789 19.6842C22.3789 19.4877 22.4421 19.3263 22.5684 19.2C22.6947 19.0737 22.8561 19.0105 23.0526 19.0105C23.2491 19.0105 23.4105 19.0737 23.5368 19.2C23.6632 19.3263 23.7263 19.4877 23.7263 19.6842C23.7263 19.8807 23.6632 20.0421 23.5368 20.1684C23.4105 20.2947 23.2491 20.3579 23.0526 20.3579C22.8561 20.3579 22.6947 20.2947 22.5684 20.1684ZM22.5684 16.8C22.4421 16.6737 22.3789 16.5123 22.3789 16.3158C22.3789 16.1193 22.4421 15.9579 22.5684 15.8316C22.6947 15.7053 22.8561 15.6421 23.0526 15.6421C23.2491 15.6421 23.4105 15.7053 23.5368 15.8316C23.6632 15.9579 23.7263 16.1193 23.7263 16.3158C23.7263 16.5123 23.6632 16.6737 23.5368 16.8C23.4105 16.9263 23.2491 16.9895 23.0526 16.9895C22.8561 16.9895 22.6947 16.9263 22.5684 16.8ZM22.5684 13.4316C22.4421 13.3053 22.3789 13.1439 22.3789 12.9474C22.3789 12.7509 22.4421 12.5895 22.5684 12.4632C22.6947 12.3368 22.8561 12.2737 23.0526 12.2737C23.2491 12.2737 23.4105 12.3368 23.5368 12.4632C23.6632 12.5895 23.7263 12.7509 23.7263 12.9474C23.7263 13.1439 23.6632 13.3053 23.5368 13.4316C23.4105 13.5579 23.2491 13.6211 23.0526 13.6211C22.8561 13.6211 22.6947 13.5579 22.5684 13.4316ZM25.2842 19.9789C25.2 19.8947 25.1579 19.7965 25.1579 19.6842C25.1579 19.5719 25.2 19.4737 25.2842 19.3895C25.3684 19.3053 25.4667 19.2632 25.5789 19.2632C25.6912 19.2632 25.7895 19.3053 25.8737 19.3895C25.9579 19.4737 26 19.5719 26 19.6842C26 19.7965 25.9579 19.8947 25.8737 19.9789C25.7895 20.0632 25.6912 20.1053 25.5789 20.1053C25.4667 20.1053 25.3684 20.0632 25.2842 19.9789ZM25.2842 16.6105C25.2 16.5263 25.1579 16.4281 25.1579 16.3158C25.1579 16.2035 25.2 16.1053 25.2842 16.0211C25.3684 15.9368 25.4667 15.8947 25.5789 15.8947C25.6912 15.8947 25.7895 15.9368 25.8737 16.0211C25.9579 16.1053 26 16.2035 26 16.3158C26 16.4281 25.9579 16.5263 25.8737 16.6105C25.7895 16.6947 25.6912 16.7368 25.5789 16.7368C25.4667 16.7368 25.3684 16.6947 25.2842 16.6105Z" fill="white"/>
</g>
<defs>
<filter id="filter0_d_52_3014" x="0" y="0" width="36" height="36" filterUnits="userSpaceOnUse" color-interpolation-filters="sRGB">
<feFlood flood-opacity="0" result="BackgroundImageFix"/>
<feColorMatrix in="SourceAlpha" type="matrix" values="0 0 0 0 0 0 0 0 0 0 0 0 0 0 0 0 0 0 127 0" result="hardAlpha"/>
<feOffset/>
<feGaussianBlur stdDeviation="5"/>
<feComposite in2="hardAlpha" operator="out"/>
<feColorMatrix type="matrix" values="0 0 0 0 1 0 0 0 0 1 0 0 0 0 1 0 0 0 0.4 0"/>
<feBlend mode="normal" in2="BackgroundImageFix" result="effect1_dropShadow_52_3014"/>
<feBlend mode="normal" in="SourceGraphic" in2="effect1_dropShadow_52_3014" result="shape"/>
</filter>
</defs>
</svg>
