<svg width="21" height="17" viewBox="0 0 21 17" fill="none" xmlns="http://www.w3.org/2000/svg">
<path d="M10.1572 0.0844727L20.1709 7.53857L20.2109 7.56885L20.1807 7.60986L19.7432 8.18115L19.7129 8.22021L19.6729 8.19092L16.4844 5.80811V11.5034H18.4404V12.3306H16.4844V16.1743H15.6631V12.3306H10.5381V16.1743H9.71777V12.3306H4.61816V16.1743H3.79688V12.3306H1.81543V11.5034H3.79688V5.80811L0.608398 8.19092L0.568359 8.22021L0.538086 8.18115L0.100586 7.60986L0.0703125 7.56885L0.110352 7.53857L10.0977 0.0844727L10.1279 0.0620117L10.1572 0.0844727ZM10.5381 11.5034H15.6631V5.21436L10.5381 1.39307V11.5034ZM4.61816 5.21338V11.5034H9.71777V1.39307L4.61816 5.21338Z" fill="black" stroke="black" stroke-width="0.1"/>
</svg>
