<svg width="36" height="36" viewBox="0 0 36 36" fill="none" xmlns="http://www.w3.org/2000/svg">
<g filter="url(#filter0_d_52_3006)">
<path d="M15.707 26C14.9766 26 14.3524 25.7534 13.8344 25.2602C13.3163 24.767 13.0488 24.1609 13.0318 23.442C12.2335 23.2915 11.5711 22.907 11.0446 22.2884C10.518 21.6698 10.2548 20.9509 10.2548 20.1317C10.2548 19.8376 10.293 19.547 10.3694 19.2599C10.4459 18.973 10.5605 18.7035 10.7134 18.4514C10.4756 18.1672 10.2972 17.8471 10.1783 17.4912C10.0594 17.1352 10 16.7615 10 16.3699C10 15.4997 10.293 14.7471 10.879 14.1121C11.465 13.4773 12.1911 13.1181 13.0573 13.0345C13.0403 12.9676 13.0318 12.9007 13.0318 12.8339V12.6082C13.0318 11.8725 13.2909 11.2539 13.8089 10.7524C14.327 10.2508 14.9597 10 15.707 10C16.2166 10 16.6412 10.1003 16.9809 10.3009C17.3206 10.5016 17.6603 10.8025 18 11.2038C18.3567 10.8025 18.6964 10.5016 19.0191 10.3009C19.3418 10.1003 19.7665 10 20.293 10C21.0162 10 21.6386 10.255 22.1603 10.7649C22.6819 11.2748 22.9427 11.8892 22.9427 12.6082V12.8339C22.9427 12.9007 22.9342 12.9676 22.9172 13.0345C23.7834 13.1181 24.5138 13.4734 25.1083 14.1003C25.7028 14.7273 26 15.4838 26 16.3699C26 16.7615 25.9363 17.1352 25.8089 17.4912C25.6815 17.8471 25.4989 18.1672 25.2611 18.4514C25.414 18.7022 25.5329 18.9713 25.6178 19.2587C25.7028 19.5462 25.7452 19.8372 25.7452 20.1317C25.7452 20.9676 25.482 21.6949 24.9554 22.3135C24.4289 22.9321 23.758 23.3083 22.9427 23.442C22.9257 24.1609 22.6624 24.767 22.1529 25.2602C21.6433 25.7534 21.0234 26 20.293 26C19.7495 26 19.3206 25.8997 19.0064 25.6991C18.6921 25.4984 18.3567 25.1891 18 24.7712C17.6433 25.1891 17.3036 25.4984 16.9809 25.6991C16.6582 25.8997 16.2335 26 15.707 26ZM18.3567 12.6082V23.3918C18.3567 23.9255 18.5449 24.3766 18.9213 24.7451C19.2978 25.1136 19.7587 25.2978 20.3039 25.2978C20.8232 25.2978 21.2654 25.1223 21.6306 24.7712C21.9958 24.4201 22.1953 23.9937 22.2293 23.4922C21.6858 23.4754 21.1805 23.3459 20.7134 23.1034C20.2463 22.861 19.8599 22.5225 19.5541 22.0878C19.4862 22.0042 19.46 21.9178 19.4757 21.8287C19.4913 21.7394 19.5429 21.667 19.6306 21.6113C19.7155 21.5444 19.8065 21.5187 19.9034 21.534C20.0006 21.5494 20.0795 21.6003 20.1401 21.6865C20.3893 22.0431 20.7063 22.3162 21.0912 22.5058C21.4763 22.6953 21.8896 22.79 22.3312 22.79C23.0955 22.79 23.7367 22.535 24.2548 22.0251C24.7728 21.5152 25.0318 20.884 25.0318 20.1317C25.0318 19.9366 25.0064 19.7415 24.9554 19.5466C24.9045 19.3515 24.8365 19.162 24.7516 18.9781C24.4628 19.2121 24.1308 19.396 23.7554 19.5298C23.38 19.6635 22.9902 19.7304 22.586 19.7304C22.4849 19.7304 22.4003 19.6966 22.332 19.6291C22.2635 19.5617 22.2293 19.4781 22.2293 19.3783C22.2293 19.2787 22.2635 19.1954 22.332 19.1285C22.4003 19.0617 22.4849 19.0282 22.586 19.0282C23.3503 19.0282 23.9915 18.7732 24.5096 18.2633C25.0276 17.7534 25.2866 17.1223 25.2866 16.3699C25.2866 15.6436 25.0361 15.0274 24.535 14.5211C24.034 14.0149 23.4183 13.745 22.6879 13.7116C22.535 14.0293 22.327 14.3051 22.0637 14.5392C21.8004 14.7732 21.4989 14.9572 21.1592 15.0909C21.0743 15.1243 20.9882 15.1216 20.9009 15.0826C20.8134 15.0435 20.7552 14.9794 20.7261 14.8903C20.6921 14.8067 20.6921 14.7189 20.7261 14.627C20.7601 14.535 20.828 14.4723 20.9299 14.4389C21.3206 14.3051 21.6348 14.0711 21.8726 13.7367C22.1104 13.4023 22.2293 13.0219 22.2293 12.5956C22.2293 12.069 22.042 11.6217 21.6673 11.2539C21.2927 10.8861 20.8341 10.7022 20.2915 10.7022C19.749 10.7022 19.2909 10.8864 18.9172 11.2549C18.5435 11.6234 18.3567 12.0745 18.3567 12.6082ZM17.6433 23.3918V12.6082C17.6433 12.0745 17.456 11.6234 17.0813 11.2549C16.7068 10.8864 16.2482 10.7022 15.7055 10.7022C15.163 10.7022 14.7049 10.8864 14.3312 11.2549C13.9575 11.6234 13.7707 12.0745 13.7707 12.6082C13.7707 13.0261 13.8896 13.4023 14.1274 13.7367C14.3652 14.0711 14.6794 14.3051 15.0701 14.4389C15.155 14.4723 15.2229 14.5308 15.2739 14.6144C15.3248 14.698 15.3348 14.7834 15.3037 14.8707C15.2665 14.9578 15.2013 15.0205 15.108 15.0588C15.0148 15.0969 14.9172 15.0993 14.8153 15.0658C14.4756 14.9321 14.1741 14.7524 13.9108 14.5266C13.6476 14.3009 13.4395 14.0293 13.2866 13.7116C12.5732 13.745 11.966 14.0167 11.465 14.5266C10.9639 15.0366 10.7134 15.6537 10.7134 16.3779C10.7134 17.1249 10.9724 17.7534 11.4904 18.2633C12.0085 18.7732 12.6497 19.0282 13.414 19.0282C13.5151 19.0282 13.5998 19.062 13.6683 19.1295C13.7366 19.1969 13.7707 19.2805 13.7707 19.3803C13.7707 19.48 13.7366 19.5632 13.6683 19.6301C13.5998 19.697 13.5151 19.7304 13.414 19.7304C13.0098 19.7304 12.62 19.6635 12.2446 19.5298C11.8692 19.396 11.5372 19.2121 11.2484 18.9781C11.1635 19.162 11.0955 19.3515 11.0446 19.5466C10.9936 19.7415 10.9682 19.9366 10.9682 20.1317C10.9682 20.884 11.2272 21.5152 11.7452 22.0251C12.2633 22.535 12.9045 22.79 13.6688 22.79C14.1155 22.79 14.5287 22.6938 14.9083 22.5016C15.2879 22.3093 15.6051 22.0376 15.8599 21.6865C15.9205 21.6003 15.9994 21.5494 16.0966 21.534C16.1935 21.5187 16.2845 21.5402 16.3694 21.5987C16.4544 21.6573 16.5053 21.7325 16.5223 21.8245C16.5393 21.9164 16.5138 22.0042 16.4459 22.0878C16.1231 22.5225 15.7282 22.861 15.2611 23.1034C14.7941 23.3459 14.2887 23.4754 13.7452 23.4922C13.7792 23.9937 13.983 24.4201 14.3567 24.7712C14.7304 25.1223 15.1768 25.2978 15.6961 25.2978C16.2413 25.2978 16.7022 25.1136 17.0787 24.7451C17.4551 24.3766 17.6433 23.9255 17.6433 23.3918Z" fill="white"/>
</g>
<defs>
<filter id="filter0_d_52_3006" x="0" y="0" width="36" height="36" filterUnits="userSpaceOnUse" color-interpolation-filters="sRGB">
<feFlood flood-opacity="0" result="BackgroundImageFix"/>
<feColorMatrix in="SourceAlpha" type="matrix" values="0 0 0 0 0 0 0 0 0 0 0 0 0 0 0 0 0 0 127 0" result="hardAlpha"/>
<feOffset/>
<feGaussianBlur stdDeviation="5"/>
<feComposite in2="hardAlpha" operator="out"/>
<feColorMatrix type="matrix" values="0 0 0 0 1 0 0 0 0 1 0 0 0 0 1 0 0 0 0.4 0"/>
<feBlend mode="normal" in2="BackgroundImageFix" result="effect1_dropShadow_52_3006"/>
<feBlend mode="normal" in="SourceGraphic" in2="effect1_dropShadow_52_3006" result="shape"/>
</filter>
</defs>
</svg>
