<svg width="253" height="252" viewBox="0 0 253 252" fill="none" xmlns="http://www.w3.org/2000/svg">
<path d="M206.481 83.5996C219.995 72.7611 223.496 54.6802 214.301 43.2147C205.105 31.7491 186.695 31.2407 173.181 42.0792C159.667 52.9176 156.166 70.9985 165.362 82.4641C174.557 93.9296 192.967 94.438 206.481 83.5996Z" stroke="white" stroke-opacity="0.1" style="mix-blend-mode:overlay" stroke-width="2" stroke-miterlimit="10"/>
<path d="M206.481 83.5996C219.995 72.7611 223.496 54.6802 214.301 43.2147C205.105 31.7491 186.695 31.2407 173.181 42.0792C159.667 52.9176 156.166 70.9985 165.362 82.4641C174.557 93.9296 192.967 94.438 206.481 83.5996Z" stroke="white" stroke-opacity="0.1" stroke-width="2" stroke-miterlimit="10"/>
<path d="M66.9688 129.52C117.319 48.1225 185.517 0.717405 250.202 1.00127C257.831 43.4388 216.813 128.917 121.683 185.122" stroke="white" stroke-opacity="0.1" style="mix-blend-mode:overlay" stroke-width="2" stroke-miterlimit="10"/>
<path d="M66.9688 129.52C117.319 48.1225 185.517 0.717405 250.202 1.00127C257.831 43.4388 216.813 128.917 121.683 185.122" stroke="white" stroke-opacity="0.1" stroke-width="2" stroke-miterlimit="10"/>
<path d="M211.065 6.35889C216.92 24.5261 226.891 38.0806 246.797 39.5354" stroke="white" stroke-opacity="0.1" style="mix-blend-mode:overlay" stroke-width="2" stroke-miterlimit="10"/>
<path d="M211.065 6.35889C216.92 24.5261 226.891 38.0806 246.797 39.5354" stroke="white" stroke-opacity="0.1" stroke-width="2" stroke-miterlimit="10"/>
<path d="M144.533 171.498C141.908 189.949 132.824 218.335 120.228 234.444C176.716 215.425 198.68 175.01 194.883 127.605" stroke="white" stroke-opacity="0.1" style="mix-blend-mode:overlay" stroke-width="2" stroke-miterlimit="10"/>
<path d="M144.533 171.498C141.908 189.949 132.824 218.335 120.228 234.444C176.716 215.425 198.68 175.01 194.883 127.605" stroke="white" stroke-opacity="0.1" stroke-width="2" stroke-miterlimit="10"/>
<path d="M80.4888 107.983C61.1507 110.928 36.632 119.409 19.6357 130.905C37.4836 71.9325 82.2984 54.1911 124.31 57.8103" stroke="white" stroke-opacity="0.1" style="mix-blend-mode:overlay" stroke-width="2" stroke-miterlimit="10"/>
<path d="M80.4888 107.983C61.1507 110.928 36.632 119.409 19.6357 130.905C37.4836 71.9325 82.2984 54.1911 124.31 57.8103" stroke="white" stroke-opacity="0.1" stroke-width="2" stroke-miterlimit="10"/>
<path d="M80.7729 159.22C74.4214 150.74 67.9281 135.305 67.3604 128.279" stroke="white" stroke-opacity="0.1" style="mix-blend-mode:overlay" stroke-width="2" stroke-miterlimit="10"/>
<path d="M80.7729 159.22C74.4214 150.74 67.9281 135.305 67.3604 128.279" stroke="white" stroke-opacity="0.1" stroke-width="2" stroke-miterlimit="10"/>
<path d="M122.96 184.662C117.779 184.768 98.5477 177.033 93.4736 172.172" stroke="white" stroke-opacity="0.1" style="mix-blend-mode:overlay" stroke-width="2" stroke-miterlimit="10"/>
<path d="M122.96 184.662C117.779 184.768 98.5477 177.033 93.4736 172.172" stroke="white" stroke-opacity="0.1" stroke-width="2" stroke-miterlimit="10"/>
<path d="M84.1807 104.718C89.1483 115.257 96.6706 127.356 102.525 133.601" stroke="white" stroke-opacity="0.1" style="mix-blend-mode:overlay" stroke-width="2" stroke-miterlimit="10"/>
<path d="M84.1807 104.718C89.1483 115.257 96.6706 127.356 102.525 133.601" stroke="white" stroke-opacity="0.1" stroke-width="2" stroke-miterlimit="10"/>
<path d="M146.913 167.451C129.243 159.752 119.095 149.887 119.095 149.887" stroke="white" stroke-opacity="0.1" style="mix-blend-mode:overlay" stroke-width="2" stroke-miterlimit="10"/>
<path d="M146.913 167.451C129.243 159.752 119.095 149.887 119.095 149.887" stroke="white" stroke-opacity="0.1" stroke-width="2" stroke-miterlimit="10"/>
<path fill-rule="evenodd" clip-rule="evenodd" d="M133.571 116.924C115.794 117.989 77.3661 152.549 69.7373 179.374C90.6367 182.213 134.635 141.407 133.571 116.924Z" stroke="white" stroke-opacity="0.1" style="mix-blend-mode:overlay" stroke-width="2" stroke-miterlimit="10"/>
<path fill-rule="evenodd" clip-rule="evenodd" d="M133.571 116.924C115.794 117.989 77.3661 152.549 69.7373 179.374C90.6367 182.213 134.635 141.407 133.571 116.924Z" stroke="white" stroke-opacity="0.1" stroke-width="2" stroke-miterlimit="10"/>
<path d="M113.451 182.638C107.454 210.741 88.5776 241.93 69.0976 246.756C66.0106 240.475 68.2105 226.105 80.523 208.683C48.624 242.356 25.9149 254.633 1.32533 250.091C-1.76167 223.727 17.4345 192.431 45.537 171.355C16.4055 190.09 5.58328 183.809 5.58328 183.809C11.8637 161.419 49.1917 143.572 68.8137 139.03" stroke="white" stroke-opacity="0.1" style="mix-blend-mode:overlay" stroke-width="2" stroke-miterlimit="10"/>
<path d="M113.451 182.638C107.454 210.741 88.5776 241.93 69.0976 246.756C66.0106 240.475 68.2105 226.105 80.523 208.683C48.624 242.356 25.9149 254.633 1.32533 250.091C-1.76167 223.727 17.4345 192.431 45.537 171.355C16.4055 190.09 5.58328 183.809 5.58328 183.809C11.8637 161.419 49.1917 143.572 68.8137 139.03" stroke="white" stroke-opacity="0.1" stroke-width="2" stroke-miterlimit="10"/>
</svg>
