<svg width="20" height="20" viewBox="0 0 20 20" fill="none" xmlns="http://www.w3.org/2000/svg">
<path d="M6.10632 19.2098C4.88985 18.683 3.83142 17.9693 2.93103 17.069C2.03065 16.1686 1.31705 15.1102 0.79023 13.8937C0.26341 12.6772 0 11.3793 0 10C0 8.62069 0.26341 7.3228 0.79023 6.10632C1.31705 4.88985 2.03065 3.83142 2.93103 2.93103C3.83142 2.03065 4.88985 1.31705 6.10632 0.79023C7.3228 0.26341 8.62069 0 10 0C11.3793 0 12.6772 0.26341 13.8937 0.79023C15.1102 1.31705 16.1686 2.03065 17.069 2.93103C17.9693 3.83142 18.683 4.88985 19.2098 6.10632C19.7366 7.3228 20 8.62069 20 10C20 11.3793 19.7366 12.6772 19.2098 13.8937C18.683 15.1102 17.9693 16.1686 17.069 17.069C16.1686 17.9693 15.1102 18.683 13.8937 19.2098C12.6772 19.7366 11.3793 20 10 20C8.62069 20 7.3228 19.7366 6.10632 19.2098ZM10 19.2241C10.728 18.3046 11.3218 17.4138 11.7816 16.5517C12.2414 15.6897 12.6149 14.7126 12.9023 13.6207H7.0977C7.42337 14.7893 7.80651 15.8046 8.24713 16.6667C8.68774 17.5287 9.27203 18.3812 10 19.2241ZM8.99425 19.1379C8.40038 18.5057 7.85441 17.6868 7.35632 16.681C6.85824 15.6753 6.49425 14.6552 6.26437 13.6207H1.55172C2.24138 15.1916 3.24713 16.4655 4.56897 17.4425C5.8908 18.4195 7.3659 18.9847 8.99425 19.1379ZM11.0057 19.1379C12.6341 18.9847 14.1092 18.4195 15.431 17.4425C16.7529 16.4655 17.7586 15.1916 18.4483 13.6207H13.7356C13.41 14.6743 12.9981 15.704 12.5 16.7098C12.0019 17.7155 11.5038 18.5249 11.0057 19.1379ZM1.23563 12.8161H6.09195C5.99617 12.318 5.92912 11.8343 5.8908 11.3649C5.85249 10.8956 5.83333 10.4406 5.83333 10C5.83333 9.55939 5.85249 9.10441 5.8908 8.63506C5.92912 8.16571 5.99617 7.68199 6.09195 7.18391H1.23563C1.10153 7.58621 0.996169 8.0364 0.91954 8.53448C0.842912 9.03257 0.804598 9.52107 0.804598 10C0.804598 10.4789 0.842912 10.9674 0.91954 11.4655C0.996169 11.9636 1.10153 12.4138 1.23563 12.8161ZM6.89655 12.8161H13.1034C13.1992 12.318 13.2663 11.8439 13.3046 11.3937C13.3429 10.9435 13.3621 10.4789 13.3621 10C13.3621 9.52107 13.3429 9.05651 13.3046 8.60632C13.2663 8.15613 13.1992 7.68199 13.1034 7.18391H6.89655C6.80077 7.68199 6.73372 8.15613 6.6954 8.60632C6.65709 9.05651 6.63793 9.52107 6.63793 10C6.63793 10.4789 6.65709 10.9435 6.6954 11.3937C6.73372 11.8439 6.80077 12.318 6.89655 12.8161ZM13.908 12.8161H18.7644C18.8985 12.4138 19.0038 11.9636 19.0805 11.4655C19.1571 10.9674 19.1954 10.4789 19.1954 10C19.1954 9.52107 19.1571 9.03257 19.0805 8.53448C19.0038 8.0364 18.8985 7.58621 18.7644 7.18391H13.908C14.0038 7.68199 14.0709 8.16571 14.1092 8.63506C14.1475 9.10441 14.1667 9.55939 14.1667 10C14.1667 10.4406 14.1475 10.8956 14.1092 11.3649C14.0709 11.8343 14.0038 12.318 13.908 12.8161ZM13.7356 6.37931H18.4483C17.7395 4.77011 16.7481 3.49617 15.4741 2.55747C14.2002 1.61877 12.7107 1.04406 11.0057 0.833333C11.5996 1.5613 12.136 2.41379 12.6149 3.3908C13.0939 4.36782 13.4674 5.36398 13.7356 6.37931ZM7.0977 6.37931H12.9023C12.5766 5.22989 12.1791 4.20019 11.7098 3.29023C11.2404 2.38027 10.6705 1.54215 10 0.775862C9.3295 1.54215 8.75958 2.38027 8.29023 3.29023C7.82088 4.20019 7.42337 5.22989 7.0977 6.37931ZM1.55172 6.37931H6.26437C6.53257 5.36398 6.90613 4.36782 7.38506 3.3908C7.86398 2.41379 8.40038 1.5613 8.99425 0.833333C7.27011 1.04406 5.77586 1.62356 4.51149 2.57184C3.24713 3.52011 2.26054 4.78927 1.55172 6.37931Z" fill="#00FF8A"/>
</svg>
