<svg width="20" height="20" viewBox="0 0 20 20" fill="none" xmlns="http://www.w3.org/2000/svg">
<path d="M9.94253 20C8.58238 20 7.29885 19.7366 6.09195 19.2098C4.88506 18.683 3.83142 17.9693 2.93103 17.069C2.03065 16.1686 1.31705 15.1102 0.79023 13.8937C0.26341 12.6772 0 11.3793 0 10C0 8.60153 0.268199 7.29406 0.804598 6.07759C1.341 4.86111 2.07375 3.80268 3.00287 2.9023C3.93199 2.00192 5.02395 1.2931 6.27874 0.775862C7.53352 0.258621 8.86973 0 10.2874 0C11.5709 0 12.7969 0.215517 13.9655 0.646552C15.1341 1.07759 16.1638 1.67625 17.0546 2.44253C17.9454 3.20881 18.659 4.12356 19.1954 5.18678C19.7318 6.25 20 7.41379 20 8.67816C20 10.3257 19.5354 11.6667 18.6063 12.7011C17.6772 13.7356 16.341 14.2529 14.5977 14.2529H12.5862C12.0115 14.2529 11.523 14.454 11.1207 14.8563C10.7184 15.2586 10.5172 15.7471 10.5172 16.3218C10.5172 16.8774 10.6609 17.3084 10.9483 17.6149C11.2356 17.9215 11.3793 18.2759 11.3793 18.6782C11.3793 19.1188 11.2548 19.4492 11.0057 19.6695C10.7567 19.8898 10.4023 20 9.94253 20ZM4.36782 10.1149C4.55939 9.92337 4.65517 9.69349 4.65517 9.42529C4.65517 9.15709 4.55939 8.9272 4.36782 8.73563C4.17625 8.54406 3.94636 8.44828 3.67816 8.44828C3.40996 8.44828 3.18008 8.54406 2.98851 8.73563C2.79693 8.9272 2.70115 9.15709 2.70115 9.42529C2.70115 9.69349 2.79693 9.92337 2.98851 10.1149C3.18008 10.3065 3.40996 10.4023 3.67816 10.4023C3.94636 10.4023 4.17625 10.3065 4.36782 10.1149ZM7.81609 5.51724C8.00766 5.32567 8.10345 5.09579 8.10345 4.82759C8.10345 4.55939 8.00766 4.3295 7.81609 4.13793C7.62452 3.94636 7.39464 3.85057 7.12644 3.85057C6.85824 3.85057 6.62835 3.94636 6.43678 4.13793C6.24521 4.3295 6.14943 4.55939 6.14943 4.82759C6.14943 5.09579 6.24521 5.32567 6.43678 5.51724C6.62835 5.70881 6.85824 5.8046 7.12644 5.8046C7.39464 5.8046 7.62452 5.70881 7.81609 5.51724ZM13.5632 5.51724C13.7548 5.32567 13.8506 5.09579 13.8506 4.82759C13.8506 4.55939 13.7548 4.3295 13.5632 4.13793C13.3716 3.94636 13.1418 3.85057 12.8736 3.85057C12.6054 3.85057 12.3755 3.94636 12.1839 4.13793C11.9923 4.3295 11.8966 4.55939 11.8966 4.82759C11.8966 5.09579 11.9923 5.32567 12.1839 5.51724C12.3755 5.70881 12.6054 5.8046 12.8736 5.8046C13.1418 5.8046 13.3716 5.70881 13.5632 5.51724ZM17.0115 10.1149C17.2031 9.92337 17.2989 9.69349 17.2989 9.42529C17.2989 9.15709 17.2031 8.9272 17.0115 8.73563C16.8199 8.54406 16.59 8.44828 16.3218 8.44828C16.0536 8.44828 15.8238 8.54406 15.6322 8.73563C15.4406 8.9272 15.3448 9.15709 15.3448 9.42529C15.3448 9.69349 15.4406 9.92337 15.6322 10.1149C15.8238 10.3065 16.0536 10.4023 16.3218 10.4023C16.59 10.4023 16.8199 10.3065 17.0115 10.1149ZM9.94253 19.1954C10.1533 19.1954 10.3113 19.1523 10.4167 19.0661C10.522 18.9799 10.5747 18.8506 10.5747 18.6782C10.5747 18.41 10.431 18.1322 10.1437 17.8448C9.85632 17.5575 9.71264 17.069 9.71264 16.3793C9.71264 15.5364 9.99042 14.8372 10.546 14.2816C11.1015 13.7261 11.7816 13.4483 12.5862 13.4483H14.5977C16.092 13.4483 17.2318 13.0077 18.0172 12.1264C18.8027 11.2452 19.1954 10.0958 19.1954 8.67816C19.1954 6.341 18.295 4.44444 16.4943 2.98851C14.6935 1.53257 12.6245 0.804598 10.2874 0.804598C7.62452 0.804598 5.37835 1.6954 3.54885 3.47701C1.71935 5.25862 0.804598 7.43295 0.804598 10C0.804598 12.5479 1.70019 14.7174 3.49138 16.5086C5.28257 18.2998 7.43295 19.1954 9.94253 19.1954Z" fill="#00FF8A"/>
</svg>
