<svg width="20" height="15" viewBox="0 0 20 15" fill="none" xmlns="http://www.w3.org/2000/svg">
<path d="M1.72414 0L3.27586 3.02239H6.72414L5.17241 0H7.47126L9.02299 3.02239H12.4713L10.9195 0H13.2184L14.7701 3.02239H18.2184L16.6667 0H18.2759C18.7739 0 19.1858 0.158582 19.5115 0.475746C19.8372 0.79291 20 1.19403 20 1.6791V13.3209C20 13.806 19.8372 14.2071 19.5115 14.5243C19.1858 14.8414 18.7739 15 18.2759 15H1.72414C1.22605 15 0.814176 14.8414 0.488506 14.5243C0.162835 14.2071 0 13.806 0 13.3209V1.6791C0 1.19403 0.162835 0.79291 0.488506 0.475746C0.814176 0.158582 1.22605 0 1.72414 0ZM0.804598 3.80597V13.3209C0.804598 13.5821 0.890805 13.7966 1.06322 13.9646C1.23563 14.1325 1.45594 14.2164 1.72414 14.2164H18.2759C18.5441 14.2164 18.7644 14.1325 18.9368 13.9646C19.1092 13.7966 19.1954 13.5821 19.1954 13.3209V3.80597H0.804598Z" fill="#00FF8A"/>
</svg>
