<svg width="141" height="163" viewBox="0 0 141 163" fill="none" xmlns="http://www.w3.org/2000/svg">
<path d="M129.57 73.9087C130.758 76.2569 131.019 78.8252 131.329 81.3772C132.13 87.9651 131.062 94.4443 130.103 100.926C129.834 102.744 130.54 104.158 132.359 105.038C132.94 104.266 132.932 103.288 133.236 102.424C134.454 98.9667 135.889 95.5477 136.571 91.9575C137.653 86.2746 139.264 80.6651 139.582 74.86C139.794 70.9708 139.574 67.0708 139.218 63.1844C138.835 59.0234 138.427 54.8761 137.313 50.8293C135.835 45.459 133.693 40.374 130.78 35.6315C127.472 30.2476 123.485 25.3773 119.107 20.8359C115.269 16.8543 110.798 13.6718 105.939 11.0709C101.889 8.90483 97.878 6.64092 93.5921 4.95046C89.6921 3.4122 85.6508 2.33867 81.5116 1.69727C77.0164 1.00152 72.4749 0.974345 67.939 1.00968C57.6359 1.08849 48.0312 3.84976 39.0354 8.76351C35.456 10.7203 31.9012 12.7124 28.5311 15.0688C23.9952 18.2404 20.1522 22.0752 16.6408 26.2715C12.7789 30.889 9.41969 35.8489 6.8378 41.3225C4.03033 47.2772 2.25018 53.5036 1.69847 60.0644C1.36962 63.9481 1 67.8318 1 71.7399C1 77.1266 1.93492 82.3909 3.06552 87.6199C4.13904 92.5826 5.46803 97.4801 7.51724 102.155C7.85968 102.935 8.14505 103.712 9.07725 104.125C11.0721 102.557 11.7787 100.407 11.2814 98.0861C10.2187 93.1425 10.0475 88.1581 10.1019 83.141C10.1182 81.6354 10.4361 80.1596 10.5258 78.6621C10.5421 78.3713 10.6617 78.037 11.0558 77.9827" stroke="white" stroke-opacity="0.1" style="mix-blend-mode:overlay" stroke-width="2" stroke-linecap="round" stroke-linejoin="round"/>
<path d="M129.57 73.9087C130.758 76.2569 131.019 78.8252 131.329 81.3772C132.13 87.9651 131.062 94.4443 130.103 100.926C129.834 102.744 130.54 104.158 132.359 105.038C132.94 104.266 132.932 103.288 133.236 102.424C134.454 98.9667 135.889 95.5477 136.571 91.9575C137.653 86.2746 139.264 80.6651 139.582 74.86C139.794 70.9708 139.574 67.0708 139.218 63.1844C138.835 59.0234 138.427 54.8761 137.313 50.8293C135.835 45.459 133.693 40.374 130.78 35.6315C127.472 30.2476 123.485 25.3773 119.107 20.8359C115.269 16.8543 110.798 13.6718 105.939 11.0709C101.889 8.90483 97.878 6.64092 93.5921 4.95046C89.6921 3.4122 85.6508 2.33867 81.5116 1.69727C77.0164 1.00152 72.4749 0.974345 67.939 1.00968C57.6359 1.08849 48.0312 3.84976 39.0354 8.76351C35.456 10.7203 31.9012 12.7124 28.5311 15.0688C23.9952 18.2404 20.1522 22.0752 16.6408 26.2715C12.7789 30.889 9.41969 35.8489 6.8378 41.3225C4.03033 47.2772 2.25018 53.5036 1.69847 60.0644C1.36962 63.9481 1 67.8318 1 71.7399C1 77.1266 1.93492 82.3909 3.06552 87.6199C4.13904 92.5826 5.46803 97.4801 7.51724 102.155C7.85968 102.935 8.14505 103.712 9.07725 104.125C11.0721 102.557 11.7787 100.407 11.2814 98.0861C10.2187 93.1425 10.0475 88.1581 10.1019 83.141C10.1182 81.6354 10.4361 80.1596 10.5258 78.6621C10.5421 78.3713 10.6617 78.037 11.0558 77.9827" stroke="white" stroke-opacity="0.1" stroke-width="2" stroke-linecap="round" stroke-linejoin="round"/>
<path d="M129.027 71.873C129.551 79.4991 129.932 87.1171 128.358 94.6834C128.035 96.2325 127.42 97.7164 127.271 99.2982C126.988 102.244 127.882 104.921 130.016 106.859C133.737 110.232 133.465 114.98 131.671 119.282C130.527 122.027 128.285 123.399 126.195 125.117C122.776 127.922 118.764 129.379 114.639 130.667C112.25 131.411 110.024 132.469 108.399 134.466C107.132 136.024 106.618 137.967 105.817 139.758C104.686 142.285 103.659 144.843 102.776 147.479C102.091 149.528 100.474 151.075 98.8728 152.499C98.0086 153.268 96.5382 152.656 95.8996 151.436C95.5164 150.705 95.4158 149.906 95.2201 149.126C95.0761 148.555 95.0652 147.917 94.5488 147.495" stroke="white" stroke-opacity="0.1" style="mix-blend-mode:overlay" stroke-width="2" stroke-linecap="round" stroke-linejoin="round"/>
<path d="M129.027 71.873C129.551 79.4991 129.932 87.1171 128.358 94.6834C128.035 96.2325 127.42 97.7164 127.271 99.2982C126.988 102.244 127.882 104.921 130.016 106.859C133.737 110.232 133.465 114.98 131.671 119.282C130.527 122.027 128.285 123.399 126.195 125.117C122.776 127.922 118.764 129.379 114.639 130.667C112.25 131.411 110.024 132.469 108.399 134.466C107.132 136.024 106.618 137.967 105.817 139.758C104.686 142.285 103.659 144.843 102.776 147.479C102.091 149.528 100.474 151.075 98.8728 152.499C98.0086 153.268 96.5382 152.656 95.8996 151.436C95.5164 150.705 95.4158 149.906 95.2201 149.126C95.0761 148.555 95.0652 147.917 94.5488 147.495" stroke="white" stroke-opacity="0.1" stroke-width="2" stroke-linecap="round" stroke-linejoin="round"/>
<path d="M12.0133 73.501C11.3909 75.4061 11.2415 77.3113 11.4127 79.3442C11.6654 82.38 11.7116 85.4212 12.2525 88.4406C12.758 91.2562 13.3505 94.0501 13.9022 96.8549C14.6985 100.904 14.087 104.533 10.9561 107.604C7.68659 110.811 7.26534 117.045 9.84723 120.877C11.2088 122.899 13.2988 124.131 15.1387 125.628C17.7451 127.748 20.8108 128.971 23.9661 129.952C25.5288 130.439 27.0834 130.968 28.5592 131.637C31.1193 132.795 32.8587 134.858 33.8398 137.453C34.6959 139.717 35.9352 141.804 36.7261 144.093C37.0821 145.123 37.305 146.21 37.7072 147.202C38.5361 149.246 40.0119 150.884 41.6208 152.36C42.6128 153.273 44.075 152.703 44.7327 151.292C45.2192 150.254 45.2844 149.121 45.529 148.028C45.6024 147.702 45.7111 147.436 45.9502 147.215" stroke="white" stroke-opacity="0.1" style="mix-blend-mode:overlay" stroke-width="2" stroke-linecap="round" stroke-linejoin="round"/>
<path d="M12.0133 73.501C11.3909 75.4061 11.2415 77.3113 11.4127 79.3442C11.6654 82.38 11.7116 85.4212 12.2525 88.4406C12.758 91.2562 13.3505 94.0501 13.9022 96.8549C14.6985 100.904 14.087 104.533 10.9561 107.604C7.68659 110.811 7.26534 117.045 9.84723 120.877C11.2088 122.899 13.2988 124.131 15.1387 125.628C17.7451 127.748 20.8108 128.971 23.9661 129.952C25.5288 130.439 27.0834 130.968 28.5592 131.637C31.1193 132.795 32.8587 134.858 33.8398 137.453C34.6959 139.717 35.9352 141.804 36.7261 144.093C37.0821 145.123 37.305 146.21 37.7072 147.202C38.5361 149.246 40.0119 150.884 41.6208 152.36C42.6128 153.273 44.075 152.703 44.7327 151.292C45.2192 150.254 45.2844 149.121 45.529 148.028C45.6024 147.702 45.7111 147.436 45.9502 147.215" stroke="white" stroke-opacity="0.1" stroke-width="2" stroke-linecap="round" stroke-linejoin="round"/>
<path d="M58.3027 146C58.8409 149.838 59.0012 153.718 59.6698 157.537C60.2378 160.79 62.3984 161.502 64.9531 161.461C67.622 161.418 68.9211 158.877 69.1711 156.727C69.4185 154.602 69.5598 152.466 69.8234 150.343C69.8859 149.851 69.9702 149.397 70.2447 148.987" stroke="white" stroke-opacity="0.1" style="mix-blend-mode:overlay" stroke-width="2" stroke-linecap="round" stroke-linejoin="round"/>
<path d="M58.3027 146C58.8409 149.838 59.0012 153.718 59.6698 157.537C60.2378 160.79 62.3984 161.502 64.9531 161.461C67.622 161.418 68.9211 158.877 69.1711 156.727C69.4185 154.602 69.5598 152.466 69.8234 150.343C69.8859 149.851 69.9702 149.397 70.2447 148.987" stroke="white" stroke-opacity="0.1" stroke-width="2" stroke-linecap="round" stroke-linejoin="round"/>
<path d="M82.1944 148.443C81.6562 150.169 81.8003 151.982 81.5068 153.738C81.3029 154.955 81.3845 156.186 81.129 157.409C80.3164 161.307 77.46 161.945 74.4731 161.271C72.7039 160.872 71.8831 159.173 71.6195 157.401C71.2444 154.879 71.1194 152.33 70.8041 149.8C70.7661 149.495 70.7253 149.221 70.5215 148.987" stroke="white" stroke-opacity="0.1" style="mix-blend-mode:overlay" stroke-width="2" stroke-linecap="round" stroke-linejoin="round"/>
<path d="M82.1944 148.443C81.6562 150.169 81.8003 151.982 81.5068 153.738C81.3029 154.955 81.3845 156.186 81.129 157.409C80.3164 161.307 77.46 161.945 74.4731 161.271C72.7039 160.872 71.8831 159.173 71.6195 157.401C71.2444 154.879 71.1194 152.33 70.8041 149.8C70.7661 149.495 70.7253 149.221 70.5215 148.987" stroke="white" stroke-opacity="0.1" stroke-width="2" stroke-linecap="round" stroke-linejoin="round"/>
<path d="M46.0859 146.272C46.3686 148.36 46.9339 150.398 47.0752 152.515C47.1241 153.23 47.0426 153.983 47.3035 154.692C48.2357 157.236 50.4425 157.818 52.7391 158.209C54.4268 158.497 55.6226 157.622 56.5277 156.315C57.1093 155.472 57.1038 154.439 57.2044 153.469C57.3729 151.838 57.7398 150.232 57.7806 148.583C57.786 148.42 57.949 148.159 58.1665 148.039" stroke="white" stroke-opacity="0.1" style="mix-blend-mode:overlay" stroke-width="2" stroke-linecap="round" stroke-linejoin="round"/>
<path d="M46.0859 146.272C46.3686 148.36 46.9339 150.398 47.0752 152.515C47.1241 153.23 47.0426 153.983 47.3035 154.692C48.2357 157.236 50.4425 157.818 52.7391 158.209C54.4268 158.497 55.6226 157.622 56.5277 156.315C57.1093 155.472 57.1038 154.439 57.2044 153.469C57.3729 151.838 57.7398 150.232 57.7806 148.583C57.786 148.42 57.949 148.159 58.1665 148.039" stroke="white" stroke-opacity="0.1" stroke-width="2" stroke-linecap="round" stroke-linejoin="round"/>
<path d="M94.5493 146.812C93.8698 149.212 93.685 151.691 93.3344 154.145C93.1306 155.566 92.4892 156.656 91.1548 157.265C89.5078 158.015 87.8554 158.792 85.9991 157.945C84.5424 157.279 83.7814 156.164 83.5287 154.555C83.2107 152.514 83.4145 150.376 82.4688 148.443" stroke="white" stroke-opacity="0.1" style="mix-blend-mode:overlay" stroke-width="2" stroke-linecap="round" stroke-linejoin="round"/>
<path d="M94.5493 146.812C93.8698 149.212 93.685 151.691 93.3344 154.145C93.1306 155.566 92.4892 156.656 91.1548 157.265C89.5078 158.015 87.8554 158.792 85.9991 157.945C84.5424 157.279 83.7814 156.164 83.5287 154.555C83.2107 152.514 83.4145 150.376 82.4688 148.443" stroke="white" stroke-opacity="0.1" stroke-width="2" stroke-linecap="round" stroke-linejoin="round"/>
<path d="M102.691 77.9822C100.003 78.273 97.3124 78.4932 94.6762 79.1835C91.6594 79.9743 88.7242 80.9663 86.0037 82.4774C82.9544 84.1679 81.3536 86.7253 81.4949 90.3372C81.6499 94.2889 82.0439 98.2297 83.5985 101.855C86.2837 108.117 91.2599 111.734 97.9457 112.694C104.148 113.585 109.869 112.346 114.356 107.568C117.636 104.078 118.916 99.7353 119.392 95.0879C119.734 91.7478 119.185 88.5055 118.291 85.3148C117.253 81.605 114.81 79.4471 110.977 78.7758C108.276 78.3029 105.569 78.0148 102.83 77.9795" stroke="white" stroke-opacity="0.1" style="mix-blend-mode:overlay" stroke-width="2" stroke-linecap="round" stroke-linejoin="round"/>
<path d="M102.691 77.9822C100.003 78.273 97.3124 78.4932 94.6762 79.1835C91.6594 79.9743 88.7242 80.9663 86.0037 82.4774C82.9544 84.1679 81.3536 86.7253 81.4949 90.3372C81.6499 94.2889 82.0439 98.2297 83.5985 101.855C86.2837 108.117 91.2599 111.734 97.9457 112.694C104.148 113.585 109.869 112.346 114.356 107.568C117.636 104.078 118.916 99.7353 119.392 95.0879C119.734 91.7478 119.185 88.5055 118.291 85.3148C117.253 81.605 114.81 79.4471 110.977 78.7758C108.276 78.3029 105.569 78.0148 102.83 77.9795" stroke="white" stroke-opacity="0.1" stroke-width="2" stroke-linecap="round" stroke-linejoin="round"/>
<path d="M34.1415 78.1182C32.2771 78.4361 30.41 78.6508 28.5619 79.1591C25.7762 79.9255 23.9498 81.5752 23.0203 84.2332C21.4196 88.8045 20.7782 93.5062 21.2402 98.3493C21.7892 104.133 24.6999 108.242 29.9371 110.699C38.0551 114.507 46.6841 113.713 53.2638 107.56C56.4436 104.587 57.846 100.643 58.5689 96.4469C58.9005 94.5173 59.1206 92.5605 59.2321 90.6091C59.4549 86.7526 57.6829 84.0647 54.2422 82.3117C49.0241 79.651 43.5369 78.1698 37.6719 78.1236C36.5413 78.1154 35.4107 78.1236 34.2774 78.1236" stroke="white" stroke-opacity="0.1" style="mix-blend-mode:overlay" stroke-width="2" stroke-linecap="round" stroke-linejoin="round"/>
<path d="M34.1415 78.1182C32.2771 78.4361 30.41 78.6508 28.5619 79.1591C25.7762 79.9255 23.9498 81.5752 23.0203 84.2332C21.4196 88.8045 20.7782 93.5062 21.2402 98.3493C21.7892 104.133 24.6999 108.242 29.9371 110.699C38.0551 114.507 46.6841 113.713 53.2638 107.56C56.4436 104.587 57.846 100.643 58.5689 96.4469C58.9005 94.5173 59.1206 92.5605 59.2321 90.6091C59.4549 86.7526 57.6829 84.0647 54.2422 82.3117C49.0241 79.651 43.5369 78.1698 37.6719 78.1236C36.5413 78.1154 35.4107 78.1236 34.2774 78.1236" stroke="white" stroke-opacity="0.1" stroke-width="2" stroke-linecap="round" stroke-linejoin="round"/>
<path d="M69.706 113.416C68.7032 113.751 68.0455 114.365 67.7954 115.449C66.9855 118.95 65.1728 121.92 62.9415 124.701C61.3434 126.693 60.2916 128.997 60.2183 131.609C60.1422 134.365 63.0583 135.988 65.4989 134.593C66.6377 133.944 67.4258 132.903 68.3471 132.011C70.2251 130.191 70.5431 130.533 72.2798 132.022C72.9103 132.563 73.4321 133.226 74.0572 133.773C75.4786 135.012 77.1229 134.968 78.7997 134.452C79.9765 134.091 80.463 133.221 80.4331 132.014C80.3679 129.288 79.2482 126.943 77.8567 124.679C76.4652 122.418 74.7366 120.344 73.9159 117.759C73.7175 117.132 73.6033 116.468 73.356 115.865C72.7418 114.376 71.709 113.109 69.8446 113.414" stroke="white" stroke-opacity="0.1" style="mix-blend-mode:overlay" stroke-width="2" stroke-linecap="round" stroke-linejoin="round"/>
<path d="M69.706 113.416C68.7032 113.751 68.0455 114.365 67.7954 115.449C66.9855 118.95 65.1728 121.92 62.9415 124.701C61.3434 126.693 60.2916 128.997 60.2183 131.609C60.1422 134.365 63.0583 135.988 65.4989 134.593C66.6377 133.944 67.4258 132.903 68.3471 132.011C70.2251 130.191 70.5431 130.533 72.2798 132.022C72.9103 132.563 73.4321 133.226 74.0572 133.773C75.4786 135.012 77.1229 134.968 78.7997 134.452C79.9765 134.091 80.463 133.221 80.4331 132.014C80.3679 129.288 79.2482 126.943 77.8567 124.679C76.4652 122.418 74.7366 120.344 73.9159 117.759C73.7175 117.132 73.6033 116.468 73.356 115.865C72.7418 114.376 71.709 113.109 69.8446 113.414" stroke="white" stroke-opacity="0.1" stroke-width="2" stroke-linecap="round" stroke-linejoin="round"/>
</svg>
