<svg width="16" height="16" viewBox="0 0 16 16" fill="none" xmlns="http://www.w3.org/2000/svg">
<path d="M15.04 0H0.96C0.705392 0 0.461212 0.101143 0.281178 0.281178C0.101143 0.461212 0 0.705392 0 0.96V15.04C0 15.2946 0.101143 15.5388 0.281178 15.7188C0.461212 15.8989 0.705392 16 0.96 16H15.04C15.2946 16 15.5388 15.8989 15.7188 15.7188C15.8989 15.5388 16 15.2946 16 15.04V0.96C16 0.705392 15.8989 0.461212 15.7188 0.281178C15.5388 0.101143 15.2946 0 15.04 0ZM15.36 15.04C15.36 15.1249 15.3263 15.2063 15.2663 15.2663C15.2063 15.3263 15.1249 15.36 15.04 15.36H0.96C0.875131 15.36 0.793738 15.3263 0.733726 15.2663C0.673714 15.2063 0.64 15.1249 0.64 15.04V0.96C0.64 0.875131 0.673714 0.793738 0.733726 0.733726C0.793738 0.673714 0.875131 0.64 0.96 0.64H15.04C15.1249 0.64 15.2063 0.673714 15.2663 0.733726C15.3263 0.793738 15.36 0.875131 15.36 0.96V15.04ZM5.12 6.72V11.84C5.12 11.9249 5.08629 12.0063 5.02627 12.0663C4.96626 12.1263 4.88487 12.16 4.8 12.16C4.71513 12.16 4.63374 12.1263 4.57373 12.0663C4.51371 12.0063 4.48 11.9249 4.48 11.84V6.72C4.48 6.63513 4.51371 6.55374 4.57373 6.49373C4.63374 6.43371 4.71513 6.4 4.8 6.4C4.88487 6.4 4.96626 6.43371 5.02627 6.49373C5.08629 6.55374 5.12 6.63513 5.12 6.72ZM12.16 8.96V11.84C12.16 11.9249 12.1263 12.0063 12.0663 12.0663C12.0063 12.1263 11.9249 12.16 11.84 12.16C11.7551 12.16 11.6737 12.1263 11.6137 12.0663C11.5537 12.0063 11.52 11.9249 11.52 11.84V8.96C11.52 8.45078 11.3177 7.96242 10.9576 7.60235C10.5976 7.24228 10.1092 7.04 9.6 7.04C9.09078 7.04 8.60242 7.24228 8.24235 7.60235C7.88228 7.96242 7.68 8.45078 7.68 8.96V11.84C7.68 11.9249 7.64629 12.0063 7.58627 12.0663C7.52626 12.1263 7.44487 12.16 7.36 12.16C7.27513 12.16 7.19374 12.1263 7.13373 12.0663C7.07371 12.0063 7.04 11.9249 7.04 11.84V6.72C7.04 6.63513 7.07371 6.55374 7.13373 6.49373C7.19374 6.43371 7.27513 6.4 7.36 6.4C7.44487 6.4 7.52626 6.43371 7.58627 6.49373C7.64629 6.55374 7.68 6.63513 7.68 6.72V7.2696C8.02378 6.87979 8.47807 6.60385 8.98246 6.47848C9.48686 6.3531 10.0175 6.38422 10.5037 6.56771C10.99 6.75119 11.4089 7.07835 11.7048 7.50567C12.0006 7.933 12.1594 8.44026 12.16 8.96ZM5.44 4.48C5.44 4.60658 5.40246 4.73032 5.33214 4.83557C5.26182 4.94081 5.16186 5.02284 5.04492 5.07128C4.92797 5.11972 4.79929 5.1324 4.67514 5.1077C4.55099 5.08301 4.43696 5.02205 4.34745 4.93255C4.25795 4.84304 4.19699 4.72901 4.1723 4.60486C4.1476 4.48071 4.16028 4.35203 4.20872 4.23508C4.25716 4.11814 4.33919 4.01818 4.44443 3.94786C4.54968 3.87754 4.67342 3.84 4.8 3.84C4.96974 3.84 5.13252 3.90743 5.25255 4.02745C5.37257 4.14747 5.44 4.31026 5.44 4.48Z" fill="white" fill-opacity="0.6"/>
</svg>
