<svg width="16" height="16" viewBox="0 0 16 16" fill="none" xmlns="http://www.w3.org/2000/svg">
<path d="M8 4.48C7.30381 4.48 6.62325 4.68644 6.04439 5.07323C5.46553 5.46001 5.01436 6.00976 4.74794 6.65295C4.48152 7.29615 4.41182 8.0039 4.54764 8.68672C4.68346 9.36953 5.0187 9.99673 5.51098 10.489C6.00326 10.9813 6.63047 11.3165 7.31328 11.4524C7.99609 11.5882 8.70385 11.5185 9.34705 11.2521C9.99024 10.9856 10.54 10.5345 10.9268 9.95561C11.3136 9.37675 11.52 8.69619 11.52 8C11.5189 7.06676 11.1477 6.17205 10.4878 5.51215C9.82795 4.85225 8.93324 4.48106 8 4.48ZM8 10.88C7.43039 10.88 6.87357 10.7111 6.39996 10.3946C5.92634 10.0782 5.55721 9.62838 5.33923 9.10213C5.12125 8.57588 5.06421 7.9968 5.17534 7.43814C5.28646 6.87947 5.56076 6.36631 5.96353 5.96353C6.36631 5.56076 6.87947 5.28646 7.43814 5.17534C7.9968 5.06421 8.57588 5.12125 9.10213 5.33923C9.62838 5.55721 10.0782 5.92634 10.3946 6.39996C10.7111 6.87357 10.88 7.43039 10.88 8C10.88 8.76382 10.5766 9.49636 10.0365 10.0365C9.49636 10.5766 8.76382 10.88 8 10.88ZM11.84 0H4.16C3.05709 0.00127039 1.99971 0.439963 1.21984 1.21984C0.439963 1.99971 0.00127039 3.05709 0 4.16V11.84C0.00127039 12.9429 0.439963 14.0003 1.21984 14.7802C1.99971 15.56 3.05709 15.9987 4.16 16H11.84C12.9429 15.9987 14.0003 15.56 14.7802 14.7802C15.56 14.0003 15.9987 12.9429 16 11.84V4.16C15.9987 3.05709 15.56 1.99971 14.7802 1.21984C14.0003 0.439963 12.9429 0.00127039 11.84 0ZM15.36 11.84C15.3589 12.7732 14.9877 13.6679 14.3278 14.3278C13.6679 14.9877 12.7732 15.3589 11.84 15.36H4.16C3.22676 15.3589 2.33205 14.9877 1.67215 14.3278C1.01225 13.6679 0.641059 12.7732 0.64 11.84V4.16C0.641059 3.22676 1.01225 2.33205 1.67215 1.67215C2.33205 1.01225 3.22676 0.641059 4.16 0.64H11.84C12.7732 0.641059 13.6679 1.01225 14.3278 1.67215C14.9877 2.33205 15.3589 3.22676 15.36 4.16V11.84ZM12.8 3.84C12.8 3.96658 12.7625 4.09032 12.6921 4.19557C12.6218 4.30081 12.5219 4.38284 12.4049 4.43128C12.288 4.47972 12.1593 4.4924 12.0351 4.4677C11.911 4.44301 11.797 4.38205 11.7075 4.29255C11.6179 4.20304 11.557 4.08901 11.5323 3.96486C11.5076 3.84071 11.5203 3.71203 11.5687 3.59508C11.6172 3.47814 11.6992 3.37818 11.8044 3.30786C11.9097 3.23754 12.0334 3.2 12.16 3.2C12.3297 3.2 12.4925 3.26743 12.6125 3.38745C12.7326 3.50747 12.8 3.67026 12.8 3.84Z" fill="white" fill-opacity="0.6"/>
</svg>
