<svg width="16" height="16" viewBox="0 0 16 16" fill="none" xmlns="http://www.w3.org/2000/svg">
<path d="M8 0C6.41775 0 4.87103 0.469192 3.55544 1.34824C2.23985 2.22729 1.21447 3.47672 0.608967 4.93853C0.00346615 6.40034 -0.15496 8.00887 0.153721 9.56072C0.462403 11.1126 1.22433 12.538 2.34315 13.6569C3.46197 14.7757 4.88743 15.5376 6.43928 15.8463C7.99113 16.155 9.59966 15.9965 11.0615 15.391C12.5233 14.7855 13.7727 13.7602 14.6518 12.4446C15.5308 11.129 16 9.58225 16 8C15.9977 5.87898 15.1541 3.8455 13.6543 2.34572C12.1545 0.845932 10.121 0.00232928 8 0ZM8.32 15.3528V9.6H10.56C10.6449 9.6 10.7263 9.56628 10.7863 9.50627C10.8463 9.44626 10.88 9.36487 10.88 9.28C10.88 9.19513 10.8463 9.11374 10.7863 9.05372C10.7263 8.99371 10.6449 8.96 10.56 8.96H8.32V6.72C8.32 6.29565 8.48857 5.88869 8.78863 5.58863C9.08869 5.28857 9.49566 5.12 9.92 5.12H11.2C11.2849 5.12 11.3663 5.08629 11.4263 5.02627C11.4863 4.96626 11.52 4.88487 11.52 4.8C11.52 4.71513 11.4863 4.63374 11.4263 4.57372C11.3663 4.51371 11.2849 4.48 11.2 4.48H9.92C9.32592 4.48 8.75616 4.716 8.33608 5.13608C7.916 5.55616 7.68 6.12591 7.68 6.72V8.96H5.44C5.35513 8.96 5.27374 8.99371 5.21373 9.05372C5.15372 9.11374 5.12 9.19513 5.12 9.28C5.12 9.36487 5.15372 9.44626 5.21373 9.50627C5.27374 9.56628 5.35513 9.6 5.44 9.6H7.68V15.3528C5.75754 15.2691 3.94431 14.4359 2.62874 13.0316C1.31317 11.6272 0.599902 9.76354 0.641744 7.83972C0.683586 5.9159 1.47721 4.08497 2.85259 2.73918C4.22797 1.39338 6.07572 0.63976 8 0.63976C9.92428 0.63976 11.772 1.39338 13.1474 2.73918C14.5228 4.08497 15.3164 5.9159 15.3583 7.83972C15.4001 9.76354 14.6868 11.6272 13.3713 13.0316C12.0557 14.4359 10.2425 15.2691 8.32 15.3528Z" fill="white" fill-opacity="0.6"/>
</svg>
