<svg width="15" height="16" viewBox="0 0 15 16" fill="none" xmlns="http://www.w3.org/2000/svg">
<path d="M14.9411 15.4628L9.20744 6.68738L14.9081 0.58411C14.9718 0.514945 15.0047 0.423976 14.9995 0.331216C14.9943 0.238456 14.9515 0.151503 14.8805 0.0894853C14.8094 0.0274675 14.716 -0.00453453 14.6208 0.000519178C14.5255 0.00557289 14.4363 0.0472685 14.3726 0.116433L8.81026 6.07888L4.94554 0.163375C4.91322 0.113998 4.86863 0.0733686 4.81589 0.0452553C4.76315 0.0171419 4.70398 0.00245496 4.64386 0.00255657H0.359642C0.295667 0.00260415 0.232881 0.0193932 0.17785 0.0511678C0.122819 0.0829424 0.0775652 0.128535 0.046822 0.183177C0.0160789 0.237819 0.000975822 0.299503 0.00309264 0.361777C0.00520946 0.42405 0.0244683 0.484626 0.0588549 0.537168L5.79256 9.31262L0.091879 15.4159C0.0603493 15.4501 0.0360544 15.4901 0.0203811 15.5335C0.00470789 15.5769 -0.00203671 15.6229 0.000532581 15.6688C0.00310187 15.7147 0.0149347 15.7597 0.0353554 15.8012C0.0557761 15.8427 0.0843848 15.8798 0.119548 15.9105C0.154711 15.9412 0.19574 15.9649 0.240293 15.9802C0.284845 15.9954 0.332048 16.002 0.379207 15.9995C0.426366 15.997 0.472557 15.9855 0.515143 15.9656C0.557729 15.9457 0.595876 15.9178 0.627406 15.8836L6.19331 9.92113L10.058 15.8366C10.09 15.8855 10.1341 15.9258 10.1861 15.9539C10.2382 15.982 10.2966 15.997 10.3561 15.9974H14.6404C14.7043 15.9974 14.7671 15.9806 14.8222 15.9488C14.8772 15.9171 14.9224 15.8715 14.9532 15.8168C14.9839 15.7622 14.999 15.7005 14.9969 15.6382C14.9948 15.5759 14.9755 15.5154 14.9411 15.4628ZM10.5525 15.302L1.01031 0.697987H4.4475L13.9897 15.302H10.5525Z" fill="white" fill-opacity="0.6"/>
</svg>
