<svg width="16" height="16" viewBox="0 0 16 16" fill="none" xmlns="http://www.w3.org/2000/svg">
<path d="M15.68 4.30769C14.5771 4.30647 13.5197 3.88465 12.7398 3.13477C11.96 2.38489 11.5213 1.36818 11.52 0.307692C11.52 0.226087 11.4863 0.147825 11.4263 0.0901211C11.3663 0.0324176 11.2849 0 11.2 0H8C7.91513 0 7.83374 0.0324176 7.77373 0.0901211C7.71371 0.147825 7.68 0.226087 7.68 0.307692V10.4615C7.67996 10.7919 7.5877 11.1163 7.41286 11.4007C7.23802 11.6851 6.987 11.9192 6.68599 12.0786C6.38498 12.2379 6.04502 12.3167 5.70157 12.3066C5.35812 12.2965 5.02377 12.198 4.7334 12.0214C4.44303 11.8447 4.20729 11.5964 4.05077 11.3023C3.89425 11.0081 3.82268 10.679 3.84354 10.3492C3.8644 10.0194 3.97692 9.70108 4.16936 9.42736C4.3618 9.15364 4.62711 8.9346 4.9376 8.79308C4.9923 8.76803 5.03848 8.72856 5.07077 8.67926C5.10306 8.62997 5.12013 8.57287 5.12 8.51462V5.23077C5.12002 5.18579 5.10979 5.14136 5.09002 5.10059C5.07025 5.05983 5.04142 5.02373 5.00558 4.99484C4.96973 4.96594 4.92773 4.94496 4.88254 4.93336C4.83734 4.92175 4.79005 4.91982 4.744 4.92769C2.0392 5.39077 0 7.76923 0 10.4615C0 11.9304 0.606855 13.3392 1.68706 14.3778C2.76727 15.4165 4.23235 16 5.76 16C7.28765 16 8.75272 15.4165 9.83293 14.3778C10.9131 13.3392 11.52 11.9304 11.52 10.4615V6.88C12.7724 7.61581 14.2123 8.00349 15.68 8C15.7649 8 15.8463 7.96758 15.9063 7.90988C15.9663 7.85218 16 7.77391 16 7.69231V4.61538C16 4.53378 15.9663 4.45552 15.9063 4.39781C15.8463 4.34011 15.7649 4.30769 15.68 4.30769ZM15.36 7.37846C13.9297 7.32173 12.5482 6.86219 11.3872 6.05692C11.3393 6.02372 11.2828 6.00389 11.224 5.99964C11.1651 5.99539 11.1062 6.00688 11.0537 6.03283C11.0012 6.05879 10.9572 6.0982 10.9265 6.14671C10.8959 6.19522 10.8798 6.25093 10.88 6.30769V10.4615C10.88 11.7672 10.3406 13.0194 9.38039 13.9427C8.4202 14.8659 7.11791 15.3846 5.76 15.3846C4.40209 15.3846 3.0998 14.8659 2.13961 13.9427C1.17943 13.0194 0.64 11.7672 0.64 10.4615C0.64 8.19077 2.2656 6.17 4.48 5.61539V8.33154C4.09076 8.54762 3.76755 8.85843 3.54286 9.23271C3.31817 9.607 3.19992 10.0316 3.2 10.4637C3.20008 10.8959 3.31849 11.3204 3.54332 11.6946C3.76815 12.0688 4.09147 12.3795 4.48079 12.5955C4.87011 12.8114 5.31169 12.925 5.76114 12.9248C6.21059 12.9246 6.65207 12.8107 7.04119 12.5944C7.4303 12.3781 7.75334 12.0671 7.97782 11.6927C8.20231 11.3183 8.32032 10.8937 8.32 10.4615V0.615385H10.8904C10.9697 1.73009 11.466 2.7795 12.2877 3.56955C13.1093 4.35961 14.2007 4.83687 15.36 4.91308V7.37846Z" fill="white" fill-opacity="0.6"/>
</svg>
