<svg width="16" height="13" viewBox="0 0 16 13" fill="none" xmlns="http://www.w3.org/2000/svg">
<path d="M10.5348 6.24232L6.97926 3.76614C6.93463 3.73503 6.88275 3.71717 6.82915 3.71445C6.77556 3.71174 6.72227 3.72428 6.67497 3.75074C6.62767 3.77719 6.58813 3.81657 6.56057 3.86466C6.53302 3.91276 6.51848 3.96777 6.51852 4.02382V8.97618C6.51846 9.03223 6.53296 9.08724 6.56049 9.13535C6.58802 9.18346 6.62753 9.22286 6.67481 9.24934C6.72214 9.27581 6.77547 9.28836 6.82909 9.28563C6.88271 9.28291 6.93462 9.26501 6.97926 9.23386L10.5348 6.75768C10.5755 6.72942 10.6088 6.69112 10.6318 6.64616C10.6549 6.60121 10.667 6.551 10.667 6.5C10.667 6.449 10.6549 6.39879 10.6318 6.35384C10.6088 6.30888 10.5755 6.27058 10.5348 6.24232ZM7.11111 8.39815V4.60185L9.8363 6.5L7.11111 8.39815ZM15.5896 2.05293C15.5317 1.81514 15.4205 1.59514 15.2652 1.41109C15.1099 1.22703 14.9149 1.08419 14.6963 0.994358C12.1926 -0.0162343 8.16815 1.57755e-05 8 1.57755e-05C7.83185 1.57755e-05 3.80741 -0.0162343 1.3037 0.994358C1.08522 1.08412 0.89028 1.22684 0.734961 1.41075C0.579642 1.59466 0.468388 1.8145 0.41037 2.05215C0.222222 2.80662 0 4.19096 0 6.5C0 8.80904 0.222222 10.1934 0.41037 10.9478C0.468388 11.1855 0.579642 11.4053 0.734961 11.5892C0.89028 11.7732 1.08522 11.9159 1.3037 12.0056C3.80741 13.0162 7.83185 13 8 13H8.05259C8.56296 13 12.3178 12.9667 14.6985 12.0056C14.917 11.9159 15.1119 11.7732 15.2673 11.5892C15.4226 11.4053 15.5338 11.1855 15.5919 10.9478C15.7778 10.1926 16 8.80904 16 6.5C16 4.19096 15.7778 2.80662 15.5896 2.05215V2.05293ZM15.0163 10.797C14.9819 10.9396 14.9155 11.0716 14.8226 11.1822C14.7298 11.2928 14.6131 11.3788 14.4822 11.433C12.0844 12.3956 8.04222 12.3809 8 12.3809C7.95778 12.3809 3.91778 12.3956 1.52 11.4284C1.38911 11.3741 1.27244 11.2882 1.17958 11.1776C1.08673 11.067 1.02036 10.9349 0.985926 10.7923C0.805185 10.0727 0.592593 8.74404 0.592593 6.5C0.592593 4.25596 0.805185 2.92733 0.983704 2.20769C1.01813 2.06505 1.08451 1.933 1.17736 1.82242C1.27022 1.71183 1.38689 1.62587 1.51778 1.57162C3.91556 0.604359 7.95778 0.619062 8 0.619062C8.04222 0.619062 12.0822 0.603586 14.48 1.57162C14.6109 1.62587 14.7276 1.71183 14.8204 1.82242C14.9133 1.933 14.9796 2.06505 15.0141 2.20769C15.1948 2.92733 15.4074 4.25596 15.4074 6.5C15.4074 8.74404 15.1948 10.0727 15.0163 10.7923V10.797Z" fill="white" fill-opacity="0.6"/>
</svg>
