<svg width="17" height="14" viewBox="0 0 17 14" fill="none" xmlns="http://www.w3.org/2000/svg">
<path d="M1.36 14C0.976629 14 0.65412 13.8707 0.392472 13.612C0.130824 13.3534 0 13.0344 0 12.6552V2.97603C0 2.59675 0.130824 2.27779 0.392472 2.01915C0.65412 1.7605 0.978371 1.63118 1.36522 1.63118H10.72C10.7121 1.73289 10.7061 1.83068 10.7022 1.92456C10.6982 2.01844 10.7002 2.12015 10.7081 2.22967H0.997207L8.14386 6.88852L11.551 4.65884C11.6143 4.73708 11.679 4.81633 11.7452 4.8966C11.8112 4.97702 11.881 5.05424 11.9546 5.12825L8.14386 7.62783L0.605447 2.68734V12.6505C0.605447 12.8695 0.676676 13.0495 0.819134 13.1903C0.961592 13.3311 1.14362 13.4015 1.36522 13.4015H14.9225C15.1441 13.4015 15.3261 13.3311 15.4686 13.1903C15.611 13.0495 15.6823 12.8695 15.6823 12.6505V6.1262C15.7931 6.11024 15.8959 6.09053 15.9909 6.06706C16.0859 6.04359 16.1848 6.01229 16.2877 5.97318V12.6533C16.2877 13.0338 16.1569 13.3534 15.8952 13.612C15.6336 13.8707 15.3111 14 14.9277 14H1.36ZM14.7933 4.35373C14.183 4.35373 13.6641 4.14179 13.2367 3.71792C12.8094 3.29405 12.5957 2.78161 12.5957 2.18062C12.5957 1.57963 12.8101 1.06594 13.2389 0.639564C13.6677 0.213188 14.1861 0 14.794 0C15.402 0 15.9217 0.212719 16.353 0.638156C16.7843 1.06359 17 1.57798 17 2.18132C17 2.78467 16.7848 3.29757 16.3544 3.72003C15.924 4.1425 15.4037 4.35373 14.7933 4.35373Z" fill="#83B59F"/>
</svg>
