<svg width="16" height="16" viewBox="0 0 16 16" fill="none" xmlns="http://www.w3.org/2000/svg">
<path d="M7.99677 16C6.89165 16 5.85244 15.7908 4.87914 15.3725C3.90598 14.9543 3.0595 14.3854 2.33967 13.6659C1.61969 12.9463 1.04975 12.1002 0.629849 11.1273C0.20995 10.1546 0 9.11535 0 8.00946C0 6.90449 0.20918 5.86551 0.627541 4.89252C1.04575 3.91952 1.61461 3.07165 2.33413 2.3489C3.05365 1.62615 3.89983 1.05398 4.87267 0.632386C5.84536 0.210795 6.88465 0 7.99054 0C9.09658 0 10.1365 0.210565 11.1103 0.631694C12.0842 1.05282 12.9313 1.62438 13.6516 2.34636C14.372 3.06819 14.9435 3.91506 15.366 4.88698C15.7887 5.85875 16 6.89711 16 8.00208C16 9.10812 15.7894 10.148 15.3683 11.1218C14.9472 12.0957 14.3756 12.9428 13.6536 13.6631C12.9318 14.3835 12.0849 14.9531 11.1128 15.3718C10.1407 15.7906 9.10204 16 7.99677 16ZM7.99631 15.4117C10.056 15.4117 11.8068 14.6919 13.2487 13.2524C14.6907 11.8129 15.4117 10.0633 15.4117 8.00369C15.4117 5.94403 14.6912 4.19322 13.2501 2.75126C11.8089 1.3093 10.0574 0.58832 7.99562 0.58832C5.93365 0.58832 4.18361 1.30884 2.74549 2.74988C1.30738 4.19107 0.58832 5.94257 0.58832 8.00438C0.58832 10.0663 1.30807 11.8164 2.74757 13.2545C4.18707 14.6926 5.93665 15.4117 7.99631 15.4117ZM8.00092 12.3086C6.80444 12.3086 5.78707 11.8906 4.94881 11.0547C4.11055 10.2185 3.69142 9.2034 3.69142 8.00923C3.69142 6.8149 4.1094 5.79668 4.94535 4.95458C5.78146 4.11247 6.7966 3.69142 7.99077 3.69142C9.1851 3.69142 10.2033 4.11024 11.0454 4.94789C11.8875 5.78538 12.3086 6.80244 12.3086 7.99908C12.3086 9.19556 11.8898 10.2129 11.0521 11.0512C10.2146 11.8894 9.19756 12.3086 8.00092 12.3086ZM7.99608 11.7203C9.02537 11.7203 9.90339 11.3582 10.6301 10.6341C11.3569 9.90977 11.7203 9.03306 11.7203 8.00392C11.7203 6.97463 11.3573 6.09661 10.6315 5.36986C9.9057 4.64311 9.02706 4.27974 7.99562 4.27974C6.96417 4.27974 6.087 4.64265 5.3641 5.36848C4.64119 6.0943 4.27974 6.97294 4.27974 8.00438C4.27974 9.03583 4.64181 9.913 5.36594 10.6359C6.09023 11.3588 6.96694 11.7203 7.99608 11.7203ZM7.99562 8.61716C7.83319 8.61716 7.69046 8.55502 7.56741 8.43074C7.44436 8.30631 7.38284 8.16404 7.38284 8.00392C7.38284 7.84365 7.44498 7.70007 7.56926 7.57318C7.69369 7.44629 7.83596 7.38284 7.99608 7.38284C8.15635 7.38284 8.29993 7.44583 8.42682 7.57179C8.55371 7.69776 8.61716 7.84196 8.61716 8.00438C8.61716 8.16681 8.55417 8.30954 8.4282 8.43259C8.30223 8.55564 8.15804 8.61716 7.99562 8.61716Z" fill="#83B59F"/>
<path d="M7.99512 8.96825C7.71825 8.96825 7.48776 8.87571 7.30367 8.69064C7.11958 8.50544 7.02753 8.27532 7.02753 8.00029C7.02753 7.72513 7.12007 7.49397 7.30514 7.30681C7.49034 7.11965 7.72046 7.02606 7.99549 7.02606C8.27065 7.02606 8.50181 7.11928 8.68897 7.3057C8.87613 7.49213 8.96971 7.72378 8.96971 8.00065C8.96971 8.27753 8.8765 8.50802 8.69007 8.69211C8.50365 8.8762 8.272 8.96825 7.99512 8.96825ZM7.7639 5.02865V2.3501H8.23334V5.02865H7.7639ZM7.7639 13.6442V10.9657H8.23334V13.6442H7.7639ZM10.9671 8.23187V7.76244H13.6457V8.23187H10.9671ZM2.35156 8.23187V7.76244H5.03012V8.23187H2.35156Z" fill="#83B59F"/>
</svg>
