<svg width="16" height="16" viewBox="0 0 16 16" fill="none" xmlns="http://www.w3.org/2000/svg">
<path d="M10.7154 16C9.48595 16 8.40404 15.6362 7.46966 14.9086C6.53514 14.181 5.91819 13.2498 5.6188 12.1149C5.89034 12.1149 6.1451 12.1075 6.38308 12.0927C6.6212 12.078 6.8573 12.0436 7.09138 11.9896H12.089C12.1202 11.7617 12.1427 11.5364 12.1567 11.3134C12.1706 11.0906 12.1775 10.8625 12.1775 10.6291C12.1775 10.4381 12.1706 10.2394 12.1567 10.0332C12.1427 9.82698 12.1218 9.6227 12.094 9.42037H10.7363C10.8059 9.32985 10.8703 9.24282 10.9295 9.15927C10.9887 9.07572 11.0531 8.9852 11.1227 8.88773H15.1123C14.8268 8.23325 14.4195 7.66754 13.8903 7.1906C13.3612 6.71366 12.7554 6.37076 12.0731 6.16188C12.0801 6.07833 12.0905 5.9913 12.1044 5.90078C12.1184 5.81027 12.1253 5.71279 12.1253 5.60836C13.2533 5.91471 14.181 6.53514 14.9086 7.46966C15.6362 8.40404 16 9.48247 16 10.705C16 12.1757 15.4849 13.4259 14.4547 14.4556C13.4245 15.4852 12.1781 16 10.7154 16ZM10.0261 15.3943C9.74064 14.935 9.50566 14.4651 9.32115 13.9845C9.13664 13.504 8.99593 13.0165 8.89901 12.5222H6.32898C6.64926 13.2811 7.13427 13.9182 7.78402 14.4334C8.43363 14.9488 9.18099 15.2691 10.0261 15.3943ZM10.7108 15.4674C11.0481 15.0078 11.3189 14.5321 11.5233 14.0401C11.7279 13.5481 11.8868 13.0422 12 12.5222H9.42037C9.53177 13.0417 9.68668 13.5476 9.88512 14.0399C10.0836 14.532 10.3588 15.0078 10.7108 15.4674ZM11.3943 15.3943C12.2367 15.2689 12.9869 14.9487 13.6449 14.4334C14.3029 13.9182 14.7955 13.2811 15.1227 12.5222H12.5297C12.4203 13.0239 12.275 13.5138 12.094 13.9919C11.913 14.4699 11.6797 14.9374 11.3943 15.3943ZM12.6266 11.9896H15.2998C15.3558 11.7946 15.3977 11.5881 15.4256 11.37C15.4534 11.152 15.4674 10.9303 15.4674 10.705C15.4674 10.4822 15.4534 10.2627 15.4254 10.0466C15.3974 9.8306 15.3554 9.62186 15.2994 9.42037H12.6266C12.6545 9.62381 12.6753 9.829 12.6891 10.0359C12.703 10.2427 12.71 10.4441 12.71 10.6402C12.71 10.8676 12.703 11.0923 12.6891 11.3143C12.6753 11.5361 12.6545 11.7612 12.6266 11.9896ZM5.29629 10.5796C3.82635 10.5796 2.57615 10.0659 1.54569 9.03854C0.515231 8.01114 0 6.76136 0 5.28919C0 3.81702 0.514674 2.56745 1.54402 1.54047C2.57337 0.51349 3.82329 0 5.29379 0C6.76373 0 8.01393 0.513838 9.04439 1.54151C10.0748 2.56919 10.5901 3.81709 10.5901 5.28522C10.5901 6.76087 10.0753 8.01218 9.04564 9.03916C8.01601 10.0661 6.76623 10.5796 5.29629 10.5796ZM5.29922 10.047C6.61236 10.047 7.73368 9.58113 8.66319 8.6494C9.59269 7.71767 10.0574 6.59453 10.0574 5.28C10.0574 3.9741 9.59165 2.8564 8.66005 1.92689C7.72832 0.997389 6.60526 0.532637 5.29086 0.532637C3.97772 0.532637 2.8564 0.99892 1.92689 1.93149C0.997389 2.86406 0.532637 3.98503 0.532637 5.29441C0.532637 6.60379 0.998781 7.72324 1.93107 8.65274C2.86322 9.58225 3.98594 10.047 5.29922 10.047ZM3.37859 4.64752C3.50628 4.64752 3.62263 4.59878 3.72762 4.50131C3.83262 4.40397 3.88512 4.27892 3.88512 4.12616C3.88512 3.97939 3.83241 3.85727 3.727 3.75979C3.62158 3.66232 3.50023 3.61358 3.36292 3.61358C3.21671 3.61358 3.09487 3.66204 2.99739 3.75896C2.89991 3.85601 2.85118 3.9796 2.85118 4.12971C2.85118 4.27997 2.89977 4.40383 2.99697 4.50131C3.09403 4.59878 3.22124 4.64752 3.37859 4.64752ZM5.29901 7.95822C5.79767 7.95822 6.25956 7.85441 6.6847 7.64679C7.1097 7.4393 7.46806 7.15669 7.75979 6.79896L2.83029 6.77807C3.12202 7.14973 3.48171 7.4393 3.90935 7.64679C4.33713 7.85441 4.80035 7.95822 5.29901 7.95822ZM7.2376 4.64752C7.36989 4.64752 7.48999 4.59878 7.59791 4.50131C7.70583 4.40397 7.75979 4.27892 7.75979 4.12616C7.75979 3.97939 7.70583 3.85727 7.59791 3.75979C7.48999 3.66232 7.36641 3.61358 7.22715 3.61358C7.0879 3.61358 6.96954 3.66204 6.87206 3.75896C6.77459 3.85601 6.72585 3.9796 6.72585 4.12971C6.72585 4.27997 6.77445 4.40383 6.87165 4.50131C6.9687 4.59878 7.09069 4.64752 7.2376 4.64752Z" fill="#70B295"/>
</svg>
