<svg width="16" height="11" viewBox="0 0 16 11" fill="none" xmlns="http://www.w3.org/2000/svg">
<path d="M0 11V9.84677C0 9.46237 0.10084 9.14079 0.302521 8.88206C0.504202 8.62332 0.776471 8.41197 1.11933 8.248C1.8521 7.90928 2.5733 7.63273 3.28291 7.41835C3.99253 7.20396 4.90009 7.09677 6.0056 7.09677C7.11111 7.09677 8.01867 7.20396 8.72829 7.41835C9.43791 7.63273 10.1591 7.90928 10.8919 8.248C11.2347 8.41197 11.507 8.62332 11.7087 8.88206C11.9104 9.14079 12.0112 9.46237 12.0112 9.84677V11H0ZM13.8039 11V9.84677C13.8039 9.37366 13.7221 8.93025 13.5585 8.51657C13.3951 8.10289 13.1632 7.7479 12.8627 7.45161C13.2063 7.54032 13.5425 7.65491 13.8711 7.79536C14.1998 7.93582 14.5359 8.08737 14.8796 8.25C15.2232 8.41263 15.4958 8.63559 15.6975 8.91887C15.8992 9.20215 16 9.51145 16 9.84677V11H13.8039ZM4.29132 4.09173C3.82073 3.62601 3.58543 3.06048 3.58543 2.39516C3.58543 1.72984 3.82073 1.16431 4.29132 0.698589C4.7619 0.232863 5.33333 0 6.0056 0C6.67787 0 7.2493 0.232863 7.71989 0.698589C8.19048 1.16431 8.42577 1.72984 8.42577 2.39516C8.42577 3.06048 8.19048 3.62601 7.71989 4.09173C7.2493 4.55746 6.67787 4.79032 6.0056 4.79032C5.33333 4.79032 4.7619 4.55746 4.29132 4.09173ZM11.0763 4.09173C10.6023 4.55746 10.0325 4.79032 9.36695 4.79032C9.64064 4.45382 9.85098 4.08042 9.99798 3.67014C10.145 3.26001 10.2185 2.83413 10.2185 2.3925C10.2185 1.95073 10.1401 1.53024 9.98319 1.13105C9.82633 0.731855 9.62092 0.354839 9.36695 0C10.0325 0 10.6023 0.232863 11.0763 0.698589C11.5502 1.16431 11.7871 1.72984 11.7871 2.39516C11.7871 3.06048 11.5502 3.62601 11.0763 4.09173ZM0.627451 10.379H11.3838V9.84677C11.3838 9.625 11.3277 9.4328 11.2157 9.27016C11.1036 9.10753 10.8908 8.94489 10.577 8.78226C9.94958 8.4422 9.27731 8.17977 8.56022 7.99496C7.84314 7.81015 6.9916 7.71774 6.0056 7.71774C5.01961 7.71774 4.16807 7.81015 3.45098 7.99496C2.73389 8.17977 2.06162 8.4422 1.43417 8.78226C1.12045 8.94489 0.907563 9.10753 0.795518 9.27016C0.683473 9.4328 0.627451 9.625 0.627451 9.84677V10.379ZM7.27171 3.64819C7.62278 3.30074 7.79832 2.88306 7.79832 2.39516C7.79832 1.90726 7.62278 1.48958 7.27171 1.14214C6.92064 0.794691 6.4986 0.620968 6.0056 0.620968C5.51261 0.620968 5.09057 0.794691 4.7395 1.14214C4.38842 1.48958 4.21289 1.90726 4.21289 2.39516C4.21289 2.88306 4.38842 3.30074 4.7395 3.64819C5.09057 3.99563 5.51261 4.16935 6.0056 4.16935C6.4986 4.16935 6.92064 3.99563 7.27171 3.64819Z" fill="#5E8272"/>
</svg>
