<svg width="16" height="16" viewBox="0 0 16 16" fill="none" xmlns="http://www.w3.org/2000/svg">
<path d="M5.57755 7.77548L7.77548 5.57755L5.64845 3.45052L4.53767 4.5613L4.06499 4.08863L5.17578 2.97784L3.09601 0.89808L0.89808 3.09601L5.57755 7.77548ZM12.8804 15.0783L15.0783 12.8804L12.9985 10.8006L11.8877 11.9114L11.4151 11.4387L12.5258 10.3279L10.4225 8.22452L8.22452 10.4225L12.8804 15.0783ZM3.61595 15.0547H0.945347V12.384L5.10487 8.22452L0 3.09601L3.09601 0L8.24815 5.12851L12.6677 0.70901C12.7464 0.630231 12.8252 0.575086 12.904 0.543575C12.9828 0.512063 13.0694 0.496307 13.164 0.496307C13.2585 0.496307 13.3451 0.512063 13.4239 0.543575C13.5027 0.575086 13.5815 0.630231 13.6603 0.70901L15.291 2.41063C15.3698 2.48941 15.421 2.56819 15.4446 2.64697C15.4682 2.72575 15.4801 2.81241 15.4801 2.90694C15.4801 3.00148 15.4682 3.08419 15.4446 3.1551C15.421 3.226 15.3698 3.30084 15.291 3.37962L10.9188 7.77548L16 12.904L12.904 16L7.77548 10.8951L3.61595 15.0547ZM1.60709 14.3929H3.33235L12.6204 5.10487L10.8951 3.37962L1.60709 12.6677V14.3929ZM11.7696 4.23043L10.8951 3.37962L12.6204 5.10487L11.7696 4.23043Z" fill="#5E8272"/>
</svg>
