<svg width="21" height="18" viewBox="0 0 21 18" fill="none" xmlns="http://www.w3.org/2000/svg">
<path d="M10.4455 18C9.55577 17.4147 8.61154 16.9691 7.61284 16.6631C6.61414 16.3571 5.57912 16.2041 4.50778 16.2041C4.01388 16.2041 3.52878 16.2312 3.05249 16.2853C2.5762 16.3396 2.10345 16.445 1.63424 16.6017C1.23476 16.7479 0.862516 16.6931 0.51751 16.4372C0.172503 16.1813 0 15.834 0 15.3953V5.79893C0 5.50647 0.0839818 5.246 0.251946 5.01752C0.419909 4.78903 0.630999 4.62452 0.885214 4.52399C1.46083 4.30465 2.05379 4.13557 2.66409 4.01676C3.27438 3.89794 3.88895 3.83854 4.50778 3.83854C5.57912 3.83854 6.61414 4.01447 7.61284 4.36634C8.61154 4.7182 9.57393 5.17015 10.5 5.72216V17.15C11.4079 16.5651 12.3748 16.1447 13.4008 15.8888C14.4267 15.6329 15.4572 15.505 16.4922 15.505C17.064 15.505 17.5724 15.5324 18.0172 15.5872C18.4623 15.642 18.9527 15.7426 19.4883 15.8888C19.6881 15.9436 19.8742 15.9482 20.0467 15.9025C20.2192 15.8568 20.3054 15.706 20.3054 15.4501V4.55141C20.3508 4.55141 20.3894 4.55826 20.4212 4.57197C20.453 4.58568 20.4825 4.60625 20.5097 4.63366C20.6732 4.72506 20.7957 4.85301 20.8774 5.01752C20.9591 5.18203 21 5.36591 21 5.56917V15.3336C21 15.7725 20.8116 16.1141 20.4348 16.3585C20.058 16.6029 19.6427 16.6657 19.1887 16.5468C18.7415 16.4151 18.2938 16.3249 17.8456 16.2765C17.3973 16.2282 16.9462 16.2041 16.4922 16.2041C15.4027 16.2041 14.3405 16.3424 13.3054 16.6189C12.2704 16.8955 11.3171 17.3559 10.4455 18ZM12.679 14.4082V5.48363L18.1265 0V9.47296L12.679 14.4082ZM9.80545 16.8073V6.11424C8.97925 5.62072 8.12127 5.23458 7.23152 4.95583C6.34176 4.67708 5.43503 4.5377 4.51132 4.5377C3.82367 4.5377 3.20629 4.59939 2.65918 4.72277C2.11208 4.84615 1.6297 4.9901 1.21206 5.15461C1.0668 5.21858 0.944228 5.29855 0.844358 5.39452C0.744488 5.49048 0.694553 5.61158 0.694553 5.75781V15.5187C0.694553 15.7746 0.780804 15.9254 0.953307 15.9711C1.12581 16.0168 1.31193 16.003 1.51167 15.9299C1.89608 15.8023 2.32353 15.6996 2.79401 15.6218C3.26467 15.5439 3.83366 15.505 4.50097 15.505C5.58593 15.505 6.60052 15.6398 7.54475 15.9094C8.48898 16.179 9.24254 16.4783 9.80545 16.8073Z" fill="#83B59F"/>
</svg>
