<svg width="19" height="18" viewBox="0 0 19 18" fill="none" xmlns="http://www.w3.org/2000/svg">
<path d="M0 16.071V12.8331C0 11.5924 0.439359 10.5395 1.31808 9.67448C2.19679 8.80947 3.2698 8.37696 4.53708 8.37696H17.8231C18.1492 8.37696 18.4267 8.48552 18.6559 8.70263C18.8853 8.91974 19 9.18572 19 9.50056C19 9.77575 18.92 10.0114 18.76 10.2074C18.6 10.4035 18.3909 10.537 18.1328 10.6078L14.3545 11.5942V16.2228C14.3545 16.5332 14.2816 16.8139 14.1359 17.065C13.9903 17.3163 13.8051 17.5212 13.5803 17.6796C13.3397 17.8466 13.0758 17.949 12.7884 17.9868C12.5008 18.0248 12.203 17.9807 11.8952 17.8545L7.33985 16.071H0ZM13.5648 12.4289H5.9298C5.61039 12.4289 5.34395 12.532 5.13046 12.7381C4.91677 12.9443 4.81189 13.1948 4.81581 13.4896C4.81581 13.7011 4.87259 13.9116 4.98615 14.1212C5.0997 14.3309 5.28552 14.48 5.5436 14.5686L12.2021 17.1333C12.5221 17.2648 12.8293 17.2345 13.1235 17.0423C13.4177 16.85 13.5648 16.5769 13.5648 16.2228V12.4289ZM0.789731 15.2971H5.24939C4.87775 15.1129 4.58096 14.8665 4.35901 14.5577C4.13705 14.2489 4.02608 13.9076 4.02608 13.5336C4.02608 13.0088 4.21045 12.5644 4.5792 12.2006C4.94815 11.8368 5.39866 11.6549 5.93073 11.6549H10.8085L17.9315 9.86417C18.0451 9.83382 18.1225 9.78324 18.1638 9.71242C18.2051 9.6416 18.218 9.56066 18.2025 9.46961C18.187 9.37855 18.1497 9.30267 18.0904 9.24197C18.031 9.18127 17.9419 9.15092 17.8231 9.15092H4.53708C3.49608 9.15092 2.61127 9.50947 1.88266 10.2266C1.15404 10.9435 0.789731 11.8141 0.789731 12.8386V15.2971ZM4.68419 5.53092C4.03898 4.89819 3.71638 4.13688 3.71638 3.24698C3.71638 2.35708 4.03919 1.59344 4.68481 0.956066C5.33043 0.318689 6.10725 0 7.01529 0C7.92332 0 8.70253 0.318892 9.35289 0.956674C10.0033 1.59446 10.3284 2.3583 10.3284 3.2482C10.3284 4.1381 10.0031 4.89921 9.35227 5.53153C8.70149 6.16384 7.92209 6.48 7.01405 6.48C6.10601 6.48 5.32939 6.16364 4.68419 5.53092ZM8.79543 4.98338C9.29095 4.5016 9.53871 3.9224 9.53871 3.24577C9.53871 2.56914 9.29178 1.98801 8.79791 1.50239C8.30425 1.01677 7.71066 0.773958 7.01715 0.773958C6.32384 0.773958 5.732 1.01596 5.24165 1.49996C4.75129 1.98376 4.50611 2.56549 4.50611 3.24516C4.50611 3.92463 4.75191 4.50464 5.2435 4.9852C5.7351 5.46576 6.32611 5.70605 7.01653 5.70605C7.70695 5.70605 8.29992 5.46516 8.79543 4.98338Z" fill="#83B59F"/>
</svg>
