<svg width="19" height="18" viewBox="0 0 19 18" fill="none" xmlns="http://www.w3.org/2000/svg">
<path d="M16.1964 4.02476C16.3982 4.02476 16.5779 3.95047 16.7355 3.80189C16.8931 3.65331 16.9719 3.47851 16.9719 3.27749C16.9719 3.07647 16.8944 2.89949 16.7395 2.74654C16.5845 2.59359 16.404 2.51712 16.198 2.51712C15.9895 2.51712 15.8107 2.59359 15.6614 2.74654C15.5121 2.89949 15.4375 3.07647 15.4375 3.27749C15.4375 3.47851 15.5136 3.65331 15.6657 3.80189C15.8178 3.95047 15.9947 4.02476 16.1964 4.02476ZM11.9551 4.02476C12.1596 4.02476 12.3398 3.95047 12.4954 3.80189C12.6511 3.65331 12.7289 3.47851 12.7289 3.27749C12.7289 3.07647 12.6511 2.89949 12.4954 2.74654C12.3398 2.59359 12.1596 2.51712 11.9551 2.51712C11.7505 2.51712 11.5726 2.59359 11.4213 2.74654C11.2701 2.89949 11.1945 3.07647 11.1945 3.27749C11.1945 3.47851 11.2701 3.65331 11.4213 3.80189C11.5726 3.95047 11.7505 4.02476 11.9551 4.02476ZM11.7549 7.57757H16.4115C16.3226 7.16679 16.0552 6.82593 15.6094 6.55499C15.1635 6.28405 14.6521 6.14858 14.0749 6.14858C13.4622 6.14858 12.9357 6.28318 12.4954 6.55237C12.0551 6.82173 11.8083 7.16347 11.7549 7.57757ZM1.43434 16.5933C0.478113 15.6557 0 14.512 0 13.1624V7.28915H9.83357V13.1595C9.83357 14.5132 9.35679 15.6584 8.40323 16.5951C7.44949 17.5317 6.28868 18 4.92079 18C3.55272 18 2.39057 17.5311 1.43434 16.5933ZM7.91222 16.115C8.73947 15.3042 9.15309 14.3214 9.15309 13.1669V7.95776H0.680477V13.1624C0.680477 14.3161 1.0941 15.2993 1.92135 16.1122C2.7486 16.925 3.74707 17.3314 4.91678 17.3314C6.08649 17.3314 7.08497 16.9259 7.91222 16.115ZM14.0765 10.7109C13.5946 10.7109 13.0949 10.6387 12.5774 10.4945C12.0598 10.3503 11.6478 10.1559 11.3413 9.91114L11.3947 9.08521C11.7754 9.38237 12.1886 9.61617 12.6342 9.7866C13.0798 9.95703 13.5606 10.0422 14.0765 10.0422C15.2528 10.0422 16.2541 9.6368 17.0803 8.8259C17.9064 8.015 18.3195 7.03228 18.3195 5.87773V0.668609H9.83357V5.75528H9.15309V0H19V5.87039C19 7.22404 18.5214 8.36924 17.5641 9.30599C16.6068 10.2426 15.4443 10.7109 14.0765 10.7109ZM2.80864 11.3139C3.01287 11.3139 3.19175 11.2401 3.34528 11.0926C3.49899 10.9449 3.57584 10.7701 3.57584 10.5682C3.57584 10.3661 3.49917 10.1886 3.34581 10.0357C3.19228 9.88274 3.01376 9.80626 2.81024 9.80626C2.60014 9.80626 2.41948 9.883 2.26826 10.0365C2.11704 10.1901 2.04143 10.369 2.04143 10.5732C2.04143 10.77 2.11642 10.9426 2.26639 11.091C2.41618 11.2396 2.59693 11.3139 2.80864 11.3139ZM7.57198 11.0926C7.72764 10.9449 7.80548 10.7701 7.80548 10.5682C7.80548 10.3661 7.72729 10.1886 7.57091 10.0357C7.41454 9.88274 7.23921 9.80626 7.04494 9.80626C6.84036 9.80626 6.66023 9.88239 6.50456 10.0346C6.3489 10.1871 6.27107 10.3644 6.27107 10.5666C6.27107 10.7717 6.3489 10.9474 6.50456 11.0939C6.66023 11.2406 6.83813 11.3139 7.03827 11.3139C7.23841 11.3139 7.41632 11.2401 7.57198 11.0926ZM6.50456 14.4603C6.94487 14.1894 7.19616 13.8441 7.25843 13.4246H2.60183C2.6552 13.8441 2.90257 14.1894 3.34395 14.4603C3.78532 14.7312 4.31236 14.8667 4.92506 14.8667C5.53775 14.8667 6.06426 14.7312 6.50456 14.4603Z" fill="#83B59F"/>
</svg>
