<svg width="18" height="18" viewBox="0 0 18 18" fill="none" xmlns="http://www.w3.org/2000/svg">
<path d="M0 18V4.32223H4.32223V0H13.6778V8.64446H18V18H10.8056V13.6778H7.19442V18H0ZM0.711077 17.2889H4.32223V13.6778H0.711077V17.2889ZM0.711077 12.9667H4.32223V9.35554H0.711077V12.9667ZM0.711077 8.64446H4.32223V5.03331H0.711077V8.64446ZM5.03331 12.9667H8.64446V9.35554H5.03331V12.9667ZM5.03331 8.64446H8.64446V5.03331H5.03331V8.64446ZM5.03331 4.32223H8.64446V0.711077H5.03331V4.32223ZM9.35554 12.9667H12.9667V9.35554H9.35554V12.9667ZM9.35554 8.64446H12.9667V5.03331H9.35554V8.64446ZM9.35554 4.32223H12.9667V0.711077H9.35554V4.32223ZM13.6778 17.2889H17.2889V13.6778H13.6778V17.2889ZM13.6778 12.9667H17.2889V9.35554H13.6778V12.9667Z" fill="#83B59F"/>
</svg>
