<svg width="14" height="18" viewBox="0 0 14 18" fill="none" xmlns="http://www.w3.org/2000/svg">
<path d="M1.52669 18C1.09551 18 0.73327 17.8554 0.439962 17.5663C0.146654 17.2771 0 16.9208 0 16.4973V5.6616C0 5.23811 0.146654 4.88178 0.439962 4.59262C0.73327 4.30347 1.09746 4.15889 1.53255 4.15889H3.47338V3.47668C3.47338 2.50583 3.81567 1.68367 4.50023 1.0102C5.18497 0.336735 6.01894 0 7.00213 0C7.9855 0 8.8216 0.337259 9.51042 1.01178C10.1992 1.6863 10.5437 2.50793 10.5437 3.47668V4.15889H12.4722C12.9041 4.15889 13.2667 4.30347 13.56 4.59262C13.8533 4.88178 14 5.23811 14 5.6616V16.4973C14 16.9208 13.8533 17.2771 13.56 17.5663C13.2667 17.8554 12.9045 18 12.4733 18H1.52669ZM1.53042 17.3309H12.4696C12.6825 17.3309 12.8777 17.2434 13.0551 17.0685C13.2326 16.8936 13.3213 16.7012 13.3213 16.4913V5.66764C13.3213 5.45773 13.2326 5.26531 13.0551 5.09038C12.8777 4.91545 12.6825 4.82799 12.4696 4.82799H10.5399V7.63557C10.5399 7.73178 10.5067 7.81268 10.4401 7.87828C10.3736 7.94388 10.2915 7.97668 10.1939 7.97668C10.0963 7.97668 10.0165 7.94388 9.95437 7.87828C9.89227 7.81268 9.86122 7.73178 9.86122 7.63557V4.82799H4.15209V7.63557C4.15209 7.73178 4.11882 7.81268 4.05228 7.87828C3.98574 7.94388 3.90368 7.97668 3.80608 7.97668C3.70849 7.97668 3.62864 7.94388 3.56654 7.87828C3.50444 7.81268 3.47338 7.73178 3.47338 7.63557V4.82799H1.53042C1.31749 4.82799 1.12231 4.91545 0.944867 5.09038C0.767427 5.26531 0.678707 5.45773 0.678707 5.66764V16.4913C0.678707 16.7012 0.767427 16.8936 0.944867 17.0685C1.12231 17.2434 1.31749 17.3309 1.53042 17.3309ZM4.15209 4.15889H9.86122V3.47668C9.86122 2.68076 9.58689 2.01385 9.03825 1.47595C8.48979 0.938047 7.81108 0.669096 7.00213 0.669096C6.19336 0.669096 5.51616 0.938396 4.97053 1.477C4.4249 2.01577 4.15209 2.68233 4.15209 3.47668V4.15889Z" fill="#83B59F"/>
</svg>
