<svg width="18" height="18" viewBox="0 0 18 18" fill="none" xmlns="http://www.w3.org/2000/svg">
<path d="M6.89946 11.1005V6.89946H11.1005V11.1005H6.89946ZM7.72352 10.2765H10.2765V7.72352H7.72352V10.2765ZM6.02693 18V16.2388H3.61939C3.09285 16.2388 2.65153 16.0607 2.2954 15.7046C1.93928 15.3485 1.76122 14.9071 1.76122 14.3806V11.9731H0V11.149H1.76122V6.85099H0V6.02693H1.76122V3.61939C1.76122 3.09285 1.93928 2.65153 2.2954 2.2954C2.65153 1.93928 3.09285 1.76122 3.61939 1.76122H6.02693V0H6.85099V1.76122H11.149V0H11.9731V1.76122H14.3806C14.9071 1.76122 15.3485 1.93928 15.7046 2.2954C16.0607 2.65153 16.2388 3.09285 16.2388 3.61939V6.02693H18V6.85099H16.2388V11.149H18V11.9731H16.2388V14.3806C16.2388 14.9071 16.0607 15.3485 15.7046 15.7046C15.3485 16.0607 14.9071 16.2388 14.3806 16.2388H11.9731V18H11.149V16.2388H6.85099V18H6.02693ZM14.3806 15.4147C14.6391 15.4147 14.8761 15.307 15.0916 15.0916C15.307 14.8761 15.4147 14.6391 15.4147 14.3806V3.61939C15.4147 3.36086 15.307 3.12388 15.0916 2.90844C14.8761 2.693 14.6391 2.58528 14.3806 2.58528H3.61939C3.36086 2.58528 3.12388 2.693 2.90844 2.90844C2.693 3.12388 2.58528 3.36086 2.58528 3.61939V14.3806C2.58528 14.6391 2.693 14.8761 2.90844 15.0916C3.12388 15.307 3.36086 15.4147 3.61939 15.4147H14.3806Z" fill="#83B59F"/>
</svg>
