<svg width="20" height="18" viewBox="0 0 20 18" fill="none" xmlns="http://www.w3.org/2000/svg">
<path d="M9.23177 18V17.3348H20V18H9.23177ZM10.2734 15.8348C10.2734 14.6835 10.6597 13.6957 11.4323 12.8713C12.2049 12.047 13.1554 11.5913 14.2839 11.5043V11.113C14.2839 11.0348 14.3142 10.9609 14.375 10.8913C14.4358 10.8217 14.5139 10.787 14.6094 10.787C14.6875 10.787 14.7635 10.8217 14.8372 10.8913C14.911 10.9609 14.9479 11.0348 14.9479 11.113V11.5043C16.0677 11.5913 17.0161 12.047 17.793 12.8713C18.5699 13.6957 18.9583 14.6835 18.9583 15.8348H10.2734ZM10.9635 15.1696H18.2422C18.0686 14.2913 17.6484 13.5652 16.9818 12.9913C16.3151 12.4174 15.5247 12.1304 14.6104 12.1304C13.6983 12.1304 12.9036 12.4174 12.2266 12.9913C11.5495 13.5652 11.1285 14.2913 10.9635 15.1696ZM0 8.50435V1.12174H3.39844V2.4L11.4974 0L18.3724 2.1707V2.46522C18.3724 2.9673 18.1565 3.39939 17.7247 3.76148C17.2928 4.12339 16.7882 4.30435 16.2109 4.30435H13.3594V4.61739C13.3594 4.93043 13.2183 5.2587 12.9362 5.60217C12.6541 5.94565 12.3611 6.17391 12.0573 6.28696L6.0026 8.50435H0ZM0.664062 7.83913H2.73438V1.78696H0.664062V7.83913ZM3.39844 7.83913H5.91146L12.1888 5.52991C12.3442 5.47809 12.4674 5.38391 12.5586 5.24739C12.6497 5.11104 12.6953 4.96191 12.6953 4.8V4.30435H10.638L7.61719 5.32174L7.38281 4.66957L10.5599 3.63913H16.2109C16.4714 3.63913 16.76 3.55826 17.0768 3.39652C17.3937 3.23496 17.5868 2.98104 17.6562 2.63478L11.4453 0.717391L3.39844 3.11739V7.83913Z" fill="#83B59F"/>
</svg>
