<svg width="22" height="18" viewBox="0 0 22 18" fill="none" xmlns="http://www.w3.org/2000/svg">
<path d="M9.97667 18C9.86091 18 9.76515 17.9633 9.68939 17.8898C9.61364 17.8163 9.57576 17.7194 9.57576 17.599V11.7475L11.0303 7.60396C11.0909 7.43564 11.1953 7.29951 11.3433 7.19554C11.4912 7.09158 11.6572 7.0396 11.8412 7.0396H19.7273C19.9192 7.0396 20.0884 7.09158 20.2348 7.19554C20.3813 7.29951 20.4848 7.43564 20.5455 7.60396L22 11.7475V17.599C22 17.7194 21.9625 17.8163 21.8876 17.8898C21.8126 17.9633 21.7143 18 21.5927 18H21.613C21.4973 18 21.4015 17.9633 21.3258 17.8898C21.25 17.8163 21.2121 17.7194 21.2121 17.599V16.2178H10.3636V17.599C10.3636 17.7194 10.3262 17.8163 10.2512 17.8898C10.1763 17.9633 10.078 18 9.95636 18H9.97667ZM10.7727 10.8416H20.803L19.7727 7.82673H11.8182L10.7727 10.8416ZM12.9091 14.5248C13.1818 14.5248 13.4192 14.4257 13.6212 14.2277C13.8232 14.0297 13.9242 13.797 13.9242 13.5297C13.9242 13.2624 13.8232 13.0297 13.6212 12.8317C13.4192 12.6337 13.1818 12.5347 12.9091 12.5347C12.6364 12.5347 12.399 12.6337 12.197 12.8317C11.995 13.0297 11.8939 13.2624 11.8939 13.5297C11.8939 13.797 11.995 14.0297 12.197 14.2277C12.399 14.4257 12.6364 14.5248 12.9091 14.5248ZM18.6667 14.5248C18.9394 14.5248 19.1768 14.4257 19.3788 14.2277C19.5808 14.0297 19.6818 13.797 19.6818 13.5297C19.6818 13.2624 19.5808 13.0297 19.3788 12.8317C19.1768 12.6337 18.9394 12.5347 18.6667 12.5347C18.3939 12.5347 18.1566 12.6337 17.9545 12.8317C17.7525 13.0297 17.6515 13.2624 17.6515 13.5297C17.6515 13.797 17.7525 14.0297 17.9545 14.2277C18.1566 14.4257 18.3939 14.5248 18.6667 14.5248ZM10.3788 15.4455H21.197V11.6139H10.3788V15.4455ZM0 15.6238V14.4802H2.42424V1.70792C2.42424 1.23327 2.59364 0.830001 2.93242 0.498119C3.27101 0.16604 3.68242 0 4.16667 0H17.8333C18.3176 0 18.729 0.16604 19.0676 0.498119C19.4064 0.830001 19.5758 1.23327 19.5758 1.70792V4.14356H18.803V1.70792C18.803 1.43069 18.7121 1.20297 18.5303 1.02475C18.3485 0.846535 18.1162 0.757426 17.8333 0.757426H4.16667C3.88384 0.757426 3.65152 0.846535 3.4697 1.02475C3.28788 1.20297 3.19697 1.43069 3.19697 1.70792V14.4802H6.62121V15.6238H0Z" fill="#83B59F"/>
</svg>
