<svg width="20" height="18" viewBox="0 0 20 18" fill="none" xmlns="http://www.w3.org/2000/svg">
<path d="M9.99077 18C9.86695 18 9.73535 17.9733 9.59596 17.92C9.45677 17.8666 9.3391 17.7817 9.24297 17.6653L2.09084 10.4188C1.41331 9.73853 0.895458 8.98196 0.537275 8.14904C0.179092 7.31612 0 6.46428 0 5.59353C0 4.02781 0.476135 2.70412 1.42841 1.62247C2.38087 0.540825 3.54376 0 4.91709 0C5.66691 0 6.39269 0.16249 7.09445 0.48747C7.7962 0.81245 8.42586 1.26597 8.98342 1.84802L9.99279 2.92482L10.9445 1.90622C11.5213 1.29507 12.1653 0.824576 12.8767 0.494745C13.5881 0.164915 14.3091 0 15.0397 0C16.4132 0 17.5833 0.540922 18.55 1.62277C19.5167 2.70461 20 4.01646 20 5.55832C20 6.44129 19.8174 7.30234 19.4521 8.14147C19.0868 8.9806 18.5677 9.73969 17.8947 10.4188L10.7138 17.6653C10.5965 17.7817 10.4777 17.8666 10.3573 17.92C10.237 17.9733 10.1148 18 9.99077 18ZM11.1516 5.18027C11.2154 5.18027 11.2737 5.19483 11.3266 5.22393C11.3795 5.25303 11.4251 5.29184 11.4636 5.34034L13.6415 8.6726H18.3562C18.6638 8.18755 18.8945 7.6799 19.0483 7.14965C19.2021 6.6196 19.2694 6.08925 19.2502 5.55861C19.2406 4.20049 18.8296 3.05578 18.0173 2.12449C17.205 1.19321 16.2145 0.727567 15.0457 0.727567C14.3997 0.727567 13.7734 0.863379 13.1668 1.135C12.5601 1.40663 12.0308 1.79466 11.5789 2.29911L10.4542 3.52142C10.3773 3.61843 10.3028 3.67906 10.2307 3.70331C10.1586 3.72757 10.0793 3.73969 9.99279 3.73969C9.89666 3.73969 9.80755 3.72291 9.72545 3.68935C9.64316 3.65578 9.56885 3.59981 9.50252 3.52142L8.37779 2.29911C7.92598 1.79466 7.39726 1.40905 6.79164 1.14228C6.18601 0.875505 5.56116 0.742118 4.91709 0.742118C3.75391 0.742118 2.76616 1.20766 1.95386 2.13875C1.14155 3.07004 0.7354 4.20999 0.7354 5.55861C0.7354 6.10865 0.812305 6.64385 0.966114 7.1642C1.11992 7.68475 1.34583 8.18755 1.64384 8.6726H6.53208C6.59534 8.6726 6.64956 8.68715 6.69474 8.71625C6.74011 8.74535 6.78202 8.78415 6.82048 8.83266L8.73828 11.7138L10.8147 5.4422C10.8435 5.36459 10.8847 5.30154 10.9381 5.25303C10.9918 5.20453 11.0629 5.18027 11.1516 5.18027ZM11.2473 6.37348L9.18529 12.6451C9.14684 12.7324 9.09618 12.7979 9.03331 12.8416C8.97063 12.8852 8.89469 12.907 8.80548 12.907C8.74146 12.907 8.68782 12.8949 8.64456 12.8707C8.6013 12.8464 8.56458 12.8045 8.53439 12.7449L6.33021 9.41471H2.14852L9.76121 17.126C9.79063 17.1654 9.82456 17.1924 9.86301 17.207C9.90147 17.2215 9.94473 17.2288 9.99279 17.2288C10.0409 17.2288 10.0841 17.2215 10.1226 17.207C10.161 17.1924 10.1998 17.1654 10.2388 17.126L17.8371 9.41471H13.4535C13.3902 9.41471 13.3312 9.39774 13.2764 9.36378C13.2214 9.32983 13.1795 9.28375 13.1507 9.22555L11.2473 6.37348Z" fill="#83B59F"/>
</svg>
