<svg width="10" height="10" viewBox="0 0 10 10" fill="none" xmlns="http://www.w3.org/2000/svg">
<path d="M4.79885 7.5H5.20115V5.20115H7.5V4.79885H5.20115V2.5H4.79885V4.79885H2.5V5.20115H4.79885V7.5ZM5.00244 10C4.31116 10 3.66111 9.86882 3.0523 9.60647C2.44349 9.34411 1.91394 8.98803 1.46365 8.53822C1.01327 8.08841 0.656753 7.55953 0.394109 6.95158C0.13137 6.34353 0 5.69382 0 5.00244C0 4.31116 0.131178 3.66111 0.393534 3.0523C0.655891 2.44349 1.01197 1.91394 1.46178 1.46365C1.91159 1.01327 2.44047 0.656753 3.04842 0.394109C3.65647 0.13137 4.30618 0 4.99756 0C5.68884 0 6.33889 0.131178 6.9477 0.393535C7.55651 0.655891 8.08606 1.01197 8.53635 1.46178C8.98673 1.91159 9.34325 2.44047 9.60589 3.04842C9.86863 3.65647 10 4.30618 10 4.99756C10 5.68884 9.86882 6.33889 9.60647 6.9477C9.34411 7.55651 8.98803 8.08606 8.53822 8.53635C8.08841 8.98673 7.55953 9.34325 6.95158 9.60589C6.34353 9.86863 5.69382 10 5.00244 10ZM5 9.5977C6.28352 9.5977 7.37069 9.1523 8.26149 8.26149C9.1523 7.37069 9.5977 6.28352 9.5977 5C9.5977 3.71648 9.1523 2.62931 8.26149 1.73851C7.37069 0.847701 6.28352 0.402299 5 0.402299C3.71648 0.402299 2.62931 0.847701 1.73851 1.73851C0.847701 2.62931 0.402299 3.71648 0.402299 5C0.402299 6.28352 0.847701 7.37069 1.73851 8.26149C2.62931 9.1523 3.71648 9.5977 5 9.5977Z" fill="#5E8272"/>
</svg>
