<svg width="17" height="20" viewBox="0 0 17 20" fill="none" xmlns="http://www.w3.org/2000/svg">
<path d="M0.88806 19.0924H16.1119V17.6337C16.1119 17.3312 16.0168 17.0827 15.8265 16.8882C15.6362 16.6937 15.393 16.5964 15.097 16.5964H1.90299C1.60697 16.5964 1.36381 16.6937 1.17351 16.8882C0.983209 17.0827 0.88806 17.3312 0.88806 17.6337V19.0924ZM4.0597 15.6888H12.9403L12.0205 9.17342H4.97948L4.0597 15.6888ZM0 20V17.6337C0 17.0989 0.186387 16.6409 0.559161 16.26C0.931723 15.8792 1.37966 15.6888 1.90299 15.6888H3.17164L4.09142 9.17342H1.26866V8.2658H15.7313V9.17342H12.9086L13.8284 15.6888H15.0894C15.6231 15.6888 16.0749 15.8792 16.445 16.26C16.815 16.6409 17 17.0989 17 17.6337V20H0ZM4.0597 8.2658L2.28358 0.0324149C2.85448 0.378174 3.36786 0.621286 3.82373 0.76175C4.27981 0.902215 4.78136 0.972447 5.32836 0.972447C5.98383 0.972447 6.57587 0.886008 7.10448 0.713128C7.63308 0.540249 8.09826 0.302539 8.5 0C8.90174 0.302539 9.36744 0.540249 9.89711 0.713128C10.4266 0.886008 11.0075 0.972447 11.6399 0.972447C12.1262 0.972447 12.5861 0.907617 13.0196 0.777958C13.453 0.648298 14.0292 0.399784 14.7481 0.0324149L12.9403 8.2658H12.0205L13.5112 1.5235C13.194 1.63155 12.8716 1.71799 12.5438 1.78282C12.2161 1.84765 11.8725 1.88006 11.5131 1.88006C10.9766 1.88006 10.4513 1.81523 9.93707 1.68558C9.42305 1.55592 8.94403 1.36143 8.5 1.10211C8.05597 1.36143 7.57356 1.55592 7.05278 1.68558C6.532 1.81523 5.99948 1.88006 5.45522 1.88006C5.11692 1.88006 4.78918 1.85845 4.47201 1.81523C4.15485 1.77202 3.83769 1.69638 3.52052 1.58833L4.97948 8.2658H4.0597Z" fill="#00FF8A"/>
</svg>
