<svg width="20" height="16" viewBox="0 0 20 16" fill="none" xmlns="http://www.w3.org/2000/svg">
<path d="M9.92816 12.1493C10.4358 12.1095 10.8046 11.9204 11.0345 11.5821L16.954 3.22388L8.85057 9.31343C8.50575 9.55224 8.30939 9.92537 8.26149 10.4328C8.2136 10.9403 8.35249 11.3632 8.67816 11.7015C9.00383 12.0398 9.4205 12.1891 9.92816 12.1493ZM10 0C11.0345 0 11.9588 0.124378 12.773 0.373134C13.5872 0.621891 14.4157 1.00498 15.2586 1.52239L14.5402 2.0597C13.8506 1.66169 13.137 1.35821 12.3994 1.14925C11.6619 0.940298 10.8621 0.835821 10 0.835821C7.45211 0.835821 5.28257 1.76617 3.49138 3.62687C1.70019 5.48756 0.804598 7.74129 0.804598 10.3881C0.804598 11.2239 0.914751 12.0498 1.13506 12.8657C1.35536 13.6816 1.66667 14.4478 2.06897 15.1642H17.931C18.3716 14.408 18.6925 13.6219 18.8937 12.806C19.0948 11.99 19.1954 11.1443 19.1954 10.2687C19.1954 9.55224 19.1044 8.78109 18.9224 7.95522C18.7404 7.12935 18.4483 6.36816 18.046 5.67164L18.5632 4.92537C19.1188 5.9403 19.4971 6.8607 19.6983 7.68657C19.8994 8.51244 20 9.37313 20 10.2687C20 11.2637 19.8946 12.1841 19.6839 13.0299C19.4732 13.8756 19.1379 14.7463 18.6782 15.6418C18.6207 15.7413 18.5249 15.8259 18.3908 15.8955C18.2567 15.9652 18.1034 16 17.931 16H2.06897C1.91571 16 1.77682 15.9602 1.6523 15.8806C1.52778 15.801 1.41762 15.6816 1.32184 15.5224C0.977012 14.8856 0.670498 14.1493 0.402299 13.3134C0.1341 12.4776 0 11.5025 0 10.3881C0 8.97512 0.258621 7.63682 0.775862 6.37313C1.2931 5.10945 1.99713 4.00497 2.88793 3.0597C3.77874 2.11443 4.83716 1.36816 6.06322 0.820895C7.28927 0.273632 8.60153 0 10 0Z" fill="#00FF8A"/>
</svg>
