<svg width="20" height="20" viewBox="0 0 20 20" fill="none" xmlns="http://www.w3.org/2000/svg">
<path d="M5.84416 20V19.0909H9.54545V13.961C8.37662 13.7662 7.35931 13.2792 6.49351 12.5C5.62771 11.7208 5.04329 10.7576 4.74026 9.61039C3.44156 9.45887 2.32684 8.93939 1.3961 8.05195C0.465368 7.1645 0 6.08225 0 4.80519V3.50649C0 3.2684 0.0919914 3.05736 0.275974 2.87338C0.459957 2.68939 0.670996 2.5974 0.909091 2.5974H4.61039V0H15.3896V2.5974H19.0909C19.329 2.5974 19.54 2.68939 19.724 2.87338C19.908 3.05736 20 3.2684 20 3.50649V4.80519C20 6.08225 19.5346 7.1645 18.6039 8.05195C17.6732 8.93939 16.5584 9.45887 15.2597 9.61039C14.9567 10.7576 14.3723 11.7208 13.5065 12.5C12.6407 13.2792 11.6234 13.7662 10.4545 13.961V19.0909H14.1558V20H5.84416ZM4.61039 8.63636V3.50649H0.909091V4.80519C0.909091 5.84416 1.26623 6.72619 1.98052 7.4513C2.69481 8.17641 3.57143 8.57143 4.61039 8.63636ZM13.1331 11.7695C13.9881 10.9145 14.4156 9.87013 14.4156 8.63636V0.909091H5.58442V8.63636C5.58442 9.87013 6.0119 10.9145 6.86688 11.7695C7.72186 12.6245 8.76623 13.0519 10 13.0519C11.2338 13.0519 12.2781 12.6245 13.1331 11.7695ZM15.3896 8.63636C16.4286 8.57143 17.3052 8.17641 18.0195 7.4513C18.7338 6.72619 19.0909 5.84416 19.0909 4.80519V3.50649H15.3896V8.63636Z" fill="#00FF8A"/>
</svg>
