<svg width="35" height="35" viewBox="0 0 35 35" fill="none" xmlns="http://www.w3.org/2000/svg">
<path d="M2.67948 15.8926L8.36506 18.3014C9.0939 16.8413 9.89563 15.4268 10.7703 14.0579C11.6449 12.6891 12.6106 11.3658 13.6675 10.0882L10.2234 9.43131C9.9318 9.35832 9.64935 9.36746 9.37601 9.45873C9.10267 9.55 8.85668 9.70514 8.63801 9.92417L2.67948 15.8926ZM9.56781 19.2869L15.7456 25.4738C17.5314 24.6341 19.2989 23.612 21.0482 22.4073C22.7976 21.2027 24.4922 19.779 26.1322 18.1363C28.4281 15.8366 30.1683 13.4182 31.3526 10.8813C32.537 8.34433 33.2566 5.19598 33.5116 1.43624C29.7577 1.69194 26.6234 2.413 24.1088 3.59944C21.5941 4.78588 19.1888 6.52897 16.8928 8.82872C15.2529 10.4714 13.8316 12.1779 12.629 13.9484C11.4264 15.7188 10.406 17.4983 9.56781 19.2869ZM20.5011 11.5115C20.501 10.7084 20.7925 10.0149 21.3756 9.43079C21.9587 8.84673 22.6603 8.55468 23.4803 8.55464C24.3003 8.5546 25.0019 8.84659 25.5851 9.4306C26.1682 10.0146 26.4598 10.7081 26.4599 11.5112C26.4599 12.3142 26.1684 13.0078 25.5853 13.5918C25.0022 14.1759 24.3006 14.468 23.4806 14.468C22.6606 14.468 21.959 14.1761 21.3758 13.592C20.7927 13.008 20.5011 12.3145 20.5011 11.5115ZM19.0807 32.3725L25.0392 26.4041C25.2579 26.1851 25.4127 25.9387 25.5038 25.665C25.5949 25.3912 25.604 25.1083 25.5311 24.8163L24.875 21.3669C23.5994 22.4255 22.2783 23.3928 20.9117 24.269C19.545 25.1451 18.1328 25.9482 16.675 26.6783L19.0807 32.3725ZM34.9875 0.0125897C35.0971 3.91832 34.4868 7.44081 33.1567 10.5801C31.8266 13.7193 29.8313 16.6213 27.1709 19.2861L26.6789 19.7789L26.1869 20.2717L27.0072 24.4877C27.1165 25.0352 27.0983 25.5645 26.9526 26.0755C26.8068 26.5866 26.5335 27.0429 26.1326 27.4444L18.5341 35.0007L15.199 27.1164L7.87312 19.7798L0.000764491 16.3855L7.5446 8.82915C7.94548 8.42761 8.40104 8.1447 8.91126 7.98041C9.42149 7.81613 9.94995 7.78873 10.4966 7.89821L14.8154 8.77406C14.9977 8.59154 15.1526 8.42727 15.2801 8.28126C15.4077 8.13524 15.5625 7.97098 15.7448 7.78846C18.4051 5.12367 21.3025 3.13417 24.4367 1.81994C27.5709 0.505716 31.0879 -0.0967349 34.9875 0.0125897ZM3.60931 26.0766C4.33818 25.3466 5.22196 24.9906 6.26066 25.0088C7.29935 25.027 8.18317 25.4011 8.91211 26.1311C9.64105 26.8611 10.0055 27.7463 10.0056 28.7866C10.0056 29.8269 9.64123 30.7121 8.91236 31.4422C8.21993 32.1358 7.12659 32.729 5.63236 33.2218C4.13812 33.7147 2.55276 34.0159 0.876281 34.1255C0.985539 32.4464 1.29525 30.8585 1.80542 29.3619C2.31558 27.8653 2.91688 26.7702 3.60931 26.0766ZM4.70272 27.2264C4.2654 27.6644 3.86453 28.358 3.50012 29.3071C3.13571 30.2562 2.89886 31.2417 2.78958 32.2638C3.81004 32.1542 4.79405 31.9078 5.74162 31.5245C6.68918 31.1412 7.38162 30.7305 7.81894 30.2924C8.25627 29.8544 8.47491 29.3342 8.47489 28.7319C8.47486 28.1297 8.25616 27.6095 7.8188 27.1715C7.38143 26.7335 6.86208 26.5236 6.26073 26.5419C5.65938 26.5602 5.14005 26.7883 4.70272 27.2264Z" fill="#83B59F"/>
</svg>
