<svg width="36" height="36" viewBox="0 0 36 36" fill="none" xmlns="http://www.w3.org/2000/svg">
<path d="M10.3058 16.4157L9.47359 19.5246C8.95349 21.4677 9.19148 23.3014 10.1876 25.0256C11.1837 26.7499 12.6533 27.872 14.5964 28.3921C16.5394 28.9122 18.3731 28.6742 20.0973 27.6782C21.8216 26.6821 22.9437 25.2125 23.4638 23.2694L24.296 20.1604L10.3058 16.4157ZM14.9604 27.032C13.406 26.6159 12.2255 25.71 11.4192 24.3141C10.6128 22.9183 10.4177 21.4432 10.8338 19.8887L11.3018 18.1399L22.5718 21.1565L22.1037 22.9053C21.6876 24.4598 20.7817 25.6402 19.3858 26.4466C17.99 27.2529 16.5149 27.4481 14.9604 27.032ZM10.2659 7.03467C9.31532 7.47432 8.49401 8.20888 7.802 9.23833L9.02257 9.92944C9.52207 9.23021 10.1018 8.71733 10.7619 8.39078C11.4219 8.06422 12.0801 7.97144 12.7365 8.11242C13.3755 8.31817 13.8994 8.72735 14.308 9.33996C14.7167 9.95257 14.9627 10.6865 15.0462 11.5417L16.4488 11.5528C16.3635 10.3153 16.019 9.26867 15.4151 8.41294C14.8112 7.5572 14.0397 7.00364 13.1006 6.75226C12.1614 6.50087 11.2165 6.59501 10.2659 7.03467ZM23.8676 10.6754C22.917 11.115 22.0956 11.8496 21.4036 12.879L22.6242 13.5701C23.1324 12.8385 23.7084 12.3073 24.3522 11.9764C24.9961 11.6455 25.6581 11.5711 26.3381 11.7531C27.0182 11.9352 27.5545 12.3303 27.947 12.9386C28.3394 13.5469 28.573 14.2948 28.6478 15.1825L30.0504 15.1935C29.9652 13.956 29.6206 12.9094 29.0168 12.0536C28.4129 11.1979 27.6414 10.6443 26.7022 10.393C25.763 10.1416 24.8182 10.2357 23.8676 10.6754ZM6.75939 31.318C4.94133 29.877 3.47496 28.1917 2.36029 26.2622C1.24561 24.3327 0.518201 22.2206 0.178058 19.9257C-0.162085 17.6309 -0.0200957 15.3177 0.604025 12.9859C1.22815 10.6542 2.26072 8.57935 3.70174 6.7613C5.14277 4.94324 6.82803 3.47687 8.75753 2.3622C10.687 1.24752 12.7992 0.520111 15.094 0.179968C17.3888 -0.160175 19.7021 -0.0181861 22.0338 0.605936C24.3655 1.23006 26.4404 2.26263 28.2585 3.70365C30.0765 5.14468 31.5429 6.82994 32.6576 8.75944C33.7722 10.6889 34.4996 12.8011 34.8398 15.0959C35.1799 17.3907 35.0379 19.704 34.4138 22.0357C33.7897 24.3674 32.7571 26.4423 31.3161 28.2604C29.8751 30.0784 28.1898 31.5448 26.2603 32.6595C24.3308 33.7741 22.2186 34.5015 19.9238 34.8417C17.629 35.1818 15.3157 35.0398 12.984 34.4157C10.6523 33.7916 8.57744 32.759 6.75939 31.318ZM25.5844 31.4894C29.4023 29.2838 31.8921 26.0112 33.0537 21.6716C34.2152 17.3321 33.6932 13.2533 31.4875 9.43536C29.2819 5.61741 26.0093 3.12766 21.6697 1.9661C17.3302 0.80454 13.2514 1.32658 9.43345 3.53221C5.6155 5.73785 3.12575 9.01045 1.96419 13.35C0.80263 17.6896 1.32467 21.7684 3.5303 25.5863C5.73594 29.4042 9.00854 31.894 13.3481 33.0556C17.6877 34.2171 21.7664 33.6951 25.5844 31.4894Z" fill="#83B59F"/>
</svg>
