<svg width="1410" height="633" viewBox="0 0 1410 633" fill="none" xmlns="http://www.w3.org/2000/svg">
<g clip-path="url(#clip0_107_5812)">
<mask id="mask0_107_5812" style="mask-type:alpha" maskUnits="userSpaceOnUse" x="-218" y="222" width="709" height="693">
<ellipse cx="355.391" cy="344.863" rx="355.391" ry="344.863" transform="matrix(-0.934926 0.354843 0.354843 0.934926 346.527 120)" fill="white"/>
</mask>
<g mask="url(#mask0_107_5812)">
<circle cx="2" cy="2" r="2" transform="matrix(-1 0 0 1 478 234)" fill="white" fill-opacity="0.3" style="mix-blend-mode:overlay"/>
<circle cx="2" cy="2" r="2" transform="matrix(-1 0 0 1 478 258)" fill="white" fill-opacity="0.3" style="mix-blend-mode:overlay"/>
<circle cx="2" cy="2" r="2" transform="matrix(-1 0 0 1 478 282)" fill="white" fill-opacity="0.3" style="mix-blend-mode:overlay"/>
<circle cx="2" cy="2" r="2" transform="matrix(-1 0 0 1 478 306)" fill="white" fill-opacity="0.3" style="mix-blend-mode:overlay"/>
<circle cx="2" cy="2" r="2" transform="matrix(-1 0 0 1 478 330)" fill="white" fill-opacity="0.3" style="mix-blend-mode:overlay"/>
<circle cx="2" cy="2" r="2" transform="matrix(-1 0 0 1 478 354)" fill="white" fill-opacity="0.3" style="mix-blend-mode:overlay"/>
<circle cx="2" cy="2" r="2" transform="matrix(-1 0 0 1 478 378)" fill="white" fill-opacity="0.3" style="mix-blend-mode:overlay"/>
<circle cx="2" cy="2" r="2" transform="matrix(-1 0 0 1 478 402)" fill="white" fill-opacity="0.3" style="mix-blend-mode:overlay"/>
<circle cx="2" cy="2" r="2" transform="matrix(-1 0 0 1 478 426)" fill="white" fill-opacity="0.7" style="mix-blend-mode:overlay"/>
<circle cx="2" cy="2" r="2" transform="matrix(-1 0 0 1 478 450)" fill="white" fill-opacity="0.7" style="mix-blend-mode:overlay"/>
<circle cx="2" cy="2" r="2" transform="matrix(-1 0 0 1 478 474)" fill="white" fill-opacity="0.3" style="mix-blend-mode:overlay"/>
<circle cx="2" cy="2" r="2" transform="matrix(-1 0 0 1 478 498)" fill="white" fill-opacity="0.3" style="mix-blend-mode:overlay"/>
<circle cx="2" cy="2" r="2" transform="matrix(-1 0 0 1 478 522)" fill="white" fill-opacity="0.3" style="mix-blend-mode:overlay"/>
<circle cx="2" cy="2" r="2" transform="matrix(-1 0 0 1 478 546)" fill="white" fill-opacity="0.3" style="mix-blend-mode:overlay"/>
<circle cx="2" cy="2" r="2" transform="matrix(-1 0 0 1 478 570)" fill="white" fill-opacity="0.3" style="mix-blend-mode:overlay"/>
<circle cx="2" cy="2" r="2" transform="matrix(-1 0 0 1 478 594)" fill="white" fill-opacity="0.7" style="mix-blend-mode:overlay"/>
<circle cx="2" cy="2" r="2" transform="matrix(-1 0 0 1 478 618)" fill="white" fill-opacity="0.3" style="mix-blend-mode:overlay"/>
<circle cx="2" cy="2" r="2" transform="matrix(-1 0 0 1 454 234)" fill="white" fill-opacity="0.3" style="mix-blend-mode:overlay"/>
<circle cx="2" cy="2" r="2" transform="matrix(-1 0 0 1 454 258)" fill="white" fill-opacity="0.3" style="mix-blend-mode:overlay"/>
<circle cx="2" cy="2" r="2" transform="matrix(-1 0 0 1 454 282)" fill="white" fill-opacity="0.3" style="mix-blend-mode:overlay"/>
<circle cx="2" cy="2" r="2" transform="matrix(-1 0 0 1 454 306)" fill="white" fill-opacity="0.3" style="mix-blend-mode:overlay"/>
<circle cx="2" cy="2" r="2" transform="matrix(-1 0 0 1 454 330)" fill="white" fill-opacity="0.3" style="mix-blend-mode:overlay"/>
<circle cx="2" cy="2" r="2" transform="matrix(-1 0 0 1 454 354)" fill="white" fill-opacity="0.3" style="mix-blend-mode:overlay"/>
<circle cx="2" cy="2" r="2" transform="matrix(-1 0 0 1 454 378)" fill="white" fill-opacity="0.3" style="mix-blend-mode:overlay"/>
<circle cx="2" cy="2" r="2" transform="matrix(-1 0 0 1 454 402)" fill="white" fill-opacity="0.3" style="mix-blend-mode:overlay"/>
<circle cx="2" cy="2" r="2" transform="matrix(-1 0 0 1 454 426)" fill="white" fill-opacity="0.3" style="mix-blend-mode:overlay"/>
<circle cx="2" cy="2" r="2" transform="matrix(-1 0 0 1 454 450)" fill="white" fill-opacity="0.3" style="mix-blend-mode:overlay"/>
<circle cx="2" cy="2" r="2" transform="matrix(-1 0 0 1 454 474)" fill="white" fill-opacity="0.7" style="mix-blend-mode:overlay"/>
<circle cx="2" cy="2" r="2" transform="matrix(-1 0 0 1 454 498)" fill="white" fill-opacity="0.3" style="mix-blend-mode:overlay"/>
<circle cx="2" cy="2" r="2" transform="matrix(-1 0 0 1 454 522)" fill="white" fill-opacity="0.3" style="mix-blend-mode:overlay"/>
<circle cx="2" cy="2" r="2" transform="matrix(-1 0 0 1 454 546)" fill="white" fill-opacity="0.3" style="mix-blend-mode:overlay"/>
<circle cx="2" cy="2" r="2" transform="matrix(-1 0 0 1 454 570)" fill="white" fill-opacity="0.3" style="mix-blend-mode:overlay"/>
<circle cx="2" cy="2" r="2" transform="matrix(-1 0 0 1 454 594)" fill="white" fill-opacity="0.3" style="mix-blend-mode:overlay"/>
<circle cx="2" cy="2" r="2" transform="matrix(-1 0 0 1 454 618)" fill="white" fill-opacity="0.3" style="mix-blend-mode:overlay"/>
<circle cx="2" cy="2" r="2" transform="matrix(-1 0 0 1 430 234)" fill="white" fill-opacity="0.3" style="mix-blend-mode:overlay"/>
<circle cx="2" cy="2" r="2" transform="matrix(-1 0 0 1 430 258)" fill="white" fill-opacity="0.3" style="mix-blend-mode:overlay"/>
<circle cx="2" cy="2" r="2" transform="matrix(-1 0 0 1 430 282)" fill="white" fill-opacity="0.3" style="mix-blend-mode:overlay"/>
<circle cx="2" cy="2" r="2" transform="matrix(-1 0 0 1 430 306)" fill="white" fill-opacity="0.3" style="mix-blend-mode:overlay"/>
<circle cx="2" cy="2" r="2" transform="matrix(-1 0 0 1 430 330)" fill="white" fill-opacity="0.7" style="mix-blend-mode:overlay"/>
<circle cx="2" cy="2" r="2" transform="matrix(-1 0 0 1 430 354)" fill="white" fill-opacity="0.7" style="mix-blend-mode:overlay"/>
<circle cx="2" cy="2" r="2" transform="matrix(-1 0 0 1 430 378)" fill="white" fill-opacity="0.7" style="mix-blend-mode:overlay"/>
<circle cx="2" cy="2" r="2" transform="matrix(-1 0 0 1 430 402)" fill="white" fill-opacity="0.3" style="mix-blend-mode:overlay"/>
<circle cx="2" cy="2" r="2" transform="matrix(-1 0 0 1 430 426)" fill="white" fill-opacity="0.3" style="mix-blend-mode:overlay"/>
<circle cx="2" cy="2" r="2" transform="matrix(-1 0 0 1 430 450)" fill="white" fill-opacity="0.3" style="mix-blend-mode:overlay"/>
<circle cx="2" cy="2" r="2" transform="matrix(-1 0 0 1 430 474)" fill="white" fill-opacity="0.7" style="mix-blend-mode:overlay"/>
<circle cx="2" cy="2" r="2" transform="matrix(-1 0 0 1 430 498)" fill="white" fill-opacity="0.7" style="mix-blend-mode:overlay"/>
<circle cx="2" cy="2" r="2" transform="matrix(-1 0 0 1 430 522)" fill="white" fill-opacity="0.3" style="mix-blend-mode:overlay"/>
<circle cx="2" cy="2" r="2" transform="matrix(-1 0 0 1 430 546)" fill="white" fill-opacity="0.3" style="mix-blend-mode:overlay"/>
<circle cx="2" cy="2" r="2" transform="matrix(-1 0 0 1 430 570)" fill="white" fill-opacity="0.3" style="mix-blend-mode:overlay"/>
<circle cx="2" cy="2" r="2" transform="matrix(-1 0 0 1 430 594)" fill="white" fill-opacity="0.7" style="mix-blend-mode:overlay"/>
<circle cx="2" cy="2" r="2" transform="matrix(-1 0 0 1 430 618)" fill="white" fill-opacity="0.3" style="mix-blend-mode:overlay"/>
<circle cx="2" cy="2" r="2" transform="matrix(-1 0 0 1 406 234)" fill="white" fill-opacity="0.7" style="mix-blend-mode:overlay"/>
<circle cx="2" cy="2" r="2" transform="matrix(-1 0 0 1 406 258)" fill="white" fill-opacity="0.3" style="mix-blend-mode:overlay"/>
<circle cx="2" cy="2" r="2" transform="matrix(-1 0 0 1 406 282)" fill="white" fill-opacity="0.3" style="mix-blend-mode:overlay"/>
<circle cx="2" cy="2" r="2" transform="matrix(-1 0 0 1 406 306)" fill="white" fill-opacity="0.7" style="mix-blend-mode:overlay"/>
<circle cx="2" cy="2" r="2" transform="matrix(-1 0 0 1 406 330)" fill="white" fill-opacity="0.3" style="mix-blend-mode:overlay"/>
<circle cx="2" cy="2" r="2" transform="matrix(-1 0 0 1 406 354)" fill="white" fill-opacity="0.3" style="mix-blend-mode:overlay"/>
<circle cx="2" cy="2" r="2" transform="matrix(-1 0 0 1 406 378)" fill="white" fill-opacity="0.7" style="mix-blend-mode:overlay"/>
<circle cx="2" cy="2" r="2" transform="matrix(-1 0 0 1 406 402)" fill="white" fill-opacity="0.3" style="mix-blend-mode:overlay"/>
<circle cx="2" cy="2" r="2" transform="matrix(-1 0 0 1 406 426)" fill="white" fill-opacity="0.3" style="mix-blend-mode:overlay"/>
<circle cx="2" cy="2" r="2" transform="matrix(-1 0 0 1 406 450)" fill="white" fill-opacity="0.3" style="mix-blend-mode:overlay"/>
<circle cx="2" cy="2" r="2" transform="matrix(-1 0 0 1 406 474)" fill="white" fill-opacity="0.3" style="mix-blend-mode:overlay"/>
<circle cx="2" cy="2" r="2" transform="matrix(-1 0 0 1 406 498)" fill="white" fill-opacity="0.3" style="mix-blend-mode:overlay"/>
<circle cx="2" cy="2" r="2" transform="matrix(-1 0 0 1 406 522)" fill="white" fill-opacity="0.3" style="mix-blend-mode:overlay"/>
<circle cx="2" cy="2" r="2" transform="matrix(-1 0 0 1 406 546)" fill="white" fill-opacity="0.3" style="mix-blend-mode:overlay"/>
<circle cx="2" cy="2" r="2" transform="matrix(-1 0 0 1 406 570)" fill="white" fill-opacity="0.3" style="mix-blend-mode:overlay"/>
<circle cx="2" cy="2" r="2" transform="matrix(-1 0 0 1 406 594)" fill="white" fill-opacity="0.3" style="mix-blend-mode:overlay"/>
<circle cx="2" cy="2" r="2" transform="matrix(-1 0 0 1 406 618)" fill="white" fill-opacity="0.3" style="mix-blend-mode:overlay"/>
<circle cx="2" cy="2" r="2" transform="matrix(-1 0 0 1 382 234)" fill="white" fill-opacity="0.7" style="mix-blend-mode:overlay"/>
<circle cx="2" cy="2" r="2" transform="matrix(-1 0 0 1 382 258)" fill="white" fill-opacity="0.3" style="mix-blend-mode:overlay"/>
<circle cx="2" cy="2" r="2" transform="matrix(-1 0 0 1 382 282)" fill="white" fill-opacity="0.3" style="mix-blend-mode:overlay"/>
<circle cx="2" cy="2" r="2" transform="matrix(-1 0 0 1 382 306)" fill="white" fill-opacity="0.3" style="mix-blend-mode:overlay"/>
<circle cx="2" cy="2" r="2" transform="matrix(-1 0 0 1 382 330)" fill="white" fill-opacity="0.7" style="mix-blend-mode:overlay"/>
<circle cx="2" cy="2" r="2" transform="matrix(-1 0 0 1 382 354)" fill="white" fill-opacity="0.7" style="mix-blend-mode:overlay"/>
<circle cx="2" cy="2" r="2" transform="matrix(-1 0 0 1 382 378)" fill="white" fill-opacity="0.3" style="mix-blend-mode:overlay"/>
<circle cx="2" cy="2" r="2" transform="matrix(-1 0 0 1 382 402)" fill="white" fill-opacity="0.3" style="mix-blend-mode:overlay"/>
<circle cx="2" cy="2" r="2" transform="matrix(-1 0 0 1 382 426)" fill="white" fill-opacity="0.3" style="mix-blend-mode:overlay"/>
<circle cx="2" cy="2" r="2" transform="matrix(-1 0 0 1 382 450)" fill="white" fill-opacity="0.7" style="mix-blend-mode:overlay"/>
<circle cx="2" cy="2" r="2" transform="matrix(-1 0 0 1 382 474)" fill="white" fill-opacity="0.3" style="mix-blend-mode:overlay"/>
<circle cx="2" cy="2" r="2" transform="matrix(-1 0 0 1 382 498)" fill="white" fill-opacity="0.3" style="mix-blend-mode:overlay"/>
<circle cx="2" cy="2" r="2" transform="matrix(-1 0 0 1 382 522)" fill="white" fill-opacity="0.3" style="mix-blend-mode:overlay"/>
<circle cx="2" cy="2" r="2" transform="matrix(-1 0 0 1 382 546)" fill="white" fill-opacity="0.3" style="mix-blend-mode:overlay"/>
<circle cx="2" cy="2" r="2" transform="matrix(-1 0 0 1 382 570)" fill="white" fill-opacity="0.3" style="mix-blend-mode:overlay"/>
<circle cx="2" cy="2" r="2" transform="matrix(-1 0 0 1 382 594)" fill="white" fill-opacity="0.3" style="mix-blend-mode:overlay"/>
<circle cx="2" cy="2" r="2" transform="matrix(-1 0 0 1 382 618)" fill="white" fill-opacity="0.3" style="mix-blend-mode:overlay"/>
<circle cx="2" cy="2" r="2" transform="matrix(-1 0 0 1 358 234)" fill="white" fill-opacity="0.3" style="mix-blend-mode:overlay"/>
<circle cx="2" cy="2" r="2" transform="matrix(-1 0 0 1 358 258)" fill="white" fill-opacity="0.3" style="mix-blend-mode:overlay"/>
<circle cx="2" cy="2" r="2" transform="matrix(-1 0 0 1 358 282)" fill="white" fill-opacity="0.3" style="mix-blend-mode:overlay"/>
<circle cx="2" cy="2" r="2" transform="matrix(-1 0 0 1 358 306)" fill="white" fill-opacity="0.7" style="mix-blend-mode:overlay"/>
<circle cx="2" cy="2" r="2" transform="matrix(-1 0 0 1 358 330)" fill="white" fill-opacity="0.7" style="mix-blend-mode:overlay"/>
<circle cx="2" cy="2" r="2" transform="matrix(-1 0 0 1 358 354)" fill="white" fill-opacity="0.7" style="mix-blend-mode:overlay"/>
<circle cx="2" cy="2" r="2" transform="matrix(-1 0 0 1 358 378)" fill="white" fill-opacity="0.3" style="mix-blend-mode:overlay"/>
<circle cx="2" cy="2" r="2" transform="matrix(-1 0 0 1 358 402)" fill="white" fill-opacity="0.3" style="mix-blend-mode:overlay"/>
<circle cx="2" cy="2" r="2" transform="matrix(-1 0 0 1 358 426)" fill="white" fill-opacity="0.3" style="mix-blend-mode:overlay"/>
<circle cx="2" cy="2" r="2" transform="matrix(-1 0 0 1 358 450)" fill="white" fill-opacity="0.3" style="mix-blend-mode:overlay"/>
<circle cx="2" cy="2" r="2" transform="matrix(-1 0 0 1 358 474)" fill="white" fill-opacity="0.3" style="mix-blend-mode:overlay"/>
<circle cx="2" cy="2" r="2" transform="matrix(-1 0 0 1 358 498)" fill="white" fill-opacity="0.3" style="mix-blend-mode:overlay"/>
<circle cx="2" cy="2" r="2" transform="matrix(-1 0 0 1 358 522)" fill="white" fill-opacity="0.3" style="mix-blend-mode:overlay"/>
<circle cx="2" cy="2" r="2" transform="matrix(-1 0 0 1 358 546)" fill="white" fill-opacity="0.7" style="mix-blend-mode:overlay"/>
<circle cx="2" cy="2" r="2" transform="matrix(-1 0 0 1 358 570)" fill="white" fill-opacity="0.3" style="mix-blend-mode:overlay"/>
<circle cx="2" cy="2" r="2" transform="matrix(-1 0 0 1 358 594)" fill="white" fill-opacity="0.7" style="mix-blend-mode:overlay"/>
<circle cx="2" cy="2" r="2" transform="matrix(-1 0 0 1 358 618)" fill="white" fill-opacity="0.3" style="mix-blend-mode:overlay"/>
<circle cx="2" cy="2" r="2" transform="matrix(-1 0 0 1 334 234)" fill="white" fill-opacity="0.3" style="mix-blend-mode:overlay"/>
<circle cx="2" cy="2" r="2" transform="matrix(-1 0 0 1 334 258)" fill="white" fill-opacity="0.3" style="mix-blend-mode:overlay"/>
<circle cx="2" cy="2" r="2" transform="matrix(-1 0 0 1 334 282)" fill="white" fill-opacity="0.3" style="mix-blend-mode:overlay"/>
<circle cx="2" cy="2" r="2" transform="matrix(-1 0 0 1 334 306)" fill="white" fill-opacity="0.3" style="mix-blend-mode:overlay"/>
<circle cx="2" cy="2" r="2" transform="matrix(-1 0 0 1 334 330)" fill="white" fill-opacity="0.7" style="mix-blend-mode:overlay"/>
<circle cx="2" cy="2" r="2" transform="matrix(-1 0 0 1 334 354)" fill="white" fill-opacity="0.3" style="mix-blend-mode:overlay"/>
<circle cx="2" cy="2" r="2" transform="matrix(-1 0 0 1 334 378)" fill="white" fill-opacity="0.3" style="mix-blend-mode:overlay"/>
<circle cx="2" cy="2" r="2" transform="matrix(-1 0 0 1 334 402)" fill="white" fill-opacity="0.7" style="mix-blend-mode:overlay"/>
<circle cx="2" cy="2" r="2" transform="matrix(-1 0 0 1 334 426)" fill="white" fill-opacity="0.7" style="mix-blend-mode:overlay"/>
<circle cx="2" cy="2" r="2" transform="matrix(-1 0 0 1 334 450)" fill="white" fill-opacity="0.3" style="mix-blend-mode:overlay"/>
<circle cx="2" cy="2" r="2" transform="matrix(-1 0 0 1 334 474)" fill="white" fill-opacity="0.3" style="mix-blend-mode:overlay"/>
<circle cx="2" cy="2" r="2" transform="matrix(-1 0 0 1 334 498)" fill="white" fill-opacity="0.3" style="mix-blend-mode:overlay"/>
<circle cx="2" cy="2" r="2" transform="matrix(-1 0 0 1 334 522)" fill="white" fill-opacity="0.7" style="mix-blend-mode:overlay"/>
<circle cx="2" cy="2" r="2" transform="matrix(-1 0 0 1 334 546)" fill="white" fill-opacity="0.3" style="mix-blend-mode:overlay"/>
<circle cx="2" cy="2" r="2" transform="matrix(-1 0 0 1 334 570)" fill="white" fill-opacity="0.3" style="mix-blend-mode:overlay"/>
<circle cx="2" cy="2" r="2" transform="matrix(-1 0 0 1 334 594)" fill="white" fill-opacity="0.3" style="mix-blend-mode:overlay"/>
<circle cx="2" cy="2" r="2" transform="matrix(-1 0 0 1 334 618)" fill="white" fill-opacity="0.7" style="mix-blend-mode:overlay"/>
<circle cx="2" cy="2" r="2" transform="matrix(-1 0 0 1 310 234)" fill="white" fill-opacity="0.3" style="mix-blend-mode:overlay"/>
<circle cx="2" cy="2" r="2" transform="matrix(-1 0 0 1 310 258)" fill="white" fill-opacity="0.3" style="mix-blend-mode:overlay"/>
<circle cx="2" cy="2" r="2" transform="matrix(-1 0 0 1 310 282)" fill="white" fill-opacity="0.3" style="mix-blend-mode:overlay"/>
<circle cx="2" cy="2" r="2" transform="matrix(-1 0 0 1 310 306)" fill="white" fill-opacity="0.7" style="mix-blend-mode:overlay"/>
<circle cx="2" cy="2" r="2" transform="matrix(-1 0 0 1 310 330)" fill="white" fill-opacity="0.3" style="mix-blend-mode:overlay"/>
<circle cx="2" cy="2" r="2" transform="matrix(-1 0 0 1 310 354)" fill="white" fill-opacity="0.3" style="mix-blend-mode:overlay"/>
<circle cx="2" cy="2" r="2" transform="matrix(-1 0 0 1 310 378)" fill="white" fill-opacity="0.7" style="mix-blend-mode:overlay"/>
<circle cx="2" cy="2" r="2" transform="matrix(-1 0 0 1 310 402)" fill="white" fill-opacity="0.3" style="mix-blend-mode:overlay"/>
<circle cx="2" cy="2" r="2" transform="matrix(-1 0 0 1 310 426)" fill="white" fill-opacity="0.3" style="mix-blend-mode:overlay"/>
<circle cx="2" cy="2" r="2" transform="matrix(-1 0 0 1 310 450)" fill="white" fill-opacity="0.3" style="mix-blend-mode:overlay"/>
<circle cx="2" cy="2" r="2" transform="matrix(-1 0 0 1 310 474)" fill="white" fill-opacity="0.3" style="mix-blend-mode:overlay"/>
<circle cx="2" cy="2" r="2" transform="matrix(-1 0 0 1 310 498)" fill="white" fill-opacity="0.7" style="mix-blend-mode:overlay"/>
<circle cx="2" cy="2" r="2" transform="matrix(-1 0 0 1 310 522)" fill="white" fill-opacity="0.3" style="mix-blend-mode:overlay"/>
<circle cx="2" cy="2" r="2" transform="matrix(-1 0 0 1 310 546)" fill="white" fill-opacity="0.3" style="mix-blend-mode:overlay"/>
<circle cx="2" cy="2" r="2" transform="matrix(-1 0 0 1 310 570)" fill="white" fill-opacity="0.3" style="mix-blend-mode:overlay"/>
<circle cx="2" cy="2" r="2" transform="matrix(-1 0 0 1 310 594)" fill="white" fill-opacity="0.3" style="mix-blend-mode:overlay"/>
<circle cx="2" cy="2" r="2" transform="matrix(-1 0 0 1 310 618)" fill="white" fill-opacity="0.3" style="mix-blend-mode:overlay"/>
<circle cx="2" cy="2" r="2" transform="matrix(-1 0 0 1 286 234)" fill="white" fill-opacity="0.3" style="mix-blend-mode:overlay"/>
<circle cx="2" cy="2" r="2" transform="matrix(-1 0 0 1 286 258)" fill="white" fill-opacity="0.7" style="mix-blend-mode:overlay"/>
<circle cx="2" cy="2" r="2" transform="matrix(-1 0 0 1 286 282)" fill="white" fill-opacity="0.3" style="mix-blend-mode:overlay"/>
<circle cx="2" cy="2" r="2" transform="matrix(-1 0 0 1 286 306)" fill="white" fill-opacity="0.7" style="mix-blend-mode:overlay"/>
<circle cx="2" cy="2" r="2" transform="matrix(-1 0 0 1 286 330)" fill="white" fill-opacity="0.3" style="mix-blend-mode:overlay"/>
<circle cx="2" cy="2" r="2" transform="matrix(-1 0 0 1 286 354)" fill="white" fill-opacity="0.7" style="mix-blend-mode:overlay"/>
<circle cx="2" cy="2" r="2" transform="matrix(-1 0 0 1 286 378)" fill="white" fill-opacity="0.3" style="mix-blend-mode:overlay"/>
<circle cx="2" cy="2" r="2" transform="matrix(-1 0 0 1 286 402)" fill="white" fill-opacity="0.3" style="mix-blend-mode:overlay"/>
<circle cx="2" cy="2" r="2" transform="matrix(-1 0 0 1 286 426)" fill="white" fill-opacity="0.3" style="mix-blend-mode:overlay"/>
<circle cx="2" cy="2" r="2" transform="matrix(-1 0 0 1 286 450)" fill="white" fill-opacity="0.3" style="mix-blend-mode:overlay"/>
<circle cx="2" cy="2" r="2" transform="matrix(-1 0 0 1 286 474)" fill="white" fill-opacity="0.7" style="mix-blend-mode:overlay"/>
<circle cx="2" cy="2" r="2" transform="matrix(-1 0 0 1 286 498)" fill="white" fill-opacity="0.3" style="mix-blend-mode:overlay"/>
<circle cx="2" cy="2" r="2" transform="matrix(-1 0 0 1 286 522)" fill="white" fill-opacity="0.3" style="mix-blend-mode:overlay"/>
<circle cx="2" cy="2" r="2" transform="matrix(-1 0 0 1 286 546)" fill="white" fill-opacity="0.7" style="mix-blend-mode:overlay"/>
<circle cx="2" cy="2" r="2" transform="matrix(-1 0 0 1 286 570)" fill="white" fill-opacity="0.3" style="mix-blend-mode:overlay"/>
<circle cx="2" cy="2" r="2" transform="matrix(-1 0 0 1 286 594)" fill="white" fill-opacity="0.3" style="mix-blend-mode:overlay"/>
<circle cx="2" cy="2" r="2" transform="matrix(-1 0 0 1 286 618)" fill="white" fill-opacity="0.3" style="mix-blend-mode:overlay"/>
<circle cx="2" cy="2" r="2" transform="matrix(-1 0 0 1 262 234)" fill="white" fill-opacity="0.7" style="mix-blend-mode:overlay"/>
<circle cx="2" cy="2" r="2" transform="matrix(-1 0 0 1 262 258)" fill="white" fill-opacity="0.7" style="mix-blend-mode:overlay"/>
<circle cx="2" cy="2" r="2" transform="matrix(-1 0 0 1 262 282)" fill="white" fill-opacity="0.3" style="mix-blend-mode:overlay"/>
<circle cx="2" cy="2" r="2" transform="matrix(-1 0 0 1 262 306)" fill="white" fill-opacity="0.3" style="mix-blend-mode:overlay"/>
<circle cx="2" cy="2" r="2" transform="matrix(-1 0 0 1 262 330)" fill="white" fill-opacity="0.7" style="mix-blend-mode:overlay"/>
<circle cx="2" cy="2" r="2" transform="matrix(-1 0 0 1 262 354)" fill="white" fill-opacity="0.3" style="mix-blend-mode:overlay"/>
<circle cx="2" cy="2" r="2" transform="matrix(-1 0 0 1 262 378)" fill="white" fill-opacity="0.3" style="mix-blend-mode:overlay"/>
<circle cx="2" cy="2" r="2" transform="matrix(-1 0 0 1 262 402)" fill="white" fill-opacity="0.7" style="mix-blend-mode:overlay"/>
<circle cx="2" cy="2" r="2" transform="matrix(-1 0 0 1 262 426)" fill="white" fill-opacity="0.7" style="mix-blend-mode:overlay"/>
<circle cx="2" cy="2" r="2" transform="matrix(-1 0 0 1 262 450)" fill="white" fill-opacity="0.7" style="mix-blend-mode:overlay"/>
<circle cx="2" cy="2" r="2" transform="matrix(-1 0 0 1 262 474)" fill="white" fill-opacity="0.7" style="mix-blend-mode:overlay"/>
<circle cx="2" cy="2" r="2" transform="matrix(-1 0 0 1 262 498)" fill="white" fill-opacity="0.3" style="mix-blend-mode:overlay"/>
<circle cx="2" cy="2" r="2" transform="matrix(-1 0 0 1 262 522)" fill="white" fill-opacity="0.3" style="mix-blend-mode:overlay"/>
<circle cx="2" cy="2" r="2" transform="matrix(-1 0 0 1 262 546)" fill="white" fill-opacity="0.3" style="mix-blend-mode:overlay"/>
<circle cx="2" cy="2" r="2" transform="matrix(-1 0 0 1 262 570)" fill="white" fill-opacity="0.7" style="mix-blend-mode:overlay"/>
<circle cx="2" cy="2" r="2" transform="matrix(-1 0 0 1 262 594)" fill="white" fill-opacity="0.3" style="mix-blend-mode:overlay"/>
<circle cx="2" cy="2" r="2" transform="matrix(-1 0 0 1 262 618)" fill="white" fill-opacity="0.3" style="mix-blend-mode:overlay"/>
<circle cx="2" cy="2" r="2" transform="matrix(-1 0 0 1 238 234)" fill="white" fill-opacity="0.3" style="mix-blend-mode:overlay"/>
<circle cx="2" cy="2" r="2" transform="matrix(-1 0 0 1 238 258)" fill="white" fill-opacity="0.3" style="mix-blend-mode:overlay"/>
<circle cx="2" cy="2" r="2" transform="matrix(-1 0 0 1 238 282)" fill="white" fill-opacity="0.3" style="mix-blend-mode:overlay"/>
<circle cx="2" cy="2" r="2" transform="matrix(-1 0 0 1 238 306)" fill="white" fill-opacity="0.7" style="mix-blend-mode:overlay"/>
<circle cx="2" cy="2" r="2" transform="matrix(-1 0 0 1 238 330)" fill="white" fill-opacity="0.3" style="mix-blend-mode:overlay"/>
<circle cx="2" cy="2" r="2" transform="matrix(-1 0 0 1 238 354)" fill="white" fill-opacity="0.3" style="mix-blend-mode:overlay"/>
<circle cx="2" cy="2" r="2" transform="matrix(-1 0 0 1 238 378)" fill="white" fill-opacity="0.7" style="mix-blend-mode:overlay"/>
<circle cx="2" cy="2" r="2" transform="matrix(-1 0 0 1 238 402)" fill="white" fill-opacity="0.3" style="mix-blend-mode:overlay"/>
<circle cx="2" cy="2" r="2" transform="matrix(-1 0 0 1 238 426)" fill="white" fill-opacity="0.7" style="mix-blend-mode:overlay"/>
<circle cx="2" cy="2" r="2" transform="matrix(-1 0 0 1 238 450)" fill="white" fill-opacity="0.7" style="mix-blend-mode:overlay"/>
<circle cx="2" cy="2" r="2" transform="matrix(-1 0 0 1 238 474)" fill="white" fill-opacity="0.3" style="mix-blend-mode:overlay"/>
<circle cx="2" cy="2" r="2" transform="matrix(-1 0 0 1 238 498)" fill="white" fill-opacity="0.3" style="mix-blend-mode:overlay"/>
<circle cx="2" cy="2" r="2" transform="matrix(-1 0 0 1 238 522)" fill="white" fill-opacity="0.7" style="mix-blend-mode:overlay"/>
<circle cx="2" cy="2" r="2" transform="matrix(-1 0 0 1 238 546)" fill="white" fill-opacity="0.3" style="mix-blend-mode:overlay"/>
<circle cx="2" cy="2" r="2" transform="matrix(-1 0 0 1 238 570)" fill="white" fill-opacity="0.3" style="mix-blend-mode:overlay"/>
<circle cx="2" cy="2" r="2" transform="matrix(-1 0 0 1 238 594)" fill="white" fill-opacity="0.3" style="mix-blend-mode:overlay"/>
<circle cx="2" cy="2" r="2" transform="matrix(-1 0 0 1 238 618)" fill="white" fill-opacity="0.7" style="mix-blend-mode:overlay"/>
<circle cx="2" cy="2" r="2" transform="matrix(-1 0 0 1 214 234)" fill="white" fill-opacity="0.3" style="mix-blend-mode:overlay"/>
<circle cx="2" cy="2" r="2" transform="matrix(-1 0 0 1 214 258)" fill="white" fill-opacity="0.3" style="mix-blend-mode:overlay"/>
<circle cx="2" cy="2" r="2" transform="matrix(-1 0 0 1 214 282)" fill="white" fill-opacity="0.7" style="mix-blend-mode:overlay"/>
<circle cx="2" cy="2" r="2" transform="matrix(-1 0 0 1 214 306)" fill="white" fill-opacity="0.3" style="mix-blend-mode:overlay"/>
<circle cx="2" cy="2" r="2" transform="matrix(-1 0 0 1 214 330)" fill="white" fill-opacity="0.3" style="mix-blend-mode:overlay"/>
<circle cx="2" cy="2" r="2" transform="matrix(-1 0 0 1 214 354)" fill="white" fill-opacity="0.3" style="mix-blend-mode:overlay"/>
<circle cx="2" cy="2" r="2" transform="matrix(-1 0 0 1 214 378)" fill="white" fill-opacity="0.3" style="mix-blend-mode:overlay"/>
<circle cx="2" cy="2" r="2" transform="matrix(-1 0 0 1 214 402)" fill="white" fill-opacity="0.7" style="mix-blend-mode:overlay"/>
<circle cx="2" cy="2" r="2" transform="matrix(-1 0 0 1 214 426)" fill="white" fill-opacity="0.3" style="mix-blend-mode:overlay"/>
<circle cx="2" cy="2" r="2" transform="matrix(-1 0 0 1 214 450)" fill="white" fill-opacity="0.3" style="mix-blend-mode:overlay"/>
<circle cx="2" cy="2" r="2" transform="matrix(-1 0 0 1 214 474)" fill="white" fill-opacity="0.3" style="mix-blend-mode:overlay"/>
<circle cx="2" cy="2" r="2" transform="matrix(-1 0 0 1 214 498)" fill="white" fill-opacity="0.3" style="mix-blend-mode:overlay"/>
<circle cx="2" cy="2" r="2" transform="matrix(-1 0 0 1 214 522)" fill="white" fill-opacity="0.3" style="mix-blend-mode:overlay"/>
<circle cx="2" cy="2" r="2" transform="matrix(-1 0 0 1 214 546)" fill="white" fill-opacity="0.3" style="mix-blend-mode:overlay"/>
<circle cx="2" cy="2" r="2" transform="matrix(-1 0 0 1 214 570)" fill="white" fill-opacity="0.3" style="mix-blend-mode:overlay"/>
<circle cx="2" cy="2" r="2" transform="matrix(-1 0 0 1 214 594)" fill="white" fill-opacity="0.7" style="mix-blend-mode:overlay"/>
<circle cx="2" cy="2" r="2" transform="matrix(-1 0 0 1 214 618)" fill="white" fill-opacity="0.3" style="mix-blend-mode:overlay"/>
<circle cx="2" cy="2" r="2" transform="matrix(-1 0 0 1 190 234)" fill="white" fill-opacity="0.3" style="mix-blend-mode:overlay"/>
<circle cx="2" cy="2" r="2" transform="matrix(-1 0 0 1 190 258)" fill="white" fill-opacity="0.3" style="mix-blend-mode:overlay"/>
<circle cx="2" cy="2" r="2" transform="matrix(-1 0 0 1 190 282)" fill="white" fill-opacity="0.3" style="mix-blend-mode:overlay"/>
<circle cx="2" cy="2" r="2" transform="matrix(-1 0 0 1 190 306)" fill="white" fill-opacity="0.3" style="mix-blend-mode:overlay"/>
<circle cx="2" cy="2" r="2" transform="matrix(-1 0 0 1 190 330)" fill="white" fill-opacity="0.3" style="mix-blend-mode:overlay"/>
<circle cx="2" cy="2" r="2" transform="matrix(-1 0 0 1 190 354)" fill="white" fill-opacity="0.7" style="mix-blend-mode:overlay"/>
<circle cx="2" cy="2" r="2" transform="matrix(-1 0 0 1 190 378)" fill="white" fill-opacity="0.3" style="mix-blend-mode:overlay"/>
<circle cx="2" cy="2" r="2" transform="matrix(-1 0 0 1 190 402)" fill="white" fill-opacity="0.3" style="mix-blend-mode:overlay"/>
<circle cx="2" cy="2" r="2" transform="matrix(-1 0 0 1 190 426)" fill="white" fill-opacity="0.3" style="mix-blend-mode:overlay"/>
<circle cx="2" cy="2" r="2" transform="matrix(-1 0 0 1 190 450)" fill="white" fill-opacity="0.7" style="mix-blend-mode:overlay"/>
<circle cx="2" cy="2" r="2" transform="matrix(-1 0 0 1 190 474)" fill="white" fill-opacity="0.7" style="mix-blend-mode:overlay"/>
<circle cx="2" cy="2" r="2" transform="matrix(-1 0 0 1 190 498)" fill="white" fill-opacity="0.3" style="mix-blend-mode:overlay"/>
<circle cx="2" cy="2" r="2" transform="matrix(-1 0 0 1 190 522)" fill="white" fill-opacity="0.3" style="mix-blend-mode:overlay"/>
<circle cx="2" cy="2" r="2" transform="matrix(-1 0 0 1 190 546)" fill="white" fill-opacity="0.3" style="mix-blend-mode:overlay"/>
<circle cx="2" cy="2" r="2" transform="matrix(-1 0 0 1 190 570)" fill="white" fill-opacity="0.3" style="mix-blend-mode:overlay"/>
<circle cx="2" cy="2" r="2" transform="matrix(-1 0 0 1 190 594)" fill="white" fill-opacity="0.3" style="mix-blend-mode:overlay"/>
<circle cx="2" cy="2" r="2" transform="matrix(-1 0 0 1 190 618)" fill="white" fill-opacity="0.3" style="mix-blend-mode:overlay"/>
<circle cx="2" cy="2" r="2" transform="matrix(-1 0 0 1 166 234)" fill="white" fill-opacity="0.7" style="mix-blend-mode:overlay"/>
<circle cx="2" cy="2" r="2" transform="matrix(-1 0 0 1 166 258)" fill="white" fill-opacity="0.7" style="mix-blend-mode:overlay"/>
<circle cx="2" cy="2" r="2" transform="matrix(-1 0 0 1 166 282)" fill="white" fill-opacity="0.3" style="mix-blend-mode:overlay"/>
<circle cx="2" cy="2" r="2" transform="matrix(-1 0 0 1 166 306)" fill="white" fill-opacity="0.3" style="mix-blend-mode:overlay"/>
<circle cx="2" cy="2" r="2" transform="matrix(-1 0 0 1 166 330)" fill="white" fill-opacity="0.3" style="mix-blend-mode:overlay"/>
<circle cx="2" cy="2" r="2" transform="matrix(-1 0 0 1 166 354)" fill="white" fill-opacity="0.7" style="mix-blend-mode:overlay"/>
<circle cx="2" cy="2" r="2" transform="matrix(-1 0 0 1 166 378)" fill="white" fill-opacity="0.7" style="mix-blend-mode:overlay"/>
<circle cx="2" cy="2" r="2" transform="matrix(-1 0 0 1 166 402)" fill="white" fill-opacity="0.3" style="mix-blend-mode:overlay"/>
<circle cx="2" cy="2" r="2" transform="matrix(-1 0 0 1 166 426)" fill="white" fill-opacity="0.7" style="mix-blend-mode:overlay"/>
<circle cx="2" cy="2" r="2" transform="matrix(-1 0 0 1 166 450)" fill="white" fill-opacity="0.3" style="mix-blend-mode:overlay"/>
<circle cx="2" cy="2" r="2" transform="matrix(-1 0 0 1 166 474)" fill="white" fill-opacity="0.3" style="mix-blend-mode:overlay"/>
<circle cx="2" cy="2" r="2" transform="matrix(-1 0 0 1 166 498)" fill="white" fill-opacity="0.3" style="mix-blend-mode:overlay"/>
<circle cx="2" cy="2" r="2" transform="matrix(-1 0 0 1 166 522)" fill="white" fill-opacity="0.3" style="mix-blend-mode:overlay"/>
<circle cx="2" cy="2" r="2" transform="matrix(-1 0 0 1 166 546)" fill="white" fill-opacity="0.7" style="mix-blend-mode:overlay"/>
<circle cx="2" cy="2" r="2" transform="matrix(-1 0 0 1 166 570)" fill="white" fill-opacity="0.3" style="mix-blend-mode:overlay"/>
<circle cx="2" cy="2" r="2" transform="matrix(-1 0 0 1 166 594)" fill="white" fill-opacity="0.3" style="mix-blend-mode:overlay"/>
<circle cx="2" cy="2" r="2" transform="matrix(-1 0 0 1 166 618)" fill="white" fill-opacity="0.3" style="mix-blend-mode:overlay"/>
<circle cx="2" cy="2" r="2" transform="matrix(-1 0 0 1 142 234)" fill="white" fill-opacity="0.7" style="mix-blend-mode:overlay"/>
<circle cx="2" cy="2" r="2" transform="matrix(-1 0 0 1 142 258)" fill="white" fill-opacity="0.3" style="mix-blend-mode:overlay"/>
<circle cx="2" cy="2" r="2" transform="matrix(-1 0 0 1 142 282)" fill="white" fill-opacity="0.7" style="mix-blend-mode:overlay"/>
<circle cx="2" cy="2" r="2" transform="matrix(-1 0 0 1 142 306)" fill="white" fill-opacity="0.3" style="mix-blend-mode:overlay"/>
<circle cx="2" cy="2" r="2" transform="matrix(-1 0 0 1 142 330)" fill="white" fill-opacity="0.7" style="mix-blend-mode:overlay"/>
<circle cx="2" cy="2" r="2" transform="matrix(-1 0 0 1 142 354)" fill="white" fill-opacity="0.7" style="mix-blend-mode:overlay"/>
<circle cx="2" cy="2" r="2" transform="matrix(-1 0 0 1 142 378)" fill="white" fill-opacity="0.3" style="mix-blend-mode:overlay"/>
<circle cx="2" cy="2" r="2" transform="matrix(-1 0 0 1 142 402)" fill="white" fill-opacity="0.3" style="mix-blend-mode:overlay"/>
<circle cx="2" cy="2" r="2" transform="matrix(-1 0 0 1 142 426)" fill="white" fill-opacity="0.3" style="mix-blend-mode:overlay"/>
<circle cx="2" cy="2" r="2" transform="matrix(-1 0 0 1 142 450)" fill="white" fill-opacity="0.3" style="mix-blend-mode:overlay"/>
<circle cx="2" cy="2" r="2" transform="matrix(-1 0 0 1 142 474)" fill="white" fill-opacity="0.3" style="mix-blend-mode:overlay"/>
<circle cx="2" cy="2" r="2" transform="matrix(-1 0 0 1 142 498)" fill="white" fill-opacity="0.3" style="mix-blend-mode:overlay"/>
<circle cx="2" cy="2" r="2" transform="matrix(-1 0 0 1 142 522)" fill="white" fill-opacity="0.7" style="mix-blend-mode:overlay"/>
<circle cx="2" cy="2" r="2" transform="matrix(-1 0 0 1 142 546)" fill="white" fill-opacity="0.7" style="mix-blend-mode:overlay"/>
<circle cx="2" cy="2" r="2" transform="matrix(-1 0 0 1 142 570)" fill="white" fill-opacity="0.3" style="mix-blend-mode:overlay"/>
<circle cx="2" cy="2" r="2" transform="matrix(-1 0 0 1 142 594)" fill="white" fill-opacity="0.3" style="mix-blend-mode:overlay"/>
<circle cx="2" cy="2" r="2" transform="matrix(-1 0 0 1 142 618)" fill="white" fill-opacity="0.7" style="mix-blend-mode:overlay"/>
<circle cx="2" cy="2" r="2" transform="matrix(-1 0 0 1 118 234)" fill="white" fill-opacity="0.7" style="mix-blend-mode:overlay"/>
<circle cx="2" cy="2" r="2" transform="matrix(-1 0 0 1 118 258)" fill="white" fill-opacity="0.3" style="mix-blend-mode:overlay"/>
<circle cx="2" cy="2" r="2" transform="matrix(-1 0 0 1 118 282)" fill="white" fill-opacity="0.3" style="mix-blend-mode:overlay"/>
<circle cx="2" cy="2" r="2" transform="matrix(-1 0 0 1 118 306)" fill="white" fill-opacity="0.3" style="mix-blend-mode:overlay"/>
<circle cx="2" cy="2" r="2" transform="matrix(-1 0 0 1 118 330)" fill="white" fill-opacity="0.7" style="mix-blend-mode:overlay"/>
<circle cx="2" cy="2" r="2" transform="matrix(-1 0 0 1 118 354)" fill="white" fill-opacity="0.7" style="mix-blend-mode:overlay"/>
<circle cx="2" cy="2" r="2" transform="matrix(-1 0 0 1 118 378)" fill="white" fill-opacity="0.7" style="mix-blend-mode:overlay"/>
<circle cx="2" cy="2" r="2" transform="matrix(-1 0 0 1 118 402)" fill="white" fill-opacity="0.3" style="mix-blend-mode:overlay"/>
<circle cx="2" cy="2" r="2" transform="matrix(-1 0 0 1 118 426)" fill="white" fill-opacity="0.3" style="mix-blend-mode:overlay"/>
<circle cx="2" cy="2" r="2" transform="matrix(-1 0 0 1 118 450)" fill="white" fill-opacity="0.7" style="mix-blend-mode:overlay"/>
<circle cx="2" cy="2" r="2" transform="matrix(-1 0 0 1 118 474)" fill="white" fill-opacity="0.7" style="mix-blend-mode:overlay"/>
<circle cx="2" cy="2" r="2" transform="matrix(-1 0 0 1 118 498)" fill="white" fill-opacity="0.7" style="mix-blend-mode:overlay"/>
<circle cx="2" cy="2" r="2" transform="matrix(-1 0 0 1 118 522)" fill="white" fill-opacity="0.3" style="mix-blend-mode:overlay"/>
<circle cx="2" cy="2" r="2" transform="matrix(-1 0 0 1 118 546)" fill="white" fill-opacity="0.3" style="mix-blend-mode:overlay"/>
<circle cx="2" cy="2" r="2" transform="matrix(-1 0 0 1 118 570)" fill="white" fill-opacity="0.3" style="mix-blend-mode:overlay"/>
<circle cx="2" cy="2" r="2" transform="matrix(-1 0 0 1 118 594)" fill="white" fill-opacity="0.3" style="mix-blend-mode:overlay"/>
<circle cx="2" cy="2" r="2" transform="matrix(-1 0 0 1 118 618)" fill="white" fill-opacity="0.3" style="mix-blend-mode:overlay"/>
<circle cx="2" cy="2" r="2" transform="matrix(-1 0 0 1 94 234)" fill="white" fill-opacity="0.3" style="mix-blend-mode:overlay"/>
<circle cx="2" cy="2" r="2" transform="matrix(-1 0 0 1 94 258)" fill="white" fill-opacity="0.7" style="mix-blend-mode:overlay"/>
<circle cx="2" cy="2" r="2" transform="matrix(-1 0 0 1 94 282)" fill="white" fill-opacity="0.3" style="mix-blend-mode:overlay"/>
<circle cx="2" cy="2" r="2" transform="matrix(-1 0 0 1 94 306)" fill="white" fill-opacity="0.7" style="mix-blend-mode:overlay"/>
<circle cx="2" cy="2" r="2" transform="matrix(-1 0 0 1 94 330)" fill="white" fill-opacity="0.7" style="mix-blend-mode:overlay"/>
<circle cx="2" cy="2" r="2" transform="matrix(-1 0 0 1 94 354)" fill="white" fill-opacity="0.3" style="mix-blend-mode:overlay"/>
<circle cx="2" cy="2" r="2" transform="matrix(-1 0 0 1 94 378)" fill="white" fill-opacity="0.7" style="mix-blend-mode:overlay"/>
<circle cx="2" cy="2" r="2" transform="matrix(-1 0 0 1 94 402)" fill="white" fill-opacity="0.7" style="mix-blend-mode:overlay"/>
<circle cx="2" cy="2" r="2" transform="matrix(-1 0 0 1 94 426)" fill="white" fill-opacity="0.3" style="mix-blend-mode:overlay"/>
<circle cx="2" cy="2" r="2" transform="matrix(-1 0 0 1 94 450)" fill="white" fill-opacity="0.7" style="mix-blend-mode:overlay"/>
<circle cx="2" cy="2" r="2" transform="matrix(-1 0 0 1 94 474)" fill="white" fill-opacity="0.7" style="mix-blend-mode:overlay"/>
<circle cx="2" cy="2" r="2" transform="matrix(-1 0 0 1 94 498)" fill="white" fill-opacity="0.3" style="mix-blend-mode:overlay"/>
<circle cx="2" cy="2" r="2" transform="matrix(-1 0 0 1 94 522)" fill="white" fill-opacity="0.3" style="mix-blend-mode:overlay"/>
<circle cx="2" cy="2" r="2" transform="matrix(-1 0 0 1 94 546)" fill="white" fill-opacity="0.3" style="mix-blend-mode:overlay"/>
<circle cx="2" cy="2" r="2" transform="matrix(-1 0 0 1 94 570)" fill="white" fill-opacity="0.7" style="mix-blend-mode:overlay"/>
<circle cx="2" cy="2" r="2" transform="matrix(-1 0 0 1 94 594)" fill="white" fill-opacity="0.3" style="mix-blend-mode:overlay"/>
<circle cx="2" cy="2" r="2" transform="matrix(-1 0 0 1 94 618)" fill="white" fill-opacity="0.3" style="mix-blend-mode:overlay"/>
<circle cx="2" cy="2" r="2" transform="matrix(-1 0 0 1 70 234)" fill="white" fill-opacity="0.7" style="mix-blend-mode:overlay"/>
<circle cx="2" cy="2" r="2" transform="matrix(-1 0 0 1 70 258)" fill="white" fill-opacity="0.3" style="mix-blend-mode:overlay"/>
<circle cx="2" cy="2" r="2" transform="matrix(-1 0 0 1 70 282)" fill="white" fill-opacity="0.3" style="mix-blend-mode:overlay"/>
<circle cx="2" cy="2" r="2" transform="matrix(-1 0 0 1 70 306)" fill="white" fill-opacity="0.7" style="mix-blend-mode:overlay"/>
<circle cx="2" cy="2" r="2" transform="matrix(-1 0 0 1 70 330)" fill="white" fill-opacity="0.7" style="mix-blend-mode:overlay"/>
<circle cx="2" cy="2" r="2" transform="matrix(-1 0 0 1 70 354)" fill="white" fill-opacity="0.3" style="mix-blend-mode:overlay"/>
<circle cx="2" cy="2" r="2" transform="matrix(-1 0 0 1 70 378)" fill="white" fill-opacity="0.3" style="mix-blend-mode:overlay"/>
<circle cx="2" cy="2" r="2" transform="matrix(-1 0 0 1 70 402)" fill="white" fill-opacity="0.7" style="mix-blend-mode:overlay"/>
<circle cx="2" cy="2" r="2" transform="matrix(-1 0 0 1 70 426)" fill="white" fill-opacity="0.3" style="mix-blend-mode:overlay"/>
<circle cx="2" cy="2" r="2" transform="matrix(-1 0 0 1 70 450)" fill="white" fill-opacity="0.3" style="mix-blend-mode:overlay"/>
<circle cx="2" cy="2" r="2" transform="matrix(-1 0 0 1 70 474)" fill="white" fill-opacity="0.3" style="mix-blend-mode:overlay"/>
<circle cx="2" cy="2" r="2" transform="matrix(-1 0 0 1 70 498)" fill="white" fill-opacity="0.7" style="mix-blend-mode:overlay"/>
<circle cx="2" cy="2" r="2" transform="matrix(-1 0 0 1 70 522)" fill="white" fill-opacity="0.3" style="mix-blend-mode:overlay"/>
<circle cx="2" cy="2" r="2" transform="matrix(-1 0 0 1 70 546)" fill="white" fill-opacity="0.3" style="mix-blend-mode:overlay"/>
<circle cx="2" cy="2" r="2" transform="matrix(-1 0 0 1 70 570)" fill="white" fill-opacity="0.3" style="mix-blend-mode:overlay"/>
<circle cx="2" cy="2" r="2" transform="matrix(-1 0 0 1 70 594)" fill="white" fill-opacity="0.3" style="mix-blend-mode:overlay"/>
<circle cx="2" cy="2" r="2" transform="matrix(-1 0 0 1 70 618)" fill="white" fill-opacity="0.3" style="mix-blend-mode:overlay"/>
<circle cx="2" cy="2" r="2" transform="matrix(-1 0 0 1 46 234)" fill="white" fill-opacity="0.3" style="mix-blend-mode:overlay"/>
<circle cx="2" cy="2" r="2" transform="matrix(-1 0 0 1 46 258)" fill="white" fill-opacity="0.7" style="mix-blend-mode:overlay"/>
<circle cx="2" cy="2" r="2" transform="matrix(-1 0 0 1 46 282)" fill="white" fill-opacity="0.3" style="mix-blend-mode:overlay"/>
<circle cx="2" cy="2" r="2" transform="matrix(-1 0 0 1 46 306)" fill="white" fill-opacity="0.7" style="mix-blend-mode:overlay"/>
<circle cx="2" cy="2" r="2" transform="matrix(-1 0 0 1 46 330)" fill="white" fill-opacity="0.3" style="mix-blend-mode:overlay"/>
<circle cx="2" cy="2" r="2" transform="matrix(-1 0 0 1 46 354)" fill="white" fill-opacity="0.3" style="mix-blend-mode:overlay"/>
<circle cx="2" cy="2" r="2" transform="matrix(-1 0 0 1 46 378)" fill="white" fill-opacity="0.3" style="mix-blend-mode:overlay"/>
<circle cx="2" cy="2" r="2" transform="matrix(-1 0 0 1 46 402)" fill="white" fill-opacity="0.3" style="mix-blend-mode:overlay"/>
<circle cx="2" cy="2" r="2" transform="matrix(-1 0 0 1 46 426)" fill="white" fill-opacity="0.3" style="mix-blend-mode:overlay"/>
<circle cx="2" cy="2" r="2" transform="matrix(-1 0 0 1 46 450)" fill="white" fill-opacity="0.3" style="mix-blend-mode:overlay"/>
<circle cx="2" cy="2" r="2" transform="matrix(-1 0 0 1 46 474)" fill="white" fill-opacity="0.3" style="mix-blend-mode:overlay"/>
<circle cx="2" cy="2" r="2" transform="matrix(-1 0 0 1 46 498)" fill="white" fill-opacity="0.7" style="mix-blend-mode:overlay"/>
<circle cx="2" cy="2" r="2" transform="matrix(-1 0 0 1 46 522)" fill="white" fill-opacity="0.7" style="mix-blend-mode:overlay"/>
<circle cx="2" cy="2" r="2" transform="matrix(-1 0 0 1 46 546)" fill="white" fill-opacity="0.3" style="mix-blend-mode:overlay"/>
<circle cx="2" cy="2" r="2" transform="matrix(-1 0 0 1 46 570)" fill="white" fill-opacity="0.3" style="mix-blend-mode:overlay"/>
<circle cx="2" cy="2" r="2" transform="matrix(-1 0 0 1 46 594)" fill="white" fill-opacity="0.7" style="mix-blend-mode:overlay"/>
<circle cx="2" cy="2" r="2" transform="matrix(-1 0 0 1 46 618)" fill="white" fill-opacity="0.7" style="mix-blend-mode:overlay"/>
<circle cx="2" cy="2" r="2" transform="matrix(-1 0 0 1 22 234)" fill="white" fill-opacity="0.3" style="mix-blend-mode:overlay"/>
<circle cx="2" cy="2" r="2" transform="matrix(-1 0 0 1 22 258)" fill="white" fill-opacity="0.3" style="mix-blend-mode:overlay"/>
<circle cx="2" cy="2" r="2" transform="matrix(-1 0 0 1 22 282)" fill="white" fill-opacity="0.3" style="mix-blend-mode:overlay"/>
<circle cx="2" cy="2" r="2" transform="matrix(-1 0 0 1 22 306)" fill="white" fill-opacity="0.3" style="mix-blend-mode:overlay"/>
<circle cx="2" cy="2" r="2" transform="matrix(-1 0 0 1 22 330)" fill="white" fill-opacity="0.3" style="mix-blend-mode:overlay"/>
<circle cx="2" cy="2" r="2" transform="matrix(-1 0 0 1 22 354)" fill="white" fill-opacity="0.3" style="mix-blend-mode:overlay"/>
<circle cx="2" cy="2" r="2" transform="matrix(-1 0 0 1 22 378)" fill="white" fill-opacity="0.3" style="mix-blend-mode:overlay"/>
<circle cx="2" cy="2" r="2" transform="matrix(-1 0 0 1 22 402)" fill="white" fill-opacity="0.3" style="mix-blend-mode:overlay"/>
<circle cx="2" cy="2" r="2" transform="matrix(-1 0 0 1 22 426)" fill="white" fill-opacity="0.7" style="mix-blend-mode:overlay"/>
<circle cx="2" cy="2" r="2" transform="matrix(-1 0 0 1 22 450)" fill="white" fill-opacity="0.7" style="mix-blend-mode:overlay"/>
<circle cx="2" cy="2" r="2" transform="matrix(-1 0 0 1 22 474)" fill="white" fill-opacity="0.7" style="mix-blend-mode:overlay"/>
<circle cx="2" cy="2" r="2" transform="matrix(-1 0 0 1 22 498)" fill="white" fill-opacity="0.3" style="mix-blend-mode:overlay"/>
<circle cx="2" cy="2" r="2" transform="matrix(-1 0 0 1 22 522)" fill="white" fill-opacity="0.7" style="mix-blend-mode:overlay"/>
<circle cx="2" cy="2" r="2" transform="matrix(-1 0 0 1 22 546)" fill="white" fill-opacity="0.7" style="mix-blend-mode:overlay"/>
<circle cx="2" cy="2" r="2" transform="matrix(-1 0 0 1 22 570)" fill="white" fill-opacity="0.3" style="mix-blend-mode:overlay"/>
<circle cx="2" cy="2" r="2" transform="matrix(-1 0 0 1 22 594)" fill="white" fill-opacity="0.3" style="mix-blend-mode:overlay"/>
<circle cx="2" cy="2" r="2" transform="matrix(-1 0 0 1 22 618)" fill="white" fill-opacity="0.3" style="mix-blend-mode:overlay"/>
</g>
</g>
<defs>
<clipPath id="clip0_107_5812">
<rect width="1440" height="983" fill="white" transform="matrix(-1 0 0 1 1410 -145)"/>
</clipPath>
</defs>
</svg>
