<svg width="23" height="32" viewBox="0 0 23 32" fill="none" xmlns="http://www.w3.org/2000/svg">
<path d="M3.00373 32C2.17413 32 1.46611 31.7276 0.879664 31.1828C0.293221 30.638 0 29.9642 0 29.1613V6.49462C0 5.66308 0.293221 4.93907 0.879664 4.32258C1.46611 3.70609 2.17413 3.31183 3.00373 3.13978L17.5075 0V24.4301L2.61754 27.7419C2.24565 27.828 1.91667 27.9928 1.6306 28.2366C1.34453 28.4803 1.20149 28.7885 1.20149 29.1613C1.20149 29.6487 1.38029 30.043 1.73787 30.3441C2.09546 30.6452 2.51741 30.7957 3.00373 30.7957H21.7985V5.50538H23V32H3.00373ZM4.97761 26.0215L16.306 23.4839V1.50538L4.97761 3.95699V26.0215ZM3.77612 26.2796V4.21505L3.00373 4.3871C2.48881 4.50179 2.0597 4.75269 1.71642 5.13978C1.37313 5.52688 1.20149 5.97849 1.20149 6.49462V27.1398C1.43035 26.9964 1.6592 26.8746 1.88806 26.7742C2.11692 26.6738 2.36007 26.595 2.61754 26.5376L3.77612 26.2796Z" fill="#83B59F"/>
</svg>
