<svg width="32" height="32" viewBox="0 0 32 32" fill="none" xmlns="http://www.w3.org/2000/svg">
<path d="M24.092 28.0798L28.9655 23.339L28.046 22.4274L24.092 26.302L22.3448 24.5242L21.4253 25.4359L24.092 28.0798ZM4.96552 7.93162H23.3563V6.65527H4.96552V7.93162ZM25.1954 32C23.295 32 21.6858 31.3466 20.3678 30.0399C19.0498 28.7331 18.3908 27.1377 18.3908 25.2536C18.3908 23.3694 19.0498 21.774 20.3678 20.4672C21.6858 19.1605 23.295 18.5071 25.1954 18.5071C27.0958 18.5071 28.705 19.1605 30.023 20.4672C31.341 21.774 32 23.3694 32 25.2536C32 27.1377 31.341 28.7331 30.023 30.0399C28.705 31.3466 27.0958 32 25.1954 32ZM0 29.3561V2.73504C0 1.97531 0.268199 1.32953 0.804598 0.797721C1.341 0.265907 1.99234 0 2.75862 0H25.5632C26.3295 0 26.9808 0.265907 27.5172 0.797721C28.0536 1.32953 28.3218 1.97531 28.3218 2.73504V13.1738C28.1073 13.113 27.9004 13.0598 27.7011 13.0142C27.5019 12.9687 27.2797 12.9307 27.0345 12.9003V2.73504C27.0345 2.37037 26.8812 2.03609 26.5747 1.73219C26.2682 1.4283 25.931 1.27635 25.5632 1.27635H2.75862C2.3908 1.27635 2.05364 1.4283 1.74713 1.73219C1.44061 2.03609 1.28736 2.37037 1.28736 2.73504V26.8946H13.1034C13.1648 27.2593 13.2337 27.6239 13.3103 27.9886C13.387 28.3533 13.5019 28.7028 13.6552 29.037L11.7701 27.8974L9.37931 29.3561L6.98851 27.8974L4.5977 29.3561L2.2069 27.8974L0 29.3561ZM4.96552 21.4245H13.4253C13.4866 21.1814 13.5556 20.9611 13.6322 20.7635C13.7088 20.566 13.7931 20.3609 13.8851 20.1481H4.96552V21.4245ZM4.96552 14.6781H18.5287C18.9579 14.4046 19.387 14.1614 19.8161 13.9487C20.2452 13.736 20.705 13.5537 21.1954 13.4017H4.96552V14.6781Z" fill="#83B59F"/>
</svg>
