<svg width="33" height="32" viewBox="0 0 33 32" fill="none" xmlns="http://www.w3.org/2000/svg">
<path d="M5.36068 30.9862C4.69438 30.3103 4.36123 29.4931 4.36123 28.5346C4.36123 27.576 4.69438 26.7588 5.36068 26.0829C6.02698 25.4071 6.8326 25.0691 7.77753 25.0691C8.04405 25.0691 8.3348 25.1121 8.64978 25.1982C8.96476 25.2842 9.25551 25.4009 9.52203 25.5484L13.7015 20.2765C13.217 19.7604 12.8899 19.1951 12.7203 18.5806C12.5507 17.9662 12.5264 17.3395 12.6476 16.7005L6.46916 14.6359C6.17841 15.2012 5.76046 15.6559 5.21531 16C4.67015 16.3441 4.07048 16.5161 3.4163 16.5161C2.47137 16.5161 1.66575 16.1782 0.999449 15.5023C0.33315 14.8264 0 14.0092 0 13.0507C0 12.0922 0.33315 11.275 0.999449 10.5991C1.66575 9.9232 2.47137 9.58525 3.4163 9.58525C4.36123 9.58525 5.16685 9.9232 5.83315 10.5991C6.49945 11.275 6.8326 12.0922 6.8326 13.0507C6.8326 13.1982 6.82654 13.3088 6.81443 13.3825C6.80231 13.4562 6.79626 13.53 6.79626 13.6037L12.9383 15.7788C13.2048 15.2381 13.5986 14.7588 14.1195 14.341C14.6404 13.9232 15.2643 13.6528 15.9912 13.53V6.89401C15.0705 6.74654 14.3557 6.33487 13.8469 5.65899C13.3381 4.9831 13.0837 4.25192 13.0837 3.46544C13.0837 2.50691 13.4168 1.68971 14.0831 1.01382C14.7494 0.337942 15.5551 0 16.5 0C17.4449 0 18.2506 0.337942 18.9168 1.01382C19.5831 1.68971 19.9163 2.50691 19.9163 3.46544C19.9163 4.25192 19.6619 4.9831 19.1531 5.65899C18.6443 6.33487 17.9295 6.74654 17.0088 6.89401V13.53C17.7357 13.6528 18.3535 13.9232 18.8623 14.341C19.3711 14.7588 19.7709 15.2381 20.0617 15.7788L26.2037 13.6037C26.1795 13.5054 26.1674 13.4255 26.1674 13.3641V13.0507C26.1674 12.0922 26.5006 11.275 27.1668 10.5991C27.8331 9.9232 28.6388 9.58525 29.5837 9.58525C30.5286 9.58525 31.3343 9.9232 32.0006 10.5991C32.6668 11.275 33 12.0922 33 13.0507C33 14.0092 32.6668 14.8264 32.0006 15.5023C31.3343 16.1782 30.5286 16.5161 29.5837 16.5161C28.9295 16.5161 28.3298 16.3441 27.7847 16C27.2395 15.6559 26.8216 15.2012 26.5308 14.6359L20.3524 16.7005C20.4736 17.3395 20.4493 17.9662 20.2797 18.5806C20.1101 19.1951 19.783 19.7481 19.2985 20.2396L23.478 25.5115C23.7445 25.3886 24.0352 25.2842 24.3502 25.1982C24.6652 25.1121 24.9559 25.0691 25.2225 25.0691C26.1674 25.0691 26.973 25.4071 27.6393 26.0829C28.3056 26.7588 28.6388 27.576 28.6388 28.5346C28.6388 29.4931 28.3056 30.3103 27.6393 30.9862C26.973 31.6621 26.1674 32 25.2225 32C24.2775 32 23.4719 31.6621 22.8056 30.9862C22.1393 30.3103 21.8062 29.4931 21.8062 28.5346C21.8062 28.1167 21.8728 27.7112 22.0061 27.318C22.1393 26.9247 22.3756 26.5561 22.7148 26.212L18.5352 20.8664C17.978 21.2596 17.3056 21.4562 16.5182 21.4562C15.7307 21.4562 15.0463 21.2596 14.4648 20.8664L10.2852 26.212C10.6002 26.5561 10.8304 26.9247 10.9758 27.318C11.1211 27.7112 11.1938 28.1167 11.1938 28.5346C11.1938 29.4931 10.8607 30.3103 10.1944 30.9862C9.52808 31.6621 8.72247 32 7.77753 32C6.8326 32 6.02698 31.6621 5.36068 30.9862ZM3.4163 15.4839C4.07048 15.4839 4.63381 15.2442 5.10628 14.765C5.57874 14.2857 5.81498 13.7143 5.81498 13.0507C5.81498 12.3871 5.57874 11.8157 5.10628 11.3364C4.63381 10.8571 4.07048 10.6175 3.4163 10.6175C2.76211 10.6175 2.19879 10.8571 1.72632 11.3364C1.25385 11.8157 1.01762 12.3871 1.01762 13.0507C1.01762 13.7143 1.25385 14.2857 1.72632 14.765C2.19879 15.2442 2.76211 15.4839 3.4163 15.4839ZM9.46751 30.2488C9.93998 29.7696 10.1762 29.1982 10.1762 28.5346C10.1762 27.871 9.93998 27.2995 9.46751 26.8203C8.99504 26.341 8.43172 26.1014 7.77753 26.1014C7.12335 26.1014 6.56002 26.341 6.08755 26.8203C5.61509 27.2995 5.37885 27.871 5.37885 28.5346C5.37885 29.1982 5.61509 29.7696 6.08755 30.2488C6.56002 30.7281 7.12335 30.9677 7.77753 30.9677C8.43172 30.9677 8.99504 30.7281 9.46751 30.2488ZM18.19 5.17972C18.6624 4.70046 18.8987 4.12903 18.8987 3.46544C18.8987 2.80184 18.6624 2.23041 18.19 1.75115C17.7175 1.27189 17.1542 1.03226 16.5 1.03226C15.8458 1.03226 15.2825 1.27189 14.81 1.75115C14.3376 2.23041 14.1013 2.80184 14.1013 3.46544C14.1013 4.12903 14.3376 4.70046 14.81 5.17972C15.2825 5.65899 15.8458 5.89862 16.5 5.89862C17.1542 5.89862 17.7175 5.65899 18.19 5.17972ZM16.5 20.424C17.2996 20.424 17.984 20.1352 18.5534 19.5576C19.1228 18.98 19.4075 18.2857 19.4075 17.4747C19.4075 16.6636 19.1228 15.9693 18.5534 15.3917C17.984 14.8141 17.2996 14.5253 16.5 14.5253C15.7004 14.5253 15.016 14.8141 14.4466 15.3917C13.8772 15.9693 13.5925 16.6636 13.5925 17.4747C13.5925 18.2857 13.8772 18.98 14.4466 19.5576C15.016 20.1352 15.7004 20.424 16.5 20.424ZM26.9124 30.2488C27.3849 29.7696 27.6211 29.1982 27.6211 28.5346C27.6211 27.871 27.3849 27.2995 26.9124 26.8203C26.44 26.341 25.8767 26.1014 25.2225 26.1014C24.5683 26.1014 24.005 26.341 23.5325 26.8203C23.06 27.2995 22.8238 27.871 22.8238 28.5346C22.8238 29.1982 23.06 29.7696 23.5325 30.2488C24.005 30.7281 24.5683 30.9677 25.2225 30.9677C25.8767 30.9677 26.44 30.7281 26.9124 30.2488ZM31.2737 14.765C31.7461 14.2857 31.9824 13.7143 31.9824 13.0507C31.9824 12.3871 31.7461 11.8157 31.2737 11.3364C30.8012 10.8571 30.2379 10.6175 29.5837 10.6175C28.9295 10.6175 28.3662 10.8571 27.8937 11.3364C27.4213 11.8157 27.185 12.3871 27.185 13.0507C27.185 13.7143 27.4213 14.2857 27.8937 14.765C28.3662 15.2442 28.9295 15.4839 29.5837 15.4839C30.2379 15.4839 30.8012 15.2442 31.2737 14.765Z" fill="#83B59F"/>
</svg>
